<svg width="146" height="151" viewBox="0 0 146 151" fill="none" xmlns="http://www.w3.org/2000/svg">
<path d="M63.7418 1.00293C62.4496 0.877385 61.3236 1.35475 60.3782 2.50027C62.7487 5.2721 64.0874 9.29314 63.9587 13.2154L58.9587 15.439L59.3762 16.7224L72.6858 10.8032L72.2709 9.51884L67.1348 11.8029C66.0023 10.4106 65.0949 8.73651 64.5071 6.92348C63.889 5.01683 63.6383 2.99828 63.7419 1.00283L63.7418 1.00293ZM70.0138 13.3338L66.9016 14.7178L68.5531 19.9314L70.3363 25.4345L72.1551 30.9245L73.8919 36.4068L75.5532 41.4205L77.6162 36.7945L70.0138 13.3337L70.0138 13.3338ZM65.563 15.3131L62.8874 16.5046L70.4431 39.8208L71.8322 40.4403L72.7638 36.9082L70.0402 34.9715L70.9923 31.4416L68.2668 29.5041L69.2099 25.9366L66.4845 23.9992L67.425 20.433L64.713 18.5324L65.563 15.3131Z" fill="#DD2E44"/>
<path d="M83.691 6.37106C83.8918 6.13374 84.1611 5.96123 84.4616 5.87737C84.7621 5.7935 85.0791 5.80241 85.3686 5.90288C85.7809 5.69984 86.2467 5.6361 86.6915 5.72184C87.1364 5.80759 87.5346 6.03786 87.8226 6.37589C88.1201 6.26755 88.4389 6.23575 88.7479 6.28359C89.0569 6.33142 89.3457 6.45726 89.586 6.64885C89.8263 6.84044 90.01 7.09124 90.1192 7.37684C90.2284 7.66243 90.2594 7.97308 90.2091 8.27853C90.5272 8.28479 90.8324 8.38891 91.0813 8.57618C91.3303 8.76346 91.5106 9.02443 91.5968 9.32223C91.6829 9.62004 91.6706 9.93964 91.5615 10.2359C91.4523 10.5321 91.252 10.7901 90.9886 10.9732C91.302 11.1402 91.5376 11.417 91.65 11.75C91.7623 12.083 91.7435 12.4487 91.5971 12.7764C91.4507 13.1042 91.1871 13.3708 90.8572 13.5247C90.5274 13.6786 90.1546 13.709 89.8109 13.61L83.6126 8.05949C83.4462 7.80978 83.3644 7.51339 83.3785 7.21105C83.3925 6.90871 83.5017 6.61528 83.691 6.37106Z" fill="#263238"/>
<path d="M90.1659 13.8449C90.3554 12.3233 89.9565 10.8045 89.0481 9.58897C88.1397 8.37345 86.788 7.54985 85.2604 7.28117L84.9432 7.22667C81.5031 6.83217 79.1533 9.48417 78.7465 12.8754L76.8932 24.1018L77.0651 25.5849L81.2278 29.7822L83.8193 27.9679L84.9152 24.7108C84.9152 24.7108 88.271 24.7801 89.0038 21.5686C89.3361 20.025 89.796 16.7828 90.1659 13.8449Z" fill="white"/>
<path d="M85.0223 24.7483C83.5097 24.4874 82.1181 23.8045 81.0125 22.7806C81.0125 22.7806 81.3517 25.4548 84.66 25.7316L85.0223 24.7483Z" fill="white"/>
<path d="M88.5027 16.7182C88.4797 16.838 88.4096 16.9455 88.3077 17.0173C88.2057 17.089 88.0801 17.1193 87.9583 17.1014C87.8984 17.096 87.8407 17.0787 87.7885 17.0508C87.7363 17.0228 87.6906 16.9847 87.6542 16.9387C87.6179 16.8927 87.5915 16.8397 87.5768 16.7829C87.562 16.7261 87.5591 16.6666 87.5683 16.608C87.5914 16.4881 87.6613 16.3805 87.763 16.3082C87.8647 16.236 87.9901 16.2049 88.1122 16.2217C88.1722 16.2274 88.2301 16.245 88.2824 16.2732C88.3347 16.3015 88.3804 16.3399 88.4168 16.3861C88.4532 16.4324 88.4795 16.4856 88.4943 16.5427C88.5091 16.5997 88.5119 16.6594 88.5027 16.7182Z" fill="#263238"/>
<path d="M89.0143 15.5025C88.9468 15.5512 88.6394 15.2551 88.1511 15.1521C87.6629 15.0491 87.2382 15.2485 87.1994 15.179C87.1606 15.1095 87.2595 15.0515 87.4394 14.9647C87.6837 14.8566 87.954 14.8233 88.2136 14.8692C88.4733 14.9151 88.7099 15.0381 88.8916 15.2215C89.0216 15.3758 89.0526 15.495 89.0143 15.5025Z" fill="#263238"/>
<path d="M84.2126 16.1127C84.1896 16.2325 84.1195 16.34 84.0176 16.4118C83.9156 16.4835 83.79 16.5138 83.6682 16.4959C83.6083 16.4904 83.5505 16.4732 83.4982 16.4454C83.4458 16.4175 83.4 16.3795 83.3634 16.3336C83.3268 16.2877 83.3001 16.2348 83.2849 16.1781C83.2698 16.1214 83.2664 16.0619 83.275 16.0031C83.2989 15.8836 83.3689 15.7765 83.4704 15.7044C83.5719 15.6323 83.6969 15.6009 83.8189 15.6168C83.879 15.6226 83.9369 15.6401 83.9893 15.6683C84.0417 15.6965 84.0876 15.7347 84.1242 15.7809C84.1609 15.827 84.1875 15.8801 84.2027 15.9371C84.2179 15.9941 84.2213 16.0538 84.2126 16.1127Z" fill="#263238"/>
<path d="M84.2932 14.5308C84.2257 14.5794 83.9156 14.2679 83.4301 14.1804C82.9446 14.0929 82.5171 14.2767 82.4783 14.2073C82.4395 14.1378 82.5352 14.0804 82.7189 13.996C82.9651 13.8865 83.2378 13.853 83.4995 13.9001C83.7581 13.9441 83.9933 14.0677 84.1711 14.2529C84.2887 14.3935 84.3193 14.5096 84.2932 14.5308Z" fill="#263238"/>
<path d="M85.1713 18.5355C85.4572 18.4974 85.7459 18.4957 86.03 18.5306C86.1605 18.541 86.2881 18.5355 86.3313 18.4551C86.3685 18.3257 86.3654 18.1896 86.3226 18.0643C86.2663 17.7482 86.2027 17.391 86.1385 17.0307C85.8979 15.5666 85.7522 14.3685 85.8143 14.3563C85.8764 14.3441 86.1209 15.5261 86.3619 16.9934C86.4261 17.3537 86.4706 17.6983 86.5226 18.0283C86.573 18.1958 86.5597 18.377 86.4851 18.5394C86.4568 18.5805 86.4195 18.6152 86.376 18.6407C86.3325 18.6662 86.2839 18.682 86.2338 18.6868C86.1575 18.6936 86.0808 18.6911 86.0057 18.6793C85.7217 18.664 85.4416 18.6157 85.1713 18.5355Z" fill="#263238"/>
<path d="M84.3971 13.0771C84.3269 13.2029 83.9025 13.0655 83.3732 13.0447C82.844 13.0239 82.3931 13.1093 82.3503 12.9801C82.3387 12.9152 82.4319 12.8073 82.6323 12.7071C82.8825 12.5867 83.1592 12.5324 83.4339 12.5496C83.7061 12.5591 83.9684 12.6402 84.193 12.7844C84.3578 12.912 84.432 13.0318 84.3971 13.0771Z" fill="#263238"/>
<path d="M87.5307 13.4935C87.6353 13.3926 87.9644 13.5495 88.3777 13.603C88.7911 13.6566 89.1581 13.6164 89.2229 13.7579C89.2505 13.82 89.1763 13.9246 89.0066 14.0127C88.7808 14.1145 88.5313 14.1498 88.2893 14.1139C88.0473 14.0781 87.8237 13.9729 87.6467 13.8114C87.5114 13.6645 87.4829 13.5415 87.5307 13.4935Z" fill="#263238"/>
<path d="M90.0195 12.2739C90.0195 12.2739 89.5866 10.1259 88.7038 9.489C87.6399 8.7295 86.8564 9.91224 85.7962 9.4171C84.7359 8.92195 83.7133 8.17047 82.3731 8.83291C80.9138 9.55443 81.3654 10.325 80.9882 11.7216C79.4548 17.3937 78.0508 18.8413 78.3247 16.0719C78.3541 15.7687 77.5664 15.3878 77.7066 14.1156C77.8892 12.4633 78.2391 10.4806 78.8625 9.38766C79.3649 8.47381 80.0794 7.89623 81.2447 7.33302C83.0788 6.44046 85.2761 6.79494 86.7287 7.19962C88.1813 7.60431 90.6819 9.7866 90.0195 12.2739Z" fill="#263238"/>
<path d="M78.6751 15.9941C78.6961 15.8753 78.6924 15.7544 78.6642 15.6385C78.636 15.5227 78.5838 15.4144 78.5109 15.3202C78.438 15.226 78.3459 15.1478 78.2401 15.0904C78.1344 15.0331 78.0171 14.9977 77.8956 14.9865C77.2759 14.9398 76.5269 15.1627 76.3058 16.4071C75.915 18.6188 78.2524 18.4789 78.265 18.4178C78.2775 18.3568 78.5212 16.9193 78.6751 15.9941Z" fill="white"/>
<path d="M77.9394 17.5138C77.9394 17.5138 77.8941 17.5228 77.823 17.5564C77.7226 17.5819 77.6171 17.5689 77.5285 17.52C77.3994 17.4087 77.3039 17.2649 77.2517 17.1034C77.1996 16.9419 77.1927 16.7685 77.2318 16.6008C77.2594 16.4105 77.33 16.2273 77.4384 16.0647C77.4717 15.9986 77.5207 15.9409 77.5811 15.8966C77.6416 15.8523 77.7117 15.8227 77.7854 15.8104C77.8331 15.8052 77.8806 15.8163 77.92 15.8418C77.9593 15.8673 77.988 15.9057 78.0011 15.9503C78.0128 16.0164 77.9968 16.0587 78.0206 16.0605C78.0444 16.0623 78.0755 16.0301 78.0723 15.9362C78.0701 15.8798 78.0476 15.8266 78.0088 15.7858C77.9825 15.7585 77.9507 15.7368 77.9153 15.722C77.8798 15.7071 77.8415 15.6995 77.8026 15.6994C77.707 15.7032 77.6133 15.7316 77.5311 15.7816C77.4488 15.8316 77.3807 15.9015 77.3337 15.9843C77.2025 16.1611 77.1178 16.3661 77.0875 16.5804C77.0415 16.7761 77.0551 16.9789 77.1265 17.1636C77.1979 17.3483 77.324 17.5067 77.489 17.619C77.5469 17.6441 77.61 17.6564 77.674 17.655C77.7379 17.6537 77.8012 17.6387 77.8595 17.6111C77.9117 17.5845 77.9405 17.5201 77.9394 17.5138Z" fill="white"/>
<path d="M79.4576 11.74C79.6844 12.002 79.976 12.2029 80.3062 12.3248C80.4724 12.3807 80.6554 12.3752 80.8215 12.3094C80.9876 12.2435 81.1253 12.1219 81.2093 11.9669C81.2693 11.8201 81.2662 11.6343 81.3916 11.5388C81.517 11.4434 81.7559 11.5024 81.9371 11.5535C82.2555 11.6345 82.5961 11.605 82.9014 11.4699C83.2067 11.3348 83.458 11.1024 83.613 10.8118C83.6892 10.9369 83.8115 11.0281 83.9557 11.0675C84.1 11.1069 84.2558 11.0916 84.3923 11.0247C84.6597 10.8822 84.9068 10.7048 85.1264 10.4975C85.2372 10.394 85.3714 10.3178 85.5174 10.2756C85.6634 10.2333 85.8168 10.2264 85.964 10.2553C86.1217 10.3046 86.2558 10.426 86.424 10.4411C86.7198 10.4664 86.9299 10.1582 87.033 9.88075C87.1361 9.60332 87.2416 9.28363 87.5196 9.171C87.7932 9.11691 88.0748 9.15814 88.3148 9.28747C88.5747 9.37125 88.9317 9.36839 89.0569 9.14123C89.0829 9.07432 89.0948 9.00335 89.0919 8.93264C89.0891 8.86194 89.0715 8.79296 89.0402 8.72992C88.9198 8.43179 88.6977 8.18562 88.4105 8.03191C88.1233 7.87821 87.7882 7.82613 87.4602 7.88425C87.4267 7.50485 87.2786 7.14696 87.0346 6.85562C86.7906 6.56427 86.4616 6.35249 86.089 6.24692C85.7165 6.14134 85.3169 6.1467 84.9407 6.26231C84.5645 6.37791 84.2284 6.59861 83.9747 6.89662C83.7839 6.64687 83.5327 6.44759 83.2425 6.31571C82.9524 6.18383 82.6318 6.12324 82.3081 6.13909C81.9843 6.15493 81.6669 6.24675 81.3829 6.40674C81.0988 6.56673 80.8565 6.79016 80.6765 7.05807C80.4207 6.94159 80.1332 6.90212 79.8498 6.94456C79.5663 6.98699 79.2994 7.10946 79.0823 7.29675C78.8651 7.48404 78.7072 7.72789 78.6282 7.99801C78.5492 8.26813 78.5525 8.55261 78.6379 8.8161C78.4109 8.88109 78.2028 9.00084 78.0331 9.16414C77.8635 9.32743 77.7378 9.52891 77.668 9.74967C77.5653 10.1974 77.9161 10.7196 78.3823 10.6792C78.2586 10.841 78.2007 11.0407 78.2203 11.2383C78.2399 11.4358 78.3355 11.6166 78.488 11.7444C78.6406 11.8721 78.8387 11.9374 79.0426 11.9271C79.2465 11.9167 79.4412 11.8316 79.5876 11.6887" fill="#263238"/>
<path d="M78.2717 10.6624C78.2452 10.736 78.2358 10.814 78.2442 10.8906C78.2526 10.9672 78.2785 11.0405 78.3201 11.105C78.4005 11.264 78.5406 11.3853 78.712 11.4443C78.821 11.4805 78.9374 11.4929 79.0533 11.4806C79.1691 11.4683 79.2816 11.4316 79.383 11.3731L79.2913 11.3428C79.3654 11.5664 79.4764 11.7757 79.62 11.9626C79.7155 12.0896 79.8347 12.1974 79.9716 12.2808C80.104 12.3563 80.2551 12.3965 80.4103 12.3976C80.539 12.4087 80.6694 12.392 80.7925 12.3487C80.9155 12.3055 81.0282 12.2366 81.1226 12.1471C81.2422 12.0247 81.3364 11.8809 81.3996 11.7241C81.4285 11.6705 81.4464 11.612 81.4521 11.5522C81.4521 11.5522 81.4118 11.6054 81.3529 11.7043C81.2766 11.8448 81.1783 11.9732 81.0618 12.0848C80.9598 12.1628 80.8429 12.2197 80.7187 12.252C80.5944 12.2843 80.4654 12.2912 80.3399 12.2723C80.2143 12.2534 80.0949 12.2091 79.9891 12.1422C79.8834 12.0753 79.7936 11.9873 79.7254 11.8837C79.5901 11.7068 79.4837 11.51 79.4098 11.3L79.3966 11.2251L79.331 11.2671C79.2458 11.3191 79.1506 11.3526 79.052 11.3654C78.9534 11.3782 78.8538 11.3699 78.7601 11.3411C78.6101 11.2949 78.4834 11.1974 78.4028 11.0661C78.3316 10.9423 78.287 10.805 78.2717 10.6624Z" fill="#A80D00"/>
<path d="M83.4238 6.43984C83.4238 6.43984 83.4786 6.46784 83.5683 6.52454C83.6986 6.60783 83.798 6.7296 83.8525 6.87292L83.8614 6.92295L83.9014 6.88592C84.2577 6.56391 84.6893 6.33378 85.1554 6.21725C85.4546 6.14126 85.7651 6.12845 86.0659 6.17967C86.3984 6.23763 86.7052 6.38538 86.9521 6.60647C87.1429 6.77992 87.2935 6.99157 87.3941 7.22787C87.4911 7.44592 87.5333 7.68488 87.5174 7.92524L87.5103 7.99785L87.5777 7.98452C87.8703 7.95714 88.1604 8.03134 88.3969 8.19408C88.6335 8.35683 88.8015 8.59773 88.8714 8.8745C88.9176 9.09504 88.9185 9.32366 88.874 9.54717C88.9034 9.49223 88.9244 9.43354 88.9362 9.37304C88.9762 9.20246 88.978 9.0265 88.9415 8.85741C88.8877 8.59349 88.7491 8.35566 88.5457 8.17831C88.2777 7.95335 87.928 7.8415 87.5701 7.86628L87.6348 7.93117C87.6626 7.67055 87.6255 7.40908 87.5267 7.1693C87.4056 6.87872 87.2118 6.62431 86.9627 6.42895C86.7136 6.23358 86.417 6.10338 86.0995 6.05005C85.7811 5.99877 85.4532 6.01612 85.1382 6.10091C84.6571 6.22923 84.2162 6.4807 83.8614 6.82909L83.9198 6.84019C83.8539 6.68861 83.7372 6.56465 83.5885 6.48819C83.5384 6.45987 83.4821 6.44334 83.4238 6.43984Z" fill="#A80D00"/>
<path d="M85.4672 20.292C85.2312 20.0914 84.983 19.9049 84.7239 19.7333C84.2773 19.4818 83.84 19.4517 83.844 19.3991C84.1846 19.3358 84.5329 19.4066 84.8126 19.596C85.1176 19.7329 85.3524 19.9826 85.4672 20.292Z" fill="#263238"/>
<path d="M110.419 31.7999C110.756 31.6357 114.306 31.5042 114.306 31.5042C114.345 31.5907 114.362 31.6858 114.354 31.7812C114.346 31.8765 114.314 31.9693 114.261 32.0513C114.208 32.1334 114.136 32.2022 114.05 32.2519C113.964 32.3015 113.868 32.3305 113.769 32.3361C112.967 32.4673 110.314 32.7792 110.314 32.7792L108.758 33.8196L108.162 33.6948L110.419 31.7999Z" fill="white"/>
<path d="M103.474 33.8439L108.463 33.3314L109.245 33.2706C109.245 33.2706 110.942 32.2805 111.264 32.1599C111.586 32.0393 114.915 33.0394 114.915 33.0394C114.915 33.0394 115.152 33.6983 114.272 33.689C113.593 33.6548 112.923 33.551 112.271 33.3794C112.271 33.3794 109.736 35.1529 109.232 35.5103C108.727 35.8678 105.441 36.4835 105.441 36.4835L104.41 37.4452L103.474 33.8439Z" fill="white"/>
<path d="M106.738 40.8705L108.523 39.235L114.996 35.4947C114.996 35.4947 115.505 34.8391 115.157 34.6861C114.809 34.5332 107.654 37.0464 107.654 37.0464L106.263 38.1936L106.738 40.8705Z" fill="white"/>
<path d="M86.7286 39.5985C86.7951 39.9751 82.4707 50.877 81.1793 53.6432C79.2701 57.7432 76.7982 58.6965 76.7982 58.6965L72.9259 56.6103L84.2673 39.14L87.8868 35.3807L86.7286 39.5985Z" fill="#A80D00"/>
<path d="M84.2467 44.7413C84.2467 44.7413 90.0352 46.0265 92.1076 45.9678C94.544 45.8952 107.371 42.4728 107.371 42.4728L106.235 37.5414L87.1864 40.8355L84.8154 40.7013L84.2467 44.7413Z" fill="#A80D00"/>
<g opacity="0.3">
<path d="M85.6081 40.261C85.2389 40.5168 85.184 41.5733 84.9338 41.9366C82.2847 45.8086 80.5605 49.9092 77.7573 53.5072C76.5456 55.0421 75.1184 56.454 73.1704 56.7601L75.4152 57.9595C77.0539 57.5914 78.0142 56.6291 79.0765 55.3403C80.1389 54.0515 80.4142 52.4576 81.1494 50.9817C82.8317 47.6199 84.406 43.92 86.0845 40.5557C85.9086 40.1736 85.9778 40.0083 85.6081 40.261Z" fill="black"/>
</g>
<path d="M73.7663 56.4136C73.7663 56.4136 76.6346 56.064 77.5903 55.2091C78.7423 54.1823 87.4905 37.4919 87.4905 37.4919L85.5941 26.174L78.1616 21.5018L77.6738 22.6084L66.7652 40.3918L59.4916 50.1647L70.8998 53.5667L73.7663 56.4136Z" fill="#E0E0E0"/>
<path d="M84.7953 37.5532C84.5283 38.0128 86.0679 43.5652 78.6331 45.8505C72.3592 47.7775 58.9119 49.7169 54.8675 50.2768C54.373 50.3535 53.8734 50.237 53.4771 49.9526C53.0808 49.6682 52.8199 49.2388 52.751 48.7578C52.7275 48.5306 52.7545 48.2997 52.8303 48.0808C52.9061 47.8619 53.0288 47.6601 53.1901 47.4894C54.4077 46.0834 55.9568 46.139 56.4288 43.6502C56.9008 41.1615 56.3457 40.3865 57.7317 39.1635C59.6919 37.4365 65.4745 38.7512 65.4745 38.7512C66.4698 36.5013 66.8669 34.602 68.3441 31.8694C69.5348 29.6551 71.1451 26.6251 72.6641 25.3662C73.5802 24.6942 74.546 24.0911 75.5529 23.5623L76.56 23.1794L77.0779 22.1505C78.276 22.9599 82.6921 25.626 83.5749 26.6785L85.12 30.8932L84.7953 37.5532Z" fill="#A80D00"/>
<g opacity="0.3">
<path d="M103.219 38.9384C98.1703 39.5988 92.9239 40.2982 86.5416 40.3056L86.2998 41.1585C90.2265 42.5501 92.6996 42.1263 95.4267 41.7762C98.1538 41.426 100.592 40.5416 103.197 40.0266C103.341 39.6723 103.349 39.2865 103.219 38.9384Z" fill="black"/>
</g>
<g opacity="0.3">
<path d="M73.5932 32.7584L71.5631 33.3022C72.8704 35.7912 74.4001 36.4097 77.0239 37.5822C79.6478 38.7546 80.108 39.1599 82.9544 39.7553C83.228 39.8113 85.4389 40.6009 85.4564 40.3315C80.4446 38.5851 77.3449 36.3478 73.5932 32.7584Z" fill="black"/>
</g>
<path d="M71.2032 31.4166C70.8205 33.553 72.317 34.2066 72.317 34.2066C72.317 34.2066 84.8946 41.6561 89.3729 41.275C93.8511 40.8939 105.259 38.0311 105.259 38.0311L104.336 32.8242L90.0521 34.1254C90.0521 34.1254 83.2639 28.7789 79.5677 26.1572" fill="#A80D00"/>
<path d="M79.5743 26.1571C79.5743 26.1571 79.6444 26.1979 79.7725 26.2852L80.3362 26.6821C80.8286 27.032 81.5536 27.5546 82.469 28.2359C84.3062 29.5972 86.9246 31.5922 90.1028 34.075L90.0542 34.0621L104.339 32.7447L104.412 32.7302L105.362 38.0862L105.285 38.1014L102.787 38.7095C99.251 39.548 95.828 40.316 92.5795 40.892L91.3668 41.0925C90.9625 41.1464 90.5663 41.2084 90.1678 41.258C89.772 41.3113 89.374 41.3425 88.9759 41.3515C88.7795 41.3452 88.5819 41.3327 88.3902 41.3158C88.1985 41.299 88.0046 41.2697 87.8159 41.2329C86.3801 40.9362 84.9809 40.5046 83.6376 39.9441C81.349 39.008 79.1133 37.9592 76.9388 36.8016C75.047 35.8048 73.4846 34.9102 72.3103 34.2253C71.8887 34.0018 71.5566 33.6487 71.3638 33.219C71.2224 32.9105 71.1462 32.5758 71.1395 32.2343C71.1297 32.0272 71.1416 31.8191 71.1751 31.6132C71.1967 31.4739 71.2113 31.4067 71.2113 31.4067C71.2113 31.4067 71.2234 31.475 71.1954 31.6156C71.1674 31.82 71.1607 32.026 71.1753 32.2305C71.1888 32.5653 71.2693 32.8924 71.4122 33.1934C71.6045 33.6093 71.9307 33.9498 72.3425 34.1643C73.5232 34.8479 75.0882 35.7195 76.9873 36.702C78.8865 37.6845 81.1172 38.7817 83.6876 39.8152C85.0261 40.3723 86.4204 40.8005 87.8509 41.0942C88.0358 41.1285 88.2275 41.1453 88.4145 41.1728C88.6015 41.2003 88.7974 41.2034 88.9869 41.2079C89.3783 41.1976 89.7695 41.1656 90.1585 41.112C90.5543 41.0661 90.95 41.001 91.3511 40.9476L92.56 40.7447C95.8079 40.1656 99.2304 39.3945 102.767 38.556L105.261 37.9485L105.196 38.0451C104.879 36.2556 104.568 34.5065 104.273 32.8381L104.36 32.9013L90.073 34.187L90.0474 34.192L90.0441 34.1734C86.8775 31.6819 84.2794 29.67 82.4463 28.2758L80.3352 26.6952L79.7821 26.2833C79.6301 26.2104 79.5743 26.1571 79.5743 26.1571Z" fill="#263238"/>
<path d="M86.4793 40.9145C86.4188 41.0965 86.3451 41.2743 86.2588 41.4467L85.6278 42.8742C85.1036 44.0917 84.4029 45.7871 83.6367 47.6615C82.8706 49.5359 82.1731 51.2307 81.6494 52.4514C81.3863 53.0636 81.1753 53.5548 81.012 53.8802C80.9438 54.0577 80.8625 54.2306 80.7688 54.3973C80.8195 54.2119 80.8847 54.0302 80.9638 53.8539L81.5461 52.3969L83.4896 47.5864C84.2557 45.7119 84.9765 44.0354 85.5266 42.8128C85.8044 42.2074 86.0386 41.7344 86.2056 41.392C86.2849 41.2268 86.3764 41.0672 86.4793 40.9145Z" fill="#263238"/>
<path d="M82.7076 27.6892C82.685 27.6937 82.3768 27.4008 81.8474 26.931C81.1591 26.323 80.4368 25.7528 79.6834 25.223C78.8003 24.5991 77.9635 24.0862 77.3584 23.7157C77.0202 23.5322 76.6956 23.3264 76.3867 23.0996C76.4875 23.129 76.5841 23.1698 76.6747 23.2212C76.8535 23.3092 77.1104 23.4434 77.411 23.6177C78.2261 24.0678 79.0141 24.5622 79.7714 25.0985C80.5343 25.6278 81.2528 26.215 81.9205 26.8548C82.177 27.0995 82.3736 27.3073 82.5033 27.457C82.5823 27.5244 82.651 27.6026 82.7076 27.6892Z" fill="#263238"/>
<g opacity="0.3">
<path d="M81.1295 44.7748C80.2395 45.1948 72.7985 46.2005 68.9135 45.8246C66.1258 45.5542 63.3717 45.0202 61.3924 44.1269C59.8653 43.4587 58.4899 42.5271 57.3322 41.3769C56.8668 41.2322 56.7994 42.499 56.7169 43.0325C56.6344 43.5661 56.5119 44.9536 55.6419 45.7549C54.5739 46.7307 52.7804 47.3416 52.8761 48.8795C52.9345 49.8422 53.9755 50.4414 54.9844 50.2858C58.1598 49.7984 66.9116 48.4512 69.2392 47.9806C72.0829 47.3938 78.2052 46.324 81.1295 44.7748Z" fill="black"/>
</g>
<path d="M82.1878 44.1834C82.1346 44.2569 82.0764 44.327 82.0137 44.3932C81.8168 44.5717 81.5956 44.7227 81.3567 44.8416C80.4592 45.2178 79.5131 45.4638 78.5494 45.5714C77.336 45.7521 75.8845 45.8581 74.2754 45.9503C72.5282 46.067 70.7785 46.0807 69.0359 45.9915C67.2888 45.9002 65.5637 45.6172 63.8933 45.148C62.5292 44.7589 61.2284 44.197 60.0239 43.4764C59.2116 42.9923 58.4602 42.4197 57.7837 41.7694C57.5475 41.5379 57.3787 41.3506 57.2592 41.2175C57.1978 41.154 57.1416 41.0861 57.0908 41.0142C57.162 41.0682 57.2271 41.1293 57.2852 41.1964C57.4036 41.3233 57.5873 41.5013 57.8325 41.7279C58.5218 42.3547 59.2781 42.9085 60.0894 43.3805C61.2931 44.0799 62.5871 44.6266 63.941 45.0077C65.6069 45.4557 67.3242 45.7218 69.0615 45.8012C70.7981 45.8895 72.5415 45.879 74.2829 45.7699C75.8937 45.687 77.341 45.5946 78.5476 45.4313C79.5028 45.3328 80.4432 45.1052 81.3413 44.7552C81.5781 44.6473 81.8003 44.5103 82.0022 44.3475C82.061 44.2896 82.123 44.2348 82.1878 44.1834Z" fill="#263238"/>
<path d="M83.325 42.3144C83.2983 42.3521 83.0446 42.2174 82.7621 42.0137C82.4795 41.8099 82.2717 41.6142 82.3021 41.5789C82.3326 41.5437 82.5825 41.676 82.865 41.8797C83.1475 42.0834 83.3554 42.2792 83.325 42.3144Z" fill="#263238"/>
<path d="M78.093 25.7963C78.0979 25.8242 77.609 25.7153 76.8271 25.7441C75.8058 25.7762 74.8026 26.0661 73.9158 26.5853C73.029 27.1046 72.289 27.8354 71.7684 28.7063C71.368 29.3745 71.2362 29.8426 71.2047 29.8328C71.214 29.7181 71.2407 29.6049 71.2839 29.4968C71.3833 29.203 71.511 28.9183 71.6651 28.6465C72.1702 27.7365 72.9192 26.9726 73.8298 26.4391C74.7403 25.9055 75.7769 25.623 76.8254 25.6227C77.1402 25.621 77.4537 25.6473 77.7619 25.7012C77.8776 25.714 77.9896 25.7462 78.093 25.7963Z" fill="#263238"/>
<path d="M77.8554 40.9926C77.8217 41.0224 77.7838 41.0471 77.7428 41.066C77.634 41.1332 77.5211 41.1939 77.4048 41.2476C76.9745 41.4455 76.5199 41.5855 76.0539 41.6636C75.3611 41.7756 74.6583 41.792 73.9666 41.7122C73.1235 41.611 72.297 41.4203 71.5017 41.1434C70.6564 40.8518 69.8764 40.5185 69.1686 40.219C68.4608 39.9196 67.8251 39.654 67.2777 39.4574C66.7303 39.2609 66.2792 39.1223 65.9664 39.0365C65.7999 39.002 65.6368 38.9549 65.4785 38.8955C65.5228 38.8946 65.5668 38.8989 65.6097 38.9081C65.6951 38.9234 65.8236 38.9397 65.9821 38.9758C66.4367 39.0753 66.8841 39.2011 67.3219 39.3527C68.4393 39.7061 69.8923 40.4033 71.5605 40.991C72.3414 41.2628 73.1511 41.4555 73.977 41.5661C74.654 41.6536 75.343 41.6496 76.0246 41.5542C76.6557 41.4479 77.2716 41.259 77.8554 40.9926Z" fill="#263238"/>
<path d="M81.5524 44.2981C81.4725 44.3187 81.3914 44.3346 81.3098 44.3457L80.6072 44.4452C80.3044 44.4887 79.9296 44.5367 79.4941 44.5774C79.0586 44.6182 78.5641 44.6801 78.0146 44.7113C77.4651 44.7425 76.8635 44.7967 76.2185 44.8114C75.5735 44.8262 74.8822 44.8405 74.1551 44.8395C72.5797 44.8233 71.0095 44.7166 69.4526 44.5197C67.8967 44.3075 66.3605 43.9932 64.8542 43.5789C64.1564 43.3708 63.5081 43.1818 62.9124 42.9537C62.6146 42.8396 62.3211 42.7503 62.0488 42.6312L61.2661 42.2992C60.7616 42.1011 60.3331 41.8658 59.947 41.6828C59.7547 41.5864 59.5838 41.4985 59.4134 41.4137L58.9785 41.1796L58.3779 40.8311C58.3064 40.7929 58.2387 40.7485 58.1758 40.6982C58.2516 40.7278 58.3251 40.7625 58.3958 40.802L59.0112 41.1221L59.4525 41.355C59.6159 41.4379 59.8113 41.5145 59.9903 41.6104C60.3817 41.786 60.8117 42.0114 61.3183 42.2027L62.102 42.5217C62.3732 42.6346 62.6678 42.7301 62.9672 42.8343C63.5618 43.0562 64.2168 43.228 64.903 43.4447C66.4044 43.8478 67.9337 44.1559 69.4816 44.367C71.0331 44.5624 72.5972 44.6735 74.1666 44.6998C74.891 44.7046 75.5793 44.7101 76.222 44.683C76.8648 44.6558 77.4661 44.6369 78.0156 44.6057C78.5652 44.5745 79.0587 44.5256 79.4926 44.4947C79.9266 44.4638 80.3024 44.422 80.6074 44.3909L81.3118 44.3197C81.3912 44.3043 81.4719 44.297 81.5524 44.2981Z" fill="#263238"/>
<path d="M87.0975 95.693L88.0696 104.241L101.223 101.743C100.94 100.535 93.7112 99.3554 93.7112 99.3554L93.1027 94.7363L87.0975 95.693Z" fill="#39FF14"/>
<path d="M89.6019 99.5421C89.4814 99.6038 89.387 99.7063 89.337 99.8299C89.287 99.9535 89.2848 100.09 89.3309 100.212C89.3851 100.331 89.4847 100.423 89.6089 100.47C89.733 100.516 89.8722 100.514 89.9975 100.463C90.1239 100.397 90.2229 100.289 90.2759 100.159C90.3289 100.029 90.3323 99.8864 90.2855 99.7572C90.2144 99.64 90.0989 99.5557 89.9633 99.5221C89.8277 99.4885 89.6824 99.508 89.5581 99.5767" fill="#E0E0E0"/>
<path d="M88.1669 104.247L87.9795 103.22L100.626 101.355C100.626 101.355 101.249 101.49 101.247 101.892L88.1669 104.247Z" fill="#263238"/>
<path d="M93.9438 99.2716C93.9548 99.334 93.6388 99.4222 93.3537 99.685C93.0685 99.9478 92.9477 100.239 92.8856 100.226C92.8235 100.212 92.8562 99.8348 93.2014 99.5182C93.5467 99.2016 93.9493 99.2092 93.9438 99.2716Z" fill="#E0E0E0"/>
<path d="M95.4154 99.5926C95.4259 99.6522 95.1807 99.8111 95.005 100.119C94.8293 100.426 94.8148 100.722 94.7498 100.731C94.6848 100.741 94.583 100.391 94.8093 100.011C95.0357 99.6319 95.4049 99.5329 95.4154 99.5926Z" fill="#E0E0E0"/>
<path d="M96.4649 101.091C96.4065 101.103 96.2632 100.805 96.3726 100.438C96.4821 100.07 96.7612 99.8653 96.7999 99.9131C96.8386 99.9609 96.6796 100.181 96.5936 100.492C96.5077 100.802 96.5286 101.072 96.4649 101.091Z" fill="#E0E0E0"/>
<path d="M93.5467 97.7456C93.5278 97.8062 93.2225 97.7771 92.8647 97.8784C92.5069 97.9798 92.2503 98.1309 92.2028 98.0864C92.1552 98.0419 92.3935 97.771 92.8173 97.6694C93.241 97.5679 93.5793 97.6886 93.5467 97.7456Z" fill="#E0E0E0"/>
<path d="M92.9579 96.2376C92.7522 96.337 92.5246 96.3818 92.2987 96.3676C92.0549 96.3702 91.8124 96.3446 91.5765 96.2912C91.4358 96.2591 91.2979 96.2175 91.1636 96.1667C91.0828 96.1421 91.0069 96.1049 90.9388 96.0566C90.8894 96.0198 90.8543 95.9678 90.839 95.9085C90.8237 95.8493 90.8291 95.7862 90.8542 95.729C90.8784 95.6791 90.9144 95.6353 90.9591 95.6013C91.0038 95.5673 91.0559 95.544 91.111 95.5336C91.1943 95.516 91.2795 95.5112 91.3635 95.5192C91.7576 95.5359 92.1379 95.6502 92.4689 95.8514C92.8214 96.065 92.9657 96.2811 92.9449 96.2949C92.9242 96.3086 92.7381 96.1555 92.3869 95.9866C92.1844 95.8952 91.9702 95.8294 91.7494 95.7906C91.6182 95.7661 91.4849 95.7515 91.3508 95.7469C91.2072 95.7398 91.0882 95.7601 91.0635 95.8261C91.0388 95.8921 91.0536 95.8634 91.0762 95.8976C91.1261 95.9331 91.1813 95.9613 91.24 95.9811C91.364 96.0307 91.491 96.0733 91.6203 96.1088C91.8434 96.1676 92.0719 96.2065 92.3033 96.2251C92.522 96.2134 92.7408 96.2175 92.9579 96.2376Z" fill="#E0E0E0"/>
<path d="M92.8698 96.3657C92.7119 96.2032 92.6136 95.9937 92.5893 95.7684C92.5018 95.388 92.5275 94.988 92.6637 94.6149C92.6858 94.5234 92.7317 94.4384 92.7971 94.3683C92.8624 94.2982 92.9448 94.2454 93.0361 94.2152C93.0954 94.2069 93.1554 94.2145 93.2097 94.2372C93.264 94.2598 93.3106 94.2966 93.3444 94.3437C93.3908 94.4128 93.4278 94.4878 93.4544 94.5667C93.5012 94.7079 93.5273 94.8554 93.5321 95.0049C93.5355 95.2544 93.4756 95.5027 93.3579 95.7277C93.1543 96.1138 92.8945 96.2401 92.8879 96.2218C92.8814 96.2035 93.065 96.027 93.2098 95.6689C93.2931 95.4605 93.3305 95.2384 93.3193 95.0175C93.315 94.8895 93.2926 94.7633 93.2529 94.6423C93.2088 94.5074 93.1373 94.4073 93.0844 94.4308C93.0315 94.4543 92.9244 94.57 92.8882 94.6881C92.8426 94.8133 92.8069 94.9414 92.7815 95.0714C92.7426 95.2945 92.7364 95.521 92.763 95.7439C92.7932 96.123 92.9038 96.3492 92.8698 96.3657Z" fill="#E0E0E0"/>
<path d="M39.0754 83.231L30.212 83.0339L30.1997 96.1776C31.4805 96.0641 34.0546 89.1892 34.0546 89.1892L38.8585 89.2141L39.0754 83.231Z" fill="#39FF14"/>
<path d="M34.6135 85.0689C34.5743 84.9442 34.4894 84.8393 34.3748 84.7741C34.2602 84.7089 34.1239 84.6879 33.9917 84.715C33.8615 84.7524 33.7493 84.8368 33.6784 84.9511C33.6076 85.0653 33.5833 85.2005 33.6108 85.3288C33.6523 85.4613 33.7428 85.5727 33.865 85.6413C33.9871 85.71 34.1322 85.7312 34.2724 85.7008C34.4051 85.6484 34.5133 85.5481 34.5741 85.421C34.6349 85.2939 34.6436 85.1501 34.5982 85.02" fill="#E0E0E0"/>
<path d="M30.2684 82.9316L31.4224 82.8859L30.9214 95.6354C30.9214 95.6354 30.6535 96.228 30.2253 96.171L30.2684 82.9316Z" fill="#263238"/>
<path d="M34.1714 89.3854C34.1098 89.3976 34.0798 89.0771 33.8647 88.754C33.6495 88.431 33.3747 88.2828 33.4009 88.2222C33.4271 88.1615 33.8083 88.2463 34.0573 88.6279C34.3064 89.0096 34.2213 89.4017 34.1714 89.3854Z" fill="#E0E0E0"/>
<path d="M33.6059 90.7824C33.5415 90.7952 33.4304 90.5248 33.1536 90.3165C32.8768 90.1082 32.5837 90.0525 32.5855 89.9872C32.5873 89.9219 32.9583 89.8712 33.2988 90.1384C33.6393 90.4056 33.6688 90.7797 33.6059 90.7824Z" fill="#E0E0E0"/>
<path d="M31.957 91.6201C31.9465 91.5608 32.2616 91.4663 32.6203 91.6183C32.979 91.7703 33.1208 92.0653 33.0664 92.0955C33.012 92.1256 32.8206 91.9437 32.5267 91.8209C32.2329 91.6981 31.968 91.6826 31.957 91.6201Z" fill="#E0E0E0"/>
<path d="M35.7087 89.2452C35.6461 89.2182 35.7376 88.9122 35.7148 88.5566C35.6921 88.2009 35.5683 87.9076 35.6268 87.8733C35.6852 87.8389 35.9233 88.1066 35.9454 88.5344C35.9674 88.9622 35.7637 89.2868 35.7087 89.2452Z" fill="#E0E0E0"/>
<path d="M37.2688 88.9187C37.2132 88.7064 37.215 88.482 37.2739 88.2672C37.3166 88.0299 37.3876 87.7975 37.4855 87.5748C37.545 87.4422 37.6138 87.3134 37.6912 87.1894C37.7339 87.1149 37.787 87.0464 37.8489 86.9858C37.8953 86.9427 37.9545 86.9155 38.0173 86.9083C38.0801 86.9012 38.1429 86.9146 38.1959 86.9465C38.2422 86.9774 38.2801 87.0187 38.3067 87.0671C38.3332 87.1155 38.3476 87.1697 38.3487 87.2253C38.3489 87.3089 38.3367 87.3924 38.3124 87.4732C38.2785 87.6146 38.2302 87.7528 38.1682 87.8855C38.0672 88.1109 37.9306 88.3202 37.7635 88.5054C37.6254 88.6897 37.435 88.8306 37.2171 88.9094C37.1954 88.8812 37.3986 88.7272 37.6359 88.4071C37.7751 88.223 37.889 88.0221 37.9745 87.81C38.0262 87.6864 38.0662 87.5587 38.0941 87.4285C38.1326 87.2875 38.132 87.1706 38.0693 87.1374C38.0067 87.1043 38.0364 87.1212 37.9951 87.1521C37.9494 87.1967 37.9099 87.2472 37.878 87.3021C37.8038 87.4195 37.7372 87.5414 37.6787 87.6668C37.5749 87.874 37.4912 88.0899 37.4286 88.3114C37.391 88.5171 37.3376 88.7201 37.2688 88.9187Z" fill="#E0E0E0"/>
<path d="M37.1973 88.8569C37.3844 88.7331 37.6045 88.6682 37.8272 88.6714C38.074 88.6516 38.3212 88.6737 38.5579 88.7366C38.6992 88.7752 38.8359 88.8269 38.9664 88.8912C39.0539 88.9249 39.1307 88.9798 39.1896 89.0509C39.2486 89.1221 39.2877 89.2072 39.3036 89.2983C39.3009 89.3561 39.2822 89.4126 39.2494 89.4617C39.2166 89.5107 39.171 89.5505 39.1176 89.5767C39.0394 89.6125 38.9568 89.6375 38.8722 89.6509C38.7226 89.6764 38.5707 89.6814 38.4209 89.6658C38.1714 89.6354 37.935 89.5461 37.7318 89.4055C37.3853 89.1517 37.3102 88.8958 37.3294 88.892C37.3486 88.8882 37.4897 89.086 37.8209 89.2719C38.0111 89.3836 38.2258 89.4514 38.4492 89.4701C38.5781 89.4811 38.7085 89.4738 38.8364 89.4485C38.9773 89.4207 39.0902 89.3662 39.0782 89.317C39.0662 89.2678 38.9715 89.1447 38.8595 89.0927C38.7455 89.0313 38.6256 88.9805 38.5013 88.9411C38.2818 88.8734 38.0522 88.8383 37.8201 88.8371C37.4487 88.8169 37.2071 88.8936 37.1973 88.8569Z" fill="#E0E0E0"/>
<path d="M59.0434 51.5255C58.7005 52.3515 54.265 55.8209 55.6968 63.2464L55.3799 80.1619L36.0361 82.1885L35.5875 89.9827L60.4358 89.0872C60.4358 89.0872 63.9869 89.2145 65.2975 84.9244C66.608 80.6343 69.4481 65.3877 69.5029 65.0204C69.5577 64.6531 71.3739 55.6392 71.3739 55.6392L59.0434 51.5255Z" fill="#263238"/>
<path d="M56.2068 58.0749C56.2038 58.3035 55.772 63.297 61.4149 65.8398C67.0577 68.3826 83.3453 74.5807 83.3453 74.5807L83.9993 76.0083L86.6076 98.4546L94.9543 96.9685C94.9543 96.9685 93.5227 74.6676 93.1921 72.4009C92.8614 70.1343 92.0648 67.0868 88.6603 65.1864L70.8043 55.1911C70.8043 55.1911 59.3451 51.6217 59.472 51.6585C59.599 51.6953 56.2393 54.6454 56.2068 58.0749Z" fill="#263238"/>
<path d="M58.686 51.5226L59.5343 49.8667C59.5343 49.8667 64.6802 50.8261 68.2047 52.4093C70.443 53.4168 73.6825 54.7205 73.775 56.7621L58.686 51.5226Z" fill="#263238"/>
<path d="M83.2411 74.3721C83.2095 74.3664 83.1789 74.3572 83.1497 74.3447L82.8866 74.2507L81.8749 73.8765L78.1799 72.4691C75.0642 71.2683 70.7597 69.6147 66.0398 67.7026C64.8568 67.226 63.732 66.7022 62.6216 66.2404C61.5488 65.8048 60.5167 65.2829 59.5356 64.6801C58.6336 64.1344 57.8689 63.4001 57.2939 62.5277C56.8217 61.7524 56.5039 60.8931 56.3568 59.9941C56.1247 58.6995 56.211 57.3603 56.6088 56.0864C56.7187 55.7432 56.8591 55.4092 57.0285 55.0885L57.1715 54.8428C57.1867 54.8143 57.2042 54.787 57.2237 54.7611C57.2237 54.7611 57.2126 54.7925 57.1861 54.8496L57.0607 55.1015C56.9058 55.4261 56.7757 55.7609 56.6717 56.1032C56.302 57.369 56.235 58.6929 56.4759 59.9706C56.6275 60.852 56.9455 61.6934 57.4138 62.4521C57.9833 63.3007 58.7361 64.0138 59.6212 64.5431C60.5992 65.1388 61.6269 65.6549 62.6943 66.0865C63.801 66.5458 64.929 67.069 66.1082 67.5431C70.8415 69.4558 75.1327 71.1282 78.2271 72.3592L81.9008 73.8162L82.8977 74.2193L83.1571 74.3303C83.2147 74.3546 83.2437 74.3683 83.2411 74.3721Z" fill="#A80D00"/>
<path d="M81.5275 61.1713C81.4708 61.1534 81.4165 61.1294 81.3654 61.0998L80.922 60.8641L79.3285 60.0021L74.0505 57.0811C72.3173 56.065 70.4972 55.1929 68.6088 54.4737C67.8937 54.185 67.3037 53.9654 66.8981 53.8127L66.4315 53.6333C66.3247 53.593 66.2705 53.5681 66.2726 53.5612C66.3306 53.5695 66.3875 53.5832 66.4425 53.602C66.5546 53.6349 66.716 53.6838 66.9203 53.7501C67.3359 53.8846 67.9301 54.0905 68.6581 54.3767C70.5651 55.0639 72.3993 55.921 74.1381 56.9377L79.3868 59.9L80.9662 60.8134L81.3931 61.0685C81.4845 61.1345 81.5264 61.165 81.5275 61.1713Z" fill="#A80D00"/>
<path d="M59.247 84.4381C58.5528 83.8367 57.899 83.1924 57.2893 82.5089C56.6358 81.8648 56.0233 81.182 55.4551 80.4641C56.149 81.0666 56.8038 81.7106 57.416 82.3927C58.0672 83.0382 58.6785 83.7211 59.247 84.4381Z" fill="#A80D00"/>
<path d="M60.3245 82.7213C59.5607 82.4165 58.8207 82.0602 58.1097 81.6547C57.3689 81.3008 56.6558 80.8959 55.9756 80.4429C56.7402 80.7479 57.4812 81.104 58.1935 81.5088C58.933 81.8634 59.6451 82.2686 60.3245 82.7213Z" fill="#A80D00"/>
<path d="M86.9804 72.4865C86.9886 72.5326 86.0782 72.9816 84.9839 73.5654C83.8895 74.1492 82.9965 74.6585 82.9697 74.6192C83.1331 74.4681 83.315 74.3373 83.511 74.2297C83.8611 74.0083 84.3508 73.7181 84.9054 73.4215C85.46 73.125 85.9766 72.8932 86.3514 72.7179C86.5505 72.6145 86.762 72.5366 86.9804 72.4865Z" fill="#A80D00"/>
<path d="M87.9808 75.0669C87.3278 75.2714 86.6653 75.4446 85.9958 75.5859C85.3393 75.7806 84.6739 75.944 84.002 76.0755C84.6287 75.7933 85.2846 75.5774 85.9577 75.4321C86.6176 75.2385 87.2963 75.116 87.9808 75.0669Z" fill="#A80D00"/>
<path d="M95.0047 23.8889C91.89 28.1367 82.8664 33.4882 73.0063 43.1349C73.0063 43.1349 78.4786 68.5086 105.101 77.9477L95.0047 23.8889Z" fill="#263238"/>
<path d="M95.0049 23.8889C99.4464 26.7255 109.79 28.4597 122.471 33.8964C122.471 33.8964 126.526 59.5348 105.101 77.9477L95.0049 23.8889Z" fill="#263238"/>
<g clip-path="url(#clip0_166_9550)">
<path d="M101.979 55.0715L86.9044 53.2129L100.98 62.657L112.446 49.964L101.979 55.0715Z" fill="url(#paint0_linear_166_9550)"/>
<path d="M101.011 62.6612L106 53.8375L99.6695 55.5503L101.011 62.6612Z" fill="url(#paint1_linear_166_9550)"/>
<path d="M101.026 62.6732L93.1157 55.496L86.9626 53.2299L101.026 62.6732Z" fill="url(#paint2_linear_166_9550)"/>
<path d="M86.9733 53.2407L94.4101 47.9759L89.0154 45.3824L86.9733 53.2407Z" fill="url(#paint3_linear_166_9550)"/>
<path d="M99.6494 55.5731L103.578 46.4905L94.023 47.398L99.6494 55.5731Z" fill="url(#paint4_linear_166_9550)"/>
<path d="M110.287 51.8482L108.362 43.5217L103.254 47.1103L110.287 51.8482Z" fill="url(#paint5_linear_166_9550)"/>
<path d="M112.326 44.1515L107.928 43.4703L107.32 40.2417L112.326 44.1515Z" fill="url(#paint6_linear_166_9550)"/>
<path d="M86.0076 46.7533L89.1207 45.3999L90.2439 41.7879L86.0076 46.7533Z" fill="url(#paint7_linear_166_9550)"/>
<path d="M90.2424 41.6454L88.9883 45.4372L94.3435 47.9442L103.297 47.1356L108.383 43.601L107.332 40.1749L102.257 38.603C100.126 38.794 95.952 39.2164 95.8329 39.1914C95.7138 39.1664 92.0122 40.8466 90.2429 41.6448L90.2424 41.6454Z" fill="white"/>
<path d="M98.0701 39.1471C102.819 38.5622 107.501 39.6672 107.792 42.0399C108.083 44.4127 104.151 46.5793 99.4028 47.1642C94.6541 47.7491 89.9487 46.7601 89.658 44.3908C89.3674 42.0215 93.3234 39.7294 98.0701 39.1471Z" fill="url(#paint8_linear_166_9550)"/>
<path d="M86.9749 53.2382L94.412 47.9395L99.6214 55.5307C95.2962 55.9422 90.9711 55.7713 86.9749 53.2382Z" fill="url(#paint9_linear_166_9550)"/>
<path d="M103.319 47.1258L99.644 55.5523C103.441 54.9706 107.152 54.058 110.337 51.8428L103.318 47.1259L103.319 47.1258Z" fill="url(#paint10_linear_166_9550)"/>
<path d="M110.291 51.8644C112.665 50.2646 115.217 47.3089 112.301 44.1383L108.368 43.5278L110.291 51.8638L110.291 51.8644Z" fill="url(#paint11_linear_166_9550)"/>
<path d="M86.0307 46.7225C83.3849 50.3465 85.9034 52.3797 86.9688 53.2537L88.9982 45.4238L86.0307 46.7225Z" fill="white"/>
<path d="M103.32 47.1443C104.164 49.3784 105.873 53.8707 105.907 53.9606C107.473 53.4998 108.949 52.775 110.271 51.8175L103.32 47.1443Z" fill="url(#paint12_radial_166_9550)"/>
<path d="M94.4102 47.937L93.0355 55.4801C95.2106 55.8096 97.422 55.8226 99.6009 55.5189L94.4127 47.939L94.4102 47.937Z" fill="url(#paint13_radial_166_9550)"/>
<path d="M88.9854 45.4229L84.9468 49.8255C84.9048 51.422 85.8624 52.3044 87.0004 53.0578C87.7216 50.5169 89.1646 45.4355 88.9834 45.4214L88.9854 45.4229Z" fill="url(#paint14_linear_166_9550)"/>
<path d="M108.342 43.5275L113.287 48.5924C113.96 47.1099 113.678 45.598 112.325 44.1463L108.344 43.5249L108.342 43.5275Z" fill="url(#paint15_linear_166_9550)"/>
</g>
<path d="M7.75935 128.735H4.21735V134.103H1.77535L1.77535 119.033H7.49535C10.898 119.033 12.5993 120.631 12.5993 123.829C12.5993 125.97 11.778 127.422 10.1353 128.185L12.6213 134.103H9.93735L7.75935 128.735ZM10.0913 123.851C10.0913 122.047 9.22601 121.145 7.49535 121.145H4.21735V126.623H7.53935C8.41935 126.623 9.06468 126.373 9.47535 125.875C9.88601 125.361 10.0913 124.687 10.0913 123.851ZM23.295 131.639V123.103H25.671V134.103H23.295V133.421C22.2243 134.037 21.2343 134.345 20.325 134.345C19.577 134.345 18.9536 134.249 18.455 134.059C17.971 133.868 17.5823 133.56 17.289 133.135C17.0103 132.695 16.8123 132.123 16.695 131.419C16.5776 130.715 16.519 129.857 16.519 128.845V123.103H18.917V128.867C18.917 129.527 18.939 130.077 18.983 130.517C19.027 130.942 19.115 131.279 19.247 131.529C19.379 131.778 19.5696 131.954 19.819 132.057C20.0683 132.159 20.391 132.211 20.787 132.211C21.5643 132.211 22.2903 132.064 22.965 131.771L23.295 131.639ZM35.2403 122.861C35.9883 122.861 36.6336 122.963 37.1763 123.169C37.7189 123.359 38.1589 123.682 38.4963 124.137C38.8483 124.577 39.1049 125.163 39.2663 125.897C39.4276 126.63 39.5083 127.532 39.5083 128.603C39.5083 129.673 39.4129 130.575 39.2223 131.309C39.0463 132.042 38.7456 132.636 38.3203 133.091C37.8949 133.531 37.3376 133.853 36.6483 134.059C35.9736 134.249 35.1376 134.345 34.1403 134.345C33.4509 134.345 32.3583 134.279 30.8623 134.147L30.1143 134.081V118.527H32.4903V123.521C33.5023 123.081 34.4189 122.861 35.2403 122.861ZM34.1403 132.211C34.7269 132.211 35.2109 132.145 35.5923 132.013C35.9736 131.881 36.2743 131.675 36.4943 131.397C36.7143 131.103 36.8609 130.729 36.9343 130.275C37.0223 129.805 37.0663 129.241 37.0663 128.581C37.0663 127.261 36.8976 126.337 36.5603 125.809C36.2376 125.266 35.7023 124.995 34.9543 124.995C34.2503 124.995 33.5463 125.105 32.8423 125.325L32.4903 125.435V132.123C32.9009 132.152 33.2383 132.174 33.5023 132.189C33.7809 132.203 33.9936 132.211 34.1403 132.211ZM45.3192 134.103H47.2112L45.8912 138.833H48.2452L52.4252 123.103H50.0492L47.7172 132.057H47.1232L44.7912 123.103H42.4372L45.3192 134.103ZM66.5693 122.861C68.3293 122.861 69.5833 123.337 70.3313 124.291C71.094 125.244 71.4753 126.674 71.4753 128.581C71.4753 129.534 71.3873 130.37 71.2113 131.089C71.0353 131.807 70.7566 132.409 70.3753 132.893C69.994 133.377 69.488 133.743 68.8573 133.993C68.2413 134.227 67.4786 134.345 66.5693 134.345C65.6746 134.345 64.912 134.227 64.2813 133.993C63.6506 133.743 63.1446 133.377 62.7633 132.893C62.382 132.409 62.1033 131.807 61.9273 131.089C61.7513 130.37 61.6633 129.534 61.6633 128.581C61.6633 127.715 61.744 126.931 61.9053 126.227C62.0666 125.523 62.3306 124.921 62.6973 124.423C63.0786 123.924 63.5846 123.543 64.2153 123.279C64.846 123 65.6306 122.861 66.5693 122.861ZM64.5893 131.441C64.912 132.027 65.572 132.321 66.5693 132.321C67.0533 132.321 67.4566 132.255 67.7793 132.123C68.102 131.976 68.3586 131.749 68.5493 131.441C68.74 131.133 68.872 130.744 68.9453 130.275C69.0186 129.791 69.0553 129.219 69.0553 128.559C69.0553 127.224 68.872 126.278 68.5053 125.721C68.1533 125.163 67.508 124.885 66.5693 124.885C65.6306 124.885 64.978 125.163 64.6113 125.721C64.2593 126.278 64.0833 127.224 64.0833 128.559C64.0833 129.879 64.252 130.839 64.5893 131.441ZM77.7953 125.567V134.103H75.3973V123.103H77.7733V123.785C78.8586 123.169 79.8706 122.861 80.8093 122.861C81.5426 122.861 82.1513 122.963 82.6353 123.169C83.1193 123.359 83.508 123.675 83.8013 124.115C84.0946 124.54 84.3 125.09 84.4173 125.765C84.5493 126.439 84.6153 127.253 84.6153 128.207V134.103H82.2393V128.273C82.2393 127.671 82.21 127.165 82.1513 126.755C82.0926 126.344 81.99 126.007 81.8433 125.743C81.7113 125.479 81.5133 125.288 81.2493 125.171C81 125.053 80.6773 124.995 80.2813 124.995C79.548 124.995 78.8293 125.141 78.1253 125.435L77.7953 125.567ZM101.591 128.735H98.0491V134.103H95.6071V119.033H101.327C104.73 119.033 106.431 120.631 106.431 123.829C106.431 125.97 105.61 127.422 103.967 128.185L106.453 134.103H103.769L101.591 128.735ZM103.923 123.851C103.923 122.047 103.058 121.145 101.327 121.145H98.0491V126.623H101.371C102.251 126.623 102.896 126.373 103.307 125.875C103.718 125.361 103.923 124.687 103.923 123.851ZM118.601 126.491V131.507C118.615 131.829 118.696 132.071 118.843 132.233C119.004 132.379 119.246 132.475 119.569 132.519L119.503 134.345C118.227 134.345 117.251 134.073 116.577 133.531C115.433 134.073 114.252 134.345 113.035 134.345C110.849 134.345 109.757 133.179 109.757 130.847C109.757 129.732 110.05 128.925 110.637 128.427C111.223 127.928 112.14 127.627 113.387 127.525L116.225 127.283V126.491C116.225 125.904 116.093 125.493 115.829 125.259C115.579 125.024 115.205 124.907 114.707 124.907C114.237 124.907 113.709 124.921 113.123 124.951C112.536 124.98 111.891 125.024 111.187 125.083L110.483 125.127L110.395 123.433C112.037 123.051 113.511 122.861 114.817 122.861C116.166 122.861 117.134 123.147 117.721 123.719C118.307 124.291 118.601 125.215 118.601 126.491ZM116.225 128.977L113.673 129.219C112.661 129.307 112.155 129.857 112.155 130.869C112.155 131.881 112.602 132.387 113.497 132.387C114.259 132.387 115.037 132.269 115.829 132.035L116.225 131.903V128.977ZM125.549 134.103V123.103H123.151V134.103H125.549ZM125.549 121.233V118.703H123.151V121.233H125.549ZM132.528 134.103V118.527H130.13V134.103H132.528ZM144.78 123.367L144.736 125.369C143.856 125.251 143.101 125.163 142.47 125.105C141.854 125.046 141.355 125.017 140.974 125.017C140.182 125.017 139.639 125.112 139.346 125.303C139.053 125.479 138.906 125.765 138.906 126.161C138.906 126.557 139.075 126.835 139.412 126.997C139.573 127.07 139.845 127.158 140.226 127.261C140.622 127.349 141.128 127.444 141.744 127.547C142.36 127.649 142.881 127.781 143.306 127.943C143.731 128.104 144.076 128.317 144.34 128.581C144.604 128.83 144.795 129.153 144.912 129.549C145.044 129.93 145.11 130.407 145.11 130.979C145.11 132.137 144.736 132.988 143.988 133.531C143.255 134.073 142.177 134.345 140.754 134.345C140.299 134.345 139.793 134.308 139.236 134.235C138.679 134.176 138.055 134.088 137.366 133.971L136.684 133.861L136.772 131.859C137.652 131.976 138.407 132.064 139.038 132.123C139.683 132.181 140.197 132.211 140.578 132.211C141.37 132.211 141.927 132.115 142.25 131.925C142.573 131.734 142.734 131.419 142.734 130.979C142.734 130.539 142.58 130.231 142.272 130.055C142.111 129.981 141.839 129.901 141.458 129.813C141.091 129.71 140.607 129.607 140.006 129.505C139.405 129.402 138.884 129.285 138.444 129.153C138.019 129.006 137.659 128.815 137.366 128.581C137.087 128.331 136.875 128.023 136.728 127.657C136.596 127.29 136.53 126.821 136.53 126.249C136.53 125.677 136.633 125.185 136.838 124.775C137.043 124.349 137.322 123.997 137.674 123.719C138.041 123.44 138.473 123.235 138.972 123.103C139.485 122.956 140.043 122.883 140.644 122.883C141.113 122.883 141.634 122.912 142.206 122.971C142.778 123.029 143.409 123.117 144.098 123.235L144.78 123.367Z" fill="white"/>
<defs>
<linearGradient id="paint0_linear_166_9550" x1="97.8012" y1="64.2558" x2="99.2764" y2="54.501" gradientUnits="userSpaceOnUse">
<stop stop-color="#FB7655"/>
<stop offset="0.41" stop-color="#E42B1E"/>
<stop offset="0.99" stop-color="#990000"/>
<stop offset="1" stop-color="#990000"/>
</linearGradient>
<linearGradient id="paint1_linear_166_9550" x1="104.124" y1="60.1004" x2="99.5834" y2="54.9008" gradientUnits="userSpaceOnUse">
<stop stop-color="white"/>
<stop offset="0.99" stop-color="#911209"/>
<stop offset="1" stop-color="#911209"/>
</linearGradient>
<linearGradient id="paint2_linear_166_9550" x1="95.6568" y1="62.8087" x2="98.226" y2="59.3432" gradientUnits="userSpaceOnUse">
<stop stop-color="white"/>
<stop offset="0.99" stop-color="#911209"/>
<stop offset="1" stop-color="#911209"/>
</linearGradient>
<linearGradient id="paint3_linear_166_9550" x1="91.7185" y1="46.6973" x2="89.6868" y2="52.6004" gradientUnits="userSpaceOnUse">
<stop stop-color="white"/>
<stop offset="0.23" stop-color="#E57252"/>
<stop offset="0.46" stop-color="#DE3B20"/>
<stop offset="0.99" stop-color="#A60003"/>
<stop offset="1" stop-color="#A60003"/>
</linearGradient>
<linearGradient id="paint4_linear_166_9550" x1="100.611" y1="46.1085" x2="96.9923" y2="51.3637" gradientUnits="userSpaceOnUse">
<stop stop-color="white"/>
<stop offset="0.23" stop-color="#E4714E"/>
<stop offset="0.56" stop-color="#BE1A0D"/>
<stop offset="0.99" stop-color="#A80D00"/>
<stop offset="1" stop-color="#A80D00"/>
</linearGradient>
<linearGradient id="paint5_linear_166_9550" x1="108.926" y1="44.9992" x2="106.501" y2="48.9548" gradientUnits="userSpaceOnUse">
<stop stop-color="white"/>
<stop offset="0.18" stop-color="#E46342"/>
<stop offset="0.4" stop-color="#C82410"/>
<stop offset="0.99" stop-color="#A80D00"/>
<stop offset="1" stop-color="#A80D00"/>
</linearGradient>
<linearGradient id="paint6_linear_166_9550" x1="107.11" y1="41.794" x2="109.657" y2="39.7233" gradientUnits="userSpaceOnUse">
<stop stop-color="white"/>
<stop offset="0.54" stop-color="#C81F11"/>
<stop offset="0.99" stop-color="#BF0905"/>
<stop offset="1" stop-color="#BF0905"/>
</linearGradient>
<linearGradient id="paint7_linear_166_9550" x1="89.5276" y1="43.035" x2="90.3209" y2="45.2592" gradientUnits="userSpaceOnUse">
<stop stop-color="white"/>
<stop offset="0.31" stop-color="#DE4024"/>
<stop offset="0.99" stop-color="#BF190B"/>
<stop offset="1" stop-color="#BF190B"/>
</linearGradient>
<linearGradient id="paint8_linear_166_9550" x1="84.6411" y1="45.1997" x2="109.849" y2="41.505" gradientUnits="userSpaceOnUse">
<stop stop-color="#BD0012"/>
<stop offset="0.07" stop-color="white"/>
<stop offset="0.17" stop-color="white"/>
<stop offset="0.27" stop-color="#C82F1C"/>
<stop offset="0.33" stop-color="#820C01"/>
<stop offset="0.46" stop-color="#A31601"/>
<stop offset="0.72" stop-color="#B31301"/>
<stop offset="0.99" stop-color="#E82609"/>
<stop offset="1" stop-color="#E82609"/>
</linearGradient>
<linearGradient id="paint9_linear_166_9550" x1="94.0358" y1="55.014" x2="91.3565" y2="50.2147" gradientUnits="userSpaceOnUse">
<stop stop-color="#F5F5F5"/>
<stop offset="0.54" stop-color="#990C00"/>
<stop offset="0.99" stop-color="#A80D0E"/>
<stop offset="1" stop-color="#A80D0E"/>
</linearGradient>
<linearGradient id="paint10_linear_166_9550" x1="105.406" y1="55.4356" x2="103.541" y2="49.3895" gradientUnits="userSpaceOnUse">
<stop stop-color="white"/>
<stop offset="0.99" stop-color="#9E0C00"/>
<stop offset="1" stop-color="#9E0C00"/>
</linearGradient>
<linearGradient id="paint11_linear_166_9550" x1="111.513" y1="50.3174" x2="111.072" y2="46.8462" gradientUnits="userSpaceOnUse">
<stop stop-color="white"/>
<stop offset="0.99" stop-color="#9E120B"/>
<stop offset="1" stop-color="#9E120B"/>
</linearGradient>
<radialGradient id="paint12_radial_166_9550" cx="0" cy="0" r="1" gradientUnits="userSpaceOnUse" gradientTransform="translate(104.789 49.7046) rotate(37.7291) scale(5.7815 3.02105)">
<stop stop-color="#A80D00"/>
<stop offset="0.99" stop-color="#7E0E08"/>
<stop offset="1" stop-color="#7E0E08"/>
</radialGradient>
<radialGradient id="paint13_radial_166_9550" cx="0" cy="0" r="1" gradientUnits="userSpaceOnUse" gradientTransform="translate(93.7461 50.8909) rotate(37.7291) scale(7.72145 6.0108)">
<stop stop-color="white"/>
<stop offset="0.99" stop-color="#800E08"/>
<stop offset="1" stop-color="#800E08"/>
</radialGradient>
<linearGradient id="paint14_linear_166_9550" x1="85.6261" y1="52.1559" x2="84.4197" y2="46.6611" gradientUnits="userSpaceOnUse">
<stop stop-color="white"/>
<stop offset="0.43" stop-color="#9E100A"/>
<stop offset="0.99" stop-color="#B3100C"/>
<stop offset="1" stop-color="#B3100C"/>
</linearGradient>
<linearGradient id="paint15_linear_166_9550" x1="110.659" y1="44.2144" x2="109.729" y2="47.4103" gradientUnits="userSpaceOnUse">
<stop stop-color="#B31000"/>
<stop offset="0.44" stop-color="#910F08"/>
<stop offset="0.99" stop-color="#791C12"/>
<stop offset="1" stop-color="#791C12"/>
</linearGradient>
<clipPath id="clip0_166_9550">
<rect width="26.1437" height="26.1437" fill="white" transform="translate(96.9033 30) rotate(37.7291)"/>
</clipPath>
</defs>
</svg>
