<svg width="113" height="159" viewBox="0 0 113 159" fill="none" xmlns="http://www.w3.org/2000/svg">
<path d="M46.7418 1.00293C45.4496 0.877385 44.3236 1.35475 43.3782 2.50027C45.7487 5.2721 47.0874 9.29314 46.9587 13.2154L41.9587 15.439L42.3762 16.7224L55.6858 10.8032L55.2709 9.51884L50.1348 11.8029C49.0023 10.4106 48.0949 8.73651 47.5071 6.92348C46.889 5.01683 46.6383 2.99828 46.7419 1.00283L46.7418 1.00293ZM53.0138 13.3338L49.9016 14.7178L51.5531 19.9314L53.3363 25.4345L55.1551 30.9245L56.8919 36.4068L58.5532 41.4205L60.6162 36.7945L53.0138 13.3337L53.0138 13.3338ZM48.563 15.3131L45.8874 16.5046L53.4431 39.8208L54.8322 40.4403L55.7638 36.9082L53.0402 34.9715L53.9923 31.4416L51.2668 29.5041L52.2099 25.9366L49.4845 23.9992L50.425 20.433L47.713 18.5324L48.563 15.3131Z" fill="#1E1E1E"/>
<path d="M66.691 6.37106C66.8918 6.13374 67.1611 5.96123 67.4616 5.87737C67.7621 5.7935 68.0791 5.80241 68.3686 5.90288C68.7809 5.69984 69.2467 5.6361 69.6915 5.72184C70.1364 5.80759 70.5346 6.03786 70.8226 6.37589C71.1201 6.26755 71.4389 6.23575 71.7479 6.28359C72.0569 6.33142 72.3457 6.45726 72.586 6.64885C72.8263 6.84044 73.01 7.09124 73.1192 7.37684C73.2284 7.66243 73.2594 7.97308 73.2091 8.27853C73.5272 8.28479 73.8324 8.38891 74.0813 8.57618C74.3303 8.76346 74.5106 9.02443 74.5968 9.32223C74.6829 9.62004 74.6706 9.93964 74.5615 10.2359C74.4523 10.5321 74.252 10.7901 73.9886 10.9732C74.302 11.1402 74.5376 11.417 74.65 11.75C74.7623 12.083 74.7435 12.4487 74.5971 12.7764C74.4507 13.1042 74.1871 13.3708 73.8572 13.5247C73.5274 13.6786 73.1546 13.709 72.8109 13.61L66.6126 8.05949C66.4462 7.80978 66.3644 7.51339 66.3785 7.21105C66.3925 6.90871 66.5017 6.61528 66.691 6.37106Z" fill="#263238"/>
<path d="M73.1659 13.8449C73.3554 12.3233 72.9565 10.8045 72.0481 9.58897C71.1397 8.37345 69.788 7.54985 68.2604 7.28117L67.9432 7.22667C64.5031 6.83217 62.1533 9.48417 61.7465 12.8754L59.8932 24.1018L60.0651 25.5849L64.2278 29.7822L66.8193 27.9679L67.9152 24.7108C67.9152 24.7108 71.271 24.7801 72.0038 21.5686C72.3361 20.025 72.796 16.7828 73.1659 13.8449Z" fill="white"/>
<path d="M68.0223 24.7483C66.5097 24.4874 65.1181 23.8045 64.0125 22.7806C64.0125 22.7806 64.3517 25.4548 67.66 25.7316L68.0223 24.7483Z" fill="white"/>
<path d="M71.5027 16.7182C71.4797 16.838 71.4096 16.9455 71.3077 17.0173C71.2057 17.089 71.0801 17.1193 70.9583 17.1014C70.8984 17.096 70.8407 17.0787 70.7885 17.0508C70.7363 17.0228 70.6906 16.9847 70.6542 16.9387C70.6179 16.8927 70.5915 16.8397 70.5768 16.7829C70.562 16.7261 70.5591 16.6666 70.5683 16.608C70.5914 16.4881 70.6613 16.3805 70.763 16.3082C70.8647 16.236 70.9901 16.2049 71.1122 16.2217C71.1722 16.2274 71.2301 16.245 71.2824 16.2732C71.3347 16.3015 71.3804 16.3399 71.4168 16.3861C71.4532 16.4324 71.4795 16.4856 71.4943 16.5427C71.5091 16.5997 71.5119 16.6594 71.5027 16.7182Z" fill="#263238"/>
<path d="M72.0143 15.5025C71.9468 15.5512 71.6394 15.2551 71.1511 15.1521C70.6629 15.0491 70.2382 15.2485 70.1994 15.179C70.1606 15.1095 70.2595 15.0515 70.4394 14.9647C70.6837 14.8566 70.954 14.8233 71.2136 14.8692C71.4733 14.9151 71.7099 15.0381 71.8916 15.2215C72.0216 15.3758 72.0526 15.495 72.0143 15.5025Z" fill="#263238"/>
<path d="M67.2126 16.1127C67.1896 16.2325 67.1195 16.34 67.0176 16.4118C66.9156 16.4835 66.79 16.5138 66.6682 16.4959C66.6083 16.4904 66.5505 16.4732 66.4982 16.4454C66.4458 16.4175 66.4 16.3795 66.3634 16.3336C66.3268 16.2877 66.3001 16.2348 66.2849 16.1781C66.2698 16.1214 66.2664 16.0619 66.275 16.0031C66.2989 15.8836 66.3689 15.7765 66.4704 15.7044C66.5719 15.6323 66.6969 15.6009 66.8189 15.6168C66.879 15.6226 66.9369 15.6401 66.9893 15.6683C67.0417 15.6965 67.0876 15.7347 67.1242 15.7809C67.1609 15.827 67.1875 15.8801 67.2027 15.9371C67.2179 15.9941 67.2213 16.0538 67.2126 16.1127Z" fill="#263238"/>
<path d="M67.2932 14.5308C67.2257 14.5794 66.9156 14.2679 66.4301 14.1804C65.9446 14.0929 65.5171 14.2767 65.4783 14.2073C65.4395 14.1378 65.5352 14.0804 65.7189 13.996C65.9651 13.8865 66.2378 13.853 66.4995 13.9001C66.7581 13.9441 66.9933 14.0677 67.1711 14.2529C67.2887 14.3935 67.3193 14.5096 67.2932 14.5308Z" fill="#263238"/>
<path d="M68.1713 18.5355C68.4572 18.4974 68.7459 18.4957 69.03 18.5306C69.1605 18.541 69.2881 18.5355 69.3313 18.4551C69.3685 18.3257 69.3654 18.1896 69.3226 18.0643C69.2663 17.7482 69.2027 17.391 69.1385 17.0307C68.8979 15.5666 68.7522 14.3685 68.8143 14.3563C68.8764 14.3441 69.1209 15.5261 69.3619 16.9934C69.4261 17.3537 69.4706 17.6983 69.5226 18.0283C69.573 18.1958 69.5597 18.377 69.4851 18.5394C69.4568 18.5805 69.4195 18.6152 69.376 18.6407C69.3325 18.6662 69.2839 18.682 69.2338 18.6868C69.1575 18.6936 69.0808 18.6911 69.0057 18.6793C68.7217 18.664 68.4416 18.6157 68.1713 18.5355Z" fill="#263238"/>
<path d="M67.3971 13.0771C67.3269 13.2029 66.9025 13.0655 66.3732 13.0447C65.844 13.0239 65.3931 13.1093 65.3503 12.9801C65.3387 12.9152 65.4319 12.8073 65.6323 12.7071C65.8825 12.5867 66.1592 12.5324 66.4339 12.5496C66.7061 12.5591 66.9684 12.6402 67.193 12.7844C67.3578 12.912 67.432 13.0318 67.3971 13.0771Z" fill="#263238"/>
<path d="M70.5307 13.4935C70.6353 13.3926 70.9644 13.5495 71.3777 13.603C71.7911 13.6566 72.1581 13.6164 72.2229 13.7579C72.2505 13.82 72.1763 13.9246 72.0066 14.0127C71.7808 14.1145 71.5313 14.1498 71.2893 14.1139C71.0473 14.0781 70.8237 13.9729 70.6467 13.8114C70.5114 13.6645 70.4829 13.5415 70.5307 13.4935Z" fill="#263238"/>
<path d="M73.0195 12.2739C73.0195 12.2739 72.5866 10.1259 71.7038 9.489C70.6399 8.7295 69.8564 9.91224 68.7962 9.4171C67.7359 8.92195 66.7133 8.17047 65.3731 8.83291C63.9138 9.55443 64.3654 10.325 63.9882 11.7216C62.4548 17.3937 61.0508 18.8413 61.3247 16.0719C61.3541 15.7687 60.5664 15.3878 60.7066 14.1156C60.8892 12.4633 61.2391 10.4806 61.8625 9.38766C62.3649 8.47381 63.0794 7.89623 64.2447 7.33302C66.0788 6.44046 68.2761 6.79494 69.7287 7.19962C71.1813 7.60431 73.6819 9.7866 73.0195 12.2739Z" fill="#263238"/>
<path d="M61.6751 15.9941C61.6961 15.8753 61.6924 15.7544 61.6642 15.6385C61.636 15.5227 61.5838 15.4144 61.5109 15.3202C61.438 15.226 61.3459 15.1478 61.2401 15.0904C61.1344 15.0331 61.0171 14.9977 60.8956 14.9865C60.2759 14.9398 59.5269 15.1627 59.3058 16.4071C58.915 18.6188 61.2524 18.4789 61.265 18.4178C61.2775 18.3568 61.5212 16.9193 61.6751 15.9941Z" fill="white"/>
<path d="M60.9394 17.5138C60.9394 17.5138 60.8941 17.5228 60.823 17.5564C60.7226 17.5819 60.6171 17.5689 60.5285 17.52C60.3994 17.4087 60.3039 17.2649 60.2517 17.1034C60.1996 16.9419 60.1927 16.7685 60.2318 16.6008C60.2594 16.4105 60.33 16.2273 60.4384 16.0647C60.4717 15.9986 60.5207 15.9409 60.5811 15.8966C60.6416 15.8523 60.7117 15.8227 60.7854 15.8104C60.8331 15.8052 60.8806 15.8163 60.92 15.8418C60.9593 15.8673 60.988 15.9057 61.0011 15.9503C61.0128 16.0164 60.9968 16.0587 61.0206 16.0605C61.0444 16.0623 61.0755 16.0301 61.0723 15.9362C61.0701 15.8798 61.0476 15.8266 61.0088 15.7858C60.9825 15.7585 60.9507 15.7368 60.9153 15.722C60.8798 15.7071 60.8415 15.6995 60.8026 15.6994C60.707 15.7032 60.6133 15.7316 60.5311 15.7816C60.4488 15.8316 60.3807 15.9015 60.3337 15.9843C60.2025 16.1611 60.1178 16.3661 60.0875 16.5804C60.0415 16.7761 60.0551 16.9789 60.1265 17.1636C60.1979 17.3483 60.324 17.5067 60.489 17.619C60.5469 17.6441 60.61 17.6564 60.674 17.655C60.7379 17.6537 60.8012 17.6387 60.8595 17.6111C60.9117 17.5845 60.9405 17.5201 60.9394 17.5138Z" fill="white"/>
<path d="M62.4576 11.74C62.6844 12.002 62.976 12.2029 63.3062 12.3248C63.4724 12.3807 63.6554 12.3752 63.8215 12.3094C63.9876 12.2435 64.1253 12.1219 64.2093 11.9669C64.2693 11.8201 64.2662 11.6343 64.3916 11.5388C64.517 11.4434 64.7559 11.5024 64.9371 11.5535C65.2555 11.6345 65.5961 11.605 65.9014 11.4699C66.2067 11.3348 66.458 11.1024 66.613 10.8118C66.6892 10.9369 66.8115 11.0281 66.9557 11.0675C67.1 11.1069 67.2558 11.0916 67.3923 11.0247C67.6597 10.8822 67.9068 10.7048 68.1264 10.4975C68.2372 10.394 68.3714 10.3178 68.5174 10.2756C68.6634 10.2333 68.8168 10.2264 68.964 10.2553C69.1217 10.3046 69.2558 10.426 69.424 10.4411C69.7198 10.4664 69.9299 10.1582 70.033 9.88075C70.1361 9.60332 70.2416 9.28363 70.5196 9.171C70.7932 9.11691 71.0748 9.15814 71.3148 9.28747C71.5747 9.37125 71.9317 9.36839 72.0569 9.14123C72.0829 9.07432 72.0948 9.00335 72.0919 8.93264C72.0891 8.86194 72.0715 8.79296 72.0402 8.72992C71.9198 8.43179 71.6977 8.18562 71.4105 8.03191C71.1233 7.87821 70.7882 7.82613 70.4602 7.88425C70.4267 7.50485 70.2786 7.14696 70.0346 6.85562C69.7906 6.56427 69.4616 6.35249 69.089 6.24692C68.7165 6.14134 68.3169 6.1467 67.9407 6.26231C67.5645 6.37791 67.2284 6.59861 66.9747 6.89662C66.7839 6.64687 66.5327 6.44759 66.2425 6.31571C65.9524 6.18383 65.6318 6.12324 65.3081 6.13909C64.9843 6.15493 64.6669 6.24675 64.3829 6.40674C64.0988 6.56673 63.8565 6.79016 63.6765 7.05807C63.4207 6.94159 63.1332 6.90212 62.8498 6.94456C62.5663 6.98699 62.2994 7.10946 62.0823 7.29675C61.8651 7.48404 61.7072 7.72789 61.6282 7.99801C61.5492 8.26813 61.5525 8.55261 61.6379 8.8161C61.4109 8.88109 61.2028 9.00084 61.0331 9.16414C60.8635 9.32743 60.7378 9.52891 60.668 9.74967C60.5653 10.1974 60.9161 10.7196 61.3823 10.6792C61.2586 10.841 61.2007 11.0407 61.2203 11.2383C61.2399 11.4358 61.3355 11.6166 61.488 11.7444C61.6406 11.8721 61.8387 11.9374 62.0426 11.9271C62.2465 11.9167 62.4412 11.8316 62.5876 11.6887" fill="#263238"/>
<path d="M61.2717 10.6624C61.2452 10.736 61.2358 10.814 61.2442 10.8906C61.2526 10.9672 61.2785 11.0405 61.3201 11.105C61.4005 11.264 61.5406 11.3853 61.712 11.4443C61.821 11.4805 61.9374 11.4929 62.0533 11.4806C62.1691 11.4683 62.2816 11.4316 62.383 11.3731L62.2913 11.3428C62.3654 11.5664 62.4764 11.7757 62.62 11.9626C62.7155 12.0896 62.8347 12.1974 62.9716 12.2808C63.104 12.3563 63.2551 12.3965 63.4103 12.3976C63.539 12.4087 63.6694 12.392 63.7925 12.3487C63.9155 12.3055 64.0282 12.2366 64.1226 12.1471C64.2422 12.0247 64.3364 11.8809 64.3996 11.7241C64.4285 11.6705 64.4464 11.612 64.4521 11.5522C64.4521 11.5522 64.4118 11.6054 64.3529 11.7043C64.2766 11.8448 64.1783 11.9732 64.0618 12.0848C63.9598 12.1628 63.8429 12.2197 63.7187 12.252C63.5944 12.2843 63.4654 12.2912 63.3399 12.2723C63.2143 12.2534 63.0949 12.2091 62.9891 12.1422C62.8834 12.0753 62.7936 11.9873 62.7254 11.8837C62.5901 11.7068 62.4837 11.51 62.4098 11.3L62.3966 11.2251L62.331 11.2671C62.2458 11.3191 62.1506 11.3526 62.052 11.3654C61.9534 11.3782 61.8538 11.3699 61.7601 11.3411C61.6101 11.2949 61.4834 11.1974 61.4028 11.0661C61.3316 10.9423 61.287 10.805 61.2717 10.6624Z" fill="#5C913B"/>
<path d="M66.4238 6.43984C66.4238 6.43984 66.4786 6.46784 66.5683 6.52454C66.6986 6.60783 66.798 6.7296 66.8525 6.87292L66.8614 6.92295L66.9014 6.88592C67.2577 6.56391 67.6893 6.33378 68.1554 6.21725C68.4546 6.14126 68.7651 6.12845 69.0659 6.17967C69.3984 6.23763 69.7052 6.38538 69.9521 6.60647C70.1429 6.77992 70.2935 6.99157 70.3941 7.22787C70.4911 7.44592 70.5333 7.68488 70.5174 7.92524L70.5103 7.99785L70.5777 7.98452C70.8703 7.95714 71.1604 8.03134 71.3969 8.19408C71.6335 8.35683 71.8015 8.59773 71.8714 8.8745C71.9176 9.09504 71.9185 9.32366 71.874 9.54717C71.9034 9.49223 71.9244 9.43354 71.9362 9.37304C71.9762 9.20246 71.978 9.0265 71.9415 8.85741C71.8877 8.59349 71.7491 8.35566 71.5457 8.17831C71.2777 7.95335 70.928 7.8415 70.5701 7.86628L70.6348 7.93117C70.6626 7.67055 70.6255 7.40908 70.5267 7.1693C70.4056 6.87872 70.2118 6.62431 69.9627 6.42895C69.7136 6.23358 69.417 6.10338 69.0995 6.05005C68.7811 5.99877 68.4532 6.01612 68.1382 6.10091C67.6571 6.22923 67.2162 6.4807 66.8614 6.82909L66.9198 6.84019C66.8539 6.68861 66.7372 6.56465 66.5885 6.48819C66.5384 6.45987 66.4821 6.44334 66.4238 6.43984Z" fill="#5C913B"/>
<path d="M68.4672 20.292C68.2312 20.0914 67.983 19.9049 67.7239 19.7333C67.2773 19.4818 66.84 19.4517 66.844 19.3991C67.1846 19.3358 67.5329 19.4066 67.8126 19.596C68.1176 19.7329 68.3524 19.9826 68.4672 20.292Z" fill="#263238"/>
<path d="M93.4194 31.7999C93.7562 31.6357 97.3063 31.5042 97.3063 31.5042C97.3454 31.5907 97.3617 31.6858 97.3538 31.7812C97.346 31.8765 97.3142 31.9693 97.2612 32.0513C97.2082 32.1334 97.1356 32.2022 97.0498 32.2519C96.964 32.3015 96.8675 32.3305 96.7689 32.3361C95.9674 32.4673 93.3142 32.7792 93.3142 32.7792L91.7582 33.8196L91.1617 33.6948L93.4194 31.7999Z" fill="white"/>
<path d="M86.4744 33.8437L91.4635 33.3312L92.2454 33.2704C92.2454 33.2704 93.9419 32.2803 94.2639 32.1597C94.586 32.0391 97.9155 33.0392 97.9155 33.0392C97.9155 33.0392 98.1519 33.6981 97.2715 33.6888C96.5932 33.6546 95.9225 33.5508 95.2707 33.3791C95.2707 33.3791 92.7362 35.1527 92.2317 35.5101C91.7273 35.8675 88.4413 36.4832 88.4413 36.4832L87.4103 37.4449L86.4744 33.8437Z" fill="white"/>
<path d="M89.7382 40.8705L91.5227 39.235L97.9963 35.4947C97.9963 35.4947 98.5053 34.8391 98.1572 34.6861C97.8091 34.5332 90.6545 37.0464 90.6545 37.0464L89.2632 38.1936L89.7382 40.8705Z" fill="white"/>
<path d="M69.7286 39.5985C69.7951 39.9751 65.4707 50.877 64.1793 53.6432C62.2701 57.7432 59.7982 58.6965 59.7982 58.6965L55.9259 56.6103L67.2673 39.14L70.8868 35.3807L69.7286 39.5985Z" fill="#5C913B"/>
<path d="M67.2467 44.7413C67.2467 44.7413 73.0352 46.0265 75.1076 45.9678C77.544 45.8952 90.3707 42.4728 90.3707 42.4728L89.2354 37.5414L70.1864 40.8355L67.8154 40.7013L67.2467 44.7413Z" fill="#5C913B"/>
<g opacity="0.3">
<path d="M68.6081 40.2612C68.2389 40.517 68.184 41.5736 67.9338 41.9369C65.2847 45.8089 63.5605 49.9094 60.7573 53.5074C59.5456 55.0424 58.1184 56.4543 56.1704 56.7603L58.4152 57.9598C60.0539 57.5917 61.0142 56.6293 62.0765 55.3405C63.1389 54.0517 63.4142 52.4578 64.1494 50.982C65.8317 47.6201 67.406 43.9202 69.0845 40.556C68.9086 40.1739 68.9778 40.0085 68.6081 40.2612Z" fill="black"/>
</g>
<path d="M56.7663 56.4136C56.7663 56.4136 59.6346 56.064 60.5903 55.2091C61.7423 54.1823 70.4905 37.4919 70.4905 37.4919L68.5941 26.174L61.1616 21.5018L60.6738 22.6084L49.7652 40.3918L42.4916 50.1647L53.8998 53.5667L56.7663 56.4136Z" fill="#E0E0E0"/>
<path d="M67.7953 37.5532C67.5283 38.0128 69.0679 43.5652 61.6331 45.8505C55.3592 47.7775 41.9119 49.7169 37.8675 50.2768C37.373 50.3535 36.8734 50.237 36.4771 49.9526C36.0808 49.6682 35.8199 49.2388 35.751 48.7578C35.7275 48.5306 35.7545 48.2997 35.8303 48.0808C35.9061 47.8619 36.0288 47.6601 36.1901 47.4894C37.4077 46.0834 38.9568 46.139 39.4288 43.6502C39.9008 41.1615 39.3457 40.3865 40.7317 39.1635C42.6919 37.4365 48.4745 38.7512 48.4745 38.7512C49.4698 36.5013 49.8669 34.602 51.3441 31.8694C52.5348 29.6551 54.1451 26.6251 55.6641 25.3662C56.5802 24.6942 57.546 24.0911 58.5529 23.5623L59.56 23.1794L60.0779 22.1505C61.276 22.9599 65.6921 25.626 66.5749 26.6785L68.12 30.8932L67.7953 37.5532Z" fill="#5C913B"/>
<g opacity="0.3">
<path d="M86.2189 38.9384C81.1703 39.5988 75.9239 40.2982 69.5416 40.3056L69.2998 41.1585C73.2265 42.5501 75.6996 42.1263 78.4267 41.7762C81.1538 41.426 83.5916 40.5416 86.197 40.0266C86.3409 39.6723 86.3486 39.2865 86.2189 38.9384Z" fill="black"/>
</g>
<g opacity="0.3">
<path d="M56.5932 32.7584L54.5631 33.3022C55.8704 35.7912 57.4001 36.4097 60.0239 37.5822C62.6478 38.7546 63.108 39.1599 65.9544 39.7553C66.228 39.8113 68.4389 40.6009 68.4564 40.3315C63.4446 38.5851 60.3449 36.3478 56.5932 32.7584Z" fill="black"/>
</g>
<path d="M54.2032 31.4166C53.8205 33.553 55.317 34.2066 55.317 34.2066C55.317 34.2066 67.8946 41.6561 72.3729 41.275C76.8511 40.8939 88.2594 38.0311 88.2594 38.0311L87.3362 32.8242L73.0521 34.1254C73.0521 34.1254 66.2639 28.7789 62.5677 26.1572" fill="#5C913B"/>
<path d="M62.5743 26.1571C62.5743 26.1571 62.6444 26.1979 62.7725 26.2852L63.3362 26.6821C63.8286 27.032 64.5536 27.5546 65.469 28.2359C67.3062 29.5972 69.9246 31.5922 73.1028 34.075L73.0542 34.0621L87.3389 32.7447L87.4124 32.7302L88.362 38.0862L88.2852 38.1014L85.7874 38.7095C82.251 39.548 78.828 40.316 75.5795 40.892L74.3668 41.0925C73.9625 41.1464 73.5663 41.2084 73.1678 41.258C72.772 41.3113 72.374 41.3425 71.9759 41.3515C71.7795 41.3452 71.5819 41.3327 71.3902 41.3158C71.1985 41.299 71.0046 41.2697 70.8159 41.2329C69.3801 40.9362 67.9809 40.5046 66.6376 39.9441C64.349 39.008 62.1133 37.9592 59.9388 36.8016C58.047 35.8048 56.4846 34.9102 55.3103 34.2253C54.8887 34.0018 54.5566 33.6487 54.3638 33.219C54.2224 32.9105 54.1462 32.5758 54.1395 32.2343C54.1297 32.0272 54.1416 31.8191 54.1751 31.6132C54.1967 31.4739 54.2113 31.4067 54.2113 31.4067C54.2113 31.4067 54.2234 31.475 54.1954 31.6156C54.1674 31.82 54.1607 32.026 54.1753 32.2305C54.1888 32.5653 54.2693 32.8924 54.4122 33.1934C54.6045 33.6093 54.9307 33.9498 55.3425 34.1643C56.5232 34.8479 58.0882 35.7195 59.9873 36.702C61.8865 37.6845 64.1172 38.7817 66.6876 39.8152C68.0261 40.3723 69.4204 40.8005 70.8509 41.0942C71.0358 41.1285 71.2275 41.1453 71.4145 41.1728C71.6015 41.2003 71.7974 41.2034 71.9869 41.2079C72.3783 41.1976 72.7695 41.1656 73.1585 41.112C73.5543 41.0661 73.95 41.001 74.3511 40.9476L75.56 40.7447C78.8079 40.1656 82.2304 39.3945 85.7668 38.556L88.2614 37.9485L88.1958 38.0451C87.8785 36.2556 87.5684 34.5065 87.2726 32.8381L87.36 32.9013L73.073 34.187L73.0474 34.192L73.0441 34.1734C69.8775 31.6819 67.2794 29.67 65.4463 28.2758L63.3352 26.6952L62.7821 26.2833C62.6301 26.2104 62.5743 26.1571 62.5743 26.1571Z" fill="#263238"/>
<path d="M69.4793 40.9145C69.4188 41.0965 69.3451 41.2743 69.2588 41.4467L68.6278 42.8742C68.1036 44.0917 67.4029 45.7871 66.6367 47.6615C65.8706 49.5359 65.1731 51.2307 64.6494 52.4514C64.3863 53.0636 64.1753 53.5548 64.012 53.8802C63.9438 54.0577 63.8625 54.2306 63.7688 54.3973C63.8195 54.2119 63.8847 54.0302 63.9638 53.8539L64.5461 52.3969L66.4896 47.5864C67.2557 45.7119 67.9765 44.0354 68.5266 42.8128C68.8044 42.2074 69.0386 41.7344 69.2056 41.392C69.2849 41.2268 69.3764 41.0672 69.4793 40.9145Z" fill="#263238"/>
<path d="M65.7076 27.6892C65.685 27.6937 65.3768 27.4008 64.8474 26.931C64.1591 26.323 63.4368 25.7528 62.6834 25.223C61.8003 24.5991 60.9635 24.0862 60.3584 23.7157C60.0202 23.5322 59.6956 23.3264 59.3867 23.0996C59.4875 23.129 59.5841 23.1698 59.6747 23.2212C59.8535 23.3092 60.1104 23.4434 60.411 23.6177C61.2261 24.0678 62.0141 24.5622 62.7714 25.0985C63.5343 25.6278 64.2528 26.215 64.9205 26.8548C65.177 27.0995 65.3736 27.3073 65.5033 27.457C65.5823 27.5244 65.651 27.6026 65.7076 27.6892Z" fill="#263238"/>
<g opacity="0.3">
<path d="M64.1295 44.7748C63.2395 45.1948 55.7985 46.2005 51.9135 45.8246C49.1258 45.5542 46.3717 45.0202 44.3924 44.1269C42.8653 43.4587 41.4899 42.5271 40.3322 41.3769C39.8668 41.2322 39.7994 42.499 39.7169 43.0325C39.6344 43.5661 39.5119 44.9536 38.6419 45.7549C37.5739 46.7307 35.7804 47.3416 35.8761 48.8795C35.9345 49.8422 36.9755 50.4414 37.9844 50.2858C41.1598 49.7984 49.9116 48.4512 52.2392 47.9806C55.0829 47.3938 61.2052 46.324 64.1295 44.7748Z" fill="black"/>
</g>
<path d="M65.1878 44.1834C65.1346 44.2569 65.0764 44.327 65.0137 44.3932C64.8168 44.5717 64.5956 44.7227 64.3567 44.8416C63.4592 45.2178 62.5131 45.4638 61.5494 45.5714C60.336 45.7521 58.8845 45.8581 57.2754 45.9503C55.5282 46.067 53.7785 46.0807 52.0359 45.9915C50.2888 45.9002 48.5637 45.6172 46.8933 45.148C45.5292 44.7589 44.2284 44.197 43.0239 43.4764C42.2116 42.9923 41.4602 42.4197 40.7837 41.7694C40.5475 41.5379 40.3787 41.3506 40.2592 41.2175C40.1978 41.154 40.1416 41.0861 40.0908 41.0142C40.162 41.0682 40.2271 41.1293 40.2852 41.1964C40.4036 41.3233 40.5873 41.5013 40.8325 41.7279C41.5218 42.3547 42.2781 42.9085 43.0894 43.3805C44.2931 44.0799 45.5871 44.6266 46.941 45.0077C48.6069 45.4557 50.3242 45.7218 52.0615 45.8012C53.7981 45.8895 55.5415 45.879 57.2829 45.7699C58.8937 45.687 60.341 45.5946 61.5476 45.4313C62.5028 45.3328 63.4432 45.1052 64.3413 44.7552C64.5781 44.6473 64.8003 44.5103 65.0022 44.3475C65.061 44.2896 65.123 44.2348 65.1878 44.1834Z" fill="#263238"/>
<path d="M66.325 42.3144C66.2983 42.3521 66.0446 42.2174 65.7621 42.0137C65.4795 41.8099 65.2717 41.6142 65.3021 41.5789C65.3326 41.5437 65.5825 41.676 65.865 41.8797C66.1475 42.0834 66.3554 42.2792 66.325 42.3144Z" fill="#263238"/>
<path d="M61.093 25.7963C61.0979 25.8242 60.609 25.7153 59.8271 25.7441C58.8058 25.7762 57.8026 26.0661 56.9158 26.5853C56.029 27.1046 55.289 27.8354 54.7684 28.7063C54.368 29.3745 54.2362 29.8426 54.2047 29.8328C54.214 29.7181 54.2407 29.6049 54.2839 29.4968C54.3833 29.203 54.511 28.9183 54.6651 28.6465C55.1702 27.7365 55.9192 26.9726 56.8298 26.4391C57.7403 25.9055 58.7769 25.623 59.8254 25.6227C60.1402 25.621 60.4537 25.6473 60.7619 25.7012C60.8776 25.714 60.9896 25.7462 61.093 25.7963Z" fill="#263238"/>
<path d="M60.8554 40.9926C60.8217 41.0224 60.7838 41.0471 60.7428 41.066C60.634 41.1332 60.5211 41.1939 60.4048 41.2476C59.9745 41.4455 59.5199 41.5855 59.0539 41.6636C58.3611 41.7756 57.6583 41.792 56.9666 41.7122C56.1235 41.611 55.297 41.4203 54.5017 41.1434C53.6564 40.8518 52.8764 40.5185 52.1686 40.219C51.4608 39.9196 50.8251 39.654 50.2777 39.4574C49.7303 39.2609 49.2792 39.1223 48.9664 39.0365C48.7999 39.002 48.6368 38.9549 48.4785 38.8955C48.5228 38.8946 48.5668 38.8989 48.6097 38.9081C48.6951 38.9234 48.8236 38.9397 48.9821 38.9758C49.4367 39.0753 49.8841 39.2011 50.3219 39.3527C51.4393 39.7061 52.8923 40.4033 54.5605 40.991C55.3414 41.2628 56.1511 41.4555 56.977 41.5661C57.654 41.6536 58.343 41.6496 59.0246 41.5542C59.6557 41.4479 60.2716 41.259 60.8554 40.9926Z" fill="#263238"/>
<path d="M64.5524 44.2981C64.4725 44.3187 64.3914 44.3346 64.3098 44.3457L63.6072 44.4452C63.3044 44.4887 62.9296 44.5367 62.4941 44.5774C62.0586 44.6182 61.5641 44.6801 61.0146 44.7113C60.4651 44.7425 59.8635 44.7967 59.2185 44.8114C58.5735 44.8262 57.8822 44.8405 57.1551 44.8395C55.5797 44.8233 54.0095 44.7166 52.4526 44.5197C50.8967 44.3075 49.3605 43.9932 47.8542 43.5789C47.1564 43.3708 46.5081 43.1818 45.9124 42.9537C45.6146 42.8396 45.3211 42.7503 45.0488 42.6312L44.2661 42.2992C43.7616 42.1011 43.3331 41.8658 42.947 41.6828C42.7547 41.5864 42.5838 41.4985 42.4134 41.4137L41.9785 41.1796L41.3779 40.8311C41.3064 40.7929 41.2387 40.7485 41.1758 40.6982C41.2516 40.7278 41.3251 40.7625 41.3958 40.802L42.0112 41.1221L42.4525 41.355C42.6159 41.4379 42.8113 41.5145 42.9903 41.6104C43.3817 41.786 43.8117 42.0114 44.3183 42.2027L45.102 42.5217C45.3732 42.6346 45.6678 42.7301 45.9672 42.8343C46.5618 43.0562 47.2168 43.228 47.903 43.4447C49.4044 43.8478 50.9337 44.1559 52.4816 44.367C54.0331 44.5624 55.5972 44.6735 57.1666 44.6998C57.891 44.7046 58.5793 44.7101 59.222 44.683C59.8648 44.6558 60.4661 44.6369 61.0156 44.6057C61.5652 44.5745 62.0587 44.5256 62.4926 44.4947C62.9266 44.4638 63.3024 44.422 63.6074 44.3909L64.3118 44.3197C64.3912 44.3043 64.4719 44.297 64.5524 44.2981Z" fill="#263238"/>
<path d="M70.0975 95.693L71.0696 104.241L84.2235 101.743C83.94 100.535 76.7112 99.3554 76.7112 99.3554L76.1027 94.7363L70.0975 95.693Z" fill="#39FF14"/>
<path d="M72.6019 99.5421C72.4814 99.6038 72.387 99.7063 72.337 99.8299C72.287 99.9535 72.2848 100.09 72.3309 100.212C72.3851 100.331 72.4847 100.423 72.6089 100.47C72.733 100.516 72.8722 100.514 72.9975 100.463C73.1239 100.397 73.2229 100.289 73.2759 100.159C73.3289 100.029 73.3323 99.8864 73.2855 99.7572C73.2144 99.64 73.0989 99.5557 72.9633 99.5221C72.8277 99.4885 72.6824 99.508 72.5581 99.5767" fill="#E0E0E0"/>
<path d="M71.1669 104.247L70.9795 103.22L83.6256 101.355C83.6256 101.355 84.2494 101.49 84.247 101.892L71.1669 104.247Z" fill="#263238"/>
<path d="M76.9438 99.2716C76.9548 99.334 76.6388 99.4222 76.3537 99.685C76.0685 99.9478 75.9477 100.239 75.8856 100.226C75.8235 100.212 75.8562 99.8348 76.2014 99.5182C76.5467 99.2016 76.9493 99.2092 76.9438 99.2716Z" fill="#E0E0E0"/>
<path d="M78.4154 99.5926C78.4259 99.6522 78.1807 99.8111 78.005 100.119C77.8293 100.426 77.8148 100.722 77.7498 100.731C77.6848 100.741 77.583 100.391 77.8093 100.011C78.0357 99.6319 78.4049 99.5329 78.4154 99.5926Z" fill="#E0E0E0"/>
<path d="M79.4649 101.091C79.4065 101.103 79.2632 100.805 79.3726 100.438C79.4821 100.07 79.7612 99.8653 79.7999 99.9131C79.8386 99.9609 79.6796 100.181 79.5936 100.492C79.5077 100.802 79.5286 101.072 79.4649 101.091Z" fill="#E0E0E0"/>
<path d="M76.5467 97.7456C76.5278 97.8062 76.2225 97.7771 75.8647 97.8784C75.5069 97.9798 75.2503 98.1309 75.2028 98.0864C75.1552 98.0419 75.3935 97.771 75.8173 97.6694C76.241 97.5679 76.5793 97.6886 76.5467 97.7456Z" fill="#E0E0E0"/>
<path d="M75.9579 96.2376C75.7522 96.337 75.5246 96.3818 75.2987 96.3676C75.0549 96.3702 74.8124 96.3446 74.5765 96.2912C74.4358 96.2591 74.2979 96.2175 74.1636 96.1667C74.0828 96.1421 74.0069 96.1049 73.9388 96.0566C73.8894 96.0198 73.8543 95.9678 73.839 95.9085C73.8237 95.8493 73.8291 95.7862 73.8542 95.729C73.8784 95.6791 73.9144 95.6353 73.9591 95.6013C74.0038 95.5673 74.0559 95.544 74.111 95.5336C74.1943 95.516 74.2795 95.5112 74.3635 95.5192C74.7576 95.5359 75.1379 95.6502 75.4689 95.8514C75.8214 96.065 75.9657 96.2811 75.9449 96.2949C75.9242 96.3086 75.7381 96.1555 75.3869 95.9866C75.1844 95.8952 74.9702 95.8294 74.7494 95.7906C74.6182 95.7661 74.4849 95.7515 74.3508 95.7469C74.2072 95.7398 74.0882 95.7601 74.0635 95.8261C74.0388 95.8921 74.0536 95.8634 74.0762 95.8976C74.1261 95.9331 74.1813 95.9613 74.24 95.9811C74.364 96.0307 74.491 96.0733 74.6203 96.1088C74.8434 96.1676 75.0719 96.2065 75.3033 96.2251C75.522 96.2134 75.7408 96.2175 75.9579 96.2376Z" fill="#E0E0E0"/>
<path d="M75.8698 96.3657C75.7119 96.2032 75.6136 95.9937 75.5893 95.7684C75.5018 95.388 75.5275 94.988 75.6637 94.6149C75.6858 94.5234 75.7317 94.4384 75.7971 94.3683C75.8624 94.2982 75.9448 94.2454 76.0361 94.2152C76.0954 94.2069 76.1554 94.2145 76.2097 94.2372C76.264 94.2598 76.3106 94.2966 76.3444 94.3437C76.3908 94.4128 76.4278 94.4878 76.4544 94.5667C76.5012 94.7079 76.5273 94.8554 76.5321 95.0049C76.5355 95.2544 76.4756 95.5027 76.3579 95.7277C76.1543 96.1138 75.8945 96.2401 75.8879 96.2218C75.8814 96.2035 76.065 96.027 76.2098 95.6689C76.2931 95.4605 76.3305 95.2384 76.3193 95.0175C76.315 94.8895 76.2926 94.7633 76.2529 94.6423C76.2088 94.5074 76.1373 94.4073 76.0844 94.4308C76.0315 94.4543 75.9244 94.57 75.8882 94.6881C75.8426 94.8133 75.8069 94.9414 75.7815 95.0714C75.7426 95.2945 75.7364 95.521 75.763 95.7439C75.7932 96.123 75.9038 96.3492 75.8698 96.3657Z" fill="#E0E0E0"/>
<path d="M22.0754 83.231L13.212 83.0339L13.1997 96.1776C14.4805 96.0641 17.0546 89.1892 17.0546 89.1892L21.8585 89.2141L22.0754 83.231Z" fill="#39FF14"/>
<path d="M17.6135 85.0689C17.5743 84.9442 17.4894 84.8393 17.3748 84.7741C17.2602 84.7089 17.1239 84.6879 16.9917 84.715C16.8615 84.7524 16.7493 84.8368 16.6784 84.9511C16.6076 85.0653 16.5833 85.2005 16.6108 85.3288C16.6523 85.4613 16.7428 85.5727 16.865 85.6413C16.9871 85.71 17.1322 85.7312 17.2724 85.7008C17.4051 85.6484 17.5133 85.5481 17.5741 85.421C17.6349 85.2939 17.6436 85.1501 17.5982 85.02" fill="#E0E0E0"/>
<path d="M13.2684 82.9316L14.4224 82.8859L13.9214 95.6354C13.9214 95.6354 13.6535 96.228 13.2253 96.171L13.2684 82.9316Z" fill="#263238"/>
<path d="M17.1714 89.3854C17.1098 89.3976 17.0798 89.0771 16.8647 88.754C16.6495 88.431 16.3747 88.2828 16.4009 88.2222C16.4271 88.1615 16.8083 88.2463 17.0573 88.6279C17.3064 89.0096 17.2213 89.4017 17.1714 89.3854Z" fill="#E0E0E0"/>
<path d="M16.6059 90.7824C16.5415 90.7952 16.4304 90.5248 16.1536 90.3165C15.8768 90.1082 15.5837 90.0525 15.5855 89.9872C15.5873 89.9219 15.9583 89.8712 16.2988 90.1384C16.6393 90.4056 16.6688 90.7797 16.6059 90.7824Z" fill="#E0E0E0"/>
<path d="M14.957 91.6201C14.9465 91.5608 15.2616 91.4663 15.6203 91.6183C15.979 91.7703 16.1208 92.0653 16.0664 92.0955C16.012 92.1256 15.8206 91.9437 15.5267 91.8209C15.2329 91.6981 14.968 91.6826 14.957 91.6201Z" fill="#E0E0E0"/>
<path d="M18.7087 89.2452C18.6461 89.2182 18.7376 88.9122 18.7148 88.5566C18.6921 88.2009 18.5683 87.9076 18.6268 87.8733C18.6852 87.8389 18.9233 88.1066 18.9454 88.5344C18.9674 88.9622 18.7637 89.2868 18.7087 89.2452Z" fill="#E0E0E0"/>
<path d="M20.2688 88.9187C20.2132 88.7064 20.215 88.482 20.2739 88.2672C20.3166 88.0299 20.3876 87.7975 20.4855 87.5748C20.545 87.4422 20.6138 87.3134 20.6912 87.1894C20.7339 87.1149 20.787 87.0464 20.8489 86.9858C20.8953 86.9427 20.9545 86.9155 21.0173 86.9083C21.0801 86.9012 21.1429 86.9146 21.1959 86.9465C21.2422 86.9774 21.2801 87.0187 21.3067 87.0671C21.3332 87.1155 21.3476 87.1697 21.3487 87.2253C21.3489 87.3089 21.3367 87.3924 21.3124 87.4732C21.2785 87.6146 21.2302 87.7528 21.1682 87.8855C21.0672 88.1109 20.9306 88.3202 20.7635 88.5054C20.6254 88.6897 20.435 88.8306 20.2171 88.9094C20.1954 88.8812 20.3986 88.7272 20.6359 88.4071C20.7751 88.223 20.889 88.0221 20.9745 87.81C21.0262 87.6864 21.0662 87.5587 21.0941 87.4285C21.1326 87.2875 21.132 87.1706 21.0693 87.1374C21.0067 87.1043 21.0364 87.1212 20.9951 87.1521C20.9494 87.1967 20.9099 87.2472 20.878 87.3021C20.8038 87.4195 20.7372 87.5414 20.6787 87.6668C20.5749 87.874 20.4912 88.0899 20.4286 88.3114C20.391 88.5171 20.3376 88.7201 20.2688 88.9187Z" fill="#E0E0E0"/>
<path d="M20.1973 88.8569C20.3844 88.7331 20.6045 88.6682 20.8272 88.6714C21.074 88.6516 21.3212 88.6737 21.5579 88.7366C21.6992 88.7752 21.8359 88.8269 21.9664 88.8912C22.0539 88.9249 22.1307 88.9798 22.1896 89.0509C22.2486 89.1221 22.2877 89.2072 22.3036 89.2983C22.3009 89.3561 22.2822 89.4126 22.2494 89.4617C22.2166 89.5107 22.171 89.5505 22.1176 89.5767C22.0394 89.6125 21.9568 89.6375 21.8722 89.6509C21.7226 89.6764 21.5707 89.6814 21.4209 89.6658C21.1714 89.6354 20.935 89.5461 20.7318 89.4055C20.3853 89.1517 20.3102 88.8958 20.3294 88.892C20.3486 88.8882 20.4897 89.086 20.8209 89.2719C21.0111 89.3836 21.2258 89.4514 21.4492 89.4701C21.5781 89.4811 21.7085 89.4738 21.8364 89.4485C21.9773 89.4207 22.0902 89.3662 22.0782 89.317C22.0662 89.2678 21.9715 89.1447 21.8595 89.0927C21.7455 89.0313 21.6256 88.9805 21.5013 88.9411C21.2818 88.8734 21.0522 88.8383 20.8201 88.8371C20.4487 88.8169 20.2071 88.8936 20.1973 88.8569Z" fill="#E0E0E0"/>
<path d="M42.0434 51.5255C41.7005 52.3515 37.265 55.8209 38.6968 63.2464L38.3799 80.1619L19.0361 82.1885L18.5875 89.9827L43.4358 89.0872C43.4358 89.0872 46.9869 89.2145 48.2975 84.9244C49.608 80.6343 52.4481 65.3877 52.5029 65.0204C52.5577 64.6531 54.3739 55.6392 54.3739 55.6392L42.0434 51.5255Z" fill="#263238"/>
<path d="M39.2068 58.0749C39.2038 58.3035 38.772 63.297 44.4149 65.8398C50.0577 68.3826 66.3453 74.5807 66.3453 74.5807L66.9993 76.0083L69.6076 98.4546L77.9543 96.9685C77.9543 96.9685 76.5227 74.6676 76.1921 72.4009C75.8614 70.1343 75.0648 67.0868 71.6603 65.1864L53.8043 55.1911C53.8043 55.1911 42.3451 51.6217 42.472 51.6585C42.599 51.6953 39.2393 54.6454 39.2068 58.0749Z" fill="#263238"/>
<path d="M41.686 51.5226L42.5343 49.8667C42.5343 49.8667 47.6802 50.8261 51.2047 52.4093C53.443 53.4168 56.6825 54.7205 56.775 56.7621L41.686 51.5226Z" fill="#263238"/>
<path d="M66.2411 74.3721C66.2095 74.3664 66.1789 74.3572 66.1497 74.3447L65.8866 74.2507L64.8749 73.8765L61.1799 72.4691C58.0642 71.2683 53.7597 69.6147 49.0398 67.7026C47.8568 67.226 46.732 66.7022 45.6216 66.2404C44.5488 65.8048 43.5167 65.2829 42.5356 64.6801C41.6336 64.1344 40.8689 63.4001 40.2939 62.5277C39.8217 61.7524 39.5039 60.8931 39.3568 59.9941C39.1247 58.6995 39.211 57.3603 39.6088 56.0864C39.7187 55.7432 39.8591 55.4092 40.0285 55.0885L40.1715 54.8428C40.1867 54.8143 40.2042 54.787 40.2237 54.7611C40.2237 54.7611 40.2126 54.7925 40.1861 54.8496L40.0607 55.1015C39.9058 55.4261 39.7757 55.7609 39.6717 56.1032C39.302 57.369 39.235 58.6929 39.4759 59.9706C39.6275 60.852 39.9455 61.6934 40.4138 62.4521C40.9833 63.3007 41.7361 64.0138 42.6212 64.5431C43.5992 65.1388 44.6269 65.6549 45.6943 66.0865C46.801 66.5458 47.929 67.069 49.1082 67.5431C53.8415 69.4558 58.1327 71.1282 61.2271 72.3592L64.9008 73.8162L65.8977 74.2193L66.1571 74.3303C66.2147 74.3546 66.2437 74.3683 66.2411 74.3721Z" fill="#5C913B"/>
<path d="M64.5275 61.1713C64.4708 61.1534 64.4165 61.1294 64.3654 61.0998L63.922 60.8641L62.3285 60.0021L57.0505 57.0811C55.3173 56.065 53.4972 55.1929 51.6088 54.4737C50.8937 54.185 50.3037 53.9654 49.8981 53.8127L49.4315 53.6333C49.3247 53.593 49.2705 53.5681 49.2726 53.5612C49.3306 53.5695 49.3875 53.5832 49.4425 53.602C49.5546 53.6349 49.716 53.6838 49.9203 53.7501C50.3359 53.8846 50.9301 54.0905 51.6581 54.3767C53.5651 55.0639 55.3993 55.921 57.1381 56.9377L62.3868 59.9L63.9662 60.8134L64.3931 61.0685C64.4845 61.1345 64.5264 61.165 64.5275 61.1713Z" fill="#5C913B"/>
<path d="M42.247 84.4381C41.5528 83.8367 40.899 83.1924 40.2893 82.5089C39.6358 81.8648 39.0233 81.182 38.4551 80.4641C39.149 81.0666 39.8038 81.7106 40.416 82.3927C41.0672 83.0382 41.6785 83.7211 42.247 84.4381Z" fill="#5C913B"/>
<path d="M43.3245 82.7213C42.5607 82.4165 41.8207 82.0602 41.1097 81.6547C40.3689 81.3008 39.6558 80.8959 38.9756 80.4429C39.7402 80.7479 40.4812 81.104 41.1935 81.5088C41.933 81.8634 42.6451 82.2686 43.3245 82.7213Z" fill="#5C913B"/>
<path d="M69.9804 72.4865C69.9886 72.5326 69.0782 72.9816 67.9839 73.5654C66.8895 74.1492 65.9965 74.6585 65.9697 74.6192C66.1331 74.4681 66.315 74.3373 66.511 74.2297C66.8611 74.0083 67.3508 73.7181 67.9054 73.4215C68.46 73.125 68.9766 72.8932 69.3514 72.7179C69.5505 72.6145 69.762 72.5366 69.9804 72.4865Z" fill="#5C913B"/>
<path d="M70.9808 75.0669C70.3278 75.2714 69.6653 75.4446 68.9958 75.5859C68.3393 75.7806 67.6739 75.944 67.002 76.0755C67.6287 75.7933 68.2846 75.5774 68.9577 75.4321C69.6176 75.2385 70.2963 75.116 70.9808 75.0669Z" fill="#5C913B"/>
<path d="M78.0047 23.8889C74.89 28.1367 65.8664 33.4882 56.0063 43.1349C56.0063 43.1349 61.4786 68.5086 88.1013 77.9477L78.0047 23.8889Z" fill="#263238" stroke="#263238" stroke-linecap="round" stroke-linejoin="round"/>
<path d="M78.0049 23.8889C82.4464 26.7255 92.7897 28.4597 105.471 33.8964C105.471 33.8964 109.526 59.5348 88.1015 77.9477L78.0049 23.8889Z" fill="#263238" stroke="#263238" stroke-linecap="round" stroke-linejoin="round"/>
<path d="M32.6357 129.008C30.773 129.008 29.8417 129.66 29.8417 130.966C29.8417 131.626 30.0617 132.102 30.5017 132.396C30.9417 132.689 31.917 133.041 33.4277 133.452C34.1757 133.657 34.8064 133.877 35.3197 134.112C35.8477 134.346 36.273 134.625 36.5957 134.948C36.9184 135.27 37.153 135.659 37.2997 136.114C37.4464 136.554 37.5197 137.082 37.5197 137.698C37.5197 139.296 37.065 140.484 36.1557 141.262C35.261 142.039 34.0364 142.428 32.4817 142.428C31.851 142.428 31.191 142.391 30.5017 142.318C29.827 142.244 29.1084 142.134 28.3457 141.988L27.5537 141.834L27.7957 139.876C29.7757 140.14 31.2864 140.272 32.3277 140.272C34.1464 140.272 35.0557 139.465 35.0557 137.852C35.0557 137.221 34.8504 136.752 34.4397 136.444C34.029 136.15 33.105 135.82 31.6677 135.454C30.949 135.278 30.3184 135.072 29.7757 134.838C29.2477 134.603 28.8077 134.317 28.4557 133.98C28.1037 133.642 27.8397 133.232 27.6637 132.748C27.4877 132.249 27.3997 131.662 27.3997 130.988C27.3997 129.609 27.8397 128.575 28.7197 127.886C29.5997 127.196 30.8317 126.852 32.4157 126.852C33.545 126.852 34.8797 126.984 36.4197 127.248L37.1897 127.38L36.9917 129.36C35.965 129.242 35.085 129.154 34.3517 129.096C33.633 129.037 33.061 129.008 32.6357 129.008ZM43.811 133.562V142.186H41.413V126.61H43.811V131.758C44.8817 131.215 45.8864 130.944 46.825 130.944C47.5584 130.944 48.167 131.046 48.651 131.252C49.135 131.442 49.5237 131.758 49.817 132.198C50.1104 132.623 50.3157 133.173 50.433 133.848C50.565 134.522 50.631 135.336 50.631 136.29V142.186H48.233V136.356C48.233 135.754 48.2037 135.248 48.145 134.838C48.101 134.427 48.0057 134.09 47.859 133.826C47.7124 133.562 47.507 133.371 47.243 133.254C46.9937 133.136 46.671 133.078 46.275 133.078C45.5564 133.078 44.8524 133.195 44.163 133.43L43.811 133.562ZM59.3408 130.944C61.1008 130.944 62.3548 131.42 63.1028 132.374C63.8654 133.327 64.2468 134.757 64.2468 136.664C64.2468 137.617 64.1588 138.453 63.9828 139.172C63.8068 139.89 63.5281 140.492 63.1468 140.976C62.7654 141.46 62.2594 141.826 61.6288 142.076C61.0128 142.31 60.2501 142.428 59.3408 142.428C58.4461 142.428 57.6834 142.31 57.0528 142.076C56.4221 141.826 55.9161 141.46 55.5348 140.976C55.1534 140.492 54.8748 139.89 54.6988 139.172C54.5228 138.453 54.4348 137.617 54.4348 136.664C54.4348 135.798 54.5154 135.014 54.6768 134.31C54.8381 133.606 55.1021 133.004 55.4688 132.506C55.8501 132.007 56.3561 131.626 56.9868 131.362C57.6174 131.083 58.4021 130.944 59.3408 130.944ZM57.3608 139.524C57.6834 140.11 58.3434 140.404 59.3408 140.404C59.8248 140.404 60.2281 140.338 60.5508 140.206C60.8734 140.059 61.1301 139.832 61.3208 139.524C61.5114 139.216 61.6434 138.827 61.7168 138.358C61.7901 137.874 61.8268 137.302 61.8268 136.642C61.8268 135.307 61.6434 134.361 61.2768 133.804C60.9248 133.246 60.2794 132.968 59.3408 132.968C58.4021 132.968 57.7494 133.246 57.3828 133.804C57.0308 134.361 56.8548 135.307 56.8548 136.642C56.8548 137.962 57.0234 138.922 57.3608 139.524ZM70.5668 146.916H68.1688V131.186H70.5448V131.868C71.5568 131.252 72.5028 130.944 73.3828 130.944C74.1161 130.944 74.7468 131.054 75.2748 131.274C75.8028 131.479 76.2355 131.816 76.5728 132.286C76.9101 132.74 77.1595 133.334 77.3208 134.068C77.4968 134.801 77.5848 135.688 77.5848 136.73C77.5848 137.771 77.4895 138.658 77.2988 139.392C77.1228 140.11 76.8368 140.697 76.4408 141.152C76.0448 141.592 75.5315 141.914 74.9008 142.12C74.2848 142.325 73.5368 142.428 72.6568 142.428C72.0555 142.428 71.3588 142.362 70.5668 142.23V146.916ZM72.9648 133.078C72.2755 133.078 71.5861 133.232 70.8968 133.54L70.5668 133.694V140.184C70.8601 140.242 71.1681 140.286 71.4908 140.316C71.8135 140.345 72.1508 140.36 72.5028 140.36C73.0015 140.36 73.4195 140.294 73.7568 140.162C74.0941 140.015 74.3655 139.795 74.5708 139.502C74.7761 139.194 74.9228 138.805 75.0108 138.336C75.0988 137.852 75.1428 137.265 75.1428 136.576C75.1428 134.244 74.4168 133.078 72.9648 133.078ZM83.9232 142.186V131.186H81.5252V142.186H83.9232ZM83.9232 129.316V126.786H81.5252V129.316H83.9232ZM94.1578 133.232H91.2538V142.186H88.8778V133.232H87.6018V131.186H88.8778V130.482C88.8778 129.69 88.9292 129.037 89.0318 128.524C89.1492 127.996 89.3252 127.57 89.5598 127.248C89.8092 126.925 90.1318 126.698 90.5278 126.566C90.9238 126.434 91.4078 126.368 91.9798 126.368L94.3558 126.588L94.3338 128.546C93.9672 128.531 93.6372 128.524 93.3438 128.524C93.0505 128.509 92.7865 128.502 92.5518 128.502C92.0678 128.502 91.7305 128.648 91.5398 128.942C91.3492 129.22 91.2538 129.741 91.2538 130.504V131.186H94.1578V133.232ZM99.3873 142.186H101.279L99.9593 146.916H102.313L106.493 131.186H104.117L101.785 140.14H101.191L98.8593 131.186H96.5053L99.3873 142.186Z" fill="white"/>
<path d="M83.0151 40.5845C83.0151 40.5845 82.8375 40.6942 82.5375 40.8884C82.433 40.7301 82.2962 40.5287 82.1233 40.3472C81.5674 39.7404 80.9281 39.5183 80.2687 39.6847C80.2204 39.6976 80.1817 39.708 80.136 39.7306C80.1115 39.7164 80.0845 39.6926 80.06 39.6785C79.697 39.4444 79.2911 39.3979 78.8591 39.524C78.0265 39.7782 77.3492 40.6119 76.9532 41.8775C76.6747 42.77 76.5736 43.822 76.664 44.5846C75.7783 45.1428 75.1591 45.5365 75.1398 45.5417C74.6886 45.8282 74.6841 45.8501 74.7382 46.3222C74.783 46.6829 76.1583 56.9156 76.1583 56.9156L87.2559 55.9091L83.1355 40.5315C83.0872 40.5445 83.0415 40.5671 83.0151 40.5845ZM80.7662 42.005C80.2525 42.3289 79.6861 42.6878 79.1267 43.0344C79.122 42.3213 79.2744 41.5765 79.5636 41.0331C79.6742 40.8275 79.8305 40.5992 80.0531 40.4257C80.4169 40.8562 80.649 41.5291 80.7662 42.005ZM79.0188 40.0817C79.212 40.0299 79.3962 40.022 79.567 40.0797C79.3663 40.2578 79.2003 40.4886 79.0474 40.7677C78.6688 41.4799 78.4942 42.4895 78.5603 43.3932C78.0898 43.6849 77.6386 43.9715 77.2137 44.2406C77.1386 42.801 77.7349 40.4671 79.0188 40.0817ZM79.4447 48.2394C79.7434 49.1222 82.1739 48.6883 82.876 50.7675C83.4274 52.4004 82.7475 53.8042 81.3413 54.2742C79.6697 54.8359 78.4539 54.085 78.4539 54.085L78.3998 52.4534C78.3998 52.4534 79.5379 52.9146 80.2784 52.6644C80.7633 52.5034 80.8284 52.0512 80.7437 51.7736C80.3507 50.6159 78.4369 51.2012 77.8034 49.3004C77.2597 47.6964 77.8919 45.7671 80.2074 44.981C81.1095 44.6772 81.6352 44.7847 81.6352 44.7847L81.6353 46.9485C81.6353 46.9485 80.9639 46.8385 80.2595 47.0686C79.2344 47.4158 79.3911 48.0778 79.4447 48.2394ZM81.2798 41.681C81.1563 41.2586 80.9475 40.6726 80.6075 40.215C81.2786 40.1698 81.7889 40.7992 82.0406 41.1976C81.8199 41.3396 81.563 41.5016 81.2798 41.681ZM87.5933 55.7772L91.7055 53.5055C91.7055 53.5055 86.3803 41.2046 86.3474 41.1203C86.3144 41.0359 86.2242 41.0084 86.154 41.0168C86.0838 41.0253 84.8422 41.3372 84.8422 41.3372C84.8422 41.3372 83.8921 40.805 83.5273 40.6025L87.5933 55.7772Z" fill="#5C913B"/>
</svg>
