<svg width="138" height="159" viewBox="0 0 138 159" fill="none" xmlns="http://www.w3.org/2000/svg">
<path d="M56.7418 1.00293C55.4496 0.877385 54.3236 1.35475 53.3782 2.50027C55.7487 5.2721 57.0874 9.29314 56.9587 13.2154L51.9587 15.439L52.3762 16.7224L65.6858 10.8032L65.2709 9.51884L60.1348 11.8029C59.0023 10.4106 58.0949 8.73651 57.5071 6.92348C56.889 5.01683 56.6383 2.99828 56.7419 1.00283L56.7418 1.00293ZM63.0138 13.3338L59.9016 14.7178L61.5531 19.9314L63.3363 25.4345L65.1551 30.9245L66.8919 36.4068L68.5532 41.4205L70.6162 36.7945L63.0138 13.3337L63.0138 13.3338ZM58.563 15.3131L55.8874 16.5046L63.4431 39.8208L64.8322 40.4403L65.7638 36.9082L63.0402 34.9715L63.9923 31.4416L61.2668 29.5041L62.2099 25.9366L59.4845 23.9992L60.425 20.433L57.713 18.5324L58.563 15.3131Z" fill="#1E1E1E"/>
<path d="M76.691 6.37106C76.8918 6.13374 77.1611 5.96123 77.4616 5.87737C77.7621 5.7935 78.0791 5.80241 78.3686 5.90288C78.7809 5.69984 79.2467 5.6361 79.6915 5.72184C80.1364 5.80759 80.5346 6.03786 80.8226 6.37589C81.1201 6.26755 81.4389 6.23575 81.7479 6.28359C82.0569 6.33142 82.3457 6.45726 82.586 6.64885C82.8263 6.84044 83.01 7.09124 83.1192 7.37684C83.2284 7.66243 83.2594 7.97308 83.2091 8.27853C83.5272 8.28479 83.8324 8.38891 84.0813 8.57618C84.3303 8.76346 84.5106 9.02443 84.5968 9.32223C84.6829 9.62004 84.6706 9.93964 84.5615 10.2359C84.4523 10.5321 84.252 10.7901 83.9886 10.9732C84.302 11.1402 84.5376 11.417 84.65 11.75C84.7623 12.083 84.7435 12.4487 84.5971 12.7764C84.4507 13.1042 84.1871 13.3708 83.8572 13.5247C83.5274 13.6786 83.1546 13.709 82.8109 13.61L76.6126 8.05949C76.4462 7.80978 76.3644 7.51339 76.3785 7.21105C76.3925 6.90871 76.5017 6.61528 76.691 6.37106Z" fill="#981CEB"/>
<path d="M83.1659 13.8449C83.3554 12.3233 82.9565 10.8045 82.0481 9.58897C81.1397 8.37345 79.788 7.54985 78.2604 7.28117L77.9432 7.22667C74.5031 6.83217 72.1533 9.48417 71.7465 12.8754L69.8932 24.1018L70.0651 25.5849L74.2278 29.7822L76.8193 27.9679L77.9152 24.7108C77.9152 24.7108 81.271 24.7801 82.0038 21.5686C82.3361 20.025 82.796 16.7828 83.1659 13.8449Z" fill="white"/>
<path d="M78.0223 24.7483C76.5097 24.4874 75.1181 23.8045 74.0125 22.7806C74.0125 22.7806 74.3517 25.4548 77.66 25.7316L78.0223 24.7483Z" fill="white"/>
<path d="M81.5027 16.7182C81.4797 16.838 81.4096 16.9455 81.3077 17.0173C81.2057 17.089 81.0801 17.1193 80.9583 17.1014C80.8984 17.096 80.8407 17.0787 80.7885 17.0508C80.7363 17.0228 80.6906 16.9847 80.6542 16.9387C80.6179 16.8927 80.5915 16.8397 80.5768 16.7829C80.562 16.7261 80.5591 16.6666 80.5683 16.608C80.5914 16.4881 80.6613 16.3805 80.763 16.3082C80.8647 16.236 80.9901 16.2049 81.1122 16.2217C81.1722 16.2274 81.2301 16.245 81.2824 16.2732C81.3347 16.3015 81.3804 16.3399 81.4168 16.3861C81.4532 16.4324 81.4795 16.4856 81.4943 16.5427C81.5091 16.5997 81.5119 16.6594 81.5027 16.7182Z" fill="#981CEB"/>
<path d="M82.0143 15.5025C81.9468 15.5512 81.6394 15.2551 81.1511 15.1521C80.6629 15.0491 80.2382 15.2485 80.1994 15.179C80.1606 15.1095 80.2595 15.0515 80.4394 14.9647C80.6837 14.8566 80.954 14.8233 81.2136 14.8692C81.4733 14.9151 81.7099 15.0381 81.8916 15.2215C82.0216 15.3758 82.0526 15.495 82.0143 15.5025Z" fill="#981CEB"/>
<path d="M77.2126 16.1127C77.1896 16.2325 77.1195 16.34 77.0176 16.4118C76.9156 16.4835 76.79 16.5138 76.6682 16.4959C76.6083 16.4904 76.5505 16.4732 76.4982 16.4454C76.4458 16.4175 76.4 16.3795 76.3634 16.3336C76.3268 16.2877 76.3001 16.2348 76.2849 16.1781C76.2698 16.1214 76.2664 16.0619 76.275 16.0031C76.2989 15.8836 76.3689 15.7765 76.4704 15.7044C76.5719 15.6323 76.6969 15.6009 76.8189 15.6168C76.879 15.6226 76.9369 15.6401 76.9893 15.6683C77.0417 15.6965 77.0876 15.7347 77.1242 15.7809C77.1609 15.827 77.1875 15.8801 77.2027 15.9371C77.2179 15.9941 77.2213 16.0538 77.2126 16.1127Z" fill="#981CEB"/>
<path d="M77.2932 14.5308C77.2257 14.5794 76.9156 14.2679 76.4301 14.1804C75.9446 14.0929 75.5171 14.2767 75.4783 14.2073C75.4395 14.1378 75.5352 14.0804 75.7189 13.996C75.9651 13.8865 76.2378 13.853 76.4995 13.9001C76.7581 13.9441 76.9933 14.0677 77.1711 14.2529C77.2887 14.3935 77.3193 14.5096 77.2932 14.5308Z" fill="#981CEB"/>
<path d="M78.1713 18.5355C78.4572 18.4974 78.7459 18.4957 79.03 18.5306C79.1605 18.541 79.2881 18.5355 79.3313 18.4551C79.3685 18.3257 79.3654 18.1896 79.3226 18.0643C79.2663 17.7482 79.2027 17.391 79.1385 17.0307C78.8979 15.5666 78.7522 14.3685 78.8143 14.3563C78.8764 14.3441 79.1209 15.5261 79.3619 16.9934C79.4261 17.3537 79.4706 17.6983 79.5226 18.0283C79.573 18.1958 79.5597 18.377 79.4851 18.5394C79.4568 18.5805 79.4195 18.6152 79.376 18.6407C79.3325 18.6662 79.2839 18.682 79.2338 18.6868C79.1575 18.6936 79.0808 18.6911 79.0057 18.6793C78.7217 18.664 78.4416 18.6157 78.1713 18.5355Z" fill="#981CEB"/>
<path d="M77.3971 13.0771C77.3269 13.2029 76.9025 13.0655 76.3732 13.0447C75.844 13.0239 75.3931 13.1093 75.3503 12.9801C75.3387 12.9152 75.4319 12.8073 75.6323 12.7071C75.8825 12.5867 76.1592 12.5324 76.4339 12.5496C76.7061 12.5591 76.9684 12.6402 77.193 12.7844C77.3578 12.912 77.432 13.0318 77.3971 13.0771Z" fill="#981CEB"/>
<path d="M80.5307 13.4935C80.6353 13.3926 80.9644 13.5495 81.3777 13.603C81.7911 13.6566 82.1581 13.6164 82.2229 13.7579C82.2505 13.82 82.1763 13.9246 82.0066 14.0127C81.7808 14.1145 81.5313 14.1498 81.2893 14.1139C81.0473 14.0781 80.8237 13.9729 80.6467 13.8114C80.5114 13.6645 80.4829 13.5415 80.5307 13.4935Z" fill="#981CEB"/>
<path d="M83.0195 12.2739C83.0195 12.2739 82.5866 10.1259 81.7038 9.489C80.6399 8.7295 79.8564 9.91224 78.7962 9.4171C77.7359 8.92195 76.7133 8.17047 75.3731 8.83291C73.9138 9.55443 74.3654 10.325 73.9882 11.7216C72.4548 17.3937 71.0508 18.8413 71.3247 16.0719C71.3541 15.7687 70.5664 15.3878 70.7066 14.1156C70.8892 12.4633 71.2391 10.4806 71.8625 9.38766C72.3649 8.47381 73.0794 7.89623 74.2447 7.33302C76.0788 6.44046 78.2761 6.79494 79.7287 7.19962C81.1813 7.60431 83.6819 9.7866 83.0195 12.2739Z" fill="#981CEB"/>
<path d="M71.6751 15.9941C71.6961 15.8753 71.6924 15.7544 71.6642 15.6385C71.636 15.5227 71.5838 15.4144 71.5109 15.3202C71.438 15.226 71.3459 15.1478 71.2401 15.0904C71.1344 15.0331 71.0171 14.9977 70.8956 14.9865C70.2759 14.9398 69.5269 15.1627 69.3058 16.4071C68.915 18.6188 71.2524 18.4789 71.265 18.4178C71.2775 18.3568 71.5212 16.9193 71.6751 15.9941Z" fill="white"/>
<path d="M70.9394 17.5138C70.9394 17.5138 70.8941 17.5228 70.823 17.5564C70.7226 17.5819 70.6171 17.5689 70.5285 17.52C70.3994 17.4087 70.3039 17.2649 70.2517 17.1034C70.1996 16.9419 70.1927 16.7685 70.2318 16.6008C70.2594 16.4105 70.33 16.2273 70.4384 16.0647C70.4717 15.9986 70.5207 15.9409 70.5811 15.8966C70.6416 15.8523 70.7117 15.8227 70.7854 15.8104C70.8331 15.8052 70.8806 15.8163 70.92 15.8418C70.9593 15.8673 70.988 15.9057 71.0011 15.9503C71.0128 16.0164 70.9968 16.0587 71.0206 16.0605C71.0444 16.0623 71.0755 16.0301 71.0723 15.9362C71.0701 15.8798 71.0476 15.8266 71.0088 15.7858C70.9825 15.7585 70.9507 15.7368 70.9153 15.722C70.8798 15.7071 70.8415 15.6995 70.8026 15.6994C70.707 15.7032 70.6133 15.7316 70.5311 15.7816C70.4488 15.8316 70.3807 15.9015 70.3337 15.9843C70.2025 16.1611 70.1178 16.3661 70.0875 16.5804C70.0415 16.7761 70.0551 16.9789 70.1265 17.1636C70.1979 17.3483 70.324 17.5067 70.489 17.619C70.5469 17.6441 70.61 17.6564 70.674 17.655C70.7379 17.6537 70.8012 17.6387 70.8595 17.6111C70.9117 17.5845 70.9405 17.5201 70.9394 17.5138Z" fill="white"/>
<path d="M72.4576 11.74C72.6844 12.002 72.976 12.2029 73.3062 12.3248C73.4724 12.3807 73.6554 12.3752 73.8215 12.3094C73.9876 12.2435 74.1253 12.1219 74.2093 11.9669C74.2693 11.8201 74.2662 11.6343 74.3916 11.5388C74.517 11.4434 74.7559 11.5024 74.9371 11.5535C75.2555 11.6345 75.5961 11.605 75.9014 11.4699C76.2067 11.3348 76.458 11.1024 76.613 10.8118C76.6892 10.9369 76.8115 11.0281 76.9557 11.0675C77.1 11.1069 77.2558 11.0916 77.3923 11.0247C77.6597 10.8822 77.9068 10.7048 78.1264 10.4975C78.2372 10.394 78.3714 10.3178 78.5174 10.2756C78.6634 10.2333 78.8168 10.2264 78.964 10.2553C79.1217 10.3046 79.2558 10.426 79.424 10.4411C79.7198 10.4664 79.9299 10.1582 80.033 9.88075C80.1361 9.60332 80.2416 9.28363 80.5196 9.171C80.7932 9.11691 81.0748 9.15814 81.3148 9.28747C81.5747 9.37125 81.9317 9.36839 82.0569 9.14123C82.0829 9.07432 82.0948 9.00335 82.0919 8.93264C82.0891 8.86194 82.0715 8.79296 82.0402 8.72992C81.9198 8.43179 81.6977 8.18562 81.4105 8.03191C81.1233 7.87821 80.7882 7.82613 80.4602 7.88425C80.4267 7.50485 80.2786 7.14696 80.0346 6.85562C79.7906 6.56427 79.4616 6.35249 79.089 6.24692C78.7165 6.14134 78.3169 6.1467 77.9407 6.26231C77.5645 6.37791 77.2284 6.59861 76.9747 6.89662C76.7839 6.64687 76.5327 6.44759 76.2425 6.31571C75.9524 6.18383 75.6318 6.12324 75.3081 6.13909C74.9843 6.15493 74.6669 6.24675 74.3829 6.40674C74.0988 6.56673 73.8565 6.79016 73.6765 7.05807C73.4207 6.94159 73.1332 6.90212 72.8498 6.94456C72.5663 6.98699 72.2994 7.10946 72.0823 7.29675C71.8651 7.48404 71.7072 7.72789 71.6282 7.99801C71.5492 8.26813 71.5525 8.55261 71.6379 8.8161C71.4109 8.88109 71.2028 9.00084 71.0331 9.16414C70.8635 9.32743 70.7378 9.52891 70.668 9.74967C70.5653 10.1974 70.9161 10.7196 71.3823 10.6792C71.2586 10.841 71.2007 11.0407 71.2203 11.2383C71.2399 11.4358 71.3355 11.6166 71.488 11.7444C71.6406 11.8721 71.8387 11.9374 72.0426 11.9271C72.2465 11.9167 72.4412 11.8316 72.5876 11.6887" fill="#981CEB"/>
<path d="M71.2717 10.6624C71.2452 10.736 71.2358 10.814 71.2442 10.8906C71.2526 10.9672 71.2785 11.0405 71.3201 11.105C71.4005 11.264 71.5406 11.3853 71.712 11.4443C71.821 11.4805 71.9374 11.4929 72.0533 11.4806C72.1691 11.4683 72.2816 11.4316 72.383 11.3731L72.2913 11.3428C72.3654 11.5664 72.4764 11.7757 72.62 11.9626C72.7155 12.0896 72.8347 12.1974 72.9716 12.2808C73.104 12.3563 73.2551 12.3965 73.4103 12.3976C73.539 12.4087 73.6694 12.392 73.7925 12.3487C73.9155 12.3055 74.0282 12.2366 74.1226 12.1471C74.2422 12.0247 74.3364 11.8809 74.3996 11.7241C74.4285 11.6705 74.4464 11.612 74.4521 11.5522C74.4521 11.5522 74.4118 11.6054 74.3529 11.7043C74.2766 11.8448 74.1783 11.9732 74.0618 12.0848C73.9598 12.1628 73.8429 12.2197 73.7187 12.252C73.5944 12.2843 73.4654 12.2912 73.3399 12.2723C73.2143 12.2534 73.0949 12.2091 72.9891 12.1422C72.8834 12.0753 72.7936 11.9873 72.7254 11.8837C72.5901 11.7068 72.4837 11.51 72.4098 11.3L72.3966 11.2251L72.331 11.2671C72.2458 11.3191 72.1506 11.3526 72.052 11.3654C71.9534 11.3782 71.8538 11.3699 71.7601 11.3411C71.6101 11.2949 71.4834 11.1974 71.4028 11.0661C71.3316 10.9423 71.287 10.805 71.2717 10.6624Z" fill="#1572B6"/>
<path d="M76.4238 6.43984C76.4238 6.43984 76.4786 6.46784 76.5683 6.52454C76.6986 6.60783 76.798 6.7296 76.8525 6.87292L76.8614 6.92295L76.9014 6.88592C77.2577 6.56391 77.6893 6.33378 78.1554 6.21725C78.4546 6.14126 78.7651 6.12845 79.0659 6.17967C79.3984 6.23763 79.7052 6.38538 79.9521 6.60647C80.1429 6.77992 80.2935 6.99157 80.3941 7.22787C80.4911 7.44592 80.5333 7.68488 80.5174 7.92524L80.5103 7.99785L80.5777 7.98452C80.8703 7.95714 81.1604 8.03134 81.3969 8.19408C81.6335 8.35683 81.8015 8.59773 81.8714 8.8745C81.9176 9.09504 81.9185 9.32366 81.874 9.54717C81.9034 9.49223 81.9244 9.43354 81.9362 9.37304C81.9762 9.20246 81.978 9.0265 81.9415 8.85741C81.8877 8.59349 81.7491 8.35566 81.5457 8.17831C81.2777 7.95335 80.928 7.8415 80.5701 7.86628L80.6348 7.93117C80.6626 7.67055 80.6255 7.40908 80.5267 7.1693C80.4056 6.87872 80.2118 6.62431 79.9627 6.42895C79.7136 6.23358 79.417 6.10338 79.0995 6.05005C78.7811 5.99877 78.4532 6.01612 78.1382 6.10091C77.6571 6.22923 77.2162 6.4807 76.8614 6.82909L76.9198 6.84019C76.8539 6.68861 76.7372 6.56465 76.5885 6.48819C76.5384 6.45987 76.4821 6.44334 76.4238 6.43984Z" fill="#1572B6"/>
<path d="M78.4672 20.292C78.2312 20.0914 77.983 19.9049 77.7239 19.7333C77.2773 19.4818 76.84 19.4517 76.844 19.3991C77.1846 19.3358 77.5329 19.4066 77.8126 19.596C78.1176 19.7329 78.3524 19.9826 78.4672 20.292Z" fill="#981CEB"/>
<path d="M103.419 31.7999C103.756 31.6357 107.306 31.5042 107.306 31.5042C107.345 31.5907 107.362 31.6858 107.354 31.7812C107.346 31.8765 107.314 31.9693 107.261 32.0513C107.208 32.1334 107.136 32.2022 107.05 32.2519C106.964 32.3015 106.868 32.3305 106.769 32.3361C105.967 32.4673 103.314 32.7792 103.314 32.7792L101.758 33.8196L101.162 33.6948L103.419 31.7999Z" fill="white"/>
<path d="M96.4744 33.8437L101.463 33.3312L102.245 33.2704C102.245 33.2704 103.942 32.2803 104.264 32.1597C104.586 32.0391 107.915 33.0392 107.915 33.0392C107.915 33.0392 108.152 33.6981 107.272 33.6888C106.593 33.6546 105.923 33.5508 105.271 33.3791C105.271 33.3791 102.736 35.1527 102.232 35.5101C101.727 35.8675 98.4413 36.4832 98.4413 36.4832L97.4103 37.4449L96.4744 33.8437Z" fill="white"/>
<path d="M99.7382 40.8705L101.523 39.235L107.996 35.4947C107.996 35.4947 108.505 34.8391 108.157 34.6861C107.809 34.5332 100.654 37.0464 100.654 37.0464L99.2632 38.1936L99.7382 40.8705Z" fill="white"/>
<path d="M79.7286 39.5985C79.7951 39.9751 75.4707 50.877 74.1793 53.6432C72.2701 57.7432 69.7982 58.6965 69.7982 58.6965L65.9259 56.6103L77.2673 39.14L80.8868 35.3807L79.7286 39.5985Z" fill="#1572B6"/>
<path d="M77.2467 44.7413C77.2467 44.7413 83.0352 46.0265 85.1076 45.9678C87.544 45.8952 100.371 42.4728 100.371 42.4728L99.2354 37.5414L80.1864 40.8355L77.8154 40.7013L77.2467 44.7413Z" fill="#1572B6"/>
<g opacity="0.3">
<path d="M78.6081 40.2612C78.2389 40.517 78.184 41.5736 77.9338 41.9369C75.2847 45.8089 73.5605 49.9094 70.7573 53.5074C69.5456 55.0424 68.1184 56.4543 66.1704 56.7603L68.4152 57.9598C70.0539 57.5917 71.0142 56.6293 72.0765 55.3405C73.1389 54.0517 73.4142 52.4578 74.1494 50.982C75.8317 47.6201 77.406 43.9202 79.0845 40.556C78.9086 40.1739 78.9778 40.0085 78.6081 40.2612Z" fill="black"/>
</g>
<path d="M66.7663 56.4136C66.7663 56.4136 69.6346 56.064 70.5903 55.2091C71.7423 54.1823 80.4905 37.4919 80.4905 37.4919L78.5941 26.174L71.1616 21.5018L70.6738 22.6084L59.7652 40.3918L52.4916 50.1647L63.8998 53.5667L66.7663 56.4136Z" fill="#E0E0E0"/>
<path d="M77.7953 37.5532C77.5283 38.0128 79.0679 43.5652 71.6331 45.8505C65.3592 47.7775 51.9119 49.7169 47.8675 50.2768C47.373 50.3535 46.8734 50.237 46.4771 49.9526C46.0808 49.6682 45.8199 49.2388 45.751 48.7578C45.7275 48.5306 45.7545 48.2997 45.8303 48.0808C45.9061 47.8619 46.0288 47.6601 46.1901 47.4894C47.4077 46.0834 48.9568 46.139 49.4288 43.6502C49.9008 41.1615 49.3457 40.3865 50.7317 39.1635C52.6919 37.4365 58.4745 38.7512 58.4745 38.7512C59.4698 36.5013 59.8669 34.602 61.3441 31.8694C62.5348 29.6551 64.1451 26.6251 65.6641 25.3662C66.5802 24.6942 67.546 24.0911 68.5529 23.5623L69.56 23.1794L70.0779 22.1505C71.276 22.9599 75.6921 25.626 76.5749 26.6785L78.12 30.8932L77.7953 37.5532Z" fill="#1572B6"/>
<g opacity="0.3">
<path d="M96.2189 38.9384C91.1703 39.5988 85.9239 40.2982 79.5416 40.3056L79.2998 41.1585C83.2265 42.5501 85.6996 42.1263 88.4267 41.7762C91.1538 41.426 93.5916 40.5416 96.197 40.0266C96.3409 39.6723 96.3486 39.2865 96.2189 38.9384Z" fill="black"/>
</g>
<g opacity="0.3">
<path d="M66.5932 32.7584L64.5631 33.3022C65.8704 35.7912 67.4001 36.4097 70.0239 37.5822C72.6478 38.7546 73.108 39.1599 75.9544 39.7553C76.228 39.8113 78.4389 40.6009 78.4564 40.3315C73.4446 38.5851 70.3449 36.3478 66.5932 32.7584Z" fill="black"/>
</g>
<path d="M64.2032 31.4166C63.8205 33.553 65.317 34.2066 65.317 34.2066C65.317 34.2066 77.8946 41.6561 82.3729 41.275C86.8511 40.8939 98.2594 38.0311 98.2594 38.0311L97.3362 32.8242L83.0521 34.1254C83.0521 34.1254 76.2639 28.7789 72.5677 26.1572" fill="#1572B6"/>
<path d="M72.5743 26.1571C72.5743 26.1571 72.6444 26.1979 72.7725 26.2852L73.3362 26.6821C73.8286 27.032 74.5536 27.5546 75.469 28.2359C77.3062 29.5972 79.9246 31.5922 83.1028 34.075L83.0542 34.0621L97.3389 32.7447L97.4124 32.7302L98.362 38.0862L98.2852 38.1014L95.7874 38.7095C92.251 39.548 88.828 40.316 85.5795 40.892L84.3668 41.0925C83.9625 41.1464 83.5663 41.2084 83.1678 41.258C82.772 41.3113 82.374 41.3425 81.9759 41.3515C81.7795 41.3452 81.5819 41.3327 81.3902 41.3158C81.1985 41.299 81.0046 41.2697 80.8159 41.2329C79.3801 40.9362 77.9809 40.5046 76.6376 39.9441C74.349 39.008 72.1133 37.9592 69.9388 36.8016C68.047 35.8048 66.4846 34.9102 65.3103 34.2253C64.8887 34.0018 64.5566 33.6487 64.3638 33.219C64.2224 32.9105 64.1462 32.5758 64.1395 32.2343C64.1297 32.0272 64.1416 31.8191 64.1751 31.6132C64.1967 31.4739 64.2113 31.4067 64.2113 31.4067C64.2113 31.4067 64.2234 31.475 64.1954 31.6156C64.1674 31.82 64.1607 32.026 64.1753 32.2305C64.1888 32.5653 64.2693 32.8924 64.4122 33.1934C64.6045 33.6093 64.9307 33.9498 65.3425 34.1643C66.5232 34.8479 68.0882 35.7195 69.9873 36.702C71.8865 37.6845 74.1172 38.7817 76.6876 39.8152C78.0261 40.3723 79.4204 40.8005 80.8509 41.0942C81.0358 41.1285 81.2275 41.1453 81.4145 41.1728C81.6015 41.2003 81.7974 41.2034 81.9869 41.2079C82.3783 41.1976 82.7695 41.1656 83.1585 41.112C83.5543 41.0661 83.95 41.001 84.3511 40.9476L85.56 40.7447C88.8079 40.1656 92.2304 39.3945 95.7668 38.556L98.2614 37.9485L98.1958 38.0451C97.8785 36.2556 97.5684 34.5065 97.2726 32.8381L97.36 32.9013L83.073 34.187L83.0474 34.192L83.0441 34.1734C79.8775 31.6819 77.2794 29.67 75.4463 28.2758L73.3352 26.6952L72.7821 26.2833C72.6301 26.2104 72.5743 26.1571 72.5743 26.1571Z" fill="#981CEB"/>
<path d="M79.4793 40.9145C79.4188 41.0965 79.3451 41.2743 79.2588 41.4467L78.6278 42.8742C78.1036 44.0917 77.4029 45.7871 76.6367 47.6615C75.8706 49.5359 75.1731 51.2307 74.6494 52.4514C74.3863 53.0636 74.1753 53.5548 74.012 53.8802C73.9438 54.0577 73.8625 54.2306 73.7688 54.3973C73.8195 54.2119 73.8847 54.0302 73.9638 53.8539L74.5461 52.3969L76.4896 47.5864C77.2557 45.7119 77.9765 44.0354 78.5266 42.8128C78.8044 42.2074 79.0386 41.7344 79.2056 41.392C79.2849 41.2268 79.3764 41.0672 79.4793 40.9145Z" fill="#981CEB"/>
<path d="M75.7076 27.6892C75.685 27.6937 75.3768 27.4008 74.8474 26.931C74.1591 26.323 73.4368 25.7528 72.6834 25.223C71.8003 24.5991 70.9635 24.0862 70.3584 23.7157C70.0202 23.5322 69.6956 23.3264 69.3867 23.0996C69.4875 23.129 69.5841 23.1698 69.6747 23.2212C69.8535 23.3092 70.1104 23.4434 70.411 23.6177C71.2261 24.0678 72.0141 24.5622 72.7714 25.0985C73.5343 25.6278 74.2528 26.215 74.9205 26.8548C75.177 27.0995 75.3736 27.3073 75.5033 27.457C75.5823 27.5244 75.651 27.6026 75.7076 27.6892Z" fill="#981CEB"/>
<g opacity="0.3">
<path d="M74.1295 44.7748C73.2395 45.1948 65.7985 46.2005 61.9135 45.8246C59.1258 45.5542 56.3717 45.0202 54.3924 44.1269C52.8653 43.4587 51.4899 42.5271 50.3322 41.3769C49.8668 41.2322 49.7994 42.499 49.7169 43.0325C49.6344 43.5661 49.5119 44.9536 48.6419 45.7549C47.5739 46.7307 45.7804 47.3416 45.8761 48.8795C45.9345 49.8422 46.9755 50.4414 47.9844 50.2858C51.1598 49.7984 59.9116 48.4512 62.2392 47.9806C65.0829 47.3938 71.2052 46.324 74.1295 44.7748Z" fill="black"/>
</g>
<path d="M75.1878 44.1834C75.1346 44.2569 75.0764 44.327 75.0137 44.3932C74.8168 44.5717 74.5956 44.7227 74.3567 44.8416C73.4592 45.2178 72.5131 45.4638 71.5494 45.5714C70.336 45.7521 68.8845 45.8581 67.2754 45.9503C65.5282 46.067 63.7785 46.0807 62.0359 45.9915C60.2888 45.9002 58.5637 45.6172 56.8933 45.148C55.5292 44.7589 54.2284 44.197 53.0239 43.4764C52.2116 42.9923 51.4602 42.4197 50.7837 41.7694C50.5475 41.5379 50.3787 41.3506 50.2592 41.2175C50.1978 41.154 50.1416 41.0861 50.0908 41.0142C50.162 41.0682 50.2271 41.1293 50.2852 41.1964C50.4036 41.3233 50.5873 41.5013 50.8325 41.7279C51.5218 42.3547 52.2781 42.9085 53.0894 43.3805C54.2931 44.0799 55.5871 44.6266 56.941 45.0077C58.6069 45.4557 60.3242 45.7218 62.0615 45.8012C63.7981 45.8895 65.5415 45.879 67.2829 45.7699C68.8937 45.687 70.341 45.5946 71.5476 45.4313C72.5028 45.3328 73.4432 45.1052 74.3413 44.7552C74.5781 44.6473 74.8003 44.5103 75.0022 44.3475C75.061 44.2896 75.123 44.2348 75.1878 44.1834Z" fill="#981CEB"/>
<path d="M76.325 42.3144C76.2983 42.3521 76.0446 42.2174 75.7621 42.0137C75.4795 41.8099 75.2717 41.6142 75.3021 41.5789C75.3326 41.5437 75.5825 41.676 75.865 41.8797C76.1475 42.0834 76.3554 42.2792 76.325 42.3144Z" fill="#981CEB"/>
<path d="M71.093 25.7963C71.0979 25.8242 70.609 25.7153 69.8271 25.7441C68.8058 25.7762 67.8026 26.0661 66.9158 26.5853C66.029 27.1046 65.289 27.8354 64.7684 28.7063C64.368 29.3745 64.2362 29.8426 64.2047 29.8328C64.214 29.7181 64.2407 29.6049 64.2839 29.4968C64.3833 29.203 64.511 28.9183 64.6651 28.6465C65.1702 27.7365 65.9192 26.9726 66.8298 26.4391C67.7403 25.9055 68.7769 25.623 69.8254 25.6227C70.1402 25.621 70.4537 25.6473 70.7619 25.7012C70.8776 25.714 70.9896 25.7462 71.093 25.7963Z" fill="#981CEB"/>
<path d="M70.8554 40.9926C70.8217 41.0224 70.7838 41.0471 70.7428 41.066C70.634 41.1332 70.5211 41.1939 70.4048 41.2476C69.9745 41.4455 69.5199 41.5855 69.0539 41.6636C68.3611 41.7756 67.6583 41.792 66.9666 41.7122C66.1235 41.611 65.297 41.4203 64.5017 41.1434C63.6564 40.8518 62.8764 40.5185 62.1686 40.219C61.4608 39.9196 60.8251 39.654 60.2777 39.4574C59.7303 39.2609 59.2792 39.1223 58.9664 39.0365C58.7999 39.002 58.6368 38.9549 58.4785 38.8955C58.5228 38.8946 58.5668 38.8989 58.6097 38.9081C58.6951 38.9234 58.8236 38.9397 58.9821 38.9758C59.4367 39.0753 59.8841 39.2011 60.3219 39.3527C61.4393 39.7061 62.8923 40.4033 64.5605 40.991C65.3414 41.2628 66.1511 41.4555 66.977 41.5661C67.654 41.6536 68.343 41.6496 69.0246 41.5542C69.6557 41.4479 70.2716 41.259 70.8554 40.9926Z" fill="#981CEB"/>
<path d="M74.5524 44.2981C74.4725 44.3187 74.3914 44.3346 74.3098 44.3457L73.6072 44.4452C73.3044 44.4887 72.9296 44.5367 72.4941 44.5774C72.0586 44.6182 71.5641 44.6801 71.0146 44.7113C70.4651 44.7425 69.8635 44.7967 69.2185 44.8114C68.5735 44.8262 67.8822 44.8405 67.1551 44.8395C65.5797 44.8233 64.0095 44.7166 62.4526 44.5197C60.8967 44.3075 59.3605 43.9932 57.8542 43.5789C57.1564 43.3708 56.5081 43.1818 55.9124 42.9537C55.6146 42.8396 55.3211 42.7503 55.0488 42.6312L54.2661 42.2992C53.7616 42.1011 53.3331 41.8658 52.947 41.6828C52.7547 41.5864 52.5838 41.4985 52.4134 41.4137L51.9785 41.1796L51.3779 40.8311C51.3064 40.7929 51.2387 40.7485 51.1758 40.6982C51.2516 40.7278 51.3251 40.7625 51.3958 40.802L52.0112 41.1221L52.4525 41.355C52.6159 41.4379 52.8113 41.5145 52.9903 41.6104C53.3817 41.786 53.8117 42.0114 54.3183 42.2027L55.102 42.5217C55.3732 42.6346 55.6678 42.7301 55.9672 42.8343C56.5618 43.0562 57.2168 43.228 57.903 43.4447C59.4044 43.8478 60.9337 44.1559 62.4816 44.367C64.0331 44.5624 65.5972 44.6735 67.1666 44.6998C67.891 44.7046 68.5793 44.7101 69.222 44.683C69.8648 44.6558 70.4661 44.6369 71.0156 44.6057C71.5652 44.5745 72.0587 44.5256 72.4926 44.4947C72.9266 44.4638 73.3024 44.422 73.6074 44.3909L74.3118 44.3197C74.3912 44.3043 74.4719 44.297 74.5524 44.2981Z" fill="#981CEB"/>
<path d="M80.0975 95.693L81.0696 104.241L94.2235 101.743C93.94 100.535 86.7112 99.3554 86.7112 99.3554L86.1027 94.7363L80.0975 95.693Z" fill="#39FF14"/>
<path d="M82.6019 99.5421C82.4814 99.6038 82.387 99.7063 82.337 99.8299C82.287 99.9535 82.2848 100.09 82.3309 100.212C82.3851 100.331 82.4847 100.423 82.6089 100.47C82.733 100.516 82.8722 100.514 82.9975 100.463C83.1239 100.397 83.2229 100.289 83.2759 100.159C83.3289 100.029 83.3323 99.8864 83.2855 99.7572C83.2144 99.64 83.0989 99.5557 82.9633 99.5221C82.8277 99.4885 82.6824 99.508 82.5581 99.5767" fill="#E0E0E0"/>
<path d="M81.1669 104.247L80.9795 103.22L93.6256 101.355C93.6256 101.355 94.2494 101.49 94.247 101.892L81.1669 104.247Z" fill="#981CEB"/>
<path d="M86.9438 99.2716C86.9548 99.334 86.6388 99.4222 86.3537 99.685C86.0685 99.9478 85.9477 100.239 85.8856 100.226C85.8235 100.212 85.8562 99.8348 86.2014 99.5182C86.5467 99.2016 86.9493 99.2092 86.9438 99.2716Z" fill="#E0E0E0"/>
<path d="M88.4154 99.5926C88.4259 99.6522 88.1807 99.8111 88.005 100.119C87.8293 100.426 87.8148 100.722 87.7498 100.731C87.6848 100.741 87.583 100.391 87.8093 100.011C88.0357 99.6319 88.4049 99.5329 88.4154 99.5926Z" fill="#E0E0E0"/>
<path d="M89.4649 101.091C89.4065 101.103 89.2632 100.805 89.3726 100.438C89.4821 100.07 89.7612 99.8653 89.7999 99.9131C89.8386 99.9609 89.6796 100.181 89.5936 100.492C89.5077 100.802 89.5286 101.072 89.4649 101.091Z" fill="#E0E0E0"/>
<path d="M86.5467 97.7456C86.5278 97.8062 86.2225 97.7771 85.8647 97.8784C85.5069 97.9798 85.2503 98.1309 85.2028 98.0864C85.1552 98.0419 85.3935 97.771 85.8173 97.6694C86.241 97.5679 86.5793 97.6886 86.5467 97.7456Z" fill="#E0E0E0"/>
<path d="M85.9579 96.2376C85.7522 96.337 85.5246 96.3818 85.2987 96.3676C85.0549 96.3702 84.8124 96.3446 84.5765 96.2912C84.4358 96.2591 84.2979 96.2175 84.1636 96.1667C84.0828 96.1421 84.0069 96.1049 83.9388 96.0566C83.8894 96.0198 83.8543 95.9678 83.839 95.9085C83.8237 95.8493 83.8291 95.7862 83.8542 95.729C83.8784 95.6791 83.9144 95.6353 83.9591 95.6013C84.0038 95.5673 84.0559 95.544 84.111 95.5336C84.1943 95.516 84.2795 95.5112 84.3635 95.5192C84.7576 95.5359 85.1379 95.6502 85.4689 95.8514C85.8214 96.065 85.9657 96.2811 85.9449 96.2949C85.9242 96.3086 85.7381 96.1555 85.3869 95.9866C85.1844 95.8952 84.9702 95.8294 84.7494 95.7906C84.6182 95.7661 84.4849 95.7515 84.3508 95.7469C84.2072 95.7398 84.0882 95.7601 84.0635 95.8261C84.0388 95.8921 84.0536 95.8634 84.0762 95.8976C84.1261 95.9331 84.1813 95.9613 84.24 95.9811C84.364 96.0307 84.491 96.0733 84.6203 96.1088C84.8434 96.1676 85.0719 96.2065 85.3033 96.2251C85.522 96.2134 85.7408 96.2175 85.9579 96.2376Z" fill="#E0E0E0"/>
<path d="M85.8698 96.3657C85.7119 96.2032 85.6136 95.9937 85.5893 95.7684C85.5018 95.388 85.5275 94.988 85.6637 94.6149C85.6858 94.5234 85.7317 94.4384 85.7971 94.3683C85.8624 94.2982 85.9448 94.2454 86.0361 94.2152C86.0954 94.2069 86.1554 94.2145 86.2097 94.2372C86.264 94.2598 86.3106 94.2966 86.3444 94.3437C86.3908 94.4128 86.4278 94.4878 86.4544 94.5667C86.5012 94.7079 86.5273 94.8554 86.5321 95.0049C86.5355 95.2544 86.4756 95.5027 86.3579 95.7277C86.1543 96.1138 85.8945 96.2401 85.8879 96.2218C85.8814 96.2035 86.065 96.027 86.2098 95.6689C86.2931 95.4605 86.3305 95.2384 86.3193 95.0175C86.315 94.8895 86.2926 94.7633 86.2529 94.6423C86.2088 94.5074 86.1373 94.4073 86.0844 94.4308C86.0315 94.4543 85.9244 94.57 85.8882 94.6881C85.8426 94.8133 85.8069 94.9414 85.7815 95.0714C85.7426 95.2945 85.7364 95.521 85.763 95.7439C85.7932 96.123 85.9038 96.3492 85.8698 96.3657Z" fill="#E0E0E0"/>
<path d="M32.0754 83.231L23.212 83.0339L23.1997 96.1776C24.4805 96.0641 27.0546 89.1892 27.0546 89.1892L31.8585 89.2141L32.0754 83.231Z" fill="#39FF14"/>
<path d="M27.6135 85.0689C27.5743 84.9442 27.4894 84.8393 27.3748 84.7741C27.2602 84.7089 27.1239 84.6879 26.9917 84.715C26.8615 84.7524 26.7493 84.8368 26.6784 84.9511C26.6076 85.0653 26.5833 85.2005 26.6108 85.3288C26.6523 85.4613 26.7428 85.5727 26.865 85.6413C26.9871 85.71 27.1322 85.7312 27.2724 85.7008C27.4051 85.6484 27.5133 85.5481 27.5741 85.421C27.6349 85.2939 27.6436 85.1501 27.5982 85.02" fill="#E0E0E0"/>
<path d="M23.2684 82.9316L24.4224 82.8859L23.9214 95.6354C23.9214 95.6354 23.6535 96.228 23.2253 96.171L23.2684 82.9316Z" fill="#981CEB"/>
<path d="M27.1714 89.3854C27.1098 89.3976 27.0798 89.0771 26.8647 88.754C26.6495 88.431 26.3747 88.2828 26.4009 88.2222C26.4271 88.1615 26.8083 88.2463 27.0573 88.6279C27.3064 89.0096 27.2213 89.4017 27.1714 89.3854Z" fill="#E0E0E0"/>
<path d="M26.6059 90.7824C26.5415 90.7952 26.4304 90.5248 26.1536 90.3165C25.8768 90.1082 25.5837 90.0525 25.5855 89.9872C25.5873 89.9219 25.9583 89.8712 26.2988 90.1384C26.6393 90.4056 26.6688 90.7797 26.6059 90.7824Z" fill="#E0E0E0"/>
<path d="M24.957 91.6201C24.9465 91.5608 25.2616 91.4663 25.6203 91.6183C25.979 91.7703 26.1208 92.0653 26.0664 92.0955C26.012 92.1256 25.8206 91.9437 25.5267 91.8209C25.2329 91.6981 24.968 91.6826 24.957 91.6201Z" fill="#E0E0E0"/>
<path d="M28.7087 89.2452C28.6461 89.2182 28.7376 88.9122 28.7148 88.5566C28.6921 88.2009 28.5683 87.9076 28.6268 87.8733C28.6852 87.8389 28.9233 88.1066 28.9454 88.5344C28.9674 88.9622 28.7637 89.2868 28.7087 89.2452Z" fill="#E0E0E0"/>
<path d="M30.2688 88.9187C30.2132 88.7064 30.215 88.482 30.2739 88.2672C30.3166 88.0299 30.3876 87.7975 30.4855 87.5748C30.545 87.4422 30.6138 87.3134 30.6912 87.1894C30.7339 87.1149 30.787 87.0464 30.8489 86.9858C30.8953 86.9427 30.9545 86.9155 31.0173 86.9083C31.0801 86.9012 31.1429 86.9146 31.1959 86.9465C31.2422 86.9774 31.2801 87.0187 31.3067 87.0671C31.3332 87.1155 31.3476 87.1697 31.3487 87.2253C31.3489 87.3089 31.3367 87.3924 31.3124 87.4732C31.2785 87.6146 31.2302 87.7528 31.1682 87.8855C31.0672 88.1109 30.9306 88.3202 30.7635 88.5054C30.6254 88.6897 30.435 88.8306 30.2171 88.9094C30.1954 88.8812 30.3986 88.7272 30.6359 88.4071C30.7751 88.223 30.889 88.0221 30.9745 87.81C31.0262 87.6864 31.0662 87.5587 31.0941 87.4285C31.1326 87.2875 31.132 87.1706 31.0693 87.1374C31.0067 87.1043 31.0364 87.1212 30.9951 87.1521C30.9494 87.1967 30.9099 87.2472 30.878 87.3021C30.8038 87.4195 30.7372 87.5414 30.6787 87.6668C30.5749 87.874 30.4912 88.0899 30.4286 88.3114C30.391 88.5171 30.3376 88.7201 30.2688 88.9187Z" fill="#E0E0E0"/>
<path d="M30.1973 88.8569C30.3844 88.7331 30.6045 88.6682 30.8272 88.6714C31.074 88.6516 31.3212 88.6737 31.5579 88.7366C31.6992 88.7752 31.8359 88.8269 31.9664 88.8912C32.0539 88.9249 32.1307 88.9798 32.1896 89.0509C32.2486 89.1221 32.2877 89.2072 32.3036 89.2983C32.3009 89.3561 32.2822 89.4126 32.2494 89.4617C32.2166 89.5107 32.171 89.5505 32.1176 89.5767C32.0394 89.6125 31.9568 89.6375 31.8722 89.6509C31.7226 89.6764 31.5707 89.6814 31.4209 89.6658C31.1714 89.6354 30.935 89.5461 30.7318 89.4055C30.3853 89.1517 30.3102 88.8958 30.3294 88.892C30.3486 88.8882 30.4897 89.086 30.8209 89.2719C31.0111 89.3836 31.2258 89.4514 31.4492 89.4701C31.5781 89.4811 31.7085 89.4738 31.8364 89.4485C31.9773 89.4207 32.0902 89.3662 32.0782 89.317C32.0662 89.2678 31.9715 89.1447 31.8595 89.0927C31.7455 89.0313 31.6256 88.9805 31.5013 88.9411C31.2818 88.8734 31.0522 88.8383 30.8201 88.8371C30.4487 88.8169 30.2071 88.8936 30.1973 88.8569Z" fill="#E0E0E0"/>
<path d="M52.0434 51.5255C51.7005 52.3515 47.265 55.8209 48.6968 63.2464L48.3799 80.1619L29.0361 82.1885L28.5875 89.9827L53.4358 89.0872C53.4358 89.0872 56.9869 89.2145 58.2975 84.9244C59.608 80.6343 62.4481 65.3877 62.5029 65.0204C62.5577 64.6531 64.3739 55.6392 64.3739 55.6392L52.0434 51.5255Z" fill="#981CEB"/>
<path d="M49.2068 58.0749C49.2038 58.3035 48.772 63.297 54.4149 65.8398C60.0577 68.3826 76.3453 74.5807 76.3453 74.5807L76.9993 76.0083L79.6076 98.4546L87.9543 96.9685C87.9543 96.9685 86.5227 74.6676 86.1921 72.4009C85.8614 70.1343 85.0648 67.0868 81.6603 65.1864L63.8043 55.1911C63.8043 55.1911 52.3451 51.6217 52.472 51.6585C52.599 51.6953 49.2393 54.6454 49.2068 58.0749Z" fill="#981CEB"/>
<path d="M51.686 51.5226L52.5343 49.8667C52.5343 49.8667 57.6802 50.8261 61.2047 52.4093C63.443 53.4168 66.6825 54.7205 66.775 56.7621L51.686 51.5226Z" fill="#981CEB"/>
<path d="M76.2411 74.3721C76.2095 74.3664 76.1789 74.3572 76.1497 74.3447L75.8866 74.2507L74.8749 73.8765L71.1799 72.4691C68.0642 71.2683 63.7597 69.6147 59.0398 67.7026C57.8568 67.226 56.732 66.7022 55.6216 66.2404C54.5488 65.8048 53.5167 65.2829 52.5356 64.6801C51.6336 64.1344 50.8689 63.4001 50.2939 62.5277C49.8217 61.7524 49.5039 60.8931 49.3568 59.9941C49.1247 58.6995 49.211 57.3603 49.6088 56.0864C49.7187 55.7432 49.8591 55.4092 50.0285 55.0885L50.1715 54.8428C50.1867 54.8143 50.2042 54.787 50.2237 54.7611C50.2237 54.7611 50.2126 54.7925 50.1861 54.8496L50.0607 55.1015C49.9058 55.4261 49.7757 55.7609 49.6717 56.1032C49.302 57.369 49.235 58.6929 49.4759 59.9706C49.6275 60.852 49.9455 61.6934 50.4138 62.4521C50.9833 63.3007 51.7361 64.0138 52.6212 64.5431C53.5992 65.1388 54.6269 65.6549 55.6943 66.0865C56.801 66.5458 57.929 67.069 59.1082 67.5431C63.8415 69.4558 68.1327 71.1282 71.2271 72.3592L74.9008 73.8162L75.8977 74.2193L76.1571 74.3303C76.2147 74.3546 76.2437 74.3683 76.2411 74.3721Z" fill="#1572B6"/>
<path d="M74.5275 61.1713C74.4708 61.1534 74.4165 61.1294 74.3654 61.0998L73.922 60.8641L72.3285 60.0021L67.0505 57.0811C65.3173 56.065 63.4972 55.1929 61.6088 54.4737C60.8937 54.185 60.3037 53.9654 59.8981 53.8127L59.4315 53.6333C59.3247 53.593 59.2705 53.5681 59.2726 53.5612C59.3306 53.5695 59.3875 53.5832 59.4425 53.602C59.5546 53.6349 59.716 53.6838 59.9203 53.7501C60.3359 53.8846 60.9301 54.0905 61.6581 54.3767C63.5651 55.0639 65.3993 55.921 67.1381 56.9377L72.3868 59.9L73.9662 60.8134L74.3931 61.0685C74.4845 61.1345 74.5264 61.165 74.5275 61.1713Z" fill="#1572B6"/>
<path d="M52.247 84.4381C51.5528 83.8367 50.899 83.1924 50.2893 82.5089C49.6358 81.8648 49.0233 81.182 48.4551 80.4641C49.149 81.0666 49.8038 81.7106 50.416 82.3927C51.0672 83.0382 51.6785 83.7211 52.247 84.4381Z" fill="#1572B6"/>
<path d="M53.3245 82.7213C52.5607 82.4165 51.8207 82.0602 51.1097 81.6547C50.3689 81.3008 49.6558 80.8959 48.9756 80.4429C49.7402 80.7479 50.4812 81.104 51.1935 81.5088C51.933 81.8634 52.6451 82.2686 53.3245 82.7213Z" fill="#1572B6"/>
<path d="M79.9804 72.4865C79.9886 72.5326 79.0782 72.9816 77.9839 73.5654C76.8895 74.1492 75.9965 74.6585 75.9697 74.6192C76.1331 74.4681 76.315 74.3373 76.511 74.2297C76.8611 74.0083 77.3508 73.7181 77.9054 73.4215C78.46 73.125 78.9766 72.8932 79.3514 72.7179C79.5505 72.6145 79.762 72.5366 79.9804 72.4865Z" fill="#1572B6"/>
<path d="M80.9808 75.0669C80.3278 75.2714 79.6653 75.4446 78.9958 75.5859C78.3393 75.7806 77.6739 75.944 77.002 76.0755C77.6287 75.7933 78.2846 75.5774 78.9577 75.4321C79.6176 75.2385 80.2963 75.116 80.9808 75.0669Z" fill="#1572B6"/>
<path d="M88.0047 23.8889C84.89 28.1367 75.8664 33.4882 66.0063 43.1349C66.0063 43.1349 71.4786 68.5086 98.1013 77.9477L88.0047 23.8889Z" fill="#263238" stroke="#263238" stroke-linecap="round" stroke-linejoin="round"/>
<path d="M88.0049 23.8889C92.4464 26.7255 102.79 28.4597 115.471 33.8964C115.471 33.8964 119.526 59.5348 98.1015 77.9477L88.0049 23.8889Z" fill="#263238" stroke="#263238" stroke-linecap="round" stroke-linejoin="round"/>
<path d="M8.04887 136.818H4.50687V142.186H2.06487V127.116H7.78487C11.1875 127.116 12.8889 128.714 12.8889 131.912C12.8889 134.053 12.0675 135.505 10.4249 136.268L12.9109 142.186H10.2269L8.04887 136.818ZM10.3809 131.934C10.3809 130.13 9.51554 129.228 7.78487 129.228H4.50687V134.706H7.82887C8.70887 134.706 9.35421 134.456 9.76487 133.958C10.1755 133.444 10.3809 132.77 10.3809 131.934ZM24.7505 140.206L25.3665 140.14L25.4105 141.922C24.5745 142.083 23.7898 142.208 23.0565 142.296C22.3232 142.384 21.6265 142.428 20.9665 142.428C19.3385 142.428 18.1652 141.98 17.4465 141.086C16.7425 140.191 16.3905 138.761 16.3905 136.796C16.3905 132.894 17.9818 130.944 21.1645 130.944C24.2445 130.944 25.7845 132.623 25.7845 135.982L25.6305 137.698H18.8105C18.8252 138.607 19.0231 139.274 19.4045 139.7C19.7858 140.125 20.4972 140.338 21.5385 140.338C22.5798 140.338 23.6505 140.294 24.7505 140.206ZM18.7885 135.85H23.4305C23.4305 134.75 23.2618 133.987 22.9245 133.562C22.5872 133.136 22.0005 132.924 21.1645 132.924C20.3285 132.924 19.7271 133.151 19.3605 133.606C18.9938 134.046 18.8031 134.794 18.7885 135.85ZM37.7704 134.574V139.59C37.785 139.912 37.8657 140.154 38.0124 140.316C38.1737 140.462 38.4157 140.558 38.7384 140.602L38.6724 142.428C37.3964 142.428 36.421 142.156 35.7464 141.614C34.6024 142.156 33.4217 142.428 32.2044 142.428C30.019 142.428 28.9264 141.262 28.9264 138.93C28.9264 137.815 29.2197 137.008 29.8064 136.51C30.393 136.011 31.3097 135.71 32.5564 135.608L35.3944 135.366V134.574C35.3944 133.987 35.2624 133.576 34.9984 133.342C34.749 133.107 34.375 132.99 33.8764 132.99C33.407 132.99 32.879 133.004 32.2924 133.034C31.7057 133.063 31.0604 133.107 30.3564 133.166L29.6524 133.21L29.5644 131.516C31.207 131.134 32.681 130.944 33.9864 130.944C35.3357 130.944 36.3037 131.23 36.8904 131.802C37.477 132.374 37.7704 133.298 37.7704 134.574ZM35.3944 137.06L32.8424 137.302C31.8304 137.39 31.3244 137.94 31.3244 138.952C31.3244 139.964 31.7717 140.47 32.6664 140.47C33.429 140.47 34.2064 140.352 34.9984 140.118L35.3944 139.986V137.06ZM46.4347 130.944C47.1681 130.944 48.0847 131.046 49.1847 131.252L49.7347 131.362L49.6467 133.254C49.0601 133.195 48.5541 133.151 48.1287 133.122C47.7034 133.092 47.3514 133.078 47.0727 133.078C46.5154 133.078 46.0534 133.136 45.6867 133.254C45.3347 133.356 45.0487 133.547 44.8287 133.826C44.6234 134.104 44.4767 134.471 44.3887 134.926C44.3007 135.38 44.2567 135.952 44.2567 136.642C44.2567 137.331 44.2934 137.91 44.3667 138.38C44.4547 138.834 44.6014 139.208 44.8067 139.502C45.0121 139.78 45.2981 139.986 45.6647 140.118C46.0461 140.235 46.5227 140.294 47.0947 140.294L49.6687 140.118L49.7347 142.032C48.2681 142.296 47.1534 142.428 46.3907 142.428C45.5547 142.428 44.8434 142.318 44.2567 142.098C43.6847 141.878 43.2154 141.54 42.8487 141.086C42.4967 140.616 42.2401 140.015 42.0787 139.282C41.9174 138.548 41.8367 137.668 41.8367 136.642C41.8367 135.615 41.9247 134.742 42.1007 134.024C42.2767 133.29 42.5481 132.696 42.9147 132.242C43.2814 131.787 43.7581 131.457 44.3447 131.252C44.9314 131.046 45.6281 130.944 46.4347 130.944ZM59.5112 131.186V133.232H56.4752V138.072C56.4752 138.512 56.4825 138.878 56.4972 139.172C56.5265 139.465 56.5852 139.692 56.6732 139.854C56.7612 140.015 56.8858 140.132 57.0472 140.206C57.2085 140.264 57.4212 140.294 57.6852 140.294L59.4892 140.228L59.5992 142.142C58.6458 142.332 57.8978 142.428 57.3552 142.428C56.7392 142.428 56.2185 142.362 55.7932 142.23C55.3825 142.098 55.0452 141.878 54.7812 141.57C54.5318 141.262 54.3558 140.844 54.2532 140.316C54.1505 139.788 54.0992 139.128 54.0992 138.336V133.232H52.6912V131.186H54.0992V127.996H56.4752V131.186H59.5112ZM72.1199 142.186V129.25H72.4279L77.1139 142.186H81.2939V127.116H78.8519V140.03H78.5219L73.9459 127.116H69.6779V142.186H72.1199ZM94.154 134.574V139.59C94.1686 139.912 94.2493 140.154 94.396 140.316C94.5573 140.462 94.7993 140.558 95.122 140.602L95.056 142.428C93.78 142.428 92.8046 142.156 92.13 141.614C90.986 142.156 89.8053 142.428 88.588 142.428C86.4026 142.428 85.31 141.262 85.31 138.93C85.31 137.815 85.6033 137.008 86.19 136.51C86.7766 136.011 87.6933 135.71 88.94 135.608L91.778 135.366V134.574C91.778 133.987 91.646 133.576 91.382 133.342C91.1326 133.107 90.7586 132.99 90.26 132.99C89.7906 132.99 89.2626 133.004 88.676 133.034C88.0893 133.063 87.444 133.107 86.74 133.166L86.036 133.21L85.948 131.516C87.5906 131.134 89.0646 130.944 90.37 130.944C91.7193 130.944 92.6873 131.23 93.274 131.802C93.8606 132.374 94.154 133.298 94.154 134.574ZM91.778 137.06L89.226 137.302C88.214 137.39 87.708 137.94 87.708 138.952C87.708 139.964 88.1553 140.47 89.05 140.47C89.8126 140.47 90.59 140.352 91.382 140.118L91.778 139.986V137.06ZM104.622 131.186V133.232H101.586V138.072C101.586 138.512 101.594 138.878 101.608 139.172C101.638 139.465 101.696 139.692 101.784 139.854C101.872 140.015 101.997 140.132 102.158 140.206C102.32 140.264 102.532 140.294 102.796 140.294L104.6 140.228L104.71 142.142C103.757 142.332 103.009 142.428 102.466 142.428C101.85 142.428 101.33 142.362 100.904 142.23C100.494 142.098 100.156 141.878 99.8923 141.57C99.643 141.262 99.467 140.844 99.3643 140.316C99.2617 139.788 99.2103 139.128 99.2103 138.336V133.232H97.8023V131.186H99.2103V127.996H101.586V131.186H104.622ZM110.527 142.186V131.186H108.129V142.186H110.527ZM110.527 129.316V126.786H108.129V129.316H110.527ZM116.78 142.186H121.048L123.908 131.186H121.466L119.266 140.14H118.562L116.45 131.186H113.942L116.78 142.186ZM135.154 140.206L135.77 140.14L135.814 141.922C134.978 142.083 134.194 142.208 133.46 142.296C132.727 142.384 132.03 142.428 131.37 142.428C129.742 142.428 128.569 141.98 127.85 141.086C127.146 140.191 126.794 138.761 126.794 136.796C126.794 132.894 128.386 130.944 131.568 130.944C134.648 130.944 136.188 132.623 136.188 135.982L136.034 137.698H129.214C129.229 138.607 129.427 139.274 129.808 139.7C130.19 140.125 130.901 140.338 131.942 140.338C132.984 140.338 134.054 140.294 135.154 140.206ZM129.192 135.85H133.834C133.834 134.75 133.666 133.987 133.328 133.562C132.991 133.136 132.404 132.924 131.568 132.924C130.732 132.924 130.131 133.151 129.764 133.606C129.398 134.046 129.207 134.794 129.192 135.85Z" fill="white"/>
<path d="M86.357 46C83.72 46.68 82 47.845 82 49.175C82 51.282 86.405 53 91.85 53C92.59 53 93.11 52.961 93.8 52.903" stroke="#981CEB" stroke-width="2" stroke-linecap="round" stroke-linejoin="round"/>
<path d="M89.8371 52.9C89.4241 52.304 89.0311 51.767 88.6571 51.1C85.9061 46.2 85.1691 41.33 87.0271 40.227C88.1771 39.53 90.0741 40.48 92.0011 42.481" stroke="#981CEB" stroke-width="2" stroke-linecap="round" stroke-linejoin="round"/>
<path d="M86.4287 52.387C85.7267 55.075 85.8687 57.103 86.9887 57.782C88.7717 58.862 92.3757 55.824 95.0317 50.978C95.3917 50.308 95.7147 49.649 95.9997 49" stroke="#981CEB" stroke-width="2" stroke-linecap="round" stroke-linejoin="round"/>
<path d="M92 55.5201C93.928 57.5201 95.817 58.4701 96.978 57.7731C98.828 56.6711 98.099 51.8011 95.345 46.9001C94.961 46.2231 94.568 45.6961 94.165 45.1001" stroke="#981CEB" stroke-width="2" stroke-linecap="round" stroke-linejoin="round"/>
<path d="M97.6602 52C100.272 51.313 102 50.15 102 48.824C102 46.714 97.5922 45 92.1552 45C91.4082 45 90.8892 45.029 90.2002 45.087" stroke="#981CEB" stroke-width="2" stroke-linecap="round" stroke-linejoin="round"/>
<path d="M88 49C88.285 48.34 88.607 47.692 88.968 47.022C91.615 42.178 95.221 39.132 97.014 40.221C98.124 40.9 98.276 42.927 97.574 45.614M92.26 49.015H92.25C92.24 49.145 92.13 49.255 91.99 49.255C91.923 49.2517 91.8599 49.2229 91.8134 49.1746C91.7669 49.1263 91.7407 49.062 91.74 48.995C91.74 48.855 91.85 48.745 91.98 48.745H91.97C92.1 48.735 92.22 48.855 92.22 48.985" stroke="#981CEB" stroke-width="2" stroke-linecap="round" stroke-linejoin="round"/>
</svg>
