<svg width="57" height="57" viewBox="0 0 57 57" fill="none" xmlns="http://www.w3.org/2000/svg">
<path d="M36.5827 3.4552L35.6967 4.70208L39.8092 7.61583L40.6952 6.36458L36.5827 3.4552ZM26.9577 4.00645L29.6045 8.9677L29.8014 9.10879L31.4202 4.69442L26.9577 4.00645ZM33.2577 5.38786L31.4639 10.2879L35.9155 13.4389L39.7764 9.98926C39.678 9.92583 39.5686 9.85911 39.4702 9.78801L33.2577 5.38786ZM7.0875 5.58145L8.27313 10.5941L11.5139 10.8785L11.8092 7.6377L7.0875 5.58145ZM52.0483 8.51817C51.4358 9.03333 50.7139 9.4577 49.9155 9.80223C50.4623 14.8827 48.3077 18.9296 44.9717 21.8061C42.0733 24.3108 38.3108 26.0061 34.5811 27.0452C34.3077 27.5702 34.0342 28.0514 33.7717 28.478C38.3108 29.0686 43.9655 26.1593 47.903 21.9155C50.0686 19.5858 51.7092 16.8952 52.3983 14.3468C52.967 12.2249 52.9123 10.254 52.0483 8.51817ZM13.6248 9.47083L13.2967 13.0233L9.75844 12.7061L34.5373 42.3468L36.7248 40.5202L38.3983 39.1202L13.6248 9.47083ZM48.0123 10.4519C47.553 10.5613 47.0827 10.6707 46.6123 10.7472C44.9827 11.0207 43.3202 11.0863 41.8545 10.78L37.3702 14.7843C37.8077 15.5499 37.917 16.5015 37.8623 17.464C37.7967 18.8421 37.392 20.3843 36.8452 21.9374C36.517 22.8452 36.1561 23.753 35.7623 24.628C38.7045 23.6218 41.5155 22.1889 43.692 20.3186C46.5577 17.8249 48.3405 14.6749 48.0123 10.4519ZM30.5123 12.0171L24.9123 19.914L28.2592 23.9061L34.6248 14.9264L30.5123 12.0171ZM19.553 27.4827L4.32031 48.964L8.42516 51.8733L22.8889 31.4749L19.553 27.4827ZM45.0373 36.1452L30.4358 48.3405L32.5358 50.8671L47.1373 38.6608L45.0373 36.1452ZM43.0358 44.6655L39.1748 47.8811L43.517 53.0874L47.378 49.8718L43.0358 44.6655Z" fill="black"/>
</svg>
