<svg width="267" height="262" viewBox="0 0 267 262" fill="none" xmlns="http://www.w3.org/2000/svg">
<g clip-path="url(#clip0_287_12)">
<path fill-rule="evenodd" clip-rule="evenodd" d="M203.79 133.749C202.563 136.385 185.191 149.019 181.362 143.54C170.681 128.43 138.461 102.956 133.686 105.871C131.259 107.394 129.975 109.385 129.247 111.339C127.872 115.554 129.31 120.126 133.037 122.661C161.452 142.319 161.721 142.908 173.798 153.027C172.743 153.746 169.159 156.456 167.889 156.793C141.44 163.796 142.49 181.017 169.765 189.532C182.859 193.658 200.446 203.638 215.159 215.589C222.062 221.135 223.618 216.321 219.026 204.111C214.083 191.003 210.628 171.117 210.785 155.889C210.897 134.508 206.346 128.01 203.79 133.749ZM113.647 93.8991C78.2183 86.6627 46.9184 123.235 67.8134 147.416C81.3604 163.088 101.677 162 111.122 145.082C116.171 135.931 118.152 112.626 113.602 113.83C109.37 114.951 106.544 123.514 106.574 135.171C106.588 151.895 76.89 145.783 70.8787 127.785C66.7372 115.565 81.4159 107.716 107.864 107.976C114.569 108.072 116.996 106.549 118.392 101.557C120.077 96.3783 119.14 94.9757 113.647 93.8991ZM100.36 66.3829C84.016 48.7003 54.5385 36.1458 49.5648 44.7264C45.141 52.391 46.4536 54.3547 59.5839 59.9021C70.2955 64.4391 89.8814 75.9807 95.6687 81.1614C104.15 88.8202 108.479 75.2382 100.36 66.3829Z" fill="white"/>
</g>
<defs>
<clipPath id="clip0_287_12">
<rect width="212.772" height="218.889" fill="white" transform="translate(212.428 0.101562) rotate(75.1682)"/>
</clipPath>
</defs>
</svg>
