<svg width="613" height="888" viewBox="0 0 613 888" fill="none" xmlns="http://www.w3.org/2000/svg">
<path d="M28.9131 491.6L203.448 48.1569C205.627 42.6207 209.916 38.1769 215.372 35.8031C220.827 33.4292 227.002 33.3197 232.538 35.4986L520.12 148.688C523.118 149.868 525.854 151.627 528.173 153.865C530.491 156.102 532.346 158.775 533.631 161.729C534.917 164.683 535.608 167.862 535.665 171.084C535.722 174.305 535.144 177.506 533.964 180.504L360.969 620.035C359.789 623.033 358.03 625.769 355.793 628.087C353.555 630.406 350.883 632.261 347.928 633.546C344.974 634.832 341.795 635.523 338.574 635.58C335.352 635.637 332.151 635.059 329.153 633.879L41.5714 520.69C36.0352 518.511 31.5914 514.222 29.2175 508.766C26.8437 503.311 26.7341 497.136 28.9131 491.6Z" fill="white" stroke="#FF3DF0" stroke-linecap="round" stroke-linejoin="round"/>
<path d="M125.403 342.138L114.654 369.448L132.594 376.509L143.343 349.199L125.403 342.138Z" fill="#FF3DF0"/>
<path d="M201.247 474.182L191.268 499.536L216.426 509.438L226.405 484.084L201.247 474.182Z" fill="#FF3DF0"/>
<path d="M156.91 327.358L146.854 352.908L172.012 362.81L182.068 337.26L156.91 327.358Z" fill="#FF3DF0"/>
<path d="M112.952 373.772L102.203 401.083L120.143 408.143L130.892 380.833L112.952 373.772Z" fill="#FF3DF0"/>
<path d="M168.66 297.504L158.604 323.054L183.762 332.956L193.818 307.407L168.66 297.504Z" fill="#FF3DF0"/>
<path d="M137.846 310.524L127.097 337.834L145.036 344.895L155.785 317.585L137.846 310.524Z" fill="#FF3DF0"/>
<path d="M165.735 477.896L146.824 525.944L171.983 535.846L190.894 487.798L165.735 477.896Z" fill="#FF3DF0"/>
<path d="M133.402 387.085L123.346 412.635L148.504 422.537L158.56 396.987L133.402 387.085Z" fill="#FF3DF0"/>
<path d="M189.574 503.84L176.307 537.548L201.465 547.45L214.732 513.742L189.574 503.84Z" fill="#FF3DF0"/>
<path d="M150.296 278.89L139.547 306.2L157.486 313.261L168.236 285.951L150.296 278.89Z" fill="#FF3DF0"/>
<path d="M109.893 446.812L99.8369 472.362L124.995 482.264L135.052 456.714L109.893 446.812Z" fill="#FF3DF0"/>
<path d="M88.0577 437.02L77.3086 464.331L95.2482 471.392L105.997 444.081L88.0577 437.02Z" fill="#FF3DF0"/>
<path d="M100.509 405.386L89.7598 432.697L107.699 439.758L118.449 412.447L100.509 405.386Z" fill="#FF3DF0"/>
<path d="M121.643 416.958L111.587 442.508L136.745 452.41L146.802 426.861L121.643 416.958Z" fill="#FF3DF0"/>
<path d="M145.152 357.231L135.096 382.781L160.254 392.683L170.31 367.134L145.152 357.231Z" fill="#FF3DF0"/>
<path d="M200.093 152.373L189.344 179.684L207.283 186.745L218.033 159.434L200.093 152.373Z" fill="#FF3DF0"/>
<path d="M212.535 120.759L201.786 148.069L219.726 155.13L230.475 127.82L212.535 120.759Z" fill="#FF3DF0"/>
<path d="M227.434 148.177L217.378 173.727L242.536 183.629L252.593 158.079L227.434 148.177Z" fill="#FF3DF0"/>
<path d="M239.191 118.304L229.135 143.854L254.293 153.756L264.349 128.206L239.191 118.304Z" fill="#FF3DF0"/>
<path d="M346.213 105.862L331.406 143.483L356.565 153.385L371.372 115.764L346.213 105.862Z" fill="#FF3DF0"/>
<path d="M224.986 89.125L214.237 116.435L232.177 123.496L242.926 96.1859L224.986 89.125Z" fill="#FF3DF0"/>
<path d="M98.143 476.666L87.8789 502.744L113.037 512.646L123.301 486.568L98.143 476.666Z" fill="#FF3DF0"/>
<path d="M162.748 247.256L151.999 274.566L169.939 281.627L180.688 254.317L162.748 247.256Z" fill="#FF3DF0"/>
<path d="M175.191 215.641L164.441 242.952L182.381 250.013L193.13 222.702L175.191 215.641Z" fill="#FF3DF0"/>
<path d="M192.175 237.758L182.119 263.308L207.278 273.21L217.334 247.66L192.175 237.758Z" fill="#FF3DF0"/>
<path d="M215.683 178.031L205.627 203.581L230.785 213.483L240.842 187.933L215.683 178.031Z" fill="#FF3DF0"/>
<path d="M180.417 267.631L170.361 293.181L195.52 303.083L205.576 277.533L180.417 267.631Z" fill="#FF3DF0"/>
<path d="M203.926 207.904L193.87 233.454L219.029 243.356L229.085 217.806L203.926 207.904Z" fill="#FF3DF0"/>
<path d="M187.642 184.007L176.893 211.318L194.832 218.379L205.581 191.068L187.642 184.007Z" fill="#FF3DF0"/>
<path d="M282.997 266.478L273.018 291.832L298.176 301.734L308.155 276.38L282.997 266.478Z" fill="#FF3DF0"/>
<path d="M305.875 121.843L295.896 147.197L321.054 157.099L331.033 131.745L305.875 121.843Z" fill="#FF3DF0"/>
<path d="M294.193 151.52L284.214 176.875L309.372 186.777L319.352 161.423L294.193 151.52Z" fill="#FF3DF0"/>
<path d="M329.705 147.806L319.726 173.16L344.884 183.062L354.863 157.708L329.705 147.806Z" fill="#FF3DF0"/>
<path d="M318.031 177.464L308.052 202.818L333.21 212.721L343.189 187.366L318.031 177.464Z" fill="#FF3DF0"/>
<path d="M294.67 236.819L284.69 262.174L309.849 272.076L319.828 246.722L294.67 236.819Z" fill="#FF3DF0"/>
<path d="M306.351 207.142L296.372 232.496L321.531 242.398L331.51 217.044L306.351 207.142Z" fill="#FF3DF0"/>
<path d="M282.512 181.198L272.533 206.552L297.692 216.454L307.671 191.1L282.512 181.198Z" fill="#FF3DF0"/>
<path d="M270.839 210.856L260.859 236.21L286.018 246.113L295.997 220.758L270.839 210.856Z" fill="#FF3DF0"/>
<path d="M235.551 62.284L226.688 84.8015L244.628 91.8624L253.491 69.3449L235.551 62.284Z" fill="#FF3DF0"/>
<path d="M75.6149 468.635L65.6357 493.989L83.5753 501.05L93.5545 475.696L75.6149 468.635Z" fill="#FF3DF0"/>
<path d="M375.684 117.439L205.769 549.144L231.925 559.439L401.84 127.734L375.684 117.439Z" fill="#FF3DF0"/>
<path d="M257.787 71.0585L240.886 114L266.044 123.902L282.946 80.9607L257.787 71.0585Z" fill="#FF3DF0"/>
<path d="M316.732 94.2585L307.569 117.539L332.728 127.441L341.891 104.161L316.732 94.2585Z" fill="#FF3DF0"/>
<path d="M300.25 122.928L298.549 127.252L273.586 117.426L263.607 142.781L288.57 152.606L286.876 156.91L261.913 147.085L251.934 172.439L276.897 182.264L275.195 186.587L250.232 176.762L240.253 202.116L265.216 211.941L263.514 216.265L238.551 206.44L228.572 231.794L253.535 241.619L251.841 245.923L226.878 236.098L216.899 261.452L241.862 271.277L240.16 275.601L215.197 265.775L205.218 291.13L230.181 300.955L228.479 305.278L203.516 295.453L193.537 320.807L218.5 330.632L216.806 334.936L191.843 325.111L181.864 350.465L206.827 360.29L205.125 364.614L180.162 354.789L170.183 380.143L195.146 389.968L193.444 394.292L168.481 384.466L158.502 409.821L183.465 419.646L181.771 423.95L156.808 414.125L146.829 439.479L171.792 449.304L170.09 453.627L145.127 443.802L135.148 469.156L160.111 478.981L158.409 483.305L133.447 473.48L117.361 514.348L142.52 524.25L312.427 92.5646L287.269 82.6624L275.288 113.103L300.25 122.928Z" fill="#FF3DF0"/>
<path d="M224.125 329.547L214.146 354.901L239.304 364.803L249.283 339.449L224.125 329.547Z" fill="#FF3DF0"/>
<path d="M259.159 240.534L249.18 265.888L274.338 275.79L284.317 250.436L259.159 240.534Z" fill="#FF3DF0"/>
<path d="M200.77 388.883L190.791 414.237L215.95 424.139L225.929 398.785L200.77 388.883Z" fill="#FF3DF0"/>
<path d="M236.281 385.169L226.302 410.523L251.46 420.425L261.439 395.071L236.281 385.169Z" fill="#FF3DF0"/>
<path d="M212.443 359.225L202.464 384.579L227.622 394.481L237.602 369.127L212.443 359.225Z" fill="#FF3DF0"/>
<path d="M189.089 418.56L179.109 443.915L204.268 453.817L214.247 428.463L189.089 418.56Z" fill="#FF3DF0"/>
<path d="M212.926 444.504L202.947 469.858L228.106 479.761L238.085 454.406L212.926 444.504Z" fill="#FF3DF0"/>
<path d="M224.6 414.846L214.621 440.2L239.78 450.102L249.759 424.748L224.6 414.846Z" fill="#FF3DF0"/>
<path d="M235.804 299.869L225.825 325.224L250.984 335.126L260.963 309.772L235.804 299.869Z" fill="#FF3DF0"/>
<path d="M271.316 296.155L261.337 321.509L286.495 331.411L296.475 306.057L271.316 296.155Z" fill="#FF3DF0"/>
<path d="M247.478 270.211L237.499 295.565L262.658 305.468L272.637 280.113L247.478 270.211Z" fill="#FF3DF0"/>
<path d="M247.962 355.491L237.982 380.845L263.141 390.747L273.12 365.393L247.962 355.491Z" fill="#FF3DF0"/>
<path d="M259.634 325.833L249.655 351.187L274.814 361.089L284.793 335.735L259.634 325.833Z" fill="#FF3DF0"/>
<path d="M177.408 448.238L167.429 473.592L192.587 483.494L202.566 458.14L177.408 448.238Z" fill="#FF3DF0"/>
<path d="M165.235 551.319C166.838 553.777 168.549 556.25 170.384 558.772" stroke="white" stroke-linecap="round" stroke-linejoin="round"/>
<path d="M253.203 389.566C260.076 400.069 267.629 410.111 275.814 419.628" stroke="white" stroke-linecap="round" stroke-linejoin="round"/>
<path d="M359.908 437.733C368.7 442.678 380.899 449.707 387.83 454.663" stroke="#FF3DF0" stroke-linecap="round" stroke-linejoin="round"/>
<path d="M349.172 431.85C349.172 431.85 350.85 432.739 353.548 434.229" stroke="#FF3DF0" stroke-linecap="round" stroke-linejoin="round"/>
<path d="M378.157 435.633C386.102 441.878 393.616 448.652 400.649 455.91" stroke="#FF3DF0" stroke-linecap="round" stroke-linejoin="round"/>
<path d="M440.002 317.176C440.002 317.176 462.094 323.958 478.178 316.979" stroke="#FF3DF0" stroke-linecap="round" stroke-linejoin="round"/>
<path d="M460.791 327.271C460.791 327.271 477.575 328.165 488.071 320.873" stroke="#FF3DF0" stroke-linecap="round" stroke-linejoin="round"/>
<g style="mix-blend-mode:multiply">
<path d="M443.18 708.267C443.18 708.267 438.674 693.813 362.781 663.942C286.888 634.071 236.419 599.613 218.242 574.466C200.066 549.32 196.055 530.919 198.741 524.094C201.428 517.269 208.255 525.611 217.066 540.303C225.877 554.995 229.257 566.435 243.299 576.474C257.34 586.513 276.787 594.139 276.75 588.498C276.714 582.858 240.872 559.783 228.958 547.24C217.045 534.697 205.069 510.848 200.14 497.684C195.211 484.52 177.378 452.769 188.003 445.727C198.629 438.685 206.085 448.331 207.67 455.695C209.256 463.059 223.377 495.606 233.812 512.051C244.247 528.496 278.481 549.853 281.742 544.396C285.004 538.94 237.442 499.999 229.595 485.687C221.748 471.375 204.945 419.808 207.426 410.674C209.907 401.541 223.897 405.905 227.656 416.381C231.416 426.857 250.234 464.594 264.297 480.239C278.36 495.884 308.945 512.435 304.192 501.653C299.439 490.872 272.343 465.528 265.85 450.606C259.357 435.684 237.964 390.193 244.912 383.931C251.86 377.67 260.835 383.458 264.958 392.935C269.082 402.412 295.731 443.26 312.491 457.71C329.251 472.161 380.678 501.427 374.451 494.464C368.224 487.5 333.285 459.155 319.344 445.814C305.403 432.473 303.075 415.82 311.609 416.923C320.142 418.025 322.512 423.47 338.127 435.243C353.743 447.015 400.476 465.494 420.935 490.283C441.395 515.072 474.489 595.27 490.87 610.685C502.044 621.579 512.303 633.373 521.544 645.948" fill="#39FF14"/>
</g>
<g style="mix-blend-mode:multiply">
<path d="M662.474 170.406C662.474 170.406 642.639 175.594 566.746 145.723C490.853 115.852 430.427 106.692 399.997 112.679C369.566 118.666 354.071 129.446 351.394 136.246C348.718 143.046 359.379 141.645 375.851 136.876C392.322 132.106 402.583 126.063 419.651 128.411C436.72 130.76 456.205 138.286 452.334 142.389C448.463 146.492 406.508 138.946 389.232 140.029C371.956 141.112 346.957 150.35 334.378 156.623C321.799 162.896 287.108 173.975 290.073 186.395C293.039 198.814 305.089 196.788 311.268 192.481C317.448 188.173 349.955 174.007 368.809 169.061C387.663 164.116 427.26 171.847 425.927 178.062C424.595 184.278 363.28 180.279 347.832 185.423C332.384 190.567 284.882 216.853 280.472 225.227C276.063 233.601 289.284 239.919 299.175 234.816C309.066 229.713 348.558 214.926 369.512 213.063C390.465 211.2 424.116 219.961 413.3 224.585C402.483 229.21 365.372 229.312 350.46 235.78C335.548 242.249 288.877 260.979 289.694 270.297C290.51 279.614 301.023 281.496 310.5 277.372C319.977 273.248 367.317 261.522 389.431 262.372C411.544 263.221 469.113 276.883 459.82 277.71C450.527 278.536 405.631 275.488 386.337 275.748C367.042 276.008 353.989 286.606 360.985 291.616C367.981 296.626 373.426 294.256 392.866 296.31C412.306 298.364 459.108 316.67 490.984 312.452C522.861 308.234 596.166 271.827 618.694 271.698C641.221 271.568 677.433 269.541 677.433 269.541" fill="#39FF14"/>
</g>
<path d="M460.415 719.335C460.415 719.335 418.505 685.989 342.513 656.079C266.521 626.17 216.151 591.751 197.975 566.604C179.798 541.457 175.788 523.057 178.474 516.232C181.16 509.406 187.987 517.748 196.799 532.44C205.61 547.132 208.99 558.573 223.006 568.602C237.023 578.631 256.519 586.276 256.483 580.636C256.447 574.995 220.604 551.92 208.691 539.377C196.777 526.834 184.801 502.986 179.872 489.822C174.944 476.658 157.11 444.906 167.736 437.864C178.361 430.822 185.817 440.468 187.403 447.832C188.988 455.196 203.11 487.744 213.545 504.188C223.979 520.633 258.213 541.99 261.475 536.534C264.736 531.077 217.174 492.137 209.302 477.815C201.431 463.492 184.677 411.945 187.158 402.812C189.639 393.678 203.63 398.042 207.389 408.518C211.148 418.994 229.967 456.731 244.03 472.376C258.092 488.021 288.677 504.572 283.924 493.791C279.171 483.009 252.076 457.665 245.583 442.743C239.09 427.821 217.696 382.33 224.645 376.069C231.593 369.807 240.567 375.595 244.691 385.073C248.815 394.55 275.438 435.387 292.223 449.848C309.009 464.308 360.411 493.564 354.159 486.591C347.907 479.618 313.018 451.292 299.052 437.941C285.086 424.59 282.758 407.938 291.317 409.05C299.875 410.162 302.22 415.598 317.81 427.36C333.401 439.123 380.159 457.612 400.643 482.411C421.128 507.209 469.973 591.722 486.369 607.171C502.765 622.621 538.68 656.977 538.68 656.977" fill="white"/>
<path d="M460.415 719.335C460.415 719.335 418.505 685.989 342.513 656.079C266.521 626.17 216.151 591.751 197.975 566.604C179.798 541.457 175.788 523.057 178.474 516.232C181.16 509.406 187.987 517.748 196.799 532.44C205.61 547.132 208.99 558.573 223.006 568.602C237.023 578.631 256.519 586.276 256.483 580.636C256.447 574.995 220.604 551.92 208.691 539.377C196.777 526.834 184.801 502.986 179.872 489.822C174.944 476.658 157.11 444.906 167.736 437.864C178.361 430.822 185.817 440.468 187.403 447.832C188.988 455.196 203.11 487.744 213.545 504.188C223.979 520.633 258.213 541.99 261.475 536.534C264.736 531.077 217.174 492.137 209.302 477.815C201.431 463.492 184.677 411.945 187.158 402.812C189.639 393.678 203.63 398.042 207.389 408.518C211.148 418.994 229.967 456.731 244.03 472.376C258.092 488.021 288.677 504.572 283.924 493.791C279.171 483.009 252.076 457.665 245.583 442.743C239.09 427.821 217.696 382.33 224.645 376.069C231.593 369.807 240.567 375.595 244.691 385.073C248.815 394.55 275.438 435.387 292.223 449.848C309.009 464.308 360.411 493.564 354.159 486.591C347.907 479.618 313.018 451.292 299.052 437.941C285.086 424.59 282.758 407.938 291.317 409.05C299.875 410.162 302.22 415.598 317.81 427.36C333.401 439.123 380.159 457.612 400.643 482.411C421.128 507.209 469.973 591.722 486.369 607.171C502.765 622.621 538.68 656.977 538.68 656.977" stroke="#FF3DF0" stroke-linecap="round" stroke-linejoin="round"/>
<path d="M675.896 171.862C675.896 171.862 622.501 167.696 546.509 137.786C470.517 107.876 410.19 98.7551 379.76 104.742C349.329 110.729 333.833 121.509 331.157 128.309C328.48 135.11 339.142 133.708 355.613 128.939C372.085 124.169 382.346 118.126 399.389 120.465C416.433 122.803 435.968 130.349 432.097 134.452C428.226 138.555 386.271 131.009 368.995 132.092C351.718 133.175 326.719 142.413 314.14 148.686C301.561 154.959 266.87 166.038 269.836 178.458C272.801 190.878 284.851 188.852 291.031 184.544C297.21 180.236 329.718 166.07 348.572 161.124C367.426 156.179 407.022 163.91 405.69 170.125C404.357 176.341 343.013 172.417 327.491 177.531C311.969 182.646 264.566 208.97 260.156 217.345C255.747 225.719 268.968 232.037 278.859 226.934C288.75 221.83 328.242 207.044 349.196 205.181C370.149 203.318 403.8 212.078 392.983 216.703C382.167 221.328 345.056 221.43 330.144 227.898C315.232 234.367 268.561 253.097 269.378 262.415C270.194 271.732 280.706 273.614 290.184 269.49C299.661 265.366 346.977 253.63 369.115 254.489C391.253 255.349 448.797 269.001 439.479 269.818C430.161 270.634 385.315 267.606 365.996 267.856C346.677 268.106 333.623 278.705 340.644 283.724C347.665 288.744 353.085 286.365 372.5 288.409C391.916 290.453 438.742 308.769 470.644 304.56C502.545 300.352 595.881 271.829 618.408 271.699C640.936 271.569 690.632 270.909 690.632 270.909" fill="white"/>
<path d="M675.896 171.862C675.896 171.862 622.501 167.696 546.509 137.786C470.517 107.876 410.19 98.7551 379.76 104.742C349.329 110.729 333.833 121.509 331.157 128.309C328.48 135.11 339.142 133.708 355.613 128.939C372.085 124.169 382.346 118.126 399.389 120.465C416.433 122.803 435.968 130.349 432.097 134.452C428.226 138.555 386.271 131.009 368.995 132.092C351.718 133.175 326.719 142.413 314.14 148.686C301.561 154.959 266.87 166.038 269.836 178.458C272.801 190.878 284.851 188.852 291.031 184.544C297.21 180.236 329.718 166.07 348.572 161.124C367.426 156.179 407.022 163.91 405.69 170.125C404.357 176.341 343.013 172.417 327.491 177.531C311.969 182.646 264.566 208.97 260.156 217.345C255.747 225.719 268.968 232.037 278.859 226.934C288.75 221.83 328.242 207.044 349.196 205.181C370.149 203.318 403.8 212.078 392.983 216.703C382.167 221.328 345.056 221.43 330.144 227.898C315.232 234.367 268.561 253.097 269.378 262.415C270.194 271.732 280.706 273.614 290.184 269.49C299.661 265.366 346.977 253.63 369.115 254.489C391.253 255.349 448.797 269.001 439.479 269.818C430.161 270.634 385.315 267.606 365.996 267.856C346.677 268.106 333.623 278.705 340.644 283.724C347.665 288.744 353.085 286.365 372.5 288.409C391.916 290.453 438.742 308.769 470.644 304.56C502.545 300.352 595.881 271.829 618.408 271.699C640.936 271.569 690.632 270.909 690.632 270.909" stroke="#FF3DF0" stroke-linecap="round" stroke-linejoin="round"/>
<path d="M641.819 861.848L700.217 713.474C691.042 707.635 680.869 700.832 670.022 693.022C627.791 662.92 584.115 602.09 584.115 602.09C541.516 616.601 505.088 639.015 477.225 667.861C431.393 715.509 421.891 759.864 421.891 759.864C467.234 768.857 511.593 785.343 552.014 808.223C597.309 834.619 625.862 851.569 641.819 861.848Z" fill="#FF3DF0" stroke="#FF3DF0" stroke-linecap="round" stroke-linejoin="round"/>
<path d="M789.727 318.023L850.403 163.863C835.647 163.767 803.622 163.5 771.597 163.233C727.97 162.912 679.276 137.007 676.979 142.843C674.682 148.679 644.503 212.512 642.077 248.571C639.651 284.63 654.46 332.555 654.46 332.555C680.127 323.601 706.759 317.701 733.806 314.977C752.501 313.741 771.277 314.764 789.727 318.023Z" fill="#FF3DF0" stroke="#FF3DF0" stroke-linecap="round" stroke-linejoin="round"/>
</svg>
