<svg width="163" height="119" viewBox="0 0 163 119" fill="none" xmlns="http://www.w3.org/2000/svg">
<path d="M0 0H163V118.5L144 97H0V0Z" fill="white"/>
<path d="M32.7793 62V42.624H39.8073C41.73 42.624 43.1673 43.0253 44.1193 43.828C45.09 44.612 45.5753 45.8533 45.5753 47.552C45.5753 48.784 45.37 49.736 44.9593 50.408C44.5486 51.08 43.9233 51.612 43.0833 52.004C45.1366 52.7133 46.1633 54.2347 46.1633 56.568C46.1633 58.5093 45.65 59.9 44.6233 60.74C43.5966 61.58 42.1126 62 40.1713 62H32.7793ZM39.9473 53.096H34.9353V60.096H40.0873C41.3753 60.096 42.346 59.8347 42.9993 59.312C43.6526 58.7707 43.9793 57.828 43.9793 56.484C43.9793 55.7747 43.8393 55.1773 43.5593 54.692C43.298 54.2067 42.9433 53.8613 42.4953 53.656C41.6553 53.2827 40.806 53.096 39.9473 53.096ZM39.7233 44.528H34.9353V51.22H39.9193C41.114 51.22 41.982 50.94 42.5233 50.38C43.0833 49.8013 43.3633 48.9333 43.3633 47.776C43.3633 46.6187 43.0646 45.788 42.4673 45.284C41.8886 44.78 40.974 44.528 39.7233 44.528ZM61.1492 60.264L61.9612 60.18L62.0172 61.832C60.9532 61.9813 59.9639 62.0933 59.0492 62.168C58.1532 62.2427 57.3225 62.28 56.5572 62.28C54.5412 62.28 53.1132 61.7013 52.2732 60.544C51.4332 59.368 51.0132 57.548 51.0132 55.084C51.0132 50.1747 52.9639 47.72 56.8652 47.72C58.7692 47.72 60.1785 48.252 61.0932 49.316C62.0265 50.3613 62.4932 52.0133 62.4932 54.272L62.3812 55.868H53.1412C53.1412 57.436 53.4212 58.5933 53.9812 59.34C54.5412 60.068 55.5212 60.432 56.9212 60.432C58.3212 60.432 59.7305 60.376 61.1492 60.264ZM53.1132 54.188H60.3932C60.3932 52.4707 60.1132 51.2573 59.5532 50.548C59.0119 49.8387 58.1252 49.484 56.8932 49.484C55.6425 49.484 54.6999 49.8573 54.0652 50.604C53.4492 51.3507 53.1319 52.5453 53.1132 54.188ZM69.8259 50.436V62H67.7259V41.896H69.8259V48.784C71.3379 48.0747 72.7753 47.72 74.1379 47.72C75.0713 47.72 75.8366 47.8413 76.4339 48.084C77.0499 48.308 77.5353 48.6907 77.8899 49.232C78.2633 49.7733 78.5153 50.4827 78.6459 51.36C78.7953 52.2373 78.8699 53.32 78.8699 54.608V62H76.7699V54.664C76.7699 53.6933 76.7233 52.8813 76.6299 52.228C76.5553 51.5747 76.4059 51.052 76.1819 50.66C75.9766 50.268 75.6779 49.9973 75.2859 49.848C74.8939 49.68 74.3899 49.596 73.7739 49.596C72.6166 49.596 71.4779 49.8107 70.3579 50.24L69.8259 50.436ZM84.109 54.972C84.109 53.684 84.2117 52.5827 84.417 51.668C84.641 50.7533 84.9957 50.0067 85.481 49.428C85.9663 48.8307 86.5917 48.4013 87.357 48.14C88.1223 47.86 89.0463 47.72 90.129 47.72C91.2117 47.72 92.1263 47.86 92.873 48.14C93.6383 48.4013 94.2543 48.8307 94.721 49.428C95.2063 50.0067 95.5517 50.7533 95.757 51.668C95.981 52.5827 96.093 53.684 96.093 54.972C96.093 56.26 95.9903 57.3613 95.785 58.276C95.5983 59.1907 95.2717 59.9467 94.805 60.544C94.3383 61.1413 93.7223 61.58 92.957 61.86C92.1917 62.14 91.2397 62.28 90.101 62.28C88.9623 62.28 88.0103 62.14 87.245 61.86C86.4797 61.58 85.8637 61.1413 85.397 60.544C84.9303 59.9467 84.5943 59.1907 84.389 58.276C84.2023 57.3613 84.109 56.26 84.109 54.972ZM86.265 54.916C86.265 55.9427 86.3117 56.8107 86.405 57.52C86.517 58.2107 86.713 58.78 86.993 59.228C87.2917 59.6573 87.693 59.9747 88.197 60.18C88.701 60.3667 89.345 60.46 90.129 60.46C90.913 60.46 91.5477 60.3667 92.033 60.18C92.537 59.9933 92.929 59.6853 93.209 59.256C93.489 58.808 93.6757 58.2387 93.769 57.548C93.881 56.8387 93.937 55.9707 93.937 54.944C93.937 53.9173 93.8717 53.0587 93.741 52.368C93.629 51.6773 93.4237 51.1267 93.125 50.716C92.8263 50.2867 92.4343 49.988 91.949 49.82C91.4637 49.6333 90.857 49.54 90.129 49.54C89.401 49.54 88.785 49.6333 88.281 49.82C87.7957 49.988 87.4037 50.2867 87.105 50.716C86.8063 51.1267 86.5917 51.6773 86.461 52.368C86.3303 53.04 86.265 53.8893 86.265 54.916ZM103.746 62V41.896H101.646V62H103.746ZM118.598 41.896H120.67V62H118.598V61.048C117.161 61.8693 115.742 62.28 114.342 62.28C113.278 62.28 112.42 62.0933 111.766 61.72C111.113 61.3467 110.6 60.8427 110.226 60.208C109.872 59.5733 109.629 58.8453 109.498 58.024C109.368 57.184 109.302 56.3067 109.302 55.392C109.302 52.6667 109.75 50.7067 110.646 49.512C111.561 48.3173 113.064 47.72 115.154 47.72C116.293 47.72 117.441 47.8413 118.598 48.084V41.896ZM114.706 60.404C114.968 60.404 115.248 60.3853 115.546 60.348C115.864 60.292 116.172 60.2267 116.47 60.152C116.788 60.0587 117.077 59.9653 117.338 59.872C117.618 59.7787 117.852 59.6947 118.038 59.62L118.598 59.368V49.876C117.404 49.652 116.293 49.54 115.266 49.54C113.848 49.54 112.858 49.988 112.298 50.884C111.738 51.78 111.458 53.1893 111.458 55.112C111.458 55.7093 111.486 56.3253 111.542 56.96C111.598 57.576 111.729 58.1453 111.934 58.668C112.158 59.172 112.485 59.592 112.914 59.928C113.362 60.2453 113.96 60.404 114.706 60.404Z" fill="#263238"/>
<path d="M129.303 62V58.864H127.007V62H129.303ZM129.107 55.616L129.247 42.624H127.035L127.175 55.616H129.107Z" fill="black"/>
</svg>
