<svg width="352" height="39" viewBox="0 0 352 39" fill="none" xmlns="http://www.w3.org/2000/svg">
<path d="M0.589844 38V0.631994H14.1438C17.8518 0.631994 20.6238 1.40599 22.4598 2.95399C24.3318 4.46599 25.2678 6.85999 25.2678 10.136C25.2678 12.512 24.8718 14.348 24.0798 15.644C23.2878 16.94 22.0818 17.966 20.4618 18.722C24.4218 20.09 26.4018 23.024 26.4018 27.524C26.4018 31.268 25.4118 33.95 23.4318 35.57C21.4518 37.19 18.5898 38 14.8458 38H0.589844ZM14.4138 20.828H4.74784V34.328H14.6838C17.1678 34.328 19.0398 33.824 20.2998 32.816C21.5598 31.772 22.1898 29.954 22.1898 27.362C22.1898 25.994 21.9198 24.842 21.3798 23.906C20.8758 22.97 20.1918 22.304 19.3278 21.908C17.7078 21.188 16.0698 20.828 14.4138 20.828ZM13.9818 4.304H4.74784V17.21H14.3598C16.6638 17.21 18.3378 16.67 19.3818 15.59C20.4618 14.474 21.0018 12.8 21.0018 10.568C21.0018 8.33599 20.4258 6.73399 19.2738 5.762C18.1578 4.79 16.3938 4.304 13.9818 4.304Z" fill="white"/>
<path d="M48.6072 23.69H38.0232V38H33.8652V0.631994H47.6892C51.6852 0.631994 54.6732 1.54999 56.6532 3.38599C58.6332 5.18599 59.6232 8.04799 59.6232 11.972C59.6232 17.768 57.3372 21.386 52.7652 22.826L59.9472 38H55.3572L48.6072 23.69ZM38.0232 20.018H47.7432C52.8192 20.018 55.3572 17.39 55.3572 12.134C55.3572 6.914 52.8012 4.304 47.6892 4.304H38.0232V20.018Z" fill="white"/>
<path d="M67.9506 38L70.6506 28.388H86.6346L89.3346 38H93.4386L83.1786 0.631994H74.1066L63.8466 38H67.9506ZM80.0466 4.19599L85.7166 24.662H71.5686L77.2386 4.19599H80.0466Z" fill="white"/>
<path d="M103.467 38V0.631994H99.3086V38H103.467Z" fill="white"/>
<path d="M116.756 38V4.304H117.782L132.308 38H139.922V0.631994H135.818V34.328H134.684L120.374 0.631994H112.598V38H116.756Z" fill="white"/>
<path d="M161.132 22.286L173.012 0.631994H168.314L159.026 18.128L149.738 0.631994H145.04L156.974 22.286V38H161.132V22.286Z" fill="white"/>
<path d="M190.012 38V0.631994H203.566C207.274 0.631994 210.046 1.40599 211.882 2.95399C213.754 4.46599 214.69 6.85999 214.69 10.136C214.69 12.512 214.294 14.348 213.502 15.644C212.71 16.94 211.504 17.966 209.884 18.722C213.844 20.09 215.824 23.024 215.824 27.524C215.824 31.268 214.834 33.95 212.854 35.57C210.874 37.19 208.012 38 204.268 38H190.012ZM203.836 20.828H194.17V34.328H204.106C206.59 34.328 208.462 33.824 209.722 32.816C210.982 31.772 211.612 29.954 211.612 27.362C211.612 25.994 211.342 24.842 210.802 23.906C210.298 22.97 209.614 22.304 208.75 21.908C207.13 21.188 205.492 20.828 203.836 20.828ZM203.404 4.304H194.17V17.21H203.782C206.086 17.21 207.76 16.67 208.804 15.59C209.884 14.474 210.424 12.8 210.424 10.568C210.424 8.33599 209.848 6.73399 208.696 5.762C207.58 4.79 205.816 4.304 203.404 4.304Z" fill="white"/>
<path d="M227.175 0.631994V26.768C227.175 32.168 230.091 34.868 235.923 34.868C238.983 34.868 241.269 34.238 242.781 32.978C244.293 31.682 245.049 29.612 245.049 26.768V0.631994H249.153V26.66C249.153 30.872 248.055 33.914 245.859 35.786C243.663 37.622 240.387 38.54 236.031 38.54C231.675 38.54 228.417 37.622 226.257 35.786C224.097 33.914 223.017 30.872 223.017 26.66V0.631994H227.175Z" fill="white"/>
<path d="M262.197 38V4.304H263.223L277.749 38H285.363V0.631994H281.259V34.328H280.125L265.815 0.631994H258.039V38H262.197Z" fill="white"/>
<path d="M316.941 33.842L317.103 37.406C313.395 38.162 310.065 38.54 307.113 38.54C304.161 38.54 301.767 38.144 299.931 37.352C298.131 36.524 296.745 35.246 295.773 33.518C294.765 31.826 294.063 29.882 293.667 27.686C293.307 25.454 293.127 22.682 293.127 19.37C293.127 16.022 293.307 13.232 293.667 11C294.063 8.76799 294.765 6.78799 295.773 5.06C296.745 3.33199 298.113 2.07199 299.877 1.28C301.677 0.487995 304.035 0.0919952 306.951 0.0919952C308.391 0.0919952 309.957 0.199994 311.649 0.415994C313.341 0.595994 315.159 0.883995 317.103 1.28L316.941 4.79C313.341 4.14199 310.101 3.818 307.221 3.818C305.241 3.818 303.621 4.10599 302.361 4.68199C301.101 5.22199 300.093 6.12199 299.337 7.38199C298.617 8.60599 298.113 10.208 297.825 12.188C297.573 14.168 297.447 16.58 297.447 19.424C297.447 22.268 297.555 24.554 297.771 26.282C298.023 28.01 298.491 29.558 299.175 30.926C299.859 32.33 300.849 33.338 302.145 33.95C303.477 34.526 305.421 34.814 307.977 34.814C310.497 34.814 313.485 34.49 316.941 33.842Z" fill="white"/>
<path d="M351.174 38V0.631994H347.07V17.372H328.062V0.631994H323.904V38H328.062V21.098H347.07V38H351.174Z" fill="white"/>
</svg>
