<svg width="245" height="30" viewBox="0 0 245 30" fill="none" xmlns="http://www.w3.org/2000/svg">
<path fill-rule="evenodd" clip-rule="evenodd" d="M186.928 0.115063C184.804 0.197812 182.946 0.295201 182.799 0.331696C182.653 0.367978 183.552 0.457729 184.797 0.53093C187.055 0.663753 187.052 0.664178 183.599 0.729528C181.694 0.765599 178.877 0.870201 177.339 0.961862C175.403 1.07729 176.388 1.09829 180.535 1.02997C190.013 0.874021 199.744 0.736106 200.996 0.739713C201.694 0.741835 202.079 0.659934 201.979 0.53093C201.871 0.39153 204.202 0.318753 208.772 0.318753C213.711 0.318753 215.677 0.385588 215.551 0.549177C215.438 0.694306 215.605 0.761355 216.001 0.729953C216.347 0.70237 216.81 0.73653 217.03 0.805912C217.25 0.875082 219.228 1.03379 221.425 1.15855C223.623 1.28331 225.871 1.4696 226.42 1.57251C226.97 1.6752 227.419 1.6803 227.419 1.58375C227.419 1.34272 226.714 1.20247 222.624 0.629805C222.111 0.558089 221.152 0.400653 220.493 0.280137C219.073 0.0204314 192.697 -0.109209 186.928 0.115063ZM105.814 0.338485C104.562 0.456668 104.598 0.466216 106.413 0.497618C108.326 0.530505 108.903 0.440755 107.745 0.290533C107.416 0.247673 106.547 0.269315 105.814 0.338485ZM102.884 0.442876C102.591 0.479159 101.302 0.570183 100.02 0.645081C98.7383 0.71998 97.6893 0.85153 97.6893 0.937674C97.6893 1.02361 98.0788 1.05607 98.5551 1.0096C99.2189 0.944888 99.3276 0.977352 99.0212 1.14922C98.7175 1.31938 98.9093 1.36797 99.8204 1.35121C100.914 1.33126 100.949 1.31514 100.22 1.16746L99.4208 1.00557L100.398 0.980322C100.935 0.96653 101.414 1.04037 101.463 1.14455C101.514 1.25212 102.528 1.26528 103.816 1.17489C106.258 1.00387 106.216 0.922186 103.683 0.91773C102.804 0.916033 102.384 0.86808 102.751 0.811004C103.38 0.712978 104.232 0.283532 103.67 0.347609C103.531 0.363522 103.177 0.406382 102.884 0.442876ZM194.731 0.475552C193.822 0.516926 192.263 0.517139 191.268 0.476189C190.273 0.43545 191.017 0.401502 192.922 0.40129C194.827 0.400865 195.641 0.434389 194.731 0.475552ZM198.45 0.459214C198.267 0.518199 197.967 0.518199 197.784 0.459214C197.601 0.400441 197.75 0.352277 198.117 0.352277C198.483 0.352277 198.633 0.400441 198.45 0.459214ZM218.695 0.671391C218.512 0.730377 218.212 0.730377 218.029 0.671391C217.846 0.612618 217.996 0.564454 218.362 0.564454C218.728 0.564454 218.878 0.612618 218.695 0.671391ZM220.565 0.670118C220.384 0.728255 220.025 0.731862 219.765 0.677969C219.506 0.624076 219.654 0.576548 220.093 0.572305C220.533 0.568061 220.745 0.611982 220.565 0.670118ZM106.547 0.889298C106.803 0.942766 107.223 0.942766 107.479 0.889298C107.735 0.836041 107.526 0.792332 107.013 0.792332C106.5 0.792332 106.29 0.836041 106.547 0.889298ZM109.077 0.883569C109.261 0.942554 109.56 0.942554 109.743 0.883569C109.927 0.824796 109.777 0.776632 109.41 0.776632C109.044 0.776632 108.894 0.824796 109.077 0.883569ZM58.0794 1.23409C58.0027 1.33296 56.6044 1.39428 54.972 1.3703C52.0101 1.32723 46.8222 1.63956 45.949 1.91369C45.6568 2.00535 45.5084 2.25402 45.5436 2.59287C45.6035 3.16957 45.6448 3.19015 47.1427 3.38832C48.3686 3.55064 48.4674 3.89394 47.2759 3.85087C46.4826 3.82223 46.4165 3.86848 46.4868 4.40317C46.554 4.91409 46.4711 4.98708 45.8209 4.98984C44.8893 4.99408 44.5611 5.18271 44.4876 5.75644C44.4399 6.12966 44.6128 6.23108 45.4866 6.34226C46.9008 6.5224 46.8244 6.81584 45.3281 6.95015C44.1461 7.05623 42.6765 7.8205 42.9578 8.1829C43.0276 8.27307 42.725 8.40993 42.2851 8.48695C41.5939 8.60789 41.5369 8.66772 41.8643 8.92849C42.0726 9.09441 42.4016 9.23169 42.5952 9.23339C42.8605 9.23593 42.8512 9.28495 42.5574 9.43305C42.2844 9.57054 42.5958 9.64883 43.5987 9.69487C45.0124 9.7598 45.0297 9.76871 45.0537 10.4502C45.0673 10.8296 44.9882 11.1398 44.8784 11.1398C44.7687 11.1398 44.6786 11.3308 44.6786 11.5642C44.6786 11.8786 44.489 11.9959 43.9461 12.0174C43.3075 12.0426 43.2913 12.0581 43.8198 12.1389C44.592 12.2569 45.9967 12.8343 45.5159 12.8359C45.3126 12.8366 45.2183 12.9696 45.3004 13.14C45.5172 13.59 44.9898 13.8328 43.2367 14.0899C41.6682 14.3199 40.9924 14.5346 41.8371 14.5346C42.0814 14.5346 42.2812 14.6779 42.2812 14.8529C42.2812 15.1005 41.9261 15.1712 40.6828 15.1712C38.9593 15.1712 38.4234 15.5764 40.0835 15.6244C40.7018 15.6422 40.8541 15.6883 40.4831 15.7453C40.1533 15.7958 39.8837 15.9195 39.8837 16.0203C39.8837 16.1211 39.6421 16.2645 39.3469 16.3392C39.0518 16.4137 38.8765 16.5599 38.9569 16.6636C39.0376 16.7676 38.7097 16.9431 38.2284 17.0536C37.4721 17.2274 37.6247 17.2582 39.3509 17.2802C41.4023 17.3065 41.4785 17.53 39.5313 17.8088C38.6679 17.9322 38.5627 18.0027 38.8416 18.2702C39.1064 18.5244 39.2153 18.5323 39.3991 18.3108C39.5765 18.0967 39.7164 18.1285 40.0275 18.4536C40.3943 18.8365 40.377 18.8889 39.8227 19.0799C39.3048 19.2581 39.429 19.3048 40.6828 19.4045C41.9977 19.5089 42.0899 19.5473 41.5819 19.7792C41.2708 19.9214 40.4916 20.1013 39.8504 20.179C37.8576 20.4204 37.7427 20.6734 39.6173 20.6927L41.3488 20.7103L39.0845 21.3886L36.8203 22.0669L38.1522 22.173L39.4841 22.2791L37.9146 22.5662C36.8179 22.7669 36.4569 22.9097 36.7158 23.0404C36.9199 23.1433 37.3264 23.2356 37.6194 23.2456C38.1485 23.2636 38.1485 23.2649 37.6242 23.4281C37.2411 23.5471 37.5704 23.6426 38.8229 23.7756C40.3874 23.9415 40.4495 23.9659 39.4841 24.0349C38.8981 24.0767 38.3048 24.2002 38.1655 24.309C38.0086 24.4317 39.1221 24.5133 41.0957 24.5237C43.5542 24.5367 44.1123 24.5891 43.5465 24.7535C43.1219 24.8772 42.8139 25.1255 42.8139 25.3444C42.8139 25.6508 42.3483 25.7977 40.3533 26.1202C39.0001 26.3389 38.1186 26.5526 38.3943 26.5948C38.7955 26.6563 38.8213 26.7092 38.5238 26.8592C38.2505 26.9971 38.3283 27.0482 38.8181 27.0531C39.1844 27.0567 39.6605 27.1486 39.8762 27.2572C40.312 27.4766 40.1988 27.5303 38.7809 27.7762C38.3941 27.8433 38.0126 28.0334 37.9329 28.1989C37.8115 28.4505 38.2718 28.4836 40.7673 28.4017C42.969 28.3296 43.6421 28.3648 43.3467 28.5367C43.0097 28.7329 43.0308 28.7641 43.4799 28.7357C44.3701 28.6788 44.5651 28.7467 44.1459 28.9674C43.8741 29.1104 44.2575 29.1291 45.3446 29.0259C47.3345 28.8369 47.2327 28.8348 51.7378 29.1624C54.4987 29.3631 58.5458 29.3958 67.3214 29.2886C74.6057 29.1995 81.4347 29.2301 85.036 29.3675C96.9048 29.8214 98.0854 29.8532 97.9157 29.7136C97.8206 29.6353 96.502 29.5195 94.9855 29.4562C93.4692 29.3932 92.1144 29.2561 91.9753 29.1522C91.6285 28.8927 114.566 28.9128 122.656 29.1791C127.297 29.3319 162.347 29.6309 174.541 29.6217C177.262 29.6196 189.128 29.3514 189.672 29.2797C190.122 29.2203 190.354 29.2642 190.256 29.3902C190.167 29.5052 190.213 29.5992 190.36 29.5992C190.506 29.5992 190.7 29.5038 190.791 29.3871C191.007 29.1089 191.99 29.1121 191.99 29.3909C191.99 29.6309 198.283 29.6451 202.878 29.4157C204.982 29.3107 205.672 29.3414 205.77 29.5445C205.841 29.6913 206.073 29.8114 206.286 29.8114C206.498 29.8114 206.598 29.7159 206.508 29.5992C206.417 29.4825 206.56 29.3707 206.825 29.3508C207.09 29.3308 207.487 29.2933 207.706 29.2672C207.926 29.2413 208.765 29.2084 209.571 29.1942C210.464 29.1785 210.9 29.0993 210.687 28.992C210.341 28.8174 212.231 28.6548 217.563 28.4011C220.243 28.2736 221.456 27.9252 219.414 27.8696C218.762 27.8517 218.109 27.815 217.962 27.7879C217.816 27.7607 216.557 27.7145 215.165 27.6852L212.635 27.6315L214.366 27.4664C215.318 27.3756 217.276 27.2714 218.716 27.2352C220.157 27.1987 221.393 27.0951 221.463 27.0049C221.533 26.9148 221.83 26.8409 222.123 26.8409C222.416 26.8409 222.591 26.758 222.512 26.6563C222.433 26.5539 221.863 26.5498 221.231 26.6472C219.956 26.8437 218.74 26.8931 218.932 26.7408C219.188 26.5362 224.707 25.7788 225.089 25.8955C225.312 25.9636 225.555 25.8721 225.645 25.6861C225.758 25.4516 226.212 25.3457 227.211 25.3211L228.618 25.2865L227.153 25.1613C226 25.0627 225.84 25.009 226.405 24.9095C226.799 24.8397 227.698 24.8537 228.402 24.9402C229.107 25.0268 229.71 25.0784 229.744 25.0548C229.777 25.0311 229.613 24.7947 229.38 24.5293C229.099 24.2097 228.866 24.1181 228.691 24.2577C228.515 24.3975 228.144 24.3939 227.589 24.2466C226.101 23.8518 226.336 23.7629 228.664 23.8403C230.288 23.8942 230.896 23.8482 230.767 23.6812C230.654 23.5365 230.821 23.4387 231.199 23.427C231.747 23.41 229.129 22.9863 227.019 22.7504C226.58 22.7011 227.119 22.6451 228.218 22.626C229.317 22.6067 230.396 22.4983 230.616 22.3852C230.947 22.2146 230.924 22.1783 230.482 22.173C230.189 22.1694 229.77 22.0657 229.55 21.9424C229.258 21.7786 229.49 21.7544 230.415 21.8526C232.068 22.0279 232.418 21.8427 231.655 21.196C231.317 20.9095 231.199 20.6878 231.384 20.6878C231.565 20.6878 231.638 20.5923 231.548 20.4756C231.457 20.3589 230.881 20.2619 230.267 20.2603C229.653 20.2583 228.971 20.1573 228.751 20.0356C228.463 19.8764 228.743 19.8531 229.75 19.9528C231.173 20.0935 231.711 19.8109 230.549 19.5331C229.965 19.3935 229.963 19.385 230.482 19.1862C230.905 19.025 230.82 19.001 230.076 19.0714C229.003 19.1731 227.877 18.7156 228.632 18.485C228.868 18.4128 229.276 18.3538 229.539 18.3538C229.802 18.3538 230.167 18.2106 230.349 18.0356C230.61 17.7856 230.611 17.7173 230.353 17.7173C230.172 17.7173 230.094 17.5756 230.179 17.399C230.278 17.1945 230.169 17.0755 229.875 17.0659C229.495 17.0534 229.508 17.0214 229.95 16.8771C230.445 16.7154 230.429 16.6865 229.732 16.4676C229.32 16.3382 228.811 16.2321 228.6 16.2321C228.39 16.2321 228.218 16.1366 228.218 16.0199C228.218 15.9032 228.907 15.7984 229.75 15.7871L231.282 15.7665L230.283 15.44C229.199 15.0861 229.003 14.6692 229.766 14.3439C230.032 14.2308 231.59 14.0706 233.229 13.9879C234.868 13.9053 236.21 13.7638 236.21 13.6734C236.21 13.583 235.88 13.4133 235.477 13.2959C234.864 13.1177 235.059 13.0802 236.676 13.0662C237.772 13.0566 238.607 12.9575 238.607 12.8372C238.607 12.7205 238.36 12.625 238.059 12.625C237.757 12.625 237.581 12.5338 237.668 12.4222C237.754 12.3106 238.001 12.273 238.216 12.3388C238.431 12.4044 238.607 12.3685 238.607 12.259C238.607 12.1493 238.038 11.9533 237.342 11.8232C236.268 11.6225 236.68 11.597 240.072 11.6543L244.068 11.722L240.605 11.3342C234.545 10.6554 234.654 10.673 235.411 10.4924C236.027 10.3454 236.033 10.3318 235.493 10.3123C234.681 10.2828 234.474 9.91681 235.207 9.80478C235.542 9.75322 235.318 9.69954 234.7 9.68342C234.09 9.6675 233.55 9.56035 233.501 9.44535C233.453 9.33035 232.034 9.15806 230.349 9.0628C227.349 8.89305 227.309 8.88414 228.41 8.62889C229.127 8.46276 230.996 8.38553 233.571 8.41544C237.297 8.45894 237.637 8.43072 237.985 8.05071C238.317 7.68852 238.763 7.63039 241.681 7.56843C244.328 7.51242 245 7.43709 245 7.19712C245 7.03162 244.896 6.89625 244.769 6.89625C244.394 6.89625 239.848 6.25696 239.34 6.13284C238.377 5.89775 238.927 5.62234 240.405 5.59879C241.921 5.5746 241.925 5.57248 240.871 5.39892C240.285 5.30238 238.847 5.21072 237.675 5.19544C235.587 5.16786 232.757 4.87951 233.546 4.77448C234.298 4.67454 231.55 4.38153 229.714 4.36582C228.113 4.35203 227.801 4.28265 227.262 3.81968L226.645 3.28924L227.765 3.27014L228.884 3.25104L227.973 3.04247C227.472 2.9279 226.843 2.87995 226.575 2.93575C226.307 2.99155 226.087 2.95782 226.087 2.86064C226.087 2.76346 225.877 2.64019 225.621 2.58672C225.365 2.53346 225.694 2.46663 226.353 2.43862L227.552 2.38748L226.353 2.22665C222.435 1.7013 194.572 1.41125 185.596 1.80251C183.032 1.91433 179.716 2.00811 178.226 2.01087C176.315 2.01469 175.478 2.09425 175.383 2.28139C175.281 2.48105 175.193 2.48551 175.026 2.29879C174.838 2.08959 169.306 1.84876 168.814 2.02827C168.333 2.20374 98.1611 2.18061 93.4271 2.00344C90.2771 1.88547 86.6809 1.7518 85.4356 1.70639C84.1902 1.66099 80.4835 1.57399 77.1987 1.51352C73.9136 1.45284 70.0177 1.34336 68.5412 1.27037C64.2715 1.05904 58.2315 1.03803 58.0794 1.23409ZM193.272 1.1002C193.464 1.16152 193.694 1.15388 193.782 1.08344C193.871 1.013 193.713 0.962923 193.433 0.972047C193.122 0.982231 193.059 1.03252 193.272 1.1002ZM186.079 1.31238C186.271 1.3737 186.501 1.36606 186.59 1.29562C186.678 1.22517 186.521 1.1751 186.24 1.18422C185.93 1.19441 185.867 1.24469 186.079 1.31238ZM188.21 1.31238C188.403 1.3737 188.632 1.36606 188.721 1.29562C188.809 1.22517 188.652 1.1751 188.371 1.18422C188.061 1.19441 187.998 1.24469 188.21 1.31238ZM102.684 1.74161C103.014 1.79211 103.553 1.79211 103.883 1.74161C104.213 1.6909 103.943 1.64953 103.283 1.64953C102.624 1.64953 102.354 1.6909 102.684 1.74161ZM156.632 2.57972C156.452 2.63785 156.092 2.64146 155.833 2.58757C155.574 2.53367 155.721 2.48615 156.161 2.4819C156.6 2.47766 156.812 2.52158 156.632 2.57972ZM224.949 2.56868C224.861 2.63913 224.631 2.64676 224.439 2.58544C224.226 2.51776 224.289 2.46747 224.6 2.45729C224.881 2.44817 225.038 2.49824 224.949 2.56868ZM185.254 2.94551C185.344 3.01786 184.47 3.08788 183.31 3.10125C182.15 3.1144 178.144 3.17381 174.408 3.23301C170.672 3.29242 157.448 3.41442 145.021 3.5046C132.594 3.59477 121.773 3.73332 120.974 3.81289C119.506 3.95887 117.749 3.7904 118.071 3.5343C118.257 3.38684 120.778 3.34737 134.917 3.27163C140.313 3.24256 143.774 3.14496 143.774 3.02168C143.774 2.9105 143.943 2.87103 144.149 2.93405C144.718 3.10804 153.589 3.07855 160.023 2.88122C166.314 2.68814 184.99 2.73588 185.254 2.94551ZM192.212 2.75901C192.02 2.91156 187.454 2.93002 187.265 2.77895C187.177 2.70957 188.285 2.6527 189.725 2.6527C191.166 2.6527 192.285 2.70044 192.212 2.75901ZM193.249 2.78086C193.161 2.8513 192.931 2.85894 192.739 2.79762C192.526 2.72994 192.59 2.67965 192.9 2.66947C193.181 2.66034 193.338 2.71042 193.249 2.78086ZM173.013 3.01489C173.344 3.0656 173.824 3.06369 174.078 3.01065C174.333 2.9576 174.062 2.91602 173.476 2.91835C172.89 2.92068 172.682 2.96418 173.013 3.01489ZM209.396 3.02402C209.464 3.11143 207.863 3.18315 205.838 3.18315C203.814 3.18315 202.067 3.11143 201.957 3.02402C201.847 2.9366 203.448 2.86488 205.515 2.86488C207.582 2.86488 209.329 2.9366 209.396 3.02402ZM210.77 3.07706C210.042 3.32616 209.838 3.32616 209.838 3.07706C209.838 2.96036 210.167 2.87167 210.57 2.87973C211.219 2.8931 211.242 2.91538 210.77 3.07706ZM162.105 3.22198C162.297 3.2833 162.527 3.27566 162.615 3.20521C162.704 3.13477 162.546 3.0847 162.266 3.09382C161.955 3.10401 161.892 3.15429 162.105 3.22198ZM163.691 3.23089C164.17 3.27799 164.889 3.27714 165.289 3.22877C165.69 3.18018 165.298 3.14156 164.419 3.14283C163.54 3.14389 163.212 3.18357 163.691 3.23089ZM109.918 3.72611C109.726 3.82053 109.46 3.84429 109.328 3.77915C109.196 3.71402 109.244 3.58332 109.436 3.4889C109.627 3.39448 109.893 3.37071 110.025 3.43585C110.158 3.50099 110.109 3.63169 109.918 3.72611ZM114.738 3.54746C114.738 3.63891 113.869 3.70235 112.807 3.68856C111.373 3.66988 111.081 3.62257 111.675 3.50502C112.697 3.30218 114.738 3.33061 114.738 3.54746ZM117.402 3.40063C117.402 3.62724 115.964 3.93808 115.558 3.7991C115.226 3.68537 115.277 3.62108 115.804 3.49335C116.617 3.2956 117.402 3.2502 117.402 3.40063ZM108.735 3.72569C108.649 3.83559 107.658 3.92428 106.531 3.92259C105.404 3.92068 104.622 3.84917 104.794 3.76345C105.268 3.52603 108.917 3.49102 108.735 3.72569ZM193.926 3.6406C193.746 3.69874 193.386 3.70235 193.127 3.64845C192.868 3.59456 193.015 3.54703 193.455 3.54279C193.894 3.53855 194.106 3.58247 193.926 3.6406ZM212.568 3.86339C212.238 3.91389 211.699 3.91389 211.369 3.86339C211.04 3.81268 211.309 3.7713 211.969 3.7713C212.628 3.7713 212.897 3.81268 212.568 3.86339ZM47.3425 6.68408C47.3425 6.80077 47.2897 6.89625 47.225 6.89625C47.1603 6.89625 47.0335 6.80077 46.9429 6.68408C46.8523 6.56738 46.9053 6.4719 47.0604 6.4719C47.2154 6.4719 47.3425 6.56738 47.3425 6.68408ZM40.1003 14.4674C40.2923 14.5287 40.5222 14.5211 40.6107 14.4506C40.6991 14.3802 40.5419 14.3301 40.2612 14.3392C39.9508 14.3494 39.8877 14.3997 40.1003 14.4674ZM229.478 18.0576C229.389 18.1281 229.16 18.1357 228.967 18.0744C228.755 18.0067 228.818 17.9564 229.128 17.9462C229.409 17.9371 229.566 17.9872 229.478 18.0576ZM42.2812 18.566C42.2812 18.6827 42.1541 18.7782 41.9991 18.7782C41.844 18.7782 41.791 18.6827 41.8816 18.566C41.9721 18.4493 42.0989 18.3538 42.1637 18.3538C42.2284 18.3538 42.2812 18.4493 42.2812 18.566ZM121.542 21.7629C121.828 22.1323 121.502 22.2106 121.137 21.8599C120.926 21.6583 120.906 21.5365 121.083 21.5365C121.239 21.5365 121.445 21.6383 121.542 21.7629ZM138.434 22.2853C138.592 22.2074 138.652 22.0548 138.568 21.9462C138.48 21.8327 139.092 21.7487 140.007 21.7487C140.926 21.7487 141.64 21.8471 141.696 21.9816C141.75 22.1098 142.357 22.2653 143.045 22.3271C144.759 22.4811 144.369 22.8079 142.566 22.727C141.482 22.6784 141.11 22.7349 141.11 22.9479C141.11 23.3082 140.135 23.3258 139.955 22.9687C139.877 22.8149 139.811 22.8647 139.799 23.0873C139.788 23.2984 139.68 23.4228 139.559 23.3633C139.439 23.3041 139.14 23.4416 138.896 23.6691C138.374 24.1546 137.114 24.2311 137.114 23.7777C137.114 23.5456 136.883 23.5027 136.146 23.5978C135.387 23.696 135.206 23.6589 135.309 23.4255C135.381 23.2617 135.61 23.1376 135.818 23.1495C136.026 23.1614 136.36 23.0313 136.56 22.8607C136.876 22.591 136.806 22.5694 136.02 22.6958C135.523 22.7758 134.917 22.8857 134.673 22.9401C134.429 22.9946 134.159 22.9485 134.073 22.8382C133.987 22.7277 134.523 22.5709 135.264 22.4898C136.005 22.4085 136.754 22.2176 136.929 22.0652C137.19 21.8382 137.329 21.8458 137.697 22.1075C137.944 22.2831 138.276 22.3631 138.434 22.2853ZM176.007 22.043C176.007 22.2172 174.377 22.3048 174.248 22.1376C174.172 22.0404 174.537 21.9609 175.059 21.9609C175.58 21.9609 176.007 21.9978 176.007 22.043ZM127.364 23.3205C127.135 23.7956 126.8 23.5581 126.88 22.9776C126.98 22.2558 126.986 22.2498 127.267 22.6322C127.409 22.8263 127.453 23.1361 127.364 23.3205ZM146.243 22.5244C146.063 22.5825 145.703 22.5861 145.444 22.5322C145.185 22.4783 145.332 22.4308 145.772 22.4266C146.211 22.4223 146.423 22.4663 146.243 22.5244ZM155.229 22.6082C153.52 22.8503 147.447 22.8424 146.971 22.5974C146.706 22.461 148.231 22.3996 151.499 22.4149C154.87 22.431 156.048 22.4919 155.229 22.6082ZM160.756 22.5371C160.353 22.5857 159.694 22.5857 159.291 22.5371C158.888 22.4885 159.218 22.4489 160.023 22.4489C160.829 22.4489 161.159 22.4885 160.756 22.5371ZM163.287 22.5257C163.104 22.5847 162.804 22.5847 162.621 22.5257C162.438 22.4669 162.587 22.4187 162.954 22.4187C163.32 22.4187 163.47 22.4669 163.287 22.5257ZM165.951 22.5257C165.768 22.5847 165.468 22.5847 165.285 22.5257C165.102 22.4669 165.251 22.4187 165.618 22.4187C165.984 22.4187 166.134 22.4669 165.951 22.5257ZM120.598 22.7011C120.598 23.0101 119.605 23.6572 119.141 23.6513C118.621 23.6445 118.624 23.6286 119.21 23.2394L119.819 22.8348L118.677 22.7531C117.674 22.6814 117.722 22.667 119.067 22.6345C119.909 22.6141 120.598 22.6441 120.598 22.7011ZM121.858 22.7255C121.77 22.796 121.54 22.8036 121.348 22.7423C121.135 22.6746 121.198 22.6243 121.509 22.6141C121.789 22.605 121.947 22.6551 121.858 22.7255ZM138.18 22.8096C138.18 22.9263 138.307 23.0217 138.462 23.0217C138.617 23.0217 138.67 22.9263 138.579 22.8096C138.489 22.6929 138.362 22.5974 138.297 22.5974C138.233 22.5974 138.18 22.6929 138.18 22.8096ZM221.486 22.7255C221.398 22.796 221.168 22.8036 220.976 22.7423C220.763 22.6746 220.826 22.6243 221.137 22.6141C221.418 22.605 221.575 22.6551 221.486 22.7255ZM223.49 22.7378C223.307 22.7968 223.007 22.7968 222.824 22.7378C222.641 22.6791 222.791 22.6309 223.157 22.6309C223.523 22.6309 223.673 22.6791 223.49 22.7378ZM109.072 22.9377C108.983 23.0082 108.753 23.0158 108.561 22.9545C108.349 22.8868 108.412 22.8365 108.722 22.8263C109.003 22.8172 109.16 22.8673 109.072 22.9377ZM116.542 23.0616C116.484 23.2002 116.277 23.3557 116.083 23.4073C115.884 23.4601 115.806 23.403 115.904 23.2766C116.001 23.1505 115.813 23.0116 115.475 22.9598C115.045 22.894 115.127 22.859 115.759 22.8384C116.338 22.8195 116.61 22.8972 116.542 23.0616ZM124.994 23.2339C124.897 23.4773 124.946 23.6583 125.109 23.6583C125.266 23.6583 125.393 23.7378 125.393 23.835C125.393 24.1106 124.31 23.9789 124.074 23.6744C123.91 23.4637 123.734 23.4573 123.291 23.6462C122.976 23.7803 122.589 23.8263 122.43 23.7482C122.111 23.5908 123.909 22.8541 124.679 22.8267C125.045 22.8138 125.122 22.9129 124.994 23.2339ZM175.341 23.0217C175.431 23.1384 175.378 23.2339 175.223 23.2339C175.068 23.2339 174.941 23.1384 174.941 23.0217C174.941 22.905 174.994 22.8096 175.059 22.8096C175.123 22.8096 175.25 22.905 175.341 23.0217ZM177.871 22.9031C177.871 22.9547 177.751 23.0557 177.605 23.1278C177.458 23.2 177.339 23.1577 177.339 23.0343C177.339 22.9108 177.458 22.8096 177.605 22.8096C177.751 22.8096 177.871 22.8516 177.871 22.9031ZM216.835 22.9488C216.655 23.0069 216.295 23.0105 216.036 22.9566C215.777 22.9027 215.924 22.8552 216.364 22.8509C216.803 22.8467 217.016 22.8906 216.835 22.9488ZM218.29 22.9377C218.201 23.0082 217.971 23.0158 217.779 22.9545C217.567 22.8868 217.63 22.8365 217.94 22.8263C218.221 22.8172 218.378 22.8673 218.29 22.9377ZM113.006 23.2339C113.097 23.3506 113.044 23.4461 112.889 23.4461C112.734 23.4461 112.607 23.3506 112.607 23.2339C112.607 23.1172 112.66 23.0217 112.724 23.0217C112.789 23.0217 112.916 23.1172 113.006 23.2339ZM144.501 23.1499C144.412 23.2203 144.183 23.228 143.991 23.1667C143.778 23.099 143.841 23.0487 144.151 23.0385C144.432 23.0294 144.589 23.0795 144.501 23.1499ZM145.833 23.1499C145.744 23.2203 145.515 23.228 145.322 23.1667C145.11 23.099 145.173 23.0487 145.483 23.0385C145.764 23.0294 145.921 23.0795 145.833 23.1499ZM148.303 23.34C148.303 23.5151 148.422 23.6583 148.569 23.6583C148.715 23.6583 148.835 23.539 148.835 23.393C148.834 23.1961 149.419 23.1457 151.102 23.1966C152.474 23.2382 153.308 23.3464 153.212 23.4705C153.124 23.5832 152.841 23.622 152.583 23.5566C152.324 23.4913 151.765 23.5825 151.34 23.7591C150.655 24.0434 150.557 24.0438 150.481 23.7631C150.384 23.4088 149.224 23.3283 148.968 23.6583C148.79 23.8885 147.691 23.9496 147.433 23.7436C147.174 23.5371 147.53 23.0217 147.931 23.0217C148.135 23.0217 148.303 23.165 148.303 23.34ZM172.81 23.34C172.529 23.6095 172.588 23.6583 173.193 23.6583C173.601 23.6583 173.836 23.7491 173.742 23.8704C173.652 23.9871 173.325 24.0826 173.016 24.0826C172.707 24.0826 172.54 24.1509 172.645 24.2343C172.75 24.3177 173.806 24.3565 174.992 24.3209C176.918 24.2628 177.13 24.2937 176.977 24.6114C176.864 24.8452 176.919 24.9335 177.138 24.8696C177.322 24.8159 177.442 24.6648 177.405 24.5335C177.368 24.4022 177.645 24.2948 178.02 24.2948C178.407 24.2948 178.631 24.3867 178.537 24.507C178.447 24.6237 178.5 24.7192 178.655 24.7192C178.81 24.7192 178.937 24.6237 178.937 24.507C178.937 24.1539 179.933 24.2693 180.113 24.6434C180.206 24.8352 180.241 25.0241 180.192 25.0631C180.143 25.1019 178.922 25.1599 177.478 25.1917C175.561 25.2339 174.823 25.1781 174.742 24.9844C174.68 24.8386 174.393 24.7192 174.104 24.7192C173.814 24.7192 173.652 24.8146 173.742 24.9313C173.838 25.055 173.568 25.1435 173.092 25.1435C172.644 25.1435 172.277 25.048 172.277 24.9313C172.277 24.8146 171.834 24.7192 171.292 24.7192C170.214 24.7192 170.352 24.3799 171.478 24.2598C171.979 24.2063 172.165 24.044 172.228 23.6052C172.28 23.2475 172.473 23.0217 172.727 23.0217C173.065 23.0217 173.081 23.0803 172.81 23.34ZM199.315 23.511C199.608 23.5719 199.279 23.612 198.583 23.6003C197.887 23.5887 197.317 23.4949 197.317 23.3922C197.317 23.2893 197.572 23.2698 197.883 23.3485C198.316 23.4578 198.398 23.4238 198.232 23.2036C198.061 22.9772 198.096 22.9674 198.398 23.158C198.61 23.2914 199.022 23.4501 199.315 23.511ZM166.017 23.4461C165.927 23.5628 165.74 23.6583 165.602 23.6583C165.464 23.6583 165.351 23.5628 165.351 23.4461C165.351 23.3294 165.538 23.2339 165.766 23.2339C165.995 23.2339 166.108 23.3294 166.017 23.4461ZM137.647 23.6583C138.164 23.9241 138.446 23.9241 138.446 23.6583C138.446 23.5416 138.176 23.4476 137.847 23.4493C137.362 23.452 137.324 23.4919 137.647 23.6583ZM162.687 23.7504C162.687 23.9226 163.005 24.0869 163.42 24.1291C164.008 24.1889 163.935 24.2237 163.054 24.3054C162.052 24.3981 161.955 24.3646 161.955 23.9267C161.955 23.6604 162.118 23.4461 162.321 23.4461C162.522 23.4461 162.687 23.5829 162.687 23.7504ZM170.945 23.6267C170.945 23.7332 170.463 23.8257 169.874 23.8323C169.285 23.8386 168.857 23.7743 168.923 23.6895C169.102 23.459 170.945 23.4017 170.945 23.6267ZM87.9662 23.8704C88.0568 23.9871 87.9439 24.0826 87.7156 24.0826C87.4873 24.0826 87.3003 23.9871 87.3003 23.8704C87.3003 23.7537 87.413 23.6583 87.5509 23.6583C87.6889 23.6583 87.8757 23.7537 87.9662 23.8704ZM140.844 23.883C140.844 24.0065 140.711 24.0421 140.548 23.9619C140.385 23.8817 140.147 23.9477 140.019 24.1085C139.835 24.3398 139.785 24.3232 139.782 24.0296C139.78 23.7987 139.98 23.6583 140.311 23.6583C140.604 23.6583 140.844 23.7595 140.844 23.883ZM144.573 23.8174C144.573 23.9048 144.285 23.9765 143.932 23.9765C143.58 23.9765 143.348 23.9048 143.416 23.8174C143.483 23.73 143.772 23.6583 144.056 23.6583C144.341 23.6583 144.573 23.73 144.573 23.8174ZM195.32 23.8704C195.229 23.9871 194.892 24.0758 194.571 24.0678C194.009 24.0533 194.007 24.0463 194.52 23.8704C195.253 23.6194 195.514 23.6194 195.32 23.8704ZM214.899 23.8704C214.899 23.9871 215.169 24.0841 215.498 24.0858C215.828 24.0877 216.277 24.1817 216.497 24.2948C216.792 24.4465 216.582 24.5123 215.698 24.5452C215.039 24.5698 214.08 24.6277 213.567 24.6737C213.054 24.72 208.499 24.7858 203.444 24.8199C198.39 24.8541 194.973 24.8108 195.852 24.7236C196.731 24.6366 198.05 24.5059 198.783 24.4334C201.597 24.1548 205.011 24.0822 205.178 24.2971C205.27 24.4164 205.469 24.4533 205.619 24.3792C205.77 24.3054 206.173 24.3642 206.515 24.5102C206.857 24.6561 207.356 24.7062 207.622 24.6213C207.888 24.5365 208.967 24.4503 210.02 24.43C211.073 24.4096 212.013 24.3304 212.108 24.2541C212.204 24.1779 212.691 24.1683 213.191 24.2328C213.914 24.3262 214.1 24.2795 214.1 24.0043C214.1 23.814 214.279 23.6583 214.499 23.6583C214.719 23.6583 214.899 23.7537 214.899 23.8704ZM222.735 23.9235C222.859 24.1357 222.922 24.1357 223.046 23.9235C223.213 23.6383 225.437 23.5475 225.646 23.8174C225.714 23.9048 225.242 23.943 224.597 23.9021C223.864 23.8556 223.423 23.9154 223.423 24.0612C223.423 24.4151 222.17 24.3408 221.995 23.9765C221.808 23.5895 222.51 23.5392 222.735 23.9235ZM160.956 24.0826C160.865 24.1993 160.469 24.288 160.074 24.2799C159.434 24.2666 159.415 24.2454 159.89 24.0826C160.63 23.8293 161.152 23.8293 160.956 24.0826ZM185.996 24.0826C185.905 24.1993 186.078 24.2948 186.38 24.2948C186.681 24.2948 186.928 24.1993 186.928 24.0826C186.928 23.832 187.445 23.8887 187.883 24.1874C188.286 24.4614 186.918 24.9449 186.177 24.7907C185.891 24.731 185.576 24.786 185.478 24.9129C185.379 25.0398 185.119 25.1435 184.899 25.1435C184.679 25.1435 184.579 25.0406 184.677 24.915C184.8 24.7567 184.477 24.7315 183.627 24.8329C182.883 24.9218 182.4 24.8982 182.4 24.7728C182.4 24.6593 183.087 24.5097 183.927 24.4408C184.767 24.3718 185.497 24.2152 185.548 24.0928C185.599 23.9706 185.758 23.8704 185.901 23.8704C186.044 23.8704 186.087 23.9659 185.996 24.0826ZM193.612 24.0661C193.406 24.1703 192.884 24.2199 192.453 24.1764C191.849 24.1155 191.637 24.1932 191.532 24.5144C191.456 24.7438 191.293 24.9313 191.168 24.9313C190.88 24.9313 191.19 24.2405 191.571 24.0328C191.728 23.947 192.336 23.877 192.922 23.877C193.649 23.877 193.869 23.9371 193.612 24.0661ZM99.8204 24.27C99.8204 24.5227 98.7905 24.7245 98.6203 24.5053C98.546 24.4094 98.6358 24.2827 98.8198 24.2235C99.3654 24.0483 99.8204 24.0695 99.8204 24.27ZM103.283 24.2948C103.283 24.4115 103.171 24.507 103.033 24.507C102.895 24.507 102.708 24.4115 102.617 24.2948C102.527 24.1781 102.64 24.0826 102.868 24.0826C103.096 24.0826 103.283 24.1781 103.283 24.2948ZM108.078 24.2717C108.078 24.5925 106.133 24.6608 105.422 24.365C104.798 24.106 104.872 24.0852 106.413 24.0839C107.329 24.0833 108.078 24.1677 108.078 24.2717ZM108.897 24.3532C108.864 24.6069 108.499 24.5577 108.385 24.2842C108.326 24.1442 108.422 24.0678 108.598 24.1145C108.774 24.1611 108.908 24.2685 108.897 24.3532ZM111.256 25.0215C111.266 25.1295 111.053 25.034 110.781 24.8093C110.446 24.5324 110.382 24.3521 110.581 24.2496C110.848 24.1121 111.209 24.5248 111.256 25.0215ZM113.517 24.2114C114.059 24.3771 114.064 24.7192 113.524 24.7192C113.295 24.7192 113.178 24.8089 113.263 24.9184C113.348 25.0281 113.176 25.1034 112.88 25.0856C112.328 25.0525 112.242 24.5365 112.74 24.2449C113.066 24.054 113.01 24.0563 113.517 24.2114ZM218.095 24.2948C218.095 24.4115 217.886 24.5055 217.629 24.5038C217.231 24.501 217.221 24.4705 217.563 24.2948C218.065 24.0359 218.095 24.0359 218.095 24.2948ZM116.213 24.6252C115.532 24.848 115.496 24.8974 115.947 24.9886C116.369 25.0741 116.341 25.099 115.801 25.1189C115.415 25.1331 115.004 24.9789 114.827 24.7546C114.548 24.3981 114.627 24.3657 115.762 24.3665C116.991 24.3674 116.995 24.3697 116.213 24.6252ZM119.875 24.8698C119.983 25.3171 119.919 25.3744 119.434 25.2704C119.122 25.2038 118.387 25.145 117.801 25.1399C116.939 25.1325 116.826 25.0888 117.208 24.9118C117.467 24.7915 117.613 24.6069 117.531 24.5015C117.449 24.3962 117.915 24.3186 118.566 24.329C119.603 24.3455 119.765 24.4123 119.875 24.8698ZM127.703 24.8386C127.979 25.1399 128.13 25.17 128.378 24.9729C128.821 24.6196 129.389 24.6557 129.389 25.0374C129.389 25.2855 129.051 25.3521 127.857 25.3389C127.015 25.3298 126.476 25.274 126.659 25.2152C127.442 24.9634 126.884 24.7192 125.527 24.7192C123.942 24.7192 123.516 25.0627 124.927 25.2023C125.466 25.2553 125.22 25.3005 124.277 25.3217C123.426 25.3408 122.682 25.2545 122.582 25.1251C122.453 24.9589 122.322 24.9589 122.113 25.1251C121.954 25.2519 121.644 25.3557 121.424 25.3557C121.129 25.3557 121.103 25.2935 121.324 25.1176C121.488 24.9867 121.556 24.7419 121.475 24.5734C121.35 24.3145 121.793 24.2814 124.337 24.3589C126.862 24.4357 127.404 24.5127 127.703 24.8386ZM133.65 24.7722C133.652 25.0092 131.844 24.9649 131.657 24.7232C131.559 24.5978 131.922 24.5346 132.572 24.5641C133.164 24.591 133.649 24.6848 133.65 24.7722ZM143.241 24.7066C143.241 24.8165 143.122 24.9651 142.976 25.037C142.511 25.2657 135.315 25.1607 134.717 24.9165C134.413 24.7924 137.712 24.5738 140.378 24.5416C142.02 24.5218 143.241 24.5921 143.241 24.7066ZM154.923 24.8297C155.204 25.0533 154.7 25.1291 152.215 25.2367C149.668 25.3472 146.971 25.0769 146.971 24.7111C146.971 24.5246 154.685 24.6398 154.923 24.8297ZM164.419 24.9237C162.7 25.0459 161.408 24.9559 161.836 24.7438C161.981 24.6718 162.981 24.6574 164.058 24.7115L166.017 24.81L164.419 24.9237ZM169.081 24.7192C169.081 24.8359 169.028 24.9313 168.963 24.9313C168.898 24.9313 168.772 24.8359 168.681 24.7192C168.59 24.6025 168.643 24.507 168.798 24.507C168.953 24.507 169.081 24.6025 169.081 24.7192ZM175.074 24.7192C174.984 24.8359 175.097 24.9313 175.325 24.9313C175.553 24.9313 175.74 24.8359 175.74 24.7192C175.74 24.6025 175.628 24.507 175.49 24.507C175.352 24.507 175.165 24.6025 175.074 24.7192ZM230.299 24.6519C230.491 24.7132 230.721 24.7056 230.81 24.6351C230.898 24.5647 230.741 24.5146 230.46 24.5237C230.15 24.5339 230.087 24.5842 230.299 24.6519ZM167.897 24.9114C167.815 25.0171 167.508 25.0538 167.216 24.9927C166.483 24.8401 166.549 24.7192 167.365 24.7192C167.74 24.7192 167.979 24.8057 167.897 24.9114ZM181.667 24.8596C181.484 24.9186 181.185 24.9186 181.001 24.8596C180.818 24.8008 180.968 24.7527 181.334 24.7527C181.701 24.7527 181.851 24.8008 181.667 24.8596ZM193.921 24.8596C193.738 24.9186 193.438 24.9186 193.255 24.8596C193.072 24.8008 193.222 24.7527 193.588 24.7527C193.954 24.7527 194.104 24.8008 193.921 24.8596ZM228.351 25.78C228.442 25.8967 228.569 25.9922 228.633 25.9922C228.698 25.9922 228.751 25.8967 228.751 25.78C228.751 25.6633 228.624 25.5679 228.469 25.5679C228.314 25.5679 228.261 25.6633 228.351 25.78ZM235.361 25.7128C235.553 25.7741 235.783 25.7665 235.871 25.696C235.96 25.6256 235.802 25.5755 235.522 25.5846C235.211 25.5948 235.148 25.6451 235.361 25.7128ZM126.458 28.3792C126.459 28.4666 124.031 28.5205 121.065 28.4989C117.33 28.4715 116.367 28.4225 117.935 28.3398C121.187 28.1679 126.458 28.1923 126.458 28.3792ZM129.123 28.4571C129.123 28.5016 128.554 28.5271 127.857 28.5133C126.769 28.4917 126.704 28.4679 127.391 28.3436C128.138 28.2084 129.123 28.2731 129.123 28.4571ZM115.337 28.4666C115.154 28.5256 114.855 28.5256 114.671 28.4666C114.488 28.4079 114.638 28.3597 115.004 28.3597C115.371 28.3597 115.521 28.4079 115.337 28.4666ZM91.2287 28.919C91.4133 29.0158 90.3203 29.1004 88.7678 29.1095C87.2315 29.1187 86.023 29.0639 86.0821 28.9877C86.2435 28.7798 90.8456 28.7185 91.2287 28.919ZM212.984 29.1076C213.176 29.1689 213.406 29.1613 213.495 29.0909C213.583 29.0204 213.426 28.9703 213.145 28.9795C212.835 28.9897 212.772 29.0399 212.984 29.1076ZM193.516 29.303C193.427 29.3735 193.197 29.3811 193.005 29.3198C192.793 29.2521 192.856 29.2018 193.166 29.1916C193.447 29.1825 193.604 29.2326 193.516 29.303ZM100.938 29.7575C102.505 29.7949 105.142 29.7951 106.798 29.7577C108.455 29.7204 107.173 29.6898 103.949 29.6896C100.726 29.6894 99.371 29.72 100.938 29.7575ZM124.812 29.8577C124.954 29.9708 125.293 30.0259 125.565 29.9799C125.931 29.9181 125.864 29.8647 125.307 29.7743C124.82 29.6951 124.645 29.7248 124.812 29.8577ZM207.39 29.7442C207.582 29.8055 207.812 29.7978 207.901 29.7274C207.989 29.6569 207.832 29.6069 207.551 29.616C207.241 29.6262 207.178 29.6765 207.39 29.7442ZM126.928 29.9614C127.26 30.0121 127.739 30.0102 127.994 29.9572C128.248 29.9041 127.977 29.8626 127.391 29.8649C126.805 29.8672 126.597 29.9107 126.928 29.9614ZM130.658 29.9614C130.989 30.0121 131.469 30.0102 131.723 29.9572C131.978 29.9041 131.707 29.8626 131.121 29.8649C130.535 29.8672 130.326 29.9107 130.658 29.9614ZM138.917 29.9652C139.396 30.0123 140.115 30.0115 140.516 29.9631C140.916 29.9145 140.524 29.8759 139.645 29.8772C138.766 29.8782 138.439 29.9179 138.917 29.9652ZM142.779 29.9638C143.184 30.0123 143.783 30.0111 144.111 29.9608C144.438 29.9105 144.107 29.8706 143.374 29.8721C142.642 29.8738 142.374 29.915 142.779 29.9638ZM177.671 29.9576C177.928 30.0111 178.348 30.0111 178.604 29.9576C178.86 29.9043 178.65 29.8606 178.138 29.8606C177.625 29.8606 177.415 29.9043 177.671 29.9576ZM182.067 29.9519C182.25 30.0109 182.55 30.0109 182.733 29.9519C182.916 29.8931 182.766 29.8449 182.4 29.8449C182.034 29.8449 181.884 29.8931 182.067 29.9519Z" fill="#FF3DF0"/>
<path fill-rule="evenodd" clip-rule="evenodd" d="M58.0716 29.8849C60.196 29.8022 62.0541 29.7048 62.2006 29.6683C62.3471 29.632 61.4481 29.5423 60.2027 29.4691C57.9448 29.3362 57.9483 29.3358 61.4014 29.2705C63.3061 29.2344 66.1231 29.1298 67.6615 29.0381C69.5968 28.9227 68.6117 28.9017 64.4649 28.97C54.9874 29.126 45.2556 29.2639 44.0041 29.2603C43.3056 29.2582 42.9207 29.3401 43.0209 29.4691C43.129 29.6085 40.7984 29.6812 36.228 29.6812C31.2892 29.6812 29.3225 29.6144 29.4493 29.4508C29.562 29.3057 29.3952 29.2386 28.9989 29.27C28.6528 29.2976 28.1898 29.2635 27.9701 29.1941C27.7503 29.1249 25.7724 28.9662 23.5747 28.8414C21.377 28.7167 19.1293 28.5304 18.58 28.4275C18.0304 28.3248 17.5811 28.3197 17.5811 28.4162C17.5811 28.6573 18.2865 28.7975 22.376 29.3702C22.8888 29.4419 23.8478 29.5993 24.5071 29.7198C25.9274 29.9796 52.3033 30.1092 58.0716 29.8849ZM139.186 29.6615C140.438 29.5433 140.402 29.5338 138.587 29.5024C136.674 29.4695 136.097 29.5592 137.255 29.7095C137.584 29.7523 138.453 29.7307 139.186 29.6615ZM142.116 29.5571C142.409 29.5208 143.698 29.4298 144.98 29.3549C146.262 29.28 147.311 29.1485 147.311 29.0623C147.311 28.9764 146.921 28.9439 146.445 28.9904C145.781 29.0551 145.672 29.0226 145.979 28.8508C146.282 28.6806 146.091 28.632 145.18 28.6488C144.086 28.6687 144.051 28.6849 144.78 28.8325L145.579 28.9944L144.602 29.0197C144.065 29.0335 143.586 28.9596 143.537 28.8554C143.486 28.7479 142.472 28.7347 141.184 28.8251C138.742 28.9961 138.784 29.0778 141.317 29.0823C142.196 29.084 142.616 29.1319 142.249 29.189C141.62 29.287 140.768 29.7165 141.33 29.6524C141.469 29.6365 141.823 29.5936 142.116 29.5571ZM50.2687 29.5244C51.1784 29.4831 52.7367 29.4828 53.7317 29.5238C54.7269 29.5645 53.9826 29.5985 52.078 29.5987C50.1733 29.5991 49.3592 29.5656 50.2687 29.5244ZM46.5505 29.5408C46.7335 29.4818 47.0331 29.4818 47.2164 29.5408C47.3994 29.5995 47.2497 29.6477 46.8834 29.6477C46.5172 29.6477 46.3672 29.5995 46.5505 29.5408ZM26.3052 29.3286C26.4882 29.2696 26.7879 29.2696 26.9711 29.3286C27.1541 29.3874 27.0044 29.4355 26.6382 29.4355C26.2719 29.4355 26.1219 29.3874 26.3052 29.3286ZM24.4354 29.3299C24.6158 29.2717 24.9754 29.2681 25.2346 29.322C25.4938 29.3759 25.3462 29.4234 24.9066 29.4277C24.4671 29.4319 24.2551 29.388 24.4354 29.3299ZM138.453 29.1107C138.197 29.0572 137.777 29.0572 137.521 29.1107C137.265 29.164 137.474 29.2077 137.987 29.2077C138.5 29.2077 138.71 29.164 138.453 29.1107ZM135.923 29.1164C135.739 29.0574 135.44 29.0574 135.257 29.1164C135.073 29.1752 135.223 29.2234 135.59 29.2234C135.956 29.2234 136.106 29.1752 135.923 29.1164ZM186.921 28.7659C186.997 28.667 188.396 28.6057 190.028 28.6297C192.99 28.6728 198.178 28.3604 199.051 28.0863C199.343 27.9946 199.492 27.746 199.456 27.4071C199.396 26.8304 199.355 26.8099 197.857 26.6117C196.631 26.4494 196.533 26.1061 197.724 26.1491C198.517 26.1778 198.583 26.1315 198.513 25.5968C198.446 25.0859 198.529 25.0129 199.179 25.0102C200.111 25.0059 200.439 24.8173 200.512 24.2436C200.56 23.8703 200.387 23.7689 199.513 23.6577C198.099 23.4776 198.176 23.1842 199.672 23.0499C200.854 22.9438 202.324 22.1795 202.042 21.8171C201.972 21.7269 202.275 21.5901 202.715 21.5131C203.406 21.3921 203.463 21.3323 203.136 21.0715C202.927 20.9056 202.598 20.7683 202.405 20.7666C202.139 20.7641 202.149 20.7151 202.443 20.567C202.716 20.4295 202.404 20.3512 201.401 20.3051C199.988 20.2402 199.97 20.2313 199.946 19.5498C199.933 19.1704 200.012 18.8602 200.122 18.8602C200.231 18.8602 200.321 18.6692 200.321 18.4358C200.321 18.1214 200.511 18.0041 201.054 17.9826C201.692 17.9574 201.709 17.9419 201.18 17.8611C200.408 17.7431 199.003 17.1658 199.484 17.1641C199.687 17.1634 199.782 17.0304 199.7 16.86C199.483 16.41 200.01 16.1672 201.763 15.9101C203.332 15.6801 204.008 15.4654 203.163 15.4654C202.919 15.4654 202.719 15.3221 202.719 15.1471C202.719 14.8995 203.074 14.8288 204.317 14.8288C206.041 14.8288 206.577 14.4236 204.917 14.3756C204.298 14.3578 204.146 14.3118 204.517 14.2547C204.847 14.2042 205.116 14.0805 205.116 13.9797C205.116 13.8789 205.358 13.7355 205.653 13.6608C205.948 13.5863 206.124 13.4401 206.043 13.3364C205.962 13.2324 206.29 13.0569 206.772 12.9464C207.528 12.7726 207.375 12.7419 205.649 12.7198C203.598 12.6935 203.521 12.4701 205.469 12.1913C206.332 12.0678 206.437 11.9973 206.158 11.7298C205.894 11.4756 205.785 11.4677 205.601 11.6892C205.423 11.9033 205.284 11.8715 204.972 11.5464C204.606 11.1635 204.623 11.1111 205.177 10.9201C205.695 10.7419 205.571 10.6952 204.317 10.5955C203.002 10.4911 202.91 10.4527 203.418 10.2208C203.729 10.0786 204.508 9.89868 205.15 9.82102C207.142 9.57956 207.257 9.32665 205.383 9.30734L203.651 9.28973L205.915 8.6114L208.18 7.93307L206.848 7.82698L205.516 7.72089L207.085 7.43382C208.182 7.2331 208.543 7.0903 208.284 6.9596C208.08 6.8567 207.674 6.7644 207.381 6.75442C206.852 6.73639 206.852 6.73512 207.376 6.57195C207.759 6.45292 207.43 6.35744 206.177 6.22441C204.613 6.05848 204.551 6.03408 205.516 5.96513C206.102 5.92333 206.695 5.79984 206.835 5.69099C206.991 5.56835 205.878 5.48667 203.904 5.47627C201.446 5.46332 200.888 5.41091 201.454 5.24648C201.878 5.12278 202.186 4.87453 202.186 4.65556C202.186 4.34918 202.652 4.20236 204.647 3.87985C206 3.66109 206.881 3.44743 206.606 3.40521C206.205 3.34368 206.179 3.29084 206.476 3.14083C206.75 3.00292 206.672 2.95178 206.182 2.9469C205.816 2.9433 205.34 2.85142 205.124 2.74279C204.688 2.5234 204.801 2.46971 206.219 2.2238C206.606 2.15675 206.987 1.96665 207.067 1.80115C207.189 1.54951 206.728 1.5164 204.233 1.5983C202.031 1.67044 201.358 1.63522 201.653 1.46336C201.99 1.26709 201.969 1.23591 201.52 1.26434C200.63 1.3212 200.435 1.2533 200.854 1.03264C201.126 0.889631 200.743 0.870958 199.655 0.974077C197.666 1.16313 197.767 1.16525 193.262 0.837649C190.501 0.636931 186.454 0.604254 177.679 0.711402C170.394 0.800517 163.565 0.769961 159.964 0.632469C148.095 0.17862 146.915 0.146796 147.084 0.286408C147.179 0.364701 148.498 0.480548 150.015 0.543777C151.531 0.606794 152.886 0.74386 153.025 0.847826C153.372 1.10732 130.434 1.08716 122.344 0.82088C117.703 0.668112 82.6526 0.369152 70.4585 0.378274C67.7379 0.380396 55.8723 0.648586 55.3279 0.720302C54.8785 0.779712 54.6464 0.735792 54.7442 0.609758C54.8334 0.494758 54.7865 0.400762 54.64 0.400762C54.4935 0.400762 54.2996 0.496244 54.209 0.612941C53.9933 0.891107 53.0103 0.887922 53.0103 0.609121C53.0103 0.36915 46.7175 0.354935 42.1221 0.584298C40.0179 0.689326 39.3277 0.658556 39.2299 0.455502C39.1591 0.308676 38.9273 0.188585 38.7145 0.188585C38.5016 0.188585 38.4017 0.284063 38.4923 0.400761C38.5829 0.517458 38.4401 0.62928 38.1751 0.649223C37.91 0.669169 37.5133 0.70672 37.2936 0.732819C37.0738 0.758705 36.2347 0.791594 35.4289 0.805809C34.5362 0.82151 34.1001 0.900652 34.3133 1.00801C34.6588 1.18264 32.7693 1.34516 27.4373 1.59893C24.7567 1.72645 23.5438 2.07484 25.5859 2.13043C26.2378 2.14825 26.8912 2.18496 27.0377 2.21212C27.1843 2.23928 28.4429 2.28553 29.8348 2.31481L32.3655 2.3685L30.6339 2.53357C29.6816 2.62438 27.724 2.72856 26.2836 2.76484C24.8433 2.80133 23.6075 2.90488 23.5374 2.99505C23.4674 3.08523 23.1704 3.15906 22.8773 3.15906C22.5843 3.15906 22.409 3.24203 22.4876 3.34366C22.5673 3.44614 23.1368 3.45017 23.7687 3.35278C25.0441 3.1563 26.2596 3.10687 26.0684 3.25921C25.8118 3.46375 20.2928 4.22122 19.9109 4.10453C19.6876 4.03642 19.4449 4.12786 19.3552 4.31394C19.2422 4.5484 18.7881 4.65428 17.7891 4.67889L16.3823 4.71348L17.8474 4.83866C19.0001 4.93732 19.1596 4.991 18.5954 5.09051C18.2009 5.16032 17.3019 5.14632 16.5976 5.05975C15.8932 4.97318 15.2896 4.92162 15.2563 4.94517C15.223 4.96894 15.3868 5.2053 15.6202 5.47074C15.9012 5.79028 16.1338 5.88194 16.3091 5.74233C16.4846 5.6025 16.8562 5.60611 17.4106 5.75336C18.8989 6.14822 18.6639 6.23712 16.3357 6.15968C14.7116 6.10578 14.1039 6.15183 14.2334 6.31881C14.3458 6.46351 14.1791 6.56133 13.8008 6.573C13.2531 6.58997 15.8709 7.01369 17.9806 7.24963C18.4202 7.29886 17.8807 7.35487 16.7819 7.37397C15.6831 7.39328 14.6042 7.5017 14.3844 7.61479C14.053 7.78538 14.0757 7.82166 14.5176 7.82697C14.8106 7.83057 15.2302 7.93433 15.45 8.0576C15.7422 8.22141 15.5096 8.24559 14.585 8.14735C12.9318 7.97209 12.5824 8.15733 13.3453 8.80404C13.6828 9.09048 13.801 9.31221 13.6159 9.31221C13.4353 9.31221 13.3615 9.40769 13.4521 9.52438C13.5427 9.64108 14.1191 9.73805 14.7331 9.73974C15.3472 9.74165 16.0294 9.84265 16.2491 9.96444C16.5366 10.1236 16.2566 10.1469 15.2502 10.0472C13.8272 9.90652 13.2888 10.1891 14.451 10.4669C15.0355 10.6065 15.0373 10.615 14.5176 10.8138C14.0954 10.975 14.1798 10.999 14.9241 10.9286C15.9966 10.8269 17.1229 11.2844 16.3685 11.515C16.1322 11.5872 15.7238 11.6462 15.4609 11.6462C15.1977 11.6462 14.8333 11.7894 14.6508 11.9644C14.3903 12.2144 14.3895 12.2827 14.6468 12.2827C14.8285 12.2827 14.906 12.4244 14.8208 12.601C14.7225 12.8055 14.8312 12.9245 15.1253 12.9341C15.5051 12.9466 15.4923 12.9786 15.0504 13.1229C14.5554 13.2846 14.5706 13.3134 15.2675 13.5324C15.6799 13.6618 16.1895 13.7679 16.3996 13.7679C16.6098 13.7679 16.7819 13.8634 16.7819 13.9801C16.7819 14.0968 16.0928 14.2016 15.2502 14.2129L13.7185 14.2334L14.7174 14.56C15.8005 14.9139 15.9969 15.3308 15.2337 15.6561C14.9683 15.7692 13.41 15.9294 11.7706 16.0121C10.1316 16.0947 8.79035 16.2362 8.79035 16.3266C8.79035 16.417 9.12012 16.5867 9.52289 16.704C10.1361 16.8823 9.9406 16.9198 8.32417 16.9338C7.22826 16.9434 6.39287 17.0425 6.39287 17.1628C6.39287 17.2795 6.63982 17.3749 6.94136 17.3749C7.24291 17.3749 7.41899 17.4662 7.33241 17.5778C7.24584 17.6894 6.9989 17.7269 6.78392 17.6612C6.56896 17.5956 6.39287 17.6315 6.39287 17.741C6.39287 17.8506 6.9624 18.0467 7.6582 18.1768C8.73227 18.3775 8.3199 18.4029 4.92775 18.3457L0.931962 18.278L4.39497 18.6658C10.4547 19.3446 10.3463 19.327 9.58949 19.5075C8.97334 19.6546 8.96721 19.6682 9.50717 19.6877C10.3194 19.7172 10.5256 20.0832 9.79329 20.1952C9.45764 20.2468 9.68219 20.3004 10.2999 20.3166C10.9102 20.3325 11.4497 20.4396 11.4987 20.5546C11.5474 20.6696 12.9659 20.8419 14.6508 20.9372C17.6514 21.1069 17.6911 21.1158 16.5901 21.3711C15.8727 21.5372 14.004 21.6145 11.4292 21.5845C7.7027 21.541 7.36331 21.5693 7.01488 21.9493C6.68297 22.3115 6.23677 22.3696 3.31851 22.4316C0.672242 22.4876 -0.000380738 22.5629 -0.000380762 22.8029C-0.000380778 22.9684 0.103791 23.1037 0.231126 23.1037C0.605668 23.1037 5.15152 23.743 5.66031 23.8671C6.62276 24.1022 6.07295 24.3776 4.59477 24.4012C3.07932 24.4254 3.07451 24.4275 4.12859 24.6011C4.71465 24.6976 6.15312 24.7893 7.32521 24.8045C9.41261 24.8321 12.2435 25.1205 11.4542 25.2255C10.7024 25.3254 13.4497 25.6185 15.2862 25.6342C16.8869 25.648 17.1991 25.7173 17.7377 26.1803L18.3549 26.7107L17.2353 26.7298L16.1159 26.7489L17.0267 26.9575C17.5278 27.0721 18.157 27.12 18.4252 27.0642C18.6935 27.0084 18.913 27.0422 18.913 27.1393C18.913 27.2365 19.1229 27.3598 19.3792 27.4133C19.6354 27.4665 19.3059 27.5334 18.6466 27.5614L17.4479 27.6125L18.6466 27.7733C22.5646 28.2987 50.4277 28.5887 59.4035 28.1975C61.9675 28.0857 65.284 27.9919 66.7736 27.9891C68.6852 27.9853 69.5217 27.9057 69.617 27.7186C69.7188 27.5189 69.807 27.5145 69.9743 27.7012C70.162 27.9104 75.6938 28.1512 76.1858 27.9717C76.6666 27.7963 146.839 27.8194 151.573 27.9966C154.723 28.1145 158.319 28.2482 159.564 28.2936C160.81 28.339 164.517 28.426 167.801 28.4865C171.086 28.5472 174.982 28.6566 176.459 28.7296C180.728 28.941 186.768 28.962 186.921 28.7659ZM51.7282 28.8998C51.5361 28.8385 51.3062 28.8461 51.2178 28.9165C51.1293 28.987 51.2865 29.0371 51.5673 29.0279C51.8776 29.0178 51.9408 28.9675 51.7282 28.8998ZM58.9206 28.6876C58.7285 28.6263 58.4986 28.6339 58.4102 28.7044C58.3218 28.7748 58.4789 28.8249 58.7597 28.8158C59.07 28.8056 59.1332 28.7553 58.9206 28.6876ZM56.7895 28.6876C56.5975 28.6263 56.3676 28.6339 56.2791 28.7044C56.1907 28.7748 56.3478 28.8249 56.6286 28.8158C56.9389 28.8056 57.0021 28.7553 56.7895 28.6876ZM142.316 28.2584C141.986 28.2079 141.447 28.2079 141.117 28.2584C140.787 28.3091 141.057 28.3505 141.717 28.3505C142.376 28.3505 142.646 28.3091 142.316 28.2584ZM88.3679 27.4203C88.5482 27.3621 88.9079 27.3585 89.167 27.4124C89.4262 27.4663 89.2787 27.5138 88.8391 27.5181C88.3996 27.5223 88.1875 27.4784 88.3679 27.4203ZM20.0507 27.4313C20.1392 27.3609 20.369 27.3532 20.5611 27.4145C20.7737 27.4822 20.7105 27.5325 20.4002 27.5427C20.1194 27.5518 19.9623 27.5017 20.0507 27.4313ZM59.7464 27.0545C59.6555 26.9821 60.5301 26.9121 61.6899 26.8987C62.8501 26.8856 66.8557 26.8262 70.5917 26.767C74.3278 26.7076 87.5522 26.5856 99.9791 26.4954C112.406 26.4052 123.227 26.2667 124.026 26.1871C125.494 26.0411 127.251 26.2096 126.929 26.4657C126.743 26.6132 124.222 26.6526 110.083 26.7284C104.687 26.7574 101.226 26.855 101.226 26.9783C101.226 27.0895 101.057 27.129 100.851 27.0659C100.282 26.892 91.4105 26.9214 84.9765 27.1188C78.6861 27.3119 60.0096 27.2641 59.7464 27.0545ZM52.7884 27.241C52.9799 27.0884 57.546 27.07 57.7354 27.221C57.8228 27.2904 56.7152 27.3473 55.2746 27.3473C53.834 27.3473 52.7151 27.2995 52.7884 27.241ZM51.7506 27.2191C51.839 27.1487 52.0689 27.141 52.261 27.2024C52.4735 27.2701 52.4104 27.3203 52.1001 27.3305C51.8193 27.3396 51.6621 27.2896 51.7506 27.2191ZM71.987 26.9851C71.6557 26.9344 71.1762 26.9363 70.9215 26.9893C70.6668 27.0424 70.938 27.084 71.5241 27.0816C72.1101 27.0793 72.3184 27.0358 71.987 26.9851ZM35.6036 26.976C35.536 26.8886 37.1372 26.8168 39.1617 26.8168C41.1862 26.8168 42.9327 26.8886 43.0427 26.976C43.1527 27.0634 41.5517 27.1351 39.4848 27.1351C37.4177 27.1351 35.6713 27.0634 35.6036 26.976ZM34.2301 26.9229C34.9576 26.6738 35.1625 26.6738 35.1625 26.9229C35.1625 27.0396 34.833 27.1283 34.4299 27.1203C33.7807 27.1069 33.7581 27.0846 34.2301 26.9229ZM82.8953 26.778C82.7032 26.7167 82.4733 26.7243 82.3849 26.7948C82.2964 26.8652 82.4536 26.9153 82.7344 26.9062C83.0447 26.896 83.1078 26.8457 82.8953 26.778ZM81.3089 26.7691C80.8302 26.722 80.111 26.7228 79.7106 26.7712C79.3103 26.8198 79.7021 26.8584 80.5812 26.8572C81.4602 26.8561 81.7876 26.8164 81.3089 26.7691ZM135.082 26.2739C135.274 26.1795 135.54 26.1557 135.672 26.2208C135.804 26.286 135.756 26.4167 135.564 26.5111C135.373 26.6055 135.107 26.6293 134.975 26.5641C134.842 26.499 134.891 26.3683 135.082 26.2739ZM130.262 26.4525C130.262 26.3611 131.131 26.2976 132.193 26.3114C133.627 26.3301 133.919 26.3774 133.325 26.495C132.303 26.6978 130.262 26.6694 130.262 26.4525ZM127.598 26.5994C127.598 26.3728 129.036 26.0619 129.442 26.2009C129.774 26.3146 129.723 26.3789 129.196 26.5066C128.383 26.7044 127.598 26.7498 127.598 26.5994ZM136.265 26.2743C136.351 26.1644 137.342 26.0757 138.469 26.0774C139.596 26.0793 140.378 26.1508 140.206 26.2365C139.732 26.474 136.083 26.509 136.265 26.2743ZM51.0739 26.3594C51.2543 26.3013 51.6139 26.2976 51.8731 26.3515C52.1323 26.4054 51.9847 26.453 51.5452 26.4572C51.1057 26.4614 50.8936 26.4175 51.0739 26.3594ZM32.432 26.1366C32.7616 26.0861 33.3012 26.0861 33.6308 26.1366C33.9603 26.1873 33.6907 26.2287 33.0314 26.2287C32.3721 26.2287 32.1025 26.1873 32.432 26.1366ZM197.658 23.3159C197.658 23.1992 197.71 23.1037 197.775 23.1037C197.84 23.1037 197.967 23.1992 198.057 23.3159C198.148 23.4326 198.095 23.5281 197.94 23.5281C197.785 23.5281 197.658 23.4326 197.658 23.3159ZM204.9 15.5326C204.708 15.4713 204.478 15.4789 204.389 15.5494C204.301 15.6198 204.458 15.6699 204.739 15.6608C205.049 15.6506 205.112 15.6003 204.9 15.5326ZM15.5222 11.9424C15.6106 11.8719 15.8405 11.8643 16.0326 11.9256C16.2451 11.9933 16.182 12.0436 15.8717 12.0538C15.5909 12.0629 15.4337 12.0128 15.5222 11.9424ZM202.719 11.434C202.719 11.3173 202.846 11.2218 203.001 11.2218C203.156 11.2218 203.209 11.3173 203.118 11.434C203.028 11.5507 202.901 11.6462 202.836 11.6462C202.772 11.6462 202.719 11.5507 202.719 11.434ZM123.458 8.23711C123.172 7.86771 123.498 7.78942 123.863 8.14015C124.074 8.34172 124.094 8.46351 123.917 8.46351C123.761 8.46351 123.555 8.36166 123.458 8.23711ZM106.566 7.71473C106.408 7.7926 106.348 7.94516 106.432 8.05379C106.52 8.1673 105.908 8.25133 104.993 8.25133C104.074 8.25133 103.36 8.15288 103.304 8.01835C103.25 7.8902 102.643 7.73468 101.955 7.67293C100.241 7.51889 100.631 7.19214 102.434 7.27298C103.518 7.32157 103.89 7.26513 103.89 7.0521C103.89 6.69183 104.865 6.67421 105.045 7.03131C105.123 7.18514 105.189 7.13527 105.201 6.9127C105.212 6.70158 105.32 6.57725 105.441 6.63666C105.561 6.69586 105.86 6.55837 106.104 6.33091C106.626 5.84545 107.886 5.76885 107.886 6.22227C107.886 6.4544 108.117 6.49726 108.854 6.4022C109.613 6.30396 109.794 6.34109 109.691 6.57449C109.619 6.73829 109.39 6.86241 109.182 6.85053C108.974 6.83865 108.64 6.96872 108.44 7.13931C108.124 7.40898 108.194 7.43063 108.98 7.30417C109.477 7.22418 110.083 7.11427 110.327 7.05995C110.571 7.00542 110.841 7.05147 110.927 7.1618C111.013 7.27234 110.477 7.42914 109.736 7.51019C108.995 7.59146 108.246 7.78242 108.071 7.93476C107.81 8.16179 107.671 8.15415 107.303 7.89254C107.056 7.71685 106.724 7.63686 106.566 7.71473ZM68.9934 7.95704C68.9934 7.78284 70.6227 7.69521 70.7524 7.86241C70.8278 7.95958 70.4628 8.03915 69.9415 8.03915C69.4202 8.03915 68.9934 8.00223 68.9934 7.95704ZM117.636 6.67952C117.865 6.20445 118.2 6.44188 118.12 7.02239C118.02 7.74422 118.014 7.75017 117.733 7.36782C117.591 7.17368 117.547 6.8639 117.636 6.67952ZM98.7569 7.4756C98.9373 7.41747 99.2969 7.41386 99.5561 7.46776C99.8153 7.52165 99.6677 7.56917 99.2282 7.57342C98.7886 7.57766 98.5766 7.53374 98.7569 7.4756ZM89.7715 7.3918C91.4798 7.1497 97.5534 7.15755 98.0294 7.40262C98.2945 7.53905 96.7694 7.60037 93.5009 7.58509C90.1303 7.56896 88.9515 7.50807 89.7715 7.3918ZM84.244 7.46288C84.647 7.41429 85.3061 7.41429 85.7091 7.46288C86.1121 7.51146 85.7824 7.55114 84.9765 7.55114C84.1707 7.55114 83.8409 7.51146 84.244 7.46288ZM81.7133 7.47433C81.8963 7.41535 82.196 7.41535 82.3793 7.47433C82.5623 7.53311 82.4126 7.58127 82.0463 7.58127C81.68 7.58127 81.53 7.53311 81.7133 7.47433ZM79.0495 7.47433C79.2325 7.41535 79.5322 7.41535 79.7154 7.47433C79.8984 7.53311 79.7487 7.58127 79.3824 7.58127C79.0162 7.58127 78.8662 7.53311 79.0495 7.47433ZM124.402 7.29887C124.402 6.98993 125.395 6.34279 125.859 6.34874C126.379 6.35553 126.376 6.37144 125.79 6.76057L125.181 7.16519L126.323 7.24688C127.326 7.3186 127.278 7.33303 125.933 7.36549C125.091 7.38586 124.402 7.35594 124.402 7.29887ZM123.142 7.27446C123.23 7.20402 123.46 7.19638 123.652 7.2577C123.865 7.32539 123.802 7.37567 123.491 7.38586C123.211 7.39498 123.053 7.34491 123.142 7.27446ZM106.82 7.19044C106.82 7.07374 106.693 6.97826 106.538 6.97826C106.383 6.97826 106.33 7.07374 106.421 7.19044C106.511 7.30714 106.638 7.40262 106.703 7.40262C106.767 7.40262 106.82 7.30714 106.82 7.19044ZM23.5137 7.27446C23.6022 7.20401 23.8321 7.19638 24.0241 7.2577C24.2367 7.32538 24.1736 7.37567 23.8632 7.38585C23.5824 7.39497 23.4253 7.3449 23.5137 7.27446ZM21.5102 7.26215C21.6933 7.20316 21.9929 7.20316 22.1762 7.26215C22.3592 7.32092 22.2095 7.36909 21.8432 7.36909C21.4769 7.36909 21.327 7.32092 21.5102 7.26215ZM135.928 7.06229C136.017 6.99184 136.247 6.98421 136.439 7.04552C136.651 7.11321 136.588 7.1635 136.278 7.17368C135.997 7.18281 135.84 7.13273 135.928 7.06229ZM128.458 6.93837C128.516 6.79982 128.723 6.6443 128.917 6.59274C129.116 6.53991 129.194 6.59698 129.096 6.72344C128.999 6.84947 129.187 6.98845 129.525 7.04022C129.955 7.106 129.873 7.141 129.241 7.16159C128.662 7.18047 128.39 7.10281 128.458 6.93837ZM120.006 6.76609C120.103 6.52272 120.054 6.34173 119.891 6.34173C119.734 6.34173 119.607 6.26217 119.607 6.16499C119.607 5.88937 120.69 6.02113 120.926 6.32561C121.09 6.5363 121.266 6.54266 121.709 6.35383C122.024 6.21973 122.411 6.17369 122.57 6.25177C122.889 6.40921 121.091 7.14589 120.321 7.17326C119.955 7.1862 119.878 7.08711 120.006 6.76609ZM69.6594 6.97826C69.5688 6.86156 69.6218 6.76608 69.7769 6.76608C69.9319 6.76608 70.059 6.86156 70.059 6.97826C70.059 7.09496 70.0062 7.19044 69.9415 7.19044C69.8768 7.19044 69.75 7.09496 69.6594 6.97826ZM67.1287 7.09687C67.1287 7.04531 67.2486 6.94431 67.3951 6.87217C67.5416 6.80003 67.6615 6.84225 67.6615 6.96574C67.6615 7.08923 67.5416 7.19044 67.3951 7.19044C67.2486 7.19044 67.1287 7.14843 67.1287 7.09687ZM28.1648 7.05125C28.3452 6.99311 28.7048 6.9895 28.964 7.0434C29.2232 7.09729 29.0756 7.14481 28.636 7.14906C28.1965 7.1533 27.9845 7.10938 28.1648 7.05125ZM26.7103 7.06228C26.7988 6.99184 27.0287 6.9842 27.2208 7.04552C27.4333 7.1132 27.3702 7.16349 27.0598 7.17367C26.7791 7.1828 26.6219 7.13272 26.7103 7.06228ZM131.994 6.76609C131.903 6.64939 131.956 6.55391 132.111 6.55391C132.266 6.55391 132.393 6.64939 132.393 6.76609C132.393 6.88279 132.34 6.97827 132.276 6.97827C132.211 6.97827 132.084 6.88279 131.994 6.76609ZM100.499 6.85011C100.588 6.77966 100.817 6.77203 101.009 6.83335C101.222 6.90103 101.159 6.95132 100.849 6.9615C100.568 6.97063 100.411 6.92055 100.499 6.85011ZM99.1671 6.85011C99.2556 6.77966 99.4855 6.77203 99.6775 6.83335C99.8901 6.90103 99.827 6.95132 99.5166 6.9615C99.2359 6.97063 99.0787 6.92055 99.1671 6.85011ZM96.6975 6.66C96.6975 6.48495 96.5776 6.34173 96.4311 6.34173C96.2846 6.34173 96.165 6.46097 96.1653 6.60695C96.1658 6.80385 95.5808 6.85435 93.8975 6.80343C92.5256 6.76184 91.6918 6.65363 91.7883 6.52951C91.8756 6.41684 92.1588 6.37801 92.4175 6.44336C92.6759 6.50871 93.2353 6.41748 93.6602 6.24094C94.3445 5.95663 94.4431 5.9562 94.5193 6.23691C94.6157 6.59125 95.7755 6.67167 96.0315 6.34173C96.21 6.11152 97.3086 6.05041 97.567 6.25644C97.8264 6.46289 97.4703 6.97826 97.0686 6.97826C96.8645 6.97826 96.6975 6.83504 96.6975 6.66ZM72.19 6.65999C72.4708 6.39053 72.4122 6.34173 71.8073 6.34173C71.3989 6.34173 71.1637 6.25092 71.2577 6.12955C71.3483 6.01285 71.6749 5.91737 71.9839 5.91737C72.2926 5.91737 72.4596 5.84905 72.3549 5.76567C72.25 5.68228 71.194 5.64345 70.0083 5.6791C68.0821 5.73723 67.8703 5.70626 68.0232 5.38863C68.1359 5.15481 68.0805 5.06654 67.8615 5.13041C67.6783 5.18409 67.5581 5.33516 67.5949 5.4665C67.6317 5.59783 67.3546 5.7052 66.9798 5.7052C66.5933 5.7052 66.3693 5.61332 66.4628 5.49302C66.5533 5.37632 66.5003 5.28084 66.3453 5.28084C66.1903 5.28084 66.0632 5.37632 66.0632 5.49302C66.0632 5.84608 65.0669 5.73065 64.8866 5.35659C64.7944 5.16478 64.7587 4.97594 64.8077 4.9369C64.8567 4.89807 66.0781 4.84015 67.5219 4.80832C69.4386 4.7661 70.1772 4.8219 70.2585 5.01562C70.3198 5.16139 70.6067 5.28084 70.896 5.28084C71.1855 5.28084 71.3483 5.18536 71.2577 5.06867C71.1615 4.94497 71.4324 4.85649 71.9079 4.85649C72.356 4.85649 72.7228 4.95197 72.7228 5.06867C72.7228 5.18536 73.1663 5.28084 73.7084 5.28084C74.786 5.28084 74.6482 5.62011 73.522 5.7402C73.0212 5.79367 72.8352 5.95599 72.7718 6.39477C72.7202 6.7525 72.527 6.97826 72.2729 6.97826C71.9346 6.97826 71.9194 6.9197 72.19 6.65999ZM45.6847 6.48898C45.3917 6.42808 45.7215 6.38798 46.4173 6.39965C47.1131 6.41132 47.6826 6.5051 47.6826 6.6078C47.6826 6.7107 47.4279 6.73023 47.1165 6.65151C46.6836 6.54224 46.6016 6.57618 46.7681 6.79642C46.9391 7.02282 46.9037 7.03258 46.6016 6.84204C46.3904 6.70858 45.9777 6.54987 45.6847 6.48898ZM78.9829 6.55391C79.0734 6.43721 79.2602 6.34173 79.3982 6.34173C79.5362 6.34173 79.6488 6.43721 79.6488 6.55391C79.6488 6.6706 79.4618 6.76608 79.2335 6.76608C79.0052 6.76608 78.8923 6.6706 78.9829 6.55391ZM107.353 6.34173C106.836 6.07587 106.554 6.07587 106.554 6.34173C106.554 6.45843 106.824 6.55242 107.153 6.55073C107.638 6.54797 107.676 6.50808 107.353 6.34173ZM82.3127 6.24964C82.3127 6.07736 81.9952 5.91313 81.5801 5.87091C80.9925 5.81107 81.0649 5.77628 81.9464 5.69459C82.948 5.60187 83.0452 5.63539 83.0452 6.07333C83.0452 6.33961 82.882 6.55391 82.679 6.55391C82.4776 6.55391 82.3127 6.41705 82.3127 6.24964ZM74.0547 6.37334C74.0547 6.26683 74.5366 6.17432 75.1256 6.16774C75.7149 6.16138 76.1427 6.22567 76.0769 6.31054C75.8979 6.54096 74.0547 6.59825 74.0547 6.37334ZM157.034 6.12956C156.943 6.01286 157.056 5.91738 157.284 5.91738C157.513 5.91738 157.7 6.01286 157.7 6.12956C157.7 6.24626 157.587 6.34173 157.449 6.34173C157.311 6.34173 157.124 6.24626 157.034 6.12956ZM104.156 6.11703C104.156 5.99355 104.289 5.9579 104.453 6.03811C104.615 6.11831 104.853 6.05232 104.981 5.89149C105.165 5.66022 105.215 5.67677 105.218 5.97042C105.22 6.20127 105.02 6.34173 104.689 6.34173C104.396 6.34173 104.156 6.24052 104.156 6.11703ZM100.427 6.1826C100.427 6.09518 100.715 6.02347 101.068 6.02347C101.42 6.02347 101.652 6.09518 101.584 6.1826C101.517 6.27002 101.228 6.34173 100.944 6.34173C100.659 6.34173 100.427 6.27001 100.427 6.1826ZM49.6805 6.12955C49.7711 6.01285 50.1078 5.92416 50.4288 5.93223C50.9914 5.94665 50.9932 5.95365 50.4796 6.12955C49.7466 6.38056 49.4858 6.38056 49.6805 6.12955ZM30.1012 6.12955C30.1012 6.01285 29.8313 5.91589 29.5018 5.91419C29.1723 5.91228 28.7226 5.81828 28.5028 5.70519C28.2082 5.55349 28.4179 5.48771 29.302 5.45483C29.9613 5.43021 30.9203 5.37229 31.4331 5.32625C31.9459 5.27999 36.5011 5.21421 41.5557 5.18005C46.6104 5.14589 50.0268 5.18918 49.1477 5.27639C48.2686 5.36338 46.95 5.49408 46.2175 5.56664C43.4028 5.84523 39.9891 5.9178 39.8224 5.70286C39.7299 5.58362 39.5312 5.5467 39.381 5.62075C39.2305 5.69459 38.8274 5.63581 38.4848 5.48983C38.1425 5.34386 37.6444 5.29378 37.378 5.37865C37.1119 5.46352 36.0325 5.54967 34.9798 5.57004C33.927 5.59041 32.9874 5.66955 32.8915 5.74593C32.7959 5.8221 32.3087 5.83165 31.809 5.76715C31.0863 5.67379 30.9003 5.72047 30.9003 5.99566C30.9003 6.18599 30.7205 6.34172 30.5008 6.34172C30.281 6.34172 30.1012 6.24625 30.1012 6.12955ZM22.2649 6.0765C22.1408 5.86433 22.0784 5.86433 21.9543 6.0765C21.787 6.36167 19.5632 6.45248 19.3536 6.18259C19.2859 6.09517 19.7582 6.05698 20.4034 6.09793C21.1362 6.1444 21.5768 6.08456 21.5768 5.9388C21.5768 5.58489 22.8297 5.65915 23.0052 6.02346C23.1917 6.41047 22.49 6.46076 22.2649 6.0765ZM84.0442 5.91738C84.1348 5.80068 84.5314 5.71199 84.9257 5.72005C85.5658 5.73342 85.5855 5.75463 85.1097 5.91738C84.3697 6.17072 83.8476 6.17072 84.0442 5.91738ZM59.004 5.91737C59.0945 5.80068 58.9217 5.7052 58.6201 5.7052C58.3186 5.7052 58.0716 5.80068 58.0716 5.91737C58.0716 6.16795 57.5554 6.1113 57.1169 5.81256C56.7144 5.53863 58.0823 5.05508 58.8231 5.20934C59.1092 5.26896 59.4241 5.21401 59.5224 5.08712C59.6209 4.96024 59.8812 4.85649 60.101 4.85649C60.3207 4.85649 60.4206 4.95939 60.3231 5.085C60.2003 5.24328 60.5229 5.26854 61.3729 5.16712C62.1175 5.07821 62.6002 5.10176 62.6002 5.22716C62.6002 5.34067 61.9129 5.49026 61.0727 5.55922C60.2325 5.62817 59.5035 5.78476 59.4523 5.90719C59.4012 6.0294 59.2421 6.12955 59.0993 6.12955C58.9563 6.12955 58.9134 6.03407 59.004 5.91737ZM51.3878 5.93392C51.5939 5.82974 52.1158 5.78009 52.5471 5.82359C53.151 5.88448 53.3627 5.80683 53.4682 5.48559C53.5436 5.25623 53.7074 5.06866 53.8321 5.06866C54.1198 5.06866 53.81 5.75951 53.4293 5.96723C53.2722 6.05296 52.664 6.12297 52.078 6.12297C51.351 6.12297 51.1315 6.06293 51.3878 5.93392ZM145.18 5.73003C145.18 5.47732 146.209 5.27554 146.38 5.49472C146.454 5.59062 146.364 5.7173 146.18 5.77649C145.635 5.95175 145.18 5.93054 145.18 5.73003ZM141.717 5.7052C141.717 5.58851 141.829 5.49303 141.967 5.49303C142.105 5.49303 142.292 5.58851 142.383 5.7052C142.473 5.8219 142.36 5.91738 142.132 5.91738C141.904 5.91738 141.717 5.8219 141.717 5.7052ZM136.922 5.72833C136.922 5.40752 138.867 5.3392 139.578 5.63497C140.202 5.89404 140.128 5.91483 138.587 5.91611C137.671 5.91674 136.922 5.83229 136.922 5.72833ZM136.103 5.64685C136.136 5.39309 136.501 5.44231 136.615 5.71581C136.674 5.85585 136.578 5.93223 136.402 5.88555C136.226 5.83887 136.092 5.73151 136.103 5.64685ZM133.744 4.97849C133.734 4.87049 133.947 4.96597 134.219 5.19067C134.554 5.46756 134.618 5.64791 134.419 5.75039C134.152 5.88789 133.791 5.4752 133.744 4.97849ZM131.483 5.78859C130.941 5.62288 130.936 5.28085 131.476 5.28085C131.705 5.28085 131.822 5.1911 131.737 5.08161C131.652 4.97192 131.824 4.89659 132.12 4.91442C132.672 4.94752 132.758 5.46353 132.26 5.75506C131.934 5.94602 131.99 5.94369 131.483 5.78859ZM26.9045 5.70519C26.9045 5.5885 27.1145 5.4945 27.3707 5.4962C27.7692 5.49896 27.7788 5.52951 27.4373 5.70519C26.9346 5.96405 26.9045 5.96405 26.9045 5.70519ZM128.787 5.37484C129.468 5.15205 129.504 5.10262 129.053 5.01138C128.631 4.92587 128.659 4.90105 129.199 4.8811C129.585 4.86689 129.996 5.02114 130.173 5.24541C130.452 5.60187 130.373 5.63433 129.238 5.63349C128.009 5.63264 128.005 5.6303 128.787 5.37484ZM125.125 5.1302C125.017 4.68293 125.081 4.62564 125.566 4.72961C125.878 4.79623 126.613 4.85501 127.199 4.8601C128.061 4.86753 128.174 4.91123 127.792 5.08819C127.533 5.20849 127.387 5.39309 127.469 5.49854C127.551 5.60378 127.085 5.68144 126.434 5.67104C125.397 5.65449 125.235 5.58765 125.125 5.1302ZM117.297 5.16139C117.021 4.8601 116.87 4.82997 116.622 5.02708C116.179 5.38036 115.611 5.34429 115.611 4.96258C115.611 4.71454 115.949 4.64792 117.143 4.66107C117.985 4.6702 118.524 4.726 118.341 4.78478C117.558 5.03663 118.116 5.28084 119.473 5.28084C121.058 5.28084 121.484 4.93733 120.073 4.79772C119.534 4.74468 119.78 4.69948 120.723 4.67826C121.574 4.65917 122.318 4.74552 122.418 4.87495C122.547 5.04109 122.678 5.04109 122.887 4.87495C123.046 4.74807 123.356 4.64431 123.576 4.64431C123.871 4.64431 123.897 4.70648 123.676 4.88238C123.512 5.01329 123.444 5.25814 123.525 5.42661C123.65 5.68547 123.207 5.71857 120.663 5.64112C118.138 5.56431 117.596 5.48729 117.297 5.16139ZM111.35 5.2278C111.348 4.9908 113.156 5.03514 113.343 5.27681C113.441 5.40221 113.078 5.46544 112.428 5.43595C111.836 5.409 111.351 5.31522 111.35 5.2278ZM101.759 5.29336C101.759 5.18346 101.878 5.03493 102.024 4.963C102.489 4.73428 109.685 4.83931 110.283 5.08352C110.587 5.20765 107.288 5.42619 104.622 5.45844C102.98 5.47817 101.759 5.40794 101.759 5.29336ZM90.0767 5.1703C89.796 4.94666 90.3 4.87092 92.7845 4.76334C95.3323 4.6528 98.0294 4.92311 98.0294 5.28891C98.0294 5.47541 90.3152 5.3602 90.0767 5.1703ZM80.5812 5.0763C82.2996 4.95409 83.5916 5.04405 83.1638 5.25623C83.0189 5.32816 82.0189 5.34259 80.9416 5.28848L78.9829 5.19003L80.5812 5.0763ZM75.9194 5.28084C75.9194 5.16414 75.9722 5.06867 76.0369 5.06867C76.1016 5.06867 76.2284 5.16414 76.319 5.28084C76.4096 5.39754 76.3566 5.49302 76.2015 5.49302C76.0465 5.49302 75.9194 5.39754 75.9194 5.28084ZM69.9258 5.28084C70.0163 5.16414 69.9034 5.06867 69.6751 5.06867C69.4468 5.06867 69.2598 5.16414 69.2598 5.28084C69.2598 5.39754 69.3725 5.49302 69.5105 5.49302C69.6485 5.49302 69.8352 5.39754 69.9258 5.28084ZM14.7006 5.3481C14.5086 5.28678 14.2787 5.29442 14.1902 5.36486C14.1018 5.4353 14.259 5.48538 14.5397 5.47625C14.8501 5.46607 14.9132 5.41578 14.7006 5.3481ZM77.1027 5.08861C77.1848 4.98294 77.4916 4.94624 77.7844 5.00735C78.5175 5.1599 78.4514 5.28084 77.6352 5.28084C77.2604 5.28084 77.0207 5.19427 77.1027 5.08861ZM63.3327 5.14038C63.5157 5.0814 63.8154 5.0814 63.9987 5.14038C64.1817 5.19915 64.032 5.24732 63.6657 5.24732C63.2994 5.24732 63.1495 5.19915 63.3327 5.14038ZM51.079 5.14038C51.262 5.0814 51.5617 5.0814 51.745 5.14038C51.928 5.19915 51.7783 5.24732 51.412 5.24732C51.0457 5.24732 50.8957 5.19915 51.079 5.14038ZM16.6487 4.21995C16.5581 4.10325 16.4313 4.00777 16.3666 4.00777C16.3019 4.00777 16.2491 4.10325 16.2491 4.21995C16.2491 4.33665 16.3762 4.43213 16.5312 4.43213C16.6863 4.43213 16.7393 4.33665 16.6487 4.21995ZM9.63932 4.28721C9.44725 4.22589 9.21736 4.23353 9.12892 4.30397C9.04048 4.37441 9.19765 4.42449 9.47841 4.41537C9.78876 4.40518 9.8519 4.3549 9.63932 4.28721ZM118.542 1.62079C118.541 1.53337 120.969 1.47948 123.935 1.50112C127.67 1.52849 128.633 1.57751 127.065 1.66025C123.813 1.83212 118.542 1.80772 118.542 1.62079ZM115.877 1.54292C115.877 1.49836 116.446 1.4729 117.143 1.48669C118.231 1.50833 118.296 1.5321 117.609 1.65643C116.862 1.79159 115.877 1.72687 115.877 1.54292ZM129.663 1.53337C129.846 1.47439 130.145 1.47439 130.329 1.53337C130.512 1.59215 130.362 1.64031 129.996 1.64031C129.629 1.64031 129.479 1.59215 129.663 1.53337ZM153.771 1.08101C153.587 0.984256 154.68 0.899601 156.232 0.890478C157.768 0.881355 158.977 0.936094 158.918 1.01227C158.756 1.2202 154.154 1.28152 153.771 1.08101ZM32.0157 0.892376C31.8236 0.831056 31.5937 0.838693 31.5053 0.909137C31.4168 0.97958 31.574 1.02966 31.8548 1.02053C32.1651 1.01035 32.2282 0.96006 32.0157 0.892376ZM51.4842 0.696962C51.5726 0.626519 51.8025 0.618881 51.9946 0.6802C52.2072 0.747886 52.144 0.798173 51.8337 0.808357C51.5529 0.817481 51.3958 0.767404 51.4842 0.696962ZM144.062 0.242486C142.495 0.205144 139.858 0.204932 138.202 0.242274C136.545 0.279617 137.827 0.310171 141.051 0.310385C144.274 0.310597 145.629 0.280042 144.062 0.242486ZM120.188 0.142337C120.046 0.0292461 119.707 -0.0259201 119.435 0.0201232C119.069 0.081866 119.136 0.135335 119.693 0.225722C120.18 0.304866 120.355 0.275159 120.188 0.142337ZM37.6098 0.255846C37.4177 0.194527 37.1878 0.202162 37.0994 0.272604C37.0109 0.343048 37.1681 0.393124 37.4489 0.384001C37.7592 0.373816 37.8223 0.323532 37.6098 0.255846ZM118.072 0.0385825C117.74 -0.0121282 117.261 -0.010219 117.006 0.0428262C116.752 0.0958696 117.023 0.137457 117.609 0.135123C118.195 0.13279 118.403 0.0892932 118.072 0.0385825ZM114.342 0.0385822C114.011 -0.0121285 113.531 -0.0102193 113.277 0.0428259C113.022 0.0958693 113.293 0.137457 113.879 0.135123C114.465 0.13279 114.674 0.0892929 114.342 0.0385822ZM106.083 0.0347611C105.604 -0.0123428 104.885 -0.0114903 104.484 0.0368858C104.084 0.0854735 104.476 0.12409 105.355 0.122816C106.234 0.121755 106.561 0.0820767 106.083 0.0347611ZM102.221 0.0362447C101.816 -0.0123431 101.217 -0.0110671 100.889 0.0392182C100.562 0.0895035 100.893 0.129392 101.626 0.127906C102.358 0.126209 102.626 0.0850462 102.221 0.0362447ZM67.3285 0.0423989C67.0723 -0.0110698 66.6524 -0.0110698 66.3962 0.0423989C66.1399 0.0956558 66.3496 0.139363 66.8623 0.139363C67.3751 0.139363 67.5848 0.0956559 67.3285 0.0423989ZM62.9332 0.0481245C62.7499 -0.0108622 62.4502 -0.0108622 62.2672 0.0481244C62.0839 0.106897 62.2339 0.155062 62.6002 0.155062C62.9664 0.155062 63.1162 0.106898 62.9332 0.0481245Z" fill="#FF3DF0"/>
</svg>
