<svg width="235" height="83" viewBox="0 0 235 83" fill="none" xmlns="http://www.w3.org/2000/svg">
<path d="M176.662 20.7994C174.278 20.8991 172.898 22.1968 172.936 24.5256L175.369 28.313C175.914 28.1637 176.52 27.8407 177.122 27.4105L182.348 34.7853C180.254 37.3483 178.502 40.2535 177.093 43.5014L180.36 46.7686C181.747 43.8647 183.391 41.2529 185.272 38.9103L211.212 75.5137L231.737 79.6004L227.651 59.0752L191.038 33.1277C193.487 31.1457 196.187 29.4474 199.116 28.0117L195.849 24.7448C192.501 26.1971 189.519 28.0149 186.899 30.1948L179.547 24.9838C179.97 24.3904 180.293 23.786 180.45 23.2314L176.663 20.7994H176.662ZM225.985 31.4962V31.4972L225.985 31.4962H225.985ZM225.985 31.4972L222.536 46.8744L219.445 36.9577L217.218 45.653L213.912 39.545L213.84 46.6593L229.65 57.9415L231.518 68.6486L231.375 45.653L227.135 50.5396L225.985 31.4973L225.985 31.4972ZM188.954 34.9401L216.298 59.1025L219.453 67.3159L211.24 64.1604L187.078 36.8178C187.681 36.1702 188.307 35.5439 188.953 34.9401H188.954ZM192.929 59.091V59.0915H192.929L192.929 59.091ZM192.929 59.0915L196.378 61.8938L191.922 62.3969L199.037 64.7682L186.03 65.2715L200.187 68.6491L187.755 70.9485L203.421 74.1103L195.157 79.5001L220.811 79.7157L210.104 77.8472L197.241 59.307L192.929 59.0915H192.929Z" fill="#39FF14"/>
<path d="M172.8 60.3547C172.899 62.7393 174.197 64.1192 176.526 64.0808L180.313 61.6484C180.164 61.1033 179.841 60.4967 179.411 59.8952L186.786 54.6689C189.349 56.7629 192.254 58.5151 195.502 59.9243L198.769 56.6574C195.865 55.27 193.253 53.6262 190.911 51.7456L227.514 25.8048L231.601 5.27977L211.076 9.36652L185.128 45.9791C183.146 43.5296 181.448 40.8306 180.012 37.9008L176.745 41.1681C178.198 44.5157 180.015 47.4979 182.195 50.1179L176.984 57.4705C176.391 57.0468 175.786 56.7246 175.232 56.5671L172.8 60.3544L172.8 60.3547ZM183.497 11.0326L183.498 11.0326L183.497 11.0322L183.497 11.0326ZM183.498 11.0326L198.875 14.4813L188.958 17.5718L197.653 19.7995L191.545 23.1048L198.66 23.1767L209.942 7.36713L220.649 5.49879L197.653 5.64251L202.54 9.88234L183.498 11.0323L183.498 11.0326ZM186.94 48.0635L211.103 20.7196L219.316 17.564L216.161 25.7774L188.818 49.9388C188.171 49.3359 187.544 48.7105 186.94 48.0638L186.94 48.0635ZM211.091 44.0885L211.092 44.0885L211.092 44.0879L211.091 44.0885ZM211.092 44.0879L213.894 40.6391L214.397 45.0947L216.769 37.9801L217.272 50.9869L220.65 36.8303L222.949 49.262L226.111 33.5962L231.501 41.8605L231.716 16.206L229.848 26.9131L211.307 39.7765L211.092 44.0876L211.092 44.0879Z" fill="#39FF14"/>
<g clip-path="url(#clip0_206_3071)">
<path d="M59.06 68.5358C61.5604 68.5364 63.0618 67.2388 63.1241 64.7996L60.7449 60.7283C60.1678 60.8605 59.5186 61.1719 58.8701 61.5958L53.7244 53.6466C56.0291 51.056 57.9909 48.0923 59.6088 44.7548L56.3332 41.1913C54.7533 44.1697 52.9178 46.8311 50.8462 49.2002L25.3054 9.74582L4.00183 4.56473L7.37591 26.2282L44.5559 54.999C41.9048 56.9658 39.005 58.6245 35.8752 59.9983L39.1512 63.5616C42.7191 62.1888 45.9205 60.4174 48.7589 58.2511L56.2253 64.029C55.7558 64.6315 55.3919 65.2499 55.2026 65.8235L59.0598 68.5358L59.06 68.5358ZM7.90574 55.1683L7.90578 55.1673L7.90535 55.1683L7.90574 55.1683ZM7.90578 55.1673L12.1925 39.2239L14.9907 49.7397L17.7052 40.7364L20.896 47.2752L21.2844 39.8318L5.23325 27.3269L3.74899 16.0375L2.88716 40.1132L7.54007 35.1851L7.90553 55.1672L7.90578 55.1673ZM46.8174 53.1938L19.2603 26.6994L16.3189 17.9636L24.7769 21.628L48.8629 51.3109C48.2033 51.9622 47.5211 52.5902 46.8177 53.1938L46.8174 53.1938ZM43.7199 27.7402L43.7199 27.7397L43.7193 27.7396L43.7199 27.7402ZM43.7193 27.7396L40.2328 24.6546L44.9186 24.3242L37.5762 21.529L51.2124 21.5747L36.5436 17.4162L49.6569 15.5567L33.3988 11.5577L42.2863 6.27997L15.4433 4.92502L26.5682 7.35206L39.216 27.3242L43.719 27.7396L43.7193 27.7396Z" fill="#39FF14"/>
</g>
<path d="M63.7813 21.5739C63.6202 19.1031 62.2223 17.7031 59.7731 17.7986L55.8459 20.412C56.0158 20.9737 56.37 21.5951 56.8368 22.2086L49.2014 27.8054C46.4554 25.695 43.3577 23.9473 39.9074 22.5636L36.5472 26.0299C39.635 27.3993 42.4216 29.0416 44.9305 30.936L7.03335 58.7155L3.21807 80.1002L24.7156 75.3705L51.1502 36.778C53.2933 39.271 55.1437 42.0296 56.7233 45.0337L60.0832 41.567C58.4763 38.1299 56.4935 35.0805 54.1383 32.4154L59.447 24.6653C60.0814 25.0904 60.7248 25.4102 61.312 25.5603L63.7813 21.5741L63.7813 21.5739ZM53.6912 72.9826L53.6902 72.9826L53.6912 72.983L53.6912 72.9826ZM53.6902 72.9826L37.431 69.7739L47.7911 66.3314L38.5905 64.2291L44.9385 60.6549L37.4521 60.7507L25.9555 77.417L14.7349 79.611L38.9245 78.9115L33.6834 74.6313L53.69 72.9829L53.6902 72.9826ZM49.1943 34.6596L24.4189 63.5968L15.8524 67.066L18.9784 58.4723L47.1746 32.7597C47.8701 33.3695 48.5438 34.0031 49.1943 34.6594L49.1943 34.6596ZM23.8798 39.3602L23.8792 39.3602L23.8792 39.3609L23.8798 39.3602ZM23.8792 39.3609L21.0123 43.0047L20.378 38.3959L18.051 45.8312L17.2147 32.3537L13.9952 47.1166L11.2828 34.2785L8.32594 50.6015L2.46049 42.1594L2.83898 68.7713L4.55211 57.622L23.7542 43.8375L23.8793 39.3611L23.8792 39.3609Z" fill="#39FF14"/>
<path d="M14.709 16.7086H220.709V68.7086H14.709V16.7086Z" fill="black"/>
<path fill-rule="evenodd" clip-rule="evenodd" d="M7.70898 9.70865H227.709V75.7086H7.70898V9.70865ZM14.709 16.7086V68.7086H220.709V16.7086H14.709Z" fill="#39FF14"/>
<defs>
<clipPath id="clip0_206_3071">
<rect width="66" height="66" fill="white" transform="translate(66.7402 65.9958) rotate(179.354)"/>
</clipPath>
</defs>
</svg>
