<svg width="218" height="79" viewBox="0 0 218 79" fill="none" xmlns="http://www.w3.org/2000/svg">
<path d="M159.953 17.0907C157.569 17.1904 156.189 18.4882 156.227 20.817L158.66 24.6044C159.205 24.4551 159.811 24.1321 160.413 23.7018L165.639 31.0766C163.545 33.6397 161.793 36.5448 160.384 39.7928L163.651 43.0599C165.038 40.156 166.682 37.5442 168.563 35.2016L194.503 71.805L215.028 75.8918L210.942 55.3666L174.329 29.4191C176.779 27.437 179.478 25.7387 182.407 24.303L179.14 21.0361C175.792 22.4884 172.81 24.3062 170.19 26.4861L162.838 21.2752C163.261 20.6817 163.584 20.0773 163.741 19.5228L159.954 17.0907H159.953ZM209.276 27.7876V27.7886L209.276 27.7876H209.276ZM209.276 27.7886L205.827 43.1657L202.736 33.249L200.509 41.9444L197.203 35.8363L197.131 42.9506L212.941 54.2328L214.809 64.94L214.666 41.9444L210.426 46.8309L209.276 27.7887L209.276 27.7886ZM172.245 31.2314L199.589 55.3939L202.744 63.6073L194.531 60.4517L170.369 33.1091C170.972 32.4615 171.598 31.8353 172.244 31.2314H172.245ZM176.22 55.3823V55.3828H176.22L176.22 55.3823ZM176.22 55.3828L179.669 58.1852L175.213 58.6882L182.328 61.0596L169.321 61.5628L183.478 64.9405L171.046 67.2399L186.712 70.4017L178.448 75.7915L204.102 76.0071L193.395 74.1386L180.532 55.5984L176.22 55.3828H176.22Z" fill="#FF3DF0"/>
<path d="M156.091 58.646C156.19 61.0307 157.488 62.4105 159.817 62.3721L163.604 59.9398C163.455 59.3947 163.132 58.788 162.702 58.1866L170.077 52.9603C172.64 55.0543 175.545 56.8065 178.793 58.2156L182.06 54.9487C179.156 53.5614 176.544 51.9176 174.202 50.0369L210.805 24.0962L214.892 3.57112L194.367 7.65788L168.419 44.2705C166.437 41.821 164.739 39.1219 163.303 36.1922L160.036 39.4595C161.489 42.8071 163.306 45.7892 165.486 48.4093L160.275 55.7618C159.682 55.3382 159.077 55.0159 158.523 54.8584L156.091 58.6458L156.091 58.646ZM166.788 9.32393L166.789 9.32393L166.788 9.32356L166.788 9.32393ZM166.789 9.32393L182.166 12.7727L172.249 15.8631L180.944 18.0909L174.836 21.3962L181.951 21.468L193.233 5.65849L203.94 3.79014L180.944 3.93386L185.831 8.17369L166.789 9.32368L166.789 9.32393ZM170.231 46.3549L194.394 19.0109L202.607 15.8554L199.452 24.0688L172.109 48.2301C171.462 47.6272 170.835 47.0018 170.231 46.3551L170.231 46.3549ZM194.382 42.3799L194.383 42.3799L194.383 42.3792L194.382 42.3799ZM194.383 42.3792L197.185 38.9305L197.688 43.386L200.06 36.2714L200.563 49.2782L203.941 35.1217L206.24 47.5534L209.402 31.8875L214.792 40.1518L215.007 14.4973L213.139 25.2045L194.598 38.0678L194.383 42.379L194.383 42.3792Z" fill="#FF3DF0"/>
<path d="M14.2998 14.3H202.3V66.3H14.2998V14.3Z" fill="#FF3DF0"/>
<path fill-rule="evenodd" clip-rule="evenodd" d="M7.2998 7.30005H209.3V73.3H7.2998V7.30005ZM14.2998 14.3V66.3H202.3V14.3H14.2998Z" fill="#FF3DF0"/>
<path d="M61.363 64.2308C63.8586 64.0758 65.2763 62.6873 65.1867 60.2489L62.5587 56.3336C61.9909 56.5015 61.3624 56.8527 60.7415 57.3161L55.111 49.7026C57.2499 46.9736 59.0235 43.8936 60.4306 40.4618L56.9395 37.1091C55.548 40.18 53.8817 42.9505 51.9616 45.444L24.0146 7.6559L2.42978 3.81088L7.14574 25.2224L46.0444 51.6231C43.5209 53.7511 40.7299 55.5871 37.6918 57.153L41.1832 60.5055C44.6587 58.9133 47.7437 56.9461 50.4417 54.6073L58.2533 59.9092C57.8222 60.5398 57.4975 61.1797 57.3443 61.7639L61.3628 64.2308L61.363 64.2308ZM9.4759 54.0734L9.47588 54.0723L9.47551 54.0734L9.4759 54.0734ZM9.47588 54.0723L12.7619 37.893L16.2092 48.2143L18.3581 39.0595L21.9497 45.3869L21.874 37.9338L5.07562 26.4523L2.89154 15.2772L3.52996 39.3598L7.8671 34.1517L9.47562 54.0722L9.47588 54.0723ZM48.1892 49.6806L19.0364 24.9529L15.557 16.4171L24.2267 19.548L50.1135 47.6741C49.4958 48.3652 48.854 49.0344 48.1895 49.6806L48.1892 49.6806ZM43.5134 24.4692L43.5134 24.4687L43.5127 24.4687L43.5134 24.4692ZM43.5127 24.4687L39.841 21.6066L44.4971 20.9852L36.9949 18.6524L50.6076 17.8493L35.7083 14.6119L48.6805 11.9398L32.205 8.96047L40.7467 3.1398L13.8715 3.45831L25.1259 5.18818L38.9923 24.3344L43.5125 24.4687L43.5127 24.4687Z" fill="#FF3DF0"/>
<path d="M65.2998 19.1663C65.1949 16.6925 63.8292 15.261 61.3785 15.3009L57.3929 17.8242C57.55 18.3897 57.8899 19.019 58.3427 19.6429L50.5819 25.0646C47.8847 22.8923 44.8275 21.0746 41.4096 19.6128L37.9714 23.0018C41.0273 24.441 43.7758 26.1462 46.241 28.0972L7.72179 55.0077L3.42113 76.3001L25.0206 72.0605L52.3262 34.0792C54.412 36.6203 56.1992 39.4202 57.71 42.4595L61.1479 39.0701C59.6196 35.5973 57.7067 32.5037 55.4127 29.7857L60.8963 22.1583C61.5209 22.5978 62.1569 22.9321 62.7405 23.0955L65.2998 19.1665L65.2998 19.1663ZM54.0431 70.3322L54.0421 70.3322L54.0431 70.3326L54.0431 70.3322ZM54.0421 70.3322L37.8601 66.7545L48.2958 63.5485L39.1453 61.2375L45.5731 57.8086L38.0864 57.7341L26.2137 74.1347L14.9461 76.0728L39.1453 75.9238L34.003 71.5254L54.0419 70.3324L54.0421 70.3322ZM50.419 31.9169L24.9919 60.2831L16.3486 63.5566L19.6693 55.0361L48.443 29.9716C49.1245 30.597 49.7836 31.2458 50.419 31.9166L50.419 31.9169ZM25.0041 36.0405L25.0035 36.0405L25.0035 36.0412L25.0041 36.0405ZM25.0035 36.0412L22.0545 39.6188L21.5251 34.9968L19.0296 42.3773L18.5 28.8843L14.9456 43.57L12.5259 30.6736L9.1986 46.9251L3.52667 38.3518L3.29981 64.9654L5.26607 53.858L24.7767 40.5138L25.0035 36.0414L25.0035 36.0412Z" fill="#FF3DF0"/>
</svg>
