<svg width="573" height="464" viewBox="0 0 573 464" fill="none" xmlns="http://www.w3.org/2000/svg">
<path d="M82.3657 78.2686L41.4988 425.383C41.4434 425.883 41.5293 426.388 41.7468 426.842C41.9643 427.295 42.3046 427.678 42.7291 427.948C43.1536 428.218 43.6452 428.363 44.1482 428.367C44.6511 428.372 45.1451 428.235 45.5741 427.972L71.8377 411.812C73.3965 410.846 75.2696 410.523 77.0621 410.911C78.8545 411.299 80.4263 412.368 81.4459 413.893L114.445 462.953L128.214 256.58L82.3657 78.2686Z" fill="#39FF14" stroke="#2E353A" stroke-linecap="round" stroke-linejoin="round"/>
<path d="M82.1113 86.9967L45.1782 416.706C45.0984 417.417 45.228 418.137 45.5512 418.776C45.8743 419.415 46.377 419.946 46.9974 420.304C47.6179 420.661 48.3292 420.83 49.0442 420.789C49.7591 420.748 50.4467 420.5 51.0224 420.074L70.2248 405.923C71.2234 405.184 72.3623 404.657 73.5717 404.374C74.7811 404.091 76.0356 404.058 77.2583 404.276C78.481 404.495 79.6463 404.961 80.6827 405.645C81.7191 406.33 82.6049 407.219 83.2858 408.258L105.757 442.559C106 442.94 106.365 443.229 106.791 443.379C107.218 443.529 107.682 443.531 108.111 443.386C108.539 443.241 108.907 442.957 109.155 442.579C109.402 442.201 109.517 441.75 109.479 441.3L83.2433 87.0109C83.216 86.882 83.1457 86.7662 83.0438 86.6826C82.942 86.5989 82.8147 86.5525 82.6829 86.5508C82.5512 86.5492 82.4228 86.5924 82.3189 86.6735C82.215 86.7545 82.1417 86.8685 82.1113 86.9967Z" fill="#39FF14" stroke="#2E353A" stroke-linecap="round" stroke-linejoin="round"/>
<path opacity="0.6" d="M82.6216 82.2155L45.1508 416.679C45.071 417.391 45.2007 418.11 45.5238 418.749C45.847 419.388 46.3496 419.919 46.9701 420.277C47.5906 420.634 48.3019 420.803 49.0169 420.762C49.7318 420.721 50.4193 420.473 50.995 420.047L70.1974 405.896C71.1961 405.158 72.3349 404.631 73.5444 404.348C74.7538 404.064 76.0082 404.031 77.231 404.25C78.4537 404.468 79.6189 404.934 80.6553 405.619C81.6918 406.303 82.5775 407.192 83.2584 408.231L105.73 442.532C105.973 442.913 106.337 443.202 106.764 443.352C107.19 443.502 107.655 443.505 108.083 443.36C108.512 443.215 108.879 442.93 109.127 442.552C109.375 442.174 109.489 441.724 109.451 441.273L82.8905 82.2155C82.8812 82.1872 82.8632 82.1625 82.8391 82.145C82.8149 82.1276 82.7859 82.1182 82.7561 82.1182C82.7263 82.1182 82.6972 82.1276 82.6731 82.145C82.649 82.1625 82.631 82.1872 82.6216 82.2155Z" fill="black"/>
<path d="M75.7868 404.085C77.2734 404.111 78.7311 404.499 80.0333 405.217C81.3354 405.935 82.4425 406.96 83.2583 408.203L105.729 442.504C105.973 442.885 106.337 443.173 106.764 443.323C107.19 443.473 107.655 443.476 108.083 443.331C108.512 443.186 108.879 442.902 109.127 442.523C109.375 442.145 109.489 441.695 109.451 441.244L106.239 397.887L75.3057 403.943C75.4701 403.975 75.6311 404.023 75.7868 404.085Z" fill="#39FF14" stroke="#2E353A" stroke-linecap="round" stroke-linejoin="round"/>
<path opacity="0.3" d="M75.7868 404.085C77.2734 404.111 78.7311 404.499 80.0333 405.217C81.3354 405.935 82.4425 406.96 83.2583 408.203L105.729 442.504C105.973 442.885 106.337 443.173 106.764 443.323C107.19 443.473 107.655 443.476 108.083 443.331C108.512 443.186 108.879 442.902 109.127 442.523C109.375 442.145 109.489 441.695 109.451 441.244L106.239 397.887L75.3057 403.943C75.4701 403.975 75.6311 404.023 75.7868 404.085Z" fill="black"/>
<path d="M83.2002 78.0527L114.431 462.949L478.596 393.555L393.013 93.3778L83.2002 78.0527Z" fill="#2E353A" stroke="#2E353A" stroke-linecap="round" stroke-linejoin="round"/>
<path d="M100.081 86.3604L121.533 442.602L463.978 380.339L391.796 103.567L100.081 86.3604Z" fill="#39FF14" stroke="#2E353A" stroke-linecap="round" stroke-linejoin="round"/>
<path d="M121.013 261.672L137.3 430.531L448.443 373.957L419.534 247.04L121.013 261.672Z" fill="white" stroke="#2E353A" stroke-linecap="round" stroke-linejoin="round"/>
<path d="M181.064 422.128L175.899 367.889" stroke="#2E353A" stroke-linecap="round" stroke-linejoin="round"/>
<path d="M228.682 413.735L223.701 368.523" stroke="#2E353A" stroke-linecap="round" stroke-linejoin="round"/>
<path d="M275.366 404.692L269.55 368.523" stroke="#2E353A" stroke-linecap="round" stroke-linejoin="round"/>
<path d="M323.463 396.442L316.543 353.325" stroke="#2E353A" stroke-linecap="round" stroke-linejoin="round"/>
<path d="M365.83 388.802L359.929 346.718" stroke="#2E353A" stroke-linecap="round" stroke-linejoin="round"/>
<path d="M406.455 381.289L397.668 330.687" stroke="#2E353A" stroke-linecap="round" stroke-linejoin="round"/>
<g style="mix-blend-mode:multiply" opacity="0.49">
<path d="M101.808 184.779C101.808 184.779 108.996 288.234 115.604 325.96C122.213 363.685 134.467 420.146 134.467 420.146C134.467 420.146 346.726 387.289 451.441 342.941L442.95 302.385L101.808 184.779Z" fill="#39FF14"/>
</g>
<path d="M92.2148 82.4824L390.326 98.5433C390.326 98.5433 419.348 185.499 448.23 234.601C477.111 283.704 524.742 280.506 524.742 280.506C524.742 280.506 415.5 340.236 330.412 372.032C241.857 405.102 165.062 411.045 165.062 411.045C165.062 411.045 95.1157 315.5 92.2148 82.4824Z" fill="#39FF14" stroke="#2E353A" stroke-linecap="round" stroke-linejoin="round"/>
<path d="M126.347 67.0029C120.814 67.0029 116.809 71.9132 115.55 79.6111L121.21 79.9224C122.087 75.4791 123.828 72.6632 126.333 72.6632C129.248 72.6632 132.488 77.347 132.488 84.0827C132.488 90.8184 129.248 95.5164 126.333 95.5164C125.582 95.5164 124.862 95.8146 124.331 96.3453C123.801 96.8761 123.502 97.5959 123.502 98.3465C123.502 99.0971 123.801 99.817 124.331 100.348C124.862 100.878 125.582 101.177 126.333 101.177C132.955 101.177 138.148 93.6627 138.148 84.0827C138.148 74.5027 132.969 67.0029 126.347 67.0029Z" fill="white" stroke="#2E353A" stroke-miterlimit="10"/>
<path d="M134.469 88.666C134.198 89.664 133.848 90.6387 133.422 91.581" stroke="#2E353A" stroke-width="0.75" stroke-linecap="round" stroke-linejoin="round"/>
<path d="M118.353 77.0639C118.353 77.0639 120.475 69.3942 126.744 69.8188C131.668 70.1584 135.729 77.4742 135.05 85.2995" stroke="#2E353A" stroke-width="0.75" stroke-linecap="round" stroke-linejoin="round"/>
<path d="M175.504 69.4795C169.971 69.4795 165.966 74.3898 164.707 82.0877L170.367 82.399C171.245 77.9557 172.985 75.1397 175.49 75.1397C178.405 75.1397 181.645 79.8236 181.645 86.5593C181.645 93.2949 178.405 97.9929 175.49 97.9929C174.739 97.9929 174.019 98.2911 173.489 98.8219C172.958 99.3526 172.66 100.072 172.66 100.823C172.66 101.574 172.958 102.294 173.489 102.824C174.019 103.355 174.739 103.653 175.49 103.653C182.112 103.653 187.306 96.1392 187.306 86.5593C187.306 76.9793 182.141 69.4795 175.504 69.4795Z" fill="white" stroke="#2E353A" stroke-miterlimit="10"/>
<path d="M183.641 91.1426C183.37 92.1405 183.02 93.1153 182.594 94.0576" stroke="#2E353A" stroke-width="0.75" stroke-linecap="round" stroke-linejoin="round"/>
<path d="M167.523 79.5404C167.523 79.5404 169.646 71.8708 175.915 72.2953C180.839 72.6349 184.9 79.9508 184.221 87.7761" stroke="#2E353A" stroke-width="0.75" stroke-linecap="round" stroke-linejoin="round"/>
<path d="M224.692 71.9561C219.16 71.9561 215.155 76.8663 213.896 84.5642L219.556 84.8756C220.433 80.4323 222.174 77.6163 224.678 77.6163C227.593 77.6163 230.834 82.3001 230.834 89.0358C230.834 95.7715 227.593 100.47 224.678 100.47C223.928 100.47 223.208 100.768 222.677 101.298C222.146 101.829 221.848 102.549 221.848 103.3C221.848 104.05 222.146 104.77 222.677 105.301C223.208 105.832 223.928 106.13 224.678 106.13C231.301 106.13 236.494 98.6158 236.494 89.0358C236.494 79.4559 231.315 71.9561 224.692 71.9561Z" fill="white" stroke="#2E353A" stroke-miterlimit="10"/>
<path d="M232.816 93.6191C232.545 94.6171 232.195 95.5919 231.769 96.5342" stroke="#2E353A" stroke-width="0.75" stroke-linecap="round" stroke-linejoin="round"/>
<path d="M216.698 82.017C216.698 82.017 218.821 74.3474 225.09 74.7719C230.014 75.1115 234.075 82.4273 233.396 90.2526" stroke="#2E353A" stroke-width="0.75" stroke-linecap="round" stroke-linejoin="round"/>
<path d="M273.867 74.4326C268.334 74.4326 264.33 79.3429 263.07 87.0408L268.731 87.3521C269.608 82.9088 271.348 80.0929 273.853 80.0929C276.768 80.0929 280.009 84.7767 280.009 91.5124C280.009 98.2481 276.768 102.946 273.853 102.946C273.102 102.946 272.383 103.244 271.852 103.775C271.321 104.306 271.023 105.026 271.023 105.776C271.023 106.527 271.321 107.247 271.852 107.777C272.383 108.308 273.102 108.606 273.853 108.606C280.476 108.606 285.669 101.092 285.669 91.5124C285.669 81.9324 280.49 74.4326 273.867 74.4326Z" fill="white" stroke="#2E353A" stroke-miterlimit="10"/>
<path d="M281.987 96.0957C281.716 97.0937 281.365 98.0684 280.939 99.0107" stroke="#2E353A" stroke-width="0.75" stroke-linecap="round" stroke-linejoin="round"/>
<path d="M265.869 84.4935C265.869 84.4935 267.992 76.8239 274.26 77.2484C279.185 77.5881 283.246 84.9039 282.567 92.7292" stroke="#2E353A" stroke-width="0.75" stroke-linecap="round" stroke-linejoin="round"/>
<path d="M323.93 76.624C318.397 76.624 314.393 81.5343 313.147 89.2464L318.808 89.5577C319.699 85.1144 321.44 82.2843 323.93 82.2843C326.845 82.2843 330.1 86.9823 330.1 93.718C330.1 100.454 326.845 105.137 323.93 105.137C323.18 105.137 322.46 105.436 321.929 105.966C321.398 106.497 321.1 107.217 321.1 107.968C321.1 108.718 321.398 109.438 321.929 109.969C322.46 110.5 323.18 110.798 323.93 110.798C330.567 110.798 335.76 103.298 335.76 93.718C335.76 84.138 330.567 76.624 323.93 76.624Z" fill="white" stroke="#2E353A" stroke-miterlimit="10"/>
<path d="M332.053 98.3047C331.784 99.2988 331.434 100.269 331.006 101.206" stroke="#2E353A" stroke-width="0.75" stroke-linecap="round" stroke-linejoin="round"/>
<path d="M315.936 86.6991C315.936 86.6991 318.072 79.0153 324.327 79.4398C329.265 79.7794 333.312 87.1095 332.647 94.9347" stroke="#2E353A" stroke-width="0.75" stroke-linecap="round" stroke-linejoin="round"/>
<path d="M372.029 79.2705C366.496 79.2705 362.491 84.1808 361.246 91.8787L366.906 92.2042C367.798 87.7609 369.538 84.9307 372.029 84.9307C374.944 84.9307 378.198 89.6288 378.198 96.3503C378.198 103.072 374.944 107.784 372.029 107.784C371.278 107.784 370.558 108.082 370.028 108.613C369.497 109.144 369.199 109.863 369.199 110.614C369.199 111.365 369.497 112.085 370.028 112.615C370.558 113.146 371.278 113.444 372.029 113.444C378.665 113.444 383.859 105.93 383.859 96.3503C383.859 86.7703 378.665 79.2705 372.029 79.2705Z" fill="white" stroke="#2E353A" stroke-miterlimit="10"/>
<path d="M380.153 100.865C379.886 101.865 379.536 102.84 379.105 103.78" stroke="#2E353A" stroke-width="0.75" stroke-linecap="round" stroke-linejoin="round"/>
<path d="M364.035 89.2762C364.035 89.2762 366.172 81.5924 372.426 82.017C377.365 82.3566 381.412 89.6724 380.747 97.4977" stroke="#2E353A" stroke-width="0.75" stroke-linecap="round" stroke-linejoin="round"/>
<path d="M438.369 234.828C417.864 199.96 396.327 144.9 388.672 124.637L122.258 113.84C122.088 310.745 181.691 392.097 181.691 392.097C181.691 392.097 249.543 386.847 327.796 357.612C402.992 329.523 492.679 282.374 492.679 282.374C492.679 282.374 463.882 278.227 438.369 234.828Z" fill="white" stroke="#2E353A" stroke-linecap="round" stroke-linejoin="round"/>
<path d="M388.671 124.637L122.258 113.84C122.258 133.212 122.81 151.438 123.829 168.603L405.171 165.971C397.883 148.608 392.011 133.396 388.671 124.637Z" fill="#2E353A" stroke="#2E353A" stroke-linecap="round" stroke-linejoin="round"/>
<path d="M393.381 183.334L405.975 182.896" stroke="#2E353A" stroke-width="3" stroke-linecap="round" stroke-linejoin="round"/>
<path d="M356.363 184.593L383.943 183.645" stroke="#2E353A" stroke-width="3" stroke-linecap="round" stroke-linejoin="round"/>
<path d="M311.548 186.11L346.995 184.907" stroke="#2E353A" stroke-width="3" stroke-linecap="round" stroke-linejoin="round"/>
<path d="M265.956 187.651L303.724 186.378" stroke="#2E353A" stroke-width="3" stroke-linecap="round" stroke-linejoin="round"/>
<path d="M221.877 189.151L256.503 187.977" stroke="#2E353A" stroke-width="3" stroke-linecap="round" stroke-linejoin="round"/>
<path d="M175.435 190.737L210.089 189.548" stroke="#2E353A" stroke-width="3" stroke-linecap="round" stroke-linejoin="round"/>
<path d="M134.553 192.122L166.802 191.019" stroke="#2E353A" stroke-width="3" stroke-linecap="round" stroke-linejoin="round"/>
<path d="M129.302 222.476L422.403 204.618" stroke="#2E353A" stroke-linecap="round" stroke-linejoin="round"/>
<path d="M175.619 219.955C175.619 219.955 180.43 297.897 231.811 384.413" stroke="#2E353A" stroke-linecap="round" stroke-linejoin="round"/>
<path d="M222.91 216.83C222.91 216.83 228.33 305.979 284.663 371.256" stroke="#2E353A" stroke-linecap="round" stroke-linejoin="round"/>
<path d="M265.73 214.197C265.73 214.197 268.561 296.271 331.885 355.25" stroke="#2E353A" stroke-linecap="round" stroke-linejoin="round"/>
<path d="M310.119 212.286C310.119 212.286 317.11 303.529 378.396 335.665" stroke="#2E353A" stroke-linecap="round" stroke-linejoin="round"/>
<path d="M356.634 208.62C356.634 208.62 361.558 277.633 424.245 315.429" stroke="#2E353A" stroke-linecap="round" stroke-linejoin="round"/>
<path d="M393.253 206.387C393.253 206.387 410.12 277.14 457.313 300.05" stroke="#2E353A" stroke-linecap="round" stroke-linejoin="round"/>
<path d="M135.729 262.678L435.099 229.75" stroke="#2E353A" stroke-linecap="round" stroke-linejoin="round"/>
<path d="M143.54 297.898C143.54 297.898 207.458 295.394 449.023 250.876" stroke="#2E353A" stroke-linecap="round" stroke-linejoin="round"/>
<path d="M154.815 335.183C154.815 335.183 217.078 342.259 461.006 264.586" stroke="#2E353A" stroke-linecap="round" stroke-linejoin="round"/>
<path d="M168.286 367.716C168.286 367.716 220.191 384.909 475.156 275.737" stroke="#2E353A" stroke-linecap="round" stroke-linejoin="round"/>
<path d="M237.33 152.36L141.36 151.072C140.583 151.06 139.836 150.767 139.258 150.247C138.681 149.726 138.311 149.014 138.219 148.242L137.398 140.487C137.35 140.041 137.397 139.59 137.537 139.163C137.676 138.736 137.904 138.344 138.207 138.012C138.509 137.68 138.878 137.417 139.29 137.238C139.702 137.06 140.147 136.971 140.596 136.978L235.405 138.619C236.106 138.632 236.783 138.874 237.333 139.308C237.882 139.743 238.274 140.346 238.448 141.025L240.372 148.397C240.492 148.864 240.505 149.351 240.409 149.823C240.313 150.295 240.11 150.738 239.817 151.12C239.524 151.502 239.147 151.812 238.716 152.027C238.285 152.242 237.811 152.356 237.33 152.36Z" fill="white"/>
</svg>
