<svg width="257" height="283" viewBox="0 0 257 283" fill="none" xmlns="http://www.w3.org/2000/svg">
<path d="M200.683 22.6838L144.882 2.96484V42.4029L200.683 22.6838Z" fill="#39FF14" stroke="#263238" stroke-linecap="round" stroke-linejoin="round"/>
<path d="M145.331 1.07129H143.121V84.9809H145.331V1.07129Z" fill="#FF3DF0" stroke="#263238" stroke-linecap="round" stroke-linejoin="round"/>
<path d="M183.672 74.7637H171.213V82.8706H163.621V74.7637H152.989V82.8706H145.397V74.7637H134.765V82.8706H127.173V74.7637H115.827L107.338 159.57H192.145L183.672 74.7637Z" fill="#FF3DF0" stroke="#263238" stroke-linecap="round" stroke-linejoin="round"/>
<path d="M220.768 142.792H208.325V150.882H203.026L202.212 142.792H200.733H190.101H189.769V150.882H184.47L183.672 142.792H182.493H182.177H171.861H171.545H171.213V150.882H165.93L165.116 142.792H164.269H163.953H163.621H153.305H152.989H152.922H152.657V145.4L152.125 150.882H147.374L146.56 142.792H145.713H145.397H145.065H134.765H134.433H134.383H134.117V145.4L133.569 150.882H127.173V142.792H126.841H126.525H116.209H115.893H115.827L115.013 150.882H108.617V142.792H108.285H97.6528H97.2707L96.4567 150.882H90.0609V142.792H78.7145L70.2422 227.599H88.7983H107.338H125.894H144.45H155.049H173.605H192.144H210.701H229.257L220.768 142.792Z" fill="#FF3DF0" stroke="#263238" stroke-linecap="round" stroke-linejoin="round"/>
<path d="M207.163 217H100.278V272.652H207.163V217Z" fill="#FF3DF0" stroke="#263238" stroke-linecap="round" stroke-linejoin="round"/>
<path d="M119.183 187.846H106.724V195.936H99.1317V187.846H88.4997V195.936H80.9078V187.846H70.2758V195.936H62.6839V187.846H51.3376L42.8486 272.652H127.655L119.183 187.846Z" fill="#FF3DF0" stroke="#263238" stroke-linecap="round" stroke-linejoin="round"/>
<path d="M247.265 187.846H234.822V195.936H227.23V187.846H216.598V195.936H209.006V187.846H198.358V195.936H190.766V187.846H179.436L170.947 272.652H255.754L247.265 187.846Z" fill="#FF3DF0" stroke="#263238" stroke-linecap="round" stroke-linejoin="round"/>
<path d="M147.873 234.659H148.986C151.299 234.659 153.517 235.578 155.153 237.214C156.789 238.849 157.708 241.068 157.708 243.381V272.652H139.151V243.381C139.151 241.068 140.07 238.849 141.706 237.214C143.341 235.578 145.56 234.659 147.873 234.659Z" fill="#263238" stroke="#263238" stroke-linecap="round" stroke-linejoin="round"/>
<path d="M148.487 98.6191H149.218C150.76 98.6191 152.239 99.2317 153.33 100.322C154.42 101.413 155.033 102.891 155.033 104.434V118.936H142.673V104.434C142.673 102.891 143.285 101.413 144.376 100.322C145.466 99.2317 146.945 98.6191 148.487 98.6191Z" fill="#263238" stroke="#263238" stroke-linecap="round" stroke-linejoin="round"/>
<path d="M148.487 166.647H149.218C150.76 166.647 152.239 167.26 153.33 168.35C154.42 169.441 155.033 170.92 155.033 172.462V186.964H142.673V172.462C142.673 170.92 143.285 169.441 144.376 168.35C145.466 167.26 146.945 166.647 148.487 166.647Z" fill="#263238" stroke="#263238" stroke-linecap="round" stroke-linejoin="round"/>
<path d="M1.03516 280.891C1.03516 280.891 52.5338 270.924 82.021 266.173C111.508 261.422 155.116 272.07 175.051 273.25C194.986 274.429 245.72 273.25 245.72 273.25" fill="#FF3DF0"/>
<path d="M1.03516 280.891C1.03516 280.891 52.5338 270.924 82.021 266.173C111.508 261.422 155.116 272.07 175.051 273.25C194.986 274.429 245.72 273.25 245.72 273.25" stroke="#263238" stroke-linecap="round" stroke-linejoin="round"/>
<path d="M254.276 282.071C254.276 282.071 195.9 273.765 173.888 269.113C151.876 264.462 119.299 275.011 104.332 276.19C89.3638 277.37 51.5039 276.19 51.5039 276.19" fill="#FF3DF0"/>
<path d="M254.276 282.071C254.276 282.071 195.9 273.765 173.888 269.113C151.876 264.462 119.299 275.011 104.332 276.19C89.3638 277.37 51.5039 276.19 51.5039 276.19" stroke="#263238" stroke-linecap="round" stroke-linejoin="round"/>
</svg>
