<svg width="254" height="705" viewBox="0 0 254 705" fill="none" xmlns="http://www.w3.org/2000/svg">
<path d="M238.295 640.811H230.829L226.156 207.319H242.967L238.295 640.811Z" fill="#263238"/>
<path d="M251.959 204.955C251.028 203.224 249.074 203.485 246.84 199.761C244.606 196.038 240.193 197.564 238.779 197.136C237.364 196.708 237.308 196.112 237.68 194.195C238.052 192.277 238.741 186.041 235.818 186.432C232.896 186.823 231.574 193.469 231.164 195.07C229.786 198.039 228.232 200.924 226.51 203.708C225.164 204.222 223.775 204.615 222.359 204.881C220.757 205.086 219.25 208.381 219.175 209.926C219.175 210.913 221.167 213.78 222.712 215.772C223.533 217.512 224.466 219.197 225.505 220.817C225.505 220.817 227.366 222.679 232.244 221.468C237.122 220.258 247.137 225.043 248.254 223.963C249.371 222.883 251.512 217.056 252.332 213.854C253.131 210.921 253.001 207.812 251.959 204.955Z" fill="white" stroke="#263238" stroke-linecap="round" stroke-linejoin="round"/>
<path d="M218.281 218.099C218.267 216.415 218.732 214.762 219.621 213.333C220.943 211.918 222.675 207.282 224.294 206.389C225.914 205.495 236.656 203.019 242.725 207.45C248.794 211.881 248.049 218.397 248.552 221.524C249.055 224.652 241.254 235.077 239.244 235.45C237.233 235.822 244.438 221.319 236.674 216.945C234.627 215.734 224.909 217.149 218.281 218.099Z" fill="white" stroke="#263238" stroke-linecap="round" stroke-linejoin="round"/>
<path d="M130.597 60.6932C130.597 60.6932 133.65 56.0018 134.748 62.1081C135.847 68.2144 133.203 74.7675 129.685 77.1132C126.166 79.459 124.621 77.1132 124.621 74.7675C124.621 72.4218 130.597 60.6932 130.597 60.6932Z" fill="white" stroke="#263238" stroke-linecap="round" stroke-linejoin="round"/>
<path d="M71.3759 63.039C70.3656 62.6668 69.2518 62.6925 68.2598 63.1107C67.2677 63.529 66.4717 64.3085 66.0329 65.2916C65.7745 65.9153 65.697 66.5992 65.8094 67.265C65.8094 72.85 73.9077 80.8925 77.4449 79.0122C80.9821 77.1319 71.3759 63.039 71.3759 63.039Z" fill="white" stroke="#263238" stroke-linecap="round" stroke-linejoin="round"/>
<path d="M100.753 8.11925C100.753 8.11925 92.8597 20.3319 84.5938 23.627C73.9636 27.8531 65.3627 40.5497 65.977 50.8634C66.5914 61.1771 82.7321 95.0225 85.1896 95.9719C87.647 96.9214 119.593 94.557 120.561 93.1608C121.53 91.7645 126.146 77.653 130.168 64.0255C134.189 50.398 134.208 43.3608 134.208 43.3608C135.671 38.9764 136.37 34.3732 136.274 29.752C135.976 24.1669 125.942 15.6032 125.942 15.6032C125.942 15.6032 117.248 6.14587 113.58 8.15648C110.008 10.3467 106.772 13.0432 103.974 16.1617L100.753 8.11925Z" fill="#263238" stroke="#263238" stroke-linecap="round" stroke-linejoin="round"/>
<path d="M34.8502 312.913C34.8502 312.913 41.7011 322.538 42.0735 326.261C42.4458 329.985 42.4272 336.984 42.7809 339.293C42.9028 339.749 42.9225 340.226 42.8384 340.69C42.7544 341.155 42.5687 341.595 42.2948 341.979C42.0209 342.363 41.6654 342.682 41.2538 342.913C40.8422 343.144 40.3847 343.281 39.914 343.314C39.3382 343.269 38.7799 343.095 38.2804 342.805C37.7809 342.515 37.353 342.116 37.0283 341.639C37.2437 343.525 37.6047 345.393 38.1081 347.224C38.8156 349.569 42.7809 351.58 42.4272 353.907C42.0735 356.234 38.1081 357.258 32.6906 357.258C29.5083 357.296 26.3841 356.405 23.6995 354.696C21.015 352.987 18.8864 350.532 17.5738 347.633C14.3531 340.615 11.1138 320.546 11.1138 316.822C11.1138 313.099 31.2571 310.232 34.8502 312.913Z" fill="white" stroke="#263238" stroke-linecap="round" stroke-linejoin="round"/>
<path d="M27.3105 325.275C27.3105 325.275 28.744 328.273 25.8584 332.964C23.925 335.712 22.4651 338.764 21.5393 341.993C22.3413 344.345 23.4293 346.59 24.7786 348.677C26.2307 351.358 30.9966 351.041 31.2573 353.387C31.3965 354.024 31.4039 354.683 31.279 355.323C31.1542 355.964 30.8997 356.572 30.5312 357.11" stroke="#515B60" stroke-linecap="round" stroke-linejoin="round"/>
<path d="M31.853 339.498C32.1586 342.133 32.7837 344.721 33.7147 347.205C35.1668 350.556 42.7252 352.548 39.9327 356.235" stroke="#515B60" stroke-linecap="round" stroke-linejoin="round"/>
<path d="M27.311 340.987C27.673 343.171 28.2981 345.302 29.1727 347.336C30.2525 349.197 37.4572 351.338 36.0051 356.644" stroke="#515B60" stroke-linecap="round" stroke-linejoin="round"/>
<path d="M37.029 341.657C37.029 341.657 36.3029 336.296 35.9492 334.211C35.6949 332.291 35.5705 330.357 35.5769 328.421" stroke="#515B60" stroke-linecap="round" stroke-linejoin="round"/>
<path d="M155.152 107.756C145.541 100.819 134.476 96.1643 122.796 94.147C102.559 90.4236 75.7512 96.4927 65.0837 103.064C61.9771 105.027 59.3297 107.636 57.3218 110.714C55.314 113.791 53.9928 117.265 53.4482 120.899L155.152 107.756Z" fill="white" stroke="#263238" stroke-linecap="round" stroke-linejoin="round"/>
<path d="M243.824 222.213C244.68 235.747 214.744 250.529 200.577 233.476C190.114 220.891 173.899 167.684 173.899 167.684C173.899 167.684 170.045 249.896 170.045 255.071C169.763 259.489 168.982 263.86 167.718 268.103C167.718 268.103 166.918 273.837 163.381 276.164C159.843 278.491 158.373 285.472 114.828 288.749C88.8707 290.853 62.744 288.792 37.4379 282.643C35.4459 282.159 34.422 271.361 34.422 271.361L32.914 302.823C31.0762 304.717 28.8278 306.163 26.3423 307.049C22.3025 308.464 10.6484 307.515 8.1351 306.1C5.62183 304.685 0.4836 266.669 1.0421 260.098C1.60061 253.526 5.82661 162.453 14.8185 141.118C22.1349 123.786 34.3289 115.929 51.5308 111.219C68.7328 106.509 103.546 107.31 105.52 106.844C105.52 106.844 139.216 108.706 155.45 105.932C155.45 105.932 185.832 104.703 195.141 122.054C201.806 134.378 209.699 158.134 213.758 170.793C215.649 176.764 217.932 182.603 220.59 188.274L227.236 202.46C235.521 205.141 243.321 214.263 243.824 222.213Z" fill="#39FF14" stroke="#263238" stroke-linecap="round" stroke-linejoin="round"/>
<path d="M89.0059 138.66C89.0059 138.66 95.8568 163.7 115.963 173.92" stroke="#515B60" stroke-linecap="round" stroke-linejoin="round"/>
<path d="M118.608 184.979C120.134 185.705 121.698 186.412 123.28 187.101" stroke="#515B60" stroke-linecap="round" stroke-linejoin="round"/>
<path d="M89.0059 164.612C95.7486 170.964 103.216 176.501 111.253 181.107" stroke="#515B60" stroke-linecap="round" stroke-linejoin="round"/>
<path d="M180.508 265.235C103.118 297.629 33.845 271.342 33.845 271.342C33.845 271.342 34.8503 282.139 36.8609 282.624C62.149 288.766 88.2563 290.827 114.195 288.73C157.721 285.435 175.891 279.421 179.354 276.983C182.817 274.544 182.407 267.674 182.407 267.674C182.425 266.753 182.493 265.833 182.612 264.919L180.508 265.235Z" fill="white" stroke="#263238" stroke-linecap="round" stroke-linejoin="round"/>
<path d="M1.97339 301.39C1.97339 301.39 13.6089 306.081 23.2152 303.251C32.8214 300.422 35.3533 297.666 36.8613 298.076C38.3692 298.485 38.4065 309.804 36.8613 313.1C35.3161 316.395 31.7975 318.685 21.1859 319.69C10.5743 320.695 5.00792 315.836 4.00261 313.1C3.06193 309.247 2.38397 305.334 1.97339 301.39Z" fill="white" stroke="#263238" stroke-linecap="round" stroke-linejoin="round"/>
<path d="M32.8022 155.602C32.9363 180.06 35.5435 204.441 40.5841 228.375" stroke="#515B60" stroke-linecap="round" stroke-linejoin="round"/>
<path d="M65.363 33.6618C60.6158 43.8825 60.5599 50.4169 64.73 60.8237C69.98 73.8555 82.1926 78.0443 89.6207 78.7331C103.304 80.0363 116.634 79.3661 128.195 72.3848C139.756 65.4035 144.764 49.9143 142.511 37.1432C140.649 26.1593 133.612 11.0797 122.591 7.09566C97.1419 -2.1755 75.8071 11.1355 65.363 33.6618Z" fill="#BFBFBF" stroke="#263238" stroke-linecap="round" stroke-linejoin="round"/>
<path d="M70.0365 23.9812C64.8238 33.1407 63.9302 39.3959 66.3131 49.8958C67.4202 55.19 70.1805 59.9956 74.1958 63.6193C78.211 67.2431 83.2737 69.4977 88.6533 70.0578C102.318 71.5285 115.629 70.6163 126.39 62.1829C136.536 54.2335 138.751 38.2603 134.991 26.4758C132.03 17.1674 124.975 5.55056 116.206 2.70219C96.8819 -3.59029 80.2757 5.94151 70.0365 23.9812Z" fill="#999999" stroke="#263238" stroke-linecap="round" stroke-linejoin="round"/>
<path d="M102.373 26.4946C105.633 26.4946 108.275 24.1691 108.275 21.3005C108.275 18.4319 105.633 16.1064 102.373 16.1064C99.1139 16.1064 96.4717 18.4319 96.4717 21.3005C96.4717 24.1691 99.1139 26.4946 102.373 26.4946Z" fill="#263238" stroke="#263238" stroke-linecap="round" stroke-linejoin="round"/>
<path d="M87.2192 30.0879C80.2192 41.109 80.4427 55.3323 81.9878 68.9598" stroke="#263238" stroke-linecap="round" stroke-linejoin="round"/>
<path d="M105.278 32.5078C107.237 44.9288 107.805 57.5296 106.972 70.0765" stroke="#263238" stroke-linecap="round" stroke-linejoin="round"/>
<path d="M121.828 27.6299C127.646 36.794 130.021 47.726 128.53 58.4779" stroke="#263238" stroke-linecap="round" stroke-linejoin="round"/>
<path d="M227.274 212.122C227.796 214.929 227.614 217.823 226.743 220.542C225.872 223.262 224.34 225.723 222.284 227.704" stroke="#515B60" stroke-linecap="round" stroke-linejoin="round"/>
<path d="M198.827 153.554C198.622 154.913 198.361 156.272 198.063 157.612" stroke="#515B60" stroke-linecap="round" stroke-linejoin="round"/>
<path d="M196.406 123.655C199.18 132.097 200.162 141.025 199.292 149.868" stroke="#515B60" stroke-linecap="round" stroke-linejoin="round"/>
<path d="M42.2033 288.47C42.2033 288.47 33.3045 324.084 34.7566 339.126C36.2087 354.169 33.621 398.942 39.2619 433.309C47.2671 482.01 44.9959 528.403 45.8708 551.991C46.312 560.144 45.2841 568.31 42.8363 576.099C40.9746 581.554 40.472 590.043 47.0251 600.767C47.1368 602.628 51.2511 602.051 51.8096 603.894C51.8096 603.894 59.4053 608.604 63.9664 609.051C68.5275 609.498 62.7935 614.171 86.3065 601.102C91.5565 598.179 94.4234 581.312 92.2639 574.405C88.9315 563.775 94.1256 547.225 92.9155 495.787C92.357 472.311 90.8118 481.154 97.1229 445.019C107.008 388.461 104.961 349.347 104.961 349.347C105.719 353.661 106.26 358.01 106.58 362.379C107.344 385.315 112.854 452.987 114.027 510.457C114.902 557.539 120.022 613.631 120.022 617.392C120.022 621.152 119.091 629.325 119.091 632.62C119.091 635.915 118.793 641.928 120.301 644.2C121.537 646.442 122.553 648.799 123.335 651.237C123.335 651.237 141.543 654.048 146.588 654.048C151.633 654.048 157.33 650.101 157.33 650.101L158.242 646.378C160.42 637.553 164.274 635.655 165.223 626.644C171.143 570.328 174.978 548.938 175.332 383.192C175.332 376.658 169.282 292.715 169.282 292.715L168.258 281.433C168.258 281.433 115.163 288.023 89.881 284.728C64.5993 281.433 43.8416 280.483 43.8416 280.483L42.2033 288.47Z" fill="white" stroke="#263238" stroke-linecap="round" stroke-linejoin="round"/>
<path d="M85.9906 651.125C85.9906 654.979 78.0226 656.58 70.0546 656.878C65.067 656.944 60.1602 655.616 55.8872 653.043C55.8872 653.043 49.0921 653.564 46.7091 650.846C44.3262 648.128 45.5549 641.798 47.0442 639.676C48.5335 637.553 54.2861 632.415 56.3526 628.506C57.6744 625.974 51.9218 616.554 51.3075 599.761C52.8355 598.278 54.7877 597.309 56.8925 596.987L57.9536 607.934C57.9536 607.934 77.5944 604.695 82.3417 608.511C82.9746 609.032 83.5145 609.088 83.9613 608.79C82.586 614.606 82.6884 620.673 84.2592 626.439C89.1554 642.952 85.9906 649.543 85.9906 651.125Z" fill="#757575" stroke="#263238" stroke-linecap="round" stroke-linejoin="round"/>
<path d="M83.9055 608.772C83.4587 609.07 82.9188 609.014 82.2858 608.493C77.5385 604.676 57.8978 607.915 57.8978 607.915L56.8367 596.969C62.9482 595.642 69.2284 595.272 75.4535 595.87C79.7167 596.317 84.7619 598.924 85.5996 600.953C85.8975 601.511 84.7619 604.49 83.9055 608.772Z" fill="#263238"/>
<path d="M55.9244 652.968C60.1981 655.54 65.1045 656.868 70.0917 656.804C78.0597 656.506 86.0277 654.942 86.0277 651.051V648.016C81.8791 649.69 77.4672 650.616 72.996 650.753C62.3844 651.312 57.6557 648.296 55.5893 648.035C53.9138 647.812 49.334 648.836 45.4431 647.197C45.5033 648.488 45.9581 649.729 46.7463 650.753C49.0362 653.49 55.9244 652.968 55.9244 652.968Z" fill="#BFBFBF" stroke="#263238" stroke-linecap="round" stroke-linejoin="round"/>
<path d="M55.8875 639.787L57.0603 652.968" stroke="#515B60" stroke-linecap="round" stroke-linejoin="round"/>
<path d="M119.78 698.077C119.78 702.34 128.586 704.127 137.41 704.463C142.934 704.53 148.368 703.061 153.104 700.218C153.104 700.218 160.551 700.776 163.25 697.779C165.95 694.782 164.554 687.745 162.897 685.343C161.24 682.942 154.873 677.319 152.564 673.019C151.131 670.208 157.498 659.782 158.149 641.184C156.466 639.564 154.33 638.493 152.024 638.112L150.852 650.25C150.852 650.25 129.107 646.657 123.857 650.883C123.15 651.461 122.554 651.516 121.996 651.181C123.533 657.62 123.424 664.343 121.679 670.729C116.299 689.122 119.78 696.327 119.78 698.077Z" fill="#757575" stroke="#263238" stroke-linecap="round" stroke-linejoin="round"/>
<path d="M122.107 651.181C122.61 651.517 123.206 651.461 123.969 650.884C129.219 646.658 150.963 650.251 150.963 650.251L152.136 638.112C145.346 636.642 138.368 636.234 131.453 636.902C126.743 637.405 121.176 640.272 120.283 642.487C119.91 643.158 121.176 646.434 122.107 651.181Z" fill="#263238"/>
<path d="M163.288 697.686C164.147 696.535 164.646 695.155 164.721 693.721C160.402 695.582 155.413 694.41 153.551 694.652C151.28 694.949 146.104 698.375 134.283 697.686C129.326 697.521 124.436 696.488 119.836 694.633V697.984C119.836 702.229 128.66 704.053 137.485 704.351C143.005 704.441 148.439 702.97 153.16 700.106C153.16 700.106 160.737 700.665 163.288 697.686Z" fill="#BFBFBF" stroke="#263238" stroke-linecap="round" stroke-linejoin="round"/>
<path d="M151.838 700.106L153.141 685.529" stroke="#515B60" stroke-linecap="round" stroke-linejoin="round"/>
<path d="M51.8474 459.205C55.9402 475.806 65.2204 490.668 78.3391 501.633" stroke="#515B60" stroke-linecap="round" stroke-linejoin="round"/>
<path d="M49.7993 443.883C49.8766 447.051 50.169 450.211 50.6743 453.34" stroke="#515B60" stroke-linecap="round" stroke-linejoin="round"/>
<path d="M62.1797 465.051C64.728 468.22 67.9147 470.818 71.5327 472.675C75.1506 474.532 79.1188 475.607 83.1794 475.83" stroke="#515B60" stroke-linecap="round" stroke-linejoin="round"/>
<path d="M124.304 531.903C137.441 528.825 148.973 520.993 156.679 509.917" stroke="#515B60" stroke-linecap="round" stroke-linejoin="round"/>
<path d="M128.399 513.175C135.913 512.651 142.977 509.4 148.264 504.034" stroke="#515B60" stroke-linecap="round" stroke-linejoin="round"/>
<path d="M53.3737 188.777L37.4377 111.797L59.5545 107.385L66.6475 187.009L53.3737 188.777Z" fill="#263238"/>
<path d="M156.269 185.24L172.205 108.26L150.088 103.848L143.013 183.472L156.269 185.24Z" fill="#263238"/>
<path d="M88.2986 173.734V219.494H88.1125L81.8572 229.585L75.6206 219.494H75.4158V186.934H75.3972V173.734H88.2986Z" fill="#263238" stroke="#263238" stroke-linecap="round" stroke-linejoin="round"/>
<path d="M134.823 102.954H121.921V121.813H134.823V102.954Z" fill="#263238" stroke="#263238" stroke-linecap="round" stroke-linejoin="round"/>
<path d="M134.823 131.27H121.921V164.296H134.823V131.27Z" fill="#263238" stroke="#263238" stroke-linecap="round" stroke-linejoin="round"/>
<path d="M164.051 140.467L156.455 162.807C153.663 173.4 145.285 181.74 134.841 187.195V219.439V173.809H141.73V164.371H134.841V131.27H141.73V121.813H134.841V102.954H121.94V121.813H115.052V131.27H121.94V164.296H115.052V173.809H121.94V192.426L119.836 192.947L117.863 193.376C117.764 193.367 117.664 193.367 117.565 193.376L116.69 193.543L115.424 193.767H114.959L113.804 193.953L112.501 194.12H112.334L111.03 194.251H110.733L109.448 194.381H109.299H107.977C107.549 194.381 107.121 194.381 106.655 194.381H105.129C99.4619 194.383 93.8223 193.594 88.3738 192.035V219.327V173.809H95.262V164.371H88.3738V131.27H95.262V121.813H88.3738V102.954H75.4723V121.813H68.5841V131.27H75.4723V164.296H68.5841V173.809H75.4723V187.009C65.1028 181.312 56.8555 172.73 54.0816 162.155L46.2253 140.541L67.6533 102.749H142.12L164.051 140.467Z" fill="white" stroke="#263238" stroke-linecap="round" stroke-linejoin="round"/>
<path d="M146.532 229.585V229.957H65.2888L105.911 250.547L146.532 229.957V279.813H63.8367V229.585H146.532Z" fill="white" stroke="#263238" stroke-linecap="round" stroke-linejoin="round"/>
<path d="M192.386 332.052L152.732 327.305C122.732 323.684 92.4043 323.684 62.4036 327.305L23.5131 332.052L22.4333 326.467C19.8273 312.929 20.1957 298.986 23.5131 285.604L84.7624 291.412C99.9692 292.855 115.278 292.855 130.485 291.412L192.386 285.659C195.907 300.633 195.977 316.21 192.591 331.215L192.386 332.052Z" fill="#263238"/>
<path d="M116.541 283.146H100.289V331.121H116.541V283.146Z" fill="white" stroke="#263238" stroke-linecap="round" stroke-linejoin="round"/>
<path d="M164.051 140.467V278.678C164.051 287.204 156.604 294.13 147.463 294.13H62.7941C53.5974 294.13 46.1506 287.204 46.1506 278.678V140.467L54.0069 162.081C56.8553 172.655 65.0281 181.238 75.3976 186.934V219.495H75.5838L81.839 229.585H63.9297V279.851H146.626V229.66H128.493L134.748 219.57H134.934V187.251C145.434 181.796 153.756 173.456 156.548 162.863L164.051 140.467Z" fill="#757575" stroke="#263238" stroke-linecap="round" stroke-linejoin="round"/>
<path d="M75.4158 186.934H75.3972V219.513H75.4158V186.934Z" stroke="#515B60" stroke-linecap="round" stroke-linejoin="round"/>
<path d="M81.8579 229.585L75.584 219.495H75.6212L81.8579 229.585Z" stroke="#515B60" stroke-linecap="round" stroke-linejoin="round"/>
<path d="M128.362 229.659H81.8203L88.0756 219.569H88.2803V192.202C93.7289 193.761 99.3684 194.55 105.035 194.548H106.748C107.214 194.548 107.642 194.548 108.07 194.548H109.392H109.541L110.825 194.418H111.123L112.426 194.287H112.575L113.878 194.12L115.033 193.933H115.498L116.764 193.71L117.639 193.543C117.738 193.534 117.838 193.534 117.937 193.543L119.91 193.114L122.014 192.593V219.811H122.2L128.362 229.659Z" fill="#757575" stroke="#263238" stroke-linecap="round" stroke-linejoin="round"/>
<path d="M121.94 192.24V219.495H121.921V192.277L121.94 192.24Z" stroke="#515B60" stroke-linecap="round" stroke-linejoin="round"/>
<path d="M128.362 229.585L122.107 219.495H122.126L128.362 229.585Z" stroke="#515B60" stroke-linecap="round" stroke-linejoin="round"/>
<path d="M146.533 229.957L124.062 245.353C118.717 249.015 112.39 250.975 105.911 250.975C99.4319 250.975 93.1044 249.015 87.7595 245.353L65.2891 229.957H146.533Z" fill="white" stroke="#263238" stroke-linecap="round" stroke-linejoin="round"/>
<path d="M188.55 247.513V279.813H164.051V229.659H169.263C179.912 229.659 188.55 237.609 188.55 247.513Z" fill="white" stroke="#263238" stroke-linecap="round" stroke-linejoin="round"/>
<path d="M46.15 229.659V279.925H21.6689V247.513C21.6689 237.609 30.3071 229.585 40.9373 229.585L46.15 229.659Z" fill="white" stroke="#263238" stroke-linecap="round" stroke-linejoin="round"/>
<path d="M88.2986 131.27H75.3972V164.296H88.2986V131.27Z" fill="#263238" stroke="#263238" stroke-linecap="round" stroke-linejoin="round"/>
<path d="M75.4158 186.934H75.3972V219.513H75.4158V186.934Z" stroke="#515B60" stroke-linecap="round" stroke-linejoin="round"/>
<path d="M81.8579 229.585L75.584 219.495H75.6212L81.8579 229.585Z" stroke="#515B60" stroke-linecap="round" stroke-linejoin="round"/>
<path d="M88.2986 102.954H75.3972V121.813H88.2986V102.954Z" fill="#263238" stroke="#263238" stroke-linecap="round" stroke-linejoin="round"/>
<path d="M134.823 173.734V219.494H134.637L128.363 229.585L122.126 219.494H121.94V192.239L121.921 192.277V173.734H134.823Z" fill="#263238" stroke="#263238" stroke-linecap="round" stroke-linejoin="round"/>
<path d="M121.94 192.24V219.495H121.921V192.277L121.94 192.24Z" stroke="#515B60" stroke-linecap="round" stroke-linejoin="round"/>
<path d="M128.362 229.585L122.107 219.495H122.126L128.362 229.585Z" stroke="#515B60" stroke-linecap="round" stroke-linejoin="round"/>
<path d="M95.1874 121.812H68.5095V131.27H95.1874V121.812Z" fill="#39FF14" stroke="#263238" stroke-linecap="round" stroke-linejoin="round"/>
<path d="M141.71 121.812H115.032V131.27H141.71V121.812Z" fill="#39FF14" stroke="#263238" stroke-linecap="round" stroke-linejoin="round"/>
<path d="M95.1874 164.296H68.5095V173.753H95.1874V164.296Z" fill="#39FF14" stroke="#263238" stroke-linecap="round" stroke-linejoin="round"/>
<path d="M141.71 164.296H115.032V173.753H141.71V164.296Z" fill="#39FF14" stroke="#263238" stroke-linecap="round" stroke-linejoin="round"/>
<path d="M105.091 356.515C111.594 361.509 119.272 364.745 127.387 365.912C135.503 367.079 143.782 366.138 151.428 363.179" stroke="#515B60" stroke-linecap="round" stroke-linejoin="round"/>
<path d="M106.432 365.171C99.3597 383.127 88.6983 399.452 75.0996 413.146" stroke="#515B60" stroke-linecap="round" stroke-linejoin="round"/>
<path d="M105.221 352.791L103.36 359.437C100.79 368.913 98.9102 376.341 94.6283 385.184L86.679 400.227L105.482 370.049L105.221 352.791Z" fill="#263238" stroke="#263238" stroke-linecap="round" stroke-linejoin="round"/>
<path d="M105.091 356.515L108.814 394.474L110.676 387.363C111.979 378.557 118.123 371.65 124.974 365.953C119.537 364.777 114.366 362.599 109.727 359.531C108.61 358.693 106.971 357.706 105.091 356.515Z" fill="#263238" stroke="#263238" stroke-linecap="round" stroke-linejoin="round"/>
<path d="M36.0039 330.283C36.8044 345.177 44.2884 354.802 54.3042 358.655" stroke="#515B60" stroke-linecap="round" stroke-linejoin="round"/>
<path d="M171.125 329.837C170.585 344.73 165.54 354.355 158.745 358.209" stroke="#515B60" stroke-linecap="round" stroke-linejoin="round"/>
<path d="M26.6956 214.599C29.413 219.915 31.5897 225.491 33.1928 231.242" stroke="#515B60" stroke-linecap="round" stroke-linejoin="round"/>
<path d="M20.7385 204.694C21.5577 205.904 22.3396 207.115 23.1029 208.418" stroke="#515B60" stroke-linecap="round" stroke-linejoin="round"/>
<path d="M3.07111 236.548C2.74394 245.208 4.8531 253.787 9.15881 261.308" stroke="#515B60" stroke-linecap="round" stroke-linejoin="round"/>
<path d="M169.04 150.985L176.133 174.871" stroke="#515B60" stroke-linecap="round" stroke-linejoin="round"/>
</svg>
