<svg width="240" height="251" viewBox="0 0 240 251" fill="none" xmlns="http://www.w3.org/2000/svg">
<path d="M106.669 126.454C105.073 154.903 104.592 174.283 119.589 188.166C149.355 215.728 170.736 202.631 180.844 175.144C189.939 150.419 190.977 108.012 164.631 93.724C158.781 90.563 152.224 88.9376 145.574 88.9998C138.925 89.0619 132.4 90.8096 126.61 94.0793C120.819 97.349 115.953 102.034 112.465 107.696C108.978 113.358 106.984 119.812 106.669 126.454Z" fill="#F5F5F5"/>
<path opacity="0.4" d="M140.615 135.6C137.997 133.432 134.626 132.394 131.242 132.712C134.149 134.276 137.333 135.257 140.615 135.6Z" fill="#FF3DF0"/>
<path opacity="0.4" d="M139.781 137.778C138.416 137.072 136.914 136.671 135.379 136.601C133.844 136.531 132.312 136.794 130.889 137.373C133.789 138.147 136.822 138.285 139.781 137.778Z" fill="#FF3DF0"/>
<path opacity="0.4" d="M178.312 141.223C178.312 141.223 181.985 138.107 185.177 139.728C183.068 140.844 180.693 141.361 178.312 141.223Z" fill="#FF3DF0"/>
<path opacity="0.4" d="M178.564 143.503C179.562 143.003 180.689 142.82 181.794 142.978C182.899 143.137 183.929 143.629 184.746 144.39C182.643 144.727 180.488 144.418 178.564 143.503Z" fill="#FF3DF0"/>
<path opacity="0.71" d="M145.277 170.736C145.277 170.736 151.737 169.368 154.549 174.663C151.131 174.328 147.896 172.958 145.277 170.736Z" fill="#FF3DF0"/>
<path d="M90.102 136.764C87.9741 149 96.866 158.272 104.897 158.905C114.852 159.665 116.499 155.283 115.03 145.935C113.814 137.499 108.57 127.188 99.8299 122.856C84.1234 115.206 92.6353 122.35 90.102 136.764Z" fill="#F5F5F5"/>
<path d="M144.847 138.158C144.568 140.463 145.582 142.464 147.076 142.616C148.571 142.768 150.04 141.046 150.294 138.741C150.547 136.435 149.584 134.459 148.064 134.282C146.544 134.105 145.126 135.853 144.847 138.158Z" fill="#FF3DF0"/>
<path opacity="0.4" d="M151.966 142.465C150.317 144.058 148.369 145.308 146.234 146.143C144.099 146.978 141.819 147.381 139.527 147.329C141.83 148.252 144.399 148.264 146.71 147.36C149.021 146.456 150.9 144.706 151.966 142.465Z" fill="#FF3DF0"/>
<path d="M171.573 141.122C171.295 143.427 172.308 145.428 173.803 145.58C175.297 145.732 176.767 144.01 177.02 141.73C177.273 139.45 176.311 137.423 174.791 137.246C173.271 137.068 171.827 138.816 171.573 141.122Z" fill="#FF3DF0"/>
<path d="M164.809 140.793L161.693 160.527C163.442 162.092 165.604 163.122 167.921 163.495C170.238 163.867 172.614 163.567 174.765 162.63C173.651 151.078 164.809 140.793 164.809 140.793Z" fill="#FF3DF0"/>
<path d="M157.994 132.407C158.108 132.718 158.14 133.053 158.085 133.379C158.03 133.706 157.89 134.012 157.68 134.268C157.47 134.524 157.197 134.721 156.888 134.839C156.579 134.957 156.244 134.992 155.917 134.94C152.91 134.554 150.038 133.456 147.54 131.737C145.042 130.019 142.99 127.73 141.553 125.06C141.447 124.833 141.387 124.586 141.377 124.335C141.366 124.084 141.406 123.834 141.493 123.598C141.58 123.363 141.713 123.147 141.884 122.963C142.056 122.779 142.262 122.631 142.49 122.527C142.951 122.32 143.475 122.302 143.949 122.477C144.423 122.652 144.809 123.007 145.024 123.465C146.204 125.545 147.858 127.317 149.852 128.638C151.846 129.958 154.124 130.79 156.499 131.064C156.848 131.129 157.172 131.288 157.436 131.525C157.7 131.762 157.893 132.067 157.994 132.407Z" fill="#FF3DF0"/>
<path d="M189.559 135.473C189.248 135.499 188.934 135.448 188.647 135.324C188.36 135.201 188.108 135.008 187.913 134.763C186.5 132.84 184.647 131.282 182.51 130.22C180.373 129.158 178.012 128.623 175.626 128.658C175.379 128.682 175.13 128.657 174.893 128.583C174.656 128.508 174.436 128.387 174.247 128.227C174.058 128.066 173.903 127.869 173.792 127.647C173.681 127.425 173.615 127.183 173.6 126.935C173.557 126.435 173.715 125.939 174.038 125.554C174.36 125.17 174.822 124.928 175.322 124.883C178.34 124.798 181.333 125.445 184.046 126.769C186.759 128.092 189.112 130.053 190.902 132.483C191.177 132.869 191.297 133.345 191.236 133.815C191.175 134.285 190.938 134.714 190.573 135.017C190.292 135.273 189.937 135.433 189.559 135.473Z" fill="#FF3DF0"/>
<path d="M235.172 89.6945C233.563 90.4344 183.05 104.324 138.361 134.21C94.4606 163.574 60.1644 201.787 59.4673 202.439C59.4673 202.439 75.2167 157.892 85.5914 147.758C93.8001 139.763 102.445 132.228 111.487 125.188C116.372 121.372 121.166 117.893 125.803 114.707C127.617 113.436 129.408 112.245 131.194 111.082C133.626 109.463 135.994 107.946 138.297 106.529C147.404 100.859 156.817 95.6975 166.494 91.0685C169.252 89.7269 171.693 88.632 173.671 87.7552C174.719 87.3026 175.666 86.8469 176.438 86.51C177.753 85.9575 178.679 85.5412 179.208 85.277C184.433 82.6209 235.278 89.6297 235.172 89.6945Z" fill="#FF3DF0"/>
<path d="M180.982 84.2105C175.564 86.3758 134.407 99.968 92.05 140.926L92.0288 140.965C89.3789 143.504 86.741 146.172 84.1171 148.907C80.1153 135.969 77.395 110.121 78.5858 109.308C79.7765 108.495 69.4811 74.7915 71.0321 50.2287C71.7765 38.6374 84.3339 8.93985 91.3114 6.63804C95.2531 5.3448 113.006 12.4919 127.328 20.0585C138.343 25.8731 147.319 31.9415 146.421 34.5701C144.358 40.7005 119.812 34.703 119.752 37.7019C119.692 40.7007 121.476 42.354 127.022 44.5193C132.569 46.6846 130.623 53.9563 130.623 53.9563C130.623 53.9563 131.517 55.1095 140.715 56.6698C149.914 58.23 180.982 84.2105 180.982 84.2105Z" fill="#FF3DF0"/>
<path d="M180.983 84.2105C180.442 85.7604 176.005 88.3124 169.068 92.0297C159.719 97.0911 145.859 104.33 131.009 114.238C105.123 131.524 87.1571 148.155 84.1136 148.895C82.3778 149.323 78.3894 137.907 80.0985 132.867C81.4421 128.902 107.352 105.231 139.865 87.3877C148.893 82.3995 158.251 78.0327 167.873 74.3174C169.777 73.6547 181.391 83.0572 180.983 84.2105Z" fill="#39FF14"/>
<path d="M138.96 115.583L107.129 136.897L92.6431 115.216L124.521 93.9271L138.96 115.583ZM108.821 128.248L130.339 113.876L122.774 102.547L101.27 116.874L108.821 128.248Z" fill="#EBEBEB"/>
</svg>
