<svg width="219" height="242" viewBox="0 0 219 242" fill="none" xmlns="http://www.w3.org/2000/svg">
<path d="M84.7279 57.8863C84.7279 57.8863 34.5858 50.0712 25.0705 54.1726C15.5551 58.2741 12.3485 73.0244 12.3485 73.0244C12.3485 73.0244 10.6334 76.0073 15.8236 76.395C15.8236 76.395 -5.39955 129.266 1.31191 139.393C8.02338 149.52 75.6153 153.577 84.8323 148.61C94.0494 143.644 115.929 61.6596 84.7279 57.8863Z" fill="#263238"/>
<path d="M114.259 108.327C114.259 108.327 120.896 123.734 122.388 125.881C123.879 128.029 156.914 143.212 156.914 143.212C159.591 142.838 162.306 142.838 164.983 143.212C169.055 143.853 174.662 145.568 175.169 146.195C175.677 146.821 169.04 156.471 169.04 156.471C169.04 156.471 155.84 157.291 154.125 152.071C154.125 152.071 121.03 139.782 117.182 136.56C113.335 133.339 102.626 114.308 102.626 114.308L114.259 108.327Z" fill="white"/>
<path d="M104.757 74.5898C110.962 78.2886 120.671 118.11 122.759 122.838C124.847 127.566 150.201 139.065 150.201 139.065L138.956 149.833C138.956 149.833 113.259 138.423 110.067 135.232C106.875 132.04 94.0488 98.945 94.0488 98.945L104.757 74.5898Z" fill="#39FF14"/>
<path d="M102.7 165.598C102.7 165.598 207.279 150.579 212.798 173.518C218.629 197.783 134.661 214.144 84.5342 215.86C34.407 217.575 19.9102 206.553 27.964 144.539L95.6752 144.375L102.7 165.598Z" fill="#263238"/>
<path opacity="0.2" d="M102.7 165.598C102.7 165.598 207.279 150.579 212.798 173.518C218.629 197.783 134.661 214.144 84.5342 215.86C34.407 217.575 19.9102 206.553 27.964 144.539L95.6752 144.375L102.7 165.598Z" fill="black"/>
<path d="M197.152 201.153C197.098 201.193 197.033 201.215 196.966 201.215C196.899 201.215 196.833 201.193 196.779 201.153C196.73 201.12 196.694 201.07 196.678 201.013C196.661 200.956 196.666 200.895 196.69 200.84C196.854 200.288 198.509 195.456 200.195 194.949C200.373 194.907 200.559 194.912 200.734 194.965C200.91 195.017 201.068 195.114 201.194 195.247C201.429 195.441 201.608 195.694 201.713 195.979C201.817 196.265 201.844 196.574 201.791 196.873C201.52 197.775 200.972 198.568 200.225 199.14C199.271 199.913 198.241 200.587 197.152 201.153ZM197.57 200.229C199.135 199.542 200.404 198.321 201.149 196.784C201.193 196.579 201.177 196.366 201.103 196.17C201.029 195.975 200.9 195.804 200.732 195.68C200.684 195.622 200.621 195.579 200.549 195.558C200.477 195.537 200.4 195.538 200.329 195.561C200.188 195.62 200.058 195.7 199.941 195.799C198.892 197.122 198.089 198.622 197.57 200.229Z" fill="#39FF14"/>
<path d="M197.063 201.228C197.008 201.245 196.949 201.246 196.893 201.23C196.838 201.214 196.788 201.182 196.75 201.139C196.586 200.99 194.274 198.066 194.647 196.098C194.749 195.606 195.038 195.173 195.452 194.89C195.627 194.717 195.856 194.61 196.1 194.585C196.344 194.561 196.589 194.621 196.795 194.755C198.003 195.62 197.854 199.528 197.257 201.019V201.169L197.063 201.228ZM195.736 195.486C195.53 195.67 195.388 195.916 195.333 196.187C195.094 197.44 196.258 199.319 196.825 200.214C197.212 198.544 197.093 195.74 196.377 195.307C196.303 195.307 196.153 195.143 195.795 195.397L195.676 195.486H195.736Z" fill="#39FF14"/>
<path d="M160.926 213.443L182.85 213.458L193.365 213.473L194.617 202.391L184.893 201.094L161.12 197.917L160.926 213.443Z" fill="white"/>
<path d="M192.306 201.064L189.637 213.696C189.604 213.862 189.606 214.032 189.64 214.197C189.675 214.362 189.742 214.519 189.838 214.658C189.933 214.797 190.056 214.915 190.198 215.006C190.34 215.097 190.499 215.159 190.666 215.187L196.96 216.321C196.96 216.321 205.327 218.454 207.683 216.947C214.544 212.562 221.106 184.747 218.362 182.644C217.347 181.899 215.573 183.032 214.693 183.942C211.874 186.82 205.863 194.844 203.477 197.231C200.703 200.005 195.766 200.079 193.604 199.975C193.291 199.964 192.986 200.07 192.747 200.271C192.507 200.472 192.35 200.754 192.306 201.064Z" fill="#263238"/>
<path opacity="0.2" d="M160.926 213.443L182.85 213.458L184.893 201.094L161.12 197.917L160.926 213.443Z" fill="black"/>
<path d="M78.1357 164.838V167.612C78.1386 168.535 78.4964 169.421 79.135 170.088C79.7736 170.754 80.6441 171.149 81.566 171.191H183.565C184.515 171.16 185.418 170.776 186.099 170.114C186.78 169.452 187.19 168.56 187.249 167.612V164.838H78.1357Z" fill="#263238"/>
<path opacity="0.2" d="M78.1357 164.838V167.612C78.1386 168.535 78.4964 169.421 79.135 170.088C79.7736 170.754 80.6441 171.149 81.566 171.191H183.565C184.515 171.16 185.418 170.776 186.099 170.114C186.78 169.452 187.19 168.56 187.249 167.612V164.838H78.1357Z" fill="white"/>
<path opacity="0.2" d="M116.241 164.838V167.612C116.248 168.536 116.609 169.423 117.25 170.089C117.891 170.755 118.763 171.149 119.686 171.191H183.609C184.559 171.16 185.462 170.776 186.143 170.114C186.824 169.452 187.234 168.56 187.293 167.612V164.838H116.241Z" fill="white"/>
<path d="M119.642 168.64H187.025C188.107 168.586 189.149 168.216 190.022 167.574C190.894 166.932 191.559 166.048 191.932 165.031L207.383 116.559C207.563 116.141 207.634 115.683 207.589 115.23C207.544 114.776 207.384 114.342 207.124 113.968C206.864 113.593 206.514 113.291 206.105 113.089C205.696 112.888 205.243 112.794 204.788 112.816H137.405C136.313 112.894 135.268 113.29 134.399 113.956C133.53 114.621 132.874 115.526 132.513 116.559L117.062 164.971C116.882 165.384 116.811 165.837 116.856 166.285C116.901 166.733 117.061 167.162 117.321 167.531C117.58 167.9 117.93 168.195 118.336 168.389C118.743 168.584 119.192 168.67 119.642 168.64Z" fill="#263238"/>
<path opacity="0.2" d="M119.642 168.64H187.025C188.107 168.586 189.149 168.216 190.022 167.574C190.894 166.932 191.559 166.048 191.932 165.031L207.383 116.559C207.563 116.141 207.634 115.683 207.589 115.23C207.544 114.776 207.384 114.342 207.124 113.968C206.864 113.593 206.514 113.291 206.105 113.089C205.696 112.888 205.243 112.794 204.788 112.816H137.405C136.313 112.894 135.268 113.29 134.399 113.956C133.53 114.621 132.874 115.526 132.513 116.559L117.062 164.971C116.882 165.384 116.811 165.837 116.856 166.285C116.901 166.733 117.061 167.162 117.321 167.531C117.58 167.9 117.93 168.195 118.336 168.389C118.743 168.584 119.192 168.67 119.642 168.64Z" fill="white"/>
<path opacity="0.2" d="M122.207 168.64H187.055C188.136 168.586 189.179 168.216 190.051 167.574C190.924 166.932 191.588 166.048 191.961 165.031L207.413 116.559C207.593 116.141 207.664 115.683 207.618 115.23C207.573 114.776 207.413 114.342 207.153 113.968C206.894 113.593 206.543 113.291 206.135 113.089C205.726 112.888 205.273 112.794 204.818 112.816H139.94C138.848 112.894 137.803 113.29 136.934 113.956C136.065 114.621 135.409 115.526 135.048 116.559L119.597 164.971C119.415 165.387 119.344 165.842 119.391 166.293C119.437 166.744 119.6 167.175 119.863 167.545C120.126 167.914 120.48 168.209 120.891 168.401C121.301 168.593 121.755 168.676 122.207 168.64Z" fill="white"/>
<path opacity="0.2" d="M161.611 142.898C160.776 146.12 162.387 148.745 165.205 148.745C168.024 148.745 170.962 146.12 171.798 142.898C172.633 139.677 171.022 137.052 168.218 137.052C165.414 137.052 162.476 139.721 161.611 142.898Z" fill="white"/>
<path opacity="0.2" d="M192.306 201.064L189.637 213.696C189.604 213.862 189.606 214.032 189.64 214.197C189.675 214.362 189.742 214.519 189.838 214.658C189.933 214.797 190.056 214.915 190.198 215.006C190.34 215.097 190.499 215.159 190.666 215.187L196.96 216.321C196.96 216.321 205.327 218.454 207.683 216.947C214.544 212.562 221.106 184.747 218.362 182.644C217.347 181.899 215.573 183.032 214.693 183.942C211.874 186.82 205.863 194.844 203.477 197.231C200.703 200.005 195.766 200.079 193.604 199.975C193.291 199.964 192.986 200.07 192.747 200.271C192.507 200.472 192.35 200.754 192.306 201.064Z" fill="white"/>
<path d="M48.0236 153.323L26.875 153.592L27.2777 146.716L48.0236 146.269V153.323Z" fill="black"/>
<path d="M89.7539 145.359L96.0776 145.225L98.3446 152.652L89.7539 152.771V145.359Z" fill="black"/>
<path d="M87.0549 145.418V152.801L51.2754 153.278V146.193L87.0549 145.418Z" fill="black"/>
<path d="M66.4428 151.518L66.3384 148.64C66.2972 147.9 66.5473 147.174 67.0351 146.616C67.523 146.059 68.2098 145.714 68.9484 145.657L75.4212 145.389C75.7816 145.375 76.1408 145.436 76.4769 145.567C76.8129 145.697 77.1186 145.896 77.375 146.149C77.9173 146.688 78.2323 147.414 78.255 148.178L78.3594 151.041C78.3966 151.782 78.1431 152.509 77.6528 153.066C77.1626 153.623 76.4743 153.967 75.7344 154.024L69.2765 154.292H69.1572C68.4355 154.266 67.7516 153.963 67.2465 153.447C66.7415 152.931 66.4538 152.24 66.4428 151.518ZM75.6897 152.816C76.1184 152.774 76.5139 152.567 76.7924 152.238C77.0709 151.91 77.2103 151.486 77.1811 151.056L77.0767 148.192C77.0551 147.748 76.869 147.328 76.5547 147.014C76.4079 146.864 76.2311 146.747 76.0358 146.669C75.8404 146.592 75.631 146.557 75.4212 146.567L68.9484 146.835C68.5182 146.873 68.1203 147.079 67.8411 147.409C67.5619 147.738 67.4239 148.165 67.457 148.595L67.5614 151.474C67.5613 151.69 67.6043 151.903 67.6879 152.103C67.7715 152.302 67.8939 152.482 68.048 152.634C68.2021 152.785 68.3849 152.904 68.5856 152.984C68.7863 153.064 69.0009 153.103 69.2169 153.099L75.6897 152.816Z" fill="white"/>
<path d="M67.5465 150.579H70.7978C70.9944 150.576 71.1819 150.496 71.3209 150.357C71.4599 150.218 71.5397 150.03 71.5435 149.834C71.5435 149.636 71.465 149.446 71.3251 149.306C71.1853 149.166 70.9956 149.088 70.7978 149.088H67.5465C67.3487 149.088 67.159 149.166 67.0192 149.306C66.8793 149.446 66.8008 149.636 66.8008 149.834C66.8046 150.03 66.8844 150.218 67.0234 150.357C67.1624 150.496 67.3499 150.576 67.5465 150.579Z" fill="white"/>
<path d="M104.758 74.5905C104.758 74.5905 96.5998 126.179 100.015 144.688L24.5635 146.88C24.5635 146.88 33.5121 93.5914 45.369 73.4868C45.369 73.4272 65.0709 40.5261 104.758 74.5905Z" fill="#39FF14"/>
<path opacity="0.6" d="M104.758 74.5905C104.758 74.5905 96.5998 126.179 100.015 144.688L24.5635 146.88C24.5635 146.88 33.5121 93.5914 45.369 73.4868C45.369 73.4272 65.0709 40.5261 104.758 74.5905Z" fill="white"/>
<path d="M60.4922 63.1064C60.4922 63.1064 73.0053 75.3362 80.2388 73.3377C87.4723 71.3392 90.1867 67.6553 90.1867 67.6553C90.1867 67.6553 84.3701 65.105 85.0114 63.7179C85.086 63.5688 85.2649 63.2854 85.5185 62.8678C87.6811 59.5866 95.3471 49.1168 95.3471 49.1168L78.9413 39.8848C78.9413 39.8848 77.599 43.0615 75.9584 46.8498C73.7362 51.8908 70.9621 57.9908 69.9927 59.1243C68.2924 61.1228 60.4922 63.1064 60.4922 63.1064Z" fill="white"/>
<path opacity="0.2" d="M75.8838 46.8498C76.9129 52.6664 79.4483 59.5121 85.5185 62.8678C87.681 59.5866 95.347 49.1168 95.347 49.1168L78.9412 39.8848C78.9412 39.8848 77.5393 43.0615 75.8838 46.8498Z" fill="black"/>
<path d="M72.5871 35.5146C71.6716 38.4079 71.2235 41.4288 71.2597 44.4633C71.5729 48.162 67.4566 49.3999 66.9346 47.1628C66.9346 47.1628 67.0091 52.6065 70.5438 51.7862C70.5438 51.7862 70.5438 55.5595 73.7057 55.6192C76.3947 51.9093 77.7887 47.418 77.6729 42.8376C77.1807 35.6638 72.5871 35.5146 72.5871 35.5146Z" fill="#263238"/>
<path d="M100.94 17.3786C95.5713 19.6009 96.4661 32.0693 105.415 42.733C110.888 38.0201 113.379 27.1326 112.081 22.8373C109.993 15.9618 105.609 15.4547 100.94 17.3786Z" fill="#263238"/>
<path d="M108.784 47.7295C108.302 49.1544 107.734 50.549 107.084 51.9055C101.79 62.6886 86.562 64.7915 79.8207 54.1278L79.7462 54.0234C75.2718 46.8346 76.9572 40.1381 78.8215 28.5198C79.2306 25.8194 80.3216 23.2678 81.9913 21.1064C83.661 18.9449 85.8543 17.2449 88.3639 16.167C90.8735 15.0891 93.6165 14.669 96.3336 14.9463C99.0508 15.2235 101.652 16.1891 103.893 17.7516C112.677 23.9411 112.155 37.8115 108.784 47.7295Z" fill="white"/>
<path d="M95.1832 35.5147C94.9744 36.4543 95.3025 37.3193 95.899 37.4536C96.4956 37.5878 97.1668 36.9465 97.3905 35.9621C97.6142 34.9778 97.2861 34.1575 96.6746 34.0233C96.0631 33.889 95.4516 34.6497 95.1832 35.5147Z" fill="#263238"/>
<path d="M105.802 37.9457C105.593 38.8704 105.921 39.7354 106.533 39.8697C107.144 40.0039 107.801 39.3775 108.024 38.3782C108.248 37.379 107.905 36.5736 107.294 36.4394C106.682 36.3051 105.981 37.0061 105.802 37.9457Z" fill="#263238"/>
<path d="M102.207 37.6035C102.686 40.6939 103.584 43.7045 104.877 46.5521C104.138 46.864 103.339 47.0096 102.538 46.9787C101.736 46.9478 100.951 46.741 100.238 46.3732L102.207 37.6035Z" fill="#DE5753"/>
<path d="M93.035 31.5634C92.9131 31.5477 92.7988 31.4957 92.7069 31.4142C92.603 31.3059 92.5449 31.1616 92.5449 31.0115C92.5449 30.8614 92.603 30.7171 92.7069 30.6088C93.3725 30.0152 94.1717 29.5913 95.0364 29.3731C95.9012 29.155 96.8058 29.1491 97.6733 29.356C97.742 29.3734 97.8066 29.4042 97.8634 29.4467C97.9201 29.4891 97.9678 29.5424 98.0039 29.6034C98.0399 29.6644 98.0636 29.7319 98.0734 29.8021C98.0832 29.8723 98.079 29.9437 98.0611 30.0122C98.0162 30.1544 97.9185 30.2739 97.788 30.346C97.6576 30.4182 97.5044 30.4375 97.3601 30.4C96.674 30.2456 95.9608 30.2585 95.2808 30.4376C94.6007 30.6167 93.9736 30.9568 93.4526 31.4291C93.3954 31.4781 93.329 31.5152 93.2573 31.5383C93.1856 31.5613 93.11 31.5698 93.035 31.5634Z" fill="#263238"/>
<path d="M111.394 35.5147C111.291 35.4856 111.197 35.4306 111.121 35.3549C111.046 35.2791 110.99 35.1853 110.961 35.0822C110.819 34.3943 110.517 33.7496 110.079 33.2003C109.641 32.651 109.08 32.2125 108.441 31.9204C108.301 31.8697 108.187 31.7664 108.123 31.6325C108.059 31.4986 108.05 31.345 108.098 31.2045C108.148 31.0649 108.252 30.9508 108.386 30.8867C108.52 30.8226 108.673 30.8135 108.814 30.8615C109.631 31.2152 110.352 31.7602 110.915 32.4506C111.479 33.141 111.868 33.9565 112.05 34.8287C112.068 34.8992 112.072 34.9725 112.061 35.0445C112.05 35.1165 112.026 35.1856 111.988 35.248C111.951 35.3104 111.902 35.3647 111.843 35.4079C111.784 35.4512 111.718 35.4824 111.647 35.4998C111.565 35.5221 111.479 35.5271 111.394 35.5147Z" fill="#263238"/>
<path d="M98.0313 52.0994C96.4488 51.9441 94.9408 51.3512 93.6764 50.387C92.4119 49.4229 91.441 48.1257 90.8724 46.6407C90.8446 46.536 90.8586 46.4245 90.9115 46.3298C90.9643 46.2352 91.0519 46.1648 91.1557 46.1336C91.2625 46.1053 91.376 46.1188 91.4731 46.1715C91.5702 46.2242 91.6434 46.3121 91.6778 46.417C91.6778 46.5811 92.9007 50.3693 98.1655 51.2791C98.2723 51.3008 98.3669 51.362 98.4305 51.4505C98.4941 51.539 98.522 51.6482 98.5085 51.7563C98.4902 51.8649 98.4298 51.9618 98.3405 52.026C98.2511 52.0903 98.14 52.1166 98.0313 52.0994Z" fill="#263238"/>
<path d="M111.036 26.6707C111.036 26.6707 114.496 24.0159 114.362 20.9137C114.243 18.9541 113.621 17.0583 112.555 15.4096C111.489 13.761 110.015 12.4153 108.277 11.5027C104.979 9.59341 101.245 8.56609 97.4343 8.51987C84.2202 7.74432 77.0314 11.7116 74.7645 18.766C73.3625 21.2717 73.3923 25.9249 74.6451 30.2799C74.6522 30.3043 74.6522 30.3301 74.6451 30.3545C75.3224 32.84 76.4942 35.1633 78.0904 37.1853C86.1441 30.2054 89.1419 25.2538 87.8742 21.9726C88.1426 21.8981 92.1397 18.3186 93.9145 18.2291C96.4798 18.0949 101.208 20.5259 105.041 22.8078C107.144 24.0457 109.306 22.0621 109.306 22.0621L111.036 26.6707Z" fill="#263238"/>
<path d="M71.276 36.514C71.3589 37.9778 71.7295 39.411 72.3668 40.7315C73.004 42.052 73.8953 43.234 74.9896 44.2098C77.9725 46.7751 81.1045 44.5379 81.6862 40.8839C82.2231 37.5878 81.3282 32.2634 77.6891 31.1C74.05 29.9367 71.0672 32.8898 71.276 36.514Z" fill="white"/>
<path d="M71.2607 44.359C71.2607 44.359 76.1526 25.3431 88.2482 18.2588C100.344 11.1745 112.887 16.1261 112.887 16.1261C112.756 14.219 112.482 12.3245 112.066 10.4586C111.708 9.86205 105.713 7.80387 105.713 7.80387C105.713 7.80387 102.298 2.77773 97.5547 1.16698C92.812 -0.44377 78.6433 -0.906107 73.6918 3.22517C68.7402 7.35645 65.4739 15.7681 67.562 15.9173C69.65 16.0664 71.2458 16.0664 71.2458 16.0664C71.2458 16.0664 67.3382 29.5639 69.0087 31.5923C69.0236 31.5774 66.1302 40.9734 71.2607 44.359Z" fill="#39FF14"/>
<path d="M95.5255 218.573C95.5645 218.521 95.6167 218.479 95.677 218.453C95.7372 218.427 95.8033 218.417 95.8685 218.424C95.9265 218.432 95.9798 218.46 96.0183 218.504C96.0568 218.548 96.0778 218.605 96.0773 218.663C96.1966 219.23 96.9722 224.271 95.7194 225.509C95.5824 225.627 95.4171 225.709 95.2396 225.745C95.062 225.782 94.878 225.772 94.7052 225.717C94.4068 225.656 94.1304 225.516 93.9047 225.311C93.6791 225.107 93.5126 224.845 93.4226 224.554C93.2428 223.632 93.3576 222.678 93.7507 221.825C94.2295 220.683 94.8242 219.594 95.5255 218.573ZM95.5255 219.603C94.4845 220.947 93.9559 222.617 94.0341 224.316C94.0897 224.516 94.2026 224.696 94.3588 224.834C94.515 224.972 94.7079 225.061 94.914 225.091C94.9807 225.121 95.0551 225.13 95.1271 225.117C95.1991 225.104 95.2653 225.069 95.3167 225.016C95.4234 224.906 95.5049 224.774 95.5553 224.629C95.866 222.968 95.8711 221.265 95.5702 219.603H95.5255Z" fill="#39FF14"/>
<path d="M128.904 193.891L108.114 200.796L98.1211 204.122L100.433 215.024L110.082 213.19L133.632 208.686L128.904 193.891Z" fill="white"/>
<path d="M103.132 215.59L101.641 202.764C101.623 202.589 101.569 202.42 101.483 202.267C101.397 202.114 101.281 201.98 101.141 201.874C101.001 201.767 100.841 201.691 100.671 201.649C100.5 201.607 100.323 201.601 100.149 201.631L93.8705 202.555C93.8705 202.555 85.265 203.182 83.5051 205.344C78.3745 211.683 80.8951 240.154 84.206 241.228C85.4141 241.616 86.7266 239.975 87.2784 238.842C89.0383 235.218 92.215 225.702 93.7065 222.69C95.4664 219.185 100.12 217.544 102.208 216.962C102.501 216.882 102.755 216.7 102.925 216.448C103.094 216.196 103.168 215.892 103.132 215.59Z" fill="#263238"/>
<path d="M95.5711 218.485C95.6181 218.448 95.6758 218.429 95.7351 218.429C95.7945 218.429 95.8522 218.448 95.8992 218.485C96.0931 218.485 99.5085 219.976 100.09 221.96C100.173 222.205 100.202 222.464 100.176 222.722C100.151 222.979 100.07 223.227 99.941 223.451C99.8645 223.681 99.7123 223.879 99.5092 224.012C99.3061 224.144 99.064 224.204 98.8224 224.182C97.331 223.988 95.6606 220.453 95.4965 218.872V218.708C95.4911 218.668 95.495 218.627 95.5079 218.588C95.5208 218.549 95.5424 218.514 95.5711 218.485ZM99.419 222.959C99.5088 222.698 99.5088 222.415 99.419 222.154C99.0611 220.931 97.152 219.812 96.1826 219.32C96.6151 220.975 98.0021 223.347 98.8672 223.451C98.9567 223.451 99.1356 223.451 99.3295 223.093L99.4041 222.959H99.419Z" fill="#39FF14"/>
<path opacity="0.2" d="M128.904 193.891L108.113 200.796L110.082 213.19L133.632 208.686L128.904 193.891Z" fill="black"/>
<path d="M113.692 215.114L119.628 215.665L116.079 195.158L109.263 198.738L113.692 215.114Z" fill="#39FF14"/>
<path opacity="0.6" d="M113.692 215.114L119.628 215.665L116.079 195.158L109.263 198.738L113.692 215.114Z" fill="white"/>
<path opacity="0.2" d="M103.132 215.59L101.641 202.764C101.623 202.589 101.569 202.42 101.483 202.267C101.397 202.114 101.281 201.98 101.141 201.874C101.001 201.767 100.841 201.691 100.671 201.649C100.5 201.607 100.323 201.601 100.149 201.631L93.8705 202.555C93.8705 202.555 85.265 203.182 83.5051 205.344C78.3745 211.683 80.8951 240.154 84.206 241.228C85.4141 241.616 86.7266 239.975 87.2784 238.842C89.0383 235.218 92.215 225.702 93.7065 222.69C95.4664 219.185 100.12 217.544 102.208 216.962C102.501 216.882 102.755 216.7 102.925 216.448C103.094 216.196 103.168 215.892 103.132 215.59Z" fill="white"/>
<path d="M180.851 199.484C180.851 199.484 83.5499 161.691 53.7659 167.999C23.9819 174.308 23.8179 189.909 38.8516 204.45C53.8852 218.992 76.5252 213.399 76.5252 213.399C76.5252 213.399 58.7921 202.78 60.0299 196.217C61.2678 189.655 72.5431 204.659 72.5431 204.659C72.5431 204.659 131.336 219.036 179.926 215.248L180.851 199.484Z" fill="#263238"/>
<path d="M182.028 197.903L176.57 195.397L173.423 215.875L181.029 214.637L182.028 197.903Z" fill="#39FF14"/>
<path opacity="0.6" d="M182.028 197.903L176.57 195.397L173.423 215.875L181.029 214.637L182.028 197.903Z" fill="white"/>
<path d="M54.3178 59.1387C54.3178 59.1387 67.4872 94.9332 66.8011 102.972C66.115 111.011 38.9858 171.235 38.9858 171.235L16.6143 180.184C16.6143 180.184 21.2228 91.7266 54.3178 59.1387Z" fill="#39FF14"/>
<path opacity="0.2" d="M54.3178 59.1387C54.3178 59.1387 67.4872 94.9332 66.8011 102.972C66.115 111.011 38.9858 171.235 38.9858 171.235L16.6143 180.184C16.6143 180.184 21.2228 91.7266 54.3178 59.1387Z" fill="black"/>
<path d="M101.849 163.048C101.849 163.048 94.8094 146.358 92.5573 137.112C90.3052 127.865 98.18 80.3624 93.9443 64.4189L104.757 74.5905L100.179 133.95L101.849 163.048Z" fill="#39FF14"/>
<path opacity="0.2" d="M101.849 163.048C101.849 163.048 94.8094 146.358 92.5573 137.112C90.3052 127.865 98.18 80.3624 93.9443 64.4189L104.757 74.5905L100.179 133.95L101.849 163.048Z" fill="black"/>
<path d="M22.0131 137.111C22.0131 137.111 68.6802 146.06 61.2976 60.8096L53.7062 60.1533C53.7062 60.1533 58.3296 92.5473 49.8135 113.741C41.2974 134.934 21.2227 133.95 21.2227 133.95L22.0131 137.111Z" fill="#263238"/>
<path d="M66.5319 99.2293L50.8718 62.8681L46.144 69.1172C46.144 69.1172 45.3088 60.3028 48.053 57.7376C50.7973 55.1723 58.4931 58.3789 61.476 59.1395C64.4588 59.9001 66.5319 99.2293 66.5319 99.2293Z" fill="#39FF14"/>
<path d="M91.2158 64.9854C91.2158 64.9854 97.2561 82.8826 96.2718 110.892C95.2874 138.901 100.328 136.574 100.328 136.574L101.044 133.934C101.044 133.934 98.2256 133.606 98.4493 124.166C98.673 114.725 99.9407 76.6186 96.2718 66.611L91.2158 64.9854Z" fill="#263238"/>
<path d="M94.3775 98.1548C94.3775 98.1548 95.8689 71.3089 88.3223 63.4491C88.3223 63.4491 93.9748 61.3312 96.2716 63.4491C98.5684 65.5669 99.1352 86.0145 94.631 99.2435" fill="#39FF14"/>
<path d="M56.4804 109.132C56.4804 109.132 63.3112 124.986 64.8474 127.193C66.3835 129.4 100.373 145.09 100.373 145.09C103.129 144.708 105.925 144.708 108.681 145.09C112.872 145.747 118.643 147.507 119.121 148.178C119.598 148.849 112.812 158.752 112.812 158.752C112.812 158.752 99.225 159.587 97.5397 154.278C97.5397 154.278 63.4752 141.63 59.5229 138.319C55.5706 135.008 44.6533 115.291 44.6533 115.291L56.4804 109.132Z" fill="white"/>
<path d="M48.0227 73.5606C55.3009 73.5606 65.5172 117.99 67.4113 124.016C69.3055 130.041 99.4922 142.897 99.4922 142.897L89.9022 154.247C89.9022 154.247 57.2696 142.465 53.4366 137.051C49.6036 131.637 37.9853 100.809 37.4484 93.68C36.9115 86.551 43.1606 73.5456 48.0227 73.5606Z" fill="#39FF14"/>
</svg>
