<svg width="286" height="118" viewBox="0 0 286 118" fill="none" xmlns="http://www.w3.org/2000/svg">
<path d="M0 0H286V96.4723H39.4785L0 118V96.4723V0Z" fill="white"/>
<path d="M35.8048 60V40.624H33.6768V49.304H23.8208V40.624H21.6648V60H23.8208V51.236H33.6768V60H35.8048ZM51.6754 58.264L52.4874 58.18L52.5434 59.832C51.4794 59.9813 50.49 60.0933 49.5754 60.168C48.6794 60.2427 47.8487 60.28 47.0834 60.28C45.0674 60.28 43.6394 59.7013 42.7994 58.544C41.9594 57.368 41.5394 55.548 41.5394 53.084C41.5394 48.1747 43.49 45.72 47.3914 45.72C49.2954 45.72 50.7047 46.252 51.6194 47.316C52.5527 48.3613 53.0194 50.0133 53.0194 52.272L52.9074 53.868H43.6674C43.6674 55.436 43.9474 56.5933 44.5074 57.34C45.0674 58.068 46.0474 58.432 47.4474 58.432C48.8474 58.432 50.2567 58.376 51.6754 58.264ZM43.6394 52.188H50.9194C50.9194 50.4707 50.6394 49.2573 50.0794 48.548C49.538 47.8387 48.6514 47.484 47.4194 47.484C46.1687 47.484 45.226 47.8573 44.5914 48.604C43.9754 49.3507 43.658 50.5453 43.6394 52.188ZM60.5201 60V39.896H58.4201V60H60.5201ZM68.9606 60V39.896H66.8606V60H68.9606ZM74.517 52.972C74.517 51.684 74.6197 50.5827 74.825 49.668C75.049 48.7533 75.4037 48.0067 75.889 47.428C76.3744 46.8307 76.9997 46.4013 77.765 46.14C78.5304 45.86 79.4544 45.72 80.537 45.72C81.6197 45.72 82.5344 45.86 83.281 46.14C84.0464 46.4013 84.6624 46.8307 85.129 47.428C85.6144 48.0067 85.9597 48.7533 86.165 49.668C86.389 50.5827 86.501 51.684 86.501 52.972C86.501 54.26 86.3984 55.3613 86.193 56.276C86.0064 57.1907 85.6797 57.9467 85.213 58.544C84.7464 59.1413 84.1304 59.58 83.365 59.86C82.5997 60.14 81.6477 60.28 80.509 60.28C79.3704 60.28 78.4184 60.14 77.653 59.86C76.8877 59.58 76.2717 59.1413 75.805 58.544C75.3384 57.9467 75.0024 57.1907 74.797 56.276C74.6104 55.3613 74.517 54.26 74.517 52.972ZM76.673 52.916C76.673 53.9427 76.7197 54.8107 76.813 55.52C76.925 56.2107 77.121 56.78 77.401 57.228C77.6997 57.6573 78.101 57.9747 78.605 58.18C79.109 58.3667 79.753 58.46 80.537 58.46C81.321 58.46 81.9557 58.3667 82.441 58.18C82.945 57.9933 83.337 57.6853 83.617 57.256C83.897 56.808 84.0837 56.2387 84.177 55.548C84.289 54.8387 84.345 53.9707 84.345 52.944C84.345 51.9173 84.2797 51.0587 84.149 50.368C84.037 49.6773 83.8317 49.1267 83.533 48.716C83.2344 48.2867 82.8424 47.988 82.357 47.82C81.8717 47.6333 81.265 47.54 80.537 47.54C79.809 47.54 79.193 47.6333 78.689 47.82C78.2037 47.988 77.8117 48.2867 77.513 48.716C77.2144 49.1267 76.9997 49.6773 76.869 50.368C76.7384 51.04 76.673 51.8893 76.673 52.916ZM105.234 45.72C105.85 45.72 106.896 45.832 108.37 46.056L109.042 46.14L108.958 47.848C107.484 47.68 106.382 47.596 105.654 47.596C104.87 47.596 104.208 47.68 103.666 47.848C103.144 48.016 102.724 48.3053 102.406 48.716C102.108 49.1267 101.893 49.6773 101.762 50.368C101.632 51.04 101.566 51.8893 101.566 52.916C101.566 53.9427 101.622 54.8107 101.734 55.52C101.846 56.2107 102.052 56.7707 102.35 57.2C102.668 57.6293 103.088 57.9373 103.61 58.124C104.152 58.3107 104.842 58.404 105.682 58.404L108.986 58.152L109.07 59.888C108.193 60.0187 107.428 60.112 106.774 60.168C106.14 60.2427 105.608 60.28 105.178 60.28C104.096 60.28 103.181 60.1493 102.434 59.888C101.706 59.608 101.118 59.1787 100.67 58.6C100.222 58.0027 99.8957 57.2373 99.6903 56.304C99.5037 55.3707 99.4103 54.2413 99.4103 52.916C99.4103 51.5907 99.513 50.4707 99.7183 49.556C99.9423 48.6413 100.288 47.904 100.754 47.344C101.221 46.7653 101.818 46.3547 102.546 46.112C103.293 45.8507 104.189 45.72 105.234 45.72ZM116.254 48.436V60H114.154V39.896H116.254V46.784C117.766 46.0747 119.203 45.72 120.566 45.72C121.499 45.72 122.264 45.8413 122.862 46.084C123.478 46.308 123.963 46.6907 124.318 47.232C124.691 47.7733 124.943 48.4827 125.074 49.36C125.223 50.2373 125.298 51.32 125.298 52.608V60H123.198V52.664C123.198 51.6933 123.151 50.8813 123.058 50.228C122.983 49.5747 122.834 49.052 122.61 48.66C122.404 48.268 122.106 47.9973 121.714 47.848C121.322 47.68 120.818 47.596 120.202 47.596C119.044 47.596 117.906 47.8107 116.786 48.24L116.254 48.436ZM130.537 52.972C130.537 51.684 130.639 50.5827 130.845 49.668C131.069 48.7533 131.423 48.0067 131.909 47.428C132.394 46.8307 133.019 46.4013 133.785 46.14C134.55 45.86 135.474 45.72 136.557 45.72C137.639 45.72 138.554 45.86 139.301 46.14C140.066 46.4013 140.682 46.8307 141.149 47.428C141.634 48.0067 141.979 48.7533 142.185 49.668C142.409 50.5827 142.521 51.684 142.521 52.972C142.521 54.26 142.418 55.3613 142.213 56.276C142.026 57.1907 141.699 57.9467 141.233 58.544C140.766 59.1413 140.15 59.58 139.385 59.86C138.619 60.14 137.667 60.28 136.529 60.28C135.39 60.28 134.438 60.14 133.673 59.86C132.907 59.58 132.291 59.1413 131.825 58.544C131.358 57.9467 131.022 57.1907 130.817 56.276C130.63 55.3613 130.537 54.26 130.537 52.972ZM132.693 52.916C132.693 53.9427 132.739 54.8107 132.833 55.52C132.945 56.2107 133.141 56.78 133.421 57.228C133.719 57.6573 134.121 57.9747 134.625 58.18C135.129 58.3667 135.773 58.46 136.557 58.46C137.341 58.46 137.975 58.3667 138.461 58.18C138.965 57.9933 139.357 57.6853 139.637 57.256C139.917 56.808 140.103 56.2387 140.197 55.548C140.309 54.8387 140.365 53.9707 140.365 52.944C140.365 51.9173 140.299 51.0587 140.169 50.368C140.057 49.6773 139.851 49.1267 139.553 48.716C139.254 48.2867 138.862 47.988 138.377 47.82C137.891 47.6333 137.285 47.54 136.557 47.54C135.829 47.54 135.213 47.6333 134.709 47.82C134.223 47.988 133.831 48.2867 133.533 48.716C133.234 49.1267 133.019 49.6773 132.889 50.368C132.758 51.04 132.693 51.8893 132.693 52.916ZM147.29 52.972C147.29 51.684 147.392 50.5827 147.598 49.668C147.822 48.7533 148.176 48.0067 148.662 47.428C149.147 46.8307 149.772 46.4013 150.538 46.14C151.303 45.86 152.227 45.72 153.31 45.72C154.392 45.72 155.307 45.86 156.054 46.14C156.819 46.4013 157.435 46.8307 157.902 47.428C158.387 48.0067 158.732 48.7533 158.938 49.668C159.162 50.5827 159.274 51.684 159.274 52.972C159.274 54.26 159.171 55.3613 158.966 56.276C158.779 57.1907 158.452 57.9467 157.986 58.544C157.519 59.1413 156.903 59.58 156.138 59.86C155.372 60.14 154.42 60.28 153.282 60.28C152.143 60.28 151.191 60.14 150.426 59.86C149.66 59.58 149.044 59.1413 148.578 58.544C148.111 57.9467 147.775 57.1907 147.57 56.276C147.383 55.3613 147.29 54.26 147.29 52.972ZM149.446 52.916C149.446 53.9427 149.492 54.8107 149.586 55.52C149.698 56.2107 149.894 56.78 150.174 57.228C150.472 57.6573 150.874 57.9747 151.378 58.18C151.882 58.3667 152.526 58.46 153.31 58.46C154.094 58.46 154.728 58.3667 155.214 58.18C155.718 57.9933 156.11 57.6853 156.39 57.256C156.67 56.808 156.856 56.2387 156.95 55.548C157.062 54.8387 157.118 53.9707 157.118 52.944C157.118 51.9173 157.052 51.0587 156.922 50.368C156.81 49.6773 156.604 49.1267 156.306 48.716C156.007 48.2867 155.615 47.988 155.13 47.82C154.644 47.6333 154.038 47.54 153.31 47.54C152.582 47.54 151.966 47.6333 151.462 47.82C150.976 47.988 150.584 48.2867 150.286 48.716C149.987 49.1267 149.772 49.6773 149.642 50.368C149.511 51.04 149.446 51.8893 149.446 52.916ZM169.055 47.596C167.02 47.596 166.003 48.3053 166.003 49.724C166.003 50.396 166.236 50.8533 166.703 51.096C167.188 51.376 168.252 51.656 169.895 51.936C170.735 52.0853 171.444 52.2533 172.023 52.44C172.601 52.608 173.068 52.8507 173.423 53.168C173.796 53.4667 174.057 53.8493 174.207 54.316C174.375 54.7827 174.459 55.38 174.459 56.108C174.459 57.564 174.001 58.628 173.087 59.3C172.172 59.9533 170.819 60.28 169.027 60.28C168.448 60.28 167.813 60.2427 167.123 60.168C166.451 60.112 165.723 60.0187 164.939 59.888L164.099 59.748L164.211 57.928C165.275 58.0773 166.208 58.1987 167.011 58.292C167.813 58.3667 168.485 58.404 169.027 58.404C170.109 58.404 170.931 58.236 171.491 57.9C172.069 57.5453 172.359 56.9573 172.359 56.136C172.359 55.352 172.116 54.8013 171.631 54.484C171.127 54.1853 170.063 53.9147 168.439 53.672C167.617 53.5413 166.917 53.392 166.339 53.224C165.779 53.0373 165.312 52.804 164.939 52.524C164.584 52.2253 164.323 51.852 164.155 51.404C163.987 50.956 163.903 50.396 163.903 49.724C163.903 49.052 164.024 48.464 164.267 47.96C164.528 47.456 164.883 47.036 165.331 46.7C165.779 46.364 166.311 46.1213 166.927 45.972C167.543 45.804 168.215 45.72 168.943 45.72C169.521 45.72 170.165 45.7573 170.875 45.832C171.584 45.888 172.368 45.9813 173.227 46.112L174.011 46.252L173.955 48.044C172.909 47.8947 171.976 47.7827 171.155 47.708C170.352 47.6333 169.652 47.596 169.055 47.596ZM189.154 58.264L189.966 58.18L190.022 59.832C188.958 59.9813 187.969 60.0933 187.054 60.168C186.158 60.2427 185.328 60.28 184.562 60.28C182.546 60.28 181.118 59.7013 180.278 58.544C179.438 57.368 179.018 55.548 179.018 53.084C179.018 48.1747 180.969 45.72 184.87 45.72C186.774 45.72 188.184 46.252 189.098 47.316C190.032 48.3613 190.498 50.0133 190.498 52.272L190.386 53.868H181.146C181.146 55.436 181.426 56.5933 181.986 57.34C182.546 58.068 183.526 58.432 184.926 58.432C186.326 58.432 187.736 58.376 189.154 58.264ZM181.118 52.188H188.398C188.398 50.4707 188.118 49.2573 187.558 48.548C187.017 47.8387 186.13 47.484 184.898 47.484C183.648 47.484 182.705 47.8573 182.07 48.604C181.454 49.3507 181.137 50.5453 181.118 52.188ZM197.831 48.632V60H195.731V46H197.803V46.98C199.315 46.14 200.762 45.72 202.143 45.72C203.076 45.72 203.842 45.8413 204.439 46.084C205.055 46.308 205.54 46.6907 205.895 47.232C206.268 47.7733 206.52 48.4827 206.651 49.36C206.8 50.2373 206.875 51.32 206.875 52.608V60H204.803V52.664C204.803 51.6933 204.756 50.8813 204.663 50.228C204.588 49.5747 204.439 49.052 204.215 48.66C203.991 48.268 203.683 47.9973 203.291 47.848C202.899 47.68 202.395 47.596 201.779 47.596C201.182 47.596 200.547 47.6893 199.875 47.876C199.222 48.044 198.718 48.212 198.363 48.38L197.831 48.632ZM220.226 52.972C220.226 51.684 220.329 50.5827 220.534 49.668C220.758 48.7533 221.113 48.0067 221.598 47.428C222.084 46.8307 222.709 46.4013 223.474 46.14C224.24 45.86 225.164 45.72 226.246 45.72C227.329 45.72 228.244 45.86 228.99 46.14C229.756 46.4013 230.372 46.8307 230.838 47.428C231.324 48.0067 231.669 48.7533 231.874 49.668C232.098 50.5827 232.21 51.684 232.21 52.972C232.21 54.26 232.108 55.3613 231.902 56.276C231.716 57.1907 231.389 57.9467 230.922 58.544C230.456 59.1413 229.84 59.58 229.074 59.86C228.309 60.14 227.357 60.28 226.218 60.28C225.08 60.28 224.128 60.14 223.362 59.86C222.597 59.58 221.981 59.1413 221.514 58.544C221.048 57.9467 220.712 57.1907 220.506 56.276C220.32 55.3613 220.226 54.26 220.226 52.972ZM222.382 52.916C222.382 53.9427 222.429 54.8107 222.522 55.52C222.634 56.2107 222.83 56.78 223.11 57.228C223.409 57.6573 223.81 57.9747 224.314 58.18C224.818 58.3667 225.462 58.46 226.246 58.46C227.03 58.46 227.665 58.3667 228.15 58.18C228.654 57.9933 229.046 57.6853 229.326 57.256C229.606 56.808 229.793 56.2387 229.886 55.548C229.998 54.8387 230.054 53.9707 230.054 52.944C230.054 51.9173 229.989 51.0587 229.858 50.368C229.746 49.6773 229.541 49.1267 229.242 48.716C228.944 48.2867 228.552 47.988 228.066 47.82C227.581 47.6333 226.974 47.54 226.246 47.54C225.518 47.54 224.902 47.6333 224.398 47.82C223.913 47.988 223.521 48.2867 223.222 48.716C222.924 49.1267 222.709 49.6773 222.578 50.368C222.448 51.04 222.382 51.8893 222.382 52.916ZM239.695 48.632V60H237.595V46H239.667V46.98C241.179 46.14 242.626 45.72 244.007 45.72C244.941 45.72 245.706 45.8413 246.303 46.084C246.919 46.308 247.405 46.6907 247.759 47.232C248.133 47.7733 248.385 48.4827 248.515 49.36C248.665 50.2373 248.739 51.32 248.739 52.608V60H246.667V52.664C246.667 51.6933 246.621 50.8813 246.527 50.228C246.453 49.5747 246.303 49.052 246.079 48.66C245.855 48.268 245.547 47.9973 245.155 47.848C244.763 47.68 244.259 47.596 243.643 47.596C243.046 47.596 242.411 47.6893 241.739 47.876C241.086 48.044 240.582 48.212 240.227 48.38L239.695 48.632ZM264.114 58.264L264.926 58.18L264.982 59.832C263.918 59.9813 262.929 60.0933 262.014 60.168C261.118 60.2427 260.288 60.28 259.522 60.28C257.506 60.28 256.078 59.7013 255.238 58.544C254.398 57.368 253.978 55.548 253.978 53.084C253.978 48.1747 255.929 45.72 259.83 45.72C261.734 45.72 263.144 46.252 264.058 47.316C264.992 48.3613 265.458 50.0133 265.458 52.272L265.346 53.868H256.106C256.106 55.436 256.386 56.5933 256.946 57.34C257.506 58.068 258.486 58.432 259.886 58.432C261.286 58.432 262.696 58.376 264.114 58.264ZM256.078 52.188H263.358C263.358 50.4707 263.078 49.2573 262.518 48.548C261.977 47.8387 261.09 47.484 259.858 47.484C258.608 47.484 257.665 47.8573 257.03 48.604C256.414 49.3507 256.097 50.5453 256.078 52.188Z" fill="#263238"/>
</svg>
