<svg width="134" height="136" viewBox="0 0 134 136" fill="none" xmlns="http://www.w3.org/2000/svg">
<path d="M118.072 72.5824C117.921 81.6009 115.099 90.3719 109.963 97.7864C104.827 105.201 97.6071 110.926 89.2172 114.237C80.8272 117.548 71.6438 118.297 62.8283 116.389C54.0127 114.481 45.961 110.001 39.6914 103.517C33.4218 97.0322 29.2159 88.8342 27.6057 79.9594C25.9954 71.0846 27.0531 61.9316 30.645 53.6579C34.2368 45.3843 40.2015 38.3615 47.7847 33.4779C55.368 28.5943 64.2291 26.0691 73.2475 26.2217C85.3392 26.4263 96.8544 31.4254 105.261 40.1195C113.667 48.8136 118.275 60.4907 118.072 72.5824Z" fill="#39FF14"/>
<g opacity="0.3">
<path d="M118.072 72.5824C117.92 81.6009 115.098 90.3719 109.962 97.7864C104.826 105.201 97.6061 110.926 89.2162 114.237C80.8263 117.548 71.6428 118.297 62.8273 116.389C54.0117 114.481 45.96 110.001 39.6904 103.517C33.4209 97.0322 29.215 88.8342 27.6047 79.9594C25.9944 71.0846 27.0521 61.9316 30.644 53.6579C34.2358 45.3843 40.2005 38.3615 47.7838 33.4779C55.367 28.5943 64.2281 26.0691 73.2465 26.2217C85.3382 26.4263 96.8535 31.4254 105.26 40.1195C113.666 48.8136 118.274 60.4907 118.072 72.5824Z" fill="black"/>
</g>
<path d="M101.531 102.825C119.463 84.8925 119.463 55.8188 101.531 37.8866C83.5989 19.9545 54.5252 19.9545 36.593 37.8867C18.6609 55.8188 18.6609 84.8925 36.593 102.825C54.5252 120.757 83.5989 120.757 101.531 102.825Z" fill="#39FF14"/>
<path d="M105.875 88.4503C115.866 68.1201 107.483 43.5402 87.1532 33.5497C66.8229 23.5591 42.243 31.9412 32.2525 52.2715C22.262 72.6018 30.644 97.1816 50.9743 107.172C71.3046 117.163 95.8845 108.781 105.875 88.4503Z" fill="white"/>
<path d="M110.078 71.0467C110.078 71.0467 110.078 70.8187 110.078 70.3761C110.078 69.9334 110.078 69.2829 110.018 68.4245C109.724 62.57 108.177 56.8468 105.483 51.6408C102.788 46.4349 99.0087 41.8673 94.399 38.2461C89.3903 34.3069 83.5292 31.5945 77.2846 30.326C72.0024 29.2574 66.5625 29.23 61.2699 30.2455C59.4019 30.6128 57.5604 31.1034 55.7573 31.7142C47.8404 34.4638 40.959 39.5787 36.0439 46.367C31.1289 53.1553 28.4174 61.2894 28.2762 69.6691C28.135 78.0487 30.5709 86.2696 35.2544 93.2196C39.938 100.17 46.6432 105.513 54.463 108.528C56.2365 109.194 58.0509 109.745 59.8951 110.178C61.6949 110.59 63.5212 110.877 65.3607 111.036C68.8794 111.362 72.4254 111.229 75.9098 110.641C82.1859 109.565 88.1244 107.039 93.2523 103.264C100.726 97.7833 106.126 89.9367 108.576 80.9989C109.23 78.5837 109.665 76.1149 109.877 73.6219C109.971 72.7702 109.964 72.113 110.005 71.6771C110.045 71.2412 110.045 71.0064 110.045 71.0064C110.045 71.0064 110.045 71.9118 109.944 73.6219C109.763 76.1143 109.347 78.5842 108.704 80.9989C106.3 89.9983 100.902 97.9104 93.3998 103.431C88.2464 107.232 82.2751 109.775 75.9634 110.855C72.4561 111.459 68.8848 111.601 65.3406 111.278C63.4881 111.115 61.6487 110.829 59.8347 110.419C57.9739 109.988 56.1436 109.435 54.3557 108.763C46.4543 105.743 39.6741 100.364 34.9366 93.3564C30.199 86.3488 27.7338 78.0525 27.8759 69.5949C28.0181 61.1373 30.7606 52.9285 35.7309 46.084C40.7012 39.2395 47.6583 34.0912 55.6567 31.3386C57.4761 30.7561 59.3308 30.2902 61.2095 29.9437C67.0197 28.8162 73.0048 28.9575 78.7553 30.3581C84.5057 31.7587 89.8855 34.3854 94.5265 38.0583C98.6584 41.3357 102.127 45.3713 104.747 49.9486C107.988 55.5896 109.817 61.9307 110.078 68.4312C110.119 70.1816 110.078 71.0467 110.078 71.0467Z" fill="#263238"/>
<path d="M50.0964 125.247L52.2961 112.431L59.492 115.047L54.0196 126.515C53.8184 126.943 53.4762 127.289 53.0501 127.496C52.624 127.702 52.14 127.756 51.6791 127.648C51.1568 127.529 50.7006 127.213 50.4057 126.765C50.1109 126.318 50 125.774 50.0964 125.247Z" fill="#39FF14"/>
<path d="M113.264 107.824L105.961 97.094L100.495 102.459L110.206 110.614C110.569 110.918 111.024 111.089 111.497 111.098C111.971 111.108 112.433 110.956 112.808 110.668C113.238 110.345 113.525 109.868 113.611 109.338C113.696 108.807 113.571 108.265 113.264 107.824Z" fill="#39FF14"/>
<path d="M56.1046 18.4439L54.0537 19.098L56.976 28.2601L59.0269 27.606L56.1046 18.4439Z" fill="#39FF14"/>
<path d="M55.8684 14.6818L52.0602 15.8957C51.3086 16.1353 50.8934 16.9389 51.133 17.6905L51.4528 18.6937C51.6924 19.4453 52.496 19.8604 53.2476 19.6208L57.0558 18.4069C57.8074 18.1673 58.2225 17.3638 57.9829 16.6121L57.6632 15.609C57.4236 14.8573 56.62 14.4422 55.8684 14.6818Z" fill="#39FF14"/>
<path d="M84.0244 3.29947C84.6574 2.1866 85.6412 1.31472 86.8221 0.820036C88.003 0.325351 89.3145 0.235714 90.5517 0.565127C91.7889 0.894539 92.8822 1.62445 93.6607 2.64084C94.4393 3.65724 94.8593 4.90287 94.8551 6.18318L84.0244 3.29947Z" fill="#39FF14"/>
<path d="M62.8389 15.1898C62.8389 15.1898 71.1815 -1.3949 90.0531 3.90309C108.925 9.20108 107.885 27.2142 107.885 27.2142L62.8389 15.1898Z" fill="#39FF14"/>
<path d="M108.214 27.4556C107.543 29.8498 96.887 29.0651 84.3596 25.6986C71.8322 22.332 62.1953 17.651 62.8391 15.2635C63.4829 12.8761 74.1593 13.654 86.6934 17.0206C99.2275 20.3872 108.858 25.0615 108.214 27.4556Z" fill="#263238"/>
<path d="M83.1591 16.1287L80.7314 26.5973L86.747 27.8379L89.4429 17.7986L83.1591 16.1287Z" fill="#39FF14"/>
<g opacity="0.3">
<path d="M62.8463 15.7733C62.8463 15.7733 74.3208 16.6183 78.0495 17.3224C81.7782 18.0266 94.6141 21.3462 98.7653 23.0161C102.917 24.686 107.141 28.3811 107.141 28.3811L108.214 27.4624C108.214 27.4624 108.637 26.2217 106.115 24.7195C97.341 19.8698 87.7896 16.5838 77.8886 15.0088C63.5371 12.8091 62.8865 14.6131 62.7256 15.5184" fill="black"/>
</g>
<path d="M97.7992 7.28981C97.7657 7.34346 97.028 6.80024 95.7538 6.08938C94.0922 5.16585 92.3392 4.41743 90.5229 3.85617C88.7084 3.28645 86.8291 2.94845 84.9298 2.85023C83.4746 2.78987 82.5692 2.9307 82.5625 2.85023C82.7631 2.77545 82.9729 2.72808 83.1862 2.70939C83.4348 2.66792 83.6856 2.64105 83.9373 2.62892C84.2694 2.59724 84.603 2.58381 84.9365 2.58868C86.8697 2.62076 88.7878 2.93479 90.6302 3.52086C92.4728 4.08664 94.2387 4.87723 95.8879 5.87477C96.3906 6.17568 96.8744 6.50715 97.3365 6.86731C97.508 6.98796 97.6635 7.12994 97.7992 7.28981Z" fill="#263238"/>
<g opacity="0.3">
<path d="M85.3988 3.66167C81.7903 3.3597 78.1651 3.99572 74.875 5.508C71.5849 7.02029 68.7416 9.35747 66.6211 12.2927L71.8923 12.8627C74.4272 7.71899 79.6582 3.90981 85.3988 3.66167Z" fill="white"/>
</g>
<g opacity="0.3">
<path d="M91.0801 1.72349C90.2732 1.44926 89.4237 1.32206 88.5719 1.34794C87.7307 1.48703 86.9217 1.77789 86.1845 2.20635C86.1509 2.20635 86.3387 1.92468 86.7411 1.64302C87.2774 1.28396 87.8942 1.06301 88.5365 0.999829C89.1789 0.936648 89.8269 1.03319 90.4229 1.28088C90.8722 1.48207 91.1002 1.68326 91.0801 1.72349Z" fill="white"/>
</g>
<g opacity="0.3">
<path d="M27.9718 86.1962C27.9044 86.0741 27.8483 85.9462 27.8042 85.8139L27.3817 84.694C27.1489 84.1082 26.9474 83.5105 26.7781 82.9034C26.5769 82.1925 26.2952 81.3945 26.1075 80.4824C25.9197 79.5704 25.6514 78.5845 25.4838 77.5048C25.3161 76.4251 25.1485 75.2649 25.0143 74.0377C24.7921 71.3754 24.7921 68.6993 25.0143 66.037C25.2654 63.375 25.741 60.739 26.4361 58.1571C26.7781 56.9768 27.1067 55.8501 27.4957 54.804C27.8846 53.7578 28.2602 52.8323 28.629 51.9739C28.9979 51.1155 29.3869 50.3778 29.7088 49.7139C30.0307 49.0499 30.3459 48.4933 30.6141 48.0507L31.2311 47.0179C31.2967 46.8973 31.373 46.7829 31.4591 46.6759C31.4191 46.8097 31.3628 46.9381 31.2914 47.0582L30.7348 48.1111C30.4867 48.5671 30.1849 49.1237 29.8831 49.801C29.5813 50.4784 29.2125 51.2094 28.8571 52.0745C28.5016 52.9396 28.106 53.8651 27.7706 54.8978C27.4353 55.9306 27.1 57.0372 26.7446 58.251C25.3662 63.3854 24.8986 68.7217 25.3631 74.0175C25.4905 75.2314 25.5978 76.3916 25.799 77.4579C26.0002 78.5242 26.1745 79.5301 26.3757 80.4288C26.5769 81.3274 26.8049 82.1389 26.9927 82.8497C27.1805 83.5606 27.3683 84.191 27.5359 84.6604L27.8981 85.7938C27.9401 85.9242 27.9649 86.0594 27.9718 86.1962Z" fill="white"/>
</g>
<path d="M90.8373 29.9437C90.6926 29.9042 90.5531 29.8479 90.4215 29.776L89.2881 29.1926L88.4632 28.7902L87.4506 28.361L86.2904 27.8714L84.9491 27.3886C80.0781 25.6606 74.9714 24.6881 69.8063 24.5049C68.4652 24.4483 67.1221 24.4617 65.7825 24.5451C63.43 24.6194 61.0931 24.9546 58.8146 25.5444C56.9833 25.9815 55.1786 26.5234 53.4093 27.1673C52.2134 27.5831 51.0403 28.0621 49.8952 28.6024C49.1039 28.9847 48.6814 29.2194 48.668 29.1926C48.759 29.1172 48.8579 29.052 48.963 28.9981C49.1575 28.8774 49.4459 28.6963 49.8416 28.4951C50.952 27.9061 52.0988 27.3887 53.2752 26.946C55.0448 26.2694 56.8545 25.7028 58.6939 25.2493C59.7401 24.981 60.8578 24.7575 62.0471 24.5786C63.268 24.3675 64.5034 24.2509 65.7422 24.2299C67.1062 24.1401 68.4741 24.1244 69.8398 24.183C75.0376 24.3613 80.173 25.3734 85.0497 27.1807L86.391 27.6904L87.5512 28.2135L88.5504 28.6628C88.8589 28.817 89.1271 28.9713 89.3753 29.0987L90.4952 29.709C90.6145 29.7793 90.7288 29.8577 90.8373 29.9437Z" fill="#263238"/>
<path d="M56.7759 18.7575C56.3267 19.0821 55.8153 19.3105 55.2737 19.4282C54.768 19.6463 54.2215 19.7537 53.6709 19.7434C54.119 19.4169 54.6309 19.1884 55.1731 19.0727C55.6788 18.8546 56.2253 18.7471 56.7759 18.7575Z" fill="#263238"/>
<path d="M12.9575 29.2731C12.2778 28.1943 11.9724 26.9217 12.0886 25.652C12.2048 24.3823 12.736 23.1863 13.6002 22.2488C14.4644 21.3114 15.6133 20.6847 16.8694 20.4658C18.1255 20.2469 19.4187 20.4479 20.549 21.0377L12.9575 29.2731Z" fill="#39FF14"/>
<path d="M13.6614 53.5834C13.6614 53.5834 2.81729 38.5009 16.297 24.2299C29.7767 9.95889 45.2213 19.2807 45.2213 19.2807L13.6614 53.5834Z" fill="#39FF14"/>
<path d="M45.4167 19.2874C47.2408 20.9707 41.6142 30.0175 32.8558 39.4935C24.0974 48.9695 15.52 55.2936 13.7026 53.6103C11.8852 51.927 17.5319 42.8802 26.2501 33.4042C34.9683 23.9281 43.5993 17.6041 45.4167 19.2874Z" fill="#263238"/>
<path d="M23.916 36.0196L32.0508 43.0344L35.9538 38.2863L28.3154 31.2313L23.916 36.0196Z" fill="#39FF14"/>
<g opacity="0.3">
<path d="M14.1771 53.8383C14.1771 53.8383 20.2597 44.0672 22.6137 41.0963C24.9676 38.1254 33.8736 28.3007 37.2871 25.4035C40.7006 22.5064 45.7907 20.3336 45.7907 20.3336L45.6633 19.5959L45.4755 19.3142C45.4755 19.3142 44.5835 18.315 41.7132 20.0452C39.2051 21.5541 29.092 28.5019 20.4811 40.1641C11.8702 51.8264 13.1578 53.2683 13.882 53.8249" fill="black"/>
</g>
<path d="M22.8967 18.9453C22.8967 18.999 22.1053 19.4013 20.8848 20.1994C19.2927 21.2407 17.8138 22.4454 16.472 23.794C15.1232 25.1348 13.9513 26.6426 12.9847 28.2805C12.2537 29.5413 11.952 30.3997 11.8916 30.3796C11.9209 30.1676 11.9773 29.9603 12.0593 29.7626C12.1372 29.5337 12.229 29.3097 12.3342 29.092C12.4617 28.7852 12.605 28.4853 12.7634 28.1933C13.6844 26.496 14.8504 24.9436 16.2239 23.5861C17.5797 22.2164 19.1002 21.0202 20.7506 20.025C21.2482 19.718 21.7657 19.4447 22.2998 19.2069C22.4859 19.0929 22.6867 19.0049 22.8967 18.9453Z" fill="#263238"/>
<path d="M39.5749 34.8259C39.5749 34.8728 38.8305 35.4965 37.6301 36.6366C36.0735 38.0847 34.6129 39.6326 33.2576 41.2706C31.9083 42.9141 30.7034 44.671 29.6563 46.5217C28.8515 47.9434 28.4492 48.8756 28.3955 48.8488C28.4451 48.6171 28.5216 48.392 28.6235 48.1781C28.8617 47.5737 29.1325 46.9826 29.435 46.4077C30.432 44.5018 31.6231 42.7039 32.9893 41.0426C34.352 39.3871 35.8505 37.8483 37.4692 36.4421C38.0861 35.9056 38.6092 35.4898 38.9781 35.2215C39.1584 35.0636 39.3592 34.9305 39.5749 34.8259Z" fill="#263238"/>
<g opacity="0.3">
<path d="M14.5203 27.4422C12.5732 30.4989 11.4494 34.0071 11.2579 37.6262C11.0664 41.2453 11.8136 44.8525 13.4272 48.0976L16.3847 43.6916C13.0114 39.0441 12.0725 32.6262 14.5203 27.4422Z" fill="white"/>
</g>
<g opacity="0.3">
<path d="M14.5933 22.1107C13.9772 22.6997 13.4688 23.3919 13.0911 24.1561C12.8273 24.9672 12.7092 25.8187 12.7424 26.671C12.7022 26.671 12.568 26.4094 12.5077 25.9199C12.4372 25.2774 12.5272 24.6275 12.7694 24.0283C13.0117 23.4291 13.3987 22.8992 13.8959 22.4862C14.2781 22.1845 14.5665 22.0772 14.5933 22.1107Z" fill="white"/>
</g>
<path d="M104.626 74.7888C103.667 74.6681 102.909 74.4267 102.929 74.2523C102.949 74.0779 103.747 74.0109 104.706 74.1048C105.665 74.1987 106.423 74.4468 106.403 74.648C106.383 74.8492 105.585 74.9095 104.626 74.7888Z" fill="#263238"/>
<path d="M91.079 98.6364C90.4821 97.8719 90.12 97.1677 90.2608 97.0537C90.4017 96.9397 91.0052 97.4628 91.6021 98.2072C92.1989 98.9516 92.5745 99.6624 92.4203 99.7899C92.266 99.9173 91.6692 99.3942 91.079 98.6364Z" fill="#263238"/>
<path d="M64.6303 105.919C64.751 104.96 64.9924 104.203 65.1735 104.223C65.3546 104.243 65.4149 105.034 65.3143 105.993C65.2137 106.952 64.9723 107.71 64.7711 107.69C64.5699 107.67 64.5096 106.872 64.6303 105.919Z" fill="#263238"/>
<path d="M40.7887 92.366C41.5465 91.7758 42.2574 91.407 42.3647 91.5478C42.472 91.6886 41.9623 92.2922 41.2112 92.8891C40.4601 93.4859 39.7559 93.8615 39.6285 93.7072C39.5011 93.553 40.0242 92.983 40.7887 92.366Z" fill="#263238"/>
<path d="M33.5061 65.923C34.4651 66.0438 35.2229 66.2852 35.2028 66.4596C35.1827 66.6339 34.3846 66.701 33.4256 66.6004C32.4666 66.4998 31.7088 66.2584 31.7289 66.0639C31.749 65.8694 32.5471 65.8023 33.5061 65.923Z" fill="#263238"/>
<path d="M47.039 42.0754C47.6359 42.8399 47.998 43.5441 47.8572 43.6581C47.7164 43.7721 47.1128 43.249 46.516 42.5046C45.9191 41.7602 45.5435 41.0426 45.6978 40.9219C45.852 40.8012 46.4623 41.3444 47.039 42.0754Z" fill="#263238"/>
<path d="M73.502 34.7924C73.3813 35.7514 73.1399 36.5092 72.9588 36.4891C72.7777 36.469 72.7174 35.6776 72.818 34.7186C72.9186 33.7596 73.16 32.9951 73.3612 33.0219C73.5624 33.0488 73.6228 33.8401 73.502 34.7924Z" fill="#263238"/>
<path d="M97.3363 48.3458C96.5785 48.9359 95.8676 49.2981 95.7603 49.164C95.653 49.0298 96.1627 48.4129 96.9138 47.8227C97.6649 47.2325 98.3691 46.8436 98.4965 47.0045C98.6239 47.1655 98.1076 47.7556 97.3363 48.3458Z" fill="#263238"/>
<path d="M12.2462 15.5117C12.1906 15.6092 12.123 15.6993 12.045 15.78L11.4146 16.5311C11.0756 16.8991 10.7555 17.2841 10.4556 17.6846C10.1002 18.154 9.65757 18.6637 9.2619 19.2807L8.59127 20.2397C8.36996 20.575 8.16877 20.9438 7.92064 21.3127C7.4512 22.0504 7.05553 22.8887 6.57938 23.7538C5.68263 25.6701 4.95991 27.6632 4.41995 29.709C3.93817 31.7687 3.63969 33.867 3.52801 35.9794C3.52801 36.9518 3.45424 37.8773 3.52801 38.7491C3.52801 39.1783 3.52801 39.6008 3.58166 40.0032C3.63531 40.4055 3.66213 40.7878 3.69567 41.1567C3.74932 41.8943 3.89015 42.5449 3.97733 43.1283C4.04832 43.6252 4.14683 44.1177 4.27241 44.6037L4.4736 45.5359C4.50466 45.6449 4.52046 45.7578 4.52054 45.8712C4.46666 45.7726 4.42821 45.6663 4.40654 45.556L4.13828 44.6372C3.9888 44.1534 3.87009 43.6606 3.78285 43.1618C3.63902 42.4973 3.52934 41.8257 3.45424 41.1499C3.40729 40.7811 3.36035 40.3921 3.31341 39.9898C3.26646 39.5874 3.25976 39.1649 3.23293 38.7223C3.16587 37.8504 3.23293 36.9116 3.23293 35.9257C3.32522 33.7943 3.62165 31.6766 4.11816 29.6017C4.66623 27.5252 5.40715 25.5046 6.33125 23.566C6.78727 22.6942 7.20307 21.8559 7.67251 21.1182C7.90052 20.7493 8.10842 20.3805 8.34314 20.0452L9.01377 19.0929C9.42956 18.4759 9.88559 17.9729 10.2544 17.5169C10.5703 17.1224 10.9084 16.7462 11.2671 16.3902C11.542 16.122 11.7634 15.894 11.9377 15.7196C12.031 15.637 12.1347 15.5671 12.2462 15.5117Z" fill="#263238"/>
<path d="M1.8787 25.6718C1.97259 25.7187 1.32878 27.0801 0.819105 28.8438C0.309426 30.6076 0.148474 32.1031 0.0143473 32.0964C-0.0512058 30.9587 0.108321 29.8192 0.48379 28.7432C0.745173 27.6386 1.21894 26.5954 1.8787 25.6718Z" fill="#263238"/>
<path d="M115.202 21.7419C115.086 21.4039 115 21.056 114.947 20.7024C114.88 20.3671 114.8 19.958 114.666 19.4885C114.532 19.0191 114.424 18.4759 114.23 17.8924C114.035 17.309 113.854 16.6719 113.559 16.0013C113.264 15.3306 113.009 14.6198 112.687 13.8821C111.947 12.2919 111.086 10.7607 110.112 9.30166C109.117 7.86058 108.017 6.49544 106.819 5.21751C106.243 4.64748 105.713 4.09085 105.17 3.62141C104.626 3.15197 104.124 2.70935 103.647 2.32709C103.171 1.94483 102.722 1.65646 102.306 1.32785C101.89 0.999243 101.568 0.804759 101.28 0.616982C100.971 0.438763 100.679 0.232214 100.408 0C100.733 0.144011 101.047 0.312138 101.347 0.502973C101.714 0.707659 102.07 0.931512 102.413 1.1736C102.816 1.45527 103.292 1.75035 103.755 2.13931C104.217 2.52828 104.781 2.92395 105.317 3.41351C105.854 3.90307 106.417 4.43287 107.001 5.00291C108.229 6.27944 109.35 7.65436 110.354 9.11388C111.335 10.5895 112.196 12.1414 112.929 13.7546C113.244 14.5058 113.559 15.2166 113.781 15.9074C114.002 16.5981 114.223 17.2486 114.384 17.8321C114.545 18.4155 114.673 18.9722 114.78 19.4483C114.887 19.9245 114.954 20.3469 115.001 20.689C115.096 21.034 115.163 21.3861 115.202 21.7419Z" fill="#263238"/>
<path d="M115.624 14.6868C115.433 13.718 115.169 12.7652 114.833 11.8366C114.389 10.9488 113.88 10.0949 113.311 9.28149C114.159 9.88027 114.803 10.7254 115.155 11.7025C115.611 12.6264 115.775 13.6674 115.624 14.6868Z" fill="#263238"/>
<path d="M44.4778 115.208C44.3481 115.186 44.2219 115.148 44.1023 115.094L43.0359 114.705C42.4743 114.511 41.9236 114.287 41.3862 114.034C40.7491 113.739 40.0449 113.431 39.2469 112.995L38.033 112.324C37.6105 112.096 37.1948 111.814 36.7521 111.546C35.8602 111.016 34.9683 110.359 34.016 109.688C29.9402 106.665 26.4495 102.925 23.7151 98.6498C23.1115 97.6506 22.5146 96.7184 22.0519 95.7862C21.8105 95.3302 21.5623 94.8943 21.3813 94.445C21.2002 93.9957 20.9923 93.5866 20.8045 93.1842C20.4223 92.3929 20.1674 91.635 19.9126 90.9845C19.6907 90.4295 19.4982 89.8631 19.3358 89.2878L19.0139 88.1947C18.9741 88.07 18.945 87.9421 18.9268 87.8124C18.9957 87.9249 19.0477 88.0469 19.081 88.1746L19.4633 89.2409C19.6175 89.7103 19.8187 90.2737 20.0937 90.9108C20.3686 91.5479 20.6369 92.299 21.0325 93.0836C21.2203 93.4793 21.4148 93.8951 21.6227 94.3243C21.8306 94.7535 22.0854 95.1827 22.3269 95.6655C22.7963 96.5776 23.3999 97.5031 24.0034 98.4889C25.3857 100.571 26.9284 102.542 28.6174 104.384C30.3452 106.206 32.2155 107.888 34.2104 109.413C35.1493 110.084 36.0279 110.755 36.893 111.285C37.3289 111.559 37.738 111.841 38.1538 112.083L39.3542 112.753C40.1053 113.203 40.8296 113.524 41.4533 113.84C42.0769 114.155 42.6202 114.396 43.0762 114.584L44.109 115.04C44.2371 115.084 44.3607 115.14 44.4778 115.208Z" fill="#263238"/>
<path d="M29.2 112.518C27.7603 111.345 26.3941 110.084 25.1092 108.743C23.7439 107.483 22.4583 106.139 21.2598 104.719C22.703 105.888 24.0695 107.15 25.3506 108.495C26.7159 109.755 28.0015 111.099 29.2 112.518Z" fill="#263238"/>
<path d="M118.797 50.5656C118.877 50.6854 118.945 50.8136 118.998 50.9479L119.508 52.0745C119.736 52.5641 119.997 53.1677 120.252 53.8852C120.507 54.6028 120.849 55.4076 121.117 56.3263L121.573 57.7682C121.728 58.2712 121.848 58.801 121.996 59.3509C122.304 60.4373 122.526 61.6243 122.78 62.8717C123.781 68.3083 123.926 73.8678 123.21 79.3491C123.015 80.6032 122.854 81.8036 122.606 82.9034C122.485 83.4601 122.398 83.9966 122.264 84.5063C122.13 85.0159 122.009 85.4988 121.888 85.9682C121.667 86.9004 121.379 87.7253 121.151 88.4496C120.923 89.1739 120.701 89.7908 120.48 90.2938L120.031 91.4473C119.984 91.5828 119.923 91.7131 119.85 91.8363C119.871 91.6936 119.909 91.554 119.964 91.4205L120.353 90.2536C120.534 89.7439 120.742 89.1269 120.943 88.3959C121.144 87.6649 121.426 86.8401 121.614 85.9012C121.728 85.4384 121.848 84.9489 121.969 84.4459C122.09 83.9429 122.177 83.3997 122.291 82.8498C122.526 81.75 122.673 80.5562 122.854 79.3089C123.179 76.5854 123.313 73.8425 123.257 71.1003C123.169 68.3597 122.894 65.6282 122.432 62.9253C122.184 61.6847 121.976 60.5044 121.681 59.4179C121.54 58.8747 121.426 58.3449 121.278 57.842C121.131 57.339 120.99 56.8628 120.849 56.4001C120.594 55.4813 120.279 54.6699 120.038 53.9523C119.796 53.2347 119.555 52.611 119.367 52.1282C119.179 51.6453 119.038 51.2765 118.918 50.9814C118.86 50.8484 118.82 50.7087 118.797 50.5656Z" fill="#263238"/>
<path d="M126.844 62.0401C126.947 62.2662 127.02 62.5053 127.058 62.751C127.172 63.207 127.313 63.8843 127.454 64.7159C128.181 69.0952 128.169 73.5652 127.421 77.9408C127.28 78.7791 127.139 79.4497 127.018 79.9124C126.972 80.1542 126.9 80.3903 126.804 80.6166C126.743 80.6166 126.951 79.5771 127.179 77.9341C127.476 75.7535 127.631 73.5559 127.642 71.3552C127.643 69.1574 127.5 66.9619 127.213 64.783C126.964 63.0796 126.763 62.0535 126.844 62.0401Z" fill="#263238"/>
<path d="M49.6605 21.0109C49.6605 21.0109 49.3252 20.8164 48.9899 20.3067C48.572 19.6353 48.3772 18.8489 48.4333 18.0601C48.4862 17.2681 48.7864 16.5128 49.2917 15.9006C49.6739 15.4446 50.0092 15.23 50.0361 15.2971C50.0629 15.3641 49.8014 15.5787 49.4862 16.0482C49.0677 16.6487 48.821 17.3519 48.7726 18.0822C48.7241 18.8125 48.8758 19.5422 49.2112 20.1927C49.466 20.6957 49.7209 20.9706 49.6605 21.0109Z" fill="#263238"/>
<path d="M59.607 19.6898C59.8321 18.9618 59.9716 18.2101 60.0228 17.4499C59.9627 16.6869 59.8165 15.9333 59.5869 15.2032C59.6272 15.2032 59.8149 15.3843 60.0027 15.78C60.2479 16.3 60.3739 16.8682 60.3716 17.4432C60.3817 18.0196 60.2601 18.5907 60.0161 19.113C59.8283 19.5154 59.6406 19.7166 59.607 19.6898Z" fill="#263238"/>
<path d="M37.6103 22.8685C37.3896 23.0953 37.147 23.2997 36.886 23.4788C36.4099 23.8477 35.7259 24.3976 34.8741 25.0883C32.7114 26.8965 30.6453 28.8172 28.6842 30.8423C26.384 33.2097 24.419 35.4697 23.0107 37.1194L21.3542 39.0777C21.1539 39.3233 20.9292 39.548 20.6836 39.7483C20.8357 39.4711 21.0131 39.2084 21.2134 38.9637C21.5755 38.4808 22.112 37.7834 22.7894 36.9518C24.1306 35.2618 26.0889 32.9682 28.4026 30.5942C30.3681 28.5544 32.4674 26.6478 34.6864 24.8871C35.5448 24.2165 36.2489 23.6934 36.7519 23.3581C37.0214 23.1673 37.3089 23.0033 37.6103 22.8685Z" fill="#263238"/>
<path d="M97.5775 20.5884C97.3469 20.5512 97.1216 20.4859 96.9069 20.3939L95.0828 19.7702C93.5336 19.2337 91.401 18.5161 89.0471 17.7986C86.6932 17.081 84.4801 16.5244 82.884 16.1622C81.2879 15.8001 80.3088 15.6056 80.3155 15.5519C80.5538 15.5354 80.7932 15.5535 81.0263 15.6056C81.4824 15.6592 82.1329 15.7665 82.9376 15.9208C84.5471 16.2226 86.7535 16.7524 89.141 17.4632C91.5284 18.1741 93.6677 18.9453 95.1767 19.5355C95.9412 19.8306 96.5514 20.0854 96.9739 20.2665C97.186 20.3521 97.3883 20.46 97.5775 20.5884Z" fill="#263238"/>
<path d="M44.2572 71.5712L37.811 76.336L38.2296 78.2713L46.0803 79.9983L45.5627 77.6056L40.5599 76.699L44.7748 73.9639L44.2572 71.5712ZM57.1071 75.5869L57.5639 77.698L50.0341 79.3271L49.5888 77.2687L51.5251 74.2162C51.8718 73.6624 52.1563 73.1895 52.3784 72.7977C52.6123 72.4033 52.7881 72.0522 52.9056 71.7444C53.0324 71.4223 53.1114 71.1351 53.1428 70.8828C53.1716 70.6187 53.1568 70.3518 53.0985 70.082C52.9792 69.5308 52.7501 69.1813 52.4112 69.0336C52.0815 68.8717 51.6528 68.8478 51.125 68.962C50.3509 69.1295 49.51 69.3851 48.6021 69.7288L48.1913 69.8729L47.6609 68.0171C48.7342 67.4166 49.8866 66.9831 51.1181 66.7167C53.5811 66.1838 55.0524 67.0258 55.532 69.2425C55.6259 69.6764 55.6652 70.0854 55.65 70.4692C55.6441 70.8389 55.5794 71.2212 55.4562 71.6162C55.3329 72.0112 55.1406 72.4273 54.8791 72.8644C54.6293 73.2991 54.3076 73.7984 53.914 74.3624L52.2867 76.6297L57.1071 75.5869ZM68.0241 75.435L67.6093 73.5174L68.7176 73.2776L68.2609 71.1664L67.1525 71.4062L66.4484 68.1515L64.0206 68.6767L64.7247 71.9314L62.2265 72.4719L63.7 64.2156L61.0259 64.7942L59.8558 73.2611L60.2554 75.1083L65.1814 74.0426L65.5963 75.9602L68.0241 75.435ZM78.1568 66.3182L79.588 72.9332L77.2305 73.4432L74.5662 61.1281L76.9236 60.6181L77.7762 64.5589C78.4941 63.9616 79.1757 63.5932 79.8207 63.4536C80.4072 63.3268 80.9129 63.3094 81.338 63.4016C81.7723 63.4795 82.1448 63.6691 82.4555 63.9702C82.778 64.2688 83.049 64.6705 83.2688 65.1755C83.4885 65.6804 83.6771 66.2965 83.8344 67.0237L84.8658 71.7914L82.5084 72.3014L81.4883 67.5865C81.3285 66.8476 81.1225 66.3212 80.8705 66.0074C80.6159 65.6819 80.2247 65.5762 79.6969 65.6904C79.2395 65.7894 78.7973 65.9587 78.3703 66.1984L78.1568 66.3182ZM90.5437 70.563L88.1862 71.073L86.2832 62.2765L88.623 61.7703L88.8248 62.7027C89.7066 61.8981 90.5624 61.3139 91.3922 60.9502L91.9061 63.3252C91.4455 63.5231 91.0214 63.7192 90.6337 63.9136C90.2578 64.1054 89.9112 64.2909 89.5939 64.4701L89.2686 64.6693L90.5437 70.563ZM100.465 59.4662L100.852 61.4266C100.093 61.4927 99.4561 61.5568 98.9416 61.619C98.4389 61.6786 98.0409 61.7402 97.7477 61.8036C97.1612 61.9305 96.7973 62.0645 96.656 62.2055C96.5029 62.3492 96.4504 62.5324 96.4987 62.7552C96.5469 62.9781 96.6984 63.111 96.9533 63.1541C97.0807 63.1757 97.2928 63.1912 97.5895 63.2006C97.8954 63.1959 98.2977 63.1825 98.7963 63.1606C99.2832 63.1412 99.7061 63.1663 100.065 63.236C100.421 63.294 100.728 63.4057 100.985 63.5711C101.241 63.7366 101.45 63.9616 101.609 64.2462C101.769 64.5309 101.896 64.8902 101.99 65.3242C102.401 67.2242 101.428 68.4292 99.0704 68.9393C98.3081 69.1042 97.3469 69.2016 96.1871 69.2316L95.6012 69.2478L95.2453 67.2622C96.0045 67.1961 96.6355 67.1333 97.1383 67.0736C97.6527 67.0114 98.0566 66.9486 98.3498 66.8852C98.9245 66.7609 99.2989 66.6185 99.4729 66.4581C99.6494 66.3094 99.7136 66.1236 99.6654 65.9007C99.6172 65.6779 99.4761 65.5365 99.2421 65.4767C99.0107 65.4285 98.4198 65.4213 97.4695 65.455C96.9968 65.4836 96.5778 65.476 96.2123 65.4323C95.8442 65.3769 95.5272 65.2736 95.2612 65.1224C94.9927 64.9595 94.7668 64.7383 94.5836 64.4587C94.4095 64.1649 94.2717 63.7834 94.1702 63.3142C94.0687 62.8451 94.062 62.4168 94.1501 62.0294C94.2499 61.6395 94.421 61.2956 94.6635 60.9975C94.9177 60.697 95.2373 60.4437 95.6225 60.2376C96.0193 60.0289 96.4641 59.8713 96.9567 59.7648C97.2968 59.6912 97.7078 59.633 98.1896 59.5901C98.6806 59.533 99.2379 59.4984 99.8615 59.4862L100.465 59.4662Z" fill="#FF3DF0"/>
</svg>
