<svg width="524" height="411" viewBox="0 0 524 411" fill="none" xmlns="http://www.w3.org/2000/svg">
<g clipPath="url(#clip0_254_3075)">
<path d="M203.873 61.3777C204.516 65.3143 202.11 68.5941 199.245 69.0621C195.902 69.6081 192.963 66.6238 192.412 63.2496L190.667 52.5646C190.116 49.1904 191.952 45.4262 195.295 44.8802C198.638 44.3343 201.577 47.3185 202.128 50.6927L203.873 61.3777ZM245.497 388.299C244.854 384.362 247.26 381.082 250.126 380.614C253.469 380.068 256.408 383.053 256.959 386.427L258.704 397.112C259.347 401.049 256.94 404.328 254.075 404.796C250.732 405.342 247.793 402.358 247.242 398.984L245.497 388.299Z" fill="#455A64"/>
<path d="M226.889 73.2079C228.45 82.7682 223.05 91.7333 214.931 93.0592L192.008 96.8029C183.889 98.1289 175.917 91.3476 174.356 81.7873C172.794 72.2271 178.195 63.262 186.313 61.9361L209.237 58.1923C217.264 56.3041 225.235 63.0853 226.889 73.2079ZM222.481 376.469C220.92 366.908 226.32 357.943 234.439 356.617L257.363 352.874C265.481 351.548 273.453 358.329 275.014 367.889C276.576 377.45 271.176 386.415 263.057 387.74L240.133 391.484C232.106 393.373 224.135 386.591 222.481 376.469Z" fill="#455A64"/>
<path d="M179.555 104.61L229.222 96.499L269.817 345.066L220.149 353.177L179.555 104.61Z" fill="#DFCEA3"/>
<path d="M239.397 86.7541C240.132 91.253 237.818 95.0952 233.997 95.7192L174.778 105.39C170.958 106.014 167.541 103.108 166.806 98.6092C166.072 94.1103 168.386 90.2681 172.207 89.6442L231.425 79.9728C235.246 79.3489 238.754 82.8175 239.397 86.7541ZM209.973 362.923C209.238 358.424 211.552 354.581 215.373 353.958L274.592 344.286C278.412 343.662 281.829 346.568 282.564 351.067C283.298 355.566 280.984 359.409 277.163 360.033L217.944 369.704C214.032 369.765 210.615 366.859 209.973 362.923Z" fill="#455A64"/>
<path d="M202.918 61.5338C203.561 65.4704 202.11 68.5942 199.245 69.0622C196.857 69.4522 193.918 66.4679 193.367 63.0937L191.622 52.4087C190.979 48.4721 192.43 45.3483 195.295 44.8803C197.683 44.4904 200.622 47.4746 201.173 50.8488L202.918 61.5338ZM246.452 388.143C245.809 384.206 247.26 381.082 250.126 380.615C252.513 380.225 255.452 383.209 256.003 386.583L257.748 397.268C258.391 401.205 256.94 404.328 254.075 404.796C251.687 405.186 248.748 402.202 248.197 398.828L246.452 388.143Z" fill="#455A64"/>
<path d="M221.158 74.1439C222.72 83.7042 218.752 92.4353 212.544 93.4492L194.874 96.335C188.665 97.3489 182.126 90.3337 180.565 80.7734C179.003 71.2132 182.971 62.4821 189.179 61.4681L206.849 58.5823C212.966 57.006 219.505 64.0213 221.158 74.1439ZM228.213 375.533C226.652 365.972 230.619 357.241 236.828 356.227L254.498 353.342C260.706 352.328 267.245 359.343 268.807 368.903C270.368 378.463 266.4 387.195 260.192 388.208L242.999 391.016C236.405 392.671 229.866 385.655 228.213 375.533Z" fill="#263238"/>
<path d="M185.285 103.675L223.968 97.357L264.563 345.924L225.88 352.242L185.285 103.675Z" fill="#FAFAFA"/>
<path d="M231.279 88.08C232.014 92.5789 230.177 96.3431 227.311 96.8111L181.465 104.299C178.599 104.767 175.66 101.782 174.925 97.2833C174.191 92.7844 176.028 89.0202 178.893 88.5522L224.74 81.0647C227.605 80.5968 230.636 84.1434 231.279 88.08ZM218.092 361.597C217.357 357.098 219.194 353.334 222.059 352.866L267.906 345.378C270.772 344.91 273.71 347.894 274.445 352.393C275.18 356.892 273.343 360.656 270.478 361.124L224.631 368.612C221.674 368.518 218.735 365.533 218.092 361.597Z" fill="#455A64"/>
<path d="M436.929 23.3164C437.572 27.253 435.166 30.5328 432.3 31.0008C428.957 31.5468 426.018 28.5625 425.467 25.1883L423.722 14.5033C423.079 10.5667 425.486 7.28691 428.351 6.81895C431.694 6.27299 434.633 9.25723 435.184 12.6314L436.929 23.3164ZM478.553 350.238C477.91 346.301 480.316 343.021 483.181 342.553C486.524 342.007 489.463 344.991 490.014 348.366L491.759 359.051C492.402 362.987 489.996 366.267 487.131 366.735C483.788 367.281 480.849 364.297 480.298 360.923L478.553 350.238Z" fill="#455A64"/>
<path d="M459.944 35.1467C461.506 44.7069 456.105 53.672 447.987 54.9979L425.063 58.7417C416.944 60.0676 408.973 53.2863 407.411 43.7261C405.85 34.1658 411.25 25.2007 419.369 23.8748L442.292 20.1311C450.319 18.2428 458.291 25.024 459.944 35.1467ZM455.537 338.407C453.976 328.847 459.376 319.882 467.495 318.556L490.418 314.812C498.537 313.486 506.509 320.268 508.07 329.828C509.631 339.388 504.231 348.353 496.112 349.679L473.189 353.423C465.162 355.311 457.19 348.53 455.537 338.407Z" fill="#455A64"/>
<path d="M412.609 66.5492L462.277 58.4378L502.872 307.005L453.204 315.116L412.609 66.5492Z" fill="#DFCEA3"/>
<path d="M472.453 48.6927C473.188 53.1916 470.873 57.0338 467.053 57.6578L407.834 67.3291C404.013 67.953 400.597 65.0468 399.862 60.5478C399.127 56.0489 401.442 52.2067 405.262 51.5828L464.481 41.9114C468.394 41.8498 471.81 44.7561 472.453 48.6927ZM443.028 324.861C442.294 320.362 444.608 316.52 448.428 315.896L507.647 306.225C511.468 305.601 514.884 308.507 515.619 313.006C516.354 317.505 514.04 321.347 510.219 321.971L451 331.642C447.18 332.266 443.671 328.798 443.028 324.861Z" fill="#455A64"/>
<path d="M435.974 23.4724C436.617 27.409 435.166 30.5328 432.3 31.0008C429.912 31.3908 426.973 28.4065 426.422 25.0323L424.677 14.3473C424.034 10.4107 425.485 7.2869 428.351 6.81893C430.739 6.42896 433.678 9.4132 434.229 12.7874L435.974 23.4724ZM479.508 350.082C478.865 346.145 480.316 343.021 483.181 342.553C485.569 342.163 488.508 345.147 489.059 348.522L490.804 359.207C491.447 363.143 489.996 366.267 487.131 366.735C484.743 367.125 481.804 364.141 481.253 360.767L479.508 350.082Z" fill="#455A64"/>
<path d="M454.213 36.0825C455.774 45.6428 451.807 54.3739 445.598 55.3878L427.928 58.2736C421.72 59.2875 415.181 52.2723 413.619 42.712C412.058 33.1518 416.026 24.4207 422.234 23.4067L439.904 20.5209C446.021 18.9446 452.56 25.9599 454.213 36.0825ZM461.268 337.471C459.706 327.911 463.674 319.18 469.882 318.166L487.552 315.28C493.761 314.266 500.3 321.282 501.861 330.842C503.423 340.402 499.455 349.133 493.247 350.147L475.576 353.033C469.46 354.609 462.921 347.594 461.268 337.471Z" fill="#263238"/>
<path d="M418.34 65.6132L457.023 59.2956L497.618 307.863L458.935 314.18L418.34 65.6132Z" fill="#FAFAFA"/>
<path d="M464.334 50.0186C465.068 54.5175 463.232 58.2817 460.366 58.7497L414.519 66.2371C411.654 66.7051 408.715 63.7209 407.98 59.2219C407.245 54.723 409.082 50.9588 411.948 50.4908L457.795 43.0033C460.752 43.0977 463.691 46.082 464.334 50.0186ZM451.146 323.535C450.412 319.036 452.248 315.272 455.114 314.804L500.961 307.317C503.826 306.849 506.765 309.833 507.5 314.332C508.235 318.831 506.398 322.595 503.532 323.063L457.686 330.551C454.82 331.018 451.789 327.472 451.146 323.535Z" fill="#455A64"/>
<path d="M453.204 315.116C365.368 353.711 269.816 345.066 269.816 345.066L229.222 96.499C324.681 104.581 412.609 66.5491 412.609 66.5491L453.204 315.116Z" fill="#F5F5F5"/>
<path d="M310.336 229.903C320.071 229.468 331.147 228.237 344.519 226.053C391.321 218.409 412.867 206.23 412.867 206.23M279.551 254.562C279.551 254.562 304.33 259.175 348.744 251.922C395.546 244.278 417.092 232.099 417.092 232.099M283.776 280.431C283.776 280.431 308.554 285.044 352.969 277.791C399.771 270.147 421.317 257.968 421.317 257.968M287.909 305.737C287.909 305.737 312.687 310.351 357.102 303.097" stroke="#7D8B91" stroke-miterlimit="10"/>
</g>
<path d="M358.328 117.162L291.473 129.813L304.124 196.668L370.979 184.017L358.328 117.162Z" fill="#263238"/>
<path d="M342.994 143.949C343.509 146.605 343.224 149.354 342.176 151.848C341.128 154.342 339.364 156.47 337.107 157.961C334.85 159.453 332.201 160.243 329.496 160.229C326.791 160.216 324.15 159.401 321.908 157.887C319.665 156.373 317.922 154.229 316.899 151.724C315.875 149.22 315.617 146.468 316.158 143.817C316.698 141.166 318.012 138.735 319.934 136.831C321.855 134.926 324.299 133.635 326.954 133.119C328.719 132.776 330.533 132.784 332.294 133.143C334.056 133.502 335.729 134.204 337.218 135.21C338.708 136.216 339.985 137.505 340.976 139.005C341.967 140.504 342.653 142.184 342.994 143.949Z" fill="white"/>
<path d="M359.831 179.342L360.909 184.969L314.6 193.985L313.523 188.359C312.314 182.063 313.596 175.548 317.086 170.246C320.576 164.945 325.989 161.291 332.133 160.089C338.278 158.886 344.651 160.234 349.851 163.836C355.05 167.437 358.65 172.997 359.859 179.293L359.831 179.342Z" fill="white"/>
<path d="M345.9 126.645C339.291 110.624 321.582 99.4677 294.346 96.9876C239.877 91.9775 167.895 123.519 133.583 167.432C116.424 189.318 111.949 210.244 118.558 226.264L130.73 255.771C137.339 271.792 155.039 282.928 182.263 285.438C236.744 290.418 308.726 258.876 343.025 214.993C360.206 193.097 364.681 172.172 358.072 156.151L345.9 126.645ZM142.797 174.002C158.115 154.408 182.233 136.728 210.685 124.26C239.138 111.793 268.25 106.22 292.565 108.375C314.566 110.396 329.561 118.504 334.873 131.381C340.185 144.259 335.416 161.123 321.619 178.806C306.288 198.43 282.183 216.08 253.71 228.557C225.236 241.034 196.145 246.598 171.851 244.433C149.859 242.432 134.856 234.304 129.552 221.447C124.248 208.59 128.978 191.815 142.797 174.002Z" fill="#FF3DF0"/>
<path opacity="0.2" d="M345.9 126.645C339.291 110.624 321.582 99.4677 294.346 96.9876C239.877 91.9775 167.895 123.519 133.583 167.432C116.424 189.318 111.949 210.244 118.558 226.264L130.73 255.771C137.339 271.792 155.039 282.928 182.263 285.438C236.744 290.418 308.726 258.876 343.025 214.993C360.206 193.097 364.681 172.172 358.072 156.151L345.9 126.645ZM142.797 174.002C158.115 154.408 182.233 136.728 210.685 124.26C239.138 111.793 268.25 106.22 292.565 108.375C314.566 110.396 329.561 118.504 334.873 131.381C340.185 144.259 335.416 161.123 321.619 178.806C306.288 198.43 282.183 216.08 253.71 228.557C225.236 241.034 196.145 246.598 171.851 244.433C149.859 242.432 134.856 234.304 129.552 221.447C124.248 208.59 128.978 191.815 142.797 174.002Z" fill="white"/>
<path opacity="0.6" d="M132.66 258.701C138.593 268.031 146.341 273.632 171.022 279.361C205.818 287.508 276.562 266.09 310.613 236.663C342.708 208.927 345.083 181.03 338.683 165.537L334.912 156.407C338.263 148.359 338.3 139.523 335.015 131.811C331.731 124.098 325.389 118.128 317.36 115.192L311.918 102.38L314.039 101.452C330.338 106.412 341.256 115.563 346.121 127.34L358.262 156.731C364.854 172.689 360.366 193.472 343.254 215.343C309.043 259.055 237.247 290.474 182.905 285.514C157.189 283.22 140.035 273.22 132.66 258.701Z" fill="#FF3DF0"/>
<path d="M169.886 255.158C224.223 260.117 295.993 228.712 330.221 184.996C364.45 141.281 348.126 101.824 293.81 96.8555C239.494 91.8865 167.695 123.281 133.475 167.017C99.254 210.753 115.57 250.189 169.886 255.158ZM129.433 220.823C124.16 208.058 128.882 191.301 142.697 173.641C157.975 154.126 182.007 136.526 210.405 124.1C238.803 111.673 267.816 106.131 292.046 108.287C313.988 110.3 328.965 118.365 334.263 131.19C339.562 144.016 334.814 160.712 320.991 178.352C305.722 197.887 281.66 215.476 253.283 227.893C224.906 240.311 195.871 245.862 171.641 243.706C149.708 241.713 134.706 233.587 129.433 220.823Z" fill="#FF3DF0"/>
<path opacity="0.5" d="M169.886 255.158C224.223 260.117 295.993 228.712 330.221 184.996C364.45 141.281 348.126 101.824 293.81 96.8555C239.494 91.8865 167.695 123.281 133.475 167.017C99.254 210.753 115.57 250.189 169.886 255.158ZM129.433 220.823C124.16 208.058 128.882 191.301 142.697 173.641C157.975 154.126 182.007 136.526 210.405 124.1C238.803 111.673 267.816 106.131 292.046 108.287C313.988 110.3 328.965 118.365 334.263 131.19C339.562 144.016 334.814 160.712 320.991 178.352C305.722 197.887 281.66 215.476 253.283 227.893C224.906 240.311 195.871 245.862 171.641 243.706C149.708 241.713 134.706 233.587 129.433 220.823Z" fill="white"/>
<path d="M129.44 219.522C131.638 224.632 135.248 228.995 139.893 232.153C141.319 222.87 146.325 212.548 154.742 201.921C169.909 182.596 193.859 165.159 222.088 152.868C250.317 140.578 279.2 135.083 303.313 137.236C316.606 138.411 327.34 141.88 334.88 147.259C335.862 141.645 335.291 135.961 333.225 130.797C327.979 118.165 313.076 110.114 291.227 108.133C267.097 105.94 238.238 111.495 210.009 123.785C181.78 136.076 157.856 153.573 142.655 172.818C128.87 190.314 124.194 206.889 129.44 219.522Z" fill="#FF3DF0"/>
<path opacity="0.3" d="M129.44 219.522C131.638 224.632 135.248 228.995 139.893 232.153C141.319 222.87 146.325 212.548 154.742 201.921C169.909 182.596 193.859 165.159 222.088 152.868C250.317 140.578 279.2 135.083 303.313 137.236C316.606 138.411 327.34 141.88 334.88 147.259C335.862 141.645 335.291 135.961 333.225 130.797C327.979 118.165 313.076 110.114 291.227 108.133C267.097 105.94 238.238 111.495 210.009 123.785C181.78 136.076 157.856 153.573 142.655 172.818C128.87 190.314 124.194 206.889 129.44 219.522Z" fill="white"/>
<path opacity="0.6" d="M290.697 108.579C312.762 110.596 327.786 118.725 333.109 131.636C335.195 136.889 335.771 142.67 334.779 148.382C327.164 142.91 316.325 139.38 302.901 138.183C297.234 137.673 291.515 137.565 285.786 137.861C290.71 137.599 305.796 135.809 295.922 125.831C284.213 113.967 249.595 110.732 227.837 117.271C250.012 109.973 271.8 106.925 290.697 108.579Z" fill="#FF3DF0"/>
<path opacity="0.4" d="M148.57 187.167C163.812 167.732 187.789 150.204 216.121 137.829C244.454 125.453 273.4 119.933 297.574 122.08C315.716 123.656 328.965 129.53 336.037 138.648C337.523 150.207 332.322 164.021 320.967 178.6C305.733 198.055 281.727 215.571 253.416 227.938C225.105 240.305 196.137 245.833 171.963 243.687C153.821 242.111 140.572 236.237 133.5 227.119C132.014 215.56 137.19 201.685 148.57 187.167Z" fill="white"/>
<path d="M319.644 154.823C315.208 161.924 309.607 168.318 303.074 173.737C296.733 179.175 289.993 184.153 282.913 188.626C268.728 197.527 253.701 205.019 238.077 210.98C230.283 213.986 222.34 216.633 214.307 218.945C206.317 221.283 198.212 223.146 190.038 224.521C181.956 226.031 173.772 226.628 165.653 226.302C163.64 226.168 161.641 225.931 159.665 225.592C157.689 225.27 155.749 224.802 153.862 224.192C151.974 223.614 150.175 222.82 148.502 221.826C146.753 220.796 145.207 219.486 143.926 217.947C144.703 219.888 145.845 221.657 147.297 223.169C148.807 224.68 150.503 226.006 152.351 227.123C154.185 228.255 156.138 229.206 158.183 229.964C160.225 230.752 162.325 231.408 164.47 231.928C172.995 233.807 181.837 234.416 190.698 233.734C199.457 233.14 208.186 231.795 216.784 229.715C225.351 227.685 233.794 225.089 242.052 221.945C258.66 215.694 274.282 206.987 288.336 196.148C295.35 190.695 301.75 184.528 307.413 177.765C310.23 174.369 312.74 170.753 314.913 166.96C315.464 166.017 315.948 165.033 316.449 164.089C316.95 163.145 317.397 162.13 317.726 161.19C318.55 159.114 319.192 156.984 319.644 154.823Z" fill="white"/>
<path d="M183.303 274.835C182.158 272.453 180.441 270.399 178.29 268.839C176.138 267.279 173.612 266.256 170.917 265.853C169.963 265.652 168.956 265.709 168.003 266.017C167.049 266.325 166.184 266.874 165.497 267.605L147.34 290.725C146.81 291.566 146.508 292.516 146.464 293.479C146.419 294.443 146.634 295.387 147.087 296.217C148.227 298.603 149.942 300.66 152.095 302.22C154.247 303.781 156.775 304.802 159.473 305.199C160.431 305.398 161.441 305.34 162.397 305.03C163.354 304.721 164.223 304.171 164.914 303.438L183.071 280.318C183.6 279.478 183.9 278.528 183.941 277.566C183.982 276.603 183.761 275.661 183.303 274.835Z" fill="#39FF14"/>
<path d="M182.996 280.558C183.531 279.719 183.836 278.768 183.879 277.803C183.922 276.838 183.701 275.894 183.24 275.067C182.443 273.269 181.278 271.664 179.812 270.347L153.764 303.512C155.459 304.523 157.372 305.16 159.38 305.383C160.336 305.582 161.343 305.524 162.297 305.215C163.251 304.907 164.117 304.359 164.806 303.629L182.911 280.596L182.996 280.558Z" fill="#263238"/>
<path d="M77.1731 366.743L141.607 292.287L141.713 292.24C142.685 291.25 143.889 290.509 145.209 290.09C146.528 289.671 147.918 289.589 149.241 289.852C153.026 290.425 156.571 291.868 159.589 294.065C162.606 296.263 165.012 299.152 166.612 302.5C167.25 303.677 167.545 305.016 167.468 306.38C167.391 307.744 166.944 309.083 166.172 310.26L109.59 389.994C107.914 392.162 105.835 394.01 103.471 395.433C101.108 396.855 98.5063 397.824 95.8151 398.284C90.3799 399.213 84.9098 398.012 80.6081 394.946C76.3064 391.88 73.5255 387.2 72.8772 381.935C72.2289 376.67 73.7663 371.252 77.1512 366.873L77.1731 366.743Z" fill="#455A64"/>
<path d="M166.259 310.496L109.801 389.932C107.694 392.853 104.871 395.229 101.613 396.825C98.354 398.422 94.7716 399.183 91.2195 399.035C87.6673 398.886 84.2683 397.832 81.3583 395.977C78.4484 394.123 76.1281 391.531 74.6268 388.459C78.5729 393.889 91.0452 394.371 101.126 381.848C111.207 369.325 147.095 319.647 163.88 298.249C165.049 299.599 165.998 301.121 166.697 302.766C167.334 303.938 167.628 305.272 167.551 306.631C167.474 307.989 167.028 309.324 166.259 310.496Z" fill="#39FF14"/>
<path d="M165.029 310.375C165.806 309.186 166.257 307.834 166.335 306.458C166.413 305.081 166.115 303.729 165.472 302.542C163.859 299.162 161.433 296.246 158.39 294.028C155.348 291.81 151.774 290.354 147.956 289.775C146.623 289.51 145.222 289.593 143.891 290.015C142.56 290.438 141.346 291.186 140.366 292.186L134.711 298.8C135.714 297.773 136.959 297.003 138.323 296.566C139.687 296.129 141.124 296.039 142.494 296.305C146.422 296.883 150.102 298.367 153.238 300.637C156.373 302.908 158.874 305.9 160.538 309.371C161.205 310.587 161.521 311.971 161.454 313.384C161.387 314.797 160.94 316.189 160.158 317.418" fill="#FF3DF0"/>
<path opacity="0.2" d="M159.916 317.872C160.702 316.638 161.152 315.24 161.219 313.821C161.286 312.402 160.969 311.012 160.299 309.792C159.561 308.066 158.566 306.466 157.347 305.042L162.589 298.254C163.197 298.955 163.745 299.705 164.227 300.497C164.397 300.908 164.696 301.263 164.887 301.664C165.078 302.066 165.226 302.487 165.387 302.877C166.033 304.07 166.333 305.427 166.255 306.81C166.176 308.192 165.723 309.55 164.941 310.743L159.916 317.872Z" fill="black"/>
<defs>
<clipPath id="clip0_254_3075">
<rect width="309.695" height="364.684" fill="white" transform="translate(159 50.8079) rotate(-9.27536)"/>
</clipPath>
</defs>
</svg>
