<svg width="84" height="84" viewBox="0 0 84 84" fill="none" xmlns="http://www.w3.org/2000/svg">
<path d="M80.0838 70.6099C78.2411 69.0729 77.5888 68.6949 77.2082 68.9771C77.1113 68.4694 76.8519 68.0069 76.4692 67.6594C75.9035 67.1475 75.1331 66.9217 74.3285 66.9467C74.3215 66.62 74.248 66.2982 74.1126 66.0008C73.9773 65.7034 73.7828 65.4367 73.541 65.2168C72.974 64.7036 72.2023 64.4779 71.3977 64.5028C71.3912 64.1762 71.3181 63.8543 71.183 63.5568C71.0478 63.2594 70.8533 62.9926 70.6115 62.7729C70.0459 62.2598 69.2741 62.034 68.4708 62.0576C68.4643 61.7309 68.3911 61.4088 68.2557 61.1114C68.1203 60.8139 67.9255 60.5472 67.6833 60.3278C67.0258 59.7306 66.0926 59.5206 65.1476 59.6505C67.3303 56.1094 64.5412 52.101 62.3599 50.2779C60.9909 49.1361 61.6445 50.6494 59.2243 54.3506C55.984 51.6362 52.8146 48.8383 49.7192 45.9598C55.292 42.1063 61.4306 37.5677 67.6033 32.4135C82.9976 19.5602 81.3215 5.25 81.3215 5.25C81.3215 5.25 79.5444 7.0665 76.4889 9.19012C72.1655 12.1957 65.2775 15.8314 57.2253 15.8314L56.867 15.8288C56.867 15.8288 56.4536 23.0107 41.9977 38.3106C27.5445 23.0094 27.1337 15.8288 27.1337 15.8288L26.7754 15.8314C18.7232 15.8314 11.8352 12.1957 7.51179 9.19012C4.45629 7.0665 2.67917 5.25 2.67917 5.25C2.67917 5.25 1.0031 19.5602 16.3948 32.4122C22.5557 37.5572 28.7008 42.1116 34.2658 45.9598C31.1747 48.8383 28.0092 51.6357 24.7725 54.3493C22.3535 50.6494 23.0072 49.1348 21.6382 50.2766C19.4569 52.0997 16.6678 56.1067 18.8505 59.6492C17.9068 59.5179 16.9723 59.7293 16.3147 60.3264C16.0729 60.5462 15.8783 60.8129 15.7429 61.1103C15.6075 61.4077 15.5341 61.7296 15.5272 62.0563C14.7227 62.0314 13.9522 62.2584 13.3865 62.7716C12.8734 63.2363 12.6253 63.8505 12.6004 64.5015C11.7958 64.4753 11.024 64.7023 10.4584 65.2155C9.94517 65.6801 9.6971 66.2944 9.67217 66.9454C8.8676 66.9204 8.09585 67.1462 7.53148 67.6581C7.14957 68.006 6.89076 68.4684 6.79385 68.9758C6.41192 68.6936 5.7596 69.0716 3.91685 70.6086C0.71698 73.2834 4.2266 72.1206 6.21373 74.4765C9.14192 77.9494 16.7899 81.2582 23.0623 76.0187C28.223 71.7124 30.5015 64.7614 28.185 59.3919C29.9542 58.4286 35.1097 55.545 42.0004 51.1166C48.8988 55.5516 54.0465 58.4259 55.8144 59.3932C53.4979 64.7627 55.7764 71.7137 60.9371 76.02C67.2095 81.2595 74.8562 77.952 77.7857 74.4778C79.7728 72.1219 83.2837 73.2848 80.0838 70.6099ZM9.41492 72.8267C10.583 73.2165 11.8417 73.0682 12.6699 72.3161C13.1805 71.8528 13.4285 71.2386 13.4535 70.5876C14.258 70.6138 15.0285 70.3867 15.5955 69.8749C16.1074 69.4102 16.3554 68.796 16.3804 68.1437C17.1849 68.1699 17.9567 67.9416 18.525 67.4297C19.0355 66.9664 19.2836 66.3508 19.3085 65.6998C20.1131 65.7261 20.8849 65.5003 21.4519 64.9871C21.9585 64.5251 22.2079 63.9161 22.2367 63.2691C26.9985 69.9143 16.3895 78.792 9.41492 72.8267ZM58.4447 17.7739C64.259 17.5271 69.429 15.5676 73.4977 13.3521C71.9267 18.2634 68.6008 24.2393 61.7443 29.9604C56.2672 34.5345 50.8164 38.6177 45.7712 42.1654C44.9549 41.3603 44.1472 40.5465 43.3483 39.7241C54.267 28.1531 57.5049 20.9265 58.4447 17.7739ZM25.556 17.7739C26.8042 21.9568 32.045 33.2889 54.0032 52.4738C46.4629 47.922 34.3787 40.0837 22.2564 29.9617C15.4012 24.2406 12.0754 18.2647 10.503 13.3534C14.5717 15.5676 19.743 17.5271 25.556 17.7739ZM29.9975 52.4724C32.0069 50.7173 33.9848 48.9263 35.93 47.1004C36.3566 47.3918 36.7779 47.6753 37.1979 47.9574C34.8219 49.5005 32.4215 51.0057 29.9975 52.4724ZM61.764 63.2691C61.7928 63.9148 62.0422 64.5251 62.5488 64.9871C63.1172 65.5003 63.8889 65.7261 64.6935 65.6998C64.7184 66.3508 64.9665 66.9677 65.477 67.4297C66.0454 67.9416 66.8171 68.1686 67.6217 68.1437C67.6479 68.796 67.8947 69.4116 68.4065 69.8749C68.9735 70.3867 69.7453 70.6138 70.5499 70.5876C70.5748 71.2386 70.8215 71.8541 71.3334 72.3161C72.1629 73.0669 73.4216 73.2165 74.5884 72.8267C67.6112 78.792 57.0022 69.9143 61.764 63.2691Z" fill="#FF3DF0"/>
</svg>
