<svg width="485" height="124" viewBox="0 0 485 124" fill="none" xmlns="http://www.w3.org/2000/svg">
<mask id="path-1-inside-1_147_23391" fill="white">
<path d="M482.126 123.253C483.634 119.54 485.489 113.91 484.882 110.016C483.894 103.7 478.954 94.6801 470.062 85.6401C461.17 76.6 459.194 46.8363 459.194 46.8363C459.194 46.8363 453.266 55.8562 459.194 73.9162C465.122 91.9762 473.061 95.568 470.062 109.108C467.063 122.648 453.266 112.72 451.29 100.088C449.314 87.4562 427.595 82.9361 429.571 85.6401C433.939 91.6937 446.905 109.148 428.601 107.837C400.035 105.92 413.989 75.1673 405.877 59.4077C397.973 44.0718 379.201 45.8677 366.374 31.4399C353.547 17.0121 374.278 0.748047 374.278 0.748047C374.278 0.748047 357.482 1.65611 349.578 13.38C341.674 25.1038 344.638 37.7558 360.446 45.8677C376.254 53.9796 376.254 70.2436 372.302 82.8755C368.35 95.5074 351.502 95.5074 344.569 86.4875C337.636 77.4676 352.473 59.4077 352.473 59.4077C352.473 59.4077 335.694 66.6317 329.766 75.6516C323.838 84.6715 331.742 90.0995 332.73 100.936C333.354 107.756 321.065 121.276 313.421 114.556C308.88 110.52 312.537 101.238 312.97 96.3953C313.958 85.5593 299.104 77.4475 299.104 77.4475C299.104 77.4475 299.104 93.6913 290.212 100.915C281.32 108.139 270.452 93.6914 275.392 79.2434C280.332 64.7954 295.152 53.9796 289.258 38.6235C283.365 23.2675 259.722 18.8484 259.722 18.8484C259.722 18.8484 270.573 34.2044 270.573 45.9282C270.573 57.6521 263.64 64.8963 255.77 61.2843C247.901 57.6723 256.758 33.2964 256.758 33.2964C256.758 33.2964 240.95 39.6123 236.998 51.3563C233.046 63.1004 240.95 73.0081 245.89 77.5887C251.472 82.6737 249.357 96.5164 247.312 102.469C244.296 111.247 228.245 119.076 222.317 108.281C220.254 104.507 223.184 97.8684 223.184 93.8326C223.184 82.0886 211.328 75.7726 211.328 75.7726C211.328 75.7726 216.268 89.3126 205.4 94.7406C194.532 100.169 173.801 82.0886 183.681 65.8447C193.561 49.6008 195.537 39.6123 182.693 26.1329C169.849 12.6535 162.933 25.2249 162.933 25.2249C170.837 22.5209 174.789 38.7648 166.885 50.5089C158.981 62.2529 152.082 64.0488 153.018 75.7726C153.954 87.4965 160.922 92.9246 158.946 109.168C156.97 125.412 141.162 122.708 140.174 118.209C139.186 113.709 145.114 105.556 143.138 93.8326C141.162 82.1088 128.318 73.9767 128.318 73.9767C127.98 80.4057 126.991 86.7656 125.372 92.9246C123.638 100.391 119.132 103.276 110.829 102.267C99.2332 100.875 93.1145 87.557 96.9625 78.2546C98.0025 75.6919 102.388 65.8447 105.629 64.9568C105.629 64.9568 88.8332 69.4769 85.8865 79.3846C82.9399 89.2924 83.9105 100.149 77.9825 109.168C68.9172 122.971 50.2492 106.384 50.2492 95.4872C50.2492 93.7317 55.4492 80.4944 55.2412 80.2926C55.0332 80.0909 69.1079 96.5366 69.1079 96.5366C69.577 88.9401 68.9084 81.3066 67.1319 73.9767C64.1679 61.3448 49.3652 55.0289 40.4733 47.7444C32.3959 41.1661 42.9346 29.9467 46.5053 24.0141C37.9773 26.2742 26.572 34.4062 23.6773 42.3163C19.7253 53.1523 26.6413 59.4682 32.5693 71.2122C35.7413 77.4676 34.8573 87.7991 32.9679 94.2362C30.8706 101.4 23.452 101.823 17.5933 97.7674C15.1309 96.0748 13.1155 93.6267 11.7674 90.6907C10.4193 87.7548 9.79038 84.4439 9.94931 81.12C10.0533 78.1335 9.44664 68.1249 11.8386 65.7842C7.29324 70.7959 3.91256 77.0665 2.0121 84.0108C0.111637 90.9551 -0.246653 98.3468 0.970661 105.496C2.25333 113.749 1.54266 119.379 0 123.253H482.126Z"/>
</mask>
<path d="M482.126 123.253C483.634 119.54 485.489 113.91 484.882 110.016C483.894 103.7 478.954 94.6801 470.062 85.6401C461.17 76.6 459.194 46.8363 459.194 46.8363C459.194 46.8363 453.266 55.8562 459.194 73.9162C465.122 91.9762 473.061 95.568 470.062 109.108C467.063 122.648 453.266 112.72 451.29 100.088C449.314 87.4562 427.595 82.9361 429.571 85.6401C433.939 91.6937 446.905 109.148 428.601 107.837C400.035 105.92 413.989 75.1673 405.877 59.4077C397.973 44.0718 379.201 45.8677 366.374 31.4399C353.547 17.0121 374.278 0.748047 374.278 0.748047C374.278 0.748047 357.482 1.65611 349.578 13.38C341.674 25.1038 344.638 37.7558 360.446 45.8677C376.254 53.9796 376.254 70.2436 372.302 82.8755C368.35 95.5074 351.502 95.5074 344.569 86.4875C337.636 77.4676 352.473 59.4077 352.473 59.4077C352.473 59.4077 335.694 66.6317 329.766 75.6516C323.838 84.6715 331.742 90.0995 332.73 100.936C333.354 107.756 321.065 121.276 313.421 114.556C308.88 110.52 312.537 101.238 312.97 96.3953C313.958 85.5593 299.104 77.4475 299.104 77.4475C299.104 77.4475 299.104 93.6913 290.212 100.915C281.32 108.139 270.452 93.6914 275.392 79.2434C280.332 64.7954 295.152 53.9796 289.258 38.6235C283.365 23.2675 259.722 18.8484 259.722 18.8484C259.722 18.8484 270.573 34.2044 270.573 45.9282C270.573 57.6521 263.64 64.8963 255.77 61.2843C247.901 57.6723 256.758 33.2964 256.758 33.2964C256.758 33.2964 240.95 39.6123 236.998 51.3563C233.046 63.1004 240.95 73.0081 245.89 77.5887C251.472 82.6737 249.357 96.5164 247.312 102.469C244.296 111.247 228.245 119.076 222.317 108.281C220.254 104.507 223.184 97.8684 223.184 93.8326C223.184 82.0886 211.328 75.7726 211.328 75.7726C211.328 75.7726 216.268 89.3126 205.4 94.7406C194.532 100.169 173.801 82.0886 183.681 65.8447C193.561 49.6008 195.537 39.6123 182.693 26.1329C169.849 12.6535 162.933 25.2249 162.933 25.2249C170.837 22.5209 174.789 38.7648 166.885 50.5089C158.981 62.2529 152.082 64.0488 153.018 75.7726C153.954 87.4965 160.922 92.9246 158.946 109.168C156.97 125.412 141.162 122.708 140.174 118.209C139.186 113.709 145.114 105.556 143.138 93.8326C141.162 82.1088 128.318 73.9767 128.318 73.9767C127.98 80.4057 126.991 86.7656 125.372 92.9246C123.638 100.391 119.132 103.276 110.829 102.267C99.2332 100.875 93.1145 87.557 96.9625 78.2546C98.0025 75.6919 102.388 65.8447 105.629 64.9568C105.629 64.9568 88.8332 69.4769 85.8865 79.3846C82.9399 89.2924 83.9105 100.149 77.9825 109.168C68.9172 122.971 50.2492 106.384 50.2492 95.4872C50.2492 93.7317 55.4492 80.4944 55.2412 80.2926C55.0332 80.0909 69.1079 96.5366 69.1079 96.5366C69.577 88.9401 68.9084 81.3066 67.1319 73.9767C64.1679 61.3448 49.3652 55.0289 40.4733 47.7444C32.3959 41.1661 42.9346 29.9467 46.5053 24.0141C37.9773 26.2742 26.572 34.4062 23.6773 42.3163C19.7253 53.1523 26.6413 59.4682 32.5693 71.2122C35.7413 77.4676 34.8573 87.7991 32.9679 94.2362C30.8706 101.4 23.452 101.823 17.5933 97.7674C15.1309 96.0748 13.1155 93.6267 11.7674 90.6907C10.4193 87.7548 9.79038 84.4439 9.94931 81.12C10.0533 78.1335 9.44664 68.1249 11.8386 65.7842C7.29324 70.7959 3.91256 77.0665 2.0121 84.0108C0.111637 90.9551 -0.246653 98.3468 0.970661 105.496C2.25333 113.749 1.54266 119.379 0 123.253H482.126Z" fill="#1B1C1E" stroke="#FF3DF0" stroke-width="2" mask="url(#path-1-inside-1_147_23391)"/>
</svg>
