<svg width="485" height="124" viewBox="0 0 485 124" fill="none" xmlns="http://www.w3.org/2000/svg">
<mask id="path-1-inside-1_147_23425" fill="white">
<path d="M482.126 123.252C483.634 119.539 485.489 113.909 484.882 110.015C483.894 103.699 478.954 94.6792 470.062 85.6391C461.17 76.599 459.194 46.8353 459.194 46.8353C459.194 46.8353 453.266 55.8553 459.194 73.9152C465.122 91.9752 473.061 95.567 470.062 109.107C467.063 122.647 453.266 112.719 451.29 100.087C449.314 87.4552 427.595 82.9351 429.571 85.6391C433.939 91.6927 446.905 109.147 428.601 107.836C400.035 105.919 413.989 75.1663 405.877 59.4067C397.973 44.0709 379.201 45.8667 366.374 31.4389C353.547 17.0111 374.278 0.74707 374.278 0.74707C374.278 0.74707 357.482 1.65513 349.578 13.379C341.674 25.1028 344.638 37.7549 360.446 45.8667C376.254 53.9786 376.254 70.2426 372.302 82.8745C368.35 95.5064 351.502 95.5065 344.569 86.4866C337.636 77.4667 352.473 59.4067 352.473 59.4067C352.473 59.4067 335.694 66.6307 329.766 75.6506C323.838 84.6705 331.742 90.0986 332.73 100.935C333.354 107.755 321.065 121.275 313.421 114.555C308.88 110.519 312.537 101.237 312.97 96.3943C313.958 85.5583 299.104 77.4465 299.104 77.4465C299.104 77.4465 299.104 93.6904 290.212 100.914C281.32 108.138 270.452 93.6904 275.392 79.2424C280.332 64.7944 295.152 53.9786 289.258 38.6226C283.365 23.2665 259.722 18.8474 259.722 18.8474C259.722 18.8474 270.573 34.2034 270.573 45.9273C270.573 57.6511 263.64 64.8953 255.77 61.2833C247.901 57.6713 256.758 33.2954 256.758 33.2954C256.758 33.2954 240.95 39.6113 236.998 51.3553C233.046 63.0994 240.95 73.0071 245.89 77.5877C251.472 82.6728 249.357 96.5154 247.312 102.468C244.296 111.246 228.245 119.075 222.317 108.28C220.254 104.506 223.184 97.8674 223.184 93.8317C223.184 82.0876 211.328 75.7716 211.328 75.7716C211.328 75.7716 216.268 89.3116 205.4 94.7397C194.532 100.168 173.801 82.0876 183.681 65.8437C193.561 49.5998 195.537 39.6113 182.693 26.1319C169.849 12.6525 162.933 25.2239 162.933 25.2239C170.837 22.52 174.789 38.7638 166.885 50.5079C158.981 62.2519 152.082 64.0478 153.018 75.7716C153.954 87.4955 160.922 92.9236 158.946 109.168C156.97 125.411 141.162 122.707 140.174 118.208C139.186 113.708 145.114 105.556 143.138 93.8317C141.162 82.1078 128.318 73.9758 128.318 73.9758C127.98 80.4047 126.991 86.7646 125.372 92.9236C123.638 100.39 119.132 103.275 110.829 102.266C99.2332 100.874 93.1145 87.5561 96.9625 78.2537C98.0025 75.691 102.388 65.8437 105.629 64.9559C105.629 64.9559 88.8332 69.4759 85.8865 79.3837C82.9399 89.2914 83.9105 100.148 77.9825 109.168C68.9172 122.97 50.2492 106.383 50.2492 95.4863C50.2492 93.7307 55.4492 80.4935 55.2412 80.2917C55.0332 80.0899 69.1079 96.5356 69.1079 96.5356C69.577 88.9392 68.9084 81.3056 67.1319 73.9758C64.1679 61.3439 49.3652 55.0279 40.4733 47.7434C32.3959 41.1651 42.9346 29.9457 46.5053 24.0132C37.9773 26.2732 26.572 34.4052 23.6773 42.3153C19.7253 53.1513 26.6413 59.4672 32.5693 71.2112C35.7413 77.4666 34.8573 87.7982 32.9679 94.2352C30.8706 101.399 23.452 101.822 17.5933 97.7665C15.1309 96.0738 13.1155 93.6257 11.7674 90.6897C10.4193 87.7538 9.79038 84.4429 9.94931 81.119C10.0533 78.1325 9.44664 68.1239 11.8386 65.7832C7.29324 70.795 3.91256 77.0655 2.0121 84.0098C0.111637 90.9542 -0.246653 98.3458 0.970661 105.495C2.25333 113.748 1.54266 119.378 0 123.252H482.126Z"/>
</mask>
<path d="M482.126 123.252C483.634 119.539 485.489 113.909 484.882 110.015C483.894 103.699 478.954 94.6792 470.062 85.6391C461.17 76.599 459.194 46.8353 459.194 46.8353C459.194 46.8353 453.266 55.8553 459.194 73.9152C465.122 91.9752 473.061 95.567 470.062 109.107C467.063 122.647 453.266 112.719 451.29 100.087C449.314 87.4552 427.595 82.9351 429.571 85.6391C433.939 91.6927 446.905 109.147 428.601 107.836C400.035 105.919 413.989 75.1663 405.877 59.4067C397.973 44.0709 379.201 45.8667 366.374 31.4389C353.547 17.0111 374.278 0.74707 374.278 0.74707C374.278 0.74707 357.482 1.65513 349.578 13.379C341.674 25.1028 344.638 37.7549 360.446 45.8667C376.254 53.9786 376.254 70.2426 372.302 82.8745C368.35 95.5064 351.502 95.5065 344.569 86.4866C337.636 77.4667 352.473 59.4067 352.473 59.4067C352.473 59.4067 335.694 66.6307 329.766 75.6506C323.838 84.6705 331.742 90.0986 332.73 100.935C333.354 107.755 321.065 121.275 313.421 114.555C308.88 110.519 312.537 101.237 312.97 96.3943C313.958 85.5583 299.104 77.4465 299.104 77.4465C299.104 77.4465 299.104 93.6904 290.212 100.914C281.32 108.138 270.452 93.6904 275.392 79.2424C280.332 64.7944 295.152 53.9786 289.258 38.6226C283.365 23.2665 259.722 18.8474 259.722 18.8474C259.722 18.8474 270.573 34.2034 270.573 45.9273C270.573 57.6511 263.64 64.8953 255.77 61.2833C247.901 57.6713 256.758 33.2954 256.758 33.2954C256.758 33.2954 240.95 39.6113 236.998 51.3553C233.046 63.0994 240.95 73.0071 245.89 77.5877C251.472 82.6728 249.357 96.5154 247.312 102.468C244.296 111.246 228.245 119.075 222.317 108.28C220.254 104.506 223.184 97.8674 223.184 93.8317C223.184 82.0876 211.328 75.7716 211.328 75.7716C211.328 75.7716 216.268 89.3116 205.4 94.7397C194.532 100.168 173.801 82.0876 183.681 65.8437C193.561 49.5998 195.537 39.6113 182.693 26.1319C169.849 12.6525 162.933 25.2239 162.933 25.2239C170.837 22.52 174.789 38.7638 166.885 50.5079C158.981 62.2519 152.082 64.0478 153.018 75.7716C153.954 87.4955 160.922 92.9236 158.946 109.168C156.97 125.411 141.162 122.707 140.174 118.208C139.186 113.708 145.114 105.556 143.138 93.8317C141.162 82.1078 128.318 73.9758 128.318 73.9758C127.98 80.4047 126.991 86.7646 125.372 92.9236C123.638 100.39 119.132 103.275 110.829 102.266C99.2332 100.874 93.1145 87.5561 96.9625 78.2537C98.0025 75.691 102.388 65.8437 105.629 64.9559C105.629 64.9559 88.8332 69.4759 85.8865 79.3837C82.9399 89.2914 83.9105 100.148 77.9825 109.168C68.9172 122.97 50.2492 106.383 50.2492 95.4863C50.2492 93.7307 55.4492 80.4935 55.2412 80.2917C55.0332 80.0899 69.1079 96.5356 69.1079 96.5356C69.577 88.9392 68.9084 81.3056 67.1319 73.9758C64.1679 61.3439 49.3652 55.0279 40.4733 47.7434C32.3959 41.1651 42.9346 29.9457 46.5053 24.0132C37.9773 26.2732 26.572 34.4052 23.6773 42.3153C19.7253 53.1513 26.6413 59.4672 32.5693 71.2112C35.7413 77.4666 34.8573 87.7982 32.9679 94.2352C30.8706 101.399 23.452 101.822 17.5933 97.7665C15.1309 96.0738 13.1155 93.6257 11.7674 90.6897C10.4193 87.7538 9.79038 84.4429 9.94931 81.119C10.0533 78.1325 9.44664 68.1239 11.8386 65.7832C7.29324 70.795 3.91256 77.0655 2.0121 84.0098C0.111637 90.9542 -0.246653 98.3458 0.970661 105.495C2.25333 113.748 1.54266 119.378 0 123.252H482.126Z" fill="#1B1C1E" stroke="#39FF14" stroke-width="2" mask="url(#path-1-inside-1_147_23425)"/>
</svg>
