<svg width="1917" height="2303" viewBox="0 0 1917 2303" fill="none" xmlns="http://www.w3.org/2000/svg">
<rect x="-202" y="416" width="2107" height="1470" fill="#37474F"/>
<path d="M-23.5016 1882C-29.5346 1894.76 -36.9546 1914.11 -34.5276 1927.49C-30.5748 1949.2 -10.8113 1980.19 24.7633 2011.26C60.3378 2042.33 68.2434 2144.61 68.2434 2144.61C68.2434 2144.61 91.9597 2113.62 68.2434 2051.55C44.5271 1989.49 12.7664 1977.14 24.7633 1930.61C36.7602 1884.08 91.9597 1918.2 99.8653 1961.61C107.771 2005.02 194.661 2020.55 186.756 2011.26C169.281 1990.46 117.41 1930.47 190.639 1934.98C304.922 1941.57 249.098 2047.25 281.552 2101.41C313.174 2154.11 388.275 2147.94 439.592 2197.52C490.908 2247.11 407.97 2303 407.97 2303C407.97 2303 475.166 2299.88 506.788 2259.59C538.41 2219.3 526.552 2175.82 463.308 2147.94C400.064 2120.06 400.064 2064.17 415.875 2020.76C431.686 1977.35 499.09 1977.35 526.829 2008.35C554.567 2039.35 495.207 2101.41 495.207 2101.41C495.207 2101.41 562.334 2076.58 586.05 2045.59C609.767 2014.59 578.145 1995.94 574.192 1958.7C571.696 1935.26 620.862 1888.8 651.444 1911.89C669.612 1925.76 654.98 1957.66 653.247 1974.3C649.294 2011.54 708.724 2039.42 708.724 2039.42C708.724 2039.42 708.724 1983.59 744.298 1958.77C779.873 1933.94 823.353 1983.59 803.589 2033.24C783.825 2082.9 724.534 2120.06 748.112 2172.84C771.69 2225.61 866.278 2240.8 866.278 2240.8C866.278 2240.8 822.867 2188.02 822.867 2147.73C822.867 2107.44 850.606 2082.55 882.089 2094.96C913.572 2107.37 878.136 2191.14 878.136 2191.14C878.136 2191.14 941.38 2169.44 957.191 2129.08C973.001 2088.72 941.38 2054.67 921.616 2038.93C899.287 2021.45 907.747 1973.88 915.93 1953.43C927.996 1923.26 992.21 1896.35 1015.93 1933.45C1024.18 1946.42 1012.46 1969.24 1012.46 1983.11C1012.46 2023.47 1059.89 2045.17 1059.89 2045.17C1059.89 2045.17 1040.13 1998.64 1083.61 1979.99C1127.09 1961.33 1210.03 2023.47 1170.5 2079.29C1130.97 2135.11 1123.07 2169.44 1174.45 2215.76C1225.84 2262.09 1253.51 2218.88 1253.51 2218.88C1221.88 2228.18 1206.07 2172.35 1237.7 2131.99C1269.32 2091.63 1296.92 2085.46 1293.17 2045.17C1289.43 2004.88 1261.55 1986.23 1269.46 1930.4C1277.36 1874.58 1340.61 1883.87 1344.56 1899.34C1348.51 1914.8 1324.79 1942.82 1332.7 1983.11C1340.6 2023.4 1391.99 2051.34 1391.99 2051.34C1393.34 2029.25 1397.3 2007.39 1403.78 1986.23C1410.71 1960.57 1428.74 1950.65 1461.96 1954.12C1508.35 1958.9 1532.83 2004.67 1517.44 2036.64C1513.28 2045.45 1495.73 2079.29 1482.76 2082.34C1482.76 2082.34 1549.96 2066.81 1561.75 2032.76C1573.54 1998.71 1569.66 1961.4 1593.37 1930.4C1629.64 1882.97 1704.33 1939.97 1704.33 1977.42C1704.33 1983.45 1683.52 2028.94 1684.35 2029.64C1685.19 2030.33 1628.88 1973.81 1628.88 1973.81C1627 1999.92 1629.67 2026.15 1636.78 2051.34C1648.64 2094.75 1707.86 2116.46 1743.44 2141.49C1775.75 2164.1 1733.59 2202.66 1719.3 2223.04C1753.42 2215.28 1799.05 2187.33 1810.63 2160.15C1826.44 2122.91 1798.77 2101.2 1775.06 2060.84C1762.37 2039.35 1765.9 2003.84 1773.46 1981.72C1781.85 1957.1 1811.53 1955.65 1834.97 1969.58C1844.82 1975.4 1852.89 1983.81 1858.28 1993.9C1863.67 2003.99 1866.19 2015.37 1865.55 2026.79C1865.14 2037.06 1867.57 2071.45 1858 2079.5C1876.18 2062.27 1889.71 2040.72 1897.31 2016.86C1904.91 1993 1906.35 1967.59 1901.48 1943.02C1896.34 1914.66 1899.19 1895.31 1905.36 1882L-23.5016 1882Z" fill="#37474F"/>
<path d="M1904.86 421C1910.89 408.24 1918.31 388.893 1915.89 375.509C1911.93 353.804 1892.17 322.806 1856.6 291.739C1821.02 260.672 1813.12 158.386 1813.12 158.386C1813.12 158.386 1789.4 189.384 1813.12 251.449C1836.83 313.514 1868.59 325.857 1856.6 372.388C1844.6 418.92 1789.4 384.801 1781.49 341.391C1773.59 297.98 1686.7 282.447 1694.6 291.739C1712.08 312.543 1763.95 372.527 1690.72 368.02C1576.44 361.432 1632.26 255.748 1599.81 201.589C1568.19 148.886 1493.08 155.058 1441.77 105.475C1390.45 55.8929 1473.39 0 1473.39 0C1473.39 0 1406.19 3.12064 1374.57 43.4107C1342.95 83.7008 1354.81 127.181 1418.05 155.058C1481.3 182.935 1481.3 238.828 1465.48 282.238C1449.67 325.649 1382.27 325.649 1354.53 294.651C1326.79 263.654 1386.15 201.589 1386.15 201.589C1386.15 201.589 1319.03 226.415 1295.31 257.413C1271.59 288.41 1303.21 307.064 1307.17 344.303C1309.66 367.742 1260.5 414.204 1229.92 391.112C1211.75 377.243 1226.38 345.343 1228.11 328.7C1232.07 291.462 1172.64 263.585 1172.64 263.585C1172.64 263.585 1172.64 319.408 1137.06 344.234C1101.49 369.06 1058.01 319.408 1077.77 269.756C1097.53 220.104 1156.82 182.935 1133.25 130.163C1109.67 77.3901 1015.08 62.2034 1015.08 62.2034C1015.08 62.2034 1058.49 114.976 1058.49 155.266C1058.49 195.556 1030.75 220.451 999.271 208.038C967.787 195.625 1003.22 111.855 1003.22 111.855C1003.22 111.855 939.98 133.56 924.169 173.92C908.358 214.279 939.98 248.328 959.743 264.07C982.073 281.545 973.612 329.117 965.43 349.574C953.363 379.739 889.149 406.645 865.433 369.545C857.18 356.578 868.9 333.763 868.9 319.893C868.9 279.534 821.467 257.829 821.467 257.829C821.467 257.829 841.231 304.36 797.751 323.014C754.271 341.668 671.333 279.534 710.86 223.711C750.388 167.887 758.293 133.56 706.908 87.2373C655.522 40.9141 627.853 84.1168 627.853 84.1168C659.475 74.8245 675.286 130.648 643.664 171.007C612.042 211.367 584.442 217.539 588.187 257.829C591.932 298.119 619.809 316.773 611.903 372.597C603.998 428.42 540.754 419.128 536.802 403.663C532.849 388.199 556.565 360.184 548.66 319.893C540.754 279.603 489.369 251.657 489.369 251.657C488.015 273.75 484.058 295.607 477.58 316.773C470.646 342.431 452.616 352.347 419.399 348.88C373.006 344.095 348.527 298.327 363.922 266.358C368.083 257.551 385.627 223.711 398.595 220.659C398.595 220.659 331.399 236.193 319.61 270.242C307.821 304.291 311.704 341.599 287.988 372.597C251.72 420.029 177.034 363.027 177.034 325.58C177.034 319.547 197.838 274.056 197.006 273.362C196.174 272.669 252.483 329.186 252.483 329.186C254.36 303.08 251.685 276.847 244.577 251.657C232.719 208.246 173.498 186.541 137.923 161.507C105.608 138.9 147.77 100.344 162.056 79.956C127.937 87.7228 82.3075 115.669 70.7267 142.853C54.9158 180.092 82.5849 201.797 106.301 242.156C118.992 263.654 115.455 299.159 107.896 321.28C99.5053 345.898 69.8252 347.354 46.3862 333.416C36.5348 327.599 28.4718 319.186 23.0784 309.096C17.685 299.006 15.1688 287.628 15.8046 276.205C16.2207 265.942 13.7936 231.547 23.3633 223.502C5.17836 240.726 -8.34685 262.275 -15.9501 286.14C-23.5534 310.005 -24.9868 335.407 -20.1166 359.976C-14.985 388.338 -17.8282 407.686 -24 421L1904.86 421Z" fill="#37474F"/>
</svg>
