<svg width="84" height="84" viewBox="0 0 84 84" fill="none" xmlns="http://www.w3.org/2000/svg">
<path d="M46.7145 4.79288C46.3316 4.79042 45.9467 4.79305 45.5603 4.80092C40.1504 4.90986 34.4392 6.03073 29.43 8.2843C23.7051 10.8598 18.9207 14.8735 16.3085 20.5352C13.8475 25.8692 13.2963 32.7728 15.897 41.5819C16.6241 41.2495 17.3629 40.9436 18.1122 40.6648C16.4935 33.4525 17.1906 27.4996 19.4741 22.7804C22.0111 17.5373 26.4408 13.8964 31.4424 11.5746C36.4437 9.25259 42.0381 8.21227 47.1494 8.13746C47.4689 8.13287 47.7863 8.13172 48.1017 8.13434C51.85 8.16486 55.2899 8.70758 58.0461 9.74806C59.2143 9.19681 60.279 8.61702 61.1492 7.96766C57.7946 6.14476 53.0478 4.98927 47.8575 4.81569C47.4766 4.80289 47.0956 4.79539 46.7145 4.79288ZM48.0751 11.0885C47.783 11.0853 47.4887 11.086 47.1926 11.0904C42.4545 11.1595 37.2258 12.1453 32.686 14.2531C28.1462 16.3608 24.3167 19.5528 22.1324 24.0669C20.1879 28.0857 19.4988 33.2172 20.9442 39.7997C22.974 39.3233 24.8402 39.2265 26.451 39.6037C28.0801 39.9851 29.5544 41.1043 30.0164 42.772C30.0666 42.9535 30.1017 43.1387 30.1314 43.3254L46.8991 26.5577C44.9538 23.4422 44.3023 20.851 44.8946 18.6145C45.5516 16.133 47.5917 14.5723 49.8243 13.3978C51.0443 12.756 52.3651 12.1818 53.6875 11.6259C51.9906 11.3021 50.0853 11.1091 48.0751 11.0885ZM61.7016 22.2982L53.7433 23.8898L48.1254 29.5076H54.4922V35.874L60.11 30.2562L61.7016 22.2982ZM76.0321 22.8506C75.3831 23.7203 74.8035 24.7846 74.2524 25.9522C75.3805 28.9403 75.9224 32.7337 75.8622 36.8504C75.7875 41.9617 74.7472 47.5561 72.4252 52.5576C70.1032 57.559 66.4625 61.9887 61.2193 64.5257C56.5002 66.8092 50.5473 67.5063 43.3348 65.8875C43.056 66.6368 42.7501 67.3757 42.4177 68.1028C51.227 70.7035 58.1306 70.1523 63.4646 67.6913C69.1264 65.0791 73.14 60.2947 75.7155 54.5698C78.291 48.845 79.3871 42.2034 79.1841 36.1423C79.0105 30.9518 77.8552 26.2052 76.0321 22.8506ZM72.374 30.3122C71.8179 31.6345 71.2436 32.9555 70.602 34.1755C69.4275 36.4081 67.8668 38.4482 65.3853 39.1052C63.1488 39.6975 60.5578 39.046 57.4421 37.1007L40.6744 53.8684C40.8611 53.8981 41.0463 53.9332 41.2278 53.9834C42.8955 54.4454 44.0147 55.9197 44.3961 57.5488C44.7735 59.1596 44.6765 61.0258 44.2001 63.0556C50.7826 64.501 55.9141 63.8119 59.9328 61.8674C64.447 59.6831 67.639 55.8536 69.7467 51.3138C71.8545 46.7742 72.8403 41.5452 72.9094 36.8072C72.9435 34.4729 72.7447 32.2556 72.374 30.3122ZM46.0374 32.4607V37.9624H51.5391V32.4607H46.0374ZM43.0843 34.5487L37.4661 40.1669L35.8749 48.1249L43.8329 46.5335L49.4511 40.9155H43.0843V34.5487ZM33.7016 43.9315L27.6257 50.0075L33.9923 56.3741L40.0685 50.2981L32.1101 51.8897L33.7016 43.9315ZM25.5378 52.0954L21.2845 56.3482L27.6516 62.7153L31.9044 58.4622L25.5378 52.0954ZM19.1966 58.4364L2.625 75.0082V81.3748H8.99177L25.5632 64.8032L19.1966 58.4364Z" fill="white"/>
</svg>
