<svg width="28" height="29" viewBox="0 0 28 29" fill="none" xmlns="http://www.w3.org/2000/svg">
<path d="M3.57519 1.01964C3.3308 1.01411 3.09343 1.10596 2.91048 1.27685C2.50703 1.65249 2.46888 2.3017 2.82525 2.72696C3.06137 3.00869 3.4113 3.12033 3.73801 3.05502L6.84599 6.76357L4.13915 9.28396L5.43892 10.8348C5.95962 9.62449 6.63481 8.59838 7.45009 7.73937L7.82141 9.78908C9.16975 9.43281 10.4993 9.19079 11.8175 9.05995L10.5326 7.52669L8.45517 6.81964C9.37497 6.08898 10.4291 5.51861 11.6052 5.09358L10.3053 3.54247L7.59862 6.06275L4.48623 2.34883C4.58242 2.01833 4.51939 1.64478 4.28633 1.36668C4.19713 1.25997 4.08783 1.174 3.96539 1.11425C3.84295 1.05449 3.71005 1.02225 3.57514 1.01958L3.57519 1.01964ZM24.2311 1.01964C24.0963 1.02233 23.9634 1.05457 23.841 1.11432C23.7186 1.17407 23.6093 1.26001 23.5201 1.36668C23.287 1.64478 23.2238 2.01839 23.32 2.349L20.2077 6.06281L17.501 3.54247L16.2012 5.09358C17.3772 5.51861 18.4313 6.08892 19.3512 6.81953L17.2738 7.52669L16.0242 9.01769C17.352 9.12322 18.6769 9.34089 20.007 9.6668L20.3561 7.73932C21.1715 8.59833 21.8468 9.62443 22.3675 10.8347L23.6671 9.28391L20.9603 6.76351L24.0683 3.05497C24.395 3.12027 24.745 3.00863 24.9811 2.7269C25.3374 2.30165 25.2992 1.65243 24.8959 1.27679C24.7129 1.1059 24.4755 1.01405 24.2311 1.01958V1.01964ZM14.2134 9.99775C12.0876 9.9922 9.94318 10.2938 7.73108 10.9094C7.62114 16.0324 9.58411 22.7671 14.0972 25.6306C18.4656 22.8478 20.6746 16.0072 20.5752 10.9089C18.4392 10.3144 16.3349 10.0033 14.2134 9.99775H14.2134ZM7.91685 18.6921L3.24902 24.262L2.59344 27.881L5.91969 26.7485L9.60007 22.3569C8.90903 21.218 8.35092 19.9763 7.91685 18.6921ZM20.1796 19.0382C19.7126 20.2977 19.1276 21.5096 18.4221 22.6146L21.8866 26.7485L25.2127 27.881L24.5572 24.262L20.1795 19.038L20.1796 19.0382Z" fill="#39FF14"/>
</svg>
