<svg width="81" height="81" viewBox="0 0 81 81" fill="none" xmlns="http://www.w3.org/2000/svg">
<g clip-path="url(#clip0_89_23299)">
<path d="M40.2824 78.0516L44.3904 66.8032L44.3907 55.5644L49.0966 56.0998L44.3908 46.4047L44.3907 34.6829L49.0967 35.218L44.6576 26.073L41.5088 26.0732L41.509 66.2287L39.4337 66.2288L39.4334 26.073L36.1741 26.073L36.1742 37.9706L31.9069 46.7616L36.1744 46.2762L36.1744 58.8519L31.9072 67.6434L36.299 67.1439L40.2822 78.0517L40.2824 78.0516ZM56.0544 22.6955L52.9334 19.5743L51.0915 21.4687L29.4626 21.4685L27.6211 19.5742L24.4997 22.6956L27.6261 25.7781L29.4063 23.9978L51.1474 23.9977L52.9278 25.7781L56.0544 22.6955ZM41.5346 19.3934L41.5345 5.54819L38.7489 5.54803L38.7489 19.3935L41.5346 19.3934Z" fill="#39FF14"/>
</g>
<defs>
<clipPath id="clip0_89_23299">
<rect width="56.8527" height="56.8527" fill="white" transform="translate(80.4023 40.2012) rotate(135)"/>
</clipPath>
</defs>
</svg>
