<svg width="81" height="81" viewBox="0 0 81 81" fill="none" xmlns="http://www.w3.org/2000/svg">
<g clipPath="url(#clip0_89_23291)">
<path d="M78.0516 40.1199L66.8032 36.0119L55.5644 36.0117L56.0998 31.3057L46.4047 36.0115L34.6829 36.0116L35.218 31.3057L26.073 35.7447L26.0732 38.8935L66.2287 38.8933L66.2288 40.9686L26.073 40.9689L26.073 44.2283L37.9706 44.2281L46.7616 48.4954L46.2762 44.228L58.8519 44.2279L67.6434 48.4952L67.1439 44.1034L78.0517 40.1201L78.0516 40.1199ZM22.6955 24.348L19.5743 27.4689L21.4687 29.3108L21.4685 50.9397L19.5742 52.7813L22.6956 55.9027L25.7781 52.7762L23.9978 50.996L23.9977 29.2549L25.7781 27.4746L22.6955 24.348ZM19.3934 38.8677L5.54819 38.8678L5.54803 41.6535L19.3935 41.6535L19.3934 38.8677Z" fill="#FF3DF0"/>
</g>
<defs>
<clipPath id="clip0_89_23291">
<rect width="56.8527" height="56.8527" fill="white" transform="translate(40.2012) rotate(45)"/>
</clipPath>
</defs>
</svg>
