<svg width="32" height="32" viewBox="0 0 32 32" fill="none" xmlns="http://www.w3.org/2000/svg">
<path d="M12.6309 1.78125C12.0606 1.78125 11.6094 2.23062 11.6094 2.80081C11.6094 3.37094 12.0605 3.82031 12.6309 3.82031C12.8763 3.82031 13.0989 3.73675 13.2734 3.59656L16.9509 4.93369L16.2684 6.81025L17.3661 7.20944L17.6679 6.37969L27.6609 10.0131L30.9051 9.39137L28.8592 6.83512L18.8285 3.18812L19.1301 2.3585L18.0325 1.95938L17.35 3.83606L13.5967 2.47131C13.4621 2.06694 13.0854 1.78125 12.6309 1.78125ZM18.4293 4.28575L26.1804 7.104L26.8638 7.94631L25.9307 8.14144L18.0669 5.28212L18.4294 4.28575H18.4293ZM10.2128 6.21875C9.6425 6.21875 9.19331 6.66813 9.19331 7.23831C9.19331 7.80844 9.64244 8.25975 10.2128 8.25975C10.3278 8.25975 10.4376 8.24069 10.5401 8.20662L10.5212 8.23363L13.8212 10.5428L12.6762 12.1787L13.6333 12.8483L14.1395 12.1249L22.8514 18.2208L26.1461 18.4596L24.8315 15.4611L16.0865 9.34237L16.5928 8.619L15.6359 7.94931L14.4909 9.58556L11.2292 7.30337C11.2304 7.28175 11.2323 7.26025 11.2323 7.23819C11.2323 6.66781 10.7832 6.21875 10.2128 6.21875ZM6.91781 10.2188C6.34762 10.2188 5.89644 10.6681 5.89644 11.2383C5.89644 11.8084 6.3475 12.2578 6.91794 12.2578C6.97575 12.2578 7.03187 12.2521 7.08687 12.2432L9.39875 14.9963L7.86925 16.2804L8.62037 17.1751L9.29663 16.6074L16.16 24.7809L19.2623 25.827L18.7351 22.5662L11.8976 14.4234L12.5737 13.8559L11.8228 12.9613L10.2934 14.2452L7.92088 11.4202C7.93119 11.3612 7.9375 11.3006 7.9375 11.2384C7.9375 10.6679 7.48837 10.2188 6.91794 10.2188H6.91781ZM15.4169 10.2994L22.118 14.9881L22.556 15.9698L21.5942 15.9157L14.8091 11.168L15.4169 10.2994L15.4169 10.2994ZM2.67575 12.965C2.1055 12.965 1.65625 13.4144 1.65625 13.9845C1.65625 14.4737 1.98731 14.8744 2.44144 14.9786L3.94662 18.2038L2.13687 19.0481L2.63088 20.1064L3.43112 19.7331L7.94487 29.4043L10.6709 31.2177L11.0057 27.9314L6.50887 18.2968L7.30869 17.9235L6.81475 16.8651L5.00506 17.7096L3.52988 14.5489C3.63963 14.3811 3.69778 14.1848 3.69712 13.9843C3.69712 13.4139 3.24606 12.9648 2.67569 12.9648L2.67575 12.965ZM11.0033 15.1747L16.2598 21.4348L16.4229 22.4586L15.4724 22.1458L10.1912 15.8564L11.0031 15.1747H11.0033ZM5.45044 18.7909L8.87806 26.1347L8.76787 27.1917L7.95181 26.6576L4.48944 19.2393L5.45038 18.7909L5.45044 18.7909Z" fill="#F5F5F5"/>
</svg>
