<svg width="485" height="122" viewBox="0 0 485 122" fill="none" xmlns="http://www.w3.org/2000/svg">
<mask id="path-1-inside-1_147_23427" fill="white">
<path d="M482.126 122C483.634 118.302 485.489 112.696 484.882 108.817C483.894 102.527 478.954 93.5447 470.062 84.5419C461.17 75.5391 459.194 45.8982 459.194 45.8982C459.194 45.8982 453.266 54.8809 459.194 72.8664C465.122 90.852 473.061 94.4289 470.062 107.913C467.063 121.397 453.266 111.51 451.29 98.9304C449.314 86.3506 427.595 81.8491 429.571 84.5419C433.939 90.5706 446.905 107.953 428.601 106.647C400.035 104.738 413.989 74.1124 405.877 58.4177C397.973 43.1451 379.201 44.9336 366.374 30.5653C353.547 16.197 374.278 0 374.278 0C374.278 0 357.482 0.904319 349.578 12.5798C341.674 24.2553 344.638 36.8552 360.446 44.9336C376.254 53.012 376.254 69.209 372.302 81.7888C368.35 94.3686 351.502 94.3686 344.569 85.3859C337.636 76.4032 352.473 58.4177 352.473 58.4177C352.473 58.4177 335.694 65.6119 329.766 74.5946C323.838 83.5773 331.742 88.983 332.73 99.7743C333.354 106.567 321.065 120.031 313.421 113.339C308.88 109.32 312.537 100.076 312.97 95.2528C313.958 84.4615 299.104 76.3832 299.104 76.3832C299.104 76.3832 299.104 92.56 290.212 99.7542C281.32 106.948 270.452 92.56 275.392 78.1716C280.332 63.7832 295.152 53.012 289.258 37.7193C283.365 22.4266 259.722 18.0257 259.722 18.0257C259.722 18.0257 270.573 33.3184 270.573 44.9939C270.573 56.6694 263.64 63.8837 255.77 60.2866C247.901 56.6895 256.758 32.4141 256.758 32.4141C256.758 32.4141 240.95 38.704 236.998 50.3996C233.046 62.0952 240.95 71.9621 245.89 76.5238C251.472 81.5879 249.357 95.3734 247.312 101.302C244.296 110.043 228.245 117.84 222.317 107.089C220.254 103.331 223.184 96.7198 223.184 92.7007C223.184 81.0051 211.328 74.7152 211.328 74.7152C211.328 74.7152 216.268 88.1993 205.4 93.605C194.532 99.0107 173.801 81.0051 183.681 64.8282C193.561 48.6513 195.537 38.704 182.693 25.2802C169.849 11.8563 162.933 24.3759 162.933 24.3759C170.837 21.6831 174.789 37.86 166.885 49.5556C158.981 61.2512 152.082 63.0397 153.018 74.7152C153.954 86.3907 160.922 91.7964 158.946 107.973C156.97 124.15 141.162 121.457 140.174 116.976C139.186 112.495 145.114 104.376 143.138 92.7007C141.162 81.0252 128.318 72.9267 128.318 72.9267C127.98 79.3291 126.991 85.6628 125.372 91.7964C123.638 99.2318 119.132 102.105 110.829 101.101C99.2332 99.7141 93.1145 86.451 96.9625 77.187C98.0025 74.6348 102.388 64.8282 105.629 63.944C105.629 63.944 88.8332 68.4454 85.8865 78.3123C82.9399 88.1792 83.9105 98.9906 77.9825 107.973C68.9172 121.719 50.2492 105.2 50.2492 94.3485C50.2492 92.6002 55.4492 79.4175 55.2412 79.2166C55.0332 79.0156 69.1079 95.3935 69.1079 95.3935C69.577 87.8284 68.9084 80.2264 67.1319 72.9267C64.1679 60.3469 49.3652 54.057 40.4733 46.8025C32.3959 40.2514 42.9346 29.0782 46.5053 23.1702C37.9773 25.4209 26.572 33.5194 23.6773 41.3968C19.7253 52.1881 26.6413 58.478 32.5693 70.1736C35.7413 76.4032 34.8573 86.6921 32.9679 93.1026C30.8706 100.237 23.452 100.659 17.5933 96.6193C15.1309 94.9336 13.1155 92.4956 11.7674 89.5718C10.4193 86.6479 9.79038 83.3507 9.94931 80.0405C10.0533 77.0664 9.44664 67.099 11.8386 64.7679C7.29324 69.759 3.91256 76.0037 2.0121 82.9194C0.111637 89.8351 -0.246653 97.1963 0.970661 104.316C2.25333 112.535 1.54266 118.142 0 122H482.126Z"/>
</mask>
<path d="M482.126 122C483.634 118.302 485.489 112.696 484.882 108.817C483.894 102.527 478.954 93.5447 470.062 84.5419C461.17 75.5391 459.194 45.8982 459.194 45.8982C459.194 45.8982 453.266 54.8809 459.194 72.8664C465.122 90.852 473.061 94.4289 470.062 107.913C467.063 121.397 453.266 111.51 451.29 98.9304C449.314 86.3506 427.595 81.8491 429.571 84.5419C433.939 90.5706 446.905 107.953 428.601 106.647C400.035 104.738 413.989 74.1124 405.877 58.4177C397.973 43.1451 379.201 44.9336 366.374 30.5653C353.547 16.197 374.278 0 374.278 0C374.278 0 357.482 0.904319 349.578 12.5798C341.674 24.2553 344.638 36.8552 360.446 44.9336C376.254 53.012 376.254 69.209 372.302 81.7888C368.35 94.3686 351.502 94.3686 344.569 85.3859C337.636 76.4032 352.473 58.4177 352.473 58.4177C352.473 58.4177 335.694 65.6119 329.766 74.5946C323.838 83.5773 331.742 88.983 332.73 99.7743C333.354 106.567 321.065 120.031 313.421 113.339C308.88 109.32 312.537 100.076 312.97 95.2528C313.958 84.4615 299.104 76.3832 299.104 76.3832C299.104 76.3832 299.104 92.56 290.212 99.7542C281.32 106.948 270.452 92.56 275.392 78.1716C280.332 63.7832 295.152 53.012 289.258 37.7193C283.365 22.4266 259.722 18.0257 259.722 18.0257C259.722 18.0257 270.573 33.3184 270.573 44.9939C270.573 56.6694 263.64 63.8837 255.77 60.2866C247.901 56.6895 256.758 32.4141 256.758 32.4141C256.758 32.4141 240.95 38.704 236.998 50.3996C233.046 62.0952 240.95 71.9621 245.89 76.5238C251.472 81.5879 249.357 95.3734 247.312 101.302C244.296 110.043 228.245 117.84 222.317 107.089C220.254 103.331 223.184 96.7198 223.184 92.7007C223.184 81.0051 211.328 74.7152 211.328 74.7152C211.328 74.7152 216.268 88.1993 205.4 93.605C194.532 99.0107 173.801 81.0051 183.681 64.8282C193.561 48.6513 195.537 38.704 182.693 25.2802C169.849 11.8563 162.933 24.3759 162.933 24.3759C170.837 21.6831 174.789 37.86 166.885 49.5556C158.981 61.2512 152.082 63.0397 153.018 74.7152C153.954 86.3907 160.922 91.7964 158.946 107.973C156.97 124.15 141.162 121.457 140.174 116.976C139.186 112.495 145.114 104.376 143.138 92.7007C141.162 81.0252 128.318 72.9267 128.318 72.9267C127.98 79.3291 126.991 85.6628 125.372 91.7964C123.638 99.2318 119.132 102.105 110.829 101.101C99.2332 99.7141 93.1145 86.451 96.9625 77.187C98.0025 74.6348 102.388 64.8282 105.629 63.944C105.629 63.944 88.8332 68.4454 85.8865 78.3123C82.9399 88.1792 83.9105 98.9906 77.9825 107.973C68.9172 121.719 50.2492 105.2 50.2492 94.3485C50.2492 92.6002 55.4492 79.4175 55.2412 79.2166C55.0332 79.0156 69.1079 95.3935 69.1079 95.3935C69.577 87.8284 68.9084 80.2264 67.1319 72.9267C64.1679 60.3469 49.3652 54.057 40.4733 46.8025C32.3959 40.2514 42.9346 29.0782 46.5053 23.1702C37.9773 25.4209 26.572 33.5194 23.6773 41.3968C19.7253 52.1881 26.6413 58.478 32.5693 70.1736C35.7413 76.4032 34.8573 86.6921 32.9679 93.1026C30.8706 100.237 23.452 100.659 17.5933 96.6193C15.1309 94.9336 13.1155 92.4956 11.7674 89.5718C10.4193 86.6479 9.79038 83.3507 9.94931 80.0405C10.0533 77.0664 9.44664 67.099 11.8386 64.7679C7.29324 69.759 3.91256 76.0037 2.0121 82.9194C0.111637 89.8351 -0.246653 97.1963 0.970661 104.316C2.25333 112.535 1.54266 118.142 0 122H482.126Z" fill="#1B1C1E" stroke="#7B7B7B" stroke-width="2" mask="url(#path-1-inside-1_147_23427)"/>
</svg>
