<svg width="163" height="119" viewBox="0 0 163 119" fill="none" xmlns="http://www.w3.org/2000/svg">
<path d="M0 0H163V97H22.5L0 118.646V97V0Z" fill="white"/>
<path d="M37.9183 62V42.624H35.7903V51.304H25.9343V42.624H23.7783V62H25.9343V53.236H35.7903V62H37.9183ZM45.0528 62L46.4528 57.016H54.7408L56.1408 62H58.2688L52.9488 42.624H48.2448L42.9248 62H45.0528ZM51.3248 44.472L54.2648 55.084H46.9288L49.8688 44.472H51.3248ZM63.6925 62L65.0925 57.016H73.3805L74.7805 62H76.9085L71.5885 42.624H66.8845L61.5645 62H63.6925ZM69.9645 44.472L72.9045 55.084H65.5685L68.5085 44.472H69.9645ZM82.3322 62L83.7322 57.016H92.0202L93.4202 62H95.5482L90.2282 42.624H85.5242L80.2042 62H82.3322ZM88.6042 44.472L91.5442 55.084H84.2082L87.1482 44.472H88.6042ZM102.792 62V58.864H100.496V62H102.792ZM102.596 55.616L102.736 42.624H100.524L100.664 55.616H102.596ZM111.67 62V58.864H109.374V62H111.67ZM111.474 55.616L111.614 42.624H109.402L109.542 55.616H111.474ZM120.548 62V58.864H118.252V62H120.548ZM120.352 55.616L120.492 42.624H118.28L118.42 55.616H120.352ZM129.426 62V58.864H127.13V62H129.426ZM129.23 55.616L129.37 42.624H127.158L127.298 55.616H129.23ZM138.304 62V58.864H136.008V62H138.304ZM138.108 55.616L138.248 42.624H136.036L136.176 55.616H138.108Z" fill="#263238"/>
</svg>
