<svg width="88" height="107" viewBox="0 0 88 107" fill="none" xmlns="http://www.w3.org/2000/svg">
<path d="M10.6487 65.51C5.22739 52.4128 6.79804 32.577 8.11536 27.5104C9.43268 22.4438 21.8205 19.5051 31.8271 22.5958C41.8336 25.6864 10.6487 65.51 10.6487 65.51Z" fill="white"/>
<path d="M71.7268 52.5894C68.4335 75.1611 67.6735 88.537 55.235 99.1262C36.5139 115.061 9.35683 102.09 5.8102 78.8598C2.64357 58.0107 8.52086 24.5964 31.5233 17.6045C36.6202 16.0609 42.0256 15.8364 47.233 16.9519C52.4404 18.0673 57.2795 20.4864 61.2969 23.9823C65.3143 27.4783 68.3787 31.9368 70.2029 36.9401C72.027 41.9435 72.5514 47.3281 71.7268 52.5894Z" fill="#39FF14"/>
<path d="M15.9941 77.1122C16.6781 78.1255 16.6528 78.5055 18.7048 78.6828C19.1101 78.6828 18.7587 77.8413 20 78.5C20.76 77.816 21.3141 78.4802 21.9474 78.4042C26.0007 77.8975 32.3086 77.5428 35.4246 76.8842C36.0832 76.7322 35.7823 76.8842 37 76.5C38 76 38.2366 76.1748 38.7939 75.9468C39.8929 75.5027 40.7932 74.6745 41.3272 73.6162C32.8163 74.2337 24.3542 75.4015 15.9941 77.1122Z" fill="white"/>
<path d="M69.3199 69.0055C59.9213 68.6762 54.3227 64.1922 53.1067 61.2283C51.8907 58.2643 66.3306 49.7017 62.1 39.0365C57.8693 28.3713 46.9001 24.3687 26.0004 32.3993C8.3939 22.4687 8.82458 2.73428 26.963 0.631633C48.2681 -1.90167 62.6066 3.84894 65.2413 6.17958C63.8265 7.68374 62.206 8.98013 60.428 10.0302C60.428 10.0302 92.6009 12.5635 80.6944 30.2966C91.1063 32.6019 89.3583 45.2938 78.7691 62.7989C69.9279 69.8668 69.3199 69.0055 69.3199 69.0055Z" fill="#FAFAFA"/>
<path d="M79.2263 72.3752C77.8972 74.5982 76.1404 76.5355 74.0575 78.0749C71.9746 79.6142 69.607 80.7251 67.0918 81.3431C60.3532 82.9644 57.1612 76.8339 59.2132 70.6019C61.0625 64.978 66.8131 57.3781 73.5011 58.5434C74.9576 58.8248 76.3216 59.4632 77.4708 60.4013C78.62 61.3394 79.5185 62.5479 80.0859 63.9186C80.6532 65.2893 80.8717 66.7794 80.7217 68.2552C80.5716 69.7311 80.0579 71.1467 79.2263 72.3752Z" fill="#39FF14"/>
<path d="M40.0355 53.4003C39.8835 55.2496 38.7688 56.6683 37.5022 56.5669C36.2355 56.4656 35.4249 54.8443 35.5769 53.0203C35.7288 51.1963 36.8435 49.7523 38.1102 49.8537C39.3768 49.955 40.1875 51.551 40.0355 53.4003Z" fill="white"/>
<path d="M17.9706 52.8682C17.8186 54.7175 16.7039 56.1362 15.4373 56.0095C14.1706 55.8829 13.3853 54.3122 13.5373 52.4629C13.6893 50.6136 14.7786 49.2203 16.0706 49.3216C17.3626 49.4229 18.0972 51.0189 17.9706 52.8682Z" fill="white"/>
<path d="M22.4037 52.4375C19.7433 57.8855 16.3324 62.9336 12.2705 67.4347C15.2851 70.7786 20.9597 69.968 20.9597 69.968L22.4037 52.4375Z" fill="#F5F5F5"/>
<path d="M5.1267 44.5841C5.30662 44.5884 5.48432 44.5435 5.64058 44.4542C5.79684 44.3649 5.92575 44.2346 6.01337 44.0774C6.69473 42.894 7.64693 41.889 8.79187 41.1448C9.9368 40.4006 11.2419 39.9384 12.6 39.7961C12.743 39.7929 12.884 39.7614 13.0149 39.7036C13.1459 39.6458 13.2641 39.5628 13.3629 39.4593C13.4617 39.3558 13.5392 39.2338 13.5908 39.1003C13.6425 38.9669 13.6673 38.8246 13.664 38.6815C13.6508 38.3903 13.5241 38.1159 13.311 37.917C13.0979 37.7181 12.8154 37.6106 12.524 37.6175C10.8075 37.7741 9.15322 38.3386 7.69905 39.2639C6.24488 40.1893 5.03289 41.4488 4.16407 42.9375C4.02022 43.1845 3.9768 43.4775 4.04281 43.7556C4.10882 44.0338 4.27921 44.276 4.51873 44.4321C4.69708 44.553 4.91244 44.6068 5.1267 44.5841Z" fill="#263238"/>
<g clip-path="url(#clip0_287_136)">
<path d="M13 60.0625C17.0386 60.0625 20.3125 56.7886 20.3125 52.75C20.3125 48.7114 17.0386 45.4375 13 45.4375C8.96142 45.4375 5.6875 48.7114 5.6875 52.75C5.6875 56.7886 8.96142 60.0625 13 60.0625Z" stroke="black" stroke-width="1.5" stroke-linecap="round" stroke-linejoin="round"/>
<path d="M39 60.0625C43.0386 60.0625 46.3125 56.7886 46.3125 52.75C46.3125 48.7114 43.0386 45.4375 39 45.4375C34.9614 45.4375 31.6875 48.7114 31.6875 52.75C31.6875 56.7886 34.9614 60.0625 39 60.0625Z" stroke="black" stroke-width="1.5" stroke-linecap="round" stroke-linejoin="round"/>
<line x1="21" y1="52.5" x2="31" y2="52.5" stroke="black"/>
<line x1="47" y1="51.5" x2="64" y2="51.5" stroke="black"/>
</g>
<defs>
<clipPath id="clip0_287_136">
<rect width="52" height="52" fill="white" transform="translate(0 17)"/>
</clipPath>
</defs>
</svg>
