<svg width="376" height="700" viewBox="0 0 376 700" fill="none" xmlns="http://www.w3.org/2000/svg">
<path d="M79.007 259.57C67.545 382.502 62.7103 507.642 61.0625 625.848C61.0625 629.632 61.8592 634.05 65.191 635.861C68.5228 637.672 73.0315 635.445 74.9328 632.077C76.8341 628.709 76.8703 624.653 76.8703 620.778C76.5444 493.446 81.5058 366.175 91.7546 238.964L79.007 259.57Z" fill="#EBEBEB"/>
<path d="M92.1347 199.272C92.1347 199.272 83.7691 311.303 80.5641 368.414C78.4636 406.186 75.1318 634.087 75.1318 634.087C75.1318 634.087 118.59 637.944 118.861 636.549V375.675L126.629 237.841L92.1347 199.272Z" fill="#39FF14"/>
<g opacity="0.3">
<path d="M120.129 229.458L78.7715 262.178C84.3667 264.405 96.4625 260.766 102.311 259.426C100.754 352.015 96.8427 444.526 90.5775 536.959C88.7668 563.866 89.0022 612.322 100.844 636.55L137.059 256.909L120.129 229.458Z" fill="black"/>
</g>
<path d="M144.647 616.287L141.623 654.675C141.623 654.675 103.688 666.861 103.471 673.959L177.711 674.937L179.902 616.287H144.647Z" fill="#455A64"/>
<path d="M164.565 650.782C165.287 650.978 165.912 651.434 166.32 652.062C166.727 652.69 166.889 653.447 166.774 654.186C166.6 654.911 166.158 655.543 165.536 655.953C164.913 656.364 164.158 656.522 163.424 656.396C162.66 656.183 162 655.696 161.573 655.028C161.145 654.36 160.979 653.557 161.106 652.774C161.38 652.05 161.922 651.458 162.619 651.121C163.316 650.784 164.117 650.728 164.854 650.963" fill="#EBEBEB"/>
<path d="M177.693 674.955L177.928 668.998L107.309 669.433C107.309 669.433 103.38 671.443 103.38 675.209L177.693 674.955Z" fill="#263238"/>
<path d="M140.446 654.313C140.446 654.675 142.257 654.784 144.068 655.888C145.878 656.993 146.874 658.496 147.2 658.351C147.526 658.206 146.929 656.124 144.701 654.729C142.474 653.335 140.356 654.023 140.446 654.313Z" fill="#263238"/>
<path d="M132.75 657.808C132.75 658.152 134.271 658.731 135.539 660.216C136.806 661.701 137.223 663.33 137.585 663.312C137.947 663.294 138.11 661.212 136.498 659.383C134.887 657.554 132.75 657.464 132.75 657.808Z" fill="#263238"/>
<path d="M128.604 667.259C128.948 667.259 129.382 665.449 128.404 663.638C127.427 661.827 125.688 660.94 125.543 661.248C125.399 661.555 126.485 662.569 127.354 664.199C128.223 665.829 128.241 667.241 128.604 667.259Z" fill="#263238"/>
<path d="M140.826 645.585C140.989 645.911 142.637 645.35 144.701 645.422C146.765 645.495 148.322 646.11 148.54 645.784C148.757 645.458 147.145 644.227 144.737 644.173C142.329 644.118 140.645 645.259 140.826 645.585Z" fill="#263238"/>
<path d="M140.464 637.853C141.688 638.163 142.976 638.119 144.176 637.726C145.51 637.451 146.805 637.013 148.033 636.423C148.758 636.07 149.459 635.67 150.133 635.227C150.549 634.982 150.922 634.67 151.238 634.304C151.462 634.04 151.595 633.709 151.614 633.362C151.634 633.016 151.54 632.673 151.346 632.385C151.157 632.137 150.913 631.936 150.634 631.798C150.354 631.66 150.047 631.588 149.735 631.588C149.261 631.599 148.792 631.679 148.341 631.823C147.555 632.044 146.792 632.335 146.059 632.692C144.818 633.293 143.681 634.087 142.691 635.046C141.025 636.694 140.464 638.07 140.591 638.143C140.717 638.215 141.568 637.093 143.289 635.716C144.877 634.43 146.733 633.514 148.721 633.036C149.518 632.801 150.169 632.765 150.387 633.036C150.604 633.308 150.477 633.236 150.387 633.453C150.152 633.71 149.884 633.936 149.59 634.123C148.971 634.557 148.323 634.95 147.653 635.3C146.498 635.914 145.285 636.411 144.031 636.785C142.821 637.068 141.63 637.424 140.464 637.853Z" fill="#263238"/>
<path d="M141.025 638.36C141.699 637.279 142.004 636.008 141.894 634.739C141.929 632.533 141.359 630.36 140.247 628.455C140.037 627.967 139.702 627.542 139.276 627.224C138.85 626.906 138.348 626.706 137.82 626.645C137.494 626.669 137.18 626.781 136.912 626.969C136.644 627.157 136.433 627.414 136.299 627.713C136.117 628.152 136.001 628.616 135.955 629.089C135.837 629.924 135.837 630.771 135.955 631.606C136.213 632.985 136.797 634.282 137.657 635.39C139.178 637.201 140.699 637.654 140.736 637.545C140.772 637.437 139.559 636.694 138.4 634.865C137.721 633.822 137.282 632.641 137.114 631.407C137.014 630.698 137.014 629.979 137.114 629.27C137.114 628.473 137.476 627.822 137.784 627.894C138.092 627.966 138.798 628.455 139.124 629.071C139.508 629.705 139.835 630.372 140.102 631.063C140.545 632.226 140.825 633.444 140.935 634.684C141.025 636.948 140.754 638.324 141.025 638.36Z" fill="#263238"/>
<path d="M265.496 613.245L274.061 658.079L291.064 691.578C291.355 692.148 291.527 692.772 291.566 693.411C291.606 694.05 291.513 694.691 291.294 695.292C291.075 695.894 290.734 696.444 290.292 696.908C289.85 697.372 289.318 697.739 288.728 697.988C288.043 698.284 287.297 698.411 286.553 698.357C285.809 698.304 285.089 698.072 284.454 697.68C276.252 692.61 246.121 673.833 245.686 670.519C245.161 666.662 233.5 623.82 233.5 623.82L265.496 613.245Z" fill="#455A64"/>
<path d="M288.727 697.988L245.034 667.495L245.433 669.396C245.795 671.026 246.121 673.706 247.442 674.72C251.064 677.436 261.53 684.625 284.309 698.821C285.631 699.636 287.315 698.64 288.727 697.988Z" fill="#263238"/>
<path d="M251.118 654.312C251.753 654.596 252.261 655.103 252.545 655.738C252.829 656.373 252.869 657.09 252.657 657.753C252.398 658.399 251.9 658.922 251.266 659.211C250.632 659.501 249.912 659.537 249.253 659.31C248.591 659.005 248.062 658.469 247.765 657.802C247.469 657.136 247.425 656.385 247.641 655.688C247.985 655.043 248.565 654.554 249.259 654.325C249.954 654.096 250.711 654.143 251.371 654.457" fill="#EBEBEB"/>
<path d="M274.332 680.696C274.983 679 276.078 677.511 277.502 676.383C278.926 675.256 280.626 674.531 282.426 674.285C282.426 674.177 281.81 673.941 280.724 674.032C279.322 674.173 277.989 674.714 276.885 675.589C275.769 676.458 274.932 677.636 274.477 678.975C274.151 680.007 274.223 680.677 274.332 680.696Z" fill="#263238"/>
<path d="M278.804 685.983C279.058 686.128 280.18 684.371 282.335 683.212C284.49 682.054 286.572 682.017 286.572 681.71C285.795 681.429 284.96 681.34 284.141 681.45C283.321 681.561 282.54 681.867 281.864 682.343C279.402 683.665 278.641 685.91 278.804 685.983Z" fill="#263238"/>
<path d="M266.781 674.231C268.379 672.555 270.104 671.005 271.942 669.596C273.962 668.443 276.068 667.45 278.243 666.626C275.807 666.671 273.434 667.411 271.404 668.758C269.374 670.105 267.77 672.004 266.781 674.231Z" fill="#263238"/>
<path d="M263.033 660.904C263.196 661.139 265.441 659.582 268.628 658.767C271.815 657.952 274.513 658.188 274.55 657.898C272.538 657.309 270.404 657.277 268.375 657.807C266.347 658.336 264.5 659.407 263.033 660.904Z" fill="#263238"/>
<path d="M260.172 647.794C261.981 646.751 263.924 645.959 265.948 645.44C268.03 645.23 270.13 645.297 272.195 645.639C272.195 645.531 271.634 645.078 270.475 644.716C268.946 644.25 267.328 644.154 265.754 644.434C264.181 644.714 262.696 645.363 261.421 646.327C260.534 647.07 260.081 647.722 260.172 647.794Z" fill="#263238"/>
<path d="M265.333 642.96C265.362 642.376 265.257 641.794 265.025 641.258C264.553 639.741 263.776 638.336 262.743 637.129C262.061 636.178 261.089 635.473 259.973 635.119C259.596 635.032 259.201 635.067 258.846 635.22C258.491 635.373 258.194 635.636 257.999 635.97C257.644 636.636 257.547 637.41 257.728 638.143C258.151 639.619 259.074 640.901 260.34 641.77C261.605 642.639 263.134 643.041 264.663 642.905C266.165 642.742 267.587 642.14 268.749 641.174C269.912 640.208 270.764 638.921 271.199 637.473C271.298 637.104 271.319 636.719 271.26 636.341C271.2 635.964 271.063 635.603 270.855 635.282C270.611 634.977 270.274 634.759 269.896 634.661C269.517 634.563 269.117 634.591 268.755 634.739C267.706 635.206 266.804 635.951 266.147 636.894C265.148 638.127 264.37 639.524 263.848 641.022C263.608 641.551 263.485 642.126 263.486 642.706C264.284 640.749 265.364 638.919 266.691 637.274C267.311 636.498 268.105 635.877 269.008 635.463C269.206 635.383 269.425 635.37 269.631 635.425C269.837 635.481 270.019 635.602 270.149 635.771C270.272 635.989 270.349 636.231 270.374 636.48C270.399 636.73 270.371 636.981 270.294 637.22C269.89 638.466 269.139 639.571 268.128 640.405C267.118 641.239 265.891 641.767 264.59 641.928C263.317 642.021 262.048 641.687 260.986 640.979C259.923 640.271 259.127 639.228 258.723 638.016C258.579 637.511 258.624 636.97 258.85 636.495C258.959 636.312 259.121 636.166 259.316 636.078C259.51 635.991 259.727 635.966 259.937 636.007C260.88 636.305 261.708 636.887 262.309 637.672C263.617 639.246 264.64 641.035 265.333 642.96Z" fill="#263238"/>
<path d="M143.868 630.537C143.538 631.141 143.026 631.625 142.406 631.922C141.785 632.219 141.087 632.312 140.41 632.19C139.733 632.068 139.112 631.736 138.634 631.241C138.156 630.746 137.847 630.114 137.748 629.433C137.65 628.752 137.769 628.057 138.087 627.448C138.406 626.838 138.908 626.344 139.523 626.036C140.137 625.727 140.834 625.62 141.513 625.729C142.192 625.838 142.82 626.159 143.307 626.644C143.884 627.096 144.265 627.753 144.369 628.478C144.474 629.203 144.294 629.941 143.868 630.537Z" fill="#263238"/>
<path d="M131.79 623.53C132.37 624.689 132.551 625.775 132.207 625.956C131.863 626.137 131.102 625.322 130.505 624.145C129.907 622.968 129.744 621.882 130.088 621.719C130.432 621.556 131.211 622.371 131.79 623.53Z" fill="#263238"/>
<path d="M311.525 636.278L100.863 636.568L114.932 233.713L106.621 238.747L96.7344 195.851H311.525V636.278Z" fill="#263238"/>
<path d="M170.722 192.355L174.144 617.5H101.533L100.863 636.567L285.722 636.839L285.632 612.177H226.203L213.763 198.729L170.722 192.355Z" fill="white"/>
<path d="M285.776 636.893L100.845 636.603L101.515 617.482H174.126L170.703 192.337L213.799 198.729L226.239 612.122H285.667L285.776 636.893ZM100.899 636.513L285.595 636.802V612.212H226.13L213.69 198.801L170.721 192.446L174.144 617.572H101.533L100.899 636.513Z" fill="#263238"/>
<path d="M180.517 249.141C179.286 248.724 178.923 246.606 179.684 244.433C180.444 242.26 182.056 240.811 183.305 241.3C184.555 241.789 184.917 243.835 184.138 246.008C183.36 248.181 181.748 249.575 180.517 249.141Z" fill="#263238"/>
<path d="M183.632 275.215C182.437 275.722 180.898 274.781 180.192 273.097C179.807 272.451 179.687 271.682 179.856 270.95C180.024 270.218 180.469 269.58 181.097 269.168C182.292 268.661 183.831 269.602 184.538 271.268C184.923 271.916 185.044 272.688 184.875 273.423C184.707 274.158 184.262 274.8 183.632 275.215Z" fill="#263238"/>
<path d="M189.372 256.438C189.734 257.687 189.372 258.919 188.449 259.172C187.525 259.426 186.638 258.647 186.185 257.362C185.733 256.076 186.185 254.881 187.091 254.627C187.996 254.374 188.992 255.189 189.372 256.438Z" fill="#263238"/>
<path d="M188.412 228.136C187.344 228.878 185.479 228.136 184.248 226.325C183.016 224.515 182.89 222.541 183.958 221.78C185.026 221.02 186.891 221.78 188.123 223.591C189.354 225.402 189.481 227.376 188.412 228.136Z" fill="#263238"/>
<path d="M178.543 209.993C179.593 210.771 180.01 211.984 179.485 212.691C178.959 213.397 177.674 213.324 176.642 212.546C175.61 211.767 175.175 210.554 175.7 209.848C176.225 209.142 177.511 209.214 178.543 209.993Z" fill="#263238"/>
<path d="M205.542 238.638C204.839 238.748 204.121 238.575 203.544 238.158C202.967 237.741 202.579 237.113 202.463 236.411C202.443 235.955 202.551 235.502 202.776 235.105C203.001 234.708 203.334 234.383 203.735 234.166C204.137 233.949 204.591 233.85 205.047 233.88C205.502 233.91 205.94 234.068 206.31 234.336C206.679 234.603 206.966 234.969 207.137 235.393C207.308 235.816 207.356 236.279 207.276 236.728C207.196 237.177 206.991 237.595 206.684 237.932C206.377 238.27 205.981 238.515 205.542 238.638Z" fill="#263238"/>
<path d="M205.306 259.009C204.165 258.375 204.31 255.949 205.632 253.577C206.954 251.205 208.946 249.792 210.086 250.426C211.227 251.06 211.082 253.486 209.76 255.858C208.439 258.23 206.447 259.57 205.306 259.009Z" fill="#263238"/>
<path d="M200.489 274.255C200.019 274.368 199.526 274.338 199.073 274.169C198.62 274 198.228 273.699 197.947 273.305C197.667 272.912 197.51 272.443 197.497 271.96C197.484 271.477 197.616 271 197.876 270.593C198.136 270.185 198.511 269.864 198.955 269.671C199.398 269.478 199.889 269.422 200.365 269.51C200.84 269.598 201.278 269.827 201.623 270.166C201.968 270.504 202.204 270.939 202.3 271.412C202.43 272.029 202.314 272.672 201.975 273.203C201.637 273.735 201.103 274.113 200.489 274.255Z" fill="#263238"/>
<path d="M209.091 278.71C208.653 278.752 208.213 278.664 207.825 278.458C207.437 278.252 207.118 277.936 206.907 277.55C206.696 277.164 206.604 276.725 206.641 276.287C206.677 275.849 206.842 275.431 207.114 275.086C207.386 274.741 207.753 274.483 208.17 274.344C208.587 274.205 209.036 274.192 209.461 274.306C209.885 274.42 210.267 274.657 210.558 274.986C210.85 275.314 211.039 275.722 211.101 276.157C211.139 276.457 211.117 276.761 211.036 277.053C210.955 277.344 210.817 277.616 210.63 277.854C210.443 278.091 210.211 278.289 209.946 278.436C209.682 278.583 209.391 278.676 209.091 278.71Z" fill="#263238"/>
<path d="M185.225 292.381C184.827 293.612 182.835 294.065 181.06 292.906C179.286 291.747 178.869 289.755 179.811 288.886C180.388 288.548 181.048 288.376 181.717 288.39C182.385 288.405 183.037 288.604 183.6 288.965C184.163 289.327 184.614 289.838 184.904 290.441C185.194 291.044 185.311 291.715 185.243 292.381H185.225Z" fill="#263238"/>
<path d="M191.273 295.26C190.006 294.952 189.463 292.924 189.933 290.733C190.404 288.542 191.907 287.003 193.175 287.293C194.442 287.583 194.985 289.629 194.515 291.82C194.044 294.011 192.541 295.55 191.273 295.26Z" fill="#263238"/>
<path d="M184.266 319.742C183.599 319.603 182.983 319.285 182.485 318.821C181.986 318.357 181.624 317.766 181.438 317.111C181.251 316.457 181.247 315.763 181.427 315.107C181.606 314.45 181.962 313.855 182.455 313.386C183.56 312.716 185.37 313.712 185.986 315.794C186.602 317.876 185.57 319.687 184.266 319.742Z" fill="#263238"/>
<path d="M188.412 306.071C187.489 306.994 186.312 307.302 185.787 306.777C185.262 306.252 185.588 305.075 186.493 304.151C187.398 303.228 188.593 302.92 189.119 303.445C189.644 303.97 189.336 305.147 188.412 306.071Z" fill="#263238"/>
<path d="M205.669 303.227C204.401 302.974 203.713 300.91 204.166 298.628C204.619 296.347 205.977 294.699 207.298 295.007C208.62 295.315 209.236 297.306 208.801 299.606C208.367 301.906 206.954 303.481 205.669 303.227Z" fill="#263238"/>
<path d="M204.637 323.562C203.532 324.25 201.794 323.562 200.726 321.751C199.657 319.94 199.712 318.13 200.816 317.46C201.921 316.79 203.659 317.55 204.709 319.27C205.759 320.99 205.741 322.946 204.637 323.562Z" fill="#263238"/>
<path d="M209.398 329.61C208.734 329.311 208.209 328.769 207.933 328.095C207.657 327.421 207.65 326.667 207.913 325.988C208.366 324.322 209.724 323.236 210.992 323.562C211.594 323.926 212.063 324.475 212.327 325.128C212.592 325.78 212.637 326.501 212.458 327.182C212.279 327.863 211.884 328.467 211.332 328.905C210.78 329.342 210.102 329.59 209.398 329.61Z" fill="#263238"/>
<path d="M184.32 338.156C183.324 338.971 181.278 338.156 179.775 336.346C178.272 334.535 177.874 332.362 178.87 331.529C179.866 330.696 181.912 331.529 183.415 333.34C184.918 335.151 185.334 337.324 184.32 338.156Z" fill="#263238"/>
<path d="M191.726 345.2C191.117 345.226 190.515 345.063 190.003 344.733C189.491 344.404 189.093 343.924 188.864 343.359C188.636 342.795 188.587 342.173 188.726 341.58C188.864 340.987 189.183 340.451 189.638 340.046C190.093 339.641 190.663 339.387 191.268 339.319C191.873 339.25 192.485 339.37 193.019 339.663C193.553 339.956 193.983 340.407 194.251 340.954C194.519 341.501 194.611 342.118 194.514 342.719C194.463 343.414 194.143 344.062 193.623 344.525C193.102 344.988 192.422 345.23 191.726 345.2Z" fill="#263238"/>
<path d="M182.998 374.136C182.074 375.06 180.046 374.535 178.471 372.941C176.896 371.348 176.352 369.32 177.276 368.414C178.199 367.509 180.227 368.034 181.803 369.609C183.378 371.185 183.921 373.231 182.998 374.136Z" fill="#263238"/>
<path d="M196.362 356.011C196.728 356.482 196.904 357.074 196.853 357.669C196.802 358.264 196.529 358.818 196.088 359.22C195.647 359.622 195.07 359.844 194.473 359.839C193.876 359.835 193.303 359.606 192.867 359.198C192.5 358.726 192.325 358.134 192.376 357.539C192.427 356.945 192.7 356.391 193.141 355.988C193.582 355.586 194.159 355.365 194.756 355.369C195.353 355.373 195.926 355.602 196.362 356.011Z" fill="#263238"/>
<path d="M186.293 351.61C186.71 352.842 186.619 353.982 186.094 354.163C185.569 354.344 184.79 353.475 184.283 352.244C183.776 351.013 183.958 349.872 184.501 349.691C185.044 349.51 185.786 350.379 186.293 351.61Z" fill="#263238"/>
<path d="M210.992 347.735C211.155 349.039 210.72 350.143 210.014 350.234C209.308 350.325 208.62 349.347 208.457 348.061C208.294 346.775 208.729 345.653 209.435 345.562C210.141 345.472 210.829 346.486 210.992 347.735Z" fill="#263238"/>
<path d="M207.914 377.015C206.628 377.015 205.596 374.897 205.65 372.343C205.705 369.79 206.791 367.762 208.095 367.78C209.399 367.799 210.413 369.881 210.358 372.434C210.304 374.987 209.218 377.033 207.914 377.015Z" fill="#263238"/>
<path d="M196.995 381.451C195.8 381.977 193.971 380.401 192.921 377.939C191.871 375.476 191.979 373.068 193.174 372.506C194.37 371.945 196.198 373.557 197.249 376.019C198.299 378.482 198.19 380.89 196.995 381.451Z" fill="#263238"/>
<path d="M190.639 398.02C191.146 399.215 189.625 401.008 187.235 402.022C184.845 403.036 182.509 402.891 181.984 401.696C181.459 400.501 183.016 398.708 185.388 397.694C187.76 396.68 190.132 396.825 190.639 398.02Z" fill="#263238"/>
<path d="M187.779 428.857C186.475 429.02 185.225 427.445 184.954 425.326C184.682 423.207 185.515 421.379 186.765 421.216C188.014 421.053 189.318 422.646 189.571 424.837C189.825 427.028 189.064 428.694 187.779 428.857Z" fill="#263238"/>
<path d="M202.084 417.105C200.889 416.562 200.544 414.769 200.834 412.976C201.124 411.184 202.047 409.608 203.369 409.464C204.691 409.319 205.904 411.274 205.488 413.755C205.071 416.236 203.261 417.63 202.084 417.105Z" fill="#263238"/>
<path d="M208.131 395.141C208.085 395.665 207.882 396.164 207.548 396.571C207.213 396.977 206.764 397.274 206.258 397.42C205.752 397.566 205.214 397.556 204.714 397.39C204.214 397.225 203.776 396.912 203.457 396.493C203.138 396.073 202.954 395.567 202.929 395.041C202.903 394.515 203.038 393.994 203.314 393.546C203.591 393.098 203.997 392.744 204.478 392.531C204.96 392.317 205.495 392.255 206.012 392.352C206.335 392.394 206.647 392.5 206.928 392.664C207.21 392.827 207.457 393.045 207.654 393.304C207.851 393.563 207.994 393.859 208.076 394.175C208.158 394.49 208.177 394.818 208.131 395.141Z" fill="#263238"/>
<path d="M213.255 428.513C212.701 428.813 212.074 428.951 211.445 428.911C210.934 428.926 210.429 428.807 209.978 428.567C209.542 428.289 209.186 427.902 208.946 427.444C208.589 426.909 208.406 426.277 208.421 425.633C208.432 425.291 208.547 424.961 208.751 424.686C208.955 424.411 209.238 424.205 209.562 424.094C210.022 423.942 210.51 423.893 210.992 423.949C211.473 424.006 211.937 424.166 212.35 424.42C212.774 424.654 213.142 424.977 213.426 425.368C213.711 425.76 213.906 426.209 213.998 426.684C214.082 427.028 214.056 427.39 213.923 427.718C213.789 428.047 213.556 428.325 213.255 428.513Z" fill="#263238"/>
<path d="M190.948 447.634C190.353 447.425 189.838 447.037 189.474 446.523C189.11 446.008 188.914 445.394 188.914 444.764C188.914 444.134 189.11 443.519 189.474 443.005C189.838 442.491 190.353 442.103 190.948 441.894C192.197 441.55 193.646 442.799 193.646 444.755C193.646 446.71 192.197 447.978 190.948 447.634Z" fill="#263238"/>
<path d="M211.246 454.787C210.933 454.85 210.611 454.851 210.298 454.789C209.985 454.728 209.687 454.605 209.422 454.429C209.156 454.252 208.928 454.025 208.75 453.76C208.572 453.495 208.448 453.198 208.385 452.885C208.322 452.573 208.321 452.251 208.382 451.938C208.444 451.625 208.566 451.327 208.743 451.061C208.919 450.795 209.147 450.567 209.411 450.389C209.676 450.211 209.973 450.087 210.286 450.024C210.918 449.897 211.574 450.026 212.11 450.383C212.647 450.739 213.02 451.294 213.147 451.926C213.274 452.557 213.146 453.213 212.789 453.75C212.432 454.287 211.877 454.659 211.246 454.787Z" fill="#263238"/>
<path d="M191.599 411.365C191.328 412.633 190.422 413.538 189.535 413.357C188.648 413.176 188.159 411.999 188.412 410.732C188.666 409.464 189.589 408.559 190.459 408.74C191.328 408.921 191.853 410.08 191.599 411.365Z" fill="#263238"/>
<path d="M179.83 443.18C178.526 443.053 177.548 442.184 177.639 441.206C177.729 440.228 178.834 439.558 180.137 439.667C181.441 439.775 182.419 440.663 182.328 441.641C182.187 442.168 181.85 442.621 181.385 442.907C180.92 443.193 180.364 443.291 179.83 443.18Z" fill="#263238"/>
<path d="M205.27 439.667C204.885 439.859 204.452 439.933 204.025 439.882C203.597 439.831 203.194 439.656 202.865 439.378C202.536 439.101 202.295 438.734 202.172 438.321C202.048 437.909 202.048 437.47 202.171 437.057C202.294 436.645 202.535 436.277 202.864 436C203.193 435.722 203.596 435.547 204.023 435.495C204.45 435.444 204.883 435.518 205.269 435.709C205.655 435.9 205.976 436.2 206.194 436.571C206.337 436.835 206.427 437.124 206.458 437.423C206.489 437.721 206.46 438.023 206.375 438.311C206.289 438.599 206.147 438.866 205.958 439.099C205.768 439.332 205.535 439.525 205.27 439.667Z" fill="#263238"/>
<path d="M187.778 471.428C186.474 471.211 185.75 469.165 185.75 466.811C185.75 464.457 186.474 462.429 187.778 462.211C189.082 461.994 190.476 464.022 190.458 466.811C190.44 469.599 189.046 471.718 187.778 471.428Z" fill="#263238"/>
<path d="M208.131 476.262C207.666 476.755 207.064 477.097 206.402 477.246C205.741 477.394 205.05 477.342 204.419 477.095C203.752 476.958 203.142 476.621 202.67 476.13C202.198 475.638 201.886 475.015 201.775 474.343C201.775 473.057 203.586 471.916 205.759 472.532C207.932 473.148 208.91 475.23 208.131 476.262Z" fill="#263238"/>
<path d="M193.283 498.697C192.486 499.729 190.476 499.512 188.81 498.208C187.145 496.905 186.402 495.021 187.199 493.989C187.996 492.957 190.005 493.175 191.689 494.478C193.373 495.782 194.08 497.665 193.283 498.697Z" fill="#263238"/>
<path d="M191.273 516.697C191.472 517.982 189.861 519.304 187.651 519.648C185.442 519.992 183.505 519.25 183.306 517.964C183.107 516.679 184.718 515.357 186.927 514.995C189.136 514.632 191.074 515.393 191.273 516.697Z" fill="#263238"/>
<path d="M210.684 516.334C209.997 516.389 209.313 516.187 208.768 515.765C208.222 515.344 207.853 514.734 207.733 514.054C207.613 513.375 207.75 512.676 208.119 512.093C208.487 511.51 209.06 511.085 209.725 510.902C210.412 510.846 211.096 511.049 211.641 511.47C212.187 511.892 212.556 512.502 212.676 513.181C212.796 513.86 212.659 514.56 212.29 515.143C211.922 515.726 211.349 516.151 210.684 516.334Z" fill="#263238"/>
<path d="M213.545 488.974C212.368 489.571 211.155 489.462 210.793 488.756C210.431 488.05 211.101 486.946 212.259 486.439C213.418 485.931 214.668 485.95 215.012 486.656C215.356 487.362 214.704 488.394 213.545 488.974Z" fill="#263238"/>
<path d="M184.972 482.6C183.777 483.107 182.581 483.035 182.328 482.419C182.074 481.803 182.817 480.88 184.012 480.373C185.207 479.866 186.384 479.938 186.656 480.554C186.927 481.17 186.167 482.075 184.972 482.6Z" fill="#263238"/>
<path d="M199.295 512.223C198.86 512.12 198.466 511.893 198.16 511.568C197.854 511.243 197.65 510.836 197.573 510.396C197.496 509.957 197.55 509.504 197.728 509.095C197.905 508.686 198.199 508.338 198.572 508.093C198.946 507.849 199.383 507.72 199.829 507.722C200.275 507.723 200.711 507.856 201.083 508.102C201.454 508.349 201.746 508.7 201.92 509.11C202.095 509.521 202.145 509.974 202.065 510.413C202.003 510.714 201.881 510.999 201.708 511.254C201.535 511.508 201.313 511.725 201.056 511.893C200.799 512.061 200.51 512.177 200.208 512.234C199.906 512.291 199.596 512.287 199.295 512.223Z" fill="#263238"/>
<path d="M214.85 466.738C215.936 467.462 216.515 468.549 216.171 469.001C215.827 469.454 214.65 469.363 213.582 468.639C212.514 467.915 211.898 466.919 212.242 466.376C212.586 465.832 213.763 465.995 214.85 466.738Z" fill="#263238"/>
<path d="M215.139 400.809C215.455 400.826 215.758 400.945 216.002 401.147C216.247 401.349 216.42 401.624 216.497 401.931C216.555 402.322 216.484 402.721 216.294 403.068C216.105 403.414 215.807 403.689 215.447 403.851C215.099 404.035 214.7 404.102 214.311 404.04C213.923 403.978 213.565 403.791 213.292 403.507C213.083 403.251 212.969 402.931 212.969 402.601C212.969 402.271 213.083 401.951 213.292 401.696C213.437 401.406 213.618 401.135 213.726 400.881V400.646C213.75 400.545 213.75 400.439 213.726 400.338C213.726 400.338 213.853 400.519 213.944 400.555H214.179L215.139 400.809Z" fill="#263238"/>
<path d="M184.917 385.598C186.04 386.232 186.728 387.264 186.311 387.88C185.895 388.496 184.772 388.459 183.632 387.88C182.491 387.301 181.821 386.214 182.219 385.598C182.617 384.983 183.776 384.947 184.917 385.598Z" fill="#263238"/>
<path d="M210.033 359.162C210.31 359.28 210.558 359.458 210.758 359.684C210.958 359.909 211.106 360.176 211.191 360.465C211.259 360.764 211.244 361.076 211.148 361.367C211.051 361.658 210.877 361.917 210.644 362.117C210.411 362.316 210.128 362.448 209.826 362.499C209.523 362.549 209.213 362.516 208.928 362.403C208.656 362.273 208.414 362.086 208.221 361.855C208.027 361.624 207.885 361.354 207.805 361.063C207.644 360.521 207.547 359.962 207.516 359.397C207.516 358.944 207.516 358.636 207.516 358.528C207.516 358.419 207.932 358.528 208.385 358.528C208.959 358.666 209.513 358.879 210.033 359.162Z" fill="#263238"/>
<path d="M198.589 332.145C199.657 332.906 200.146 333.956 199.712 334.644C199.277 335.332 198.064 335.133 196.996 334.373C195.927 333.612 195.438 332.562 195.873 331.892C196.308 331.222 197.521 331.403 198.589 332.145Z" fill="#263238"/>
<path d="M209.996 306.65C210.829 307.664 211.136 308.768 210.702 309.131C210.267 309.493 209.253 308.95 208.42 307.954C207.587 306.958 207.28 305.835 207.714 305.473C208.149 305.111 209.181 305.654 209.996 306.65Z" fill="#263238"/>
<path d="M182.672 279.054C182.347 280.322 181.803 281.263 181.459 281.173C181.115 281.082 181.079 279.996 181.459 278.728C181.84 277.461 182.328 276.519 182.691 276.61C183.053 276.7 182.998 277.805 182.672 279.054Z" fill="#263238"/>
<path d="M202.736 281.299C202.989 282.567 202.844 283.671 202.41 283.762C201.975 283.853 201.396 282.893 201.142 281.607C200.889 280.322 201.034 279.235 201.468 279.145C201.903 279.054 202.482 280.014 202.736 281.299Z" fill="#263238"/>
<path d="M179.485 301.598C179.693 301.812 179.845 302.075 179.928 302.363C180.01 302.65 180.019 302.954 179.956 303.246C179.866 303.54 179.684 303.798 179.436 303.981C179.188 304.164 178.888 304.261 178.58 304.26C178.271 304.269 177.967 304.179 177.713 304.003C177.459 303.827 177.268 303.574 177.167 303.282C177.093 302.992 177.093 302.687 177.165 302.396C177.238 302.106 177.382 301.838 177.584 301.616L178.145 300.874C178.273 300.712 178.383 300.535 178.471 300.349C178.477 300.294 178.477 300.24 178.471 300.186C178.46 300.239 178.46 300.295 178.471 300.349C178.573 300.532 178.688 300.707 178.815 300.874L179.485 301.598Z" fill="#263238"/>
<path d="M198.969 242.495C199.298 242.792 199.533 243.18 199.644 243.609C199.754 244.039 199.737 244.491 199.592 244.911C199.448 245.33 199.184 245.698 198.832 245.969C198.481 246.239 198.057 246.401 197.615 246.433C197.173 246.465 196.73 246.366 196.344 246.149C195.957 245.931 195.642 245.605 195.439 245.211C195.236 244.816 195.154 244.371 195.202 243.93C195.25 243.489 195.426 243.072 195.709 242.73C196.111 242.269 196.68 241.985 197.291 241.941C197.901 241.896 198.505 242.096 198.969 242.495Z" fill="#263238"/>
<path d="M205.252 215.388C205.524 215.985 205.651 216.565 205.814 216.963C205.977 217.362 206.122 217.597 206.085 217.633C206.049 217.669 205.796 217.633 205.361 217.524C204.926 217.416 204.329 217.524 203.695 217.325C203.397 217.285 203.111 217.18 202.858 217.017C202.604 216.854 202.39 216.638 202.228 216.384C202.093 216.113 202.039 215.808 202.072 215.507C202.105 215.206 202.224 214.921 202.415 214.686C202.607 214.451 202.861 214.276 203.149 214.182C203.437 214.088 203.746 214.079 204.039 214.156C204.321 214.257 204.576 214.421 204.786 214.634C204.996 214.847 205.156 215.105 205.252 215.388Z" fill="#263238"/>
<path d="M178.489 223.03C179.793 223.175 180.77 223.935 180.68 224.732C180.589 225.529 179.467 226.036 178.181 225.891C176.895 225.746 175.9 225.004 175.99 224.207C176.081 223.41 177.24 222.885 178.489 223.03Z" fill="#263238"/>
<path d="M189.68 203.637C190.875 204.144 191.635 205.067 191.364 205.683C191.092 206.298 189.915 206.371 188.72 205.864C187.525 205.357 186.782 204.433 187.036 203.818C187.289 203.202 188.484 203.13 189.68 203.637Z" fill="#263238"/>
<path d="M188.358 540.869C187.308 541.63 185.588 541.05 184.519 539.566C183.993 539.022 183.698 538.295 183.698 537.538C183.698 536.781 183.993 536.053 184.519 535.51C185.227 535.277 185.991 535.277 186.699 535.509C187.407 535.741 188.022 536.194 188.455 536.8C188.888 537.407 189.115 538.136 189.104 538.881C189.093 539.626 188.845 540.348 188.394 540.942L188.358 540.869Z" fill="#263238"/>
<path d="M208.82 543.405C207.625 542.862 207.516 540.526 208.566 538.154C209.617 535.782 211.427 534.279 212.622 534.804C213.818 535.329 213.926 537.683 212.876 540.055C211.826 542.427 209.997 543.858 208.82 543.405Z" fill="#263238"/>
<path d="M197.9 556.731C196.597 556.731 195.619 555.192 195.691 553.436C195.764 551.68 196.904 550.303 198.208 550.376C199.512 550.448 200.49 551.915 200.399 553.671C200.309 555.428 199.204 556.804 197.9 556.731Z" fill="#263238"/>
<path d="M187.217 568.701C186.745 569.181 186.122 569.484 185.453 569.559C184.784 569.635 184.11 569.478 183.543 569.114C182.976 568.751 182.551 568.204 182.34 567.565C182.128 566.926 182.143 566.234 182.382 565.604C182.854 565.124 183.477 564.821 184.145 564.746C184.814 564.671 185.489 564.828 186.056 565.191C186.623 565.554 187.047 566.101 187.259 566.74C187.47 567.379 187.455 568.071 187.217 568.701Z" fill="#263238"/>
<path d="M183.632 552.603C184.121 553.816 184.157 554.939 183.723 555.102C183.288 555.265 182.527 554.45 182.039 553.291C181.55 552.132 181.532 550.955 182.039 550.792C182.546 550.629 183.161 551.39 183.632 552.603Z" fill="#263238"/>
<path d="M220.861 566.274C221.368 567.469 221.295 568.664 220.68 568.918C220.064 569.171 219.141 568.429 218.634 567.234C218.127 566.039 218.199 564.862 218.815 564.59C219.43 564.319 220.336 565.079 220.861 566.274Z" fill="#263238"/>
<path d="M202.102 588.547C200.997 589.217 199.005 588.004 197.684 585.813C196.362 583.622 196.162 581.304 197.267 580.616C198.372 579.928 200.363 581.159 201.703 583.35C203.043 585.541 203.206 587.859 202.102 588.547Z" fill="#263238"/>
<path d="M212.278 595.228C211.065 594.775 210.866 592.331 211.826 589.796C212.785 587.261 214.56 585.54 215.773 586.011C216.986 586.482 217.203 588.908 216.244 591.444C215.284 593.979 213.455 595.699 212.278 595.228Z" fill="#263238"/>
<path d="M187.778 601.276C187.119 601.396 186.439 601.336 185.81 601.104C185.182 600.872 184.626 600.475 184.203 599.956C183.78 599.436 183.503 598.812 183.403 598.15C183.302 597.487 183.381 596.809 183.632 596.188C184.338 595.101 186.456 595.246 187.869 596.984C189.281 598.723 188.973 600.805 187.778 601.276Z" fill="#263238"/>
<path d="M196.687 603.811C196.99 604.03 197.224 604.331 197.363 604.678C197.502 605.025 197.539 605.404 197.471 605.772C197.402 606.139 197.231 606.48 196.977 606.754C196.722 607.027 196.395 607.223 196.034 607.319C195.672 607.414 195.291 607.405 194.935 607.292C194.579 607.179 194.261 606.968 194.021 606.682C193.78 606.396 193.625 606.047 193.575 605.677C193.524 605.307 193.58 604.93 193.735 604.59C194.029 604.102 194.502 603.747 195.053 603.602C195.604 603.456 196.19 603.531 196.687 603.811Z" fill="#263238"/>
<path d="M165.778 621.955C166.058 622.023 166.319 622.152 166.544 622.333C166.768 622.513 166.95 622.741 167.076 623.001C167.202 623.26 167.269 623.543 167.272 623.832C167.276 624.12 167.216 624.405 167.096 624.667C166.977 624.929 166.801 625.162 166.581 625.348C166.361 625.534 166.103 625.669 165.825 625.744C165.546 625.819 165.255 625.831 164.972 625.781C164.688 625.73 164.419 625.617 164.184 625.45C163.904 625.382 163.643 625.253 163.418 625.072C163.194 624.892 163.012 624.664 162.886 624.404C162.76 624.145 162.693 623.862 162.69 623.574C162.686 623.285 162.746 623 162.866 622.738C162.985 622.476 163.161 622.243 163.381 622.057C163.601 621.871 163.859 621.736 164.137 621.661C164.416 621.586 164.707 621.574 164.99 621.624C165.274 621.675 165.543 621.788 165.778 621.955Z" fill="#263238"/>
<path d="M209.399 564.047C209.608 564.308 209.742 564.622 209.784 564.954C209.826 565.286 209.775 565.623 209.637 565.928C209.499 566.233 209.279 566.494 209.002 566.682C208.725 566.869 208.401 566.976 208.066 566.991C207.732 567.005 207.4 566.927 207.107 566.764C206.815 566.601 206.573 566.361 206.409 566.069C206.245 565.777 206.165 565.445 206.178 565.111C206.191 564.776 206.297 564.452 206.483 564.174C206.863 563.787 207.375 563.559 207.916 563.535C208.457 563.512 208.987 563.695 209.399 564.047Z" fill="#263238"/>
<path d="M200.78 524.935C201.975 525.442 202.735 526.348 202.464 526.963C202.192 527.579 201.015 527.669 199.82 527.162C198.625 526.655 197.864 525.732 198.136 525.116C198.408 524.501 199.621 524.41 200.78 524.935Z" fill="#263238"/>
<path d="M188.721 626.735C187.58 627.35 185.86 626.445 184.9 624.689C183.94 622.932 184.067 621.067 185.208 620.361C186.349 619.655 188.069 620.651 189.028 622.407C189.988 624.163 189.916 626.101 188.721 626.735Z" fill="#263238"/>
<path d="M122.519 631.697C121.379 632.312 119.659 631.407 118.699 629.65C117.739 627.894 117.866 626.029 119.007 625.323C120.147 624.617 121.868 625.612 122.827 627.369C123.787 629.125 123.66 631.063 122.519 631.697Z" fill="#263238"/>
<path d="M173.148 628.962C173.6 629.305 173.902 629.808 173.993 630.367C174.084 630.927 173.957 631.5 173.637 631.968C173.389 632.399 173.013 632.742 172.562 632.95C172.111 633.159 171.606 633.223 171.117 633.134C170.628 633.044 170.179 632.806 169.831 632.451C169.483 632.096 169.254 631.642 169.174 631.151C169.094 630.661 169.168 630.157 169.386 629.711C169.603 629.264 169.954 628.895 170.389 628.655C170.824 628.416 171.323 628.316 171.817 628.371C172.311 628.426 172.776 628.633 173.148 628.962Z" fill="#263238"/>
<path d="M138.472 630.773C138.694 631.069 138.828 631.422 138.857 631.791C138.887 632.16 138.811 632.53 138.638 632.858C138.466 633.185 138.204 633.457 137.883 633.642C137.562 633.827 137.196 633.917 136.826 633.901C136.456 633.886 136.098 633.765 135.794 633.555C135.489 633.344 135.251 633.051 135.107 632.71C134.963 632.369 134.918 631.994 134.978 631.629C135.039 631.263 135.201 630.923 135.448 630.646C135.869 630.27 136.421 630.073 136.985 630.097C137.55 630.12 138.083 630.363 138.472 630.773Z" fill="#263238"/>
<path d="M154.66 625.34C154.893 625.826 154.93 626.381 154.765 626.894C154.6 627.406 154.245 627.835 153.773 628.093C152.903 628.346 151.962 627.568 151.491 626.282C151.02 624.996 151.491 623.819 152.396 623.548C153.302 623.276 154.28 624.127 154.66 625.34Z" fill="#263238"/>
<path d="M204.003 630.229C203.025 631.08 201.088 630.501 199.693 628.926C198.299 627.35 197.883 625.304 198.915 624.489C199.947 623.674 201.812 624.218 203.206 625.793C204.601 627.368 204.963 629.36 204.003 630.229Z" fill="#263238"/>
<path d="M109.554 623.693C110.658 624.399 110.622 626.409 109.554 628.184C108.485 629.958 106.584 630.846 105.498 630.139C104.411 629.433 104.429 627.423 105.498 625.649C106.566 623.874 108.431 622.987 109.554 623.693Z" fill="#263238"/>
<path d="M214.487 613.679C213.473 612.846 213.763 610.818 214.686 608.863C215.61 606.907 217.058 605.458 218.308 605.73C219.557 606.002 220.118 608.428 218.905 610.927C217.692 613.426 215.483 614.476 214.487 613.679Z" fill="#263238"/>
<path d="M211.318 621.321C210.858 621.741 210.279 622.007 209.661 622.082C209.043 622.157 208.418 622.036 207.871 621.738C207.325 621.44 206.885 620.979 206.614 620.419C206.342 619.859 206.252 619.228 206.357 618.615C206.461 618.001 206.754 617.436 207.196 616.997C207.637 616.558 208.204 616.268 208.818 616.167C209.432 616.067 210.063 616.16 210.621 616.435C211.18 616.71 211.638 617.152 211.933 617.7C212.307 618.27 212.451 618.96 212.337 619.632C212.223 620.303 211.858 620.907 211.318 621.321Z" fill="#263238"/>
<path d="M225.949 631.172C224.826 631.842 223.703 632.041 223.45 631.588C223.196 631.136 223.866 630.248 224.989 629.578C226.112 628.908 227.234 628.727 227.488 629.162C227.741 629.596 227.053 630.502 225.949 631.172Z" fill="#263238"/>
<path d="M135.937 625.757C134.814 626.427 133.692 626.626 133.438 626.192C133.185 625.757 133.855 624.852 134.977 624.182C136.1 623.512 137.205 623.313 137.476 623.765C137.748 624.218 137.042 625.087 135.937 625.757Z" fill="#263238"/>
<path d="M239.312 620.995C239.474 621.523 239.425 622.094 239.175 622.587C238.925 623.08 238.494 623.457 237.972 623.638C237.012 623.801 236.035 622.914 235.799 621.629C235.638 621.103 235.688 620.534 235.938 620.044C236.188 619.554 236.619 619.181 237.139 619.003C238.099 618.822 239.077 619.709 239.312 620.995Z" fill="#263238"/>
<path d="M249.217 627.658C247.967 628.075 246.338 626.481 245.595 624.037C244.853 621.592 245.179 619.401 246.41 619.003C247.641 618.605 249.289 620.18 250.032 622.624C250.774 625.069 250.448 627.26 249.217 627.658Z" fill="#263238"/>
<path d="M260.933 628.962C260.518 628.374 260.289 627.676 260.272 626.957C260.256 626.238 260.455 625.53 260.842 624.924C261.585 623.494 262.852 622.389 264.138 622.606C265.424 622.824 266.13 624.924 265.043 627.061C263.957 629.198 261.838 629.849 260.933 628.962Z" fill="#263238"/>
<path d="M278.75 627.676C277.447 627.676 276.396 627.314 276.396 626.88C276.396 626.445 277.447 626.083 278.75 626.083C280.054 626.083 281.104 626.445 281.104 626.88C281.104 627.314 280.054 627.676 278.75 627.676Z" fill="#263238"/>
<path d="M275.889 618.098C275.889 616.794 276.396 615.744 276.993 615.744C277.591 615.744 278.116 616.794 278.116 618.098C278.116 619.402 277.609 620.452 276.993 620.452C276.378 620.452 275.889 619.438 275.889 618.098Z" fill="#263238"/>
<path d="M199.964 636.839C199.964 636.839 199.964 636.477 199.964 635.753C199.964 635.028 199.964 633.942 199.964 632.548C199.964 629.687 199.964 625.54 199.837 620.216C199.711 614.893 199.729 608.32 199.602 600.715C199.475 593.11 199.312 584.418 199.149 574.893C198.461 536.614 196.777 483.777 194.713 425.398C192.649 367.02 191.092 314.128 190.548 275.849C190.367 266.288 190.331 257.633 190.259 250.028C190.186 242.423 190.168 235.868 190.259 230.526C190.349 225.184 190.259 221.056 190.259 218.195C190.259 216.819 190.259 215.75 190.259 214.99C190.259 214.229 190.259 213.903 190.259 213.903C190.259 213.903 190.259 214.265 190.259 214.99C190.259 215.714 190.259 216.801 190.259 218.195C190.259 221.056 190.349 225.202 190.403 230.526C190.458 235.85 190.512 242.423 190.639 250.01C190.766 257.597 190.91 266.306 191.073 275.849C191.78 314.11 193.464 366.984 195.51 425.362C197.556 483.741 199.131 536.596 199.674 574.875C199.856 584.454 199.91 593.11 199.982 600.715C200.055 608.32 200.073 614.875 199.982 620.216C199.892 625.558 199.982 629.687 199.982 632.548C199.982 633.942 199.982 634.992 199.982 635.753C199.982 636.513 199.964 636.839 199.964 636.839Z" fill="#263238"/>
<g opacity="0.3">
<path d="M240.344 377.268C241.605 390.204 245.591 402.725 252.042 414.008C252.838 415.833 254.154 417.383 255.826 418.463C258.144 419.694 260.969 419.079 263.504 418.463C266.528 417.702 269.841 416.652 271.453 414.045C272.48 411.875 272.839 409.448 272.485 407.073C271.978 397.657 271.58 390.052 271.091 380.636L259.067 384.511C256.768 385.272 249.561 387.39 249.561 387.39C247.243 384.675 245.3 381.66 243.785 378.427C242.499 375.277 239.873 370.714 239.059 367.418C239.348 368.595 240.29 376.671 240.344 377.142" fill="black"/>
</g>
<path d="M268.049 288.542L234.224 306.324C234.224 306.324 226.691 358.401 249.561 387.499L283.006 375.657L268.049 288.542Z" fill="#263238"/>
<path d="M268.048 288.542C268.056 288.675 268.056 288.808 268.048 288.94C268.048 289.248 268.175 289.647 268.284 290.154C268.477 291.288 268.767 292.882 269.153 294.934C269.913 299.189 270.964 305.309 272.376 313.041C275.11 328.596 278.931 350.397 283.367 375.657V376.037L283.005 376.164L250.104 387.825L249.561 388.006L249.235 388.133L249.035 387.861C244.225 381.396 240.551 374.158 238.171 366.458C235.865 359.319 234.317 351.957 233.554 344.494C232.139 331.811 232.218 319.006 233.789 306.342V306.179L233.952 306.088L258.904 293.196L265.622 289.755L267.433 288.886C267.615 288.774 267.809 288.683 268.012 288.614L267.396 288.977L265.586 289.936L258.85 293.558L234.368 306.649L234.549 306.396C233.086 319.029 233.086 331.789 234.549 344.422C235.347 351.806 236.907 359.087 239.203 366.151C241.598 373.755 245.272 380.895 250.068 387.264L249.542 387.101L250.068 386.92L282.987 375.295L282.697 375.802C278.46 350.651 274.82 328.94 272.213 313.44C270.945 305.726 269.931 299.551 269.207 295.242C268.881 293.159 268.61 291.512 268.429 290.335C268.429 289.809 268.284 289.393 268.229 289.067C268.137 288.905 268.076 288.727 268.048 288.542Z" fill="#455A64"/>
<path d="M234.225 306.27C234.372 306.509 234.494 306.764 234.587 307.03C234.84 307.646 235.148 308.388 235.492 309.275C236.271 311.231 237.303 314.092 238.498 317.659C241.578 326.965 244.052 336.462 245.904 346.088C247.752 355.721 248.884 365.477 249.29 375.277C249.417 379.025 249.453 382.067 249.381 384.186C249.381 385.127 249.381 385.997 249.29 386.594C249.328 386.877 249.328 387.163 249.29 387.445C249.21 387.169 249.179 386.881 249.199 386.594C249.199 385.924 249.199 385.127 249.109 384.186C249.109 382.085 248.928 379.043 248.711 375.313C248.116 365.589 246.906 355.913 245.089 346.341C243.23 336.75 240.854 327.266 237.973 317.931C236.868 314.309 235.927 311.466 235.257 309.475L234.532 307.157C234.374 306.883 234.27 306.582 234.225 306.27Z" fill="#455A64"/>
<path d="M263.631 382.556C263.545 382.28 263.496 381.994 263.486 381.705C263.486 381.053 263.359 380.238 263.269 379.279C263.051 377.16 262.762 374.1 262.218 370.334C260.77 360.534 258.818 350.816 256.37 341.217C253.509 329.954 251.101 319.687 248.692 312.499C247.497 308.877 246.338 306.034 245.469 304.097C244.6 302.159 244.075 301.109 244.147 301.073C244.22 301.037 244.346 301.29 244.636 301.779C244.926 302.268 245.324 302.992 245.813 303.934C247.149 306.644 248.322 309.431 249.326 312.281C251.915 319.524 254.414 329.719 257.275 340.982C259.754 350.608 261.623 360.381 262.87 370.243C263.341 374.028 263.522 377.124 263.631 379.297C263.631 380.275 263.631 381.108 263.631 381.76C263.672 382.024 263.672 382.292 263.631 382.556Z" fill="white"/>
<path d="M258.724 375.603C258.579 375.603 258.597 374.662 257.565 373.937C257.282 373.75 256.958 373.634 256.621 373.6C256.283 373.565 255.943 373.612 255.628 373.738C255.25 373.885 254.925 374.142 254.696 374.476C254.467 374.811 254.344 375.207 254.344 375.612C254.344 376.018 254.467 376.414 254.696 376.748C254.925 377.082 255.25 377.34 255.628 377.486C255.944 377.609 256.286 377.654 256.623 377.616C256.961 377.578 257.284 377.459 257.565 377.269C258.597 376.563 258.579 375.567 258.724 375.603C258.869 375.639 258.869 375.82 258.833 376.255C258.754 376.862 258.45 377.418 257.982 377.812C257.615 378.112 257.179 378.313 256.714 378.399C256.248 378.484 255.769 378.451 255.32 378.301C254.74 378.122 254.232 377.761 253.871 377.273C253.511 376.784 253.316 376.192 253.316 375.585C253.316 374.978 253.511 374.386 253.871 373.898C254.232 373.409 254.74 373.048 255.32 372.869C255.768 372.716 256.248 372.681 256.715 372.766C257.181 372.852 257.617 373.056 257.982 373.358C258.45 373.752 258.754 374.308 258.833 374.915C258.869 375.458 258.724 375.621 258.724 375.603Z" fill="white"/>
<path d="M256.912 361.986C256.768 361.986 256.786 361.027 255.754 360.321C255.472 360.132 255.148 360.014 254.811 359.976C254.474 359.938 254.133 359.982 253.816 360.103C253.438 360.25 253.113 360.507 252.884 360.842C252.655 361.176 252.532 361.572 252.532 361.977C252.532 362.383 252.655 362.779 252.884 363.113C253.113 363.448 253.438 363.705 253.816 363.852C254.131 363.976 254.472 364.022 254.809 363.988C255.146 363.953 255.47 363.838 255.754 363.652C256.786 362.946 256.768 361.95 256.912 361.986C257.057 362.023 257.057 362.204 257.021 362.62C256.933 363.229 256.623 363.783 256.152 364.177C255.791 364.48 255.358 364.684 254.894 364.769C254.431 364.855 253.954 364.82 253.508 364.666C252.948 364.477 252.461 364.116 252.117 363.635C251.773 363.155 251.588 362.578 251.589 361.986C251.592 361.394 251.778 360.817 252.122 360.334C252.465 359.851 252.95 359.486 253.508 359.288C253.954 359.139 254.431 359.105 254.893 359.191C255.356 359.276 255.789 359.478 256.152 359.777C256.623 360.172 256.933 360.726 257.021 361.335C257.039 361.769 256.912 361.986 256.912 361.986Z" fill="white"/>
<path d="M254.83 348.297C254.668 348.297 254.686 347.337 253.672 346.631C253.387 346.441 253.061 346.322 252.72 346.284C252.38 346.246 252.036 346.29 251.716 346.414C251.354 346.562 251.041 346.812 250.817 347.133C250.592 347.454 250.464 347.833 250.448 348.224C250.46 348.617 250.586 348.998 250.811 349.32C251.036 349.641 251.351 349.89 251.716 350.035C252.034 350.161 252.378 350.208 252.718 350.174C253.058 350.139 253.385 350.023 253.672 349.836C254.686 349.13 254.668 348.134 254.83 348.17C254.993 348.206 254.975 348.387 254.921 348.804C254.842 349.411 254.539 349.967 254.07 350.361C253.709 350.663 253.276 350.867 252.812 350.953C252.349 351.039 251.872 351.003 251.426 350.85C250.865 350.663 250.376 350.303 250.032 349.821C249.687 349.34 249.503 348.762 249.507 348.17C249.505 347.576 249.689 346.997 250.033 346.513C250.378 346.029 250.865 345.665 251.426 345.472C251.872 345.322 252.349 345.289 252.811 345.374C253.274 345.46 253.707 345.662 254.07 345.961C254.539 346.355 254.842 346.911 254.921 347.518C254.975 348.007 254.885 348.297 254.83 348.297Z" fill="white"/>
<path d="M251.173 334.39C251.028 334.39 251.046 333.43 250.014 332.724C249.731 332.537 249.407 332.421 249.07 332.386C248.733 332.352 248.392 332.399 248.077 332.525C247.697 332.667 247.37 332.922 247.139 333.255C246.908 333.589 246.784 333.984 246.784 334.39C246.784 334.795 246.908 335.191 247.139 335.525C247.37 335.858 247.697 336.113 248.077 336.255C248.392 336.381 248.733 336.428 249.07 336.394C249.407 336.359 249.731 336.243 250.014 336.056C251.046 335.35 251.028 334.354 251.173 334.39C251.318 334.426 251.318 334.607 251.282 335.024C251.21 335.633 250.905 336.191 250.431 336.581C250.069 336.888 249.632 337.095 249.165 337.18C248.698 337.266 248.217 337.228 247.769 337.07C247.209 336.88 246.722 336.52 246.378 336.039C246.034 335.558 245.849 334.981 245.85 334.39C245.853 333.797 246.039 333.22 246.383 332.737C246.726 332.255 247.21 331.889 247.769 331.692C248.219 331.541 248.7 331.509 249.166 331.598C249.632 331.687 250.068 331.894 250.431 332.199C250.905 332.588 251.21 333.147 251.282 333.756C251.318 334.173 251.246 334.39 251.173 334.39Z" fill="white"/>
<path d="M247.587 319.071C247.442 319.071 247.461 318.111 246.428 317.405C246.145 317.219 245.821 317.104 245.484 317.07C245.147 317.035 244.806 317.082 244.491 317.206C244.111 317.348 243.784 317.603 243.553 317.936C243.322 318.27 243.198 318.665 243.198 319.071C243.198 319.476 243.322 319.872 243.553 320.206C243.784 320.539 244.111 320.794 244.491 320.936C244.806 321.06 245.147 321.107 245.484 321.072C245.821 321.038 246.145 320.923 246.428 320.737C247.461 320.031 247.442 319.035 247.587 319.071C247.732 319.107 247.732 319.288 247.696 319.705C247.624 320.318 247.311 320.878 246.827 321.262C246.467 321.567 246.035 321.775 245.572 321.863C245.108 321.952 244.63 321.92 244.183 321.769C243.624 321.571 243.14 321.206 242.797 320.724C242.453 320.241 242.267 319.664 242.264 319.071C242.263 318.48 242.448 317.903 242.792 317.422C243.136 316.941 243.623 316.581 244.183 316.391C244.628 316.233 245.106 316.194 245.571 316.28C246.035 316.366 246.468 316.573 246.827 316.88C247.311 317.264 247.624 317.824 247.696 318.437C247.732 318.854 247.642 319.071 247.587 319.071Z" fill="white"/>
<path d="M242.626 308.316C242.463 308.316 242.481 307.356 241.467 306.65C241.18 306.464 240.854 306.347 240.515 306.309C240.175 306.272 239.831 306.314 239.511 306.433C239.149 306.581 238.837 306.831 238.612 307.152C238.387 307.473 238.259 307.852 238.244 308.243C238.255 308.636 238.381 309.017 238.606 309.339C238.831 309.66 239.146 309.909 239.511 310.054C239.829 310.18 240.173 310.227 240.513 310.193C240.853 310.158 241.18 310.042 241.467 309.855C242.481 309.149 242.463 308.153 242.626 308.189C242.789 308.225 242.77 308.406 242.626 308.823C242.554 309.432 242.249 309.991 241.775 310.38C241.416 310.687 240.983 310.894 240.518 310.98C240.054 311.066 239.576 311.027 239.131 310.869C238.569 310.68 238.08 310.32 237.732 309.84C237.385 309.359 237.196 308.782 237.193 308.189C237.201 307.595 237.39 307.017 237.737 306.535C238.084 306.052 238.57 305.688 239.131 305.491C239.578 305.34 240.056 305.308 240.519 305.397C240.983 305.485 241.415 305.693 241.775 305.998C242.249 306.387 242.554 306.946 242.626 307.555C242.77 308.098 242.68 308.316 242.626 308.316Z" fill="white"/>
<path d="M221.585 315.178C221.585 315.431 204.129 315.649 182.6 315.649C161.07 315.649 143.614 315.431 143.614 315.178C143.614 314.924 161.07 314.707 182.6 314.707C204.129 314.707 221.585 314.906 221.585 315.178Z" fill="#263238"/>
<path d="M180.209 311.467C180.209 311.63 178.869 311.738 177.873 313.277C177.595 313.712 177.428 314.209 177.387 314.724C177.346 315.238 177.432 315.755 177.638 316.229C177.87 316.816 178.268 317.323 178.783 317.689C179.299 318.054 179.909 318.262 180.54 318.286C181.171 318.311 181.796 318.152 182.338 317.829C182.881 317.505 183.317 317.031 183.595 316.464C183.836 316.003 183.962 315.491 183.962 314.97C183.962 314.45 183.836 313.938 183.595 313.477C183.074 312.605 182.314 311.901 181.404 311.448C181.404 311.448 181.748 311.358 182.292 311.557C183.047 311.886 183.68 312.444 184.102 313.151C184.434 313.69 184.627 314.304 184.661 314.936C184.696 315.569 184.573 316.2 184.301 316.772C183.972 317.509 183.429 318.132 182.743 318.559C182.058 318.986 181.26 319.198 180.453 319.169C179.645 319.14 178.865 318.87 178.212 318.395C177.559 317.919 177.063 317.26 176.787 316.5C176.555 315.906 176.477 315.262 176.559 314.63C176.641 313.997 176.882 313.395 177.258 312.879C177.745 312.191 178.445 311.683 179.249 311.43C179.883 311.358 180.209 311.412 180.209 311.467Z" fill="#263238"/>
<path d="M211.209 349.238C209.687 349.47 208.143 349.518 206.609 349.383C202.908 349.276 199.215 348.974 195.546 348.478C191.89 347.984 188.263 347.295 184.681 346.414C183.167 346.133 181.691 345.677 180.281 345.056C181.813 345.163 183.334 345.399 184.826 345.762C187.597 346.287 191.454 346.957 195.691 347.573C199.928 348.188 203.857 348.514 206.664 348.768C208.189 348.797 209.71 348.954 211.209 349.238Z" fill="#263238"/>
<path d="M311.524 205.791C311.524 205.791 338.685 316.246 344.118 355.322C345.928 368.486 375.462 641.818 375.462 641.818L293.073 640.478L286.156 455.782L270.004 234.872L311.524 205.791Z" fill="#39FF14"/>
<path d="M266.256 247.185L278.008 640.117L299.32 640.587L274.984 245.066L266.256 247.185Z" fill="#EBEBEB"/>
<path d="M139.305 151.106C139.305 151.106 131.645 147.286 116.888 151.106C102.13 154.927 66.1869 175.986 66.1869 175.986L65.0461 164.741H26.26C26.26 164.741 -6.07993 212.328 1.01819 238.565C1.01819 238.565 6.45042 256.419 25.0649 263.155C40.0578 268.587 62.7827 272.444 72.615 266.433C82.4474 260.421 120.129 229.457 120.129 229.457L139.305 151.106Z" fill="#263238"/>
<g opacity="0.3">
<path d="M26.2603 164.741C17.5687 180.621 5.29186 198.312 3.82515 215.859C3.22033 220.692 3.76632 225.599 5.4186 230.182C6.26292 232.463 7.65347 234.502 9.46856 236.122C11.2837 237.741 13.468 238.891 15.8304 239.471C18.0441 239.766 20.2956 239.576 22.4283 238.913C24.561 238.25 26.5236 237.13 28.1797 235.632C31.4643 232.63 34.2137 229.091 36.3099 225.166C47.4098 206.316 55.0692 185.673 62.6744 165.158L26.2603 164.741Z" fill="black"/>
</g>
<path d="M28.4329 174.048L17.8944 135.045L8.84069 114.185C8.84069 114.185 6.55915 108.898 10.072 108.481C13.5848 108.065 23.7431 123.999 23.7431 123.999C23.7431 123.999 15.3956 105.005 15.6672 100.912C15.9388 96.8202 17.8944 96.6391 20.6648 98.7758C23.4353 100.912 30.9499 114.71 30.9499 114.71C30.9499 114.71 26.7852 95.6251 28.777 93.416C30.7688 91.2069 32.7606 91.0983 34.01 93.1263C35.2595 95.1543 39.3517 112.248 39.7501 113.189C40.1485 114.131 40.8003 96.4943 43.3716 95.7338C45.9428 94.9733 48.2968 94.3033 48.5503 100.116C48.8038 105.928 51.8097 122.895 51.8097 122.895C51.8097 122.895 55.3406 109.405 58.6362 107.992C62.656 106.272 63.3622 108.246 61.9498 115.724C60.2477 124.651 60.9901 126.589 60.9901 126.589C60.9901 126.589 58.781 140.351 58.3827 150.599C58.2108 156.269 58.8201 161.936 60.1934 167.439L28.4329 174.048Z" fill="#263238"/>
<path d="M52.5336 129.052C52.5336 129.178 51.3747 129.052 49.5821 129.142C47.2434 129.319 44.9969 130.128 43.0831 131.484C41.1692 132.84 39.6602 134.69 38.7176 136.838C37.9933 138.486 37.7941 139.626 37.6673 139.59C37.5733 138.573 37.7481 137.549 38.1744 136.621C39.0134 134.278 40.5493 132.249 42.5757 130.805C44.602 129.362 47.0217 128.573 49.5096 128.545C50.5446 128.445 51.5876 128.62 52.5336 129.052Z" fill="#455A64"/>
<path d="M34.4258 139.627C34.2628 139.808 32.434 138.341 29.9171 137.001C27.4001 135.661 25.1367 134.901 25.2272 134.629C27.0361 134.69 28.7945 135.241 30.3154 136.222C31.9747 136.954 33.3979 138.133 34.4258 139.627Z" fill="#455A64"/>
<path d="M28.4326 174.049L36.7802 224.315C36.7802 224.315 42.9005 213.179 48.2241 201.681C52.4069 192.627 55.974 182.94 56.6078 181.256C58.0926 177.381 60.845 169.703 60.845 169.703L60.2293 167.403L28.4326 174.049Z" fill="#263238"/>
<path d="M67.1824 238.439C67.1143 237.613 67.1143 236.784 67.1824 235.958C67.3091 234.147 67.4902 231.956 67.6894 229.277C68.0877 223.627 68.5042 215.805 68.4137 207.167C68.3375 199.797 67.8842 192.436 67.0556 185.112C66.7478 182.288 66.4581 180.024 66.2408 178.449C66.0939 177.636 66.0212 176.812 66.0235 175.986C66.3043 176.765 66.4986 177.573 66.6029 178.395C66.9289 179.934 67.3272 182.215 67.7256 185.022C68.7452 192.361 69.2895 199.758 69.3553 207.167C69.4208 214.568 69.0884 221.966 68.3594 229.331C68.0696 232.156 67.7799 234.437 67.5445 236.013C67.5143 236.832 67.3928 237.646 67.1824 238.439Z" fill="#455A64"/>
<path d="M80.6009 226.162C80.456 226.162 80.1301 223.337 79.3515 218.774C77.393 206.93 73.9748 195.374 69.1751 184.37C67.3643 180.133 66.0968 177.562 66.2236 177.489C66.6562 178.044 67.0153 178.653 67.2919 179.3C67.9438 180.423 68.7948 182.089 69.7907 184.189C74.954 195.144 78.4044 206.826 80.0214 218.829C80.3293 221.128 80.5103 222.993 80.5828 224.261C80.6645 224.892 80.6706 225.53 80.6009 226.162Z" fill="#455A64"/>
<path d="M74.3528 171.296C74.3528 171.296 115.167 145.946 148.014 142.161L185.152 192.373C185.152 192.373 142.636 230.037 121.776 229.584C100.916 229.131 69.5906 190.2 74.3528 171.296Z" fill="white"/>
<path d="M74.3532 171.296C74.3454 171.558 74.3151 171.819 74.2627 172.075C74.1213 172.81 74.0426 173.555 74.0273 174.302C73.9434 177.181 74.3224 180.054 75.1499 182.813C77.1418 190.056 82.23 199.924 91.1388 209.974C95.916 215.519 101.487 220.327 107.671 224.243C111.077 226.424 114.85 227.97 118.807 228.806C120.873 229.177 122.988 229.177 125.054 228.806C127.205 228.488 129.321 227.967 131.374 227.249C140.042 223.933 148.265 219.553 155.855 214.211C164.128 208.62 172.111 202.613 179.775 196.212C181.495 194.782 183.197 193.351 184.827 191.903V192.537L147.67 142.415L148.069 142.578C137.354 144.097 126.853 146.862 116.779 150.817C107.725 154.239 100.03 157.825 93.7644 160.921C87.4992 164.017 82.6645 166.661 79.3871 168.49L75.657 170.59L74.6973 171.134C74.48 171.26 74.3532 171.315 74.3532 171.296L74.6429 171.079L75.5845 170.482C76.3994 169.975 77.6307 169.214 79.206 168.254C82.4472 166.444 87.2457 163.655 93.4928 160.468C99.7399 157.281 107.399 153.678 116.471 150.165C126.584 146.138 137.134 143.312 147.906 141.745H148.268L148.413 141.926L185.605 192.102L185.859 192.464L185.533 192.736C183.867 194.202 182.165 195.633 180.445 197.063C172.763 203.507 164.755 209.551 156.452 215.171C148.781 220.541 140.472 224.939 131.718 228.263C129.618 228.997 127.454 229.531 125.253 229.856C123.09 230.195 120.883 230.152 118.735 229.729C114.674 228.866 110.808 227.264 107.327 225.003C101.1 221.023 95.4986 216.141 90.7042 210.517C81.8135 200.323 76.7615 190.309 74.8602 182.994C74.0684 180.193 73.7441 177.281 73.9005 174.375C73.9412 173.617 74.0564 172.865 74.2446 172.129C74.2588 171.849 74.2951 171.571 74.3532 171.296Z" fill="#263238"/>
<path d="M96.1543 172.799C95.2466 172.36 94.2473 172.143 93.239 172.166C91.9721 172.286 90.7414 172.655 89.6175 173.252C88.6578 173.651 87.6257 174.302 87.499 175.353C87.4872 175.757 87.5897 176.157 87.7947 176.506C87.9996 176.855 88.2988 177.139 88.6578 177.326C89.3867 177.69 90.1992 177.852 91.0118 177.797C92.6485 177.777 94.2635 177.419 95.7559 176.747C96.4137 176.512 96.9659 176.049 97.3132 175.443C97.4654 174.937 97.4323 174.393 97.22 173.908C97.0077 173.424 96.6299 173.031 96.1543 172.799Z" fill="#263238"/>
<path d="M159.549 200.83C158.941 200.531 158.27 200.382 157.593 200.395C156.732 200.481 155.895 200.733 155.13 201.138C154.478 201.391 153.79 201.844 153.7 202.532C153.692 202.806 153.76 203.076 153.898 203.313C154.035 203.55 154.237 203.744 154.478 203.872C154.97 204.102 155.511 204.208 156.054 204.18C157.153 204.165 158.238 203.925 159.241 203.474C159.682 203.316 160.054 203.009 160.291 202.604C160.391 202.268 160.371 201.908 160.236 201.585C160.101 201.262 159.858 200.995 159.549 200.83Z" fill="#263238"/>
<path d="M121.686 176.421C121.079 176.12 120.408 175.971 119.731 175.986C118.871 176.066 118.034 176.312 117.268 176.711C116.616 176.982 115.928 177.435 115.856 178.123C115.844 178.395 115.912 178.665 116.05 178.899C116.188 179.134 116.391 179.323 116.634 179.445C117.122 179.689 117.665 179.801 118.21 179.771C119.303 179.754 120.382 179.514 121.378 179.065C121.822 178.912 122.195 178.603 122.429 178.196C122.54 177.86 122.525 177.496 122.389 177.17C122.253 176.844 122.003 176.578 121.686 176.421Z" fill="#263238"/>
<path d="M112.452 195.253C111.883 194.862 111.205 194.659 110.514 194.674C109.619 194.788 108.766 195.124 108.034 195.651C107.667 195.813 107.346 196.063 107.1 196.379C106.853 196.695 106.689 197.067 106.621 197.462C106.591 197.805 106.647 198.15 106.783 198.465C106.919 198.781 107.131 199.059 107.4 199.273C107.859 199.593 108.417 199.741 108.975 199.689C110.102 199.677 111.203 199.358 112.162 198.766C112.637 198.52 113.004 198.107 113.194 197.607C113.312 197.185 113.304 196.738 113.172 196.32C113.04 195.902 112.79 195.531 112.452 195.253Z" fill="#263238"/>
<path d="M141.586 178.431C140.959 178 140.21 177.784 139.45 177.816C138.477 177.935 137.549 178.296 136.752 178.866C136.342 179.047 135.985 179.33 135.716 179.688C135.446 180.047 135.273 180.468 135.212 180.912C135.185 181.275 135.247 181.64 135.392 181.975C135.537 182.309 135.761 182.603 136.045 182.831C136.575 183.195 137.216 183.361 137.856 183.302C139.085 183.267 140.284 182.912 141.333 182.27C141.852 181.997 142.256 181.547 142.474 181.002C142.587 180.534 142.564 180.042 142.407 179.587C142.25 179.131 141.965 178.73 141.586 178.431Z" fill="#263238"/>
<path d="M139.468 198.095C138.89 198.069 138.324 198.27 137.893 198.656C137.44 199.261 137.176 199.985 137.132 200.739C137.035 201.128 137.029 201.535 137.114 201.927C137.199 202.32 137.372 202.687 137.621 203.002C138.067 203.567 138.718 203.931 139.432 204.016C139.662 204.029 139.892 203.991 140.105 203.903C140.319 203.815 140.509 203.681 140.663 203.509C141.332 202.862 141.76 202.006 141.877 201.083C141.984 200.578 141.907 200.051 141.659 199.598C141.434 199.196 141.119 198.852 140.739 198.591C140.359 198.331 139.924 198.161 139.468 198.095Z" fill="#263238"/>
<path d="M121.198 212.889C121.023 212.88 120.848 212.906 120.683 212.965C120.518 213.024 120.367 213.115 120.238 213.234C119.962 213.6 119.804 214.042 119.785 214.501C119.728 214.735 119.724 214.978 119.774 215.213C119.824 215.448 119.927 215.669 120.075 215.859C120.331 216.194 120.708 216.415 121.125 216.475C121.264 216.481 121.402 216.457 121.531 216.404C121.659 216.351 121.774 216.27 121.868 216.167C122.285 215.784 122.548 215.263 122.61 214.7C122.671 214.393 122.626 214.074 122.483 213.795C122.351 213.557 122.166 213.352 121.944 213.195C121.721 213.039 121.466 212.934 121.198 212.889Z" fill="#263238"/>
<path d="M122.356 159.562C122.506 160.262 122.874 160.896 123.406 161.373C124.144 161.888 124.995 162.218 125.887 162.333C126.274 162.464 126.688 162.495 127.091 162.422C127.493 162.349 127.87 162.175 128.187 161.916C128.426 161.686 128.608 161.401 128.715 161.086C128.822 160.771 128.852 160.435 128.802 160.106C128.673 159.563 128.367 159.079 127.933 158.729C127.089 157.988 126.065 157.482 124.964 157.263C124.444 157.123 123.891 157.174 123.406 157.408C123.051 157.637 122.766 157.959 122.581 158.339C122.396 158.718 122.318 159.142 122.356 159.562Z" fill="#263238"/>
<path d="M213.763 198.729C217.783 210.227 221.839 221.816 228.049 232.3C234.26 242.784 242.807 252.218 253.798 257.469C283.712 241.173 298.379 232.861 323.095 209.449C312.72 190.671 300.135 159.055 280.978 149.404C261.82 139.753 249.326 140.35 228.068 143.085L213.763 198.729Z" fill="white"/>
<path d="M213.763 198.729C213.763 198.729 213.763 198.403 213.962 197.752C214.161 197.1 214.36 196.104 214.668 194.854C215.302 192.283 216.226 188.553 217.421 183.773C219.865 174.085 223.378 160.233 227.724 142.995V142.777H227.959C235.998 141.478 244.134 140.872 252.277 140.967C256.786 141.145 261.261 141.82 265.623 142.976C270.211 144.224 274.673 145.897 278.95 147.974C283.506 150.041 287.652 152.911 291.19 156.448C294.816 160.135 298.096 164.148 300.987 168.436C306.886 177.47 312.196 186.875 316.885 196.593C319.058 200.866 321.194 205.103 323.458 209.268L323.621 209.594L323.367 209.829C317.645 215.261 311.905 220.404 306.039 225.148C300.347 229.765 294.418 234.08 288.275 238.077C276.324 245.827 264.536 252.056 253.871 257.85L253.708 257.959L253.527 257.868C244.489 253.255 236.789 246.396 231.164 237.95C226.836 231.573 223.228 224.734 220.408 217.561C217.982 211.658 216.37 206.95 215.266 203.727L214.035 200.106C213.763 199.254 213.654 198.838 213.654 198.838C213.654 198.838 213.853 199.254 214.161 200.069C214.469 200.884 214.922 202.134 215.483 203.691C216.66 206.878 218.344 211.568 220.807 217.434C223.701 224.537 227.343 231.311 231.671 237.642C237.27 245.956 244.907 252.695 253.853 257.216H253.509C264.102 251.368 275.853 245.121 287.732 237.298C300.227 229.014 311.92 219.581 322.661 209.123L322.571 209.684C320.307 205.556 318.171 201.319 315.998 197.009C311.378 187.367 306.159 178.023 300.371 169.033C297.52 164.79 294.283 160.82 290.701 157.173C287.215 153.67 283.131 150.818 278.642 148.753C274.414 146.702 270.008 145.041 265.478 143.791C261.181 142.648 256.774 141.968 252.332 141.763C244.23 141.644 236.132 142.202 228.122 143.429L228.43 143.176C223.957 160.269 220.336 174.139 217.819 183.791C216.551 188.553 215.574 192.283 214.886 194.854C214.542 196.086 214.27 197.045 214.089 197.733C213.908 198.422 213.763 198.729 213.763 198.729Z" fill="#263238"/>
<path d="M295.554 181.002C296.554 180.886 297.568 181.016 298.506 181.383C299.673 181.924 300.72 182.693 301.584 183.646C302.012 183.947 302.356 184.354 302.581 184.826C302.806 185.299 302.906 185.822 302.87 186.344C302.738 186.735 302.498 187.081 302.178 187.341C301.857 187.6 301.469 187.763 301.059 187.811C300.25 187.899 299.432 187.775 298.687 187.449C297.15 186.884 295.749 186.002 294.577 184.859C294.021 184.406 293.659 183.759 293.562 183.048C293.602 182.528 293.823 182.038 294.187 181.664C294.551 181.29 295.035 181.056 295.554 181.002Z" fill="#263238"/>
<path d="M234.297 212.129C234.905 211.83 235.575 211.681 236.253 211.694C237.149 211.785 238.017 212.056 238.806 212.491C239.458 212.744 240.146 213.197 240.218 213.885C240.236 214.156 240.173 214.426 240.038 214.661C239.902 214.896 239.701 215.086 239.458 215.207C238.963 215.449 238.414 215.562 237.864 215.533C236.771 215.517 235.692 215.276 234.695 214.827C234.254 214.67 233.882 214.362 233.645 213.958C233.52 213.625 233.517 213.259 233.636 212.924C233.755 212.589 233.99 212.307 234.297 212.129Z" fill="#263238"/>
<path d="M288.872 222.74C289.473 222.441 290.138 222.292 290.81 222.306C291.678 222.385 292.521 222.638 293.29 223.048C293.924 223.301 294.63 223.754 294.703 224.442C294.714 224.714 294.647 224.984 294.508 225.218C294.37 225.453 294.167 225.642 293.924 225.764C293.436 226.008 292.893 226.12 292.349 226.09C291.249 226.075 290.164 225.835 289.162 225.384C288.726 225.224 288.361 224.917 288.13 224.515C288.019 224.179 288.033 223.815 288.169 223.489C288.306 223.163 288.555 222.897 288.872 222.74Z" fill="#263238"/>
<path d="M275.401 186.398C276.008 186.099 276.679 185.95 277.356 185.964C278.216 186.043 279.053 186.289 279.819 186.688C280.471 186.96 281.159 187.394 281.231 188.1C281.247 188.373 281.182 188.644 281.043 188.88C280.905 189.115 280.699 189.304 280.453 189.422C279.965 189.666 279.422 189.779 278.877 189.748C277.784 189.732 276.705 189.491 275.709 189.042C275.266 188.878 274.894 188.564 274.658 188.155C274.56 187.821 274.58 187.464 274.715 187.144C274.851 186.823 275.093 186.56 275.401 186.398Z" fill="#263238"/>
<path d="M250.213 236.774C251.033 236.365 251.941 236.166 252.857 236.194C254.021 236.294 255.154 236.626 256.188 237.172C257.076 237.534 257.999 238.132 258.108 239.073C258.122 239.443 258.031 239.81 257.845 240.131C257.659 240.451 257.386 240.713 257.057 240.884C256.395 241.211 255.659 241.361 254.921 241.318C253.439 241.3 251.978 240.973 250.629 240.359C250.028 240.157 249.524 239.737 249.217 239.182C249.07 238.728 249.089 238.236 249.272 237.794C249.454 237.353 249.788 236.991 250.213 236.774Z" fill="#263238"/>
<path d="M286.554 204.035C287.131 203.648 287.815 203.452 288.51 203.473C289.397 203.586 290.243 203.915 290.972 204.433C291.341 204.595 291.663 204.845 291.913 205.16C292.162 205.476 292.33 205.848 292.403 206.244C292.429 206.586 292.373 206.93 292.237 207.245C292.101 207.561 291.891 207.838 291.624 208.054C291.158 208.359 290.605 208.505 290.049 208.471C288.922 208.444 287.823 208.119 286.862 207.529C286.386 207.279 286.014 206.868 285.812 206.37C285.707 205.951 285.721 205.51 285.852 205.097C285.983 204.685 286.226 204.317 286.554 204.035Z" fill="#263238"/>
<path d="M252.259 189.73C252.886 189.299 253.635 189.083 254.395 189.114C255.368 189.234 256.296 189.595 257.093 190.165C257.503 190.346 257.86 190.629 258.129 190.987C258.399 191.345 258.572 191.767 258.633 192.211C258.661 192.576 258.598 192.943 258.45 193.278C258.301 193.613 258.072 193.906 257.782 194.13C257.279 194.479 256.672 194.645 256.061 194.601C254.832 194.569 253.633 194.213 252.585 193.569C252.062 193.301 251.655 192.85 251.444 192.301C251.317 191.84 251.327 191.351 251.471 190.895C251.616 190.439 251.889 190.034 252.259 189.73Z" fill="#263238"/>
<path d="M258.723 209.919C259.304 209.9 259.869 210.107 260.299 210.499C260.752 211.103 261.016 211.827 261.059 212.581C261.156 212.968 261.162 213.371 261.078 213.761C260.993 214.15 260.819 214.515 260.57 214.826C260.353 215.109 260.08 215.344 259.769 215.518C259.457 215.693 259.114 215.802 258.76 215.84C258.531 215.852 258.303 215.814 258.091 215.73C257.878 215.646 257.686 215.517 257.528 215.351C256.867 214.699 256.44 213.846 256.315 212.925C256.206 212.42 256.283 211.893 256.532 211.44C256.758 211.037 257.073 210.69 257.452 210.427C257.832 210.163 258.267 209.99 258.723 209.919Z" fill="#263238"/>
<path d="M273.209 220.621C273.381 220.612 273.553 220.638 273.715 220.697C273.877 220.756 274.025 220.847 274.151 220.965C274.495 221.291 274.495 221.689 274.622 222.214C274.675 222.452 274.676 222.699 274.622 222.937C274.569 223.175 274.464 223.398 274.314 223.59C274.06 223.916 273.69 224.13 273.282 224.188C273.141 224.2 273 224.18 272.869 224.129C272.737 224.079 272.618 224 272.521 223.898C272.12 223.506 271.864 222.989 271.797 222.432C271.727 222.124 271.772 221.802 271.924 221.526C272.056 221.288 272.24 221.083 272.463 220.927C272.686 220.77 272.941 220.665 273.209 220.621Z" fill="#263238"/>
<path d="M310.276 203.854C310.627 203.845 310.969 203.968 311.235 204.198C311.508 204.566 311.666 205.008 311.688 205.466C311.747 205.699 311.751 205.943 311.701 206.178C311.651 206.414 311.547 206.634 311.398 206.824C311.274 206.992 311.117 207.134 310.937 207.24C310.756 207.346 310.556 207.413 310.348 207.439C310.208 207.451 310.066 207.431 309.935 207.381C309.803 207.331 309.685 207.252 309.588 207.15C309.19 206.755 308.935 206.239 308.863 205.683C308.801 205.375 308.846 205.056 308.99 204.777C309.12 204.536 309.304 204.328 309.527 204.168C309.749 204.008 310.005 203.9 310.276 203.854Z" fill="#263238"/>
<path d="M276.831 164.362C276.673 165.058 276.306 165.69 275.78 166.172C275.046 166.693 274.193 167.023 273.3 167.132C272.914 167.266 272.501 167.3 272.098 167.23C271.696 167.16 271.318 166.99 271 166.734C270.762 166.501 270.581 166.217 270.471 165.903C270.361 165.589 270.325 165.253 270.366 164.923C270.495 164.376 270.808 163.89 271.254 163.547C272.097 162.806 273.122 162.3 274.223 162.08C274.742 161.932 275.298 161.983 275.78 162.225C276.134 162.451 276.418 162.77 276.604 163.147C276.789 163.524 276.867 163.944 276.831 164.362Z" fill="#263238"/>
<path d="M268.158 140.314C266.003 130.862 256.533 124.452 254.251 114.964C251.752 104.733 258.361 93.4342 254.251 83.7286C252.151 78.7129 247.533 75.1819 244.817 70.4559C242.101 65.7298 241.485 60.1527 239.602 55.0464C236.651 47.1394 230.786 40.6612 223.21 36.9407C215.634 33.2202 206.922 32.5393 198.86 35.0377L231.997 135.371C239.909 154.089 242.084 174.735 238.244 194.691C245.554 191.402 251.746 186.054 256.062 179.3C260.335 172.566 263.667 165.28 265.967 157.643C267.868 152.048 269.479 146.054 268.158 140.314Z" fill="#EBEBEB"/>
<path d="M172.406 121.049L169.454 44.8887C160.401 50.1579 156.326 61.0224 154.751 71.3437C153.176 81.6649 153.411 92.3483 150.079 102.235C147.399 110.184 142.547 117.192 138.961 124.761C135.376 132.33 133.076 141.057 135.829 149.043C137.187 152.9 139.668 156.286 140.609 160.306C141.46 163.927 140.989 167.549 141.243 171.279C141.609 175.698 143.026 179.966 145.376 183.726C147.726 187.487 150.94 190.632 154.751 192.899C158.01 194.71 163.424 193.189 167.191 193.822C167.667 193.902 168.155 193.886 168.624 193.774C169.094 193.663 169.537 193.459 169.927 193.173C170.317 192.888 170.645 192.528 170.894 192.114C171.142 191.7 171.305 191.24 171.374 190.762C174.633 166.48 173.347 146.218 172.406 121.049Z" fill="#EBEBEB"/>
<path d="M199.621 34.748H197.81C188.691 35.1684 180.067 39.0172 173.665 45.524C167.262 52.0308 163.553 60.7157 163.279 69.8403C162.7 87.4226 162.302 106.87 162.881 116.25C164.058 135.697 183.668 137.798 183.668 137.798C183.668 137.798 182.292 152.772 182.021 158.603L227.941 150.219L230.331 72.6107C231.092 52.3123 219.938 35.0378 199.621 34.748Z" fill="#263238"/>
<path d="M183.614 137.888C192.597 137.435 201.262 134.419 208.584 129.196C208.584 129.196 202.953 141.473 183.451 140.658L183.614 137.888Z" fill="#263238"/>
<path d="M167.86 79.2562C168.222 79.6003 170.25 77.9344 173.292 77.8076C176.334 77.6809 178.543 79.0571 178.851 78.6768C179.159 78.2966 178.634 77.8619 177.638 77.2101C176.303 76.37 174.739 75.971 173.165 76.0693C171.604 76.1316 170.105 76.6969 168.892 77.6809C167.968 78.4957 167.679 79.0933 167.86 79.2562Z" fill="#263238"/>
<path d="M197.285 78.3874C197.647 78.7314 199.675 77.0655 202.717 76.9388C205.759 76.812 207.968 78.1882 208.276 77.8079C208.584 77.4276 208.059 76.9931 207.063 76.3593C205.727 75.5208 204.165 75.116 202.59 75.2004C201.032 75.2765 199.537 75.8402 198.317 76.812C197.393 77.5544 197.158 78.2244 197.285 78.3874Z" fill="#263238"/>
<path d="M187.507 101.094C185.907 100.663 184.257 100.443 182.599 100.442C181.839 100.442 181.097 100.279 180.952 99.7722C180.844 98.9888 180.983 98.1913 181.35 97.4907L183.324 91.5696C186.058 83.1315 187.995 76.2144 187.67 76.1058C187.344 75.9971 184.827 82.7512 182.092 91.1712C181.441 93.2536 180.807 95.2273 180.282 97.1285C179.847 98.0762 179.758 99.1458 180.028 100.153C180.154 100.417 180.338 100.649 180.567 100.831C180.797 101.013 181.064 101.14 181.35 101.203C181.778 101.297 182.216 101.334 182.654 101.311C184.274 101.431 185.903 101.358 187.507 101.094Z" fill="#263238"/>
<path d="M197.394 69.7683C197.864 70.8186 200.526 69.7683 203.858 69.7683C207.19 69.7683 210.033 70.547 210.286 69.4786C210.395 68.9716 209.743 68.03 208.475 67.179C206.986 66.1539 205.213 65.6219 203.405 65.658C201.661 65.6898 199.983 66.3303 198.661 67.4687C197.629 68.3017 197.158 69.2794 197.394 69.7683Z" fill="#F5F5F5"/>
<path d="M167.914 72.6473C168.566 73.5889 170.938 72.4663 173.835 72.2671C176.733 72.0679 179.268 72.6655 179.738 71.6333C179.956 71.1263 179.521 70.1847 178.417 69.3156C176.999 68.2839 175.256 67.8014 173.51 67.9575C171.755 68.1077 170.112 68.8781 168.874 70.1304C167.896 71.2531 167.606 72.1947 167.914 72.6473Z" fill="#F5F5F5"/>
<path d="M229.443 87.0792C229.769 86.9343 242.626 82.4798 242.843 95.8069C243.06 109.134 229.624 106.671 229.606 106.219C229.588 105.766 229.443 87.0792 229.443 87.0792Z" fill="#263238"/>
<path d="M233.59 101.112C233.59 101.112 233.826 101.275 234.224 101.438C234.51 101.563 234.818 101.627 235.129 101.627C235.441 101.627 235.749 101.563 236.035 101.438C236.882 100.874 237.566 100.097 238.017 99.1843C238.469 98.272 238.672 97.2569 238.606 96.2412C238.609 95.0989 238.368 93.9692 237.9 92.9275C237.773 92.4986 237.541 92.1082 237.225 91.7919C236.908 91.4756 236.518 91.2435 236.089 91.1168C235.822 91.0495 235.54 91.0779 235.292 91.197C235.044 91.3161 234.845 91.5184 234.731 91.7686C234.55 92.1489 234.731 92.4205 234.568 92.4386C234.405 92.4567 234.278 92.2213 234.387 91.66C234.45 91.3304 234.63 91.0346 234.894 90.827C235.07 90.6836 235.272 90.5775 235.49 90.5153C235.708 90.453 235.937 90.4359 236.162 90.4649C236.712 90.5619 237.228 90.7996 237.66 91.155C238.091 91.5103 238.423 91.9712 238.624 92.4929C239.199 93.6135 239.497 94.8552 239.493 96.1144C239.493 98.8124 238.117 101.329 236.198 101.927C235.843 102.034 235.468 102.061 235.101 102.005C234.735 101.948 234.385 101.81 234.079 101.601C233.626 101.438 233.536 101.13 233.59 101.112Z" fill="#263238"/>
<path d="M162.102 51.7876C160.853 69.0983 174.433 69.044 183.595 59.2297C187.833 54.6847 191.508 49.0352 197.357 46.9348C199.355 46.2958 201.46 46.0612 203.549 46.2446C205.638 46.428 207.67 47.0258 209.525 48.0031H209.634C215.175 50.7554 218.525 57.0568 219.484 63.1771C220.806 71.6876 219.484 79.2565 221.929 87.0609C222.141 88.2167 222.734 89.2684 223.613 90.0486C225.261 91.1894 227.56 90.0486 228.864 88.6181C230.774 86.0442 231.883 82.9642 232.051 79.7636C233.1 72.5693 232.706 65.238 230.892 58.1976C229.04 51.1375 225.163 44.7737 219.738 39.8909C212.715 34.0002 203.676 31.0717 194.532 31.7245C185.425 32.446 176.776 36.0194 169.816 41.9371C166.469 44.5093 163.818 47.8766 162.102 51.7332" fill="#EBEBEB"/>
<path d="M242.282 160.07C241.622 150.522 240.279 141.034 238.262 131.678C239.095 129.034 239.168 126.246 237.284 124.616C233.971 121.737 239.095 113.751 235.474 110.963C231.852 108.174 231.852 101.529 231.852 101.529H231.544L231.2 83.186C231.2 83.186 227.144 81.7374 225.333 87.568C224.881 89.0166 222.31 101.438 221.857 103.647H221.513C220.422 102.662 219.034 102.068 217.568 101.96C216.102 101.852 214.642 102.235 213.419 103.05C210.39 101.632 207.178 100.645 203.876 100.116C199.825 99.3545 195.659 99.4439 191.643 100.379C187.628 101.314 183.852 103.075 180.554 105.549C178.944 106.781 177.501 108.218 176.262 109.822C176.262 109.822 168.548 111.633 166.231 108.754C163.913 105.875 162.464 103.684 162.464 103.684C161.927 105.849 161.768 108.091 161.994 110.311C160.509 112.81 157.123 119.365 158.372 123.529L158.481 123.946L157.575 124.109C158.192 124.709 158.668 125.439 158.97 126.246C159.35 128.457 159.35 130.716 158.97 132.927C158.722 133.85 158.42 134.757 158.064 135.643C157.901 136.005 157.738 136.368 157.593 136.748C157.213 137.332 156.949 137.983 156.815 138.667C155.437 141.332 155.058 144.402 155.747 147.323C156.815 150.564 159.984 152.755 161.179 155.942C162.374 159.129 161.179 163.185 160.581 166.806C159.604 172.893 160.385 179.133 162.833 184.791C165.28 190.45 169.292 195.292 174.397 198.748L170.776 199.363C173.002 203.754 176.538 207.344 180.896 209.634C185.253 211.925 190.215 212.803 195.094 212.147C194.827 214.096 194.159 215.969 193.13 217.646C192.101 219.323 190.735 220.768 189.119 221.889C191.629 222.446 194.227 222.479 196.75 221.987C199.274 221.495 201.669 220.487 203.786 219.028C203.841 220.364 203.496 221.685 202.796 222.824C202.096 223.962 201.073 224.866 199.856 225.42C205.875 224.291 211.483 221.576 216.101 217.556C220.72 213.536 224.182 208.356 226.13 202.55C227.941 196.792 228.285 190.364 231.78 185.421C234.043 182.216 237.465 179.988 239.602 176.657C242.717 171.876 242.68 165.756 242.282 160.07Z" fill="#EBEBEB"/>
<path d="M172.966 138.721C172.966 138.812 172.061 138.45 170.92 137.508C169.434 136.253 168.231 134.698 167.389 132.945C166.539 131.197 166.058 129.292 165.977 127.35C165.977 125.865 166.176 124.96 166.303 124.978C166.454 127.594 167.121 130.155 168.265 132.514C169.408 134.872 171.006 136.982 172.966 138.721Z" fill="#E0E0E0"/>
<path d="M178.218 145.15C174.844 142.458 172.644 138.564 172.079 134.285C172.351 134.285 173.238 136.875 174.94 139.862C176.642 142.85 178.435 144.969 178.218 145.15Z" fill="#E0E0E0"/>
<path d="M214.379 133.071C214.774 133.797 214.956 134.619 214.904 135.443C214.95 137.427 214.509 139.392 213.618 141.165C212.742 142.943 211.45 144.484 209.852 145.656C208.602 146.507 207.697 146.779 207.643 146.67C209.724 145.051 211.46 143.031 212.749 140.731C213.794 138.311 214.348 135.707 214.379 133.071Z" fill="#E0E0E0"/>
<path d="M220.481 131.604C220.589 131.604 220.915 132.329 221.042 133.651C221.156 135.375 220.877 137.102 220.227 138.703C219.597 140.317 218.599 141.762 217.312 142.922C216.316 143.809 215.501 144.135 215.501 144.026C217.051 142.335 218.345 140.426 219.34 138.359C220.045 136.174 220.43 133.899 220.481 131.604Z" fill="#E0E0E0"/>
<path d="M227.687 125.321C228.373 126.755 228.521 128.387 228.104 129.921C228.013 131.496 227.372 132.989 226.293 134.14C226.489 132.66 226.785 131.196 227.18 129.758C227.257 128.27 227.426 126.788 227.687 125.321Z" fill="#E0E0E0"/>
<path d="M208.874 110.165C206.989 110.187 205.142 109.639 203.574 108.592C202.007 107.545 200.793 106.048 200.092 104.299C200.345 104.154 201.685 106.109 204.112 107.793C206.538 109.477 208.91 109.876 208.874 110.165Z" fill="#E0E0E0"/>
<path d="M213.202 110.075C212.482 110.195 211.744 110.147 211.047 109.933C210.349 109.72 209.711 109.347 209.182 108.844C207.226 107.377 206.665 105.367 206.918 105.313C207.172 105.259 208.041 106.78 209.761 108.065C211.482 109.351 213.238 109.785 213.202 110.075Z" fill="#E0E0E0"/>
<path d="M193.79 166.95C192.9 167.406 191.911 167.636 190.911 167.62C188.508 167.75 186.106 167.336 183.885 166.407C181.655 165.482 179.666 164.057 178.073 162.242C177.356 161.55 176.821 160.692 176.516 159.744C176.66 159.653 177.312 160.558 178.58 161.772C180.221 163.356 182.143 164.62 184.247 165.502C186.356 166.382 188.609 166.866 190.893 166.932C191.858 166.864 192.826 166.87 193.79 166.95Z" fill="#E0E0E0"/>
<path d="M205.034 165.828C204.283 166.22 203.432 166.378 202.59 166.281C200.548 166.241 198.561 165.613 196.868 164.47C195.165 163.357 193.825 161.771 193.011 159.907C192.395 158.476 192.359 157.517 192.468 157.481C192.576 157.444 192.884 158.332 193.608 159.599C194.553 161.227 195.853 162.619 197.411 163.673C198.993 164.672 200.784 165.291 202.644 165.484C203.449 165.537 204.248 165.652 205.034 165.828Z" fill="#E0E0E0"/>
<path d="M195.674 60.5878C193.861 62.2189 191.727 63.4525 189.409 64.2093C187.779 64.8271 186.046 65.1282 184.302 65.0966C182.963 65.0966 182.166 64.7525 182.184 64.6258C184.53 64.4636 186.847 64.0136 189.083 63.2858C192.704 61.9278 195.511 60.3886 195.674 60.5878Z" fill="#263238"/>
<path d="M198.498 58.5778C196.581 59.1582 194.618 59.5762 192.631 59.8272C190.705 60.3907 188.737 60.8024 186.746 61.0585C188.437 59.8805 190.388 59.1289 192.432 58.8675C194.404 58.3014 196.481 58.2023 198.498 58.5778Z" fill="#263238"/>
<path d="M231.562 101.582L231.87 101.492C231.946 102.464 232.073 103.431 232.25 104.389C232.589 106.522 233.496 108.523 234.876 110.184C235.461 110.636 235.969 111.18 236.379 111.795C236.76 112.527 236.952 113.342 236.94 114.167C236.868 115.958 236.681 117.742 236.379 119.509C236.18 121.32 236.035 123.547 237.9 124.941C238.626 125.871 239.016 127.02 239.004 128.2C239.027 129.429 238.843 130.654 238.461 131.822V131.677C240.067 138.848 241.276 146.102 242.083 153.406C242.593 157.648 242.846 161.917 242.843 166.19C242.809 168.49 242.462 170.774 241.811 172.98C241.072 175.285 239.835 177.399 238.19 179.173C236.578 180.984 234.731 182.559 233.156 184.406C231.617 186.282 230.46 188.441 229.751 190.762C228.122 195.488 227.723 200.811 225.496 205.809C223.223 210.984 219.729 215.53 215.314 219.059C210.899 222.588 205.694 224.994 200.146 226.071L195.945 226.85L199.874 225.184C200.997 224.663 201.94 223.82 202.585 222.763C203.23 221.706 203.546 220.482 203.496 219.245L204.238 219.607C202.069 221.109 199.612 222.146 197.022 222.651C194.432 223.156 191.765 223.118 189.191 222.54L188.141 222.305L189.028 221.689C190.589 220.608 191.909 219.215 192.903 217.597C193.897 215.979 194.545 214.173 194.804 212.291L195.329 212.817C190.357 213.475 185.302 212.572 180.865 210.233C176.427 207.895 172.826 204.235 170.558 199.761L170.305 199.236L170.884 199.127L174.506 198.512L174.343 199.308C169.145 195.779 165.069 190.831 162.601 185.054C160.132 179.276 159.375 172.911 160.418 166.715C161.121 164.105 161.486 161.415 161.505 158.711C161.185 156.205 160.046 153.875 158.263 152.084C157.456 151.132 156.746 150.101 156.145 149.006C155.578 147.911 155.257 146.706 155.203 145.475C155.247 143.192 155.758 140.943 156.706 138.866C156.862 138.117 157.157 137.405 157.575 136.765C158.209 135.371 158.535 134.14 158.951 132.981C159.306 130.798 159.306 128.572 158.951 126.39C158.659 125.618 158.202 124.92 157.611 124.344L157.267 124H157.72L158.644 123.855L158.462 124.144C158.032 122.666 157.976 121.104 158.299 119.599C158.541 118.312 158.905 117.051 159.386 115.833C160.132 113.95 161.035 112.133 162.084 110.401C161.905 108.709 161.979 107.001 162.301 105.331C162.388 104.797 162.515 104.27 162.682 103.755C162.682 103.755 162.682 103.882 162.682 104.154C162.682 104.425 162.573 104.842 162.482 105.349C162.218 107.008 162.187 108.697 162.392 110.365C161.389 112.103 160.53 113.92 159.821 115.797C159.363 117 159.017 118.242 158.788 119.509C158.504 120.952 158.573 122.443 158.988 123.855V124.09H158.716L157.811 124.253L157.937 123.855C158.58 124.476 159.08 125.23 159.404 126.064C159.779 128.306 159.779 130.594 159.404 132.836C158.969 134.031 158.662 135.317 158.028 136.693C157.659 137.283 157.395 137.932 157.249 138.612C156.349 140.612 155.868 142.775 155.837 144.968C156.083 147.316 157.117 149.512 158.77 151.197C159.612 152.169 160.37 153.211 161.034 154.311C161.714 155.499 162.122 156.822 162.229 158.186C162.214 160.954 161.855 163.71 161.16 166.389C160.164 172.43 160.919 178.629 163.335 184.255C165.751 189.88 169.728 194.695 174.795 198.131L175.737 198.747L174.632 198.946L171.011 199.58L171.337 198.946C173.534 203.238 177.006 206.745 181.276 208.985C185.546 211.225 190.404 212.089 195.184 211.458H195.8L195.709 212.056C195.438 214.069 194.75 216.004 193.69 217.737C192.63 219.471 191.221 220.964 189.553 222.124L189.39 221.273C191.833 221.824 194.365 221.863 196.824 221.386C199.283 220.909 201.617 219.927 203.677 218.502L204.383 218.013V218.846C204.44 220.277 204.071 221.693 203.323 222.915C202.575 224.136 201.482 225.109 200.182 225.709L199.91 224.804C205.316 223.763 210.389 221.427 214.694 217.996C218.999 214.564 222.407 210.14 224.627 205.103C226.8 200.286 227.216 195.017 228.882 190.146C229.668 187.707 230.929 185.448 232.594 183.501C234.224 181.599 236.089 180.024 237.646 178.268C239.202 176.579 240.37 174.57 241.069 172.383C241.707 170.242 242.054 168.025 242.101 165.792C242.11 161.556 241.874 157.324 241.395 153.116C240.66 145.818 239.536 138.565 238.027 131.387V131.242C238.471 130.233 238.666 129.132 238.593 128.032C238.521 126.931 238.183 125.865 237.61 124.923C237.227 124.536 236.871 124.125 236.542 123.692C236.265 123.211 236.081 122.683 235.999 122.134C235.871 121.137 235.871 120.127 235.999 119.129C236.321 117.382 236.527 115.615 236.614 113.841C236.643 113.083 236.481 112.33 236.143 111.65C235.756 111.056 235.272 110.53 234.713 110.093C233.315 108.366 232.425 106.285 232.142 104.081C231.968 103.12 231.889 102.143 231.906 101.166L231.562 101.582Z" fill="#E0E0E0"/>
<path d="M160.328 54.3586C160.328 52.3667 165.344 5.19683 165.344 5.19683L174.705 29.0625L181.025 14.2868L185.262 26.3101L199.748 0L211.427 28.5736L219.684 15.8983L225.334 28.1933L236.705 6.46436L240.327 55.1734C213.98 49.581 186.783 49.3039 160.328 54.3586Z" fill="#39FF14"/>
<path d="M241.956 59.012C241.706 59.0086 241.457 58.9783 241.214 58.9215C214.267 51.3199 185.77 51.1135 158.716 58.3239C158.074 58.3905 157.429 58.2263 156.897 57.8606C156.365 57.4949 155.981 56.9517 155.813 56.3284C155.645 55.7051 155.705 55.0424 155.981 54.4591C156.258 53.8758 156.733 53.41 157.322 53.1452C185.32 45.6871 214.81 45.8997 242.698 53.7608C243.325 53.9434 243.864 54.3453 244.218 54.893C244.573 55.4406 244.718 56.0975 244.628 56.7435C244.538 57.3896 244.218 57.9816 243.728 58.4114C243.237 58.8413 242.608 59.0801 241.956 59.0844V59.012Z" fill="#39FF14"/>
<path d="M167.788 32.7021L164.782 38.75L167.752 44.8885L170.812 38.8044L167.788 32.7021Z" fill="#455A64"/>
<path d="M231.454 32.4844L228.43 38.5142L231.399 44.6526L234.478 38.5685L231.454 32.4844Z" fill="#455A64"/>
<path d="M197.122 26.835L193.192 34.6936L197.049 42.6609L201.051 34.7479L197.122 26.835Z" fill="#455A64"/>
<path d="M242.952 54.9565C242.661 54.9394 242.374 54.8783 242.101 54.7754L239.747 54.1055C237.719 53.4717 234.75 52.6388 231.074 51.6791C221.49 49.1812 211.67 47.6943 201.776 47.2428C196.338 47.0847 190.895 47.2661 185.479 47.786C181.052 48.2431 176.652 48.9321 172.297 49.8502C168.585 50.6469 165.597 51.3712 163.551 51.9507L161.161 52.5663C160.893 52.6587 160.612 52.7076 160.328 52.7112C160.571 52.5665 160.833 52.4568 161.107 52.3853L163.443 51.5885C165.453 50.9005 168.44 50.0675 172.152 49.1984C176.516 48.1785 180.936 47.4167 185.389 46.9168C190.843 46.3345 196.33 46.1288 201.812 46.3012C211.769 46.7412 221.643 48.327 231.237 51.0272C234.858 52.0774 237.864 53.0009 239.856 53.7433L242.174 54.5944C242.699 54.7574 242.971 54.9565 242.952 54.9565Z" fill="#263238"/>
<path d="M279 406H54.9414L18 284H204.949L234.547 398.042L279 398.95V406Z" fill="#FF3DF0"/>
<path d="M138 343.472C138.005 345.946 137.277 348.365 135.907 350.425C134.537 352.484 132.586 354.09 130.303 355.041C128.019 355.991 125.505 356.242 123.078 355.763C120.652 355.284 118.422 354.096 116.671 352.349C114.92 350.602 113.727 348.374 113.242 345.949C112.758 343.523 113.004 341.008 113.949 338.723C114.894 336.437 116.496 334.483 118.553 333.109C120.609 331.734 123.027 331 125.5 331C128.81 331 131.986 332.313 134.329 334.651C136.672 336.99 137.993 340.162 138 343.472Z" fill="#F5F5F5"/>
<path d="M227.162 325.065L212.097 320.248H193.03C192.694 321.134 192.692 322.112 193.026 322.998C193.359 323.885 194.004 324.619 194.84 325.065C197.991 327.147 208.693 330.986 208.693 330.986L212.314 338.048L175.248 339.714C175.248 339.714 177.548 343.697 180.282 344.747C181.346 346.968 182.923 348.904 184.881 350.397C187.615 352.063 208.33 358.346 210.648 358.346C212.966 358.346 240.163 353.747 240.163 353.747L246.32 350.976L239.222 320.99L227.162 325.065Z" fill="#455A64"/>
</svg>
