<svg width="358" height="488" viewBox="0 0 358 488" fill="none" xmlns="http://www.w3.org/2000/svg">
<path d="M158.735 276.554C158.735 276.554 136.42 315.696 136.42 336.609C136.42 377.425 172.611 376.637 219.577 376.637C266.544 376.637 285.783 345.859 291.171 329.671C296.559 313.482 305.047 287.354 295.796 275.053C286.546 262.751 261.918 225.011 241.892 229.636C221.865 234.261 201.863 242.725 198.788 245.8C195.712 248.875 179.524 268.139 179.524 268.139L158.735 276.554Z" fill="#263238" stroke="#263238" stroke-linecap="round" stroke-linejoin="round"/>
<path d="M260.368 234.852C254.144 230.571 247.821 228.209 241.891 229.587C222.209 234.114 202.527 242.38 198.984 245.579C199.919 255.42 204.102 272.051 221.127 275.766C240.932 280.096 255.694 253.23 260.368 234.852Z" fill="white" stroke="#263238" stroke-linecap="round" stroke-linejoin="round"/>
<path d="M192.611 253.451C177.261 250.48 162.097 246.619 147.195 241.888C126.405 234.975 120.132 233.425 120.132 233.425C120.132 233.425 117.819 273.478 140.921 284.254C155.522 290.654 171.9 291.75 187.223 287.354L192.611 253.451Z" fill="#39FF14" stroke="#263238" stroke-linecap="round" stroke-linejoin="round"/>
<path d="M191.849 208.798C189.251 228.844 185.139 248.665 179.548 268.09C171.084 295.793 162.621 305.806 162.621 305.806L198.812 305.044C198.812 305.044 207.275 283.467 211.9 268.14C216.526 252.812 219.601 239.65 219.601 239.65C219.601 239.65 191.849 219.574 191.849 208.798Z" fill="white" stroke="#263238" stroke-linecap="round" stroke-linejoin="round"/>
<path d="M184.147 176.445C184.147 176.445 184.91 201.86 187.223 210.323C189.535 218.786 202.624 238.05 210.325 242.676C218.025 247.301 224.963 246.514 234.189 241.126C243.415 235.738 249.591 221.886 254.216 213.398C258.841 204.911 261.154 178.758 261.154 178.758C261.154 178.758 229.589 161.044 213.4 161.044C197.211 161.044 184.147 176.445 184.147 176.445Z" fill="white" stroke="#263238" stroke-linecap="round" stroke-linejoin="round"/>
<path d="M248.828 171.058C248.828 171.058 242.678 221.099 232.665 254.977C222.651 288.855 211.088 308.882 211.088 308.882L262.754 305.807L274.317 259.603L317.421 254.215C317.421 254.215 295.106 224.199 285.093 210.324C275.08 196.448 271.242 190.322 271.242 190.322L248.828 171.058Z" fill="white" stroke="#263238" stroke-linecap="round" stroke-linejoin="round"/>
<path d="M240.07 432.51C231.656 436.791 224.964 439.743 224.964 439.743L197.237 433.568C197.237 433.568 175.685 442.056 173.372 445.131C171.059 448.206 175.685 455.907 180.31 456.67L184.911 457.457C184.911 457.457 193.399 468.233 196.474 468.996C199.549 469.758 227.276 462.033 227.276 462.033C227.276 462.033 235.568 458.933 247.475 454.406L240.07 432.51Z" fill="white" stroke="#263238" stroke-linecap="round" stroke-linejoin="round"/>
<path d="M15.9388 74.1717C15.9388 61.89 19.5808 49.8842 26.4041 39.6723C33.2275 29.4605 42.9257 21.5013 54.2725 16.8014C65.6193 12.1014 78.1049 10.8716 90.1506 13.2677C102.196 15.6637 113.261 21.5779 121.945 30.2623C130.63 38.9468 136.544 50.0114 138.94 62.0571C141.336 74.1028 140.106 86.5885 135.406 97.9352C130.706 109.282 122.747 118.98 112.535 125.804C102.324 132.627 90.3177 136.269 78.0361 136.269C61.5709 136.256 45.7838 129.709 34.1411 118.067C22.4985 106.424 15.9519 90.6369 15.9388 74.1717Z" stroke="#FF3DF0" stroke-width="2" stroke-linecap="round" stroke-linejoin="round"/>
<path d="M162.269 76.3423C173.231 65.3797 173.231 47.6057 162.269 36.643C151.306 25.6803 133.532 25.6803 122.569 36.643C111.607 47.6057 111.607 65.3797 122.569 76.3423C133.532 87.305 151.306 87.305 162.269 76.3423Z" fill="#39FF14" stroke="#263238" stroke-linecap="round" stroke-linejoin="round"/>
<path d="M26.0401 47.6768C35.7976 45.3648 41.8334 35.5806 39.5214 25.823C37.2094 16.0655 27.4252 10.0296 17.6676 12.3416C7.91007 14.6536 1.87423 24.4379 4.18621 34.1954C6.4982 43.953 16.2825 49.9888 26.0401 47.6768Z" fill="#39FF14" stroke="#263238" stroke-linecap="round" stroke-linejoin="round"/>
<path d="M50.7889 146.854C60.55 144.557 66.6012 134.783 64.3046 125.021C62.0079 115.26 52.2331 109.209 42.472 111.506C32.7108 113.802 26.6597 123.577 28.9563 133.338C31.253 143.099 41.0277 149.151 50.7889 146.854Z" fill="#39FF14" stroke="#263238" stroke-linecap="round" stroke-linejoin="round"/>
<path d="M347.387 228.8C347.387 228.8 362.148 239.6 355.087 262.678C353.308 269.2 349.903 275.165 345.192 280.014C340.48 284.863 334.616 288.438 328.147 290.405L314.271 264.228C314.271 264.228 339.686 240.363 347.387 228.8Z" fill="#263238" stroke="#263238" stroke-linecap="round" stroke-linejoin="round"/>
<path d="M288.094 284.254C289.476 294.279 292.062 304.101 295.795 313.507C301.97 328.908 314.272 377.474 314.272 377.474C314.272 377.474 281.156 402.864 268.855 414.378C256.554 425.892 224.964 439.891 224.964 439.891L197.237 433.716C197.237 433.716 175.685 442.204 173.372 445.279C171.059 448.354 175.685 456.055 180.31 456.818L184.911 457.605C184.911 457.605 193.399 468.381 196.474 469.144C199.549 469.906 227.276 462.033 227.276 462.033C227.276 462.033 313.509 429.706 329.673 421.242C345.837 412.779 350.462 409.679 352.012 401.216C353.562 392.752 348.149 339.02 348.149 324.258C348.149 309.497 341.236 278.055 338.136 271.904C335.891 267.616 333.325 263.504 330.46 259.603L288.094 284.254Z" fill="white" stroke="#263238" stroke-linecap="round" stroke-linejoin="round"/>
<path d="M348.175 324.972L304.898 342.735C306.916 349.919 308.859 357.127 310.434 363.081L349.282 347.04C348.716 337.765 348.199 329.671 348.175 324.972Z" fill="#263238" stroke="#263238" stroke-linecap="round" stroke-linejoin="round"/>
<path d="M347.387 228.8C347.387 228.8 299.658 250.376 289.645 254.977C279.631 259.578 271.168 257.29 271.168 274.241C271.168 291.192 288.095 291.955 311.959 282.704C335.824 273.454 347.387 228.8 347.387 228.8Z" fill="#39FF14" stroke="#263238" stroke-linecap="round" stroke-linejoin="round"/>
<path d="M241.595 431.772C232.468 436.496 224.964 439.792 224.964 439.792L197.237 433.617C197.237 433.617 175.685 442.105 173.372 445.18C171.059 448.256 175.685 455.956 180.31 456.719L184.911 457.506C184.911 457.506 193.399 468.282 196.474 469.045C199.549 469.808 227.276 462.033 227.276 462.033C227.276 462.033 236.773 458.466 250.034 453.422L241.595 431.772Z" fill="#39FF14" stroke="#263238" stroke-linecap="round" stroke-linejoin="round"/>
<path d="M226.49 433.617L238.816 464.419L263.468 455.956L248.829 423.604L226.49 433.617Z" fill="#39FF14" stroke="#263238" stroke-linecap="round" stroke-linejoin="round"/>
<path d="M153.099 247.522C153.099 247.522 159.815 244.176 161.513 245.849C163.21 247.522 167.811 256.773 167.811 261.398C167.811 266.023 160.676 265.187 158.142 262.259C155.608 259.332 153.099 247.522 153.099 247.522Z" fill="#39FF14" stroke="#263238" stroke-linecap="round" stroke-linejoin="round"/>
<path d="M152.854 244.717C152.854 244.717 124.068 250.942 124.068 255.592C124.068 260.242 123.306 295.251 123.306 295.251C123.306 295.251 103.87 334.911 102.295 359.021C100.72 383.132 110.069 387.807 123.306 384.707C136.542 381.607 144.292 367.485 145.866 345.022C147.441 322.56 146.629 293.701 146.629 293.701C146.629 293.701 164.515 282.04 165.303 278.152C166.09 274.265 152.854 244.717 152.854 244.717Z" fill="white" stroke="#263238" stroke-linecap="round" stroke-linejoin="round"/>
<path d="M127.39 290.134L116.589 294.735L113.514 316.336C113.514 316.336 130.49 326.866 146.26 321.601C152.706 319.461 148.942 297.884 148.942 297.884L133.565 290.11L127.39 290.134Z" fill="#39FF14" stroke="#263238" stroke-linecap="round" stroke-linejoin="round"/>
<path d="M124.069 255.592C124.069 260.266 123.306 295.251 123.306 295.251C123.306 295.251 122.888 296.088 122.224 297.539C125.324 302.903 132.065 307.085 146.826 302.73C146.826 297.219 146.679 293.701 146.679 293.701C146.679 293.701 164.565 282.04 165.352 278.152C166.139 274.265 152.903 244.717 152.903 244.717C152.903 244.717 124.069 250.942 124.069 255.592Z" fill="#39FF14" stroke="#263238" stroke-linecap="round" stroke-linejoin="round"/>
<path d="M219.577 176.371C219.577 176.371 227.155 166.973 240.342 180.603" stroke="#263238" stroke-linecap="round" stroke-linejoin="round"/>
<path d="M205.749 176.371C205.749 176.371 193.62 173.443 188.527 182.694" stroke="#263238" stroke-linecap="round" stroke-linejoin="round"/>
<path d="M180.31 163.356C180.31 163.356 183.386 159.518 174.135 142.567C164.884 125.616 169.51 92.5251 181.073 99.4385C192.636 106.352 192.612 123.328 192.612 123.328C192.612 123.328 185.698 78.6492 220.339 64.7979C254.979 50.9466 241.128 111.002 241.128 111.002C241.128 111.002 275.769 86.399 288.857 95.6004C301.946 104.802 267.305 145.642 267.305 145.642C267.305 145.642 310.434 137.942 305.809 155.656C301.183 173.37 276.556 184.146 276.556 184.146C276.556 184.146 249.493 165.669 225.727 157.968C201.961 150.268 180.31 163.356 180.31 163.356Z" fill="#39FF14" stroke="#263238" stroke-linecap="round" stroke-linejoin="round"/>
<path d="M214.114 105.614C215.157 102.439 216.508 99.3734 218.149 96.4619" stroke="#263238" stroke-linecap="round" stroke-linejoin="round"/>
<path d="M185.085 134.498L200.683 155.09L209.417 144.486C208.932 133.71 209.859 122.916 212.173 112.38" stroke="#263238" stroke-linecap="round" stroke-linejoin="round"/>
<path d="M253.281 136.785L228.752 155.705L259.309 175.657L280.516 164.439" stroke="#263238" stroke-linecap="round" stroke-linejoin="round"/>
<path d="M258.67 132.627L256.874 134.03" stroke="#263238" stroke-linecap="round" stroke-linejoin="round"/>
<path d="M182.599 179.52C193.034 171.213 206.194 167.098 219.503 167.982C241.818 169.507 274.17 191.846 274.17 191.846L276.483 184.146C276.483 184.146 267.232 177.208 257.219 168.744C247.206 160.281 242.605 159.518 242.605 159.518C242.605 159.518 214.878 127.166 204.864 134.104C194.851 141.042 180.262 163.356 180.262 163.356L182.599 179.52Z" fill="#263238" stroke="#263238" stroke-linecap="round" stroke-linejoin="round"/>
</svg>
