<svg width="224" height="201" viewBox="0 0 224 201" fill="none" xmlns="http://www.w3.org/2000/svg">
<path fill-rule="evenodd" clip-rule="evenodd" d="M100.393 48.0053C100.383 49.596 107.288 66.5428 119.346 94.3782C123.871 104.868 131.05 122.03 135.262 132.553C146.421 160.473 154.498 159.444 143.073 131.212C125.806 88.544 106.453 46.7196 103.598 46.0081C101.942 45.6051 100.411 46.5512 100.393 48.0053Z" fill="#39FF14"/>
<path fill-rule="evenodd" clip-rule="evenodd" d="M73.5941 50.4101C73.5845 52.0008 80.4893 68.9476 92.5474 96.783C97.0724 107.273 104.251 124.435 108.463 134.958C119.622 162.878 127.699 161.849 116.274 133.617C99.0069 90.9487 79.6542 49.1244 76.7994 48.4129C75.1429 48.0099 73.6123 48.956 73.5941 50.4101Z" fill="#BA68C8"/>
</svg>
