<svg width="46" height="65" viewBox="0 0 46 65" fill="none" xmlns="http://www.w3.org/2000/svg">
<g clipPath="url(#clip0_89_21560)">
<path d="M37.1898 53.7658C37.1934 54.1065 37.1056 54.5518 37.0141 54.919C36.3749 57.5009 33.5366 60.3982 29.5415 60.1346C25.9208 59.8963 22.9717 58.1581 22.9717 55.7206C22.9717 53.2831 25.9135 51.3067 29.5415 51.3067C33.1695 51.3067 37.167 51.3283 37.1898 53.7658Z" fill="#EA596E"/>
<path d="M29.5413 51.7159C27.5925 51.7159 23.1448 52.2552 22.124 52.2552C20.3209 52.2552 18.8584 53.3867 18.8584 54.783C18.8584 55.4546 19.2027 56.0613 19.754 56.5139C19.754 56.5139 20.9649 57.7284 23.146 57.1458C24.1005 56.8906 25.6533 54.996 28.3869 54.6951C29.7483 54.5446 32.299 55.5979 36.7815 55.6231C36.9741 55.2091 37.0139 54.9214 37.0139 54.9214C37.0139 52.4815 33.1692 51.7159 29.5413 51.7159Z" fill="#DD2E44"/>
<path d="M37.0143 54.919C37.0143 54.919 39.6432 54.3857 41.2778 52.2359C43.1833 49.7286 42.9329 47.0455 42.9329 47.0455C44.8637 43.4344 42.3311 40.0484 42.3311 40.0484C42.0795 36.2363 39.7226 34.657 39.7226 34.657C38.1927 31.0206 34.8079 30.0432 34.8079 30.0432C32.1501 26.9341 27.4352 27.034 27.4352 27.034C27.4352 27.034 23.0176 25.415 16.9534 27.235C15.9507 27.5359 12.59 28.2377 10.132 29.7423C2.38496 34.4849 1.79876 41.8805 1.90709 43.083C2.50774 49.8032 7.22264 51.0069 10.2319 51.7087C10.9337 53.6142 13.5168 57.1254 18.1559 55.8218C23.8735 54.8191 26.2809 53.1134 27.6856 53.1134C29.0903 53.1134 33.0024 54.618 37.0143 54.919Z" fill="#F4ABBA"/>
<path d="M22.5538 44.1133C25.3561 42.6027 26.8751 42.7435 28.2161 42.8651C28.6422 42.9036 29.0454 42.9337 29.4535 42.9313C31.8416 42.8771 33.776 41.8708 34.6318 40.897C34.7299 40.776 34.7774 40.6217 34.7643 40.4665C34.7513 40.3112 34.6786 40.1671 34.5616 40.0642C34.4445 39.9614 34.2923 39.9078 34.1366 39.9147C33.981 39.9216 33.834 39.9885 33.7266 40.1014C33.067 40.8525 31.4408 41.6818 29.4258 41.7276C29.0647 41.7384 28.7024 41.7023 28.3268 41.6674C26.8884 41.5338 25.1021 41.3701 21.9821 43.0541C21.1816 43.4862 20.0838 43.6463 18.8946 43.7667C16.25 39.9497 17.8413 36.6251 18.2963 35.833C18.3409 35.8355 18.3842 35.8499 18.4299 35.8499C18.9114 35.8499 19.3953 35.7319 19.8335 35.484C19.9669 35.4027 20.0636 35.2727 20.1029 35.1215C20.1423 34.9703 20.1213 34.8097 20.0444 34.6736C19.9675 34.5376 19.8406 34.4368 19.6908 34.3926C19.5409 34.3484 19.3797 34.3642 19.2412 34.4368C18.8626 34.6452 18.4192 34.7031 17.9997 34.5989C17.5802 34.4947 17.2154 34.236 16.9783 33.8746C16.8888 33.7484 16.7541 33.6615 16.6022 33.632C16.4503 33.6025 16.2929 33.6326 16.1626 33.7161C16.0323 33.7996 15.9392 33.93 15.9026 34.0804C15.866 34.2307 15.8887 34.3894 15.966 34.5234C16.2512 34.97 16.6533 35.3058 17.1071 35.5309C16.4799 36.8044 15.2895 40.1531 17.5549 43.8979C15.9612 44.0543 14.365 44.2794 13.1156 45.0847C12.2374 45.6601 11.4714 46.3906 10.855 47.2405C10.0979 47.1105 7.32578 46.428 6.84189 43.3514C7.14282 43.1179 7.38597 42.8097 7.53643 42.4293C7.56552 42.3558 7.57984 42.2773 7.57858 42.1983C7.57732 42.1193 7.56051 42.0412 7.5291 41.9687C7.49769 41.8962 7.45231 41.8305 7.39553 41.7755C7.33875 41.7205 7.27169 41.6772 7.19819 41.6481C7.12469 41.6191 7.04617 41.6047 6.96713 41.606C6.8881 41.6072 6.81008 41.6241 6.73754 41.6555C6.66499 41.6869 6.59935 41.7323 6.54435 41.789C6.48935 41.8458 6.44607 41.9129 6.41699 41.9864C6.37147 42.1129 6.29903 42.228 6.20468 42.3239C6.11033 42.4197 5.99632 42.4938 5.8705 42.5413C5.74301 42.5837 5.60789 42.5981 5.47433 42.5835C5.34077 42.569 5.21191 42.5258 5.09652 42.457C5.02745 42.4186 4.95148 42.3942 4.87296 42.3851C4.79444 42.3761 4.71491 42.3826 4.6389 42.4043C4.4854 42.4481 4.35558 42.551 4.278 42.6905C4.20043 42.8301 4.18145 42.9947 4.22524 43.1482C4.26904 43.3017 4.37201 43.4315 4.51152 43.5091C4.85338 43.6993 5.2193 43.7956 5.58282 43.7956C5.62736 43.7956 5.66949 43.7751 5.71402 43.7727C6.28699 46.6772 8.58245 47.9531 10.2062 48.3395C9.99364 48.792 9.85894 49.2771 9.80782 49.7743C9.79379 49.9333 9.84348 50.0914 9.94597 50.2137C10.0484 50.3361 10.1953 50.4127 10.3543 50.4268L10.4085 50.4292C10.5589 50.4291 10.7039 50.3728 10.8148 50.2712C10.9258 50.1696 10.9947 50.0301 11.0079 49.8803C11.1379 48.4202 12.5306 46.8951 13.768 46.0946C14.9284 45.3471 16.6268 45.1894 18.2711 45.0366C19.866 44.8909 21.373 44.7513 22.5538 44.1133ZM38.0407 42.303C38.0028 42.3724 37.9789 42.4485 37.9704 42.5272C37.9619 42.6058 37.9689 42.6853 37.9912 42.7612C38.0134 42.8371 38.0504 42.9079 38.1 42.9695C38.1496 43.0311 38.2108 43.0823 38.2802 43.1203C38.3496 43.1582 38.4258 43.1821 38.5044 43.1906C38.5831 43.1991 38.6626 43.192 38.7385 43.1698C38.8918 43.1249 39.0209 43.0209 39.0975 42.8807C39.1204 42.8398 41.3148 38.7292 37.2065 35.9667C37.074 35.8776 36.9116 35.8448 36.7549 35.8755C36.5983 35.9062 36.4602 35.9979 36.3712 36.1304C36.2821 36.2628 36.2493 36.4253 36.28 36.582C36.3107 36.7386 36.4024 36.8767 36.5349 36.9657C39.7175 39.1059 38.1105 42.173 38.0407 42.303ZM13.0915 32.5843C13.1871 32.5846 13.2813 32.562 13.3663 32.5185C13.4513 32.4749 13.5247 32.4116 13.5802 32.3339C15.3256 29.906 17.7426 30.7366 17.8449 30.7751C17.9932 30.824 18.1547 30.8134 18.2953 30.7456C18.4358 30.6777 18.5446 30.5578 18.5984 30.4113C18.6523 30.2648 18.6472 30.1031 18.5841 29.9603C18.521 29.8175 18.4049 29.7048 18.2602 29.646C17.1047 29.2175 14.4361 29.0827 12.6028 31.6321C12.5385 31.722 12.5001 31.8279 12.492 31.9382C12.4839 32.0485 12.5063 32.1589 12.5568 32.2572C12.6073 32.3556 12.6839 32.4382 12.7782 32.4958C12.8726 32.5535 12.981 32.5841 13.0915 32.5843ZM28.8263 30.3117C31.5046 30.0938 32.7227 32.0354 32.7781 32.1268C32.859 32.2646 32.9914 32.3646 33.146 32.4047C33.2226 32.4246 33.3023 32.4293 33.3806 32.4183C33.459 32.4074 33.5344 32.3812 33.6026 32.3411C33.6708 32.301 33.7305 32.2479 33.7782 32.1848C33.8259 32.1217 33.8606 32.0498 33.8805 31.9732C33.9004 31.8966 33.9051 31.8169 33.8941 31.7386C33.8832 31.6602 33.857 31.5848 33.8169 31.5166C33.7519 31.407 32.2039 28.8468 28.7325 29.1116C28.6537 29.1177 28.5768 29.1394 28.5064 29.1752C28.436 29.2111 28.3733 29.2604 28.3219 29.3205C28.2182 29.4418 28.1669 29.5994 28.1793 29.7586C28.1918 29.9177 28.267 30.0654 28.3883 30.1691C28.5096 30.2728 28.6672 30.3241 28.8263 30.3117ZM39.8402 47.899C39.5441 47.8821 39.2179 48.1168 39.1914 48.4491C39.189 48.4707 38.9976 50.5182 36.8924 51.2104C36.7547 51.2536 36.6372 51.345 36.5614 51.4677C36.4856 51.5905 36.4565 51.7364 36.4794 51.8789C36.5023 52.0213 36.5758 52.1508 36.6863 52.2435C36.7968 52.3363 36.9371 52.3861 37.0813 52.384C37.1451 52.384 37.2085 52.3738 37.2691 52.3539C40.1243 51.4174 40.3819 48.6657 40.3915 48.549C40.4042 48.3898 40.3533 48.232 40.25 48.1102C40.1467 47.9884 39.9994 47.9125 39.8402 47.899Z" fill="#EA596E"/>
<path d="M10.0469 42.0502C10.0232 42.1274 10.0154 42.2086 10.0237 42.2889C10.0321 42.3693 10.0565 42.4471 10.0956 42.5178C10.1347 42.5885 10.1876 42.6506 10.2512 42.7004C10.3148 42.7502 10.3878 42.7867 10.4658 42.8077C10.5438 42.8287 10.6252 42.8338 10.7052 42.8227C10.7852 42.8116 10.8621 42.7845 10.9314 42.743C11.0007 42.7015 11.061 42.6465 11.1086 42.5812C11.1562 42.516 11.1902 42.4418 11.2085 42.3631C11.3244 41.9461 11.5939 41.5884 11.9628 41.3619C12.3317 41.1355 12.7727 41.0571 13.197 41.1426C13.2744 41.1588 13.3542 41.1596 13.4319 41.145C13.5096 41.1303 13.5836 41.1005 13.6498 41.0573C13.716 41.014 13.773 40.9581 13.8175 40.8928C13.8621 40.8276 13.8934 40.7541 13.9096 40.6768C13.9258 40.5994 13.9266 40.5196 13.912 40.4419C13.8973 40.3642 13.8675 40.2902 13.8243 40.224C13.781 40.1578 13.7251 40.1008 13.6599 40.0562C13.5946 40.0116 13.5211 39.9804 13.4438 39.9642C12.9429 39.8625 12.4238 39.8983 11.9415 40.0677C10.538 37.6675 10.8113 35.301 10.8149 35.2757C10.8354 35.1177 10.7927 34.9579 10.696 34.8312C10.5993 34.7045 10.4564 34.6211 10.2985 34.5993C10.1408 34.579 9.98153 34.6215 9.85496 34.7177C9.7284 34.8138 9.64473 34.9559 9.62201 35.1132C9.60636 35.23 9.28497 37.901 10.9015 40.6671C10.4889 41.0358 10.192 41.5162 10.0469 42.0502ZM23.5031 39.077C23.7434 38.8584 24.0575 38.7387 24.3824 38.7421C24.7072 38.7454 25.0188 38.8715 25.2545 39.0951C25.3694 39.2056 25.5233 39.2662 25.6827 39.2637C25.8421 39.2612 25.9941 39.1959 26.1055 39.0818C26.2168 38.9674 26.278 38.8134 26.2757 38.6538C26.2735 38.4943 26.2079 38.3421 26.0935 38.2308C25.8216 37.9722 25.4931 37.7805 25.1341 37.6711C25.4904 36.4481 25.3496 35.9053 25.0186 34.8881C24.9531 34.6891 24.8901 34.4893 24.8296 34.2887L24.7935 34.1683C24.3553 32.7143 24.0652 31.7549 24.8982 30.4007C24.9819 30.2647 25.008 30.1011 24.971 29.9458C24.934 29.7905 24.8368 29.6562 24.7008 29.5726C24.5648 29.4889 24.4012 29.4628 24.2458 29.4998C24.0905 29.5368 23.9563 29.634 23.8727 29.77C22.7556 31.5852 23.1661 32.9442 23.6415 34.5174L23.6777 34.6378C23.7487 34.8713 23.8137 35.0759 23.8739 35.2601C24.1712 36.1761 24.2615 36.4831 23.8979 37.5905C23.4433 37.6732 23.0216 37.8836 22.6822 38.1971C22.5697 38.307 22.5046 38.4565 22.501 38.6137C22.4973 38.7709 22.5553 38.9233 22.6626 39.0383C22.7699 39.1533 22.9179 39.2217 23.075 39.229C23.2321 39.2362 23.3857 39.1817 23.5031 39.077ZM31.1647 35.484C31.5222 35.4851 31.8754 35.4065 32.1987 35.2541C32.3431 35.1861 32.4547 35.0635 32.5087 34.9132C32.5628 34.763 32.555 34.5975 32.487 34.453C32.419 34.3085 32.2964 34.197 32.1461 34.143C31.9959 34.0889 31.8304 34.0967 31.6859 34.1647C31.39 34.2999 31.054 34.3183 30.7451 34.2163C30.4362 34.1143 30.1772 33.8994 30.02 33.6146C29.9842 33.5423 29.9343 33.4779 29.8731 33.4253C29.8119 33.3727 29.7408 33.3329 29.664 33.3083C29.5872 33.2837 29.5061 33.2748 29.4258 33.2821C29.3455 33.2894 29.2674 33.3129 29.1963 33.351C29.1252 33.3891 29.0624 33.4411 29.0118 33.5039C28.9612 33.5667 28.9237 33.6391 28.9016 33.7167C28.8796 33.7943 28.8733 33.8755 28.8832 33.9556C28.8932 34.0357 28.9191 34.1129 28.9595 34.1828C29.1762 34.5872 29.4988 34.9062 29.8743 35.1277C29.2279 36.6985 29.5951 38.3668 29.8948 39.2516C29.9177 39.3292 29.9561 39.4014 30.0075 39.4639C30.059 39.5264 30.1226 39.5778 30.1944 39.6152C30.2662 39.6525 30.3449 39.675 30.4256 39.6812C30.5063 39.6875 30.5874 39.6774 30.6641 39.6515C30.7408 39.6257 30.8116 39.5846 30.872 39.5308C30.9325 39.477 30.9815 39.4115 31.0161 39.3384C31.0507 39.2652 31.0702 39.1858 31.0734 39.1049C31.0766 39.024 31.0634 38.9433 31.0347 38.8676C30.8325 38.2681 30.4401 36.7539 31.0323 35.4659C31.078 35.4683 31.1202 35.484 31.1647 35.484ZM36.9389 46.8337C36.9343 46.7547 36.914 46.6773 36.8793 46.6061C36.8446 46.535 36.7962 46.4714 36.7367 46.4191C36.6772 46.3668 36.608 46.3269 36.533 46.3015C36.458 46.2762 36.3787 46.266 36.2997 46.2716C36.0111 46.2915 35.7214 46.2542 35.4472 46.1619C35.173 46.0696 34.9198 45.924 34.702 45.7335C34.4842 45.5431 34.3062 45.3114 34.1782 45.052C34.0502 44.7925 33.9747 44.5104 33.9561 44.2217C33.9426 44.0634 33.8681 43.9166 33.7484 43.8122C33.6287 43.7077 33.4731 43.6539 33.3145 43.6619C33.1554 43.6734 33.0073 43.7472 32.9025 43.8674C32.7976 43.9876 32.7445 44.1444 32.7548 44.3035C32.8041 45.0137 33.075 45.6541 33.4866 46.1753C32.5189 47.314 31.2514 47.6378 30.5448 47.7208C29.9201 47.7955 29.3736 47.7317 28.7416 47.657C28.1627 47.5908 27.5078 47.515 26.6978 47.5391L26.6917 47.5403C26.6677 47.196 26.5858 46.6941 26.3246 46.2764C26.2348 46.1527 26.1014 46.0677 25.9513 46.0386C25.8013 46.0096 25.6458 46.0385 25.5163 46.1197C25.3868 46.2009 25.2929 46.3283 25.2537 46.476C25.2145 46.6237 25.2329 46.7808 25.3051 46.9156C25.4664 47.1743 25.4965 47.5872 25.4965 47.7882C24.8898 48.0061 24.365 48.3263 23.8907 48.6356C23.0433 49.1869 22.3752 49.6227 21.3702 49.3964C20.4602 49.1881 19.549 49.146 18.7762 49.2543C18.6558 48.9522 18.4656 48.5911 18.1719 48.313C18.0559 48.2034 17.901 48.1443 17.7414 48.1488C17.5818 48.1534 17.4306 48.2211 17.3209 48.3371C17.2112 48.4532 17.1522 48.608 17.1567 48.7676C17.1612 48.9272 17.2289 49.0785 17.345 49.1881C17.4485 49.2856 17.5303 49.4277 17.5965 49.5697C16.2689 50.1162 15.6032 51.0298 15.5719 51.0743C15.5081 51.1642 15.4702 51.2699 15.4624 51.3799C15.4547 51.4899 15.4773 51.5999 15.5279 51.6979C15.5785 51.7958 15.6551 51.878 15.7493 51.9353C15.8434 51.9926 15.9516 52.0229 16.0618 52.0229C16.157 52.0231 16.2508 52.0009 16.3357 51.958C16.4206 51.9151 16.4942 51.8528 16.5505 51.7761C16.5565 51.7665 17.2174 50.8818 18.521 50.5243C19.1951 50.3389 20.1616 50.3545 21.1041 50.5688C21.3678 50.629 21.6121 50.6494 21.8492 50.653C21.9612 50.9155 22.0045 51.2272 22.0105 51.3428C22.0194 51.4962 22.0865 51.6404 22.1982 51.746C22.3098 51.8516 22.4575 51.9106 22.6112 51.9109L22.6437 51.9097C22.8025 51.9013 22.9515 51.8304 23.0582 51.7124C23.1649 51.5944 23.2206 51.439 23.213 51.2802C23.1929 50.9998 23.1404 50.7227 23.0565 50.4544C23.6115 50.2534 24.0941 49.9393 24.5479 49.6443C25.2365 49.1954 25.8877 48.7705 26.7387 48.7428C27.4513 48.7175 28.0387 48.7861 28.6056 48.8523C29.1762 48.9185 29.7371 48.9618 30.3558 48.9257C30.4653 49.2303 30.4569 49.6371 30.4401 49.7731C30.4299 49.8579 30.4377 49.9438 30.4631 50.0253C30.4885 50.1069 30.5308 50.1821 30.5873 50.2461C30.6438 50.3101 30.7132 50.3614 30.7909 50.3967C30.8686 50.432 30.9529 50.4504 31.0383 50.4508C31.1842 50.4506 31.3251 50.3974 31.4347 50.3011C31.5443 50.2047 31.6152 50.0719 31.6341 49.9272C31.6782 49.5324 31.6542 49.133 31.5631 48.7464C32.6613 48.455 33.6455 47.8377 34.3858 46.9757C34.9825 47.3443 35.6792 47.5181 36.3791 47.4729C36.4579 47.4677 36.5348 47.447 36.6055 47.4121C36.6763 47.3771 36.7394 47.3286 36.7914 47.2692C36.8434 47.2099 36.8832 47.1409 36.9085 47.0661C36.9338 46.9914 36.9441 46.9124 36.9389 46.8337Z" fill="#EA596E"/>
</g>
<path d="M33.7765 7.79379C34.6484 7.37212 35.2524 6.48232 35.2524 5.44958C35.2524 4.75962 34.9783 4.09792 34.4904 3.61004C34.0025 3.12216 33.3408 2.84808 32.6509 2.84808C31.9609 2.84808 31.2992 3.12216 30.8113 3.61004C30.3234 4.09792 30.0493 4.75962 30.0493 5.44958C30.0493 6.49661 30.6676 7.39356 31.5574 7.80809C30.5282 13.3827 28.9487 17.5316 23.0703 18.4178C23.0703 18.4178 24.6534 26.3331 32.0577 26.3331C39.4619 26.3331 40.2124 18.4964 40.2124 18.4964C34.2053 18.8037 33.6979 11.2529 33.7765 7.79379Z" fill="#F19534"/>
<path d="M12.4147 7.79379C11.5428 7.37212 10.9389 6.48232 10.9389 5.44958C10.9389 4.75962 11.2129 4.09792 11.7008 3.61004C12.1887 3.12216 12.8504 2.84808 13.5404 2.84808C14.2303 2.84808 14.892 3.12216 15.3799 3.61004C15.8678 4.09792 16.1419 4.75962 16.1419 5.44958C16.1419 6.49661 15.5237 7.39356 14.6339 7.80809C15.663 13.3827 17.2425 17.5316 23.1209 18.4178C23.1209 18.4178 21.5378 26.3331 14.1336 26.3331C6.72928 26.3331 5.98242 18.5 5.98242 18.5C11.9859 18.8037 12.4933 11.2529 12.4147 7.79379Z" fill="#F19534"/>
<path d="M31.958 26.3331C31.9902 26.3331 32.0223 26.3367 32.0545 26.3367C34.095 26.3367 35.628 25.7399 36.7787 24.8787L31.958 26.3331Z" fill="#FFCA28"/>
<path d="M42.6104 6.02491C41.4204 5.86411 40.284 6.9969 40.0768 8.5478C39.9481 9.51622 40.209 10.4203 40.7129 11.0028L39.8552 14.5584C39.8552 14.5584 38.5438 22.9597 31.9185 24.6178C26.6226 25.9436 24.7036 16.2487 24.2391 13.2541C25.2468 12.7538 25.9436 11.7175 25.9436 10.5132C25.9436 8.82296 24.575 7.45431 22.8847 7.45431C21.1944 7.45431 19.8258 8.82296 19.8258 10.5132C19.8258 11.7246 20.5333 12.7717 21.5589 13.2648C21.1909 16.2201 19.5685 25.5934 13.8509 24.6142C8.04755 23.6172 5.51394 13.8437 4.92789 11.185C5.62472 10.6133 6.01423 9.60556 5.87129 8.52279C5.66403 6.96832 4.43475 5.85339 3.12685 6.02849C1.81895 6.20359 0.929149 7.6044 1.13641 9.1553C1.2865 10.2845 1.97976 11.1815 2.84812 11.5209L7.3936 39.7623C7.3936 39.7623 11.3602 42.8962 22.8847 42.8962C34.4092 42.8962 38.3758 39.7623 38.3758 39.7623L42.932 11.4459C43.6682 11.06 44.2471 10.1916 44.39 9.12671C44.6008 7.57224 43.8039 6.18572 42.6104 6.02491Z" fill="#FFCA28"/>
<path d="M23.0275 35.7028C24.9497 35.7028 26.508 33.8453 26.508 31.554C26.508 29.2626 24.9497 27.4051 23.0275 27.4051C21.1052 27.4051 19.5469 29.2626 19.5469 31.554C19.5469 33.8453 21.1052 35.7028 23.0275 35.7028Z" fill="#26A69A"/>
<path d="M23.0272 28.4307C23.163 28.5808 23.2845 28.856 23.0272 29.392C22.7699 29.928 21.3834 30.6534 21.1297 30.8C20.8759 30.95 20.708 30.8821 20.6294 30.8214C20.2542 30.5212 20.3971 29.8423 20.6401 29.4277C21.1618 28.5308 22.266 27.6053 23.0272 28.4307Z" fill="#69F0AE"/>
<path d="M22.7705 33.1013C22.3774 33.2907 21.0874 33.866 21.5127 34.5486C21.7628 34.9524 22.281 35.1239 22.7562 35.1453C23.2315 35.1668 23.6996 35.0167 24.1213 34.7987C26.1225 33.7624 26.2833 31.0394 25.8938 30.8321C25.4935 30.6177 25.2219 31.1716 25.0147 31.4075C24.3845 32.1132 23.622 32.6887 22.7705 33.1013Z" fill="#00796B"/>
<path d="M42.1997 28.1591C42.7571 25.0752 40.6845 24.3033 40.6845 24.3033C40.6845 24.3033 39.348 24.0603 38.7191 27.5302C38.0901 30.9965 39.4266 31.2395 39.4266 31.2395C39.4266 31.2395 41.6386 31.2431 42.1997 28.1591Z" fill="#26A69A"/>
<path d="M41.2773 25.3575C41.7633 26.0079 41.188 26.9692 40.2553 27.6088C39.9801 27.7982 39.6156 27.7267 39.562 27.5695C39.4119 27.1193 39.4763 26.6082 39.6764 26.1758C40.2696 24.8787 41.0307 25.0288 41.2773 25.3575Z" fill="#69F0AE"/>
<path d="M3.4878 28.2521C2.92676 25.1717 5.00296 24.3962 5.00296 24.3962C5.00296 24.3962 6.33945 24.1533 6.96838 27.6231C7.59732 31.0894 6.26083 31.3324 6.26083 31.3324C6.26083 31.3324 4.04526 31.336 3.4878 28.2521Z" fill="#26A69A"/>
<path d="M5.63929 25.4433C6.11814 25.8006 5.9216 26.2688 5.56068 26.594C5.14972 26.9692 4.83526 27.3801 4.48505 27.8054C4.43145 27.8697 4.3707 27.9412 4.28494 27.959C4.12056 27.9948 3.98834 27.8268 3.93474 27.666C3.78108 27.2157 3.80966 26.6869 4.03837 26.2723C4.68874 25.0895 5.45347 25.3039 5.63929 25.4433Z" fill="#69F0AE"/>
<path d="M35.7309 31.1466C35.4844 32.551 34.3587 33.5265 33.2116 33.3264C32.0645 33.1263 31.9073 31.9292 32.1539 30.5248C32.4004 29.1204 32.9543 28.0448 34.0978 28.2449C35.2449 28.445 35.9775 29.7458 35.7309 31.1466ZM10.8737 31.1466C11.1203 32.551 12.2459 33.5265 13.393 33.3264C14.5401 33.1263 14.6973 31.9292 14.4508 30.5248C14.2042 29.1204 13.6503 28.0448 12.5068 28.2449C11.3633 28.445 10.6307 29.7458 10.8737 31.1466Z" fill="#F44336"/>
<path d="M12.5357 30.2103C12.2748 30.5034 11.6387 31.093 11.4136 30.6427C11.1063 30.0281 11.5315 29.099 12.0175 28.7916C12.5035 28.4843 12.9002 28.7273 12.9681 29.0025C13.0502 29.3527 12.7679 29.9459 12.5357 30.2103ZM32.8688 31.1073C32.5151 31.0537 32.4758 29.8351 33.4263 28.8774C33.8801 28.42 34.5305 28.9632 34.3661 29.6957C34.2089 30.3926 33.5156 31.2073 32.8688 31.1073Z" fill="#FFA8A4"/>
<path d="M39.0051 35.0953C36.8646 36.1673 31.9546 39.0226 22.8887 39.0226C13.8227 39.0226 8.91273 36.1673 6.77221 35.0953C6.77221 35.0953 6.00391 35.5063 6.00391 35.9351V39.2263C6.00391 39.6658 6.23618 40.0696 6.61497 40.2947C8.28737 41.281 13.3832 43.6109 22.8922 43.6109C32.4013 43.6109 37.4971 41.281 39.1695 40.2947C39.3554 40.1851 39.5096 40.0289 39.6167 39.8415C39.7239 39.6542 39.7804 39.4421 39.7806 39.2263V35.9351C39.7734 35.5063 39.0051 35.0953 39.0051 35.0953Z" fill="#FFCA28"/>
<path d="M14.1512 39.6086C15.1518 39.8052 15.4555 39.8909 15.3876 40.4484C15.2483 41.5455 12.9719 41.2846 11.6247 40.9308C8.84098 40.1982 8.27637 39.4264 8.27637 38.7367C8.27637 38.1042 8.76236 38.0291 9.5128 38.2936C10.4097 38.6116 11.7963 39.1476 14.1512 39.6086Z" fill="#FFF59D"/>
<path fill-rule="evenodd" clip-rule="evenodd" d="M7.75188 34.0737C7.75187 34.0737 7.75189 34.0737 7.75188 34.0737C7.75235 34.074 7.75307 34.0744 7.75403 34.0749L7.78478 34.0916C7.81648 34.1085 7.8705 34.137 7.94644 34.1752C8.09834 34.2518 8.33779 34.3677 8.6616 34.5102C9.30933 34.7951 10.2936 35.1856 11.5889 35.5797C14.179 36.3676 18.0116 37.1691 22.8883 37.1691C27.765 37.1691 31.5976 36.3676 34.1877 35.5797C35.483 35.1856 36.4673 34.7951 37.115 34.5102C37.4388 34.3677 37.6782 34.2518 37.8302 34.1752C37.9061 34.137 37.9601 34.1085 37.9918 34.0916L38.0226 34.0749L38.0207 34.076C38.0221 34.0752 38.0234 34.0744 38.0248 34.0737C38.9852 33.5338 40.2021 33.8724 40.7452 34.8319C41.2894 35.7931 40.9513 37.0135 39.99 37.5576L39.0048 35.8171C39.99 37.5576 39.9894 37.558 39.9887 37.5584L39.9839 37.5611L39.9756 37.5657L39.9524 37.5786C39.934 37.5887 39.9097 37.6019 39.8797 37.618C39.8197 37.6501 39.7366 37.6937 39.6307 37.7471C39.4189 37.8538 39.1161 37.9998 38.7255 38.1716C37.9444 38.5152 36.8111 38.9626 35.3518 39.4065C32.4324 40.2946 28.2068 41.1691 22.8883 41.1691C17.5698 41.1691 13.3441 40.2946 10.4248 39.4065C8.96544 38.9626 7.83217 38.5152 7.05107 38.1716C6.66046 37.9998 6.35766 37.8538 6.14591 37.7471C6.04003 37.6937 5.95688 37.6501 5.89687 37.618C5.86686 37.6019 5.84263 37.5887 5.82423 37.5786L5.80102 37.5657L5.7927 37.5611L5.78936 37.5592L5.7879 37.5584C5.78723 37.558 5.78658 37.5576 6.77183 35.8171L5.78658 37.5576C4.82534 37.0135 4.48721 35.7931 5.03135 34.8319C5.57451 33.8724 6.79145 33.5338 7.75188 34.0737Z" fill="#F19534"/>
<path d="M9.63761 17.7138C11.5387 16.3559 12.5607 13.9223 12.6501 10.0487C12.6572 9.69847 12.7573 9.59484 12.9467 9.5734C13.2504 9.54123 13.3004 9.81639 13.2969 10.0129C13.2111 14.1939 12.6787 16.8061 10.5703 18.2784C10.4667 18.3499 9.72695 18.8002 9.41248 18.4893C9.03726 18.1248 9.51611 17.7996 9.63761 17.7138ZM11.3779 5.55321C11.3172 4.90641 11.4672 3.74145 13.1646 3.21257C13.6614 3.05891 13.9687 3.30191 14.0259 3.49131C14.1688 3.96301 13.7543 4.14883 13.5649 4.20958C12.2606 4.63125 12.1962 5.28163 11.9282 5.69615C11.6602 6.11068 11.3993 5.74975 11.3779 5.55321ZM27.9518 16.8562C29.6706 15.3303 30.8106 13.6257 31.561 9.74492C31.6289 9.40187 31.729 9.30896 31.9148 9.3161C32.2185 9.32325 32.2328 9.60556 32.2007 9.79853C31.5646 13.9366 30.9607 15.1159 28.8416 17.4637C28.6021 17.7281 28.0197 17.9675 27.6909 17.6924C27.3943 17.4458 27.7374 17.0491 27.9518 16.8562ZM30.4818 5.58537C30.4211 4.93857 30.5711 3.77361 32.2686 3.24473C32.7653 3.09107 33.0726 3.33407 33.1298 3.52347C33.2727 3.99517 32.8582 4.18099 32.6688 4.24174C31.3645 4.66341 31.3001 5.31379 31.0321 5.72831C30.7677 6.14284 30.5032 5.78192 30.4818 5.58537Z" fill="#FFCA28"/>
<path d="M11.2888 25.5934C7.13639 23.7101 5.91426 18.7966 5.26388 16.6632C5.17812 16.3809 5.221 16.1129 5.50331 16.0271C5.78561 15.9414 5.95357 16.1236 6.04291 16.4059C6.51461 17.9532 8.34781 23.1205 12.1321 24.5892C12.4073 24.6964 12.8361 24.9573 12.6038 25.404C12.4502 25.6934 11.957 25.8971 11.2888 25.5934ZM4.53132 8.80152C4.3312 8.38699 4.24901 7.99391 3.15909 7.54007C2.88394 7.42572 2.70169 7.172 2.77673 6.88612C2.85177 6.60024 3.13765 6.38583 3.55218 6.4573C4.89939 6.68958 5.19241 8.05823 5.24959 8.5335C5.30319 8.99091 4.73501 9.21604 4.53132 8.80152ZM34.6166 25.5934C38.769 23.7101 39.9911 18.7966 40.6415 16.6632C40.7273 16.3809 40.6844 16.1129 40.4021 16.0271C40.1198 15.9414 39.9518 16.1236 39.8625 16.4059C39.3908 17.9532 37.5576 23.1205 33.7732 24.5892C33.4981 24.6964 33.0693 24.9573 33.3015 25.404C33.4552 25.6934 33.9483 25.8971 34.6166 25.5934ZM41.3741 8.80152C41.5742 8.38699 41.6564 7.99391 42.7463 7.54007C43.0214 7.42572 43.2037 7.172 43.1286 6.88612C43.0536 6.60024 42.7677 6.38583 42.3532 6.4573C41.006 6.68958 40.713 8.05823 40.6558 8.5335C40.6022 8.99091 41.1739 9.21604 41.3741 8.80152ZM21.2195 10.5597C21.4375 10.113 21.8199 9.50192 23.067 9.24463C23.5459 9.14457 23.6853 8.93731 23.6424 8.62284C23.5566 7.96889 22.7418 8.01535 22.3023 8.11898C20.8372 8.46203 20.512 9.76279 20.4512 10.2774C20.3905 10.7669 21.0051 11.0064 21.2195 10.5597Z" fill="#FFF59D"/>
<defs>
<clipPath id="clip0_89_21560">
<rect width="43.3333" height="43.3333" fill="white" transform="translate(1.2041 21.6667)"/>
</clipPath>
</defs>
</svg>
