<svg width="316" height="421" viewBox="0 0 316 421" fill="none" xmlns="http://www.w3.org/2000/svg">
<path d="M69.7803 3.78261H69.4652C63.7033 2.22378 57.459 1.96616 51.5041 3.04159C51.3702 3.08972 51.2243 3.11599 51.0759 3.11871C50.9276 3.12142 50.7801 3.10051 50.6433 3.05734C50.5065 3.01417 50.3834 2.94972 50.2822 2.86825C50.1809 2.78677 50.1039 2.69013 50.056 2.58468C50.0082 2.47923 49.9907 2.36736 50.0047 2.25646C50.0186 2.14556 50.0637 2.03813 50.137 1.94127C50.2104 1.84441 50.3102 1.76031 50.43 1.69451C50.5497 1.62872 50.6867 1.58272 50.8319 1.55955C51.147 1.55955 58.6675 -0.427018 70.0954 2.26903C70.374 2.30039 70.6246 2.41353 70.792 2.58355C70.9594 2.75356 71.03 2.96653 70.9882 3.17561C70.9465 3.38468 70.7957 3.57274 70.5692 3.6984C70.3427 3.82406 70.0589 3.87703 69.7803 3.84567V3.78261Z" fill="#263238"/>
<path d="M131.535 201.287C131.535 201.287 75 216.639 75 217.782C75 218.924 93.0812 411.854 93.0812 411.854H244.585L255 202.824C252.024 200.751 248.944 198.83 245.772 197.07C243.835 196.301 200.777 197.838 200.777 197.838L131.535 201.287Z" fill="#263238"/>
<path d="M244.548 412.854H93.114C92.8563 412.851 92.6086 412.755 92.4171 412.583C92.2256 412.411 92.1032 412.175 92.0729 411.92C90.2198 392.165 74 218.918 74 217.755C74 216.591 74 215.802 131.28 200.264H131.509L200.698 196.816C210.859 196.462 244.152 195.341 246.109 196.13C249.367 197.895 252.516 199.851 255.541 201.988C255.687 202.086 255.806 202.22 255.886 202.376C255.966 202.532 256.005 202.706 255.999 202.881L245.589 411.899C245.568 412.16 245.449 412.403 245.256 412.58C245.063 412.757 244.81 412.855 244.548 412.854ZM94.051 410.777H243.569L253.855 203.318C251.106 201.394 248.257 199.619 245.318 198C243.444 197.543 217.001 198.27 200.76 198.851L131.717 202.404C111.145 207.991 80.413 216.571 76.1238 218.419C77.0816 229.408 92.7392 396.589 94.0718 410.777H94.051Z" fill="#263238"/>
<path d="M167.649 247.725C176.473 250.791 204.834 198.372 204.834 198.372L205 197.854L201.014 198L132 201.439C132 201.439 158.846 244.659 167.649 247.725Z" fill="#FF3DF0"/>
<path d="M168.296 248.854C167.95 248.863 167.605 248.806 167.28 248.688C158.239 245.562 132.238 203.79 131.139 202.01C131.048 201.856 131 201.681 131 201.502C131 201.324 131.048 201.149 131.139 200.995C131.221 200.833 131.345 200.695 131.498 200.597C131.651 200.499 131.828 200.443 132.01 200.436L200.911 197L204.933 196.855C205.098 196.849 205.263 196.883 205.411 196.955C205.559 197.027 205.687 197.135 205.784 197.269C205.887 197.403 205.956 197.559 205.985 197.725C206.014 197.891 206.001 198.061 205.949 198.222L205.784 198.739C200.994 207.474 178.186 248.854 168.296 248.854ZM133.835 202.424C141.901 215.278 161.287 244.424 167.964 246.742C173.728 248.812 192.368 218.942 203.212 198.987H200.911L133.835 202.424Z" fill="#263238"/>
<path d="M137.065 164.854L134 195.733L168.022 230.854L199 193.788L191.732 164.854H137.065Z" fill="white"/>
<path d="M168.027 231.854C167.754 231.848 167.495 231.736 167.303 231.541L133.292 196.466C133.191 196.353 133.114 196.221 133.064 196.078C133.014 195.935 132.993 195.783 133.002 195.631L136.064 164.794C136.09 164.536 136.21 164.297 136.401 164.123C136.592 163.949 136.841 163.854 137.098 163.855H191.715C191.943 163.849 192.166 163.922 192.347 164.063C192.528 164.204 192.655 164.403 192.708 164.627L199.969 193.543C200.008 193.705 200.01 193.875 199.974 194.038C199.938 194.2 199.866 194.353 199.762 194.483L168.73 231.479C168.639 231.59 168.525 231.681 168.397 231.746C168.269 231.81 168.129 231.847 167.985 231.854H168.027ZM135.112 195.339L167.985 229.245L197.838 193.543L190.908 165.943H138.029L135.112 195.339Z" fill="#263238"/>
<path d="M128.056 126.695C128.056 126.695 123.667 123.506 121.78 129.551C121.067 131.816 120.839 134.21 121.112 136.572C121.384 138.934 122.15 141.209 123.359 143.246C124.918 145.81 129 151.854 129 151.854L128.056 126.695Z" fill="white"/>
<path d="M128.979 152.853C128.811 152.852 128.645 152.809 128.496 152.729C128.347 152.65 128.219 152.535 128.122 152.395C127.958 152.145 124.04 146.313 122.49 143.771C121.21 141.602 120.4 139.179 120.115 136.664C119.83 134.149 120.076 131.6 120.837 129.19C121.027 128.27 121.433 127.411 122.019 126.686C122.606 125.96 123.355 125.39 124.204 125.024C124.956 124.83 125.74 124.802 126.504 124.942C127.267 125.082 127.993 125.387 128.632 125.837C128.759 125.931 128.863 126.052 128.937 126.193C129.011 126.334 129.053 126.49 129.06 126.649L129.999 151.791C130.008 152.018 129.943 152.241 129.814 152.426C129.684 152.611 129.498 152.747 129.285 152.811C129.186 152.845 129.083 152.859 128.979 152.853ZM125.53 126.878C125.301 126.838 125.066 126.838 124.836 126.878C123.959 127.191 123.265 128.149 122.796 129.732C122.127 131.852 121.91 134.094 122.16 136.308C122.41 138.521 123.121 140.653 124.245 142.563C125.061 143.896 126.591 146.229 127.836 148.125L127.04 127.378C126.581 127.095 126.064 126.924 125.53 126.878Z" fill="#263238"/>
<path d="M200.048 126.695C200.048 126.695 204.445 123.506 206.212 129.551C206.929 131.815 207.16 134.208 206.891 136.57C206.622 138.932 205.858 141.208 204.65 143.246C203.089 145.81 199 151.854 199 151.854L200.048 126.695Z" fill="white"/>
<path d="M199.02 152.854H198.694C198.486 152.782 198.307 152.644 198.182 152.46C198.057 152.276 197.993 152.056 198.001 151.832L198.939 126.652C198.941 126.491 198.981 126.333 199.056 126.191C199.13 126.05 199.237 125.929 199.367 125.838C200.006 125.388 200.731 125.083 201.495 124.942C202.258 124.802 203.042 124.83 203.794 125.025C204.642 125.391 205.391 125.962 205.977 126.688C206.563 127.415 206.969 128.275 207.16 129.197C207.925 131.611 208.172 134.165 207.883 136.685C207.594 139.206 206.777 141.633 205.487 143.8C203.937 146.345 200.02 152.145 199.857 152.437C199.761 152.57 199.635 152.678 199.489 152.751C199.343 152.824 199.183 152.859 199.02 152.854ZM200.958 127.236L200.183 148.202C201.427 146.303 202.957 144.03 203.773 142.632C204.892 140.717 205.599 138.581 205.849 136.366C206.099 134.15 205.885 131.906 205.222 129.781C204.732 128.196 204.039 127.236 203.182 126.923C202.803 126.839 202.411 126.833 202.029 126.904C201.648 126.976 201.284 127.124 200.958 127.34V127.236Z" fill="#263238"/>
<path d="M128 120.662C128 120.662 128.621 155.768 130.526 161.364C132.432 166.961 151.732 184.08 156.163 186.311C160.595 188.541 171.032 188.19 175.464 186.311C179.895 184.431 194.453 169.583 197.601 160.435C200.749 151.287 197.601 119.402 197.601 119.402C197.601 119.402 190.974 103.315 176.416 96.046C161.858 88.7769 147.3 95.4264 140.342 101.105C133.384 106.784 128 120.662 128 120.662Z" fill="white"/>
<path d="M165.391 188.835C162.083 188.97 158.785 188.401 155.709 187.167C151.427 185.082 131.67 167.672 129.601 161.397C127.677 155.579 127.036 121.448 127.015 119.988C126.995 119.857 126.995 119.723 127.015 119.592C127.242 119.008 132.58 105.247 139.655 99.4093C147.93 92.5496 162.681 87.066 176.893 94.1968C191.603 101.599 198.285 117.632 198.574 118.299C198.594 118.396 198.594 118.495 198.574 118.591C198.699 119.926 201.719 151.117 198.574 160.458C195.43 169.799 180.617 185.145 175.818 187.188C172.469 188.364 168.937 188.922 165.391 188.835ZM129.084 120.155C129.311 132.415 130.097 156.351 131.546 160.75C133.325 166.109 152.233 183.122 156.64 185.312C161.047 187.501 170.894 187.084 175.052 185.312C179.211 183.539 193.671 168.631 196.609 159.791C199.547 150.951 196.816 121.427 196.609 118.987C195.947 117.424 189.306 102.787 175.921 96.0524C162.536 89.3178 148.841 94.5721 141 101.036C134.794 106.206 129.746 118.508 129.084 120.155Z" fill="#263238"/>
<path d="M154.78 123.783H154.465C148.703 122.224 142.459 121.966 136.504 123.042C136.37 123.09 136.224 123.116 136.076 123.119C135.928 123.121 135.78 123.101 135.643 123.057C135.506 123.014 135.383 122.95 135.282 122.868C135.181 122.787 135.104 122.69 135.056 122.585C135.008 122.479 134.991 122.367 135.005 122.256C135.019 122.146 135.064 122.038 135.137 121.941C135.21 121.844 135.31 121.76 135.43 121.695C135.55 121.629 135.687 121.583 135.832 121.56C136.147 121.56 143.668 119.573 155.095 122.269C155.374 122.3 155.625 122.414 155.792 122.584C155.959 122.754 156.03 122.967 155.988 123.176C155.946 123.385 155.796 123.573 155.569 123.698C155.343 123.824 155.059 123.877 154.78 123.846V123.783Z" fill="#263238"/>
<g clip-path="url(#clip0_299_137)">
<path d="M153.657 69.219L133.996 44.5854L124.485 69.4896L153.657 69.219Z" fill="#39FF14"/>
<path d="M163.228 38.9222L146.352 71.5063L180.703 71.1876L163.228 38.9222Z" fill="#39FF14"/>
<path d="M173.683 69.0331L192.883 44.039L202.855 68.7625L173.683 69.0331Z" fill="#39FF14"/>
<path d="M191.547 63.9333L178.749 33.5143L163.643 64.1948L163.624 64.2028L163.606 64.1925L147.933 33.7976L135.701 64.4513C127.393 53.1242 119.691 45.8904 119.691 45.8904C119.691 45.8904 124.501 79.1082 124.798 111.169L203.315 110.441C203.017 78.3799 207.211 45.0785 207.211 45.0785C207.211 45.0785 199.644 52.454 191.547 63.9333Z" fill="#39FF14"/>
<path d="M163.767 91.6692C169.098 91.6197 173.379 87.2581 173.33 81.9273C173.28 76.5965 168.919 72.3151 163.588 72.3646C158.257 72.414 153.976 76.7756 154.025 82.1064C154.075 87.4372 158.436 91.7186 163.767 91.6692Z" fill="#5C913B"/>
<path d="M185.997 88.1231C189.484 88.0907 192.284 85.2382 192.251 81.7518C192.219 78.2653 189.367 75.4653 185.88 75.4976C182.394 75.5299 179.594 78.3825 179.626 81.8689C179.658 85.3553 182.511 88.1554 185.997 88.1231Z" fill="#981CEB"/>
<path d="M202.708 86.8532C205.579 86.8266 207.884 84.4779 207.858 81.6072C207.831 78.7366 205.483 76.431 202.612 76.4576C199.741 76.4843 197.436 78.833 197.462 81.7037C197.489 84.5743 199.838 86.8799 202.708 86.8532Z" fill="#DD2E44"/>
<path d="M141.471 88.5361C144.957 88.5038 147.757 85.6513 147.725 82.1649C147.693 78.6784 144.84 75.8783 141.354 75.9107C137.867 75.943 135.067 78.7955 135.1 82.282C135.132 85.7684 137.984 88.5685 141.471 88.5361Z" fill="#981CEB"/>
<path d="M124.74 87.5764C127.61 87.5498 129.916 85.201 129.889 82.3304C129.862 79.4597 127.514 77.1542 124.643 77.1808C121.772 77.2074 119.467 79.5561 119.494 82.4268C119.52 85.2975 121.869 87.603 124.74 87.5764Z" fill="#DD2E44"/>
<path d="M203.339 113.058L124.823 113.786C124.129 113.793 123.46 113.523 122.965 113.037C122.47 112.551 122.188 111.888 122.181 111.193C122.175 110.499 122.444 109.831 122.931 109.336C123.417 108.84 124.08 108.558 124.774 108.552L203.291 107.824C203.985 107.817 204.653 108.087 205.148 108.573C205.644 109.059 205.926 109.722 205.932 110.417C205.939 111.111 205.669 111.779 205.183 112.274C204.696 112.77 204.033 113.052 203.339 113.058ZM203.255 103.934L124.738 104.663C124.044 104.669 123.376 104.4 122.88 103.913C122.385 103.427 122.103 102.764 122.097 102.07C122.09 101.376 122.36 100.707 122.846 100.212C123.332 99.7167 123.995 99.4348 124.689 99.4284L203.206 98.7C203.9 98.6936 204.568 98.9632 205.064 99.4494C205.559 99.9357 205.841 100.599 205.848 101.293C205.854 101.987 205.584 102.655 205.098 103.151C204.612 103.646 203.949 103.928 203.255 103.934Z" fill="#FFAC33"/>
<path d="M120.162 49.569C122.196 49.5501 123.829 47.8861 123.81 45.8524C123.791 43.8186 122.127 42.1853 120.094 42.2041C118.06 42.223 116.426 43.887 116.445 45.9207C116.464 47.9545 118.128 49.5878 120.162 49.569Z" fill="#39FF14"/>
<path d="M134.025 47.7051C135.748 47.6892 137.132 46.2795 137.116 44.5565C137.1 42.8335 135.69 41.4497 133.967 41.4657C132.244 41.4817 130.861 42.8914 130.877 44.6144C130.893 46.3373 132.302 47.7211 134.025 47.7051Z" fill="#39FF14"/>
<path d="M147.976 38.4697C150.555 38.4458 152.626 36.336 152.602 33.7573C152.578 31.1786 150.468 29.1076 147.89 29.1315C145.311 29.1554 143.24 31.2652 143.264 33.8439C143.288 36.4226 145.398 38.4936 147.976 38.4697Z" fill="#39FF14"/>
<path d="M206.807 48.7653C208.841 48.7464 210.475 47.0824 210.456 45.0487C210.437 43.0149 208.773 41.3815 206.739 41.4004C204.705 41.4193 203.072 43.0832 203.091 45.117C203.11 47.1507 204.774 48.7841 206.807 48.7653Z" fill="#39FF14"/>
<path d="M192.912 47.1588C194.635 47.1428 196.019 45.7331 196.003 44.0101C195.987 42.2871 194.577 40.9033 192.854 40.9193C191.131 40.9353 189.747 42.345 189.763 44.068C189.779 45.7909 191.189 47.1747 192.912 47.1588Z" fill="#39FF14"/>
<path d="M178.792 38.1836C181.371 38.1597 183.442 36.0498 183.418 33.4712C183.394 30.8925 181.284 28.8214 178.705 28.8454C176.127 28.8693 174.056 30.9791 174.079 33.5578C174.103 36.1365 176.213 38.2075 178.792 38.1836Z" fill="#39FF14"/>
<path d="M163.27 43.5913C165.849 43.5674 167.92 41.4576 167.896 38.8789C167.872 36.3002 165.762 34.2292 163.184 34.2531C160.605 34.277 158.534 36.3868 158.558 38.9655C158.582 41.5442 160.692 43.6152 163.27 43.5913Z" fill="#39FF14"/>
</g>
<path d="M170.048 123.854C169.841 123.853 169.639 123.8 169.468 123.701C169.296 123.602 169.163 123.462 169.084 123.298C169.03 123.19 169.001 123.074 169 122.956C168.999 122.838 169.026 122.721 169.079 122.613C169.131 122.504 169.209 122.405 169.307 122.323C169.405 122.24 169.522 122.176 169.65 122.132C170.111 121.971 181.009 118.186 189.309 120.733C189.57 120.814 189.783 120.981 189.901 121.196C190.019 121.411 190.032 121.658 189.938 121.881C189.843 122.105 189.649 122.287 189.397 122.388C189.146 122.489 188.858 122.5 188.596 122.419C181.051 120.105 170.551 123.747 170.446 123.783C170.322 123.832 170.186 123.857 170.048 123.854Z" fill="#263238"/>
<path d="M198.965 141.854C188.658 146.721 184.679 166.812 184.679 166.812C184.679 166.812 170.826 157.599 165.157 156.413C159.488 155.228 145.615 167.852 145.615 167.852L138.998 155.789C136.258 150.841 132.897 146.27 129 142.187C129.412 150.506 129.989 158.68 130.814 161.176C132.711 166.895 151.923 184.053 156.334 186.3C160.746 188.546 171.136 188.192 175.547 186.3C179.958 184.407 194.45 169.453 197.584 160.24C198.841 156.6 199.109 149.321 198.965 141.854Z" fill="#263238"/>
<path d="M165.594 188.835C162.294 188.969 159.002 188.404 155.933 187.176C151.659 185.101 131.943 167.78 129.879 161.536C129.136 159.337 128.516 152.865 128 142.307C127.998 142.096 128.058 141.889 128.172 141.712C128.285 141.536 128.448 141.396 128.64 141.311C128.829 141.221 129.041 141.195 129.245 141.236C129.45 141.277 129.636 141.383 129.775 141.539C133.742 145.68 137.163 150.316 139.953 155.334C143.277 161.37 145.094 164.689 145.961 166.224C149.429 163.196 160.144 154.276 165.45 155.437C170.301 156.516 180.521 162.926 184.03 165.229C185.166 160.375 189.398 145.273 198.482 140.979C198.634 140.897 198.804 140.854 198.977 140.854C199.15 140.854 199.32 140.897 199.473 140.979C199.617 141.075 199.737 141.204 199.823 141.356C199.909 141.507 199.959 141.676 199.968 141.85C200.133 150.978 199.658 157.263 198.544 160.52C195.302 169.938 180.624 185.081 175.834 187.114C172.549 188.292 169.082 188.875 165.594 188.835ZM130.209 145.066C130.787 155.769 131.406 159.586 131.819 160.893C133.595 166.224 152.464 183.151 156.862 185.33C161.259 187.508 171.086 187.093 175.235 185.33C179.385 183.566 193.816 168.734 196.747 159.939C197.718 157.159 198.172 151.641 198.089 143.696C189.336 149.38 185.847 166.95 185.806 167.137C185.772 167.306 185.699 167.464 185.591 167.598C185.483 167.732 185.344 167.837 185.186 167.905C185.028 167.966 184.857 167.988 184.689 167.97C184.52 167.952 184.358 167.894 184.216 167.801C184.092 167.801 170.446 158.694 165.016 157.429C160.887 156.475 150.131 165.166 146.436 168.589C146.321 168.698 146.184 168.778 146.033 168.825C145.883 168.872 145.724 168.883 145.569 168.859C145.418 168.83 145.275 168.769 145.15 168.68C145.026 168.59 144.922 168.474 144.846 168.34C144.846 168.34 143.257 165.478 138.219 156.288C135.951 152.273 133.266 148.511 130.209 145.066Z" fill="#263238"/>
<path d="M169.931 165.854H159.048C158.772 165.849 158.508 165.742 158.313 165.556C158.118 165.37 158.005 165.118 158 164.854C158 164.589 158.11 164.335 158.307 164.147C158.504 163.96 158.77 163.854 159.048 163.854H169.952C170.23 163.854 170.496 163.96 170.693 164.147C170.89 164.335 171 164.589 171 164.854C170.995 165.122 170.879 165.376 170.679 165.563C170.48 165.75 170.211 165.855 169.931 165.854Z" fill="white"/>
<path d="M134.294 188.854L160 211.938L150.399 233.854L127 201.718L134.294 188.854Z" fill="#FF3DF0"/>
<path d="M150.34 235.854C150.174 235.857 150.009 235.818 149.861 235.742C149.713 235.665 149.586 235.553 149.491 235.415L126.154 202.624C126.053 202.457 126 202.266 126 202.07C126 201.875 126.053 201.683 126.154 201.517L133.428 188.392C133.504 188.255 133.609 188.137 133.736 188.046C133.863 187.956 134.008 187.895 134.162 187.869C134.315 187.843 134.472 187.852 134.621 187.895C134.771 187.939 134.908 188.016 135.024 188.12L160.661 211.674C160.822 211.816 160.933 212.007 160.978 212.217C161.023 212.428 160.999 212.648 160.91 212.844L151.356 235.227C151.283 235.399 151.165 235.548 151.016 235.658C150.866 235.768 150.69 235.836 150.506 235.854H150.34ZM128.226 201.955L150.112 232.699L158.672 212.698L134.527 190.565L128.226 201.955Z" fill="#263238"/>
<path d="M198.706 188.854L173 211.938L182.58 233.854L206 201.718L198.706 188.854Z" fill="#FF3DF0"/>
<path d="M182.657 235.854C182.474 235.833 182.299 235.764 182.15 235.654C182.001 235.544 181.883 235.397 181.808 235.226L172.09 212.856C172.001 212.66 171.977 212.44 172.022 212.229C172.067 212.018 172.178 211.827 172.338 211.685L197.97 188.123C198.086 188.016 198.225 187.937 198.376 187.894C198.527 187.85 198.686 187.843 198.84 187.872C198.993 187.896 199.138 187.956 199.264 188.047C199.39 188.137 199.493 188.256 199.566 188.394L206.839 201.524C206.944 201.689 207 201.882 207 202.078C207 202.275 206.944 202.467 206.839 202.632L183.507 235.436C183.411 235.571 183.283 235.68 183.135 235.753C182.986 235.826 182.822 235.861 182.657 235.854ZM174.369 212.689L182.906 232.697L204.787 201.942L198.571 190.548L174.369 212.689Z" fill="#263238"/>
<path d="M16.9928 298.854C16.9928 298.854 -0.158459 314.906 1.0622 319.84C2.28285 324.774 50.9229 389.332 50.9229 389.332C50.9229 389.332 54.1917 402.489 56.2399 405.779C58.2882 409.068 65.6328 412.024 65.6328 412.024C67.8706 414.697 70.3274 417.176 72.9774 419.436C74.6119 420.247 80.3427 419.831 80.7565 418.603C81.1703 417.374 79.9289 412.024 78.2945 406.674C76.9394 402.699 76.7953 398.407 77.8807 394.349C78.7083 392.705 84.4392 386.521 85.6598 386.938C86.8805 387.354 91.37 392.705 92.6113 395.577C93.8527 398.45 95.0527 398.867 95.8802 396.389C96.7078 393.912 93.0044 379.547 92.1976 377.486C91.3907 375.425 72.1705 369.159 67.681 367.202C64.276 365.532 60.9983 363.611 57.8744 361.456L51.3366 332.934L16.9928 298.854Z" fill="white"/>
<path d="M75.8257 420.846C74.6972 420.899 73.5701 420.714 72.5164 420.304C69.7731 418.079 67.2579 415.582 65.0085 412.852C63.6848 412.311 57.3558 409.584 55.3495 406.357C53.3433 403.131 50.4063 391.577 49.972 389.829C44.4082 382.439 1.30491 325.089 0.0846127 320.134C-1.2391 314.868 13.3631 300.9 16.3001 298.152C16.4934 297.961 16.7533 297.854 17.024 297.854C17.2947 297.854 17.5546 297.961 17.7479 298.152L52.0609 332.271C52.1901 332.412 52.2825 332.584 52.3298 332.77L58.7829 360.748C61.7489 362.792 64.8597 364.615 68.0902 366.202C69.538 366.847 72.5164 367.95 75.9704 369.199C88.1114 373.633 92.5168 375.444 93.1373 377.026C93.7578 378.609 97.853 393.68 96.8396 396.657C96.3432 398.176 95.5986 398.946 94.6472 398.988C93.158 399.092 92.2066 397.26 91.6481 395.928C90.0659 392.915 87.965 390.209 85.4433 387.934C82.8657 389.812 80.6211 392.113 78.804 394.741C77.8421 398.564 78.0074 402.586 79.2797 406.316C80.0243 408.73 82.4029 416.828 81.7203 418.806C81.607 419.11 81.4245 419.383 81.1875 419.604C80.9505 419.824 80.6654 419.986 80.3552 420.075C78.8982 420.583 77.3675 420.843 75.8257 420.846ZM17.0033 300.359C10.1365 306.874 1.36696 316.741 2.09086 319.635C2.93887 323.09 32.2466 362.85 51.73 388.725C51.8142 388.843 51.8708 388.978 51.8955 389.121C52.8055 392.722 55.4943 402.673 57.0869 405.254C58.6795 407.835 64.0157 410.25 65.9806 410.999C66.1381 411.065 66.2793 411.164 66.3942 411.291C68.5181 413.887 70.8718 416.284 73.4264 418.452C75.5522 418.982 77.7876 418.851 79.8382 418.077C79.4068 414.279 78.5463 410.542 77.2735 406.94C75.5775 401.361 75.9911 395.741 76.9426 393.826C77.4389 392.806 83.5818 385.124 85.9603 385.915C87.6977 386.498 92.3514 392.368 93.5303 395.116C93.7458 395.741 94.0755 396.32 94.5024 396.823C94.6493 396.574 94.7672 396.308 94.854 396.032C95.4952 394.075 92.1652 380.253 91.1931 377.817C90.3244 376.693 80.8516 373.238 75.2465 371.177C71.7511 369.907 68.7314 368.804 67.2215 368.117C63.7627 366.412 60.4309 364.457 57.2524 362.267C57.0449 362.116 56.8982 361.894 56.8387 361.643L50.3649 333.561L17.0033 300.359Z" fill="#263238"/>
<path d="M100.608 209.854C105.404 220.381 107.923 231.798 107.998 243.362C108.074 254.925 105.705 266.375 101.046 276.963C89.2552 304.039 62.4809 334.844 62.4809 334.844C62.4809 334.844 43.9705 335.594 32.0338 324.43C24.4849 317.252 17.7651 309.253 12 300.582C12 300.582 70.1814 221.768 75.5654 217.144C80.9495 212.52 100.608 209.854 100.608 209.854Z" fill="#FF3DF0"/>
<path d="M61.634 335.854C57.626 335.854 42.095 335.188 31.3861 325.196C23.7845 317.946 17.0079 309.883 11.179 301.152C11.0623 300.98 11 300.777 11 300.569C11 300.361 11.0623 300.158 11.179 299.986C13.5588 296.759 69.5039 221.047 74.9314 216.404C80.359 211.762 99.7101 208.973 100.524 208.868C100.736 208.833 100.955 208.866 101.146 208.964C101.338 209.061 101.493 209.217 101.589 209.41C106.399 220.085 108.923 231.644 108.998 243.348C109.074 255.052 106.699 266.642 102.027 277.378C90.3164 304.233 63.5545 335.168 63.2832 335.48C63.1947 335.588 63.0835 335.676 62.9572 335.738C62.831 335.799 62.6929 335.832 62.5525 335.834L61.634 335.854ZM13.3291 300.631C18.9777 308.984 25.507 316.71 32.8056 323.676C43.2431 333.44 59.1917 333.856 62.0307 333.773C65.0158 330.275 89.1682 301.568 100.149 276.546C104.652 266.209 106.975 255.06 106.975 243.79C106.975 232.52 104.652 221.37 100.149 211.033C96.5371 211.575 80.9017 214.114 76.3718 217.986C72.1551 221.546 33.5571 273.257 13.3291 300.631Z" fill="#263238"/>
<path d="M83.9103 307.854C83.6919 307.856 83.4788 307.785 83.3023 307.653C83.1258 307.521 82.9953 307.334 82.9297 307.119L70.0393 262.293C69.9634 262.014 69.9983 261.716 70.1362 261.464C70.2741 261.212 70.5038 261.027 70.7747 260.949C71.0456 260.871 71.3355 260.907 71.5807 261.048C71.8259 261.19 72.0063 261.426 72.0822 261.705L81.6427 294.915L76.842 252.021C76.8133 251.746 76.8917 251.47 77.06 251.253C77.2284 251.037 77.4731 250.898 77.7409 250.866C77.8729 250.845 78.0076 250.853 78.1368 250.887C78.266 250.922 78.3869 250.984 78.4921 251.068C78.5973 251.153 78.6846 251.259 78.7486 251.379C78.8126 251.5 78.8521 251.632 78.8644 251.769L84.993 306.699C85.0231 306.96 84.9552 307.222 84.8034 307.433C84.6515 307.644 84.427 307.787 84.1759 307.833L83.9103 307.854Z" fill="#263238"/>
<path d="M255 202.802C252.045 200.738 248.986 198.827 245.837 197.074C244.968 196.723 235.66 196.847 225.772 197.074C223.704 201.975 220.767 212.19 221.015 231.029C221.366 258.924 224.159 294.016 249.539 312.854L255 202.802Z" fill="#FF3DF0"/>
<path d="M249.538 313.854C249.314 313.856 249.096 313.783 248.918 313.648C224.145 295.269 220.429 261.607 220.016 231.044C219.768 212.458 222.493 202.132 224.847 196.701C224.92 196.519 225.045 196.364 225.207 196.254C225.369 196.143 225.559 196.083 225.755 196.081C244.913 195.627 245.78 195.978 246.193 196.081C249.423 197.836 252.546 199.78 255.545 201.905C255.69 202.003 255.807 202.135 255.887 202.29C255.966 202.446 256.005 202.619 256 202.793L250.549 312.739C250.541 312.926 250.481 313.106 250.375 313.259C250.269 313.413 250.122 313.533 249.951 313.607C249.842 313.731 249.698 313.817 249.538 313.854ZM226.498 198.208C224.31 203.619 221.874 213.614 222.101 231.106C222.472 260.43 225.961 292.687 248.609 310.798L253.914 203.413C251.189 201.5 248.364 199.736 245.45 198.126C245.078 198.043 242.374 197.837 226.498 198.208Z" fill="#263238"/>
<path d="M274.402 277.854C274.402 277.854 287.373 265.04 291.655 250.328C295.936 235.615 259 242.431 259 242.431C259 242.431 264.134 263.346 274.402 277.854Z" fill="#263238"/>
<path d="M274.306 278.85C274.155 278.837 274.008 278.792 273.876 278.719C273.743 278.645 273.629 278.544 273.54 278.422C263.309 263.929 258.089 242.892 258.027 242.688C257.995 242.553 257.991 242.413 258.016 242.276C258.041 242.139 258.094 242.009 258.172 241.893C258.326 241.665 258.563 241.504 258.835 241.445C259.891 241.261 284.745 236.736 291.31 243.83C292.12 244.741 292.665 245.851 292.887 247.043C293.11 248.234 293.001 249.462 292.573 250.597C288.286 265.397 275.673 278.014 275.135 278.544C275.029 278.654 274.9 278.738 274.756 278.791C274.613 278.844 274.459 278.864 274.306 278.85ZM260.243 243.259C261.382 247.54 266.167 263.97 274.451 276.221C277.392 273.061 287.002 262.135 290.502 250.047C290.83 249.243 290.928 248.366 290.786 247.51C290.643 246.655 290.266 245.855 289.695 245.196C285.117 240.263 267.824 242.036 260.243 243.259Z" fill="#263238"/>
<path d="M226.311 231.077C225.36 238.647 226.601 246.333 229.883 253.205C233.165 260.077 238.348 265.84 244.803 269.795L274 277.854C274 277.854 260.357 257.54 260.727 236.831C261.097 216.122 269.151 203.534 269.151 203.534L254.768 202.392L244.906 200.854C242.836 203.032 241.277 205.651 240.344 208.519" fill="#FF3DF0"/>
<path d="M274.879 278.849H274.608L244.954 270.822H244.724C237.985 266.74 232.57 260.816 229.125 253.758C225.68 246.701 224.351 238.807 225.296 231.019C225.332 230.745 225.475 230.497 225.693 230.326C225.912 230.156 226.188 230.077 226.465 230.106C226.738 230.138 226.988 230.275 227.16 230.489C227.332 230.702 227.412 230.975 227.383 231.247C226.494 238.592 227.739 246.036 230.971 252.7C234.203 259.363 239.287 264.968 245.622 268.852L272.563 276.153C268.973 270.241 260.042 253.814 260.355 236.868C260.385 225.612 263.058 214.519 268.16 204.47L255.159 203.453L245.58 201.981C243.843 204.044 242.486 206.396 241.573 208.929C241.523 209.056 241.447 209.171 241.352 209.269C241.256 209.367 241.142 209.445 241.016 209.499C240.762 209.608 240.474 209.612 240.217 209.51C239.959 209.408 239.753 209.209 239.644 208.956C239.534 208.703 239.53 208.417 239.633 208.162C240.629 205.132 242.314 202.371 244.557 200.093C244.67 200.001 244.8 199.933 244.94 199.893C245.08 199.854 245.227 199.844 245.371 199.865L255.388 201.4L269.996 202.52C270.177 202.536 270.35 202.598 270.5 202.7C270.649 202.801 270.771 202.939 270.852 203.101C270.939 203.256 270.985 203.431 270.985 203.609C270.985 203.787 270.939 203.962 270.852 204.117C270.852 204.241 262.901 216.79 262.504 236.889C262.108 256.988 275.672 277.065 275.818 277.273C275.937 277.448 276 277.653 276 277.864C276 278.075 275.937 278.28 275.818 278.455C275.707 278.594 275.563 278.702 275.399 278.771C275.235 278.84 275.056 278.867 274.879 278.849Z" fill="#263238"/>
<path d="M267.033 200.129C267.033 200.129 259.719 194.36 254.322 190.527C248.926 186.694 247.405 183.216 243.55 175.134C239.695 167.052 239.382 164.365 233.548 160.137C227.713 155.909 230.485 155.138 232.006 154.367C236.133 153.474 240.435 153.882 244.321 155.534C247.78 157.45 252.405 164.365 252.405 164.365L257.781 165.532L269.909 120.02C269.986 119.736 270.118 119.471 270.299 119.24C270.479 119.008 270.704 118.815 270.96 118.672C271.216 118.528 271.499 118.437 271.79 118.404C272.082 118.371 272.377 118.396 272.659 118.478C273.137 118.627 273.55 118.931 273.834 119.343C274.117 119.755 274.254 120.25 274.222 120.749L272.034 152.451L275.097 153.222L288.162 117.312C288.263 117.032 288.42 116.775 288.624 116.557C288.827 116.339 289.072 116.164 289.345 116.044C289.617 115.923 289.912 115.859 290.21 115.855C290.508 115.851 290.803 115.907 291.079 116.02L291.954 116.395C292.425 116.57 292.817 116.908 293.058 117.348C293.299 117.788 293.374 118.3 293.267 118.791L287.016 155.534L302.956 125.789C303.226 125.302 303.669 124.933 304.197 124.756C304.726 124.578 305.302 124.605 305.811 124.831L306.415 125.123C306.898 125.342 307.284 125.729 307.502 126.212C307.721 126.695 307.757 127.24 307.603 127.747L297.789 159.762L311.125 146.765C311.329 146.54 311.58 146.362 311.861 146.245C312.141 146.127 312.444 146.073 312.748 146.085C313.051 146.097 313.349 146.175 313.619 146.314C313.89 146.453 314.126 146.649 314.313 146.89L314.458 147.056C314.754 147.399 314.939 147.824 314.987 148.274C315.036 148.724 314.946 149.179 314.729 149.577L302.394 171.676C302.394 171.676 298.226 187.819 297.789 190.527C297.446 192.492 296.93 194.423 296.247 196.297C296.247 196.297 306.665 219.355 305.853 230.894C305.04 242.434 299.31 255.89 297.018 257.056C294.726 258.223 286.599 259.743 277.785 258.202C272.596 257.327 267.544 255.772 262.762 253.578C262.762 253.578 255.469 224.416 269.304 203.587L267.033 200.129Z" fill="white"/>
<path d="M285.387 259.824C282.778 259.829 280.174 259.606 277.603 259.158C272.325 258.274 267.188 256.692 262.327 254.453C262.194 254.388 262.076 254.295 261.983 254.18C261.889 254.065 261.822 253.931 261.786 253.787C261.494 252.58 254.668 224.416 268.03 203.579L266.198 200.831C265.199 200.04 258.601 194.857 253.71 191.339C248.278 187.468 246.613 183.95 242.95 176.269L242.617 175.582C241.93 174.125 241.347 172.855 240.827 171.71C238.454 166.464 237.476 164.299 232.96 160.969C230.067 158.887 228.797 157.347 229.026 155.952C229.255 154.558 230.421 153.996 231.253 153.6L231.565 153.433C236.003 152.376 240.664 152.793 244.844 154.62C248.049 156.41 252.004 161.968 253.023 163.425L257.02 164.299L268.862 119.774C268.973 119.355 269.169 118.963 269.437 118.623C269.706 118.283 270.041 118.002 270.423 117.797C270.797 117.58 271.213 117.444 271.643 117.397C272.073 117.35 272.508 117.394 272.921 117.526C273.625 117.733 274.237 118.173 274.657 118.775C275.077 119.377 275.279 120.103 275.231 120.836L273.15 151.664L274.482 151.976L287.198 116.985C287.349 116.571 287.582 116.192 287.882 115.871C288.183 115.549 288.545 115.291 288.946 115.111C289.348 114.942 289.78 114.854 290.216 114.854C290.652 114.854 291.084 114.942 291.486 115.111L292.36 115.486C293.039 115.761 293.603 116.259 293.959 116.899C294.315 117.54 294.441 118.282 294.316 119.004L289.134 149.437L302.059 125.353C302.445 124.634 303.089 124.089 303.861 123.826C304.634 123.563 305.477 123.603 306.221 123.937L306.846 124.208C307.558 124.536 308.127 125.111 308.449 125.827C308.77 126.542 308.822 127.35 308.594 128.1L299.956 156.223L310.363 146.085C310.677 145.779 311.05 145.54 311.46 145.383C311.869 145.225 312.306 145.153 312.745 145.171C313.183 145.188 313.613 145.295 314.009 145.485C314.404 145.674 314.757 145.942 315.046 146.273L315.212 146.439C315.647 146.944 315.917 147.57 315.984 148.233C316.051 148.896 315.912 149.563 315.587 150.145L303.349 172.126C302.954 173.646 299.186 188.238 298.791 190.715C298.478 192.613 297.997 194.48 297.355 196.294C298.749 199.458 307.595 220.024 306.866 230.973C306.096 242.651 300.352 256.535 297.459 258.034C293.586 259.395 289.489 260.003 285.387 259.824ZM263.7 252.809C268.263 254.812 273.049 256.258 277.957 257.118C286.491 258.596 294.379 257.118 296.522 256.056C298.146 255.244 304.015 242.567 304.848 230.786C305.597 219.649 295.44 196.918 295.336 196.689C295.232 196.436 295.232 196.151 295.336 195.898C295.994 194.101 296.489 192.247 296.814 190.361C297.209 187.634 301.268 172.064 301.455 171.398C301.443 171.322 301.443 171.245 301.455 171.169L313.776 149.062C313.893 148.856 313.942 148.618 313.916 148.383C313.89 148.147 313.79 147.926 313.631 147.751L313.485 147.584C313.387 147.463 313.263 147.364 313.123 147.296C312.983 147.227 312.829 147.191 312.673 147.189C312.517 147.18 312.361 147.203 312.214 147.256C312.067 147.31 311.933 147.393 311.82 147.501L298.5 160.49C298.334 160.652 298.12 160.754 297.89 160.781C297.66 160.807 297.428 160.756 297.23 160.636C297.031 160.519 296.877 160.338 296.794 160.123C296.71 159.907 296.703 159.67 296.772 159.449L306.575 127.476C306.656 127.207 306.638 126.918 306.523 126.662C306.408 126.406 306.205 126.2 305.951 126.081L305.347 125.811C305.08 125.695 304.779 125.683 304.503 125.775C304.226 125.867 303.993 126.057 303.849 126.31L288.031 156.015C287.921 156.244 287.73 156.426 287.496 156.524C287.261 156.623 286.998 156.632 286.757 156.55C286.516 156.468 286.313 156.301 286.187 156.079C286.062 155.858 286.021 155.598 286.074 155.349L292.318 118.629C292.362 118.374 292.318 118.112 292.193 117.885C292.068 117.658 291.87 117.48 291.631 117.38L290.757 117.026C290.612 116.964 290.457 116.933 290.299 116.933C290.142 116.933 289.986 116.964 289.841 117.026C289.696 117.086 289.565 117.177 289.457 117.292C289.349 117.407 289.268 117.543 289.217 117.692L276.167 153.579C276.078 153.819 275.903 154.017 275.677 154.136C275.45 154.255 275.188 154.287 274.939 154.224L271.859 153.454C271.623 153.396 271.415 153.254 271.274 153.056C271.132 152.857 271.067 152.615 271.089 152.372L273.274 120.69C273.29 120.483 273.249 120.275 273.156 120.09C273.063 119.904 272.921 119.747 272.746 119.636C272.571 119.525 272.368 119.464 272.161 119.459C271.953 119.453 271.748 119.505 271.568 119.608C271.428 119.677 271.305 119.776 271.208 119.899C271.111 120.021 271.042 120.163 271.006 120.315L258.893 165.777C258.824 166.036 258.658 166.259 258.429 166.398C258.2 166.538 257.927 166.584 257.665 166.527L252.295 165.382C252.027 165.322 251.79 165.167 251.629 164.945C251.629 164.945 247.133 158.221 243.928 156.431C240.344 154.961 236.409 154.57 232.606 155.307L232.252 155.473C232.002 155.598 231.212 155.973 231.191 156.14C231.17 156.306 231.191 156.993 234.292 159.304C239.245 162.926 240.536 165.548 242.825 170.856C243.345 171.981 243.928 173.25 244.615 174.687L244.948 175.374C248.528 182.951 250.026 186.073 255.021 189.653C260.37 193.463 267.676 199.229 267.759 199.291C267.839 199.357 267.909 199.434 267.967 199.52L270.277 202.996C270.389 203.166 270.449 203.365 270.449 203.569C270.449 203.772 270.389 203.971 270.277 204.141C257.727 222.834 262.847 248.979 263.7 252.809Z" fill="#263238"/>
<path d="M285.561 199.838C285.322 199.86 285.08 199.86 284.841 199.838C281.402 199.445 272.219 197.505 271.828 197.417C271.694 197.392 271.566 197.337 271.453 197.258C271.339 197.179 271.242 197.076 271.167 196.956C271.092 196.835 271.041 196.7 271.016 196.559C270.992 196.417 270.995 196.272 271.025 196.131C271.047 195.99 271.096 195.856 271.168 195.735C271.241 195.615 271.337 195.512 271.448 195.433C271.56 195.353 271.686 195.298 271.819 195.272C271.951 195.246 272.088 195.249 272.219 195.281C272.219 195.281 281.732 197.287 285.067 197.679C287.662 198.006 293.55 195.804 295.589 194.932C295.843 194.825 296.126 194.829 296.377 194.944C296.628 195.058 296.826 195.273 296.927 195.542C297.028 195.811 297.024 196.112 296.916 196.377C296.808 196.643 296.604 196.853 296.35 196.96C292.9 198.453 289.268 199.422 285.561 199.838Z" fill="#263238"/>
<path d="M273.035 183.854C272.822 183.853 272.614 183.789 272.437 183.671C272.261 183.553 272.125 183.386 272.045 183.192C270.504 179.272 268.497 175.546 266.064 172.091C264.123 170.733 261.996 169.653 259.747 168.881C259.608 168.839 259.48 168.77 259.369 168.678C259.259 168.585 259.17 168.471 259.106 168.343C259.043 168.215 259.007 168.076 259.001 167.933C258.995 167.791 259.019 167.649 259.071 167.516C259.123 167.383 259.203 167.263 259.305 167.161C259.407 167.06 259.529 166.981 259.663 166.928C259.798 166.875 259.942 166.85 260.087 166.855C260.232 166.86 260.374 166.894 260.505 166.955C262.996 167.839 265.344 169.073 267.475 170.62C270.126 174.287 272.298 178.267 273.94 182.467C274.031 182.723 274.018 183.003 273.904 183.25C273.791 183.496 273.585 183.691 273.33 183.792L273.035 183.854Z" fill="#263238"/>
<path d="M299.752 163.712C299.633 163.732 299.512 163.732 299.393 163.712L266.695 151.924C266.432 151.828 266.218 151.631 266.1 151.375C265.981 151.12 265.968 150.828 266.063 150.562C266.107 150.429 266.178 150.307 266.271 150.202C266.364 150.097 266.477 150.013 266.603 149.953C266.729 149.893 266.865 149.86 267.004 149.855C267.143 149.85 267.282 149.874 267.412 149.924L300.11 161.712C300.39 161.759 300.639 161.918 300.803 162.151C300.967 162.384 301.032 162.674 300.985 162.956C300.937 163.238 300.781 163.49 300.549 163.655C300.318 163.821 300.031 163.887 299.752 163.839V163.712Z" fill="#263238"/>
<defs>
<clipPath id="clip0_299_137">
<rect width="94.2239" height="94.2239" fill="white" transform="translate(116.146 24.874) rotate(-0.531457)"/>
</clipPath>
</defs>
</svg>
