<svg width="348" height="153" viewBox="0 0 348 153" fill="none" xmlns="http://www.w3.org/2000/svg">
<g opacity="0.4">
<path d="M60.1305 85.9569C39.057 86.0864 18.344 80.4896 0.203571 69.7642C0.109373 69.707 0.0411925 69.6153 0.0135393 69.5087C-0.0141139 69.402 0.000943005 69.2888 0.0554996 69.193C0.0828222 69.1453 0.1194 69.1036 0.163088 69.0702C0.206775 69.0369 0.256692 69.0126 0.3099 68.9988C0.363109 68.985 0.418532 68.982 0.472924 68.9899C0.527317 68.9978 0.579582 69.0166 0.626636 69.045C58.3113 102.7 117.033 76.8822 173.839 51.9215C228.732 27.7963 285.507 2.86726 341.425 31.424C341.474 31.4483 341.517 31.482 341.553 31.5231C341.589 31.5641 341.616 31.6118 341.633 31.6633C341.65 31.7149 341.657 31.7693 341.653 31.8236C341.649 31.8778 341.635 31.9307 341.611 31.9793C341.586 32.0279 341.553 32.0713 341.512 32.1069C341.47 32.1425 341.423 32.1697 341.371 32.1869C341.267 32.2216 341.153 32.2135 341.055 32.1644C285.475 3.81915 228.943 28.6953 174.167 52.7359C136.726 69.1401 98.4495 85.9569 60.1305 85.9569Z" fill="#39FF14"/>
<path d="M60.1309 102.499C39.6868 102.626 19.5718 97.3503 1.82212 87.2051C1.72686 87.1517 1.65666 87.0627 1.62692 86.9576C1.59718 86.8525 1.61032 86.7399 1.66347 86.6445C1.71891 86.5485 1.80981 86.4781 1.91661 86.4484C2.02342 86.4187 2.13761 86.4322 2.23461 86.4858C59.3482 118.766 117.519 93.1914 173.861 68.4528C229.282 44.1266 286.597 18.912 343.086 48.7274C343.168 48.7873 343.226 48.8749 343.249 48.974C343.272 49.0731 343.259 49.1771 343.211 49.267C343.164 49.3569 343.085 49.4267 342.99 49.4636C342.896 49.5005 342.791 49.502 342.695 49.4678C286.639 19.8533 229.525 44.941 174.231 69.2143C136.726 85.6714 98.4393 102.499 60.1309 102.499Z" fill="#39FF14"/>
<path d="M60.1201 119.03C40.2888 119.156 20.7563 114.196 3.38729 104.625C3.29129 104.569 3.22088 104.478 3.19122 104.371C3.16155 104.265 3.17499 104.151 3.22864 104.054C3.25401 104.005 3.28892 103.963 3.33125 103.928C3.37358 103.894 3.42245 103.869 3.47488 103.854C3.52731 103.839 3.58221 103.835 3.63625 103.842C3.69028 103.849 3.74232 103.867 3.7892 103.895C60.4162 134.831 118.069 109.49 173.829 84.9839C229.779 60.4039 287.633 34.9778 344.609 66.1153C344.704 66.1689 344.775 66.2571 344.806 66.3616C344.838 66.466 344.828 66.5786 344.778 66.6759C344.753 66.7239 344.718 66.7665 344.676 66.801C344.634 66.8356 344.585 66.8614 344.533 66.8772C344.481 66.8929 344.427 66.8982 344.372 66.8927C344.318 66.8871 344.266 66.871 344.218 66.8451C287.591 35.9086 229.927 61.2395 174.167 85.7454C136.726 102.203 98.4285 119.03 60.1201 119.03Z" fill="#39FF14"/>
<path d="M60.1094 135.561C40.8987 135.685 21.9587 131.029 4.99482 122.013C4.89717 121.959 4.824 121.869 4.79052 121.763C4.75704 121.657 4.76581 121.542 4.81502 121.441C4.86867 121.344 4.95879 121.271 5.06576 121.239C5.17272 121.208 5.28788 121.219 5.38616 121.272C61.4421 150.887 118.609 125.799 173.85 101.515C230.308 76.7025 288.701 51.0437 346.248 83.535C346.344 83.5884 346.414 83.6774 346.444 83.7825C346.473 83.8875 346.46 84.0001 346.407 84.0955C346.352 84.1915 346.261 84.2619 346.154 84.2916C346.047 84.3213 345.933 84.3078 345.836 84.2542C288.722 51.9744 230.488 77.5486 174.21 102.234C136.737 118.734 98.4284 135.561 60.1094 135.561Z" fill="#39FF14"/>
<path d="M60.109 152.103C41.5023 152.235 23.1377 147.881 6.57028 139.411C6.47339 139.359 6.40045 139.272 6.3669 139.167C6.33334 139.062 6.3418 138.949 6.39048 138.85C6.4151 138.801 6.44923 138.758 6.49087 138.722C6.53252 138.687 6.58085 138.66 6.63304 138.643C6.68523 138.626 6.74023 138.62 6.79483 138.625C6.84943 138.629 6.90253 138.645 6.95104 138.671C62.5204 167.005 119.063 142.14 173.839 118.089C230.826 93.0538 289.748 67.1517 347.792 101.018C347.84 101.045 347.882 101.082 347.915 101.126C347.948 101.169 347.973 101.219 347.986 101.272C348 101.326 348.003 101.381 347.995 101.435C347.987 101.49 347.969 101.542 347.94 101.589C347.914 101.636 347.878 101.678 347.836 101.711C347.793 101.744 347.744 101.769 347.691 101.783C347.639 101.796 347.585 101.799 347.531 101.792C347.477 101.784 347.426 101.765 347.38 101.737C289.695 68.0401 230.963 93.8258 174.22 118.808C136.736 135.265 98.4174 152.103 60.109 152.103Z" fill="#39FF14"/>
</g>
<path d="M43.8738 114.979C43.4868 113.444 42.5641 112.097 41.272 111.182C40.5289 110.659 39.9085 109.98 39.4537 109.193C38.999 108.406 38.7208 107.529 38.6384 106.624L38.8605 106.01C38.8984 105.906 38.8935 105.792 38.8468 105.692C38.8002 105.592 38.7157 105.514 38.612 105.476C38.5082 105.438 38.3936 105.443 38.2934 105.49C38.1933 105.536 38.1157 105.621 38.0778 105.725L29.5531 129.786C29.2861 129.196 28.9009 128.667 28.4214 128.232C27.2268 127.176 25.762 126.473 24.1908 126.201C20.6688 125.514 17.4429 126.825 16.9987 129.12C16.6074 131.098 18.4054 133.171 21.1553 134.155C21.6141 134.316 22.0843 134.443 22.562 134.535C24.1141 134.871 25.7291 134.769 27.2263 134.239C27.827 134.06 28.3724 133.732 28.8109 133.284C29.2495 132.836 29.5668 132.284 29.7329 131.68L35.7193 114.852C36.0884 116.43 37.0213 117.818 38.3422 118.755C39.1251 119.308 39.7726 120.031 40.236 120.87C40.6995 121.709 40.9669 122.642 41.0181 123.599C41.0257 123.656 41.0484 123.709 41.0838 123.754C41.1191 123.798 41.1659 123.833 41.2191 123.853H41.2931C41.3627 123.864 41.434 123.85 41.4941 123.813C41.5542 123.776 41.5992 123.719 41.621 123.652L43.7363 117.708C44.0642 116.835 44.1122 115.881 43.8738 114.979Z" fill="#39FF14"/>
<path d="M280.303 68.5161C279.081 67.4913 277.53 66.9428 275.935 66.9719C275.025 66.9867 274.122 66.8054 273.288 66.4404C272.454 66.0754 271.709 65.5353 271.102 64.8566L270.912 64.222C270.88 64.1161 270.807 64.0269 270.711 63.9735C270.614 63.9202 270.5 63.9069 270.393 63.9364C270.287 63.9684 270.198 64.0405 270.145 64.1373C270.091 64.2342 270.078 64.3481 270.108 64.4547L277.395 89.0453C276.829 88.7209 276.203 88.5157 275.555 88.4424C273.965 88.2882 272.364 88.5812 270.933 89.2885C267.664 90.8116 265.814 93.7836 266.808 95.92C267.664 97.7604 270.362 98.3844 273.154 97.5488C273.62 97.4087 274.076 97.2355 274.518 97.0306C275.98 96.3863 277.233 95.3458 278.135 94.0268C278.519 93.5244 278.769 92.9329 278.861 92.3076C278.954 91.6824 278.886 91.0439 278.664 90.4519L273.556 73.2227C274.793 74.2868 276.377 74.8622 278.008 74.8409C278.971 74.8308 279.923 75.0376 280.795 75.4459C281.666 75.8542 282.435 76.4536 283.043 77.1995C283.084 77.2402 283.134 77.2695 283.19 77.2844C283.246 77.2992 283.304 77.2991 283.36 77.2841H283.434C283.495 77.2491 283.543 77.1947 283.57 77.1296C283.597 77.0645 283.601 76.9924 283.582 76.9245L281.774 70.843C281.544 69.9307 281.029 69.1155 280.303 68.5161Z" fill="#39FF14"/>
<path d="M116.525 110.378C117.655 110.837 118.667 111.544 119.488 112.447C120.308 113.349 120.915 114.424 121.264 115.593C121.287 115.663 121.33 115.725 121.389 115.77C121.447 115.815 121.518 115.842 121.592 115.846C121.622 115.857 121.656 115.857 121.687 115.846C121.775 115.835 121.858 115.795 121.921 115.732C121.984 115.669 122.025 115.586 122.036 115.497L122.596 110.368C122.728 109.207 122.503 108.034 121.951 107.004C121.019 105.213 119.478 103.813 117.604 103.059C116.53 102.626 115.562 101.964 114.768 101.121C113.974 100.277 113.372 99.2715 113.003 98.173L113.088 97.3374C113.103 97.1987 113.062 97.0597 112.975 96.9507C112.888 96.8417 112.761 96.7717 112.623 96.7557C112.553 96.7484 112.483 96.7549 112.416 96.775C112.349 96.795 112.287 96.8281 112.232 96.8723C112.178 96.9166 112.134 96.9711 112.101 97.0328C112.068 97.0945 112.048 97.1621 112.041 97.2316L108.519 129.522C108.017 128.872 107.387 128.332 106.668 127.935C104.883 126.972 102.865 126.525 100.84 126.645C98.8159 126.693 96.8436 127.296 95.1395 128.39C94.385 128.744 93.7517 129.312 93.3191 130.024C92.8864 130.737 92.6737 131.561 92.7076 132.393C92.7415 133.226 93.0205 134.03 93.5096 134.704C93.9986 135.379 94.6761 135.894 95.4568 136.185C96.6697 136.859 98.0096 137.274 99.3913 137.402C100.016 137.476 100.646 137.497 101.274 137.465C105.801 137.285 109.386 134.757 109.333 131.807L110.835 117.993C111.766 119.838 113.332 121.284 115.246 122.065C116.98 122.912 118.609 123.726 119.984 127.28C120.015 127.347 120.062 127.405 120.121 127.45C120.18 127.494 120.249 127.523 120.322 127.534H120.418C120.508 127.524 120.591 127.482 120.653 127.416C120.715 127.35 120.752 127.264 120.756 127.174L121.317 122.055C121.46 120.89 121.234 119.71 120.671 118.681C119.74 116.889 118.198 115.49 116.324 114.736C115.249 114.304 114.28 113.643 113.486 112.8C112.691 111.956 112.09 110.949 111.724 109.85L112.115 106.306C113.038 108.157 114.607 109.606 116.525 110.378Z" fill="#39FF14"/>
<path d="M86.9743 95.3703L87.8522 77.0411L88.1801 70.2086V69.8173L69.5124 68.9288V69.3096L69.1845 76.1526L68.3913 92.9165C67.6415 92.2026 66.7368 91.6718 65.7479 91.3654C64.7589 91.059 63.7126 90.9853 62.6905 91.1502C59.3906 91.4887 56.8839 93.5194 57.0955 95.677C57.2858 97.5279 59.4329 98.85 62.1405 99.0192C62.5875 99.0559 63.0367 99.0559 63.4837 99.0192C66.7625 98.6913 69.248 96.7029 69.0787 94.5665L69.8297 78.8179L86.9743 79.6323L86.308 93.7944C85.9122 93.3493 85.43 92.9895 84.8907 92.7367C83.5528 92.1197 82.0702 91.8854 80.6072 92.0598C77.3073 92.3983 74.8007 94.4184 75.0122 96.576C75.2026 98.4375 77.3496 99.749 80.0572 99.9288C80.5042 99.9655 80.9535 99.9655 81.4005 99.9288C84.6475 99.5057 87.1436 97.5068 86.9743 95.3703ZM69.8508 78.0141L69.9354 76.1844L87.0801 77.0093L86.9955 78.8285L69.8508 78.0141Z" fill="#39FF14"/>
<path d="M336.91 60.1078L338.708 45.4063L339.374 39.9276V39.6209L324.408 37.77V38.0873L323.731 43.566L322.081 57.0194C321.521 56.3993 320.824 55.918 320.046 55.6133C319.268 55.3086 318.429 55.1889 317.597 55.2637C314.921 55.3271 312.784 56.8185 312.827 58.5636C312.827 60.0655 314.519 61.2924 316.687 61.5568C317.039 61.5826 317.393 61.5826 317.745 61.5568C320.4 61.4827 322.526 60.0232 322.515 58.2992L324.059 45.6707L337.809 47.3524L336.423 58.7117C336.141 58.3236 335.781 57.9993 335.365 57.7598C334.33 57.1836 333.154 56.9088 331.97 56.9665C329.284 57.0406 327.148 58.5213 327.19 60.2664C327.19 61.7683 328.882 62.9952 331.05 63.2596C331.402 63.2852 331.756 63.2852 332.108 63.2596C334.794 63.2913 336.91 61.8317 336.91 60.1078ZM324.165 45.1102L324.334 43.6506L338.084 45.3323L337.914 46.7918L324.165 45.1102Z" fill="#39FF14"/>
<path d="M281.879 26.2944L272.942 7.93346L269.61 1.07982L269.409 0.751953L250.699 9.8584L250.879 10.2392L254.221 17.0928L262.386 33.8884C260.662 33.2221 258.156 33.6663 255.892 35.2105C252.836 37.3258 251.471 40.6151 252.836 42.6141C254.01 44.3275 256.834 44.5073 259.541 43.1958C259.995 42.9785 260.43 42.7238 260.842 42.4343C263.856 40.3719 265.221 37.146 263.92 35.0941L254.983 16.7332L272.17 8.36709L280.345 25.0781C278.621 24.4118 276.115 24.856 273.841 26.4002C272.468 27.3018 271.37 28.5643 270.668 30.0491C270.32 30.6188 270.145 31.277 270.163 31.9441C270.181 32.6113 270.391 33.259 270.769 33.8091C271.147 34.3592 271.676 34.7883 272.293 35.0444C272.909 35.3006 273.586 35.3729 274.243 35.2528C275.349 35.184 276.429 34.8888 277.416 34.3855C277.874 34.1644 278.316 33.9099 278.738 33.624C281.816 31.5721 283.159 28.2511 281.879 26.2944Z" fill="#39FF14"/>
</svg>
