<svg width="102" height="431" viewBox="0 0 102 431" fill="none" xmlns="http://www.w3.org/2000/svg">
<path d="M90.56 89.9849C86.6892 79.9524 76.795 68.3302 61.7364 71.2234L59.8701 71.5097C59.8701 71.5097 48.8206 74.4721 46.3914 78.8168C43.9623 83.1616 42.9453 92.4436 43.2316 103.345C43.518 114.246 62.8818 142.784 62.8818 142.784L76.2124 129.009L93.0879 107.157C93.0879 107.157 94.4308 100.027 90.56 89.9849Z" fill="#263238"/>
<path d="M81.1402 84.5656L80.528 81.0996L59.0115 81.2181C52.4844 81.7908 46.8264 89.562 47.6756 96.0298C48.663 103.248 50.0652 112.017 51.9512 117.171C55.7529 127.539 64.2153 127.292 64.2153 127.292L66.3482 137.907L90.047 133.573L81.1402 84.5656Z" fill="#263238"/>
<path d="M53.293 102.784C53.3604 103.143 53.5653 103.462 53.8641 103.672C54.1629 103.882 54.5319 103.968 54.8926 103.91C55.0697 103.891 55.2411 103.836 55.3965 103.748C55.5519 103.661 55.6881 103.544 55.7969 103.403C55.9057 103.261 55.9849 103.1 56.0298 102.927C56.0746 102.755 56.0841 102.575 56.0578 102.399C55.9927 102.041 55.7897 101.722 55.4926 101.512C55.1954 101.301 54.8276 101.216 54.468 101.273C54.2911 101.294 54.1201 101.35 53.9649 101.437C53.8097 101.525 53.6735 101.642 53.5641 101.783C53.4548 101.923 53.3745 102.084 53.3279 102.256C53.2814 102.428 53.2695 102.608 53.293 102.784Z" fill="#263238"/>
<path d="M50.5686 99.4959C50.7464 99.6441 52.0202 99.4959 53.7087 99.9995C55.3973 100.503 56.5723 101.175 56.7797 101.125C56.987 101.076 56.7106 100.878 56.1971 100.553C55.4423 100.102 54.6232 99.7687 53.768 99.5651C52.9502 99.3318 52.0989 99.2383 51.25 99.2886C50.6871 99.259 50.4798 99.3873 50.5686 99.4959Z" fill="#263238"/>
<path d="M68.1357 99.9482C68.2032 100.307 68.4081 100.626 68.7069 100.836C69.0056 101.046 69.3747 101.132 69.7354 101.074C69.9125 101.055 70.0839 101 70.2393 100.913C70.3947 100.825 70.5309 100.708 70.6397 100.567C70.7485 100.426 70.8277 100.264 70.8725 100.091C70.9174 99.919 70.9269 99.7393 70.9006 99.5631C70.8354 99.2049 70.6325 98.8864 70.3353 98.6759C70.0382 98.4655 69.6704 98.3799 69.3108 98.4374C69.1339 98.4581 68.9629 98.5138 68.8077 98.6013C68.6525 98.6887 68.5163 98.8062 68.4069 98.9468C68.2975 99.0874 68.2173 99.2483 68.1707 99.4202C68.1241 99.5922 68.1123 99.7717 68.1357 99.9482Z" fill="#263238"/>
<path d="M66.2694 99.0409C66.4965 99.0409 67.3754 98.172 68.9059 97.4413C70.4365 96.7105 71.7498 96.5131 71.8683 96.3452C71.9867 96.1773 71.6708 96.2069 71.0882 96.2859C70.2449 96.4268 69.4267 96.6896 68.659 97.066C67.908 97.4101 67.2177 97.8736 66.615 98.4386C66.2398 98.8237 66.1608 99.0409 66.2694 99.0409Z" fill="#263238"/>
<path d="M62.1817 109.587C61.3587 109.484 60.5261 109.484 59.7032 109.587C59.318 109.587 58.9428 109.587 58.8342 109.37C58.7112 108.991 58.7112 108.583 58.8342 108.204C59.0119 107.217 59.1996 106.23 59.3872 105.114C60.1376 100.72 60.6017 97.145 60.424 97.1154C60.2462 97.0858 59.4958 100.621 58.7453 105.015C58.5676 106.091 58.3997 107.128 58.2417 108.106C58.0935 108.608 58.1285 109.147 58.3405 109.626C58.4222 109.749 58.5303 109.851 58.6567 109.926C58.7831 110.001 58.9247 110.047 59.0712 110.061C59.2879 110.083 59.5062 110.083 59.7229 110.061C60.5596 110.01 61.3861 109.851 62.1817 109.587Z" fill="#263238"/>
<path d="M63.505 113.025C63.7169 112.616 64.0293 112.269 64.4129 112.015C64.7965 111.761 65.2385 111.609 65.6972 111.573C66.0285 111.537 66.3637 111.569 66.6827 111.665C67.0017 111.762 67.2979 111.922 67.5536 112.136C67.7997 112.343 67.9762 112.621 68.0592 112.932C68.1422 113.243 68.1277 113.571 68.0177 113.874C67.8323 114.187 67.5571 114.437 67.2279 114.592C66.8987 114.747 66.5305 114.799 66.1711 114.743C65.4272 114.634 64.7123 114.379 64.0679 113.992C63.8779 113.909 63.7067 113.788 63.5643 113.637C63.4919 113.567 63.4427 113.476 63.4233 113.377C63.4039 113.278 63.4152 113.176 63.4557 113.084" fill="#37474F"/>
<path d="M66.7333 109.754C66.4864 109.754 66.8024 111.393 65.6471 112.795C64.4918 114.197 62.7637 114.365 62.7933 114.592C62.823 114.819 63.2377 114.829 63.9585 114.701C64.8994 114.533 65.7498 114.036 66.358 113.299C66.9433 112.592 67.2333 111.686 67.1677 110.771C67.0986 110.089 66.8419 109.724 66.7333 109.754Z" fill="#263238"/>
<path d="M63.879 91.8708C64.1061 92.246 65.5478 91.7721 67.3154 91.6338C69.0829 91.4956 70.5838 91.7029 70.7418 91.2981C70.8109 91.1105 70.4949 90.7747 69.8531 90.4983C69.0076 90.1597 68.0937 90.0277 67.187 90.1131C66.2802 90.1801 65.403 90.4646 64.6295 90.9426C64.037 91.3178 63.7803 91.6931 63.879 91.8708Z" fill="#263238"/>
<path d="M50.065 98.3594C50.3909 98.6457 51.3388 98.0927 52.5534 97.836C53.768 97.5793 54.8541 97.6188 55.0319 97.2238C55.101 97.0362 54.8739 96.7301 54.3505 96.5029C53.6692 96.2395 52.9247 96.1853 52.2124 96.3471C51.5 96.5089 50.8521 96.8795 50.3514 97.4114C49.986 97.8459 49.8774 98.2211 50.065 98.3594Z" fill="#263238"/>
<path d="M52.1975 77.298C52.1975 77.298 45.394 84.0126 46.0753 93.8476C46.49 99.7723 48.1588 102.596 48.1588 102.596C48.2477 97.2345 50.9237 91.3888 76.2517 95.8521L84.3883 100.315C84.3883 100.315 89.5527 90.1348 84.3883 83.6769C79.2239 77.219 73.0326 73.3482 66.0218 73.4963C59.0109 73.6444 52.1975 77.298 52.1975 77.298Z" fill="#263238"/>
<path d="M50.1729 115.088C50.1729 115.088 58.8229 134.106 64.5007 133.652C70.1785 133.198 79.0162 121.941 79.0162 121.941L81.3565 108.324C81.3565 108.324 55.8507 109.677 50.1729 115.088Z" fill="#263238"/>
<path d="M85.1094 82.5317C80.2314 77.5154 71.058 69.29 61.0156 71.3143C63.7495 71.1888 66.4576 71.8906 68.7864 73.3281C71.1152 74.7655 72.9564 76.8718 74.0697 79.3718C78.2268 88.2589 75.4324 129.801 75.4324 129.801L90.096 124.923L93.0583 106.764C93.0583 106.764 89.9873 87.5479 85.1094 82.5317Z" fill="#263238"/>
<path d="M101.225 97.1746C99.2504 95.4762 97.0977 92.0794 92.5752 93.0273C88.0527 93.9753 80.4 96.3155 78.04 95.9896C75.68 95.6638 73.1818 95.2096 73.1818 95.2096L73.083 95.3972C73.083 95.3972 74.0705 99.347 81.97 99.9691C89.8696 100.591 93.2072 96.1378 98.8751 98.9816C104.543 101.825 114.062 99.1495 114.062 99.1495C114.062 99.1495 103.2 98.8829 101.225 97.1746Z" fill="#455A64"/>
<path d="M74.6621 123.293C74.6693 123.094 74.6924 122.896 74.7312 122.701L74.9978 121.003C75.2348 119.541 75.61 117.418 75.9852 114.792C76.4441 111.72 76.7178 108.624 76.8048 105.519C76.9118 101.725 76.5167 97.9334 75.6298 94.2428C74.7133 90.5593 73.0975 87.0864 70.8702 84.0128C69.0412 81.5113 66.927 79.2314 64.5703 77.2192C62.9905 75.8624 61.3426 74.5869 59.6331 73.3977L58.221 72.4103C58.0474 72.3103 57.8879 72.1874 57.7471 72.0449C57.9294 72.1213 58.1046 72.2138 58.2704 72.3214C58.616 72.5189 59.1196 72.8053 59.7417 73.2101C61.5209 74.3375 63.2261 75.5777 64.8468 76.9229C67.2626 78.9188 69.4277 81.2 71.2949 83.7166C73.5804 86.8244 75.2343 90.3503 76.163 94.0946C77.0671 97.8291 77.4558 101.67 77.3183 105.51C77.2086 108.631 76.8953 111.741 76.3802 114.821C75.9556 117.458 75.531 119.561 75.2348 121.022C75.0867 121.704 74.9583 122.257 74.8694 122.691C74.828 122.9 74.7582 123.103 74.6621 123.293Z" fill="#455A64"/>
<path d="M48.6532 102.36C48.4171 101.95 48.2252 101.517 48.0805 101.066C47.631 99.8619 47.2648 98.628 46.9844 97.3734C45.9676 93.2032 46.1386 88.8317 47.4781 84.7538C48.2864 82.5426 49.5477 80.5246 51.1811 78.8291C52.5065 77.4258 54.0886 76.2894 55.8418 75.4816C57.0175 74.9324 58.2749 74.5789 59.5645 74.4349C59.9129 74.4097 60.2627 74.4097 60.6112 74.4349C60.7325 74.4202 60.8552 74.4202 60.9766 74.4349C59.2513 74.6446 57.569 75.121 55.9899 75.847C54.3086 76.6786 52.7928 77.8096 51.5168 79.1846C49.9536 80.8651 48.7447 82.8431 47.962 85.0006C46.6584 88.9962 46.4437 93.2671 47.3399 97.3734C47.5887 98.6262 47.9019 99.8654 48.278 101.086C48.4354 101.501 48.5609 101.926 48.6532 102.36Z" fill="#455A64"/>
<path d="M63.781 132.081C63.4548 132.144 63.1197 132.144 62.7935 132.081C61.925 131.992 61.0738 131.779 60.2657 131.449C57.6101 130.291 55.3904 128.32 53.9262 125.82C52.5074 123.341 51.5066 120.646 50.9639 117.842C50.7368 116.775 50.5788 115.867 50.4899 115.304C50.4083 114.981 50.3816 114.648 50.4109 114.316C50.48 114.316 50.7763 115.62 51.3194 117.713C51.9445 120.449 52.9693 123.077 54.3607 125.514C55.7762 127.928 57.8806 129.864 60.4039 131.073C61.4914 131.526 62.6233 131.864 63.781 132.081Z" fill="#455A64"/>
<path d="M93.0484 214.582C93.0484 214.582 113.291 264.942 126.158 292.304C138.52 318.59 162.693 364.684 162.693 364.684C160.597 364.701 158.532 364.182 156.693 363.176C154.854 362.17 153.303 360.711 152.187 358.937C148.237 352.775 139.271 336.453 117.626 291.228C106.379 267.697 87.2422 216.241 87.2422 216.241L93.0484 214.582Z" fill="#455A64"/>
<path d="M149.195 173.278C145.818 174.769 142.619 176.912 138.945 177.327C132.951 178.018 127.372 173.881 123.818 169.003C120.263 164.125 118.041 158.378 114.486 153.5C110.931 148.622 105.362 144.484 99.3584 145.166L109.006 161.557C114.358 163.897 117.498 169.368 120.796 174.206C124.094 179.045 128.696 183.933 134.531 183.962C139.873 183.962 144.248 180.013 149.106 177.712C152.959 175.989 157.208 175.344 161.4 175.846C165.591 176.349 169.567 177.98 172.904 180.566L175.866 174.414C171.792 172.231 167.278 170.995 162.66 170.799C158.042 170.602 153.44 171.45 149.195 173.278Z" fill="#39FF14"/>
<path d="M5.17513 186.914L15.0496 189.047L17.1331 188.198C17.1331 188.198 21.152 185.601 21.389 182.747C21.626 179.893 20.0066 176.22 20.0066 176.22L15.8099 171.115L5.14551 169.209L5.17513 186.914Z" fill="#263238"/>
<path d="M14.0319 165.536C14.0319 165.536 14.5651 111.226 16.5894 81.0989C18.5643 52.1074 24.2816 0.375 24.2816 0.375C22.3232 1.12352 20.5886 2.36005 19.2424 3.96725C17.8961 5.57445 16.9829 7.499 16.5894 9.55827C15.1773 16.7271 12.7383 35.2319 9.04527 85.1968C7.12962 111.216 8.05783 166.098 8.05783 166.098L14.0319 165.536Z" fill="#E0E0E0"/>
<path d="M14.0335 165.536L12.6017 165.704L8.03972 166.168H7.97059V166.099C7.87185 161.497 7.75335 153.874 7.69411 143.792C7.63486 133.71 7.62499 121.15 7.9311 106.704C8.09896 99.4755 8.32608 91.7734 8.91855 83.6763C9.51102 75.5793 10.1627 67.0971 10.8934 58.2792C11.6242 49.4613 12.4437 40.2978 13.4312 30.8972C13.9447 26.1871 14.4779 21.4276 15.1592 16.6187C15.4949 14.2094 15.8603 11.7901 16.3441 9.37088C16.6053 8.14303 17.0339 6.95687 17.618 5.84569C18.2266 4.74756 18.9991 3.74864 19.9088 2.88335C21.1376 1.68388 22.5996 0.74955 24.2042 0.138242L24.5893 0V0.404854C22.0911 23.2643 19.8693 44.998 18.1512 64.747C16.433 84.4959 15.7122 102.27 15.1888 117.25C14.6655 132.229 14.4878 144.266 14.3199 152.6C14.2409 156.757 14.1718 159.986 14.1323 162.198C14.1323 163.284 14.1323 164.114 14.1323 164.687C14.1323 165.259 14.1323 165.536 14.1323 165.536C14.1323 165.536 14.1323 165.24 14.1323 164.687C14.1323 164.134 14.1323 163.284 14.1323 162.198C14.1323 159.986 14.1816 156.757 14.2211 152.6C14.3298 144.266 14.5075 132.19 14.9321 117.24C15.3567 102.29 15.9196 84.4663 17.7463 64.7075C19.5731 44.9486 21.6961 23.2346 24.1351 0.355478L24.4709 0.62209C22.9556 1.20293 21.5747 2.08658 20.4124 3.21908C19.5318 4.05502 18.7886 5.02478 18.2104 6.09255C17.6451 7.15839 17.233 8.29859 16.986 9.4795C16.5021 11.8691 16.1368 14.2884 15.8011 16.6879C15.1296 21.4869 14.5865 26.2464 14.073 30.9466C13.0856 40.3471 12.2561 49.5008 11.5057 58.3187C10.7552 67.1366 10.1035 75.6286 9.53076 83.7158C8.95804 91.803 8.67168 99.515 8.48407 106.714C8.13846 121.15 8.11871 133.7 8.12859 143.782C8.13846 153.864 8.22733 161.477 8.24707 166.099L8.17796 166.039L12.7103 165.644L14.0335 165.536Z" fill="#263238"/>
<path d="M14.0422 159.404H7.99902V165.536H14.0422V159.404Z" fill="#39FF14"/>
<path d="M19.7402 6.32031C19.7512 6.44845 19.7512 6.57728 19.7402 6.70542C19.7402 6.99178 19.6612 7.37688 19.602 7.86073L19.049 12.2648C18.8021 14.1705 18.496 16.5108 18.1899 19.1769C17.8838 21.843 17.4888 24.993 17.2025 28.4194C16.4816 35.2723 15.7312 43.4484 15.0597 52.5329C14.3883 61.6174 13.7859 71.6104 13.3119 82.1563C12.3541 103.179 11.8308 122.207 11.3667 136.031C11.1297 142.944 10.9322 148.463 10.8038 152.344C10.7149 154.25 10.6557 155.741 10.6063 156.778C10.6063 157.271 10.6063 157.647 10.5471 157.933C10.5573 158.065 10.5573 158.197 10.5471 158.328C10.5364 158.197 10.5364 158.065 10.5471 157.933C10.5471 157.647 10.5471 157.262 10.5471 156.778C10.5471 155.731 10.5964 154.25 10.6359 152.344C10.7347 148.463 10.8729 142.894 11.0408 136.022C11.3864 122.247 11.8011 103.199 12.7491 82.1761C13.2231 71.6696 13.855 61.6668 14.5364 52.5526C15.2177 43.4385 16.0077 35.3118 16.7779 28.3997C17.1333 24.9732 17.558 21.8825 17.8937 19.167C18.2294 16.4515 18.5553 14.1113 18.8318 12.2055C19.1082 10.2997 19.3354 8.84818 19.4835 7.81136C19.5625 7.32751 19.6217 6.95228 19.6612 6.67579C19.7007 6.39931 19.7402 6.32031 19.7402 6.32031Z" fill="#263238"/>
<path d="M14.369 166.662H7.82227V234.826H14.369V166.662Z" fill="#39FF14"/>
<path d="M11.0912 187.211L9.63965 192.049L11.1603 196.562L12.6909 191.822L11.0912 187.211Z" fill="#FAFAFA"/>
<path d="M11.0912 197.736L9.63965 202.575L11.1603 207.087L12.6909 202.348L11.0912 197.736Z" fill="#FAFAFA"/>
<path d="M11.0912 208.598L9.63965 213.436L11.1603 217.949L12.6909 213.199L11.0912 208.598Z" fill="#FAFAFA"/>
<path d="M11.0912 219.461L9.63965 224.299L11.1603 228.812L12.6909 224.062L11.0912 219.461Z" fill="#FAFAFA"/>
<path d="M11.0912 230.322L9.63965 234.825H12.6909L11.0912 230.322Z" fill="#FAFAFA"/>
<path d="M11.0912 163.314L9.63965 168.153L11.1603 172.666L12.6909 167.926L11.0912 163.314Z" fill="#FAFAFA"/>
<path d="M20.5098 165.537H1.90625V166.663H20.5098V165.537Z" fill="#263238"/>
<path d="M9.39172 172.318C9.39172 172.318 12.3541 168.546 12.8478 168.467C13.9586 168.597 15.0578 168.812 16.136 169.109C16.136 169.109 17.9726 172.476 16.8568 173.355C16.549 173.612 16.1795 173.784 15.7847 173.855C15.39 173.926 14.9836 173.893 14.6054 173.76C14.6054 173.76 12.7589 176.643 11.3962 176.485C10.0336 176.327 6.94285 176.564 9.39172 172.318Z" fill="#263238"/>
<path d="M3.32843 167.985C3.32843 167.985 1.08691 168.558 1.08691 170.236C1.08809 171.25 1.279 172.255 1.64977 173.199L2.76557 174.482C2.76557 174.482 1.77813 174.966 2.2126 177.208L3.01243 178.412C3.01243 178.412 1.80775 180.575 2.2126 181.375C2.5016 181.914 2.87874 182.401 3.32843 182.816V185.779C3.32843 186.342 5.17495 186.905 5.17495 186.905C5.17495 186.905 14.6347 186.668 15.0494 185.542C15.4642 184.416 15.4938 183.379 15.0494 182.974C14.6051 182.57 16.5207 182.816 16.3232 180.723C16.1949 179.4 14.4471 178.748 14.4471 178.748C14.4471 178.748 17.0145 176.339 16.0566 175.786C15.3076 175.395 14.511 175.103 13.6868 174.917C13.6868 174.917 5.89579 167.827 3.32843 167.985Z" fill="#263238"/>
<path d="M3.32804 167.985C3.40337 167.974 3.47983 167.974 3.55515 167.985C3.77627 167.983 3.99629 168.016 4.20687 168.083C5.01455 168.308 5.78839 168.64 6.50763 169.071C9.10223 170.616 11.5601 172.38 13.8542 174.344C14.7176 174.884 15.4604 175.597 16.0365 176.437C16.2178 176.685 16.3228 176.981 16.3385 177.288C16.3543 177.595 16.2802 177.9 16.1254 178.165C15.7205 178.631 15.1505 178.921 14.5356 178.975V178.491C15.0287 178.581 15.4907 178.795 15.8785 179.113C16.083 179.283 16.2519 179.492 16.3755 179.728C16.4992 179.963 16.5753 180.221 16.5993 180.486C16.6592 181.017 16.5559 181.555 16.3031 182.026C16.1631 182.257 15.9938 182.47 15.7995 182.658L15.5033 182.905L15.365 183.014C15.365 183.014 15.365 182.925 15.365 182.895C15.494 183.358 15.5637 183.836 15.5724 184.317C15.5719 184.562 15.5521 184.806 15.5132 185.048C15.4929 185.175 15.4632 185.3 15.4243 185.423L15.365 185.601C15.3302 185.69 15.2763 185.771 15.207 185.838C14.7757 186.133 14.2826 186.325 13.7654 186.4C13.2914 186.509 12.7779 186.578 12.3336 186.647C9.8847 186.963 7.49507 187.072 5.22394 187.141H5.14495C4.69794 187.004 4.26483 186.826 3.85139 186.608C3.62013 186.493 3.41507 186.332 3.24905 186.134C3.15853 186.001 3.11669 185.84 3.13056 185.68V185.403C3.13056 184.534 3.13056 183.685 3.13056 182.865L3.20956 183.043C2.87876 182.747 2.58081 182.416 2.32084 182.056C2.18172 181.864 2.06881 181.655 1.98511 181.434C1.9313 181.196 1.9313 180.95 1.98511 180.713C2.15807 179.901 2.45798 179.121 2.87381 178.402V178.491L2.08387 177.286C1.96735 176.761 1.93732 176.221 1.99498 175.687C2.01451 175.421 2.09395 175.163 2.22734 174.932C2.36072 174.701 2.54458 174.503 2.76519 174.354L2.70595 174.63L1.49139 173.307C1.16463 172.437 0.984444 171.52 0.958175 170.591C0.922419 170.204 0.994164 169.815 1.16553 169.466C1.31224 169.182 1.51756 168.933 1.76787 168.735C2.10587 168.469 2.48647 168.262 2.89356 168.123C3.02918 168.068 3.17241 168.035 3.31818 168.024C2.80141 168.236 2.3163 168.519 1.87649 168.863C0.889046 169.515 1.10628 171.352 1.77774 173.179L2.91332 174.442L3.05156 174.6L2.85407 174.719C2.69073 174.848 2.55751 175.011 2.46371 175.197C2.36991 175.383 2.31779 175.587 2.31097 175.795C2.26169 176.281 2.29507 176.772 2.40971 177.247V177.178L3.21942 178.373L3.28855 178.481L3.22929 178.59C2.85631 179.272 2.58045 180.003 2.40971 180.762C2.37433 180.935 2.37433 181.113 2.40971 181.285C2.48111 181.464 2.57397 181.633 2.68621 181.789C2.91818 182.15 3.1934 182.482 3.50578 182.777L3.58478 182.846V182.954C3.58478 183.774 3.58478 184.623 3.58478 185.492C3.58478 185.709 3.58478 185.966 3.58478 185.986C3.71381 186.118 3.86399 186.228 4.02914 186.312C4.41342 186.508 4.81299 186.673 5.22394 186.805H5.14495C7.4062 186.716 9.79584 186.608 12.2052 186.292C12.6792 186.233 13.1433 186.154 13.5975 186.055C14.0186 185.988 14.4237 185.844 14.7923 185.63V185.581L14.8417 185.433C14.8417 185.324 14.8417 185.225 14.9108 185.117C14.9308 184.903 14.9308 184.688 14.9108 184.475C14.9074 184.044 14.8476 183.616 14.7331 183.201C14.713 183.133 14.713 183.061 14.7331 182.994L14.7923 182.905L14.8911 182.816L15.0392 182.688C15.1346 182.62 15.2238 182.544 15.3058 182.461C15.4702 182.319 15.6074 182.148 15.7106 181.957C15.9183 181.577 16.0077 181.144 15.9674 180.713C15.898 180.306 15.699 179.932 15.4001 179.648C15.1012 179.363 14.7183 179.182 14.3085 179.133L12.9458 178.866L14.3282 178.669C14.809 178.629 15.2585 178.415 15.5921 178.066C15.6945 177.873 15.7396 177.653 15.7221 177.435C15.7046 177.216 15.6253 177.007 15.4934 176.832C14.952 176.05 14.2646 175.379 13.4691 174.857C11.2118 172.885 8.80875 171.086 6.28052 169.476C5.59061 169.022 4.84781 168.653 4.06863 168.38C3.87069 168.297 3.66057 168.247 3.44653 168.231L3.32804 167.985Z" fill="#37474F"/>
<path d="M14.4762 178.74C12.3294 178.856 10.1853 178.467 8.2158 177.604C6.80347 177.057 5.45302 176.362 4.187 175.531C3.64033 175.224 3.14684 174.83 2.72559 174.366C2.81446 174.227 5.15471 175.876 8.39354 177.121C10.38 177.804 12.4127 178.346 14.4762 178.74Z" fill="#37474F"/>
<path d="M15.0795 182.806C14.4445 183.02 13.7686 183.085 13.1046 182.994C11.5133 182.879 9.95196 182.502 8.48339 181.878C7.01686 181.274 5.63052 180.492 4.35585 179.548C3.79547 179.199 3.30354 178.75 2.9043 178.225C4.75248 179.445 6.69009 180.524 8.70063 181.454C10.1251 182.055 11.6224 182.466 13.154 182.678C14.3291 182.787 15.0697 182.717 15.0795 182.806Z" fill="#37474F"/>
<path d="M14.4767 185.838C12.5211 186.172 10.5142 186.037 8.62117 185.443C7.26395 185.103 5.96104 184.575 4.75038 183.873C4.22558 183.618 3.76105 183.255 3.3877 182.807C3.92013 183.016 4.4352 183.267 4.92811 183.557C6.15823 184.142 7.4411 184.608 8.75942 184.949C10.644 185.369 12.5537 185.666 14.4767 185.838Z" fill="#37474F"/>
<path d="M16.3534 170.858C16.4225 170.858 16.4521 171.134 16.3534 171.559C16.1856 172.092 15.9175 172.588 15.5634 173.02C15.2303 173.456 14.8494 173.854 14.4279 174.205C14.0526 174.481 13.7169 174.442 13.7268 174.373C13.7366 174.304 13.944 174.215 14.181 173.928C14.6155 173.395 14.892 173.04 15.1685 172.704C15.9387 171.766 16.225 170.848 16.3534 170.858Z" fill="#37474F"/>
<path d="M26.6326 212.737L25.5662 201.016L16.8964 202.408C16.8964 202.408 10.2607 194.39 9.32266 194.45C9.05605 194.45 6.13321 194.538 5.68886 195.605C5.57894 195.81 5.51175 196.035 5.49137 196.266C4.86928 196.415 2.924 197.175 2.845 200.759C2.845 200.759 -0.443191 201.994 0.356642 204.837L0.712124 206.259C0.346065 206.882 0.11473 207.575 0.0330873 208.293C-0.0485557 209.01 0.0212987 209.737 0.238138 210.426C0.978724 212.737 11.4259 216.608 14.171 216.786C16.9161 216.963 26.8301 213.823 26.8301 213.823L26.6326 212.737Z" fill="#263238"/>
<path d="M20.0361 176.22C19.9275 175.568 28.5084 168.863 34.7392 169.308L35.855 164.667L48.3265 150.447C48.3348 147.292 49.1944 144.198 50.8148 141.491C53.4415 137.541 56.2458 135.329 56.2458 134.145C56.2458 132.96 56.9568 162.109 56.9568 162.109C56.9568 162.109 44.5248 189.205 44.4458 189.995C44.3668 190.785 26.336 199.988 26.336 199.988C26.336 199.988 15.7209 196.156 15.0791 192.799V190.241C15.0791 190.241 21.6358 185.65 20.0361 176.22Z" fill="#263238"/>
<path d="M111.04 148.078C110.556 147.634 104.78 123.313 89.1483 122.572L56.2465 133C56.2465 133 48.9394 155.523 47.6359 168.923C46.4707 180.851 40.4769 202.082 43.933 219.658L93.5325 216.38C93.5325 216.38 104.592 214.346 107.574 202.99C110.556 191.634 111.534 148.513 111.04 148.078Z" fill="#263238"/>
<path d="M44.4465 190.033C44.4228 189.876 44.4228 189.716 44.4465 189.559L44.5946 188.226C44.7328 187.081 44.9599 185.412 45.2759 183.358C45.8881 179.24 46.8163 173.572 47.942 167.332C49.0677 161.091 50.1835 155.482 51.0821 151.394C51.5265 149.36 51.9116 147.731 52.1979 146.595C52.3362 146.092 52.4547 145.657 52.5435 145.302C52.579 145.151 52.632 145.005 52.7015 144.867C52.7254 145.021 52.7254 145.178 52.7015 145.331C52.6324 145.687 52.5436 146.121 52.4448 146.645C52.1979 147.859 51.882 149.488 51.4574 151.473C50.6575 155.542 49.601 161.19 48.495 167.43C47.3891 173.671 46.4115 179.28 45.6808 183.407C45.3352 185.382 45.0488 187.031 44.8414 188.256L44.5946 189.579C44.5687 189.737 44.5187 189.89 44.4465 190.033Z" fill="#455A64"/>
<path d="M46.9156 232.801C46.7477 231.488 44.4075 218.404 44.4568 219.678L99.1911 214.139V228.723L46.9156 232.801Z" fill="#455A64"/>
<path d="M47.7549 232.001C51.1122 232.001 62.1815 347.285 79.1064 358.216L92.1505 379.022L116.837 380.789L114.368 373.384C114.368 373.384 121.774 375.497 119.305 370.56C116.837 365.622 108.374 347.631 108.374 347.631C108.374 347.631 114.368 346.93 114.023 341.637C113.677 336.344 106.617 333.175 105.56 328.237C105.56 328.237 100.623 301.794 103.091 294.032C105.56 286.271 106.261 271.114 105.906 264.053C105.55 256.993 105.906 234.993 99.1812 228.673C97.0779 226.698 47.7549 232.001 47.7549 232.001Z" fill="#263238"/>
<path d="M47.8136 232.297C44.4043 242.556 42.7355 253.313 42.8764 264.123C43.2023 281.018 47.8136 338.675 51.1512 343.316C54.4888 347.957 65.4001 382.735 65.4001 382.735H82.2953L88.5952 355.906L79.6292 230.658L47.8136 232.297Z" fill="#263238"/>
<path d="M58.3008 257.092C58.3111 257.197 58.3111 257.303 58.3008 257.408C58.3008 257.645 58.3008 257.941 58.3699 258.326C58.4193 259.165 58.4982 260.301 58.597 261.851C58.7649 264.952 59.0117 269.376 59.308 274.836C59.8807 285.827 60.6607 300.954 61.5198 317.662C61.7239 321.72 62.2322 325.757 63.0405 329.738C63.8612 333.441 65.1243 337.031 66.8027 340.432C69.9625 346.95 73.9123 352.203 77.1413 356.627C80.3702 361.05 83.066 364.635 84.715 367.192C85.5741 368.466 86.2159 369.473 86.6306 370.155C86.8281 370.48 86.9861 370.747 87.1145 370.945C87.171 371.031 87.2174 371.124 87.2527 371.221C87.1832 371.144 87.1204 371.062 87.0651 370.974C86.9368 370.777 86.759 370.53 86.5418 370.214C86.0974 369.542 85.4358 368.555 84.5669 367.301C82.8191 364.773 80.1727 361.218 76.8549 356.834C72.8611 351.776 69.3564 346.35 66.388 340.63C64.6944 337.205 63.4212 333.588 62.5962 329.857C61.7752 325.856 61.257 321.8 61.0459 317.721C60.167 300.994 59.4956 285.846 58.992 274.876C58.755 269.425 58.5674 265.001 58.4291 261.891C58.4291 260.38 58.3402 259.205 58.3106 258.356C58.3106 257.98 58.3106 257.674 58.3106 257.437C58.287 257.324 58.2837 257.207 58.3008 257.092Z" fill="#455A64"/>
<path d="M83.2425 240.918C83.0944 240.918 82.7487 238.143 81.9193 234.785C81.0898 231.428 80.1419 228.792 80.2801 228.732C82.1372 232.532 83.1479 236.689 83.2425 240.918Z" fill="#455A64"/>
<path d="M89.0194 233.788C88.4524 232.934 88.0288 231.994 87.7653 231.003C87.3422 230.067 87.0817 229.065 86.9951 228.041C87.5621 228.895 87.9857 229.835 88.2492 230.826C88.6732 231.762 88.9338 232.764 89.0194 233.788Z" fill="#455A64"/>
<path d="M50.0752 238.854C50.6531 236.379 51.5563 233.992 52.7611 231.754C52.5643 233.013 52.1955 234.239 51.665 235.398C51.2984 236.618 50.7633 237.781 50.0752 238.854Z" fill="#455A64"/>
<path d="M108.373 347.633C108.1 347.524 107.846 347.37 107.622 347.179C107.158 346.863 106.507 346.379 105.727 345.747C103.684 344.093 101.796 342.255 100.088 340.257C98.4037 338.247 96.8471 336.133 95.4275 333.927C94.791 333.045 94.2358 332.106 93.7686 331.123C94.4872 331.941 95.1471 332.809 95.7435 333.72C96.9185 335.349 98.5182 337.601 100.493 339.921C102.192 341.893 104.023 343.747 105.973 345.471C106.811 346.149 107.612 346.87 108.373 347.633Z" fill="#455A64"/>
<path d="M95.1326 301.341C94.1867 301.046 93.2761 300.649 92.4171 300.156C88.1742 297.937 84.3673 294.97 81.18 291.397C80.4917 290.686 79.8886 289.897 79.3828 289.047C80.1099 289.708 80.7989 290.411 81.4466 291.15C83.102 292.837 84.8632 294.417 86.7195 295.88C88.5878 297.326 90.5506 298.646 92.5949 299.83C93.4741 300.275 94.3219 300.78 95.1326 301.341Z" fill="#455A64"/>
<path d="M92.1504 379.022L98.3516 419.023L116.294 418.52C116.294 418.52 117.696 383.337 116.294 379.022C114.891 374.707 110.823 360.744 110.823 360.744" fill="#263238"/>
<path d="M97.9649 417.06V418.196C97.9649 418.196 78.8084 426.796 78.6504 430.45H116.44L116.144 416.398C113.338 417.804 110.262 418.59 107.126 418.704C103.99 418.818 100.866 418.257 97.9649 417.06Z" fill="#263238"/>
<path d="M64.8173 417.63V418.766C64.8173 418.766 45.6608 426.794 45.5127 430.447H83.7763L82.9962 416.969C80.1904 418.375 77.1152 419.162 73.9787 419.276C70.8423 419.39 67.7179 418.829 64.8173 417.63Z" fill="#263238"/>
<path d="M55.5254 350.445C55.5254 350.445 64.8173 417.059 64.8272 418.194C70.713 420.475 77.2387 420.475 83.1246 418.194L84.2601 382.735L55.5254 350.445Z" fill="#263238"/>
<path d="M116.461 418.291H97.8078L97.3535 412.584H116.461V418.291Z" fill="#455A64"/>
<path d="M83.4303 418.291H64.7872L64.333 412.584H83.4303V418.291Z" fill="#455A64"/>
<path d="M83.1452 381.441C82.4432 380.947 81.7974 380.377 81.2196 379.743C80.0841 378.647 78.5634 377.067 76.9637 375.26C75.3641 373.453 74.0014 371.744 73.0139 370.48C72.4642 369.826 71.9813 369.118 71.5723 368.367C72.2064 368.94 72.785 369.572 73.3003 370.253C74.2877 371.458 75.7294 373.117 77.3192 374.924C78.909 376.731 80.3902 378.331 81.4566 379.496C82.0783 380.091 82.6435 380.742 83.1452 381.441Z" fill="#455A64"/>
<path d="M83.3014 125.789C83.3014 125.789 89.4531 121.988 94.8841 125.789C100.315 129.591 110.456 143.168 110.999 149.873C111.542 156.578 106.832 184.997 106.832 184.997C106.832 184.997 86.5599 217.948 72.0741 216.318C57.5882 214.689 26.9082 214.344 26.9082 214.344L23.8076 201.299L63.4043 179.773C63.4043 179.773 72.7949 148.422 74.0588 143.168C75.3228 137.915 80.4871 126.964 83.3014 125.789Z" fill="#263238"/>
<path d="M16.8955 202.407L20.0158 215.767L27.9648 214.089L27.5698 200.027L16.8955 202.407Z" fill="#263238"/>
<path d="M110.19 161.703C110.19 161.703 110.19 161.841 110.19 162.108C110.19 162.374 110.111 162.779 110.042 163.283C109.904 164.329 109.697 165.86 109.43 167.835C108.867 171.785 108.058 177.66 107.031 185.016V185.076C103.904 190.043 100.481 194.818 96.7808 199.374C94.6171 202.051 92.3097 204.609 89.8687 207.037C87.2353 209.719 84.284 212.071 81.0804 214.038C79.3838 215.07 77.5389 215.836 75.61 216.309L74.8595 216.467L74.0992 216.546C73.5871 216.6 73.0708 216.6 72.5587 216.546C71.5219 216.546 70.5345 216.358 69.5075 216.269C65.4294 215.904 61.2228 215.657 56.9176 215.44C48.3169 215.015 39.3015 214.758 30.0392 214.591H26.8991H26.9584L20.0462 216.042L19.7994 216.091L19.7401 215.854C18.6869 211.312 17.6468 206.859 16.6198 202.494L16.5605 202.238L16.8272 202.188L23.7393 200.983H23.6702L63.2965 179.605L63.2076 179.714L71.1862 153.003C72.9636 146.871 73.8424 143.869 74.0399 143.129C74.0399 143.129 74.0399 143.356 73.9017 143.79C73.7634 144.225 73.6351 144.867 73.4178 145.706C72.9735 147.385 72.2921 149.853 71.3837 153.023C69.5865 159.363 66.9204 168.516 63.573 179.793V179.862H63.5038L23.9269 201.339L17.0148 202.563L17.2123 202.257C18.226 206.609 19.2662 211.059 20.3326 215.608L20.0364 215.41L26.9485 213.968H27.0078L30.1478 214.018C39.42 214.186 48.4255 214.452 57.0459 214.877C61.3512 215.104 65.5577 215.351 69.6458 215.736C70.6332 215.825 71.6997 215.973 72.6871 216.012C73.176 216.067 73.6695 216.067 74.1584 216.012L74.8891 215.943L75.61 215.785C77.4942 215.333 79.2965 214.59 80.952 213.583C84.1078 211.634 87.0185 209.313 89.6218 206.671C92.0568 204.259 94.364 201.721 96.534 199.068C100.241 194.539 103.677 189.794 106.823 184.858V184.918C107.909 177.561 108.798 171.755 109.361 167.756C109.667 165.781 109.904 164.26 110.062 163.204C110.141 162.71 110.2 162.325 110.25 162.039L110.19 161.703Z" fill="#455A64"/>
<path d="M23.8094 201.303C24.7951 203.247 25.4872 205.327 25.8633 207.474C26.3982 209.586 26.6244 211.765 26.5347 213.942C26.3767 213.942 26.1101 211.069 25.3597 207.583C24.6092 204.097 23.6613 201.362 23.8094 201.303Z" fill="#455A64"/>
<path d="M186.796 138.815C175.559 139.694 164.381 141.619 153.114 141.679C141.848 141.738 130.196 139.783 120.795 133.562C114.752 129.563 109.637 123.825 102.695 121.712C100.641 121.08 97.7581 121.209 94.4996 121.712C94.4996 121.712 82.1861 121.337 79.0164 121.92C75.8467 122.502 69.606 128.249 67.167 128.664C64.728 129.079 56.0681 128.18 56.0681 128.18C55.5088 128.645 55.0838 129.25 54.8373 129.934C54.5907 130.619 54.5316 131.356 54.6659 132.071C55.1004 134.608 53.6785 133.68 58.1713 135.477C62.6642 137.275 71.7093 141.333 75.817 135.477C78.4634 131.705 81.2184 127.578 85.1781 125.484C94.7069 122.443 104.996 126.472 109.637 134.125C115.799 144.285 135.024 151.622 147.713 154.861C160.402 158.1 156.087 154.594 173.1 151.356C190.114 148.117 191.467 152.975 191.467 152.975L198.103 139.585C194.508 138.361 190.588 138.519 186.796 138.815Z" fill="#39FF14"/>
</svg>
