<svg width="46" height="46" viewBox="0 0 46 46" fill="none" xmlns="http://www.w3.org/2000/svg">
<path d="M36.4162 7.66699H9.5829C8.90512 7.66699 8.25511 7.93624 7.77585 8.4155C7.29659 8.89476 7.02734 9.54477 7.02734 10.2225V37.0559C7.02734 37.7337 7.29659 38.3837 7.77585 38.8629C8.25511 39.3422 8.90512 39.6114 9.5829 39.6114H36.4162C37.094 39.6114 37.744 39.3422 38.2233 38.8629C38.7025 38.3837 38.9718 37.7337 38.9718 37.0559V10.2225C38.9718 9.54477 38.7025 8.89476 38.2233 8.4155C37.744 7.93624 37.094 7.66699 36.4162 7.66699Z" fill="#39FF14"/>
<path d="M30.9861 17.1506H33.9812V12.6586C31.984 12.6586 23.9979 10.662 23.9979 19.1471V22.1416H20.0049V27.1332H23.9979V40.2502H28.9896V27.1332H33.4816L33.9806 22.1416H28.9896V19.1477C28.9896 17.1512 30.4871 17.1506 30.9861 17.1506Z" fill="white"/>
<path d="M29.145 39.6114H36.9107C37.4574 39.6114 37.9816 39.3943 38.3681 39.0078C38.7546 38.6212 38.9718 38.097 38.9718 37.5504V9.72805C38.9718 9.18142 38.7546 8.65718 38.3681 8.27066C37.9816 7.88414 37.4574 7.66699 36.9107 7.66699H9.0884C8.54177 7.66699 8.01754 7.88414 7.63101 8.27066C7.24449 8.65718 7.02734 9.18142 7.02734 9.72805V37.5504C7.02734 38.097 7.24449 38.6212 7.63101 39.0078C8.01754 39.3943 8.54177 39.6114 9.0884 39.6114H24.087" stroke="black" stroke-width="2" stroke-miterlimit="10"/>
<path d="M29.1442 39.6115V26.9666H33.6963L34.2023 21.9085H29.1442V18.8738C29.1442 16.8504 30.6616 16.8504 31.1676 16.8504H34.2023V12.299C32.1578 12.092 24.0861 10.2763 24.0861 18.8744V21.9091H20.04V26.9672H24.0861V39.6115" stroke="black" stroke-width="2" stroke-miterlimit="10" stroke-linecap="round" stroke-linejoin="round"/>
</svg>
