<svg width="45" height="45" viewBox="0 0 45 45" fill="none" xmlns="http://www.w3.org/2000/svg">
<path d="M36.25 6.875H8.75C7.71447 6.875 6.875 7.71447 6.875 8.75V36.25C6.875 37.2855 7.71447 38.125 8.75 38.125H36.25C37.2855 38.125 38.125 37.2855 38.125 36.25V8.75C38.125 7.71447 37.2855 6.875 36.25 6.875Z" fill="#39FF14"/>
<path d="M12.5 18.75H16.25V31.875H12.5V18.75Z" fill="#382138"/>
<path d="M14.375 15.9375C15.5831 15.9375 16.5625 14.9581 16.5625 13.75C16.5625 12.5419 15.5831 11.5625 14.375 11.5625C13.1669 11.5625 12.1875 12.5419 12.1875 13.75C12.1875 14.9581 13.1669 15.9375 14.375 15.9375Z" fill="white"/>
<path d="M26.5625 21.875C25.1819 21.875 24.0625 22.605 24.0625 24.6875V31.875H20.3125V18.75H24.0625V20.1313H24.0613C24.53 19.5983 25.1071 19.1715 25.754 18.8794C26.4009 18.5873 27.1027 18.4367 27.8125 18.4375C30.5738 18.4375 32.8125 20.5 32.8125 24.0625V31.875H29.0625V24.6875C29.0625 22.605 27.9437 21.875 26.5625 21.875Z" fill="#382138"/>
<path d="M36.375 7H8.875C7.83947 7 7 7.83947 7 8.875V36.375C7 37.4105 7.83947 38.25 8.875 38.25H36.375C37.4105 38.25 38.25 37.4105 38.25 36.375V8.875C38.25 7.83947 37.4105 7 36.375 7Z" stroke="black" stroke-width="2" stroke-miterlimit="10"/>
<path d="M12.5 18.75H16.25V31.875H12.5V18.75Z" fill="white" stroke="black" stroke-width="2" stroke-linecap="round" stroke-linejoin="round"/>
<path d="M14.375 15.9375C15.5831 15.9375 16.5625 14.9581 16.5625 13.75C16.5625 12.5419 15.5831 11.5625 14.375 11.5625C13.1669 11.5625 12.1875 12.5419 12.1875 13.75C12.1875 14.9581 13.1669 15.9375 14.375 15.9375Z" stroke="black" stroke-width="2" stroke-linecap="round" stroke-linejoin="round"/>
<path d="M26.5625 21.875C25.1819 21.875 24.0625 22.605 24.0625 24.6875V31.875H20.3125V18.75H24.0625V20.1313H24.0613C24.53 19.5983 25.1071 19.1715 25.754 18.8794C26.4009 18.5873 27.1027 18.4367 27.8125 18.4375C30.5737 18.4375 32.8125 20.5 32.8125 24.0625V31.875H29.0625V24.6875C29.0625 22.605 27.9437 21.875 26.5625 21.875Z" fill="white" stroke="black" stroke-width="2" stroke-linecap="round" stroke-linejoin="round"/>
</svg>
