<svg width="258" height="270" viewBox="0 0 258 270" fill="none" xmlns="http://www.w3.org/2000/svg">
<path d="M73.787 48.292L73.2528 72.6075L49.376 72.7037L74.7729 98.1062L93.4568 98.1564L108.789 113.489C111.168 115.868 113.249 115.27 114.445 114.17C115.043 113.62 115.363 112.959 115.347 112.123C115.332 111.288 114.979 110.114 113.485 108.62L98.8743 94.0094L99.1857 73.6937L73.787 48.292ZM142.385 90.0659C132.669 90.0875 123.147 93.5488 115.766 100.39C116.851 100.957 117.843 101.686 118.709 102.552C123.403 107.248 123.406 114.857 118.715 119.548C114.026 124.239 106.419 124.235 101.724 119.539C101.613 119.429 101.507 119.315 101.401 119.201C98.2445 124.295 95.2518 129.648 92.6386 134.643C87.1345 145.165 83.7063 153.033 82.9222 154.848C84.0329 156.951 85.3134 158.96 86.7509 160.855L92.97 151.441L98.3284 154.982L91.1667 165.821C93.1508 167.733 95.2814 169.435 97.5364 170.974L103.96 161.251L109.318 164.79L103.029 174.309C105.479 175.64 108.033 176.847 110.661 177.987L115.522 168.754L121.205 171.746L116.63 180.434C118.808 181.286 121.017 182.124 123.25 182.967C130.253 170.841 136.74 158.186 150.534 153.647L152.542 159.747C147.459 161.419 143.507 164.611 140.019 168.772C145.142 169.083 150.981 169.084 156.514 168.402C158.059 168.212 159.596 167.956 161.12 167.636L166.166 154.34L161.604 153.836L163.395 136.069L169.787 136.713L168.633 148.149L175.115 148.865L171.955 157.19L175.351 160.716C190.157 145.145 189.396 119.41 172.951 102.939L172.929 102.918C164.574 94.5611 153.899 90.3037 143.37 90.0752C143.041 90.0683 142.713 90.0648 142.384 90.0659H142.385ZM140.348 116.846C144.584 116.848 148.822 118.457 152.037 121.672C157.62 127.256 158.344 135.92 154.231 142.314C154.231 142.314 154.064 142.784 152.045 145.049C145.619 151.476 135.1 151.47 128.671 145.039C122.243 138.61 122.236 128.091 128.662 121.664C131.875 118.451 136.111 116.845 140.348 116.846ZM140.346 123.225C137.766 123.224 135.187 124.217 133.201 126.203C129.231 130.174 129.233 136.522 133.21 140.5C137.19 144.479 143.535 144.481 147.505 140.509C151.476 136.538 151.474 130.189 147.497 126.211C145.507 124.222 142.926 123.226 140.346 123.225ZM119.844 126.368L112.253 150.096L99.8728 140.087L119.844 126.368ZM203.981 153.562C198.338 153.57 192.235 155.66 185.876 158.909L205.008 165.365L209.465 154.282C207.693 153.788 205.862 153.56 203.981 153.562ZM169.434 163.833L166.591 171.327L187.245 192.22L175.524 196.779C184.706 205.96 194.268 212.337 212.552 211.804C212.155 195.508 206.923 184.172 197.527 174.777L192.48 187.754L169.434 163.833ZM156.225 179.396L159.034 195.515C162.902 196.385 167.291 194.094 168.806 190.303L165.887 181.426L161.389 182.595L156.225 179.396ZM150.091 185.292L139.206 200.133C141.373 203.561 146.203 205.076 150.039 203.43L150.091 185.292Z" fill="#39FF14"/>
<path fill-rule="evenodd" clip-rule="evenodd" d="M14 255L14 6L20 6L20 255L14 255Z" fill="#FF3DF0"/>
<path fill-rule="evenodd" clip-rule="evenodd" d="M249 256H14V250H249V256Z" fill="#FF3DF0"/>
<path fill-rule="evenodd" clip-rule="evenodd" d="M254 257L236 242L239.841 237.391L257.841 252.391L254 257Z" fill="#FF3DF0"/>
<path fill-rule="evenodd" clip-rule="evenodd" d="M21.713 5.07072L4.36508 20.8203L0.332031 16.3779L17.68 0.628366L21.713 5.07072Z" fill="#FF3DF0"/>
<path fill-rule="evenodd" clip-rule="evenodd" d="M237 265.001L252 250.001L256.242 254.243L241.242 269.243L237 265.001Z" fill="#FF3DF0"/>
<path fill-rule="evenodd" clip-rule="evenodd" d="M27.2812 23.0156L14.5027 6.08305L19.292 2.46875L32.0705 19.4013L27.2812 23.0156Z" fill="#FF3DF0"/>
</svg>
