<svg width="202" height="203" viewBox="0 0 202 203" fill="none" xmlns="http://www.w3.org/2000/svg">
<g clip-path="url(#clip0_246_3072)">
<path fill-rule="evenodd" clip-rule="evenodd" d="M121.267 48.1785C120.095 49.2539 112.377 65.846 100.187 93.624C95.5802 104.078 87.8902 121.018 83.046 131.265C70.1826 158.441 76.4334 163.66 89.3443 136.076C108.857 94.3866 126.333 51.7439 124.912 49.168C124.08 47.6799 122.345 47.2023 121.267 48.1785Z" fill="#BA68C8"/>
<path fill-rule="evenodd" clip-rule="evenodd" d="M102.267 30.1785C101.095 31.2539 93.3766 47.846 81.1867 75.624C76.5802 86.078 68.8902 103.018 64.046 113.265C51.1826 140.441 57.4334 145.66 70.3443 118.076C89.8575 76.3866 107.333 33.7439 105.912 31.168C105.08 29.6799 103.345 29.2023 102.267 30.1785Z" fill="#39FF14"/>
</g>
<defs>
<clipPath id="clip0_246_3072">
<rect width="151.414" height="151.414" fill="white" transform="translate(64.1885 0.751953) rotate(25.0825)"/>
</clipPath>
</defs>
</svg>
