<svg width="293" height="293" viewBox="0 0 293 293" fill="none" xmlns="http://www.w3.org/2000/svg">
<path fill-rule="evenodd" clip-rule="evenodd" d="M129.688 23.4334C94.3669 28.4244 60.9654 51.4598 57.766 98.2984C55.4625 133.235 55.7185 133.491 89.2478 126.709C117.53 120.95 115.994 122.485 115.994 100.986C115.994 82.6855 121.113 72.3196 135.062 65.153C166.032 49.4121 188.3 90.8757 188.3 103.929C188.3 118.262 178.062 125.813 145.812 135.155C119.449 142.833 111.003 153.711 109.979 180.97C109.723 189.032 108.828 195.431 107.932 196.455C103.965 201.318 117.786 205.797 132.503 204.517C176.654 200.55 176.014 200.934 173.583 184.297C172.047 173.931 173.071 172.395 183.565 169.196C208.903 161.518 223.365 146.929 231.043 121.334C251.135 55.299 206.984 12.6836 129.688 23.4334ZM171.023 31.1119C199.818 35.335 226.692 72.5755 221.701 101.626C217.094 128.5 202.505 145.009 173.455 155.887C159.377 161.134 154.898 167.788 154.77 183.401V192.103C139.157 193.639 138.134 193.639 127.896 195.175C129.687 157.422 127.128 153.583 173.839 137.202C203.145 126.964 209.544 102.521 190.476 74.1112C159.89 28.5523 81.1853 58.7542 96.1583 110.328C96.7982 112.759 97.1822 114.935 96.9263 115.191C96.5424 115.575 79.9053 119.286 78.6256 119.286C78.4976 119.286 77.6019 103.545 76.8341 98.1703C70.0514 51.9715 119.066 23.6893 171.023 31.1119ZM122.393 219.106C99.3577 229.6 98.4616 257.754 120.857 265.817C165.52 281.941 205.96 255.451 180.749 226.657C173.327 217.954 135.446 213.091 122.393 219.106ZM155.155 226.784C165.393 228.32 174.351 236.511 174.351 244.189C174.351 258.394 139.542 265.433 127 253.787C120.857 248.028 118.81 221.282 155.155 226.784Z" fill="#FF3DF0"/>
</svg>
