<svg width="114" height="57" viewBox="0 0 114 57" fill="none" xmlns="http://www.w3.org/2000/svg">
<g clip-path="url(#clip0_147_23412)">
<path d="M19.5878 51.2116L23.1809 35.6783L23.2487 35.385L23.0213 35.1878L10.97 24.7397L26.8932 23.3575L27.1933 23.3315L27.3106 23.054L33.5 8.40936L39.6894 23.054L39.8067 23.3315L40.1068 23.3575L56.03 24.7397L43.9787 35.1878L43.7513 35.385L43.8191 35.6783L47.4122 51.2116L33.7583 42.975L33.5 42.8192L33.2417 42.975L19.5878 51.2116Z" fill="white" stroke="black"/>
</g>
<g clip-path="url(#clip1_147_23412)">
<path d="M76.5878 51.2116L80.1809 35.6783L80.2487 35.385L80.0213 35.1878L67.97 24.7397L83.8932 23.3575L84.1933 23.3315L84.3106 23.054L90.5 8.40936L96.6894 23.054L96.8067 23.3315L97.1068 23.3575L113.03 24.7397L100.979 35.1878L100.751 35.385L100.819 35.6783L104.412 51.2116L90.7583 42.975L90.5 42.8192L90.2417 42.975L76.5878 51.2116Z" fill="white" stroke="black"/>
</g>
<defs>
<clipPath id="clip0_147_23412">
<rect width="57" height="57" fill="white"/>
</clipPath>
<clipPath id="clip1_147_23412">
<rect width="57" height="57" fill="white" transform="translate(57)"/>
</clipPath>
</defs>
</svg>
