<svg width="336" height="472" viewBox="0 0 336 472" fill="none" xmlns="http://www.w3.org/2000/svg">
<path d="M226.101 167.525C226.432 162.474 226.839 154.817 226.706 149.519C226.489 140.928 225.404 128.659 223.451 116.363C221.497 104.066 221.063 63.5809 221.063 63.5809C221.063 63.5809 219.761 75.85 221.063 100.416C222.365 124.981 224.109 129.867 223.451 148.284C222.792 166.701 219.761 153.197 219.327 136.015C218.893 118.833 214.122 112.685 214.556 116.363C215.516 124.597 218.364 148.339 214.343 146.555C208.068 143.947 211.133 102.117 209.351 80.6807C207.615 59.8206 203.492 62.2634 200.674 42.6383C197.857 23.0133 202.41 0.890625 202.41 0.890625C202.41 0.890625 198.721 2.12579 196.985 18.0728C195.249 34.0199 195.9 51.2294 199.372 62.2633C202.844 73.2973 202.844 95.42 201.976 112.602C201.108 129.784 197.407 129.784 195.884 117.515C194.361 105.246 197.621 80.6807 197.621 80.6807C197.621 80.6807 193.935 90.5069 192.633 102.776C191.331 115.045 193.067 122.428 193.284 137.168C193.421 146.445 190.721 164.835 189.042 155.695C188.045 150.205 188.848 137.579 188.943 130.992C189.16 116.253 185.897 105.219 185.897 105.219C185.897 105.219 185.897 127.314 183.944 137.14C181.991 146.967 179.604 127.314 180.689 107.662C181.774 88.0092 185.029 73.2973 183.735 52.4097C182.44 31.5221 177.247 25.5111 177.247 25.5111C177.247 25.5111 179.63 46.3986 179.63 62.3457C179.63 78.2927 178.107 88.1464 176.379 83.2333C174.65 78.3202 176.596 45.1636 176.596 45.1636C176.596 45.1636 173.123 53.7546 172.255 69.7291C171.387 85.7036 173.123 99.1803 174.208 105.411C175.434 112.328 174.97 131.157 174.521 139.254C173.858 151.193 170.332 161.843 169.03 147.159C168.577 142.026 169.221 132.996 169.221 127.506C169.221 111.532 166.616 102.941 166.616 102.941C166.616 102.941 167.701 121.358 165.314 128.741C162.927 136.125 158.373 111.532 160.543 89.4365C162.714 67.3412 163.148 53.7546 160.326 35.4196C157.505 17.0847 155.986 34.1845 155.986 34.1845C157.722 30.5066 158.59 52.6018 156.854 68.5763C155.118 84.5508 153.602 86.9936 153.808 102.941C154.013 118.888 155.544 126.271 155.11 148.366C154.676 170.462 151.203 166.784 150.986 160.663C150.769 154.542 152.072 143.453 151.638 127.506C151.203 111.559 148.382 100.498 148.382 100.498C148.308 109.243 148.091 117.893 147.735 126.271C147.354 136.427 146.364 140.352 144.54 138.979C141.993 137.085 140.649 118.97 141.494 106.317C141.723 102.831 142.686 89.4365 143.398 88.2288C143.398 88.2288 139.709 94.377 139.061 107.854C138.414 121.331 138.627 136.097 137.325 148.366C135.334 167.141 131.233 144.579 131.233 129.757C131.233 127.369 132.375 109.363 132.33 109.089C132.284 108.814 135.376 131.184 135.376 131.184C135.479 120.851 135.332 110.468 134.942 100.498C134.291 83.3157 131.039 74.7246 129.086 64.816C127.312 55.8681 129.626 40.6072 130.411 32.5377C128.538 35.6118 126.032 46.6732 125.396 57.4326C124.528 72.172 126.047 80.763 127.35 96.7375C128.046 105.246 127.852 119.299 127.437 128.055C126.976 137.799 125.347 138.375 124.06 132.858C123.519 130.556 123.076 127.226 122.78 123.233C122.484 119.239 122.346 114.736 122.381 110.214C122.404 106.152 122.27 92.5381 122.796 89.3542C121.797 96.1712 121.055 104.701 120.637 114.146C120.22 123.592 120.141 133.647 120.409 143.371C120.69 154.597 120.534 162.255 120.195 167.525H226.101Z" fill="#37474F"/>
<path d="M306.839 250.842C307.09 244.715 307.398 235.425 307.297 228.999C307.133 218.577 306.312 203.693 304.835 188.776C303.357 173.859 303.029 124.746 303.029 124.746C303.029 124.746 302.044 139.63 303.029 169.43C304.014 199.231 305.333 205.158 304.835 227.5C304.337 249.843 302.044 233.461 301.716 212.617C301.387 191.773 297.779 184.314 298.107 188.776C298.833 198.765 300.987 227.567 297.946 225.403C293.199 222.24 295.518 171.495 294.17 145.49C292.857 120.184 289.738 123.147 287.606 99.3401C285.475 75.5327 288.92 48.6953 288.92 48.6953C288.92 48.6953 286.129 50.1937 284.816 69.5393C283.502 88.8849 283.995 109.762 286.622 123.147C289.248 136.533 289.248 163.37 288.591 184.214C287.935 205.058 285.135 205.058 283.983 190.174C282.831 175.291 285.297 145.49 285.297 145.49C285.297 145.49 282.509 157.41 281.524 172.294C280.539 187.178 281.852 196.135 282.016 214.015C282.12 225.27 280.078 247.579 278.808 236.491C278.053 229.831 278.661 214.515 278.733 206.523C278.897 188.643 276.429 175.257 276.429 175.257C276.429 175.257 276.429 202.061 274.952 213.982C273.474 225.902 271.668 202.061 272.489 178.221C273.31 154.38 275.772 136.533 274.793 111.194C273.814 85.8548 269.886 78.5628 269.886 78.5628C269.886 78.5628 271.689 103.902 271.689 123.247C271.689 142.593 270.537 154.547 269.229 148.586C267.922 142.626 269.393 102.403 269.393 102.403C269.393 102.403 266.767 112.825 266.11 132.204C265.453 151.583 266.767 167.932 267.587 175.49C268.515 183.881 268.163 206.723 267.824 216.546C267.322 231.03 264.656 243.949 263.671 226.135C263.328 219.909 263.815 208.954 263.815 202.295C263.815 182.916 261.845 172.494 261.845 172.494C261.845 172.494 262.665 194.836 260.86 203.793C259.054 212.75 255.609 182.916 257.251 156.112C258.893 129.307 259.221 112.825 257.087 90.583C254.953 68.3405 253.804 89.0846 253.804 89.0846C255.117 84.6228 255.774 111.427 254.46 130.806C253.147 150.185 252.001 153.148 252.156 172.494C252.312 191.839 253.47 200.796 253.141 227.6C252.813 254.405 250.186 249.943 250.022 242.517C249.858 235.092 250.843 221.64 250.515 202.295C250.186 182.949 248.052 169.53 248.052 169.53C247.996 180.139 247.832 190.633 247.563 200.796C247.275 213.116 246.526 217.878 245.146 216.213C243.22 213.915 242.203 191.939 242.842 176.589C243.015 172.361 243.744 156.112 244.282 154.647C244.282 154.647 241.492 162.105 241.002 178.454C240.512 194.803 240.674 212.717 239.689 227.6C238.182 250.376 235.081 223.005 235.081 205.025C235.081 202.128 235.945 180.285 235.91 179.952C235.876 179.619 238.214 206.756 238.214 206.756C238.292 194.221 238.181 181.625 237.886 169.53C237.393 148.686 234.934 138.264 233.456 126.244C232.114 115.389 233.865 96.8761 234.459 87.0868C233.042 90.8161 231.147 104.235 230.666 117.287C230.009 135.168 231.158 145.59 232.143 164.969C232.67 175.291 232.523 192.339 232.209 202.96C231.861 214.781 230.628 215.48 229.655 208.787C229.246 205.994 228.911 201.955 228.687 197.11C228.463 192.266 228.358 186.802 228.385 181.317C228.402 176.389 228.301 159.874 228.698 156.012C227.943 164.282 227.382 174.629 227.066 186.088C226.75 197.546 226.69 209.743 226.893 221.54C227.106 235.159 226.988 244.449 226.731 250.842H306.839Z" fill="#37474F"/>
<path d="M111.523 257.67C111.773 251.543 112.082 242.253 111.981 235.827C111.817 225.405 110.996 210.521 109.518 195.604C108.041 180.687 107.713 131.574 107.713 131.574C107.713 131.574 106.728 146.458 107.713 176.259C108.698 206.059 110.017 211.986 109.518 234.329C109.02 256.671 106.728 240.289 106.399 219.445C106.071 198.601 102.462 191.142 102.791 195.604C103.516 205.593 105.671 234.395 102.629 232.231C97.8831 229.068 100.201 178.323 98.8536 152.318C97.5404 127.012 94.4213 129.976 92.2901 106.168C90.1589 82.3608 93.6034 55.5234 93.6034 55.5234C93.6034 55.5234 90.8126 57.0218 89.4993 76.3674C88.186 95.713 88.6785 116.59 91.3051 129.976C93.9317 143.361 93.9317 170.198 93.275 191.042C92.6184 211.886 89.819 211.886 88.667 197.003C87.515 182.119 89.9803 152.318 89.9803 152.318C89.9803 152.318 87.1924 164.238 86.2075 179.122C85.2225 194.006 86.5358 202.963 86.6999 220.843C86.8036 232.098 84.7617 254.407 83.4916 243.319C82.737 236.659 83.3447 221.343 83.4167 213.351C83.5809 195.471 81.1127 182.086 81.1127 182.086C81.1127 182.086 81.1127 208.89 79.6353 220.81C78.1578 232.73 76.352 208.89 77.1728 185.049C77.9936 161.208 80.4561 143.361 79.4769 118.022C78.4977 92.6829 74.5693 85.3909 74.5693 85.3909C74.5693 85.3909 76.3722 110.73 76.3722 130.075C76.3722 149.421 75.2202 161.375 73.9127 155.415C72.6051 149.454 74.0768 109.232 74.0768 109.232C74.0768 109.232 71.4502 119.654 70.7936 139.032C70.1369 158.411 71.4502 174.76 72.271 182.319C73.1984 190.709 72.847 213.551 72.5072 223.374C72.0061 237.858 69.3392 250.777 68.3542 232.963C68.0115 226.737 68.4982 215.782 68.4982 209.123C68.4982 189.744 66.5283 179.322 66.5283 179.322C66.5283 179.322 67.3491 201.664 65.5433 210.621C63.7375 219.578 60.293 189.744 61.9346 162.94C63.5763 136.136 63.9046 119.654 61.7705 97.4111C59.6364 75.1687 58.4873 95.9128 58.4873 95.9128C59.8005 91.451 60.4572 118.255 59.1439 137.634C57.8306 157.013 56.6844 159.976 56.8399 179.322C56.9954 198.667 58.1532 207.624 57.8248 234.429C57.4965 261.233 54.8699 256.771 54.7058 249.346C54.5416 241.92 55.5266 228.468 55.1983 209.123C54.8699 189.777 52.7358 176.358 52.7358 176.358C52.6796 186.967 52.5153 197.461 52.2462 207.624C51.9582 219.944 51.2094 224.706 49.8299 223.041C47.9032 220.743 46.8865 198.767 47.5259 183.417C47.6987 179.189 48.4273 162.94 48.9659 161.475C48.9659 161.475 46.1752 168.933 45.6856 185.282C45.1959 201.631 45.3572 219.545 44.3723 234.429C42.866 257.204 39.7642 229.833 39.7642 211.853C39.7642 208.956 40.6282 187.113 40.5937 186.78C40.5591 186.447 42.8977 213.585 42.8977 213.585C42.9756 201.05 42.8645 188.453 42.5694 176.358C42.0769 155.514 39.6173 145.093 38.1399 133.072C36.7978 122.217 38.5489 103.704 39.1421 93.9149C37.7252 97.6442 35.8301 111.063 35.3491 124.115C34.6925 141.996 35.8416 152.418 36.8266 171.797C37.3536 182.119 37.2068 199.167 36.8928 209.789C36.5444 221.609 35.3117 222.308 34.3383 215.616C33.9291 212.822 33.5943 208.783 33.3703 203.938C33.1463 199.094 33.0418 193.63 33.0682 188.146C33.0855 183.218 32.9846 166.702 33.3821 162.84C32.6268 171.11 32.0651 181.457 31.7494 192.916C31.4336 204.375 31.3741 216.572 31.5763 228.368C31.7894 241.987 31.6714 251.277 31.415 257.67H111.523Z" fill="#37474F"/>
<path d="M304.415 352.067V255.761V352.067ZM304.415 352.067C304.423 354.826 303.883 357.559 302.826 360.107C301.77 362.656 300.219 364.969 298.262 366.914L304.415 352.067ZM216.08 435.914H216.068L119.762 435.914L119.75 435.914C117.587 435.92 115.443 435.497 113.445 434.668C111.446 433.84 109.632 432.623 108.107 431.089L108.097 431.079L40.7501 363.732L40.7403 363.722C39.2059 362.197 37.9892 360.383 37.161 358.384C36.3327 356.386 35.9092 354.243 35.9151 352.079V352.067L35.9151 255.761L35.9151 255.749C35.9092 253.586 36.3327 251.442 37.161 249.444L33.0532 247.742L37.161 249.444C37.9892 247.445 39.2058 245.631 40.7403 244.106L40.7501 244.096L108.097 176.749L108.107 176.739C109.632 175.205 111.446 173.988 113.445 173.16L111.742 169.052L113.445 173.16C115.443 172.332 117.587 171.908 119.75 171.914H119.762L216.068 171.914L216.08 171.914C218.244 171.908 220.387 172.332 222.385 173.16C224.384 173.988 226.198 175.205 227.723 176.739L227.733 176.749L295.08 244.096L295.09 244.106C296.624 245.631 297.841 247.445 298.669 249.444C299.498 251.442 299.921 253.586 299.915 255.749V255.761L299.915 352.067L299.915 352.079C299.921 354.243 299.498 356.386 298.669 358.384C297.841 360.383 296.624 362.197 295.09 363.722L295.08 363.732L227.733 431.079L227.723 431.089C226.198 432.623 224.384 433.84 222.385 434.668C220.387 435.497 218.244 435.92 216.08 435.914Z" fill="#1E1E1E" stroke="#39FF14" stroke-width="9"/>
<path d="M167.408 356.348C192.274 356.348 212.431 331.706 212.431 301.31C212.431 270.913 192.274 246.271 167.408 246.271C142.542 246.271 122.384 270.913 122.384 301.31C122.384 331.706 142.542 356.348 167.408 356.348Z" fill="#FF3DF0"/>
<path d="M136.908 298.86C140.058 298.521 143.243 298.687 146.341 299.352C149.457 300.133 152.304 301.744 154.579 304.012C154.613 304.048 154.632 304.096 154.632 304.146C154.632 304.195 154.613 304.243 154.579 304.279C154.563 304.296 154.545 304.309 154.524 304.317C154.503 304.326 154.481 304.331 154.458 304.331H154.264C152.57 304.417 150.872 304.417 149.177 304.331C147.863 304.283 146.556 304.107 145.276 303.805C143.933 303.46 142.632 302.968 141.396 302.339C139.786 301.551 138.298 300.535 136.977 299.322L136.826 299.188C136.794 299.153 136.775 299.107 136.775 299.059C136.775 299.011 136.794 298.964 136.826 298.929C136.847 298.899 136.875 298.875 136.908 298.86Z" fill="#EDEDED"/>
<path d="M136.942 291.928C140.825 291.938 144.695 292.354 148.491 293.169C150.448 293.466 152.35 294.047 154.139 294.894C155.969 295.808 157.537 297.173 158.695 298.86C158.712 298.887 158.717 298.92 158.709 298.952C158.702 298.983 158.683 299.01 158.656 299.028C158.639 299.035 158.621 299.039 158.603 299.039C158.584 299.039 158.566 299.035 158.549 299.028L148.034 294.92C144.407 293.73 140.701 292.8 136.942 292.135C136.927 292.133 136.913 292.128 136.9 292.12C136.887 292.112 136.876 292.102 136.867 292.09C136.859 292.078 136.852 292.064 136.849 292.05C136.845 292.035 136.845 292.02 136.847 292.005C136.855 291.985 136.868 291.968 136.884 291.954C136.901 291.941 136.921 291.931 136.942 291.928Z" fill="#1E1E1E"/>
<path d="M195.933 299.291C194.614 300.504 193.128 301.52 191.519 302.309C190.282 302.936 188.982 303.428 187.639 303.775C186.357 304.076 185.049 304.252 183.733 304.3C182.039 304.387 180.341 304.387 178.646 304.3H178.452C178.428 304.299 178.404 304.293 178.382 304.283C178.36 304.273 178.34 304.258 178.324 304.24C178.307 304.222 178.295 304.201 178.286 304.178C178.278 304.155 178.274 304.131 178.276 304.106C178.279 304.06 178.297 304.016 178.327 303.981C180.604 301.712 183.452 300.102 186.57 299.321C189.664 298.668 192.842 298.512 195.985 298.86C196.009 298.863 196.032 298.87 196.053 298.882C196.074 298.893 196.092 298.909 196.107 298.928C196.122 298.947 196.133 298.968 196.139 298.992C196.146 299.015 196.148 299.039 196.145 299.063C196.141 299.108 196.119 299.15 196.084 299.179L195.933 299.291Z" fill="#EDEDED"/>
<path d="M195.968 292.157C192.21 292.822 188.503 293.753 184.876 294.941L174.362 299.05C174.332 299.061 174.3 299.061 174.271 299.049C174.242 299.037 174.219 299.014 174.206 298.985C174.192 298.949 174.192 298.909 174.206 298.873C175.361 297.191 176.923 295.828 178.746 294.911C180.536 294.064 182.44 293.483 184.398 293.187C188.192 292.371 192.061 291.955 195.942 291.945C195.957 291.945 195.972 291.948 195.986 291.954C196 291.96 196.013 291.969 196.023 291.98C196.034 291.991 196.042 292.003 196.047 292.017C196.053 292.032 196.055 292.047 196.054 292.062C196.051 292.084 196.041 292.105 196.026 292.122C196.01 292.139 195.99 292.151 195.968 292.157Z" fill="#1E1E1E"/>
<path d="M122.389 301.308C121.537 298.677 120.885 295.985 120.44 293.256C119.494 289.23 119.727 285.017 121.113 281.12C122.406 278.353 124.794 276.443 125.958 273.464C128.446 267.101 127.596 259.621 131.709 253.888C134.143 250.055 137.494 246.889 141.459 244.678C145.425 242.466 149.879 241.278 154.419 241.222C168.908 242.179 186.394 234.225 197.633 251.719C208.871 269.213 208.069 265.083 211.751 277.801C215.433 290.518 214.807 297.088 214.493 298.097C213.934 299.244 213.242 300.322 212.432 301.308C212.432 301.308 209.186 290.841 193.261 289.889C189.12 289.749 185.042 288.833 181.238 287.19C175.741 284.578 171.999 282.017 165.718 282.845C161.455 283.414 157.183 283.965 152.932 284.642C146.724 285.634 134.149 286.608 130.812 293.264C127.079 300.688 122.402 301.304 122.389 301.308Z" fill="white"/>
<path d="M130.816 293.256C129.876 296.082 129.502 299.066 129.717 302.037C129.932 305.008 130.73 307.907 132.066 310.569C136.438 321.385 163.286 307.706 164.851 307.706C166.416 307.706 170.783 305.551 181.086 311.866C191.39 318.182 204.189 303.995 204.189 303.995C204.189 303.995 205.676 293.049 202.896 292.053C200.115 291.057 212.427 295.502 212.427 295.502C212.986 304.011 212.986 312.548 212.427 321.057C211.367 328.692 200.438 342.686 200.438 345.867C200.438 349.049 178.177 362.391 167.451 360.809C156.725 359.227 140.18 357.632 132.687 345.548C125.195 333.464 119.573 309.547 122.384 301.309C125.195 293.071 130.816 293.256 130.816 293.256ZM226.378 250.112H226.309C222.13 251.53 217.876 252.713 213.565 253.655C211.675 254.031 209.749 254.188 207.823 254.125C207.009 254.049 206.203 253.905 205.413 253.694C205.049 253.608 204.699 253.471 204.374 253.285L202.87 252.603C200.569 251.656 198.099 251.186 195.61 251.224C195.903 251.017 196.158 250.758 196.472 250.573C198.294 249.464 200.44 249.01 202.555 249.284C204.857 249.512 207.171 248.994 209.155 247.805C211.097 246.651 212.794 245.128 214.152 243.322C214.17 243.299 214.183 243.271 214.188 243.242C214.193 243.212 214.191 243.182 214.182 243.154C214.168 243.106 214.136 243.066 214.092 243.041C214.048 243.017 213.997 243.011 213.949 243.025L213.802 243.068C211.293 243.818 209.272 244.46 207.513 244.839C206.079 245.156 204.6 245.216 203.146 245.016C201.565 244.854 199.968 245.001 198.442 245.447C197.046 245.934 195.762 246.7 194.67 247.698C193.518 248.773 192.619 250.091 192.036 251.556C190.484 251.818 188.951 252.187 187.449 252.66C182.914 254.111 178.739 256.507 175.198 259.691L175.159 259.725C175.125 259.758 175.104 259.802 175.099 259.849C175.094 259.896 175.105 259.943 175.131 259.982C175.157 260.022 175.196 260.051 175.242 260.064C175.287 260.078 175.335 260.075 175.379 260.057C179.452 258.177 183.724 256.759 188.113 255.832C192.419 254.685 196.971 254.873 201.167 256.371C203.227 257.427 205.504 257.987 207.819 258.005C210.106 257.907 212.368 257.483 214.535 256.746C218.821 255.248 222.863 253.129 226.533 250.457C226.566 250.431 226.591 250.396 226.604 250.356C226.618 250.316 226.618 250.273 226.606 250.232C226.589 250.188 226.556 250.152 226.514 250.13C226.472 250.108 226.424 250.101 226.378 250.112Z" fill="white"/>
<line x1="63.5317" y1="215.682" x2="262.975" y2="404.14" stroke="#39FF14" stroke-width="10"/>
</svg>
