<svg width="361" height="451" viewBox="0 0 361 451" fill="none" xmlns="http://www.w3.org/2000/svg">
<path d="M67.3008 303.801C70.1942 302.297 89.5223 171.2 89.5223 171.2C89.5223 171.2 298.213 132.56 301.156 132.395L285.697 254.183L67.3008 303.801Z" fill="#FF3DF0" stroke="#263238" stroke-width="0.955681" stroke-linecap="round" stroke-linejoin="round"/>
<path opacity="0.5" d="M285.747 253.589C285.747 253.986 285.747 254.184 285.747 254.184L67.3838 303.786C70.2772 302.281 89.6053 171.184 89.6053 171.184C89.6053 171.184 298.296 132.544 301.239 132.379C301.272 132.385 301.303 132.397 301.331 132.416C301.359 132.434 301.383 132.458 301.401 132.485C301.42 132.513 301.433 132.544 301.439 132.577C301.445 132.61 301.445 132.644 301.437 132.677C297.734 160.536 287.069 244.776 285.747 253.589Z" fill="black" stroke="#263238" stroke-width="0.955681" stroke-linecap="round" stroke-linejoin="round"/>
<path d="M89.5221 171.2C89.5221 171.2 48.9314 196.018 41.177 225.001C33.4226 253.985 67.3006 303.802 67.3006 303.802C67.3006 303.802 73.7322 279.646 79.4034 237.501C81.6354 220.885 89.5221 171.2 89.5221 171.2Z" fill="#263238" stroke="#263238" stroke-width="0.955681" stroke-linecap="round" stroke-linejoin="round"/>
<path opacity="0.5" d="M275.346 256.201C270.998 249.885 247.569 218.503 258.035 194.149C276.768 150.516 290.971 148.565 297.369 137.487C297.452 137.52 276.669 247.421 275.346 256.201Z" fill="black"/>
<path d="M67.3008 303.801L78.7918 301.189L98.8639 182.162L291.451 145.291L275.347 256.233L285.664 254.183L301.321 132.692L89.5223 171.2L67.3008 303.801Z" fill="#FF3DF0" stroke="#263238" stroke-width="0.955681" stroke-linecap="round" stroke-linejoin="round"/>
<path d="M67.3008 303.802L74.0631 380.552H67.3008L70.6076 397.846C70.6076 397.846 148.069 450.342 154.715 450.143C168.786 449.746 358.082 389.58 358.082 389.58L360 376.055L355.172 373.476V303.802L285.614 254.2L67.3008 303.802Z" fill="#FF3DF0" stroke="#263238" stroke-width="0.955681" stroke-linecap="round" stroke-linejoin="round"/>
<path opacity="0.5" d="M355.222 303.802V373.475L153.789 432.072L74.0466 380.569L67.3008 303.802L285.664 254.184L355.222 303.802Z" fill="black"/>
<path opacity="0.2" d="M67.3008 303.802L149.425 353.37L355.222 303.802L285.664 254.184L67.3008 303.802Z" fill="black"/>
<path opacity="0.5" d="M89.5215 305.306L151.358 341.912L334.934 297.452L283.728 260.747L89.5215 305.306Z" fill="black"/>
<path d="M149.425 353.37L154.782 450.143" stroke="#263238" stroke-width="0.955681" stroke-linecap="round" stroke-linejoin="round"/>
<path d="M74.0625 387.33L154.004 438.701" stroke="#263238" stroke-width="0.955681" stroke-linecap="round" stroke-linejoin="round"/>
<path d="M355.222 378.948L154.782 438.702" stroke="#263238" stroke-width="0.955681" stroke-linecap="round" stroke-linejoin="round"/>
<path opacity="0.4" d="M272.867 369.424C258.797 375.393 244.429 368.267 244.429 368.267V356.693C251.977 359.771 260.239 360.665 268.271 359.272C274.157 358.379 275.331 355.965 274.884 353.733C278.29 366.514 272.867 369.424 272.867 369.424Z" fill="white"/>
<path opacity="0.6" d="M268.271 359.305C260.239 360.698 251.977 359.804 244.429 356.726H244.528L271.495 348.459C273.041 349.943 274.179 351.799 274.801 353.849C275.331 356.065 274.157 358.412 268.271 359.305Z" fill="white"/>
<path d="M272.867 369.424C258.797 375.393 244.429 368.266 244.429 368.266V356.693H244.528L271.495 348.426C273.041 349.909 274.179 351.765 274.801 353.816C278.29 366.514 272.867 369.424 272.867 369.424Z" stroke="#263238" stroke-width="0.955681" stroke-linecap="round" stroke-linejoin="round"/>
<path d="M88.9938 305.306L150.83 341.912L334.356 297.469L291.897 265.476C291.389 262.765 290.075 260.27 288.128 258.316C285.613 255.637 282.528 253.557 279.1 252.232L277.447 251.951C277.447 251.951 260.433 213.08 226.093 202.349C191.752 191.619 72.8236 283.646 89.0103 305.322" fill="white"/>
<path d="M88.9938 305.306L150.83 341.912L334.356 297.469L291.897 265.476C291.389 262.765 290.075 260.27 288.128 258.316C285.613 255.637 282.528 253.557 279.1 252.232L277.447 251.951C277.447 251.951 260.433 213.08 226.093 202.349C191.752 191.619 72.8236 283.646 89.0103 305.322" stroke="#FF3DF0" stroke-width="0.955681" stroke-linecap="round" stroke-linejoin="round"/>
<path d="M141.058 232.326C141.538 233.681 140.199 234.954 139.074 235.847C137.95 236.74 136.743 238.245 137.504 239.485C136.704 239.015 135.785 238.79 134.86 238.837C133.934 238.884 133.043 239.201 132.295 239.749C131.556 240.316 131.003 241.092 130.708 241.976C130.413 242.86 130.39 243.812 130.642 244.709C131.502 247.355 134.511 248.578 137.256 249.207C143.244 250.39 149.339 250.944 155.443 250.86C156.319 250.86 157.46 250.695 157.625 249.835C157.639 249.511 157.543 249.192 157.355 248.928C157.166 248.665 156.895 248.472 156.584 248.38C155.988 248.132 155.311 248.099 154.699 247.867C154.307 247.68 153.96 247.409 153.684 247.074C153.407 246.739 153.208 246.347 153.099 245.926C152.99 245.505 152.975 245.066 153.054 244.639C153.134 244.211 153.306 243.807 153.558 243.453C153.342 242.845 153.372 242.177 153.64 241.59C153.909 241.004 154.395 240.545 154.996 240.311C156.223 239.88 157.544 239.795 158.816 240.063C159.004 239.701 159.062 239.285 158.981 238.885C158.9 238.485 158.684 238.125 158.369 237.864C158.765 237.495 159.037 237.012 159.147 236.482C159.256 235.952 159.198 235.401 158.981 234.905C157.03 230.408 144.861 231.747 141.058 232.326Z" fill="white"/>
<path d="M155.261 237.781C151.238 237.418 147.255 236.704 143.356 235.648L155.261 237.781Z" fill="white"/>
<path d="M155.261 237.781C151.238 237.418 147.255 236.704 143.356 235.648" stroke="#FF3DF0" stroke-width="0.716761" stroke-linecap="round" stroke-linejoin="round"/>
<path d="M151.607 242.973C148.535 243.131 145.462 242.682 142.563 241.65L151.607 242.973Z" fill="white"/>
<path d="M151.607 242.973C148.535 243.131 145.462 242.682 142.563 241.65" stroke="#FF3DF0" stroke-width="0.716761" stroke-linecap="round" stroke-linejoin="round"/>
<path d="M151.558 247.652C145.493 247.61 139.466 246.685 133.668 244.907L151.558 247.652Z" fill="white"/>
<path d="M151.558 247.652C145.493 247.61 139.466 246.685 133.668 244.907" stroke="#FF3DF0" stroke-width="0.716761" stroke-linecap="round" stroke-linejoin="round"/>
<path d="M88.6793 287.516C89.1588 288.872 87.8361 290.145 86.6952 291.038C85.5544 291.93 84.3805 293.435 85.1411 294.675C84.3394 294.204 83.4176 293.979 82.4891 294.026C81.5607 294.073 80.6663 294.39 79.9164 294.94C79.1888 295.514 78.6514 296.295 78.3741 297.18C78.0969 298.065 78.0927 299.013 78.3622 299.9C79.2054 302.545 82.2146 303.769 84.9757 304.397C90.9924 305.577 97.115 306.131 103.246 306.05C104.122 306.05 105.279 305.885 105.445 305.025C105.455 304.698 105.357 304.376 105.165 304.11C104.974 303.844 104.7 303.648 104.386 303.554C103.791 303.322 103.113 303.289 102.518 303.058C102.125 302.872 101.777 302.602 101.498 302.268C101.22 301.933 101.019 301.542 100.909 301.121C100.798 300.7 100.782 300.26 100.86 299.832C100.938 299.404 101.109 298.998 101.361 298.643C101.15 298.033 101.184 297.365 101.455 296.779C101.727 296.194 102.214 295.736 102.816 295.502C104.037 295.075 105.35 294.983 106.619 295.237C106.831 294.885 106.905 294.466 106.826 294.063C106.746 293.659 106.519 293.3 106.189 293.055C106.583 292.681 106.853 292.194 106.959 291.661C107.066 291.128 107.005 290.575 106.784 290.079C104.651 285.581 92.4325 286.921 88.6793 287.516Z" fill="white"/>
<path d="M102.865 292.955C98.8419 292.607 94.8578 291.899 90.9609 290.839" stroke="#FF3DF0" stroke-width="0.716761" stroke-linecap="round" stroke-linejoin="round"/>
<path d="M99.2277 298.114C96.1618 298.278 93.0937 297.834 90.2002 296.808" stroke="#FF3DF0" stroke-width="0.716761" stroke-linecap="round" stroke-linejoin="round"/>
<path d="M99.1778 302.842C93.117 302.803 87.0949 301.872 81.3047 300.081" stroke="#FF3DF0" stroke-width="0.716761" stroke-linecap="round" stroke-linejoin="round"/>
<path d="M163.875 217.296C164.222 218.701 162.751 219.825 161.527 220.603C160.304 221.38 158.965 222.735 159.593 224.042C158.844 223.49 157.951 223.169 157.023 223.119C156.094 223.069 155.171 223.292 154.368 223.761C153.583 224.257 152.965 224.978 152.593 225.83C152.222 226.682 152.114 227.625 152.285 228.539C152.864 231.267 155.724 232.805 158.353 233.714C164.212 235.511 170.24 236.702 176.342 237.269C177.218 237.368 178.375 237.269 178.623 236.475C178.674 236.153 178.616 235.823 178.457 235.538C178.298 235.253 178.048 235.03 177.747 234.904C177.168 234.607 176.507 234.508 175.928 234.21C175.558 233.982 175.242 233.675 175.003 233.312C174.764 232.949 174.607 232.538 174.544 232.107C174.481 231.677 174.513 231.238 174.638 230.822C174.763 230.405 174.978 230.021 175.267 229.696C175.12 229.068 175.222 228.407 175.552 227.852C175.882 227.297 176.414 226.891 177.036 226.72C178.299 226.423 179.619 226.474 180.855 226.869C181.102 226.539 181.216 226.129 181.177 225.72C181.137 225.31 180.946 224.93 180.64 224.653C181.076 224.327 181.398 223.872 181.562 223.353C181.725 222.834 181.721 222.277 181.55 221.76C179.963 217.081 167.728 217.13 163.875 217.296Z" fill="white"/>
<path d="M177.4 224.224C173.449 223.478 169.575 222.371 165.826 220.917" stroke="#FF3DF0" stroke-width="0.716761" stroke-linecap="round" stroke-linejoin="round"/>
<path d="M173.25 228.969C170.173 228.818 167.159 228.048 164.388 226.704" stroke="#FF3DF0" stroke-width="0.716761" stroke-linecap="round" stroke-linejoin="round"/>
<path d="M172.687 233.665C166.682 232.98 160.81 231.415 155.261 229.019" stroke="#FF3DF0" stroke-width="0.716761" stroke-linecap="round" stroke-linejoin="round"/>
<path d="M261.739 222.257C261.591 223.613 263.079 224.489 264.319 225.084C265.559 225.679 266.964 226.737 266.518 228.077C267.155 227.473 267.955 227.07 268.819 226.917C269.683 226.764 270.573 226.869 271.379 227.217C272.172 227.59 272.834 228.194 273.279 228.949C273.724 229.704 273.932 230.575 273.875 231.45C273.644 234.062 271.147 235.831 268.783 236.972C263.512 239.335 258.01 241.141 252.365 242.362C251.571 242.56 250.48 242.643 250.149 241.883C250.065 241.586 250.082 241.27 250.199 240.986C250.316 240.701 250.526 240.463 250.794 240.312C251.29 239.965 251.902 239.799 252.447 239.452C252.77 239.198 253.033 238.877 253.218 238.51C253.402 238.143 253.504 237.74 253.515 237.33C253.526 236.919 253.446 236.512 253.282 236.135C253.117 235.759 252.872 235.424 252.563 235.153C252.634 234.55 252.466 233.942 252.095 233.46C251.725 232.978 251.181 232.66 250.579 232.574C249.364 232.452 248.138 232.652 247.024 233.153C246.781 232.857 246.648 232.486 246.648 232.103C246.648 231.72 246.781 231.349 247.024 231.053C246.584 230.794 246.234 230.406 246.021 229.942C245.808 229.478 245.743 228.96 245.834 228.457C246.677 223.894 258.135 222.538 261.739 222.257Z" fill="white"/>
<path d="M249.901 230.292C253.52 229.116 257.024 227.611 260.367 225.795" stroke="#FF3DF0" stroke-width="0.716761" stroke-linecap="round" stroke-linejoin="round"/>
<path d="M254.315 234.243C257.172 233.745 259.9 232.677 262.334 231.102" stroke="#FF3DF0" stroke-width="0.716761" stroke-linecap="round" stroke-linejoin="round"/>
<path d="M255.373 238.576C260.928 237.247 266.258 235.114 271.196 232.243" stroke="#FF3DF0" stroke-width="0.716761" stroke-linecap="round" stroke-linejoin="round"/>
<path d="M298.13 265.84C298.13 266.65 298.956 267.196 299.783 267.493C300.61 267.791 301.436 268.535 301.122 269.329C301.508 268.958 301.995 268.71 302.522 268.616C303.049 268.522 303.591 268.586 304.082 268.799C304.563 269.029 304.966 269.397 305.237 269.857C305.508 270.316 305.635 270.846 305.603 271.379C305.454 273.032 303.95 274.041 302.511 274.685C299.328 276.13 296.004 277.238 292.591 277.992C292.095 278.125 291.433 278.174 291.235 277.711C291.185 277.53 291.197 277.337 291.268 277.163C291.34 276.99 291.468 276.845 291.632 276.752C291.929 276.537 292.31 276.438 292.607 276.223C292.812 276.075 292.979 275.882 293.097 275.659C293.215 275.436 293.281 275.189 293.289 274.937C293.297 274.685 293.247 274.434 293.143 274.205C293.039 273.975 292.884 273.772 292.69 273.611C292.724 273.243 292.616 272.875 292.389 272.583C292.162 272.292 291.832 272.097 291.467 272.04C290.725 271.965 289.977 272.09 289.301 272.404C289.153 272.221 289.072 271.994 289.072 271.759C289.072 271.524 289.153 271.297 289.301 271.114C289.034 270.957 288.822 270.723 288.692 270.442C288.562 270.162 288.52 269.848 288.573 269.543C288.97 266.832 295.931 266.005 298.13 265.84Z" fill="white"/>
<path d="M290.922 270.717C293.125 269.997 295.261 269.085 297.304 267.989" stroke="#FF3DF0" stroke-width="0.716761" stroke-linecap="round" stroke-linejoin="round"/>
<path d="M293.616 273.131C295.354 272.823 297.012 272.171 298.494 271.213" stroke="#FF3DF0" stroke-width="0.716761" stroke-linecap="round" stroke-linejoin="round"/>
<path d="M294.261 275.76C297.638 274.947 300.879 273.649 303.883 271.907" stroke="#FF3DF0" stroke-width="0.716761" stroke-linecap="round" stroke-linejoin="round"/>
<path d="M154.716 247.106C154.893 247.958 155.258 248.759 155.784 249.451C156.311 250.144 156.985 250.71 157.758 251.108C159.296 251.882 160.996 252.279 162.718 252.265C165.506 252.483 168.278 251.684 170.522 250.016" stroke="#FF3DF0" stroke-width="0.716761" stroke-linecap="round" stroke-linejoin="round"/>
<path d="M177.614 252.018C178.854 253.364 180.529 254.229 182.345 254.459C184.16 254.688 185.999 254.269 187.535 253.274" stroke="#FF3DF0" stroke-width="0.716761" stroke-linecap="round" stroke-linejoin="round"/>
<path d="M169.513 240.989C168.742 241.327 168.037 241.797 167.43 242.378C167.131 242.676 166.903 243.037 166.762 243.435C166.622 243.833 166.573 244.257 166.619 244.676C166.867 246.33 168.818 247.008 170.455 247.272C174.851 247.898 179.321 247.792 183.682 246.958C184.372 246.875 185.04 246.662 185.65 246.33C185.955 246.168 186.213 245.931 186.401 245.642C186.589 245.353 186.7 245.02 186.725 244.676C186.725 244.504 186.69 244.334 186.623 244.175C186.556 244.016 186.458 243.873 186.335 243.753C186.212 243.632 186.066 243.538 185.906 243.475C185.745 243.412 185.574 243.382 185.402 243.387" stroke="#FF3DF0" stroke-width="0.716761" stroke-linecap="round" stroke-linejoin="round"/>
<path d="M189.255 251.786C192.68 253.906 196.64 255.002 200.668 254.947C204.696 254.891 208.624 253.685 211.989 251.471C212.093 251.418 212.186 251.343 212.26 251.252C212.334 251.161 212.388 251.056 212.419 250.942" stroke="#FF3DF0" stroke-width="0.716761" stroke-linecap="round" stroke-linejoin="round"/>
<path d="M229.498 247.62C236.864 249.327 244.603 248.18 251.157 244.412" stroke="#FF3DF0" stroke-width="0.716761" stroke-linecap="round" stroke-linejoin="round"/>
<path d="M262.434 239.517C265.623 239.212 268.646 237.956 271.114 235.913" stroke="#FF3DF0" stroke-width="0.716761" stroke-linecap="round" stroke-linejoin="round"/>
<path d="M194.942 208.6C194.946 209.167 194.78 209.722 194.467 210.195C194.154 210.668 193.708 211.037 193.184 211.256C192.661 211.474 192.084 211.532 191.528 211.422C190.972 211.313 190.46 211.04 190.059 210.639C189.658 210.238 189.386 209.727 189.276 209.17C189.166 208.614 189.224 208.037 189.443 207.514C189.661 206.991 190.03 206.544 190.503 206.231C190.976 205.918 191.531 205.753 192.099 205.756C192.853 205.756 193.576 206.056 194.109 206.589C194.643 207.122 194.942 207.846 194.942 208.6Z" fill="white" stroke="#FF3DF0" stroke-width="0.716761" stroke-linecap="round" stroke-linejoin="round"/>
<path d="M197.819 211.443C197.823 212.01 197.658 212.565 197.345 213.037C197.033 213.51 196.587 213.879 196.065 214.098C195.543 214.317 194.967 214.376 194.411 214.267C193.855 214.159 193.344 213.888 192.942 213.488C192.541 213.089 192.267 212.579 192.155 212.024C192.043 211.469 192.099 210.893 192.315 210.369C192.531 209.846 192.897 209.398 193.368 209.083C193.839 208.768 194.393 208.6 194.959 208.6C195.715 208.6 196.44 208.899 196.976 209.432C197.512 209.964 197.815 210.688 197.819 211.443Z" fill="white" stroke="#FF3DF0" stroke-width="0.716761" stroke-linecap="round" stroke-linejoin="round"/>
<path d="M201.424 213.377C201.427 213.943 201.262 214.498 200.95 214.971C200.638 215.443 200.192 215.812 199.67 216.031C199.147 216.25 198.572 216.31 198.016 216.201C197.46 216.093 196.948 215.821 196.547 215.422C196.145 215.023 195.871 214.513 195.759 213.958C195.648 213.402 195.703 212.826 195.919 212.303C196.135 211.779 196.502 211.332 196.973 211.016C197.443 210.701 197.997 210.533 198.563 210.533C198.938 210.531 199.31 210.603 199.657 210.745C200.004 210.887 200.319 211.096 200.585 211.36C200.851 211.625 201.062 211.939 201.206 212.285C201.35 212.631 201.424 213.002 201.424 213.377Z" fill="white" stroke="#FF3DF0" stroke-width="0.716761" stroke-linecap="round" stroke-linejoin="round"/>
<path d="M204.268 214.304C204.268 214.87 204.099 215.424 203.784 215.895C203.469 216.365 203.022 216.732 202.498 216.948C201.974 217.164 201.398 217.22 200.843 217.108C200.288 216.996 199.778 216.722 199.379 216.32C198.979 215.919 198.708 215.408 198.6 214.852C198.491 214.296 198.55 213.72 198.769 213.198C198.988 212.675 199.358 212.23 199.83 211.917C200.303 211.605 200.857 211.44 201.424 211.443C201.799 211.443 202.17 211.518 202.516 211.661C202.862 211.805 203.176 212.016 203.441 212.282C203.705 212.548 203.914 212.863 204.056 213.21C204.198 213.557 204.27 213.929 204.268 214.304Z" fill="white" stroke="#FF3DF0" stroke-width="0.716761" stroke-linecap="round" stroke-linejoin="round"/>
<path d="M208.17 215.18C208.17 215.742 208.003 216.292 207.691 216.76C207.378 217.227 206.934 217.592 206.415 217.807C205.895 218.022 205.323 218.079 204.771 217.969C204.22 217.859 203.713 217.588 203.315 217.191C202.918 216.793 202.647 216.286 202.537 215.735C202.427 215.183 202.484 214.611 202.699 214.092C202.914 213.572 203.279 213.128 203.746 212.815C204.214 212.503 204.764 212.336 205.326 212.336C206.079 212.34 206.8 212.641 207.332 213.174C207.865 213.706 208.166 214.427 208.17 215.18Z" fill="white" stroke="#FF3DF0" stroke-width="0.716761" stroke-linecap="round" stroke-linejoin="round"/>
<path d="M212.419 215.18C212.422 215.746 212.257 216.301 211.945 216.773C211.633 217.246 211.187 217.615 210.665 217.834C210.142 218.053 209.567 218.112 209.011 218.004C208.455 217.895 207.944 217.624 207.542 217.225C207.14 216.825 206.866 216.316 206.754 215.76C206.643 215.205 206.698 214.629 206.914 214.106C207.13 213.582 207.497 213.134 207.968 212.819C208.438 212.504 208.992 212.336 209.559 212.336C210.313 212.34 211.036 212.641 211.571 213.173C212.106 213.705 212.41 214.425 212.419 215.18Z" fill="white" stroke="#FF3DF0" stroke-width="0.716761" stroke-linecap="round" stroke-linejoin="round"/>
<path d="M213.675 218.024C215.245 218.024 216.519 216.75 216.519 215.18C216.519 213.609 215.245 212.336 213.675 212.336C212.104 212.336 210.831 213.609 210.831 215.18C210.831 216.75 212.104 218.024 213.675 218.024Z" fill="white" stroke="#FF3DF0" stroke-width="0.716761" stroke-linecap="round" stroke-linejoin="round"/>
<path d="M217.577 218.024C219.148 218.024 220.421 216.75 220.421 215.18C220.421 213.609 219.148 212.336 217.577 212.336C216.007 212.336 214.733 213.609 214.733 215.18C214.733 216.75 216.007 218.024 217.577 218.024Z" fill="white" stroke="#FF3DF0" stroke-width="0.716761" stroke-linecap="round" stroke-linejoin="round"/>
<path d="M241.734 209.492C241.73 210.054 241.561 210.602 241.246 211.068C240.932 211.533 240.486 211.895 239.967 212.108C239.447 212.32 238.875 212.374 238.325 212.263C237.774 212.151 237.269 211.879 236.873 211.481C236.477 211.082 236.208 210.576 236.099 210.024C235.991 209.473 236.048 208.902 236.264 208.384C236.48 207.865 236.844 207.422 237.311 207.11C237.779 206.798 238.328 206.632 238.89 206.632C239.265 206.632 239.636 206.706 239.982 206.85C240.328 206.994 240.642 207.205 240.906 207.471C241.171 207.736 241.38 208.052 241.522 208.399C241.664 208.746 241.736 209.117 241.734 209.492Z" fill="white" stroke="#FF3DF0" stroke-width="0.716761" stroke-linecap="round" stroke-linejoin="round"/>
<path d="M238.89 210.997C238.893 211.564 238.728 212.12 238.414 212.593C238.101 213.065 237.655 213.435 237.132 213.653C236.608 213.872 236.032 213.93 235.475 213.82C234.919 213.71 234.408 213.437 234.007 213.036C233.606 212.635 233.333 212.124 233.223 211.568C233.113 211.011 233.171 210.435 233.39 209.911C233.608 209.388 233.978 208.942 234.45 208.629C234.923 208.315 235.479 208.15 236.046 208.153C236.8 208.153 237.523 208.453 238.057 208.986C238.59 209.52 238.89 210.243 238.89 210.997Z" fill="white" stroke="#FF3DF0" stroke-width="0.716761" stroke-linecap="round" stroke-linejoin="round"/>
<path d="M232.723 215.709C234.293 215.709 235.567 214.436 235.567 212.865C235.567 211.295 234.293 210.021 232.723 210.021C231.152 210.021 229.879 211.295 229.879 212.865C229.879 214.436 231.152 215.709 232.723 215.709Z" fill="white" stroke="#FF3DF0" stroke-width="0.716761" stroke-linecap="round" stroke-linejoin="round"/>
<path d="M229.052 217.148C230.622 217.148 231.896 215.874 231.896 214.304C231.896 212.733 230.622 211.46 229.052 211.46C227.481 211.46 226.208 212.733 226.208 214.304C226.208 215.874 227.481 217.148 229.052 217.148Z" fill="white" stroke="#FF3DF0" stroke-width="0.716761" stroke-linecap="round" stroke-linejoin="round"/>
<path d="M225.646 218.024C227.216 218.024 228.489 216.75 228.489 215.18C228.489 213.609 227.216 212.336 225.646 212.336C224.075 212.336 222.802 213.609 222.802 215.18C222.802 216.75 224.075 218.024 225.646 218.024Z" fill="white" stroke="#FF3DF0" stroke-width="0.716761" stroke-linecap="round" stroke-linejoin="round"/>
<path d="M221.529 218.024C223.1 218.024 224.373 216.75 224.373 215.18C224.373 213.609 223.1 212.336 221.529 212.336C219.959 212.336 218.686 213.609 218.686 215.18C218.686 216.75 219.959 218.024 221.529 218.024Z" fill="white" stroke="#FF3DF0" stroke-width="0.716761" stroke-linecap="round" stroke-linejoin="round"/>
<path d="M221.529 218.024C223.1 218.024 224.373 216.75 224.373 215.18C224.373 213.609 223.1 212.336 221.529 212.336C219.959 212.336 218.686 213.609 218.686 215.18C218.686 216.75 219.959 218.024 221.529 218.024Z" fill="white" stroke="#FF3DF0" stroke-width="0.716761" stroke-linecap="round" stroke-linejoin="round"/>
<path d="M192.876 226.192L192.182 224.604" stroke="#FF3DF0" stroke-width="0.716761" stroke-linecap="round" stroke-linejoin="round"/>
<path d="M187.536 225.547C187.536 225.778 187.222 227.101 186.99 227.101" stroke="#FF3DF0" stroke-width="0.716761" stroke-linecap="round" stroke-linejoin="round"/>
<path d="M187.255 223.943L185.254 225.283" stroke="#FF3DF0" stroke-width="0.716761" stroke-linecap="round" stroke-linejoin="round"/>
<path d="M197.158 221.083L193.851 219.099C193.438 218.835 189.238 221.05 189.238 221.05C189.238 221.05 184.526 225.299 185.237 225.283L186.428 228.16C186.428 228.16 192.099 227.184 193.041 227.101C193.984 227.019 197.538 222.869 197.538 222.869" stroke="#FF3DF0" stroke-width="0.716761" stroke-linecap="round" stroke-linejoin="round"/>
<path d="M194.942 221.893C194.007 222.614 193.113 223.387 192.264 224.207L189.122 225.051" stroke="#FF3DF0" stroke-width="0.716761" stroke-linecap="round" stroke-linejoin="round"/>
<path d="M212.502 229.549L211.973 228.275" stroke="#FF3DF0" stroke-width="0.716761" stroke-linecap="round" stroke-linejoin="round"/>
<path d="M208.351 229.035C208.351 229.217 208.103 230.259 207.921 230.275" stroke="#FF3DF0" stroke-width="0.716761" stroke-linecap="round" stroke-linejoin="round"/>
<path d="M208.136 227.762L206.582 228.82" stroke="#FF3DF0" stroke-width="0.716761" stroke-linecap="round" stroke-linejoin="round"/>
<path d="M215.824 225.481L213.262 223.827C212.011 224.195 210.812 224.717 209.69 225.381C209.69 225.381 206.036 228.771 206.582 228.688L207.508 230.986C207.508 230.986 211.906 230.209 212.617 230.143C213.328 230.077 216.122 226.836 216.122 226.836" stroke="#FF3DF0" stroke-width="0.716761" stroke-linecap="round" stroke-linejoin="round"/>
<path d="M214.039 226.125C213.316 226.697 212.626 227.31 211.972 227.96L209.525 228.638" stroke="#FF3DF0" stroke-width="0.716761" stroke-linecap="round" stroke-linejoin="round"/>
<path d="M220.14 240.278L221.28 241.303" stroke="#FF3DF0" stroke-width="0.716761" stroke-linecap="round" stroke-linejoin="round"/>
<path d="M219.182 244.825C219 244.825 217.809 244.627 217.743 244.825" stroke="#FF3DF0" stroke-width="0.716761" stroke-linecap="round" stroke-linejoin="round"/>
<path d="M220.454 245.503L218.768 246.76" stroke="#FF3DF0" stroke-width="0.716761" stroke-linecap="round" stroke-linejoin="round"/>
<path d="M225.596 238.262C225.596 238.262 226.241 241.105 226.34 241.568C226.44 242.031 223.43 244.759 223.43 244.759C223.43 244.759 218.569 247.388 218.768 246.81L216.701 245.007C216.701 245.007 219.099 240.675 219.429 239.948C219.76 239.221 224.224 237.501 224.224 237.501" stroke="#FF3DF0" stroke-width="0.716761" stroke-linecap="round" stroke-linejoin="round"/>
<path d="M224.29 239.897C223.427 240.456 222.533 240.964 221.611 241.419L219.958 243.75" stroke="#FF3DF0" stroke-width="0.716761" stroke-linecap="round" stroke-linejoin="round"/>
<path d="M234.59 232.871L236.59 230.92" stroke="#FF3DF0" stroke-width="0.716761" stroke-linecap="round" stroke-linejoin="round"/>
<path d="M242.89 235.17C242.741 235.501 242.411 237.65 242.758 237.799" stroke="#FF3DF0" stroke-width="0.716761" stroke-linecap="round" stroke-linejoin="round"/>
<path d="M244.296 232.953L246.462 236.161" stroke="#FF3DF0" stroke-width="0.716761" stroke-linecap="round" stroke-linejoin="round"/>
<path d="M231.316 222.686C231.316 222.686 236.624 221.893 237.401 221.744C238.178 221.595 243.072 227.432 243.072 227.432C243.072 227.432 247.487 236.608 246.379 236.162L242.89 239.667C242.89 239.667 235.07 234.789 233.747 234.095C232.424 233.4 229.646 225.067 229.646 225.067" stroke="#FF3DF0" stroke-width="0.716761" stroke-linecap="round" stroke-linejoin="round"/>
<path d="M234.243 225.266C235.197 226.908 236.058 228.603 236.822 230.341L240.989 233.516" stroke="#FF3DF0" stroke-width="0.716761" stroke-linecap="round" stroke-linejoin="round"/>
<path d="M212.072 203.094C212.072 203.094 216.255 207.955 217.329 208.054C218.404 208.153 225.051 209.294 225.051 209.294L226.456 205.987C227.283 205.987 221.761 201.027 221.761 201.027C221.761 201.027 216.8 198.448 216.371 198.762C215.941 199.076 212.518 201.077 212.518 201.077L211.46 202.019L212.072 203.094Z" fill="white"/>
<path d="M217.527 206.995L218.321 205.127" stroke="#FF3DF0" stroke-width="0.716761" stroke-linecap="round" stroke-linejoin="round"/>
<path d="M223.777 206.234C223.777 206.499 224.141 208.053 224.422 208.053" stroke="#FF3DF0" stroke-width="0.716761" stroke-linecap="round" stroke-linejoin="round"/>
<path d="M224.107 204.366L226.455 205.937" stroke="#FF3DF0" stroke-width="0.716761" stroke-linecap="round" stroke-linejoin="round"/>
<path d="M212.072 203.094C212.072 203.094 216.255 207.955 217.329 208.054C218.404 208.153 225.051 209.294 225.051 209.294L226.456 205.987C227.283 205.987 221.761 201.027 221.761 201.027C221.761 201.027 216.8 198.448 216.371 198.762C215.941 199.076 212.518 201.077 212.518 201.077L211.46 202.019L212.072 203.094Z" stroke="#FF3DF0" stroke-width="0.716761" stroke-linecap="round" stroke-linejoin="round"/>
<path d="M215.196 201.952C216.287 202.798 217.33 203.703 218.321 204.664L222.025 205.656" stroke="#FF3DF0" stroke-width="0.716761" stroke-linecap="round" stroke-linejoin="round"/>
<path d="M127.252 260.73C127.252 260.73 121.499 266.286 120.143 266.286C118.787 266.286 110.421 266.947 110.421 266.947L109.065 262.615C108.023 262.532 115.447 256.977 115.447 256.977C115.447 256.977 121.829 254.315 122.408 254.761C122.987 255.208 126.922 258.068 126.922 258.068L128.129 259.358L127.252 260.73Z" fill="white"/>
<path d="M120.027 264.947L119.233 262.533" stroke="#FF3DF0" stroke-width="0.716761" stroke-linecap="round" stroke-linejoin="round"/>
<path d="M112.273 263.293C112.273 263.624 111.612 265.492 111.265 265.475" stroke="#FF3DF0" stroke-width="0.716761" stroke-linecap="round" stroke-linejoin="round"/>
<path d="M112.157 260.93L109.065 262.616" stroke="#FF3DF0" stroke-width="0.716761" stroke-linecap="round" stroke-linejoin="round"/>
<path d="M122.408 254.762C122.97 255.208 126.922 258.068 126.922 258.068L128.129 259.358L127.252 260.714C127.252 260.714 121.498 266.269 120.143 266.269C118.787 266.269 110.421 266.931 110.421 266.931L110.156 266.104" stroke="#FF3DF0" stroke-width="0.716761" stroke-linecap="round" stroke-linejoin="round"/>
<path d="M123.5 258.945C122.038 259.867 120.63 260.871 119.284 261.954L114.588 262.765" stroke="#FF3DF0" stroke-width="0.716761" stroke-linecap="round" stroke-linejoin="round"/>
<path d="M311.373 288.805C311.373 288.805 317.111 294.361 318.483 294.361C319.855 294.361 328.188 295.022 328.188 295.022L329.561 290.69C330.586 290.608 323.178 285.052 323.178 285.052C323.178 285.052 316.78 282.39 316.218 282.837C315.656 283.283 311.687 286.143 311.687 286.143L310.48 287.433L311.373 288.805Z" fill="white"/>
<path d="M318.583 293.021L319.377 290.607" stroke="#FF3DF0" stroke-width="0.716761" stroke-linecap="round" stroke-linejoin="round"/>
<path d="M326.271 291.368C326.271 291.699 326.932 293.584 327.279 293.551" stroke="#FF3DF0" stroke-width="0.716761" stroke-linecap="round" stroke-linejoin="round"/>
<path d="M326.47 289.003L329.562 290.689" stroke="#FF3DF0" stroke-width="0.716761" stroke-linecap="round" stroke-linejoin="round"/>
<path d="M316.218 282.836C315.656 283.282 311.687 286.143 311.687 286.143L310.48 287.432L311.373 288.788C311.373 288.788 317.111 294.344 318.483 294.344C319.855 294.344 328.188 295.005 328.188 295.005L328.453 294.195" stroke="#FF3DF0" stroke-width="0.716761" stroke-linecap="round" stroke-linejoin="round"/>
<path d="M315.127 287.02C316.582 287.95 317.984 288.96 319.327 290.045L324.022 290.839" stroke="#FF3DF0" stroke-width="0.716761" stroke-linecap="round" stroke-linejoin="round"/>
<path d="M195.72 243.122C197.29 243.122 198.564 241.849 198.564 240.278C198.564 238.708 197.29 237.435 195.72 237.435C194.149 237.435 192.876 238.708 192.876 240.278C192.876 241.849 194.149 243.122 195.72 243.122Z" fill="white" stroke="#FF3DF0" stroke-width="0.716761" stroke-linecap="round" stroke-linejoin="round"/>
<path d="M197.224 246.594C198.794 246.594 200.068 245.321 200.068 243.75C200.068 242.179 198.794 240.906 197.224 240.906C195.653 240.906 194.38 242.179 194.38 243.75C194.38 245.321 195.653 246.594 197.224 246.594Z" fill="white" stroke="#FF3DF0" stroke-width="0.716761" stroke-linecap="round" stroke-linejoin="round"/>
<path d="M199.571 247.569C201.142 247.569 202.415 246.296 202.415 244.726C202.415 243.155 201.142 241.882 199.571 241.882C198.001 241.882 196.728 243.155 196.728 244.726C196.728 246.296 198.001 247.569 199.571 247.569Z" fill="white" stroke="#FF3DF0" stroke-width="0.716761" stroke-linecap="round" stroke-linejoin="round"/>
<path d="M206.136 246.76C206.136 247.326 205.968 247.88 205.653 248.351C205.338 248.821 204.89 249.188 204.366 249.404C203.843 249.62 203.267 249.676 202.711 249.564C202.156 249.452 201.646 249.178 201.247 248.776C200.848 248.375 200.576 247.864 200.468 247.308C200.36 246.752 200.419 246.176 200.638 245.654C200.857 245.131 201.226 244.686 201.698 244.373C202.171 244.061 202.726 243.896 203.292 243.899C203.667 243.899 204.038 243.974 204.384 244.117C204.73 244.261 205.044 244.472 205.309 244.738C205.573 245.004 205.782 245.32 205.924 245.666C206.066 246.013 206.138 246.385 206.136 246.76Z" fill="white" stroke="#FF3DF0" stroke-width="0.716761" stroke-linecap="round" stroke-linejoin="round"/>
<path d="M224.505 259.259C226.076 259.259 227.349 257.986 227.349 256.415C227.349 254.845 226.076 253.571 224.505 253.571C222.934 253.571 221.661 254.845 221.661 256.415C221.661 257.986 222.934 259.259 224.505 259.259Z" stroke="#FF3DF0" stroke-width="0.716761" stroke-linecap="round" stroke-linejoin="round"/>
<path d="M260.566 250.414C262.136 250.414 263.409 249.141 263.409 247.57C263.409 246 262.136 244.727 260.566 244.727C258.995 244.727 257.722 246 257.722 247.57C257.722 249.141 258.995 250.414 260.566 250.414Z" stroke="#FF3DF0" stroke-width="0.716761" stroke-linecap="round" stroke-linejoin="round"/>
<path d="M162.189 291.12C164.38 291.12 166.157 289.343 166.157 287.152C166.157 284.96 164.38 283.184 162.189 283.184C159.997 283.184 158.221 284.96 158.221 287.152C158.221 289.343 159.997 291.12 162.189 291.12Z" stroke="#FF3DF0" stroke-width="0.716761" stroke-linecap="round" stroke-linejoin="round"/>
<path d="M172.308 242.841C173.878 242.841 175.152 241.568 175.152 239.997C175.152 238.427 173.878 237.153 172.308 237.153C170.737 237.153 169.464 238.427 169.464 239.997C169.464 241.568 170.737 242.841 172.308 242.841Z" stroke="#FF3DF0" stroke-width="0.716761" stroke-linecap="round" stroke-linejoin="round"/>
<path d="M290.839 274.817C293.454 275.579 295.73 277.212 297.287 279.447C297.766 280.278 298.349 281.045 299.023 281.729C300.308 282.507 301.664 283.16 303.074 283.68C304.527 284.673 305.552 286.178 305.945 287.895C306.337 289.611 306.068 291.412 305.19 292.938C304.254 294.441 302.954 295.682 301.411 296.549C299.868 297.416 298.131 297.88 296.361 297.899" stroke="#FF3DF0" stroke-width="0.716761" stroke-linecap="round" stroke-linejoin="round"/>
<path d="M238.477 295.121C239.286 295.897 240.252 296.49 241.311 296.86C242.37 297.23 243.495 297.367 244.612 297.264C245.728 297.16 246.81 296.818 247.782 296.26C248.755 295.702 249.596 294.941 250.249 294.03C253.103 295.625 256.271 296.579 259.533 296.825C262.794 297.071 266.069 296.602 269.13 295.452C270.144 295.064 271.02 294.387 271.652 293.505C272.284 292.623 272.643 291.575 272.685 290.491C275.047 291.858 277.801 292.388 280.502 291.995C283.203 291.602 285.691 290.309 287.566 288.325C289.126 288.186 290.57 287.439 291.584 286.245C292.599 285.051 293.103 283.506 292.989 281.943" stroke="#FF3DF0" stroke-width="0.716761" stroke-linecap="round" stroke-linejoin="round"/>
<path d="M157.741 267.642C156.964 270.171 158.865 272.866 161.263 273.941C163.762 274.808 166.432 275.064 169.05 274.685C169.6 275.715 170.503 276.512 171.593 276.931C172.683 277.35 173.887 277.363 174.986 276.967" stroke="#FF3DF0" stroke-width="0.716761" stroke-linecap="round" stroke-linejoin="round"/>
<path d="M112.272 273.247C109.726 273.247 107.924 276.256 108.635 278.687C109.088 279.875 109.87 280.909 110.888 281.67C111.907 282.431 113.121 282.888 114.389 282.986C116.931 283.115 119.468 282.645 121.796 281.613C124.105 280.572 126.523 279.79 129.005 279.282C129.666 281.977 132.708 283.548 135.486 283.498C138.265 283.232 140.949 282.345 143.339 280.902C144.487 282.618 146.234 283.842 148.238 284.334C150.242 284.827 152.357 284.552 154.169 283.564" stroke="#FF3DF0" stroke-width="0.716761" stroke-linecap="round" stroke-linejoin="round"/>
<path d="M106.288 288.606C105.456 289.139 104.754 289.85 104.234 290.689C103.713 291.528 103.387 292.473 103.279 293.455C103.171 294.436 103.284 295.43 103.61 296.362C103.937 297.294 104.467 298.141 105.164 298.841C107.776 301.42 112.075 301.338 115.58 300.213C118.981 299.118 122.082 297.251 124.641 294.757C126.479 293.126 127.742 290.946 128.245 288.54C128.461 287.34 128.295 286.102 127.77 285.002C127.245 283.901 126.387 282.993 125.319 282.406" stroke="#FF3DF0" stroke-width="0.716761" stroke-linecap="round" stroke-linejoin="round"/>
<path d="M124.062 296.609C128.658 297.064 133.292 296.264 137.47 294.294C139.537 293.368 141.415 292.068 143.009 290.458C143.834 289.754 144.424 288.814 144.702 287.766C144.979 286.717 144.931 285.609 144.564 284.589" stroke="#FF3DF0" stroke-width="0.716761" stroke-linecap="round" stroke-linejoin="round"/>
<path d="M121.945 299.47C121.755 299.732 121.653 300.047 121.653 300.371C121.653 300.694 121.755 301.01 121.945 301.272C122.488 302.157 123.282 302.859 124.227 303.289C125.654 304.042 127.243 304.435 128.856 304.435C130.47 304.435 132.059 304.042 133.486 303.289" stroke="#FF3DF0" stroke-width="0.716761" stroke-linecap="round" stroke-linejoin="round"/>
<path d="M107.809 302.132C107.497 302.397 107.241 302.723 107.058 303.09C106.875 303.457 106.768 303.857 106.743 304.266C106.718 304.675 106.776 305.085 106.914 305.472C107.052 305.858 107.266 306.212 107.544 306.513C108.882 307.945 110.604 308.961 112.505 309.44C118.655 310.548 123.417 309.159 130.113 305.703" stroke="#FF3DF0" stroke-width="0.716761" stroke-linecap="round" stroke-linejoin="round"/>
<path d="M133.353 295.98L133.816 296.377C133.474 296.861 133.29 297.438 133.29 298.031C133.29 298.623 133.474 299.201 133.816 299.684C134.574 300.626 135.619 301.293 136.792 301.585C139.651 302.25 142.615 302.329 145.506 301.817L144.481 301.916" stroke="#FF3DF0" stroke-width="0.716761" stroke-linecap="round" stroke-linejoin="round"/>
<path d="M130.891 311.027C130.808 312.201 132.048 312.995 133.156 313.326C135.11 313.907 137.188 313.935 139.158 313.408" stroke="#FF3DF0" stroke-width="0.716761" stroke-linecap="round" stroke-linejoin="round"/>
<path d="M132.527 307.455C133.304 309.869 135.735 310.382 137.917 310.762C140.481 311.105 143.089 310.879 145.556 310.101" stroke="#FF3DF0" stroke-width="0.716761" stroke-linecap="round" stroke-linejoin="round"/>
<path d="M149.16 309.721C151.343 310.878 154.914 311.374 160.618 310.614C163.629 310.253 166.416 308.842 168.488 306.629C169.217 305.868 169.772 304.958 170.115 303.962C170.457 302.966 170.579 301.907 170.472 300.859C170.333 299.813 169.841 298.846 169.077 298.119C168.313 297.391 167.324 296.946 166.273 296.857" stroke="#FF3DF0" stroke-width="0.716761" stroke-linecap="round" stroke-linejoin="round"/>
<path d="M146.233 306.331C146.461 307.101 146.863 307.808 147.407 308.398" stroke="#FF3DF0" stroke-width="0.716761" stroke-linecap="round" stroke-linejoin="round"/>
<path d="M153.475 297.254C150.943 298.08 148.665 299.543 146.862 301.503C146.185 302.57 145.893 303.836 146.035 305.091" stroke="#FF3DF0" stroke-width="0.716761" stroke-linecap="round" stroke-linejoin="round"/>
<path d="M168.967 296.312C170.207 296.778 171.22 297.706 171.793 298.901C172.366 300.097 172.455 301.467 172.042 302.727" stroke="#FF3DF0" stroke-width="0.716761" stroke-linecap="round" stroke-linejoin="round"/>
<path d="M171.266 303.289C174.948 303.447 178.526 304.557 181.649 306.513C182.387 306.888 183.043 307.405 183.58 308.035C184.116 308.665 184.522 309.395 184.774 310.184C184.897 311.169 184.722 312.168 184.271 313.052C183.82 313.936 183.114 314.665 182.244 315.144C180.482 316.044 178.536 316.525 176.557 316.549C173.732 316.865 170.874 316.731 168.091 316.152C165.283 315.56 162.786 313.968 161.064 311.672" stroke="#FF3DF0" stroke-width="0.716761" stroke-linecap="round" stroke-linejoin="round"/>
<path d="M164.784 311.854C172.307 316.218 179.665 314.102 181.467 312.862" stroke="#FF3DF0" stroke-width="0.716761" stroke-linecap="round" stroke-linejoin="round"/>
<path d="M158.651 312.316C157.951 312.59 157.328 313.031 156.839 313.601C156.35 314.172 156.008 314.854 155.845 315.587C155.681 316.321 155.701 317.084 155.902 317.808C156.103 318.532 156.479 319.196 156.997 319.74C158.034 320.692 159.317 321.334 160.701 321.592C163.91 322.385 167.264 322.385 170.472 321.592" stroke="#FF3DF0" stroke-width="0.716761" stroke-linecap="round" stroke-linejoin="round"/>
<path d="M170.142 319.376C171.064 320.671 172.38 321.634 173.895 322.12C174.961 322.551 176.111 322.732 177.257 322.649C178.404 322.565 179.516 322.221 180.508 321.641C181.46 321.029 182.175 320.11 182.533 319.036C182.891 317.963 182.871 316.799 182.476 315.738" stroke="#FF3DF0" stroke-width="0.716761" stroke-linecap="round" stroke-linejoin="round"/>
<path d="M173.233 319.608C174.099 320.348 175.172 320.803 176.305 320.909C177.439 321.016 178.578 320.769 179.566 320.204" stroke="#FF3DF0" stroke-width="0.716761" stroke-linecap="round" stroke-linejoin="round"/>
<path d="M157.84 315.722C157.179 317.987 159.675 319.673 163.147 320.268" stroke="#FF3DF0" stroke-width="0.716761" stroke-linecap="round" stroke-linejoin="round"/>
<path d="M136.76 298.461C137.95 300.263 143.043 299.767 146.862 299.238" stroke="#FF3DF0" stroke-width="0.716761" stroke-linecap="round" stroke-linejoin="round"/>
<path d="M132.99 305.686C133.303 304.625 133.96 303.699 134.859 303.055C135.758 302.411 136.846 302.086 137.95 302.131H137.521" stroke="#FF3DF0" stroke-width="0.716761" stroke-linecap="round" stroke-linejoin="round"/>
<path d="M134.759 305.935C134.722 306.292 134.792 306.652 134.959 306.97C135.127 307.288 135.385 307.549 135.701 307.72C136.342 308.047 137.049 308.222 137.768 308.233C140.17 308.445 142.588 308.384 144.977 308.051" stroke="#FF3DF0" stroke-width="0.716761" stroke-linecap="round" stroke-linejoin="round"/>
<path d="M105.974 296.758C109.314 297.611 112.836 297.404 116.054 296.165C119.271 294.927 122.023 292.719 123.929 289.847" stroke="#FF3DF0" stroke-width="0.716761" stroke-linecap="round" stroke-linejoin="round"/>
<path d="M109.445 304.777C109.974 305.984 112.306 306.58 113.612 306.794C116.549 307.532 119.648 307.276 122.424 306.067" stroke="#FF3DF0" stroke-width="0.716761" stroke-linecap="round" stroke-linejoin="round"/>
<path d="M124.21 300.263C125.152 301.916 128.641 302.759 130.956 301.999" stroke="#FF3DF0" stroke-width="0.716761" stroke-linecap="round" stroke-linejoin="round"/>
<path d="M127.781 293.336C133.27 293.782 141.008 289.434 141.901 286.325" stroke="#FF3DF0" stroke-width="0.716761" stroke-linecap="round" stroke-linejoin="round"/>
<path d="M179.351 303.802C178.283 303.149 177.406 302.227 176.806 301.128C176.205 300.03 175.904 298.794 175.93 297.542C175.957 296.291 176.311 295.068 176.958 293.997C177.605 292.925 178.521 292.042 179.616 291.435C182.883 289.841 186.536 289.21 190.148 289.616C191.885 289.713 193.582 290.178 195.126 290.979C196.671 291.779 198.028 292.898 199.109 294.262C200.156 295.655 200.744 297.339 200.792 299.081C200.839 300.822 200.343 302.536 199.374 303.984" stroke="#FF3DF0" stroke-width="0.716761" stroke-linecap="round" stroke-linejoin="round"/>
<path d="M177.647 296.047C177.647 302.032 183.682 303.454 187.783 303.652C191.883 303.851 196.562 303.371 199.075 298.312" stroke="#FF3DF0" stroke-width="0.716761" stroke-linecap="round" stroke-linejoin="round"/>
<path d="M183.782 305.604C187.972 307.141 192.572 307.141 196.761 305.604" stroke="#FF3DF0" stroke-width="0.716761" stroke-linecap="round" stroke-linejoin="round"/>
<path d="M196.596 306.976C197.02 307.126 197.408 307.364 197.735 307.675C198.061 307.985 198.318 308.361 198.49 308.777C198.662 309.194 198.744 309.641 198.731 310.092C198.717 310.542 198.61 310.984 198.414 311.39" stroke="#FF3DF0" stroke-width="0.716761" stroke-linecap="round" stroke-linejoin="round"/>
<path d="M184.906 314.068C187.486 315.292 189.238 315.292 193.388 314.812" stroke="#FF3DF0" stroke-width="0.716761" stroke-linecap="round" stroke-linejoin="round"/>
<path d="M186.676 312.416C188.187 313.05 189.839 313.274 191.465 313.065C193.091 312.856 194.633 312.222 195.935 311.226" stroke="#FF3DF0" stroke-width="0.716761" stroke-linecap="round" stroke-linejoin="round"/>
<path d="M201.936 309.952C204.05 311.123 206.519 311.482 208.88 310.961" stroke="#FF3DF0" stroke-width="0.716761" stroke-linecap="round" stroke-linejoin="round"/>
<path d="M198.993 305.224C199.162 304.813 199.46 304.469 199.842 304.242C200.223 304.016 200.668 303.919 201.109 303.967" stroke="#FF3DF0" stroke-width="0.716761" stroke-linecap="round" stroke-linejoin="round"/>
<path d="M201.176 301.702C201.853 303.404 203.043 304.853 204.581 305.848C206.118 306.843 207.927 307.336 209.757 307.258" stroke="#FF3DF0" stroke-width="0.716761" stroke-linecap="round" stroke-linejoin="round"/>
<path d="M212.153 307.455C215.079 308.405 218.211 308.519 221.197 307.786C222.68 307.401 224.043 306.652 225.163 305.606C226.284 304.561 227.125 303.253 227.612 301.801" stroke="#FF3DF0" stroke-width="0.716761" stroke-linecap="round" stroke-linejoin="round"/>
<path d="M202.631 299.536C204.906 301.439 207.743 302.543 210.706 302.677C213.669 302.812 216.594 301.969 219.032 300.28C220.691 299.144 221.938 297.503 222.587 295.601C222.899 294.651 222.963 293.637 222.772 292.656C222.58 291.675 222.141 290.759 221.496 289.996C220.636 289.239 219.631 288.666 218.542 288.311C217.454 287.955 216.304 287.826 215.164 287.929C212.576 287.928 210.001 288.279 207.508 288.971C205.704 289.377 204.035 290.243 202.664 291.484C201.989 292.12 201.512 292.937 201.289 293.837C201.066 294.737 201.107 295.682 201.407 296.56" stroke="#FF3DF0" stroke-width="0.716761" stroke-linecap="round" stroke-linejoin="round"/>
<path d="M147.275 303.058C147.59 305.323 149.904 306.745 152.12 307.373C154.885 308.121 157.794 308.156 160.576 307.473C163.358 306.791 165.921 305.414 168.025 303.471" stroke="#FF3DF0" stroke-width="0.716761" stroke-linecap="round" stroke-linejoin="round"/>
<path d="M212.684 305.967C216.933 307.124 223.695 306.744 226.522 301.007" stroke="#FF3DF0" stroke-width="0.716761" stroke-linecap="round" stroke-linejoin="round"/>
<path d="M203.292 297.188C205.947 298.976 209.147 299.772 212.331 299.437C215.514 299.101 218.478 297.655 220.702 295.353" stroke="#FF3DF0" stroke-width="0.716761" stroke-linecap="round" stroke-linejoin="round"/>
<path d="M224.01 295.882C224.518 295.859 225.026 295.938 225.504 296.114C225.982 296.289 226.421 296.558 226.795 296.904C227.168 297.25 227.47 297.666 227.681 298.129C227.893 298.592 228.01 299.093 228.027 299.602C228.957 299.599 229.86 299.916 230.583 300.5C231.307 301.083 231.808 301.898 232.002 302.808C232.196 303.717 232.071 304.665 231.648 305.494C231.226 306.322 230.531 306.979 229.681 307.356H230.16" stroke="#FF3DF0" stroke-width="0.716761" stroke-linecap="round" stroke-linejoin="round"/>
<path d="M291.963 265.741C292.05 266.599 291.947 267.466 291.661 268.281C291.376 269.095 290.914 269.837 290.31 270.453C288.012 272.718 284.242 272.652 281.167 271.676C278.187 270.712 275.47 269.071 273.231 266.881C271.624 265.452 270.517 263.546 270.073 261.442C269.878 260.388 270.022 259.3 270.482 258.332C270.942 257.364 271.695 256.566 272.635 256.052" stroke="#FF3DF0" stroke-width="0.716761" stroke-linecap="round" stroke-linejoin="round"/>
<path d="M273.71 268.501C269.679 268.914 265.612 268.211 261.954 266.467C260.139 265.682 258.49 264.56 257.093 263.161C256.371 262.543 255.853 261.721 255.608 260.803C255.363 259.885 255.402 258.914 255.721 258.019" stroke="#FF3DF0" stroke-width="0.716761" stroke-linecap="round" stroke-linejoin="round"/>
<path d="M275.561 271.081C275.741 271.319 275.838 271.609 275.838 271.908C275.838 272.206 275.741 272.496 275.561 272.734C275.089 273.503 274.398 274.113 273.577 274.487C272.325 275.143 270.932 275.486 269.518 275.486C268.104 275.486 266.711 275.143 265.459 274.487" stroke="#FF3DF0" stroke-width="0.716761" stroke-linecap="round" stroke-linejoin="round"/>
<path d="M287.945 273.346C288.222 273.576 288.449 273.859 288.612 274.18C288.776 274.501 288.872 274.851 288.895 275.21C288.918 275.569 288.868 275.929 288.747 276.268C288.627 276.607 288.438 276.918 288.193 277.182C287.018 278.442 285.502 279.333 283.828 279.744C278.438 280.72 274.239 279.513 268.386 276.438" stroke="#FF3DF0" stroke-width="0.716761" stroke-linecap="round" stroke-linejoin="round"/>
<path d="M265.559 267.956L265.146 268.303C265.458 268.727 265.627 269.24 265.627 269.767C265.627 270.293 265.458 270.806 265.146 271.23C264.483 272.048 263.572 272.629 262.55 272.883C260.037 273.462 257.434 273.53 254.895 273.082L255.804 273.181" stroke="#FF3DF0" stroke-width="0.716761" stroke-linecap="round" stroke-linejoin="round"/>
<path d="M270.403 280.257C270.403 281.282 269.378 281.91 268.402 282.274C266.689 282.762 264.874 282.762 263.161 282.274" stroke="#FF3DF0" stroke-width="0.716761" stroke-linecap="round" stroke-linejoin="round"/>
<path d="M266.286 277.959C265.608 280.075 263.475 280.522 261.541 280.803C259.293 281.101 257.008 280.904 254.845 280.224" stroke="#FF3DF0" stroke-width="0.716761" stroke-linecap="round" stroke-linejoin="round"/>
<path d="M251.703 280.009C249.785 281.018 246.644 281.497 241.65 280.787C239.028 280.454 236.603 279.221 234.789 277.298C234.165 276.62 233.694 275.816 233.409 274.94C233.124 274.064 233.031 273.137 233.136 272.222C233.26 271.306 233.693 270.459 234.363 269.822C235.034 269.185 235.901 268.795 236.823 268.717" stroke="#FF3DF0" stroke-width="0.716761" stroke-linecap="round" stroke-linejoin="round"/>
<path d="M247.851 269.063C250.075 269.79 252.078 271.07 253.671 272.784C254.26 273.725 254.516 274.837 254.398 275.942" stroke="#FF3DF0" stroke-width="0.716761" stroke-linecap="round" stroke-linejoin="round"/>
<path d="M234.342 268.236C233.25 268.644 232.359 269.459 231.856 270.511C231.353 271.563 231.278 272.769 231.647 273.874" stroke="#FF3DF0" stroke-width="0.716761" stroke-linecap="round" stroke-linejoin="round"/>
<path d="M232.325 274.388C229.095 274.527 225.957 275.502 223.215 277.215C222.568 277.545 221.992 278 221.521 278.554C221.05 279.107 220.693 279.748 220.47 280.439C220.361 281.3 220.517 282.173 220.915 282.944C221.314 283.715 221.937 284.346 222.702 284.754C224.237 285.547 225.935 285.971 227.663 285.994C230.14 286.277 232.646 286.16 235.086 285.647C237.544 285.119 239.728 283.722 241.237 281.712" stroke="#FF3DF0" stroke-width="0.716761" stroke-linecap="round" stroke-linejoin="round"/>
<path d="M237.93 281.878C231.317 285.697 224.885 283.845 223.314 282.754" stroke="#FF3DF0" stroke-width="0.716761" stroke-linecap="round" stroke-linejoin="round"/>
<path d="M243.386 282.274C243.99 282.527 244.525 282.92 244.948 283.42C245.37 283.92 245.668 284.514 245.816 285.151C245.953 285.795 245.93 286.463 245.752 287.096C245.573 287.73 245.244 288.311 244.791 288.789C243.864 289.636 242.719 290.209 241.484 290.442C238.672 291.136 235.733 291.136 232.92 290.442" stroke="#FF3DF0" stroke-width="0.716761" stroke-linecap="round" stroke-linejoin="round"/>
<path d="M233.351 288.475C232.541 289.615 231.379 290.457 230.044 290.873C229.119 291.24 228.122 291.394 227.128 291.322C226.135 291.251 225.171 290.956 224.307 290.459C223.463 289.931 222.829 289.126 222.512 288.183C222.196 287.239 222.216 286.214 222.571 285.284" stroke="#FF3DF0" stroke-width="0.716761" stroke-linecap="round" stroke-linejoin="round"/>
<path d="M262.93 270.221C260.933 271.021 258.763 271.289 256.631 270.998" stroke="#FF3DF0" stroke-width="0.716761" stroke-linecap="round" stroke-linejoin="round"/>
<path d="M265.873 276.471C265.596 275.543 265.018 274.733 264.232 274.167C263.445 273.602 262.493 273.313 261.524 273.346H261.905" stroke="#FF3DF0" stroke-width="0.716761" stroke-linecap="round" stroke-linejoin="round"/>
<path d="M263.343 276.719C263.369 276.968 263.32 277.219 263.202 277.44C263.084 277.661 262.903 277.842 262.682 277.959C262.236 278.187 261.744 278.312 261.243 278.323C259.59 278.463 257.927 278.418 256.283 278.19" stroke="#FF3DF0" stroke-width="0.716761" stroke-linecap="round" stroke-linejoin="round"/>
<path d="M289.549 268.634C286.622 269.383 283.534 269.202 280.714 268.118C277.894 267.034 275.481 265.1 273.809 262.583" stroke="#FF3DF0" stroke-width="0.716761" stroke-linecap="round" stroke-linejoin="round"/>
<path d="M286.523 275.678C286.043 276.719 283.993 277.331 282.869 277.43C280.29 278.075 277.571 277.854 275.131 276.802" stroke="#FF3DF0" stroke-width="0.716761" stroke-linecap="round" stroke-linejoin="round"/>
<path d="M273.577 271.709C272.734 273.197 269.692 273.908 267.658 273.23" stroke="#FF3DF0" stroke-width="0.716761" stroke-linecap="round" stroke-linejoin="round"/>
<path d="M270.436 265.624C265.624 266.021 258.862 262.218 258.052 259.49" stroke="#FF3DF0" stroke-width="0.716761" stroke-linecap="round" stroke-linejoin="round"/>
<path d="M225.233 274.818C226.167 274.242 226.936 273.432 227.461 272.467C227.986 271.503 228.25 270.418 228.227 269.32C228.203 268.222 227.893 267.15 227.327 266.209C226.762 265.268 225.96 264.491 225.001 263.955C222.131 262.567 218.926 262.022 215.759 262.384C214.236 262.466 212.748 262.872 211.394 263.573C210.04 264.274 208.851 265.255 207.905 266.452C206.989 267.675 206.475 269.153 206.433 270.681C206.392 272.209 206.825 273.712 207.674 274.983" stroke="#FF3DF0" stroke-width="0.716761" stroke-linecap="round" stroke-linejoin="round"/>
<path d="M226.72 268.022C226.72 273.264 221.429 274.52 217.841 274.636C214.253 274.752 210.136 274.388 207.921 269.94" stroke="#FF3DF0" stroke-width="0.716761" stroke-linecap="round" stroke-linejoin="round"/>
<path d="M221.397 276.389C217.724 277.734 213.694 277.734 210.021 276.389" stroke="#FF3DF0" stroke-width="0.716761" stroke-linecap="round" stroke-linejoin="round"/>
<path d="M210.055 277.596C209.676 277.719 209.328 277.922 209.034 278.191C208.74 278.46 208.506 278.788 208.35 279.155C208.193 279.521 208.117 279.917 208.126 280.315C208.135 280.714 208.229 281.106 208.401 281.465" stroke="#FF3DF0" stroke-width="0.716761" stroke-linecap="round" stroke-linejoin="round"/>
<path d="M220.371 283.828C218.106 284.903 216.552 284.903 212.914 284.473" stroke="#FF3DF0" stroke-width="0.716761" stroke-linecap="round" stroke-linejoin="round"/>
<path d="M217.593 282.308C216.226 282.755 214.765 282.838 213.356 282.548C211.947 282.258 210.637 281.605 209.558 280.654" stroke="#FF3DF0" stroke-width="0.716761" stroke-linecap="round" stroke-linejoin="round"/>
<path d="M206.814 278.34C204.655 279.5 202.217 280.038 199.771 279.894" stroke="#FF3DF0" stroke-width="0.716761" stroke-linecap="round" stroke-linejoin="round"/>
<path d="M206.086 272.982C205.489 274.471 204.445 275.738 203.098 276.609C201.75 277.479 200.166 277.911 198.563 277.843" stroke="#FF3DF0" stroke-width="0.716761" stroke-linecap="round" stroke-linejoin="round"/>
<path d="M197.026 276.273C194.716 277.454 192.124 277.975 189.536 277.777C188.25 277.654 187.015 277.213 185.942 276.494C184.868 275.776 183.99 274.802 183.386 273.66" stroke="#FF3DF0" stroke-width="0.716761" stroke-linecap="round" stroke-linejoin="round"/>
<path d="M138.049 250C138.137 250.829 138.471 251.613 139.007 252.252C139.543 252.891 140.257 253.356 141.058 253.588C142.671 254.04 144.36 254.153 146.018 253.919C144.961 254.478 144.148 255.41 143.739 256.534C143.33 257.658 143.352 258.895 143.803 260.003C144.307 261.085 145.051 262.038 145.98 262.789C146.908 263.54 147.996 264.069 149.16 264.335C151.494 264.844 153.895 264.967 156.269 264.699" stroke="#FF3DF0" stroke-width="0.716761" stroke-linecap="round" stroke-linejoin="round"/>
<path d="M204.863 271.081C202.873 272.754 200.388 273.725 197.791 273.844C195.194 273.964 192.63 273.225 190.495 271.743C189.038 270.749 187.942 269.311 187.37 267.642C187.086 266.803 187.025 265.905 187.193 265.035C187.362 264.166 187.753 263.355 188.329 262.682C189.08 262.014 189.962 261.508 190.917 261.195C191.873 260.882 192.883 260.769 193.884 260.863C196.12 260.866 198.345 261.172 200.498 261.773C202.087 262.131 203.557 262.894 204.764 263.988C205.353 264.543 205.77 265.257 205.964 266.043C206.157 266.829 206.119 267.654 205.855 268.419" stroke="#FF3DF0" stroke-width="0.716761" stroke-linecap="round" stroke-linejoin="round"/>
<path d="M251.77 274.619C251.555 276.273 249.885 277.281 248.298 277.727C246.306 278.269 244.21 278.295 242.205 277.804C240.201 277.312 238.355 276.318 236.84 274.917" stroke="#FF3DF0" stroke-width="0.716761" stroke-linecap="round" stroke-linejoin="round"/>
<path d="M204.234 269.014C201.906 270.586 199.095 271.283 196.301 270.98C193.508 270.678 190.912 269.395 188.974 267.36" stroke="#FF3DF0" stroke-width="0.716761" stroke-linecap="round" stroke-linejoin="round"/>
<path d="M186.08 267.923C185.628 267.894 185.174 267.957 184.748 268.11C184.322 268.263 183.931 268.502 183.601 268.812C183.271 269.122 183.008 269.497 182.828 269.913C182.649 270.329 182.557 270.777 182.558 271.23C181.743 271.232 180.953 271.516 180.323 272.033C179.693 272.55 179.261 273.269 179.099 274.068C178.938 274.867 179.057 275.697 179.438 276.418C179.818 277.139 180.435 277.707 181.186 278.025H180.756" stroke="#FF3DF0" stroke-width="0.716761" stroke-linecap="round" stroke-linejoin="round"/>
<path d="M104.386 212.336C109.098 210.154 113.645 211.559 115.959 216.238C119.167 222.852 119.167 222.852 121.432 232.673C121.664 215.18 127.517 207.707 138.462 202.251C123.582 206.632 120.837 189.553 120.837 189.553C120.837 189.553 118.076 200.449 115.414 203.325C112.185 206.839 108.472 209.873 104.386 212.336Z" fill="white"/>
<path d="M238.955 193.372C239.599 193.01 240.311 192.787 241.046 192.718C241.781 192.648 242.522 192.734 243.222 192.97C243.922 193.205 244.564 193.585 245.108 194.084C245.652 194.583 246.085 195.191 246.379 195.868C248.446 200.085 248.446 200.085 249.901 206.434C250.049 195.207 253.803 190.396 260.829 186.89C251.223 189.718 249.504 178.756 249.504 178.756C249.504 178.756 247.735 185.733 246.032 187.585C243.96 189.841 241.577 191.789 238.955 193.372Z" fill="white"/>
<path d="M77.6504 326.32C78.2267 326.001 78.8634 325.806 79.5196 325.748C80.1758 325.691 80.8368 325.771 81.46 325.984C82.0832 326.198 82.6547 326.54 83.1377 326.988C83.6207 327.436 84.0043 327.98 84.2639 328.585C85.8753 331.539 86.9606 334.75 87.4715 338.076C87.6038 327.973 90.9767 323.658 97.3092 320.5C88.662 323.03 87.1243 313.159 87.1243 313.159C87.1243 313.159 85.4709 319.459 83.9994 321.128C82.1346 323.146 79.9977 324.893 77.6504 326.32Z" fill="white"/>
<path d="M325.56 311.804C326.09 311.506 326.678 311.323 327.284 311.267C327.89 311.211 328.501 311.283 329.078 311.477C329.654 311.672 330.184 311.986 330.632 312.398C331.079 312.81 331.435 313.312 331.677 313.871C333.134 316.595 334.117 319.547 334.587 322.601C334.719 313.325 337.894 309.374 343.631 306.464C335.695 308.778 334.273 299.718 334.273 299.718C334.273 299.718 332.818 305.505 331.396 307.026C329.688 308.888 327.723 310.497 325.56 311.804Z" fill="white"/>
<path d="M198.249 368.483C199.179 367.957 200.21 367.633 201.273 367.532C202.337 367.432 203.41 367.556 204.423 367.898C205.435 368.239 206.364 368.79 207.149 369.515C207.934 370.24 208.558 371.122 208.98 372.104C211.972 378.205 211.972 378.205 214.072 387.397C214.287 371.128 219.727 364.25 229.911 359.108C216.006 363.192 213.526 347.303 213.526 347.303C213.526 347.303 210.964 357.438 208.483 360.116C205.488 363.379 202.042 366.196 198.249 368.483Z" fill="white"/>
<path d="M178.028 174.077C182.988 171.812 187.651 173.267 190.032 178.128C193.339 184.94 193.339 184.94 195.72 195.207C195.968 177.02 202.035 169.265 213.411 163.594C197.885 168.158 195.091 150.367 195.091 150.367C195.091 150.367 192.231 161.693 189.47 164.686C186.12 168.343 182.268 171.505 178.028 174.077Z" fill="white"/>
<path d="M334.455 108.934L309.919 128.592" stroke="#263238" stroke-linecap="round" stroke-linejoin="round"/>
<path d="M344.558 100.831L337.878 106.188" stroke="#263238" stroke-linecap="round" stroke-linejoin="round"/>
<path d="M306.066 93.1104L286.672 114.141" stroke="#263238" stroke-linecap="round" stroke-linejoin="round"/>
<path d="M290.988 56.4053L263.442 99.7075" stroke="#263238" stroke-linecap="round" stroke-linejoin="round"/>
<path d="M248.165 64.9531L240.195 85.2732" stroke="#263238" stroke-linecap="round" stroke-linejoin="round"/>
<path d="M252.249 54.4873L249.587 61.2827" stroke="#263238" stroke-linecap="round" stroke-linejoin="round"/>
<path d="M222.174 43.0781L216.966 70.8385" stroke="#263238" stroke-linecap="round" stroke-linejoin="round"/>
<path d="M223.282 37.2588L222.174 43.0787" stroke="#263238" stroke-linecap="round" stroke-linejoin="round"/>
<path d="M194.149 15.1533L193.719 56.4053" stroke="#263238" stroke-linecap="round" stroke-linejoin="round"/>
<path d="M194.298 1L194.215 8.72134" stroke="#263238" stroke-linecap="round" stroke-linejoin="round"/>
<path d="M31.373 169.149L47.1133 174.424" stroke="#263238" stroke-linecap="round" stroke-linejoin="round"/>
<path d="M23.751 166.604L27.6364 167.91" stroke="#263238" stroke-linecap="round" stroke-linejoin="round"/>
<path d="M1 158.981L16.0624 164.041" stroke="#263238" stroke-linecap="round" stroke-linejoin="round"/>
<path d="M47.1289 143.307L62.8692 152.714" stroke="#263238" stroke-linecap="round" stroke-linejoin="round"/>
<path d="M31.373 133.899L42.1697 140.348" stroke="#263238" stroke-linecap="round" stroke-linejoin="round"/>
<path d="M59.3145 103.626L86.0332 126.393" stroke="#263238" stroke-linecap="round" stroke-linejoin="round"/>
<path d="M45.0459 91.4736L53.2632 98.4675" stroke="#263238" stroke-linecap="round" stroke-linejoin="round"/>
<path d="M91.7715 80.2637L111.513 105.114" stroke="#263238" stroke-linecap="round" stroke-linejoin="round"/>
<path d="M137.537 82.0322L140.083 87.1412" stroke="#263238" stroke-linecap="round" stroke-linejoin="round"/>
<path d="M118.176 43.0781L133.288 73.4839" stroke="#263238" stroke-linecap="round" stroke-linejoin="round"/>
<path d="M156.17 33.7705L164.139 64.6558" stroke="#263238" stroke-linecap="round" stroke-linejoin="round"/>
</svg>
