<svg width="30" height="29" viewBox="0 0 30 29" fill="none" xmlns="http://www.w3.org/2000/svg">
<g clip-path="url(#clip0_89_21703)">
<path d="M24.3824 21.4817C24.3848 21.7097 24.326 22.0078 24.2648 22.2535C23.837 23.9814 21.9375 25.9204 19.2639 25.7439C16.8408 25.5844 14.8672 24.4212 14.8672 22.79C14.8672 21.1587 16.836 19.836 19.2639 19.836C21.6919 19.836 24.3671 19.8505 24.3824 21.4817Z" fill="#FF3DF0"/>
<path d="M19.2645 20.1099C17.9603 20.1099 14.9838 20.4708 14.3007 20.4708C13.094 20.4708 12.1152 21.228 12.1152 22.1624C12.1152 22.6119 12.3456 23.0179 12.7146 23.3208C12.7146 23.3208 13.525 24.1336 14.9846 23.7438C15.6234 23.573 16.6626 22.305 18.492 22.1036C19.4031 22.0029 21.1101 22.7078 24.11 22.7247C24.2388 22.4476 24.2654 22.2551 24.2654 22.2551C24.2654 20.6222 21.6925 20.1099 19.2645 20.1099Z" fill="#FF3DF0"/>
<path d="M24.2646 22.2535C24.2646 22.2535 26.024 21.8966 27.1179 20.4579C28.3931 18.7799 28.2255 16.9843 28.2255 16.9843C29.5177 14.5677 27.8228 12.3016 27.8228 12.3016C27.6544 9.75045 26.0771 8.69356 26.0771 8.69356C25.0533 6.25997 22.788 5.60586 22.788 5.60586C21.0094 3.52511 17.854 3.59197 17.854 3.59197C17.854 3.59197 14.8976 2.5085 10.8392 3.7265C10.1682 3.92789 7.9191 4.39753 6.27415 5.40447C1.0896 8.57836 0.697292 13.5277 0.769792 14.3324C1.17176 18.8299 4.32713 19.6354 6.34101 20.1051C6.81065 21.3803 8.53937 23.7301 11.644 22.8576C15.4704 22.1866 17.0815 21.0451 18.0216 21.0451C18.9617 21.0451 21.5797 22.0521 24.2646 22.2535Z" fill="#1E1E1E"/>
<path d="M14.5882 15.022C16.4635 14.011 17.4801 14.1053 18.3775 14.1866C18.6627 14.2124 18.9325 14.2326 19.2056 14.2309C20.8038 14.1947 22.0984 13.5213 22.6711 12.8696C22.7368 12.7886 22.7686 12.6853 22.7598 12.5814C22.751 12.4775 22.7024 12.3811 22.6241 12.3122C22.5458 12.2434 22.4439 12.2075 22.3397 12.2122C22.2355 12.2168 22.1372 12.2616 22.0653 12.3371C21.6239 12.8398 20.5356 13.3948 19.1871 13.4254C18.9454 13.4326 18.7029 13.4085 18.4516 13.3851C17.489 13.2957 16.2935 13.1861 14.2055 14.3131C13.6698 14.6023 12.9352 14.7094 12.1393 14.79C10.3695 12.2356 11.4344 10.0106 11.7389 9.48058C11.7687 9.48219 11.7977 9.49186 11.8283 9.49186C12.1505 9.49186 12.4744 9.41292 12.7676 9.24697C12.8569 9.19259 12.9216 9.1056 12.9479 9.00439C12.9743 8.90318 12.9602 8.7957 12.9087 8.70467C12.8573 8.61364 12.7724 8.5462 12.6721 8.51661C12.5718 8.48703 12.4639 8.49762 12.3713 8.54614C12.1178 8.68565 11.8211 8.7244 11.5404 8.65466C11.2596 8.58492 11.0155 8.41182 10.8568 8.16995C10.7969 8.08548 10.7068 8.02732 10.6051 8.00756C10.5035 7.9878 10.3981 8.00795 10.3109 8.06383C10.2238 8.11971 10.1614 8.20702 10.1369 8.30763C10.1124 8.40825 10.1276 8.51443 10.1794 8.60414C10.3703 8.903 10.6393 9.12775 10.943 9.27839C10.5233 10.1307 9.72663 12.3717 11.2427 14.8778C10.1761 14.9825 9.10796 15.1332 8.2718 15.6721C7.68409 16.0571 7.17145 16.546 6.75896 17.1148C6.25227 17.0278 4.39707 16.5711 4.07324 14.5121C4.27463 14.3558 4.43735 14.1496 4.53805 13.895C4.55751 13.8458 4.5671 13.7933 4.56625 13.7404C4.56541 13.6875 4.55416 13.6353 4.53314 13.5867C4.51212 13.5382 4.48175 13.4943 4.44375 13.4575C4.40575 13.4207 4.36088 13.3917 4.31168 13.3722C4.26249 13.3528 4.20995 13.3432 4.15705 13.344C4.10416 13.3449 4.05195 13.3561 4.0034 13.3771C3.95485 13.3981 3.91092 13.4285 3.87411 13.4665C3.83731 13.5045 3.80834 13.5494 3.78888 13.5986C3.75842 13.6833 3.70994 13.7603 3.6468 13.8244C3.58366 13.8885 3.50735 13.9382 3.42316 13.9699C3.33783 13.9983 3.24741 14.0079 3.15802 13.9982C3.06864 13.9885 2.98241 13.9596 2.90518 13.9136C2.85895 13.8878 2.80812 13.8715 2.75557 13.8654C2.70302 13.8594 2.64979 13.8637 2.59893 13.8782C2.4962 13.9076 2.40932 13.9765 2.35741 14.0698C2.30549 14.1632 2.29279 14.2734 2.3221 14.3761C2.3514 14.4788 2.42032 14.5657 2.51368 14.6176C2.74246 14.7449 2.98735 14.8093 3.23063 14.8093C3.26043 14.8093 3.28863 14.7956 3.31843 14.794C3.70188 16.7378 5.23807 17.5917 6.32477 17.8503C6.18249 18.1531 6.09234 18.4777 6.05813 18.8105C6.04874 18.9169 6.082 19.0227 6.15058 19.1046C6.21916 19.1864 6.31746 19.2377 6.42385 19.2471L6.4601 19.2487C6.56078 19.2487 6.6578 19.211 6.73206 19.143C6.80631 19.075 6.85241 18.9817 6.86127 18.8814C6.94827 17.9043 7.8803 16.8836 8.70841 16.3479C9.48496 15.8477 10.6216 15.7422 11.722 15.6399C12.7894 15.5424 13.7979 15.4489 14.5882 15.022ZM24.9524 13.8104C24.927 13.8569 24.9111 13.9079 24.9054 13.9605C24.8997 14.0131 24.9044 14.0663 24.9193 14.1171C24.9342 14.1679 24.9589 14.2153 24.9921 14.2565C25.0253 14.2977 25.0663 14.332 25.1127 14.3574C25.1592 14.3828 25.2102 14.3988 25.2628 14.4045C25.3154 14.4102 25.3686 14.4054 25.4194 14.3905C25.522 14.3605 25.6084 14.2909 25.6597 14.1971C25.675 14.1697 27.1435 11.4188 24.3942 9.57C24.3055 9.51039 24.1968 9.48845 24.092 9.50899C23.9871 9.52954 23.8947 9.59089 23.8351 9.67956C23.7755 9.76822 23.7536 9.87693 23.7741 9.98177C23.7947 10.0866 23.856 10.179 23.9447 10.2386C26.0746 11.6709 24.9992 13.7234 24.9524 13.8104ZM8.25568 7.30639C8.31962 7.3066 8.38267 7.2915 8.43957 7.26235C8.49647 7.2332 8.54556 7.19085 8.58274 7.13883C9.7508 5.51403 11.3684 6.06986 11.4368 6.09564C11.536 6.12839 11.6441 6.1213 11.7382 6.07588C11.8323 6.03046 11.905 5.95025 11.9411 5.8522C11.9772 5.75414 11.9737 5.64591 11.9315 5.55034C11.8892 5.45478 11.8115 5.37937 11.7147 5.34003C10.9414 5.05325 9.15549 4.96303 7.92863 6.6692C7.88556 6.72937 7.85991 6.80024 7.85447 6.87404C7.84904 6.94784 7.86404 7.0217 7.89783 7.08754C7.93162 7.15337 7.98289 7.20862 8.04602 7.24722C8.10915 7.28583 8.18169 7.3063 8.25568 7.30639ZM18.7859 5.7855C20.5783 5.6397 21.3935 6.93906 21.4305 7.00028C21.4847 7.09247 21.5733 7.15936 21.6768 7.18626C21.728 7.19957 21.7814 7.20266 21.8338 7.19535C21.8862 7.18805 21.9367 7.17048 21.9824 7.14367C22.028 7.11685 22.0679 7.08131 22.0998 7.03906C22.1317 6.99682 22.155 6.9487 22.1683 6.89746C22.1816 6.84622 22.1847 6.79286 22.1774 6.74043C22.1701 6.68799 22.1526 6.63751 22.1257 6.59186C22.0822 6.51856 21.0463 4.80514 18.7231 4.98236C18.6703 4.98649 18.6189 5.00096 18.5718 5.02495C18.5247 5.04894 18.4827 5.08199 18.4483 5.12219C18.3789 5.20339 18.3446 5.30884 18.3529 5.41535C18.3613 5.52185 18.4116 5.62068 18.4928 5.6901C18.574 5.75952 18.6794 5.79383 18.7859 5.7855ZM26.1567 17.5555C25.9586 17.5442 25.7403 17.7013 25.7225 17.9236C25.7209 17.9381 25.5929 19.3084 24.1839 19.7716C24.0918 19.8005 24.0132 19.8616 23.9624 19.9438C23.9117 20.0259 23.8922 20.1236 23.9076 20.2189C23.9229 20.3143 23.9721 20.4009 24.046 20.463C24.12 20.525 24.2139 20.5584 24.3104 20.557C24.3531 20.557 24.3955 20.5502 24.4361 20.5368C26.3469 19.9101 26.5192 18.0686 26.5257 17.9905C26.5342 17.8839 26.5001 17.7784 26.431 17.6968C26.3618 17.6153 26.2632 17.5645 26.1567 17.5555Z" fill="#FF3DF0"/>
<path d="M6.21866 13.6413C6.20281 13.693 6.19753 13.7473 6.20314 13.8011C6.20874 13.8548 6.2251 13.9069 6.25126 13.9542C6.27742 14.0015 6.31283 14.0431 6.35538 14.0764C6.39794 14.1098 6.44677 14.1342 6.49896 14.1482C6.55116 14.1623 6.60565 14.1657 6.65919 14.1583C6.71273 14.1508 6.76422 14.1327 6.81061 14.1049C6.85699 14.0772 6.89731 14.0404 6.92916 13.9967C6.96102 13.953 6.98375 13.9034 6.99602 13.8507C7.07358 13.5716 7.25393 13.3322 7.50082 13.1807C7.74771 13.0291 8.04281 12.9767 8.3268 13.0339C8.37858 13.0447 8.43199 13.0453 8.48398 13.0355C8.53597 13.0257 8.58552 13.0057 8.62981 12.9768C8.67409 12.9478 8.71224 12.9104 8.74207 12.8668C8.77191 12.8231 8.79284 12.7739 8.80368 12.7221C8.81453 12.6704 8.81507 12.6169 8.80527 12.565C8.79547 12.513 8.77553 12.4634 8.74658 12.4191C8.71763 12.3748 8.68024 12.3367 8.63655 12.3069C8.59286 12.277 8.54372 12.2561 8.49193 12.2453C8.15671 12.1773 7.80933 12.2012 7.4866 12.3145C6.54732 10.7083 6.73018 9.12453 6.7326 9.10761C6.74636 9.00183 6.71776 8.89489 6.65303 8.81009C6.5883 8.7253 6.49269 8.66951 6.38702 8.65489C6.28151 8.64132 6.1749 8.66979 6.0902 8.73414C6.0055 8.7985 5.9495 8.89358 5.9343 8.99886C5.92382 9.077 5.70874 10.8645 6.7906 12.7157C6.51443 12.9624 6.31575 13.2839 6.21866 13.6413ZM15.224 11.6516C15.3848 11.5052 15.595 11.4252 15.8124 11.4274C16.0298 11.4296 16.2383 11.514 16.396 11.6636C16.4729 11.7376 16.576 11.7782 16.6826 11.7765C16.7893 11.7748 16.891 11.7311 16.9656 11.6548C17.04 11.5782 17.081 11.4752 17.0795 11.3683C17.078 11.2615 17.0341 11.1597 16.9575 11.0853C16.7756 10.9121 16.5557 10.7839 16.3155 10.7107C16.5539 9.89222 16.4597 9.52892 16.2382 8.84822C16.1943 8.71504 16.1521 8.58131 16.1117 8.44706L16.0875 8.3665C15.7943 7.39339 15.6002 6.75136 16.1576 5.84511C16.2136 5.7541 16.2311 5.64458 16.2063 5.54064C16.1816 5.4367 16.1165 5.34687 16.0255 5.29089C15.9345 5.23492 15.825 5.21739 15.721 5.24216C15.6171 5.26694 15.5272 5.33199 15.4713 5.423C14.7237 6.63778 14.9984 7.54725 15.3166 8.60011L15.3408 8.68067C15.3883 8.83695 15.4318 8.97389 15.4721 9.09714C15.671 9.71017 15.7315 9.91559 15.4882 10.6567C15.1839 10.7121 14.9017 10.8529 14.6746 11.0627C14.5993 11.1362 14.5557 11.2363 14.5533 11.3415C14.5508 11.4467 14.5897 11.5487 14.6614 11.6257C14.7332 11.7026 14.8323 11.7484 14.9374 11.7532C15.0426 11.7581 15.1454 11.7216 15.224 11.6516ZM20.3513 9.24697C20.5905 9.2477 20.8269 9.19514 21.0433 9.09311C21.14 9.04761 21.2146 8.96556 21.2508 8.86502C21.287 8.76448 21.2817 8.65369 21.2362 8.55702C21.1907 8.46034 21.1087 8.3857 21.0081 8.34952C20.9076 8.31334 20.7968 8.31858 20.7001 8.36409C20.5021 8.45456 20.2772 8.4669 20.0705 8.39863C19.8638 8.33037 19.6904 8.18655 19.5852 7.99595C19.5613 7.94755 19.5279 7.90446 19.4869 7.86924C19.446 7.83402 19.3984 7.80738 19.347 7.79092C19.2956 7.77446 19.2414 7.76851 19.1876 7.77342C19.1338 7.77832 19.0816 7.79399 19.034 7.81949C18.9864 7.84499 18.9444 7.8798 18.9106 7.92185C18.8767 7.96389 18.8516 8.01232 18.8368 8.06426C18.822 8.11619 18.8179 8.17056 18.8245 8.22415C18.8312 8.27773 18.8485 8.32943 18.8755 8.37617C19.0205 8.64684 19.2364 8.86031 19.4878 9.00853C19.0552 10.0598 19.3009 11.1763 19.5015 11.7684C19.5168 11.8203 19.5425 11.8687 19.5769 11.9105C19.6114 11.9523 19.6539 11.9867 19.702 12.0117C19.75 12.0367 19.8027 12.0517 19.8567 12.0559C19.9107 12.0601 19.965 12.0533 20.0163 12.036C20.0677 12.0187 20.115 11.9912 20.1555 11.9552C20.1959 11.9192 20.2287 11.8754 20.2519 11.8264C20.2751 11.7775 20.2881 11.7243 20.2902 11.6702C20.2924 11.616 20.2835 11.562 20.2643 11.5114C20.129 11.1102 19.8664 10.0968 20.2627 9.23489C20.2933 9.2365 20.3215 9.24697 20.3513 9.24697ZM24.2156 16.8426C24.2125 16.7897 24.199 16.7379 24.1757 16.6903C24.1525 16.6426 24.1201 16.6001 24.0803 16.5651C24.0405 16.5301 23.9942 16.5034 23.944 16.4864C23.8937 16.4695 23.8407 16.4626 23.7878 16.4664C23.5947 16.4797 23.4008 16.4548 23.2173 16.393C23.0338 16.3312 22.8643 16.2338 22.7186 16.1063C22.5729 15.9788 22.4537 15.8238 22.3681 15.6502C22.2824 15.4766 22.2319 15.2877 22.2194 15.0945C22.2104 14.9886 22.1605 14.8903 22.0804 14.8204C22.0003 14.7506 21.8962 14.7145 21.79 14.7199C21.6836 14.7276 21.5845 14.777 21.5143 14.8574C21.4441 14.9379 21.4086 15.0428 21.4155 15.1493C21.4485 15.6246 21.6297 16.0531 21.9052 16.4019C21.2576 17.164 20.4093 17.3807 19.9365 17.4363C19.5184 17.4862 19.1527 17.4435 18.7297 17.3936C18.3423 17.3493 17.904 17.2985 17.3619 17.3146L17.3579 17.3154C17.3418 17.085 17.287 16.7491 17.1122 16.4696C17.0521 16.3868 16.9628 16.3299 16.8624 16.3105C16.762 16.291 16.6579 16.3104 16.5712 16.3647C16.4846 16.4191 16.4218 16.5043 16.3955 16.6032C16.3693 16.702 16.3816 16.8072 16.4299 16.8973C16.5378 17.0705 16.558 17.3468 16.558 17.4814C16.152 17.6272 15.8007 17.8414 15.4834 18.0485C14.9162 18.4174 14.4692 18.709 13.7965 18.5576C13.1875 18.4182 12.5777 18.39 12.0605 18.4625C11.98 18.2603 11.8527 18.0187 11.6562 17.8326C11.5785 17.7592 11.4749 17.7197 11.3681 17.7227C11.2612 17.7257 11.16 17.771 11.0866 17.8487C11.0132 17.9264 10.9737 18.03 10.9767 18.1368C10.9798 18.2436 11.0251 18.3448 11.1027 18.4182C11.172 18.4835 11.2268 18.5785 11.2711 18.6736C10.3826 19.0393 9.9371 19.6507 9.91616 19.6805C9.87342 19.7407 9.84807 19.8114 9.84288 19.885C9.83768 19.9586 9.85284 20.0322 9.8867 20.0978C9.92056 20.1634 9.97181 20.2183 10.0348 20.2567C10.0979 20.2951 10.1702 20.3153 10.244 20.3153C10.3077 20.3155 10.3705 20.3006 10.4273 20.2719C10.4842 20.2432 10.5334 20.2015 10.5711 20.1502C10.5751 20.1437 11.0174 19.5516 11.8898 19.3124C12.3409 19.1883 12.9877 19.1988 13.6185 19.3422C13.7949 19.3825 13.9584 19.3962 14.1171 19.3986C14.192 19.5742 14.221 19.7828 14.2251 19.8602C14.231 19.9628 14.2759 20.0593 14.3506 20.13C14.4254 20.2007 14.5242 20.2402 14.627 20.2404L14.6488 20.2396C14.7551 20.234 14.8548 20.1865 14.9262 20.1075C14.9976 20.0286 15.0349 19.9246 15.0298 19.8183C15.0164 19.6306 14.9812 19.4452 14.9251 19.2657C15.2965 19.1311 15.6195 18.9209 15.9232 18.7235C16.384 18.4231 16.8198 18.1387 17.3893 18.1202C17.8662 18.1033 18.2593 18.1492 18.6387 18.1935C19.0205 18.2378 19.3959 18.2668 19.81 18.2426C19.8833 18.4464 19.8777 18.7187 19.8664 18.8097C19.8596 18.8664 19.8648 18.924 19.8818 18.9785C19.8988 19.0331 19.9271 19.0834 19.9649 19.1262C20.0027 19.169 20.0492 19.2034 20.1012 19.227C20.1532 19.2506 20.2096 19.263 20.2667 19.2633C20.3644 19.2631 20.4587 19.2275 20.532 19.163C20.6054 19.0986 20.6528 19.0097 20.6655 18.9128C20.695 18.6486 20.6789 18.3813 20.618 18.1226C21.3529 17.9276 22.0115 17.5144 22.507 16.9376C22.9063 17.1843 23.3726 17.3006 23.841 17.2703C23.8937 17.2668 23.9452 17.253 23.9925 17.2296C24.0398 17.2062 24.0821 17.1738 24.1169 17.134C24.1517 17.0943 24.1783 17.0481 24.1952 16.9981C24.2122 16.9481 24.2191 16.8952 24.2156 16.8426Z" fill="#FF3DF0"/>
</g>
<defs>
<clipPath id="clip0_89_21703">
<rect width="29" height="29" fill="white" transform="translate(0.299805)"/>
</clipPath>
</defs>
</svg>
