<svg width="34" height="33" viewBox="0 0 34 33" fill="none" xmlns="http://www.w3.org/2000/svg">
<rect x="3" y="5" width="26" height="22" fill="white"/>
<mask id="path-2-inside-1_287_14" fill="white">
<path d="M30.3571 0.3125H3.64286C1.6317 0.3125 0 1.86621 0 3.78125V29.2188C0 31.1338 1.6317 32.6875 3.64286 32.6875H30.3571C32.3683 32.6875 34 31.1338 34 29.2188V3.78125C34 1.86621 32.3683 0.3125 30.3571 0.3125ZM26.646 11.7883C26.6612 11.9906 26.6612 12.2002 26.6612 12.4025C26.6612 18.668 21.6522 25.8873 12.4996 25.8873C9.67634 25.8873 7.05804 25.1068 4.85714 23.7627C5.25938 23.8061 5.64643 23.8205 6.05625 23.8205C8.38616 23.8205 10.5263 23.0689 12.2339 21.7971C10.0482 21.7537 8.21161 20.3879 7.5817 18.509C8.34821 18.6174 9.03884 18.6174 9.82812 18.4223C7.55134 17.9814 5.84375 16.0736 5.84375 13.7684V13.7105C6.50402 14.0646 7.27812 14.2814 8.09018 14.3104C7.40747 13.8779 6.8478 13.2913 6.46112 12.6028C6.07443 11.9143 5.87276 11.1454 5.87411 10.3646C5.87411 9.48301 6.11696 8.67363 6.54955 7.97266C9.00089 10.8488 12.6817 12.7277 16.8103 12.9301C16.1045 9.71426 18.6317 7.10547 21.6674 7.10547C23.1018 7.10547 24.392 7.67637 25.3027 8.60137C26.4259 8.39902 27.5036 8.00156 28.4598 7.45957C28.0879 8.55801 27.3063 9.48301 26.2741 10.0684C27.2759 9.96719 28.2473 9.6998 29.1429 9.33125C28.4674 10.2779 27.6174 11.1162 26.646 11.7883Z"/>
</mask>
<path d="M30.3571 0.3125H3.64286C1.6317 0.3125 0 1.86621 0 3.78125V29.2188C0 31.1338 1.6317 32.6875 3.64286 32.6875H30.3571C32.3683 32.6875 34 31.1338 34 29.2188V3.78125C34 1.86621 32.3683 0.3125 30.3571 0.3125ZM26.646 11.7883C26.6612 11.9906 26.6612 12.2002 26.6612 12.4025C26.6612 18.668 21.6522 25.8873 12.4996 25.8873C9.67634 25.8873 7.05804 25.1068 4.85714 23.7627C5.25938 23.8061 5.64643 23.8205 6.05625 23.8205C8.38616 23.8205 10.5263 23.0689 12.2339 21.7971C10.0482 21.7537 8.21161 20.3879 7.5817 18.509C8.34821 18.6174 9.03884 18.6174 9.82812 18.4223C7.55134 17.9814 5.84375 16.0736 5.84375 13.7684V13.7105C6.50402 14.0646 7.27812 14.2814 8.09018 14.3104C7.40747 13.8779 6.8478 13.2913 6.46112 12.6028C6.07443 11.9143 5.87276 11.1454 5.87411 10.3646C5.87411 9.48301 6.11696 8.67363 6.54955 7.97266C9.00089 10.8488 12.6817 12.7277 16.8103 12.9301C16.1045 9.71426 18.6317 7.10547 21.6674 7.10547C23.1018 7.10547 24.392 7.67637 25.3027 8.60137C26.4259 8.39902 27.5036 8.00156 28.4598 7.45957C28.0879 8.55801 27.3063 9.48301 26.2741 10.0684C27.2759 9.96719 28.2473 9.6998 29.1429 9.33125C28.4674 10.2779 27.6174 11.1162 26.646 11.7883Z" fill="#39FF14" stroke="black" stroke-width="3" mask="url(#path-2-inside-1_287_14)"/>
</svg>
